<svg width="140" height="48" viewBox="0 0 140 48" fill="none" xmlns="http://www.w3.org/2000/svg">
<rect width="140" height="48" rx="4" fill="black"/>
<path d="M40.9225 22.3976C40.8892 18.966 43.6443 17.3202 43.7674 17.2385C42.2193 14.9093 39.8079 14.5902 38.9486 14.5533C36.8963 14.3397 34.9442 15.7957 33.9026 15.7957C32.8637 15.7957 31.2565 14.5849 29.5545 14.6167C27.3177 14.6509 25.2551 15.9541 24.1034 18.0139C21.7793 22.1604 23.5082 28.3032 25.7734 31.6662C26.8802 33.3123 28.2 35.1611 29.9329 35.0951C31.6017 35.0266 32.2328 33.9848 34.2503 33.9848C36.2678 33.9848 36.8349 35.0951 38.6009 35.061C40.3966 35.0267 41.5343 33.3834 42.6335 31.7322C43.9046 29.8225 44.4279 27.9736 44.4588 27.8787C44.4189 27.86 40.9572 26.4964 40.9225 22.3976ZM37.6042 12.3271C38.5239 11.1797 39.1447 9.58796 38.9754 8C37.6506 8.05546 36.0447 8.90737 35.0942 10.0521C34.2413 11.0676 33.4947 12.6884 33.6948 14.2446C35.1737 14.3632 36.6835 13.4718 37.6042 12.3271Z" fill="white"/>
<path d="M53.6523 19.0005V13.9419H55.334C55.8353 13.9419 56.2397 13.9977 56.5474 14.1094C56.8573 14.221 57.125 14.4102 57.3506 14.6768C57.7083 15.1006 57.8872 15.6589 57.8872 16.3516C57.8872 17.1924 57.665 17.8441 57.2207 18.3066C56.7764 18.7692 56.1509 19.0005 55.3442 19.0005H53.6523ZM54.3701 18.4639H55.2896C55.9458 18.4639 56.4106 18.2873 56.6841 17.9341C56.978 17.5581 57.125 17.0534 57.125 16.4199C57.125 15.8252 56.9803 15.3581 56.6909 15.0186C56.5155 14.8112 56.3058 14.6699 56.062 14.5947C55.8182 14.5173 55.4513 14.4785 54.9614 14.4785H54.3701V18.4639Z" fill="white"/>
<path d="M60.3687 19.0859C59.8377 19.0859 59.4139 18.9105 59.0972 18.5596C58.7804 18.2064 58.6221 17.7347 58.6221 17.1445C58.6221 16.5475 58.7804 16.0758 59.0972 15.7295C59.4162 15.3809 59.848 15.2065 60.3926 15.2065C60.9372 15.2065 61.3678 15.3809 61.6846 15.7295C62.0036 16.0758 62.1631 16.5452 62.1631 17.1377C62.1631 17.7438 62.0036 18.2201 61.6846 18.5664C61.3656 18.9128 60.9269 19.0859 60.3687 19.0859ZM60.3789 18.5801C61.0921 18.5801 61.4487 18.0993 61.4487 17.1377C61.4487 16.1875 61.0967 15.7124 60.3926 15.7124C59.6908 15.7124 59.3398 16.1898 59.3398 17.1445C59.3398 18.1016 59.6862 18.5801 60.3789 18.5801Z" fill="white"/>
<path d="M63.6465 19.0005L62.5835 15.2886H63.2432L64.0566 18.1631L64.9351 15.2886H65.6084L66.3774 18.1631L67.3105 15.2886H67.8882L66.6782 19.0005H66.0015L65.2153 16.126L64.3267 19.0005H63.6465Z" fill="white"/>
<path d="M68.6094 19.0005V15.2886H69.2827V15.9858C69.6382 15.4663 70.0734 15.2065 70.5884 15.2065C70.9097 15.2065 71.166 15.3091 71.3574 15.5142C71.5488 15.717 71.6445 15.9904 71.6445 16.3345V19.0005H70.9712V16.5532C70.9712 16.2775 70.9302 16.0815 70.8481 15.9653C70.7684 15.8468 70.6351 15.7876 70.4482 15.7876C70.0358 15.7876 69.6473 16.0576 69.2827 16.5977V19.0005H68.6094Z" fill="white"/>
<path d="M72.957 19.0005V13.6035H73.6304V19.0005H72.957Z" fill="white"/>
<path d="M76.4331 19.0859C75.9022 19.0859 75.4784 18.9105 75.1616 18.5596C74.8449 18.2064 74.6865 17.7347 74.6865 17.1445C74.6865 16.5475 74.8449 16.0758 75.1616 15.7295C75.4806 15.3809 75.9124 15.2065 76.457 15.2065C77.0016 15.2065 77.4323 15.3809 77.749 15.7295C78.068 16.0758 78.2275 16.5452 78.2275 17.1377C78.2275 17.7438 78.068 18.2201 77.749 18.5664C77.43 18.9128 76.9914 19.0859 76.4331 19.0859ZM76.4434 18.5801C77.1566 18.5801 77.5132 18.0993 77.5132 17.1377C77.5132 16.1875 77.1611 15.7124 76.457 15.7124C75.7552 15.7124 75.4043 16.1898 75.4043 17.1445C75.4043 18.1016 75.7507 18.5801 76.4434 18.5801Z" fill="white"/>
<path d="M81.1943 18.5288C80.791 18.9002 80.4025 19.0859 80.0288 19.0859C79.7212 19.0859 79.466 18.9902 79.2632 18.7988C79.0604 18.6051 78.959 18.3613 78.959 18.0674C78.959 17.6618 79.1287 17.3507 79.4683 17.1343C79.8101 16.9155 80.2988 16.8062 80.9346 16.8062H81.0952V16.3584C81.0952 15.9277 80.8742 15.7124 80.4321 15.7124C80.0767 15.7124 79.6927 15.8218 79.2803 16.0405V15.4834C79.7337 15.2988 80.1587 15.2065 80.5552 15.2065C80.9699 15.2065 81.2752 15.3 81.4712 15.4868C81.6694 15.6737 81.7686 15.9642 81.7686 16.3584V18.04C81.7686 18.4251 81.887 18.6177 82.124 18.6177C82.1536 18.6177 82.1969 18.6131 82.2539 18.604L82.3018 18.9766C82.1491 19.0495 81.9805 19.0859 81.7959 19.0859C81.4814 19.0859 81.2809 18.9002 81.1943 18.5288ZM81.0952 18.1631V17.2026L80.8696 17.1958C80.5005 17.1958 80.202 17.2664 79.9741 17.4077C79.7463 17.5467 79.6323 17.7301 79.6323 17.958C79.6323 18.1198 79.6893 18.2565 79.8032 18.3682C79.9172 18.4798 80.0562 18.5356 80.2202 18.5356C80.5005 18.5356 80.7922 18.4115 81.0952 18.1631Z" fill="white"/>
<path d="M85.5317 19.0005V18.3032C85.2583 18.825 84.8459 19.0859 84.2944 19.0859C83.8478 19.0859 83.4958 18.923 83.2383 18.5972C82.9831 18.2713 82.8555 17.8258 82.8555 17.2607C82.8555 16.6432 83.0002 16.1465 83.2896 15.7705C83.5812 15.3945 83.964 15.2065 84.438 15.2065C84.8778 15.2065 85.2423 15.3752 85.5317 15.7124V13.6035H86.2085V19.0005H85.5317ZM85.5317 16.1738C85.1831 15.8662 84.8527 15.7124 84.5405 15.7124C83.8957 15.7124 83.5732 16.2057 83.5732 17.1924C83.5732 18.0605 83.8604 18.4946 84.4346 18.4946C84.8083 18.4946 85.174 18.2907 85.5317 17.8828V16.1738Z" fill="white"/>
<path d="M91.2261 19.0859C90.6951 19.0859 90.2713 18.9105 89.9546 18.5596C89.6379 18.2064 89.4795 17.7347 89.4795 17.1445C89.4795 16.5475 89.6379 16.0758 89.9546 15.7295C90.2736 15.3809 90.7054 15.2065 91.25 15.2065C91.7946 15.2065 92.2253 15.3809 92.542 15.7295C92.861 16.0758 93.0205 16.5452 93.0205 17.1377C93.0205 17.7438 92.861 18.2201 92.542 18.5664C92.223 18.9128 91.7843 19.0859 91.2261 19.0859ZM91.2363 18.5801C91.9495 18.5801 92.3062 18.0993 92.3062 17.1377C92.3062 16.1875 91.9541 15.7124 91.25 15.7124C90.5482 15.7124 90.1973 16.1898 90.1973 17.1445C90.1973 18.1016 90.5436 18.5801 91.2363 18.5801Z" fill="white"/>
<path d="M94.0732 19.0005V15.2886H94.7466V15.9858C95.1021 15.4663 95.5373 15.2065 96.0522 15.2065C96.3735 15.2065 96.6299 15.3091 96.8213 15.5142C97.0127 15.717 97.1084 15.9904 97.1084 16.3345V19.0005H96.4351V16.5532C96.4351 16.2775 96.394 16.0815 96.312 15.9653C96.2323 15.8468 96.099 15.7876 95.9121 15.7876C95.4997 15.7876 95.1112 16.0576 94.7466 16.5977V19.0005H94.0732Z" fill="white"/>
<path d="M101.75 19.0859C101.408 19.0859 101.142 18.988 100.95 18.792C100.759 18.596 100.663 18.3237 100.663 17.9751V15.7944H100.198V15.2886H100.663V14.6152L101.336 14.5503V15.2886H102.307V15.7944H101.336V17.8521C101.336 18.3374 101.546 18.5801 101.965 18.5801C102.054 18.5801 102.162 18.5653 102.29 18.5356V19.0005C102.083 19.0575 101.903 19.0859 101.75 19.0859Z" fill="white"/>
<path d="M103.254 19.0005V13.6035H103.927V15.9858C104.283 15.4663 104.718 15.2065 105.233 15.2065C105.554 15.2065 105.811 15.3091 106.002 15.5142C106.193 15.717 106.289 15.9904 106.289 16.3345V19.0005H105.616V16.5532C105.616 16.2775 105.575 16.0815 105.493 15.9653C105.413 15.8468 105.28 15.7876 105.093 15.7876C104.68 15.7876 104.292 16.0576 103.927 16.5977V19.0005H103.254Z" fill="white"/>
<path d="M110.322 18.8809C109.871 19.0176 109.485 19.0859 109.164 19.0859C108.617 19.0859 108.17 18.9048 107.824 18.5425C107.48 18.1779 107.308 17.7062 107.308 17.1274C107.308 16.5646 107.459 16.1032 107.762 15.7432C108.068 15.3831 108.457 15.2031 108.931 15.2031C109.38 15.2031 109.726 15.3626 109.97 15.6816C110.216 16.0007 110.339 16.4541 110.339 17.042L110.336 17.2505H107.995C108.093 18.1323 108.524 18.5732 109.29 18.5732C109.57 18.5732 109.914 18.498 110.322 18.3477V18.8809ZM108.025 16.7446H109.663C109.663 16.0542 109.405 15.709 108.89 15.709C108.373 15.709 108.085 16.0542 108.025 16.7446Z" fill="white"/>
<path d="M59.4326 29.1318L57.71 24.7705L55.9805 29.1318H59.4326ZM60.9502 33.001L59.8496 30.1982H55.5635L54.4492 33.001H53.1162L57.1289 22.8838H58.5508L62.502 33.001H60.9502Z" fill="white"/>
<path d="M64.0127 35.7012V25.5771H65.3594V26.9717C65.9108 25.9326 66.738 25.4131 67.8408 25.4131C68.734 25.4131 69.4359 25.7389 69.9463 26.3906C70.4613 27.0423 70.7188 27.9333 70.7188 29.0635C70.7188 30.2939 70.4271 31.2874 69.8438 32.0439C69.265 32.7959 68.5016 33.1719 67.5537 33.1719C66.6742 33.1719 65.9427 32.8346 65.3594 32.1602V35.7012H64.0127ZM65.3594 31.2305C66.0521 31.8503 66.7129 32.1602 67.3418 32.1602C68.6361 32.1602 69.2832 31.1735 69.2832 29.2002C69.2832 27.4593 68.709 26.5889 67.5605 26.5889C66.8086 26.5889 66.0749 26.9967 65.3594 27.8125V31.2305Z" fill="white"/>
<path d="M72.8311 35.7012V25.5771H74.1777V26.9717C74.7292 25.9326 75.5563 25.4131 76.6592 25.4131C77.5524 25.4131 78.2542 25.7389 78.7646 26.3906C79.2796 27.0423 79.5371 27.9333 79.5371 29.0635C79.5371 30.2939 79.2454 31.2874 78.6621 32.0439C78.0833 32.7959 77.32 33.1719 76.3721 33.1719C75.4925 33.1719 74.7611 32.8346 74.1777 32.1602V35.7012H72.8311ZM74.1777 31.2305C74.8704 31.8503 75.5312 32.1602 76.1602 32.1602C77.4544 32.1602 78.1016 31.1735 78.1016 29.2002C78.1016 27.4593 77.5273 26.5889 76.3789 26.5889C75.627 26.5889 74.8932 26.9967 74.1777 27.8125V31.2305Z" fill="white"/>
<path d="M88.0205 33.2539C87.3415 33.2539 86.4733 33.1058 85.416 32.8096V31.3877C86.5553 31.9163 87.4919 32.1807 88.2256 32.1807C88.7907 32.1807 89.2441 32.0326 89.5859 31.7363C89.9323 31.4401 90.1055 31.0505 90.1055 30.5674C90.1055 30.1709 89.9915 29.8337 89.7637 29.5557C89.5404 29.2777 89.1257 28.9678 88.5195 28.626L87.8223 28.2227C86.9609 27.7305 86.3525 27.2679 85.9971 26.835C85.6462 26.3975 85.4707 25.8893 85.4707 25.3105C85.4707 24.5312 85.7533 23.891 86.3184 23.3896C86.8835 22.8838 87.6035 22.6309 88.4785 22.6309C89.2578 22.6309 90.0804 22.7607 90.9463 23.0205V24.333C89.8799 23.9137 89.0846 23.7041 88.5605 23.7041C88.0638 23.7041 87.6536 23.8363 87.3301 24.1006C87.0065 24.3649 86.8447 24.6976 86.8447 25.0986C86.8447 25.4359 86.9632 25.7344 87.2002 25.9941C87.4372 26.2539 87.8701 26.5638 88.499 26.9238L89.2236 27.334C90.0986 27.8307 90.7093 28.3001 91.0557 28.7422C91.402 29.1842 91.5752 29.7152 91.5752 30.335C91.5752 31.2145 91.2493 31.9209 90.5977 32.4541C89.9505 32.9873 89.0915 33.2539 88.0205 33.2539Z" fill="white"/>
<path d="M95.8545 33.1719C95.1709 33.1719 94.6377 32.9759 94.2549 32.584C93.8721 32.1921 93.6807 31.6475 93.6807 30.9502V26.5889H92.751V25.5771H93.6807V24.2305L95.0273 24.1006V25.5771H96.9688V26.5889H95.0273V30.7041C95.0273 31.6748 95.4466 32.1602 96.2852 32.1602C96.4629 32.1602 96.6794 32.1305 96.9346 32.0713V33.001C96.5199 33.1149 96.1598 33.1719 95.8545 33.1719Z" fill="white"/>
<path d="M101.768 33.1719C100.706 33.1719 99.8581 32.821 99.2246 32.1191C98.5911 31.4128 98.2744 30.4694 98.2744 29.2891C98.2744 28.0951 98.5911 27.1517 99.2246 26.459C99.8626 25.7617 100.726 25.4131 101.815 25.4131C102.905 25.4131 103.766 25.7617 104.399 26.459C105.037 27.1517 105.356 28.0905 105.356 29.2754C105.356 30.4876 105.037 31.4401 104.399 32.1328C103.761 32.8255 102.884 33.1719 101.768 33.1719ZM101.788 32.1602C103.215 32.1602 103.928 31.1986 103.928 29.2754C103.928 27.375 103.224 26.4248 101.815 26.4248C100.412 26.4248 99.71 27.3796 99.71 29.2891C99.71 31.2031 100.403 32.1602 101.788 32.1602Z" fill="white"/>
<path d="M107.462 33.001V25.5771H108.809V26.9717C109.342 25.9326 110.117 25.4131 111.133 25.4131C111.27 25.4131 111.413 25.4245 111.563 25.4473V26.7051C111.331 26.6276 111.126 26.5889 110.948 26.5889C110.096 26.5889 109.383 27.0947 108.809 28.1064V33.001H107.462Z" fill="white"/>
<path d="M118.632 32.7617C117.729 33.0352 116.957 33.1719 116.314 33.1719C115.221 33.1719 114.327 32.8096 113.635 32.085C112.947 31.3558 112.603 30.4124 112.603 29.2549C112.603 28.1292 112.906 27.2064 113.512 26.4863C114.122 25.7663 114.902 25.4062 115.85 25.4062C116.747 25.4062 117.44 25.7253 117.928 26.3633C118.42 27.0013 118.666 27.9082 118.666 29.084L118.659 29.501H113.977C114.173 31.2646 115.036 32.1465 116.567 32.1465C117.128 32.1465 117.816 31.9961 118.632 31.6953V32.7617ZM114.038 28.4893H117.312C117.312 27.1084 116.798 26.418 115.768 26.418C114.733 26.418 114.157 27.1084 114.038 28.4893Z" fill="white"/>
</svg>
