<svg width="85" height="31" viewBox="0 0 85 31" fill="none" xmlns="http://www.w3.org/2000/svg">
<rect width="85" height="31" fill="black" fill-opacity="0"/>
<rect width="85" height="31" fill="black" fill-opacity="0"/>
<path d="M15.8688 12.7521C15.8394 9.71272 18.2788 8.25505 18.3878 8.18263C17.0171 6.11967 14.882 5.83706 14.1211 5.80439C12.3041 5.61515 10.5756 6.90473 9.65339 6.90473C8.73352 6.90473 7.31048 5.83237 5.80348 5.86054C3.82293 5.89082 1.99674 7.04502 0.976935 8.86944C-1.08082 12.5421 0.449964 17.9829 2.45558 20.9614C3.4356 22.4194 4.60421 24.057 6.13854 23.9985C7.6161 23.9378 8.17483 23.0151 9.96119 23.0151C11.7475 23.0151 12.2497 23.9985 13.8133 23.9683C15.4033 23.9379 16.4106 22.4824 17.3839 21.0199C18.5093 19.3285 18.9727 17.6909 19 17.6069C18.9647 17.5903 15.8996 16.3826 15.8688 12.7521ZM12.9308 3.83254C13.7451 2.81634 14.2948 1.40648 14.1449 0C12.9718 0.049125 11.55 0.803671 10.7084 1.81758C9.95322 2.71701 9.29217 4.15256 9.46931 5.53092C10.7788 5.63601 12.1156 4.84645 12.9308 3.83254Z" fill="white"/>
<path d="M27.7744 9V4.66406H29.2158C29.6455 4.66406 29.9922 4.71191 30.2559 4.80762C30.5215 4.90332 30.751 5.06543 30.9443 5.29395C31.251 5.65723 31.4043 6.13574 31.4043 6.72949C31.4043 7.4502 31.2139 8.00879 30.833 8.40527C30.4521 8.80176 29.916 9 29.2246 9H27.7744ZM28.3896 8.54004H29.1777C29.7402 8.54004 30.1387 8.38867 30.373 8.08594C30.625 7.76367 30.751 7.33105 30.751 6.78809C30.751 6.27832 30.627 5.87793 30.3789 5.58691C30.2285 5.40918 30.0488 5.28809 29.8398 5.22363C29.6309 5.15723 29.3164 5.12402 28.8965 5.12402H28.3896V8.54004ZM33.5312 9.07324C33.0762 9.07324 32.7129 8.92285 32.4414 8.62207C32.1699 8.31934 32.0342 7.91504 32.0342 7.40918C32.0342 6.89746 32.1699 6.49316 32.4414 6.19629C32.7148 5.89746 33.085 5.74805 33.5518 5.74805C34.0186 5.74805 34.3877 5.89746 34.6592 6.19629C34.9326 6.49316 35.0693 6.89551 35.0693 7.40332C35.0693 7.92285 34.9326 8.33105 34.6592 8.62793C34.3857 8.9248 34.0098 9.07324 33.5312 9.07324ZM33.54 8.63965C34.1514 8.63965 34.457 8.22754 34.457 7.40332C34.457 6.58887 34.1553 6.18164 33.5518 6.18164C32.9502 6.18164 32.6494 6.59082 32.6494 7.40918C32.6494 8.22949 32.9463 8.63965 33.54 8.63965ZM36.3408 9L35.4297 5.81836H35.9951L36.6924 8.28223L37.4453 5.81836H38.0225L38.6816 8.28223L39.4814 5.81836H39.9766L38.9395 9H38.3594L37.6855 6.53613L36.9238 9H36.3408ZM40.5947 9V5.81836H41.1719V6.41602C41.4766 5.9707 41.8496 5.74805 42.291 5.74805C42.5664 5.74805 42.7861 5.83594 42.9502 6.01172C43.1143 6.18555 43.1963 6.41992 43.1963 6.71484V9H42.6191V6.90234C42.6191 6.66602 42.584 6.49805 42.5137 6.39844C42.4453 6.29688 42.3311 6.24609 42.1709 6.24609C41.8174 6.24609 41.4844 6.47754 41.1719 6.94043V9H40.5947ZM44.3213 9V4.37402H44.8984V9H44.3213ZM47.3008 9.07324C46.8457 9.07324 46.4824 8.92285 46.2109 8.62207C45.9395 8.31934 45.8037 7.91504 45.8037 7.40918C45.8037 6.89746 45.9395 6.49316 46.2109 6.19629C46.4844 5.89746 46.8545 5.74805 47.3213 5.74805C47.7881 5.74805 48.1572 5.89746 48.4287 6.19629C48.7021 6.49316 48.8389 6.89551 48.8389 7.40332C48.8389 7.92285 48.7021 8.33105 48.4287 8.62793C48.1553 8.9248 47.7793 9.07324 47.3008 9.07324ZM47.3096 8.63965C47.9209 8.63965 48.2266 8.22754 48.2266 7.40332C48.2266 6.58887 47.9248 6.18164 47.3213 6.18164C46.7197 6.18164 46.4189 6.59082 46.4189 7.40918C46.4189 8.22949 46.7158 8.63965 47.3096 8.63965ZM51.3818 8.5957C51.0361 8.91406 50.7031 9.07324 50.3828 9.07324C50.1191 9.07324 49.9004 8.99121 49.7266 8.82715C49.5527 8.66113 49.4658 8.45215 49.4658 8.2002C49.4658 7.85254 49.6113 7.58594 49.9023 7.40039C50.1953 7.21289 50.6143 7.11914 51.1592 7.11914H51.2969V6.73535C51.2969 6.36621 51.1074 6.18164 50.7285 6.18164C50.4238 6.18164 50.0947 6.27539 49.7412 6.46289V5.98535C50.1299 5.82715 50.4941 5.74805 50.834 5.74805C51.1895 5.74805 51.4512 5.82812 51.6191 5.98828C51.7891 6.14844 51.874 6.39746 51.874 6.73535V8.17676C51.874 8.50684 51.9756 8.67188 52.1787 8.67188C52.2041 8.67188 52.2412 8.66797 52.29 8.66016L52.3311 8.97949C52.2002 9.04199 52.0557 9.07324 51.8975 9.07324C51.6279 9.07324 51.4561 8.91406 51.3818 8.5957ZM51.2969 8.28223V7.45898L51.1035 7.45312C50.7871 7.45312 50.5312 7.51367 50.3359 7.63477C50.1406 7.75391 50.043 7.91113 50.043 8.10645C50.043 8.24512 50.0918 8.3623 50.1895 8.45801C50.2871 8.55371 50.4062 8.60156 50.5469 8.60156C50.7871 8.60156 51.0371 8.49512 51.2969 8.28223ZM55.0996 9V8.40234C54.8652 8.84961 54.5117 9.07324 54.0391 9.07324C53.6562 9.07324 53.3545 8.93359 53.1338 8.6543C52.915 8.375 52.8057 7.99316 52.8057 7.50879C52.8057 6.97949 52.9297 6.55371 53.1777 6.23145C53.4277 5.90918 53.7559 5.74805 54.1621 5.74805C54.5391 5.74805 54.8516 5.89258 55.0996 6.18164V4.37402H55.6797V9H55.0996ZM55.0996 6.57715C54.8008 6.31348 54.5176 6.18164 54.25 6.18164C53.6973 6.18164 53.4209 6.60449 53.4209 7.4502C53.4209 8.19434 53.667 8.56641 54.1592 8.56641C54.4795 8.56641 54.793 8.3916 55.0996 8.04199V6.57715ZM59.9805 9.07324C59.5254 9.07324 59.1621 8.92285 58.8906 8.62207C58.6191 8.31934 58.4834 7.91504 58.4834 7.40918C58.4834 6.89746 58.6191 6.49316 58.8906 6.19629C59.1641 5.89746 59.5342 5.74805 60.001 5.74805C60.4678 5.74805 60.8369 5.89746 61.1084 6.19629C61.3818 6.49316 61.5186 6.89551 61.5186 7.40332C61.5186 7.92285 61.3818 8.33105 61.1084 8.62793C60.835 8.9248 60.459 9.07324 59.9805 9.07324ZM59.9893 8.63965C60.6006 8.63965 60.9062 8.22754 60.9062 7.40332C60.9062 6.58887 60.6045 6.18164 60.001 6.18164C59.3994 6.18164 59.0986 6.59082 59.0986 7.40918C59.0986 8.22949 59.3955 8.63965 59.9893 8.63965ZM62.4209 9V5.81836H62.998V6.41602C63.3027 5.9707 63.6758 5.74805 64.1172 5.74805C64.3926 5.74805 64.6123 5.83594 64.7764 6.01172C64.9404 6.18555 65.0225 6.41992 65.0225 6.71484V9H64.4453V6.90234C64.4453 6.66602 64.4102 6.49805 64.3398 6.39844C64.2715 6.29688 64.1572 6.24609 63.9971 6.24609C63.6436 6.24609 63.3105 6.47754 62.998 6.94043V9H62.4209ZM69.001 9.07324C68.708 9.07324 68.4795 8.98926 68.3154 8.82129C68.1514 8.65332 68.0693 8.41992 68.0693 8.12109V6.25195H67.6709V5.81836H68.0693V5.24121L68.6465 5.18555V5.81836H69.4785V6.25195H68.6465V8.01562C68.6465 8.43164 68.8262 8.63965 69.1855 8.63965C69.2617 8.63965 69.3545 8.62695 69.4639 8.60156V9C69.2861 9.04883 69.1318 9.07324 69.001 9.07324ZM70.29 9V4.37402H70.8672V6.41602C71.1719 5.9707 71.5449 5.74805 71.9863 5.74805C72.2617 5.74805 72.4814 5.83594 72.6455 6.01172C72.8096 6.18555 72.8916 6.41992 72.8916 6.71484V9H72.3145V6.90234C72.3145 6.66602 72.2793 6.49805 72.209 6.39844C72.1406 6.29688 72.0264 6.24609 71.8662 6.24609C71.5127 6.24609 71.1797 6.47754 70.8672 6.94043V9H70.29ZM76.3486 8.89746C75.9619 9.01465 75.6309 9.07324 75.3555 9.07324C74.8867 9.07324 74.5039 8.91797 74.207 8.60742C73.9121 8.29492 73.7646 7.89062 73.7646 7.39453C73.7646 6.91211 73.8945 6.5166 74.1543 6.20801C74.416 5.89941 74.75 5.74512 75.1562 5.74512C75.541 5.74512 75.8379 5.88184 76.0469 6.15527C76.2578 6.42871 76.3633 6.81738 76.3633 7.32129L76.3604 7.5H74.3535C74.4375 8.25586 74.8076 8.63379 75.4639 8.63379C75.7041 8.63379 75.999 8.56934 76.3486 8.44043V8.89746ZM74.3799 7.06641H75.7832C75.7832 6.47461 75.5625 6.17871 75.1211 6.17871C74.6777 6.17871 74.4307 6.47461 74.3799 7.06641Z" fill="white"/>
<path d="M33.5174 19.1309L31.7948 14.7695L30.0653 19.1309H33.5174ZM35.035 23L33.9344 20.1973H29.6483L28.534 23H27.201L31.2137 12.8828H32.6356L36.5868 23H35.035ZM37.1175 25.7002V15.5762H38.4642V16.9707C39.0156 15.9316 39.8428 15.4121 40.9456 15.4121C41.8389 15.4121 42.5407 15.738 43.0511 16.3896C43.5661 17.0413 43.8236 17.9323 43.8236 19.0625C43.8236 20.293 43.5319 21.2865 42.9486 22.043C42.3698 22.7949 41.6064 23.1709 40.6585 23.1709C39.779 23.1709 39.0475 22.8337 38.4642 22.1592V25.7002H37.1175ZM38.4642 21.2295C39.1569 21.8493 39.8177 22.1592 40.4466 22.1592C41.7409 22.1592 42.388 21.1725 42.388 19.1992C42.388 17.4583 41.8138 16.5879 40.6654 16.5879C39.9134 16.5879 39.1797 16.9958 38.4642 17.8115V21.2295ZM44.9559 25.7002V15.5762H46.3025V16.9707C46.854 15.9316 47.6811 15.4121 48.784 15.4121C49.6772 15.4121 50.379 15.738 50.8895 16.3896C51.4044 17.0413 51.6619 17.9323 51.6619 19.0625C51.6619 20.293 51.3702 21.2865 50.7869 22.043C50.2081 22.7949 49.4448 23.1709 48.4969 23.1709C47.6173 23.1709 46.8859 22.8337 46.3025 22.1592V25.7002H44.9559ZM46.3025 21.2295C46.9952 21.8493 47.6561 22.1592 48.285 22.1592C49.5792 22.1592 50.2264 21.1725 50.2264 19.1992C50.2264 17.4583 49.6521 16.5879 48.5037 16.5879C47.7518 16.5879 47.018 16.9958 46.3025 17.8115V21.2295ZM58.1853 23.2529C57.5063 23.2529 56.6381 23.1048 55.5808 22.8086V21.3867C56.7201 21.9154 57.6567 22.1797 58.3904 22.1797C58.9555 22.1797 59.4089 22.0316 59.7507 21.7354C60.0971 21.4391 60.2703 21.0495 60.2703 20.5664C60.2703 20.1699 60.1563 19.8327 59.9285 19.5547C59.7052 19.2767 59.2905 18.9668 58.6843 18.625L57.9871 18.2217C57.1257 17.7295 56.5173 17.2669 56.1619 16.834C55.811 16.3965 55.6355 15.8883 55.6355 15.3096C55.6355 14.5303 55.9181 13.89 56.4832 13.3887C57.0483 12.8828 57.7683 12.6299 58.6433 12.6299C59.4226 12.6299 60.2452 12.7598 61.1111 13.0195V14.332C60.0447 13.9128 59.2494 13.7031 58.7254 13.7031C58.2286 13.7031 57.8185 13.8353 57.4949 14.0996C57.1713 14.3639 57.0095 14.6966 57.0095 15.0977C57.0095 15.4349 57.128 15.7334 57.365 15.9932C57.602 16.2529 58.0349 16.5628 58.6638 16.9229L59.3884 17.333C60.2634 17.8298 60.8741 18.2992 61.2205 18.7412C61.5668 19.1833 61.74 19.7142 61.74 20.334C61.74 21.2135 61.4142 21.9199 60.7625 22.4531C60.1153 22.9863 59.2563 23.2529 58.1853 23.2529ZM65.0393 23.1709C64.3557 23.1709 63.8225 22.9749 63.4397 22.583C63.0569 22.1911 62.8655 21.6465 62.8655 20.9492V16.5879H61.9358V15.5762H62.8655V14.2295L64.2121 14.0996V15.5762H66.1536V16.5879H64.2121V20.7031C64.2121 21.6738 64.6314 22.1592 65.47 22.1592C65.6477 22.1592 65.8642 22.1296 66.1194 22.0703V23C65.7047 23.1139 65.3446 23.1709 65.0393 23.1709ZM69.9724 23.1709C68.9105 23.1709 68.0629 22.82 67.4294 22.1182C66.7959 21.4118 66.4792 20.4684 66.4792 19.2881C66.4792 18.0941 66.7959 17.1507 67.4294 16.458C68.0674 15.7607 68.931 15.4121 70.0202 15.4121C71.1094 15.4121 71.9708 15.7607 72.6042 16.458C73.2422 17.1507 73.5612 18.0895 73.5612 19.2744C73.5612 20.4867 73.2422 21.4391 72.6042 22.1318C71.9662 22.8245 71.0889 23.1709 69.9724 23.1709ZM69.9929 22.1592C71.4193 22.1592 72.1325 21.1976 72.1325 19.2744C72.1325 17.374 71.4284 16.4238 70.0202 16.4238C68.6166 16.4238 67.9148 17.3786 67.9148 19.2881C67.9148 21.2021 68.6075 22.1592 69.9929 22.1592ZM74.6867 23V15.5762H76.0334V16.9707C76.5666 15.9316 77.3413 15.4121 78.3576 15.4121C78.4943 15.4121 78.6379 15.4235 78.7883 15.4463V16.7041C78.5559 16.6266 78.3508 16.5879 78.173 16.5879C77.3208 16.5879 76.6076 17.0938 76.0334 18.1055V23H74.6867ZM84.8766 22.7607C83.9743 23.0342 83.2018 23.1709 82.5593 23.1709C81.4655 23.1709 80.5723 22.8086 79.8796 22.084C79.1914 21.3548 78.8473 20.4115 78.8473 19.2539C78.8473 18.1283 79.1504 17.2054 79.7565 16.4854C80.3672 15.7653 81.1465 15.4053 82.0944 15.4053C82.9922 15.4053 83.6849 15.7243 84.1725 16.3623C84.6647 17.0003 84.9108 17.9072 84.9108 19.083L84.904 19.5H80.2214C80.4173 21.2637 81.2809 22.1455 82.8122 22.1455C83.3727 22.1455 84.0609 21.9951 84.8766 21.6943V22.7607ZM80.2829 18.4883H83.5573C83.5573 17.1074 83.0423 16.417 82.0124 16.417C80.9779 16.417 80.4014 17.1074 80.2829 18.4883Z" fill="white"/>
</svg>
