<svg width="6" height="9" viewBox="0 0 6 9" fill="none" xmlns="http://www.w3.org/2000/svg">
<path d="M5.86338 4.15909C6.06488 4.40997 6.04068 4.7905 5.80935 5.00902L3.37001 8.25717L3.36491 8.26202C3.16243 8.45319 2.86838 8.45701 2.66309 8.28691C2.6518 8.27753 2.64073 8.26761 2.62999 8.25717L0.190654 5.00902C-0.0406818 4.7905 -0.0648789 4.40997 0.136618 4.15909C0.338115 3.90822 0.689025 3.88198 0.92047 4.10047L2.44455 6.48427L2.44455 1.01256C2.44455 0.679858 2.69325 0.410156 3.00011 0.410156C3.30697 0.410156 3.55566 0.679858 3.55566 1.01256L3.55566 6.48407L5.07953 4.10047C5.31097 3.88198 5.66188 3.90822 5.86338 4.15909Z" fill="black"/>
</svg>
