<svg width="6" height="8" viewBox="0 0 6 8" fill="none" xmlns="http://www.w3.org/2000/svg">
<path d="M5.86338 4.25106C6.06488 4.00019 6.04068 3.61965 5.80935 3.40113L3.37001 0.152985L3.36491 0.148132C3.16243 -0.0430326 2.86838 -0.0468565 2.66309 0.123247C2.6518 0.13263 2.64073 0.142543 2.62999 0.152985L0.190654 3.40113C-0.0406818 3.61965 -0.0648789 4.00019 0.136618 4.25106C0.338115 4.50194 0.689025 4.52818 0.92047 4.30969L2.44455 1.92588L2.44455 7.39759C2.44455 7.7303 2.69325 8 3.00011 8C3.30697 8 3.55566 7.7303 3.55566 7.39759L3.55566 1.92609L5.07953 4.30969C5.31097 4.52818 5.66188 4.50194 5.86338 4.25106Z" fill="#00B83F"/>
</svg>
