<svg width="13" height="11" viewBox="0 0 13 11" fill="none" xmlns="http://www.w3.org/2000/svg">
<path d="M5.52638 0.18785C5.20025 -0.0892082 4.70555 -0.0559373 4.42147 0.26215L0.198881 4.99124L0.192571 4.99825C-0.0559424 5.27665 -0.0609134 5.68098 0.160221 5.96326C0.17242 5.97877 0.185306 5.99399 0.198881 6.00876L4.42147 10.7379C4.70555 11.0559 5.20025 11.0892 5.52638 10.8122C5.85252 10.5351 5.88663 10.0526 5.60259 9.73435L2.50365 6.26374H12.2169C12.6494 6.26374 13 5.92178 13 5.49985C13 5.07792 12.6494 4.73596 12.2169 4.73596H2.50391L5.60259 1.26565C5.88663 0.947411 5.85252 0.464908 5.52638 0.18785Z" fill="#237BEF"/>
</svg>
