<svg width="18" height="20" viewBox="0 0 18 20" fill="none" xmlns="http://www.w3.org/2000/svg">
<path d="M0.646446 15.6464C0.451183 15.8417 0.451183 16.1583 0.646446 16.3536L3.82843 19.5355C4.02369 19.7308 4.34027 19.7308 4.53553 19.5355C4.7308 19.3403 4.7308 19.0237 4.53553 18.8284L1.70711 16L4.53553 13.1716C4.7308 12.9763 4.7308 12.6597 4.53553 12.4645C4.34027 12.2692 4.02369 12.2692 3.82843 12.4645L0.646446 15.6464ZM17 15.5L1 15.5V16.5L17 16.5V15.5Z" fill="#00B43D"/>
<path d="M17.3536 3.64645C17.5488 3.84171 17.5488 4.15829 17.3536 4.35355L14.1716 7.53553C13.9763 7.7308 13.6597 7.7308 13.4645 7.53553C13.2692 7.34027 13.2692 7.02369 13.4645 6.82843L16.2929 4L13.4645 1.17157C13.2692 0.976311 13.2692 0.659728 13.4645 0.464466C13.6597 0.269204 13.9763 0.269204 14.1716 0.464466L17.3536 3.64645ZM1 3.5L17 3.5V4.5L1 4.5L1 3.5Z" fill="#EB5757"/>
</svg>
