<svg width="9" height="15" viewBox="0 0 9 15" fill="none" xmlns="http://www.w3.org/2000/svg">
<path d="M8.64546 7.86933C8.3561 7.41871 7.91945 7.10919 7.33554 6.94097C8.07911 6.48419 8.40588 5.70893 8.31617 4.61505C8.28618 4.21839 8.19515 3.87461 8.04288 3.58322C7.89051 3.29176 7.68488 3.05745 7.42523 2.8802C7.16578 2.70272 6.88361 2.56762 6.57935 2.47447C6.27502 2.38133 5.92563 2.3137 5.5314 2.27167V0H4.37878V2.20856C4.17919 2.20856 3.87481 2.21456 3.46566 2.22659V0H2.31289V2.27167C2.14816 2.2777 1.90618 2.28077 1.58683 2.28077L-5.92065e-08 2.27167V3.75009H0.830799C1.21006 3.75009 1.43212 3.95446 1.49698 4.36306V6.95028C1.54695 6.95028 1.58683 6.95338 1.61679 6.95938H1.49698V10.5831C1.4571 10.8895 1.31241 11.0429 1.06287 11.0429H0.232128L5.23465e-05 12.6926H1.49711C1.59194 12.6926 1.72908 12.6941 1.9088 12.6968C2.08841 12.6998 2.22309 12.7013 2.31294 12.7013V15H3.4659V12.7284C3.67542 12.7345 3.97981 12.7375 4.37902 12.7375V15H5.53166V12.7013C5.94094 12.6773 6.30394 12.6325 6.62067 12.5662C6.93756 12.4998 7.24079 12.3963 7.53015 12.255C7.81948 12.1139 8.06147 11.938 8.25605 11.7276C8.45074 11.5175 8.61153 11.2499 8.739 10.9253C8.86605 10.6008 8.94724 10.2252 8.98206 9.79837C9.04721 8.96324 8.93487 8.32015 8.64546 7.86933ZM3.48808 3.84898C3.52302 3.84898 3.62157 3.84746 3.78375 3.84443C3.94601 3.84134 4.08069 3.83837 4.18797 3.83534C4.29528 3.83237 4.44 3.83988 4.62221 3.85791C4.80434 3.87594 4.95776 3.90003 5.08248 3.93003C5.20719 3.96002 5.34455 4.00962 5.49412 4.07874C5.64395 4.14779 5.76363 4.23197 5.85335 4.33111C5.94324 4.43025 6.01933 4.55651 6.08159 4.70977C6.14404 4.863 6.17524 5.03877 6.17524 5.23706C6.17524 5.40534 6.15283 5.55864 6.10797 5.69693C6.06319 5.83513 5.99565 5.95085 5.90594 6.04399C5.8162 6.13716 5.7237 6.21837 5.62887 6.28742C5.53415 6.35647 5.41303 6.41211 5.26587 6.45413C5.11874 6.49622 4.99025 6.52928 4.88053 6.55327C4.77073 6.57733 4.63353 6.59391 4.46884 6.60288C4.30411 6.61184 4.17932 6.61797 4.09453 6.62094C4.00967 6.62391 3.89368 6.62391 3.74642 6.62094C3.59913 6.61797 3.51317 6.61639 3.48815 6.61639V3.84894H3.48808V3.84898ZM6.63572 9.98778C6.58819 10.1261 6.52716 10.2463 6.45236 10.3486C6.37743 10.4506 6.27883 10.5408 6.15663 10.6188C6.03445 10.6971 5.91582 10.76 5.80115 10.8081C5.68632 10.8564 5.54778 10.8982 5.38576 10.9344C5.22337 10.9705 5.08125 10.9959 4.95886 11.011C4.83667 11.0261 4.69077 11.0381 4.52104 11.0471C4.35144 11.056 4.21912 11.0606 4.12434 11.0606C4.02952 11.0606 3.90973 11.0589 3.76501 11.056C3.62021 11.0532 3.52798 11.0517 3.48802 11.0517V8.00463C3.5279 8.00463 3.64643 8.00169 3.84358 7.99557C4.04076 7.9895 4.20161 7.98669 4.32637 7.98669C4.45111 7.98669 4.62334 7.99557 4.84298 8.01372C5.06242 8.03162 5.24707 8.05856 5.3969 8.09461C5.54655 8.13073 5.70986 8.18624 5.88714 8.26145C6.06424 8.33653 6.20778 8.42816 6.3176 8.53633C6.4274 8.64469 6.51966 8.7827 6.59448 8.95102C6.66949 9.11925 6.7069 9.3116 6.7069 9.528C6.70688 9.69645 6.6832 9.84946 6.63572 9.98778Z" fill="white"/>
</svg>
