<svg width="21" height="21" viewBox="0 0 21 21" fill="none" xmlns="http://www.w3.org/2000/svg">
<rect width="21" height="21" fill="black" fill-opacity="0"/>
<rect width="1.64062" height="1.64062" fill="black" fill-opacity="0" transform="translate(4.35645 7.79297)"/>
<rect width="1.64062" height="1.64062" fill="black" fill-opacity="0" transform="translate(4.35645 7.79297)"/>
<path d="M5.17676 9.43359C5.6298 9.43359 5.99707 9.06633 5.99707 8.61328C5.99707 8.16024 5.6298 7.79297 5.17676 7.79297C4.72371 7.79297 4.35645 8.16024 4.35645 8.61328C4.35645 9.06633 4.72371 9.43359 5.17676 9.43359Z" fill="#BFBFBF"/>
<rect width="1.64062" height="1.64062" fill="black" fill-opacity="0" transform="translate(11.4932 7.79297)"/>
<rect width="1.64062" height="1.64062" fill="black" fill-opacity="0" transform="translate(11.4932 7.79297)"/>
<path d="M12.3135 9.43359C12.7665 9.43359 13.1338 9.06633 13.1338 8.61328C13.1338 8.16024 12.7665 7.79297 12.3135 7.79297C11.8604 7.79297 11.4932 8.16024 11.4932 8.61328C11.4932 9.06633 11.8604 9.43359 12.3135 9.43359Z" fill="#BFBFBF"/>
<rect width="1.64062" height="1.64062" fill="black" fill-opacity="0" transform="translate(15.0615 7.79297)"/>
<rect width="1.64062" height="1.64062" fill="black" fill-opacity="0" transform="translate(15.0615 7.79297)"/>
<path d="M15.8818 9.43359C16.3349 9.43359 16.7021 9.06633 16.7021 8.61328C16.7021 8.16024 16.3349 7.79297 15.8818 7.79297C15.4288 7.79297 15.0615 8.16024 15.0615 8.61328C15.0615 9.06633 15.4288 9.43359 15.8818 9.43359Z" fill="#BFBFBF"/>
<rect width="1.64062" height="1.64062" fill="black" fill-opacity="0" transform="translate(4.35645 11.3613)"/>
<rect width="1.64062" height="1.64062" fill="black" fill-opacity="0" transform="translate(4.35645 11.3613)"/>
<path d="M5.17676 13.002C5.6298 13.002 5.99707 12.6347 5.99707 12.1816C5.99707 11.7286 5.6298 11.3613 5.17676 11.3613C4.72371 11.3613 4.35645 11.7286 4.35645 12.1816C4.35645 12.6347 4.72371 13.002 5.17676 13.002Z" fill="#BFBFBF"/>
<rect width="1.64062" height="1.64062" fill="black" fill-opacity="0" transform="translate(4.35645 14.9297)"/>
<rect width="1.64062" height="1.64062" fill="black" fill-opacity="0" transform="translate(4.35645 14.9297)"/>
<path d="M5.17676 16.5703C5.6298 16.5703 5.99707 16.203 5.99707 15.75C5.99707 15.297 5.6298 14.9297 5.17676 14.9297C4.72371 14.9297 4.35645 15.297 4.35645 15.75C4.35645 16.203 4.72371 16.5703 5.17676 16.5703Z" fill="#BFBFBF"/>
<rect width="1.64062" height="1.64062" fill="black" fill-opacity="0" transform="translate(7.9248 7.79297)"/>
<rect width="1.64062" height="1.64062" fill="black" fill-opacity="0" transform="translate(7.9248 7.79297)"/>
<path d="M8.74512 9.43359C9.19816 9.43359 9.56543 9.06633 9.56543 8.61328C9.56543 8.16024 9.19816 7.79297 8.74512 7.79297C8.29207 7.79297 7.9248 8.16024 7.9248 8.61328C7.9248 9.06633 8.29207 9.43359 8.74512 9.43359Z" fill="#BFBFBF"/>
<rect width="1.64062" height="1.64062" fill="black" fill-opacity="0" transform="translate(7.9248 11.3613)"/>
<rect width="1.64062" height="1.64062" fill="black" fill-opacity="0" transform="translate(7.9248 11.3613)"/>
<path d="M8.74512 13.002C9.19816 13.002 9.56543 12.6347 9.56543 12.1816C9.56543 11.7286 9.19816 11.3613 8.74512 11.3613C8.29207 11.3613 7.9248 11.7286 7.9248 12.1816C7.9248 12.6347 8.29207 13.002 8.74512 13.002Z" fill="#BFBFBF"/>
<rect width="1.64062" height="1.64062" fill="black" fill-opacity="0" transform="translate(7.9248 14.9297)"/>
<rect width="1.64062" height="1.64062" fill="black" fill-opacity="0" transform="translate(7.9248 14.9297)"/>
<path d="M8.74512 16.5703C9.19816 16.5703 9.56543 16.203 9.56543 15.75C9.56543 15.297 9.19816 14.9297 8.74512 14.9297C8.29207 14.9297 7.9248 15.297 7.9248 15.75C7.9248 16.203 8.29207 16.5703 8.74512 16.5703Z" fill="#BFBFBF"/>
<rect width="1.64062" height="1.64062" fill="black" fill-opacity="0" transform="translate(11.4932 11.3613)"/>
<rect width="1.64062" height="1.64062" fill="black" fill-opacity="0" transform="translate(11.4932 11.3613)"/>
<path d="M12.3135 13.002C12.7665 13.002 13.1338 12.6347 13.1338 12.1816C13.1338 11.7286 12.7665 11.3613 12.3135 11.3613C11.8604 11.3613 11.4932 11.7286 11.4932 12.1816C11.4932 12.6347 11.8604 13.002 12.3135 13.002Z" fill="#BFBFBF"/>
<rect width="1.64062" height="1.64062" fill="black" fill-opacity="0" transform="translate(15.0615 11.3613)"/>
<rect width="1.64062" height="1.64062" fill="black" fill-opacity="0" transform="translate(15.0615 11.3613)"/>
<path d="M15.8818 13.002C16.3349 13.002 16.7021 12.6347 16.7021 12.1816C16.7021 11.7286 16.3349 11.3613 15.8818 11.3613C15.4288 11.3613 15.0615 11.7286 15.0615 12.1816C15.0615 12.6347 15.4288 13.002 15.8818 13.002Z" fill="#BFBFBF"/>
<rect width="1.64062" height="1.64062" fill="black" fill-opacity="0" transform="translate(11.4932 14.9297)"/>
<rect width="1.64062" height="1.64062" fill="black" fill-opacity="0" transform="translate(11.4932 14.9297)"/>
<path d="M12.3135 16.5703C12.7665 16.5703 13.1338 16.203 13.1338 15.75C13.1338 15.297 12.7665 14.9297 12.3135 14.9297C11.8604 14.9297 11.4932 15.297 11.4932 15.75C11.4932 16.203 11.8604 16.5703 12.3135 16.5703Z" fill="#BFBFBF"/>
<path d="M20.1797 14.4375C20.6327 14.4375 21 14.0702 21 13.6172V4.92188C21 3.11259 19.528 1.64062 17.7188 1.64062H16.6523V0.820312C16.6523 0.367254 16.2851 0 15.832 0C15.379 0 15.0117 0.367254 15.0117 0.820312V1.64062H11.2793V0.820312C11.2793 0.367254 10.912 0 10.459 0C10.0059 0 9.63867 0.367254 9.63867 0.820312V1.64062H5.94727V0.820312C5.94727 0.367254 5.58001 0 5.12695 0C4.67389 0 4.30664 0.367254 4.30664 0.820312V1.64062H3.28125C1.47197 1.64062 0 3.11259 0 4.92188V17.7188C0 19.528 1.47197 21 3.28125 21H17.7188C19.528 21 21 19.528 21 17.7188C21 17.2657 20.6327 16.8984 20.1797 16.8984C19.7266 16.8984 19.3594 17.2657 19.3594 17.7188C19.3594 18.6234 18.6234 19.3594 17.7188 19.3594H3.28125C2.37661 19.3594 1.64062 18.6234 1.64062 17.7188V4.92188C1.64062 4.01723 2.37661 3.28125 3.28125 3.28125H4.30664V4.10156C4.30664 4.55462 4.67389 4.92188 5.12695 4.92188C5.58001 4.92188 5.94727 4.55462 5.94727 4.10156V3.28125H9.63867V4.10156C9.63867 4.55462 10.0059 4.92188 10.459 4.92188C10.912 4.92188 11.2793 4.55462 11.2793 4.10156V3.28125H15.0117V4.10156C15.0117 4.55462 15.379 4.92188 15.832 4.92188C16.2851 4.92188 16.6523 4.55462 16.6523 4.10156V3.28125H17.7188C18.6234 3.28125 19.3594 4.01723 19.3594 4.92188V13.6172C19.3594 14.0702 19.7266 14.4375 20.1797 14.4375Z" fill="#BFBFBF"/>
<path d="M19.3512 13.4242C19.3512 12.969 19.7202 12.6 20.1754 12.6C20.6306 12.6 20.9997 12.969 20.9997 13.4242V18.0758C20.9997 18.531 20.6306 18.9 20.1754 18.9C19.7202 18.9 19.3512 18.531 19.3512 18.0758V13.4242Z" fill="#BFBFBF"/>
</svg>
