<svg width="28" height="28" viewBox="0 0 28 28" fill="none" xmlns="http://www.w3.org/2000/svg">
<mask id="mask0" mask-type="alpha" maskUnits="userSpaceOnUse" x="0" y="0" width="28" height="28">
<circle cx="14" cy="14" r="13.5" fill="#94C2FF" stroke="#237BEF"/>
</mask>
<g mask="url(#mask0)">
<path d="M23.9811 26.3C23.6715 24.8708 22.412 23.8506 20.9544 23.8486H18.4766C18.2146 24.4512 17.7435 24.9378 17.1507 25.2178C17.1275 25.2295 17.1004 25.2372 17.0773 25.2489C16.6731 25.0807 16.3199 24.8093 16.0529 24.4615C15.9422 25.1121 15.6314 25.7116 15.1638 26.1759C14.8863 26.4559 14.5493 26.6693 14.1781 26.8004C13.8069 26.6693 13.4699 26.4559 13.1924 26.1759C12.7249 25.7116 12.414 25.1121 12.3033 24.4615C12.0363 24.8093 11.6831 25.0807 11.279 25.2489C11.2558 25.2372 11.2287 25.2295 11.2055 25.2178C10.6128 24.9378 10.1416 24.4512 9.87966 23.8486H7.40186C5.94427 23.8506 4.68469 24.8708 4.37516 26.3L3.74121 29.2789H12.2454V27.7274H16.1109V29.2789H24.615L23.9811 26.3Z" fill="#237BEF"/>
<path d="M11.2053 25.2179C11.2285 25.2295 11.2556 25.2373 11.2788 25.2489C11.6829 25.0808 12.0361 24.8093 12.3032 24.4615C12.4138 25.1122 12.7247 25.7117 13.1922 26.176C13.4698 26.4559 13.8067 26.6694 14.1779 26.8004C14.5492 26.6694 14.8861 26.4559 15.1636 26.176C15.6312 25.7117 15.9421 25.1122 16.0527 24.4615C16.3197 24.8093 16.6729 25.0808 17.0771 25.2489C17.1003 25.2373 17.1273 25.2295 17.1505 25.2179C17.7433 24.9378 18.2144 24.4513 18.4764 23.8487C18.6436 23.4913 18.7507 23.1086 18.7934 22.7161V22.7083C18.7934 22.7006 18.7895 22.6928 18.7895 22.6851C18.6117 21.4787 17.6144 20.4509 16.2228 19.9389C14.9008 19.4631 13.4551 19.4631 12.1331 19.9389C10.7415 20.4509 9.74418 21.4787 9.56637 22.6851C9.56637 22.6928 9.5625 22.7006 9.5625 22.7083V22.7161C9.60512 23.1086 9.71224 23.4913 9.87947 23.8487C10.1414 24.4513 10.6126 24.9379 11.2053 25.2179Z" fill="#237BEF"/>
<path d="M11.8592 13.3757C11.8592 12.9473 12.2053 12.6 12.6323 12.6H15.7247C16.1517 12.6 16.4978 12.9473 16.4978 13.3757V14.9273H19.2037V11.9511C19.2037 10.1673 17.7626 8.72119 15.9849 8.72119H12.3721C10.5944 8.72119 9.15332 10.1673 9.15332 11.9511V14.9273H11.8592V13.3757Z" fill="#237BEF"/>
<path d="M24.3567 26.2173C24.0029 24.6133 22.5895 23.4687 20.9524 23.4603H19.0331C19.0912 23.26 19.1343 23.0557 19.1618 22.849C19.1872 22.7978 19.2006 22.7416 19.2013 22.6845V19.5427C20.2474 19.3296 20.9232 18.3059 20.7108 17.2562C20.5563 16.493 19.9619 15.8965 19.2013 15.7415V15.3148H23.0668V14.5391H19.5878V11.9508C19.5855 9.95371 17.9727 8.33538 15.9825 8.33301H12.3697C10.3795 8.33534 8.76674 9.95371 8.76437 11.9508V14.9269C8.76437 15.1412 8.93745 15.3148 9.15092 15.3148V15.7415C8.10482 15.9546 7.42903 16.9783 7.64144 18.028C7.79587 18.7912 8.39033 19.3877 9.15092 19.5427V22.6845C9.1515 22.7386 9.16474 22.7917 9.18958 22.8397C9.21688 23.0496 9.26032 23.2571 9.31946 23.4603H7.39984C5.76226 23.469 4.34879 24.614 3.99509 26.2185L3.36115 29.1974C3.31655 29.4069 3.44962 29.613 3.65836 29.6578C3.68493 29.6634 3.71199 29.6663 3.7392 29.6663H24.613C24.8265 29.6663 24.9995 29.4927 24.9996 29.2785C24.9996 29.2513 24.9967 29.2241 24.991 29.1974L24.3567 26.2173ZM13.8522 26.2142C13.7104 26.1233 13.5789 26.017 13.4602 25.8973C13.0513 25.4893 12.7793 24.9635 12.6821 24.3931C12.6562 24.2421 12.5441 24.1205 12.396 24.0828C12.3651 24.0751 12.3333 24.0712 12.3013 24.0712H12.2951C12.2451 24.0725 12.1959 24.0837 12.1502 24.1042C12.1394 24.1088 12.1297 24.1142 12.1193 24.1197C12.0728 24.1432 12.0318 24.1761 11.9987 24.2163C11.8048 24.4689 11.5586 24.6763 11.277 24.8241C10.8087 24.5723 10.4386 24.1696 10.2263 23.681C10.0848 23.3798 9.99158 23.0582 9.94993 22.728C9.96075 22.6581 9.98201 22.5903 9.99902 22.5216C10.0133 22.465 10.0222 22.4076 10.0408 22.3521C10.0632 22.2846 10.096 22.2195 10.1246 22.1535C10.149 22.0969 10.1687 22.0372 10.1973 21.984C10.2309 21.9196 10.2746 21.8587 10.3133 21.7959C10.3469 21.7424 10.3759 21.6869 10.4138 21.6345C10.459 21.5721 10.5135 21.5135 10.5642 21.4538C10.6055 21.4049 10.6415 21.3541 10.6871 21.3068C10.7443 21.2467 10.8104 21.1904 10.873 21.1346C10.9202 21.0919 10.9627 21.0465 11.0129 21.0058C11.086 20.946 11.1676 20.8917 11.2472 20.8359C11.2944 20.8029 11.3373 20.7669 11.3867 20.735C11.4807 20.6749 11.5823 20.6218 11.6836 20.5679C11.725 20.5458 11.7609 20.5202 11.8054 20.4992C11.9549 20.4255 12.1082 20.3598 12.2646 20.3022C13.501 19.8608 14.8512 19.8608 16.0876 20.3022C16.2435 20.3596 16.3963 20.4253 16.5453 20.4988C16.6079 20.5295 16.6639 20.5659 16.7239 20.5993C16.8043 20.6435 16.8874 20.6858 16.9631 20.7343C17.025 20.7731 17.0791 20.8184 17.1382 20.8603C17.2047 20.908 17.2747 20.9538 17.3369 21.0046C17.3992 21.0554 17.4417 21.1008 17.4939 21.1489C17.5461 21.197 17.6098 21.2509 17.6624 21.3041C17.715 21.3572 17.7505 21.4092 17.795 21.4615C17.8394 21.5139 17.8936 21.5729 17.9357 21.631C17.9778 21.6892 18.0064 21.7443 18.042 21.8005C18.0776 21.8568 18.1193 21.9188 18.1529 21.9805C18.1866 22.0422 18.2036 22.0969 18.2303 22.157C18.2569 22.2171 18.289 22.2827 18.311 22.3475C18.3331 22.4122 18.3412 22.4689 18.3559 22.5298C18.3706 22.5907 18.3914 22.6566 18.4015 22.7214C18.361 23.0546 18.2677 23.3792 18.1251 23.6829C17.9125 24.1704 17.5427 24.572 17.0752 24.8233C16.7945 24.6767 16.5487 24.4708 16.3547 24.2197C16.222 24.0519 15.9789 24.0238 15.8116 24.157C15.7377 24.2159 15.6878 24.2999 15.6713 24.3931C15.5734 24.9653 15.3001 25.4925 14.8893 25.9012C14.7728 26.0181 14.6441 26.1222 14.5054 26.2115C14.4006 26.2772 14.2909 26.3347 14.1773 26.3833C14.0646 26.3357 13.9559 26.2791 13.8522 26.2142ZM19.9744 17.6421C19.9738 18.1351 19.6643 18.5744 19.2013 18.7394V16.5448C19.6643 16.7097 19.9738 17.1491 19.9744 17.6421ZM9.53747 11.9508C9.53917 10.3819 10.8062 9.11046 12.3697 9.10877H15.9825C17.546 9.11046 18.813 10.3819 18.8147 11.9508V14.5391H16.882V13.3754C16.882 12.7328 16.3628 12.2118 15.7223 12.2118H12.6299C11.9894 12.2118 11.4702 12.7328 11.4702 13.3754V14.5391H9.53747V11.9508ZM14.9492 13.7633V14.5391H14.5626V13.7633H13.7895V14.5391H13.403V13.7633H12.6299V14.5391H12.2433V13.3754C12.2433 13.1612 12.4164 12.9876 12.6299 12.9876H15.7223C15.9358 12.9876 16.1089 13.1612 16.1089 13.3754V14.5391H15.7223V13.7633H14.9492ZM11.8568 15.3148H18.4282V20.9918C18.4057 20.9643 18.3771 20.9406 18.354 20.9142C18.2821 20.8312 18.2047 20.7513 18.1243 20.673C18.0679 20.6171 18.0122 20.5613 17.9515 20.5081C17.8623 20.4306 17.7664 20.3576 17.669 20.2851C17.6064 20.2386 17.5468 20.1905 17.4807 20.1462C17.3679 20.071 17.2488 20.0027 17.1251 19.9349C17.0652 19.9015 17.0091 19.865 16.9469 19.8336C16.7546 19.736 16.5569 19.6495 16.3547 19.5745C14.9462 19.0695 13.4068 19.0695 11.9983 19.5745C11.7959 19.6493 11.5981 19.7359 11.4057 19.8336C11.3431 19.865 11.287 19.9019 11.2267 19.9352C11.1049 20.0031 10.9843 20.071 10.8719 20.1462C10.8054 20.1905 10.7454 20.2389 10.6821 20.2859C10.5854 20.358 10.4888 20.4306 10.4014 20.5081C10.3403 20.5613 10.2855 20.6175 10.2271 20.6734C10.1475 20.7509 10.0701 20.8312 9.99824 20.9139C9.97505 20.941 9.94645 20.9647 9.92403 20.9914V15.3148H11.8568ZM8.37782 17.6421C8.3784 17.1491 8.68793 16.7098 9.15092 16.5448V18.7394C8.68798 18.5744 8.37845 18.135 8.37782 17.6421ZM12.6299 28.8905V28.1148H15.7223V28.8905H12.6299ZM21.0749 28.8905L20.7421 26.8875L19.9798 27.0148L20.2913 28.8905H16.4954V27.7269C16.4954 27.5127 16.3223 27.339 16.1089 27.339H12.2433C12.0299 27.339 11.8568 27.5127 11.8568 27.7269V28.8905H8.06085L8.37241 27.0148L7.61013 26.8875L7.27731 28.8905H4.21697L4.7508 26.3817C5.02622 25.1336 6.12586 24.2429 7.39984 24.236H9.64184C9.64416 24.2403 9.64726 24.2437 9.64958 24.248C9.72413 24.3812 9.80743 24.5092 9.8989 24.6312C9.91359 24.651 9.92828 24.67 9.94335 24.691C10.0316 24.8041 10.1273 24.9111 10.2298 25.0114C10.248 25.0292 10.2665 25.0463 10.2851 25.0633C10.3872 25.1593 10.4963 25.2476 10.6113 25.3275C10.6268 25.338 10.643 25.3473 10.6585 25.3573C10.778 25.4373 10.9039 25.5071 11.035 25.566C11.0446 25.5707 11.0933 25.5909 11.1038 25.5947C11.2024 25.6447 11.3176 25.6499 11.4204 25.6091C11.6684 25.5091 11.9003 25.3726 12.1084 25.2041C12.2859 25.6729 12.562 26.0977 12.9179 26.4496C13.2363 26.7704 13.6226 27.0151 14.0481 27.1656C14.1315 27.1952 14.2223 27.1952 14.3056 27.1656C14.7295 27.0158 15.1145 26.7724 15.4324 26.4535C15.7893 26.1004 16.0662 25.6743 16.2442 25.2041C16.4524 25.3725 16.6844 25.509 16.9326 25.6091C17.038 25.6396 17.1506 25.6343 17.2527 25.594L17.3041 25.5726C17.4386 25.5125 17.5679 25.4413 17.6906 25.3597C17.7057 25.35 17.7208 25.3414 17.7355 25.3314C17.8531 25.2502 17.9645 25.1605 18.0691 25.0629L18.1209 25.0145C18.2254 24.9128 18.3227 24.8041 18.4123 24.689C18.4262 24.6712 18.4394 24.653 18.4533 24.6343C18.5459 24.5109 18.6301 24.3813 18.7053 24.2465C18.708 24.2427 18.7104 24.2388 18.7127 24.2348H20.9547C22.2282 24.2416 23.3276 25.1318 23.6033 26.3794L24.1352 28.8905H21.0749Z" fill="#191A39"/>
<path d="M16.4967 17.6428C16.9237 17.6428 17.2698 17.2955 17.2698 16.8671C17.2698 16.4386 16.9237 16.0913 16.4967 16.0913C16.0698 16.0913 15.7236 16.4386 15.7236 16.8671C15.7236 17.2955 16.0698 17.6428 16.4967 17.6428Z" fill="#191A39"/>
<path d="M11.8581 17.6428C12.285 17.6428 12.6312 17.2955 12.6312 16.8671C12.6312 16.4386 12.285 16.0913 11.8581 16.0913C11.4311 16.0913 11.085 16.4386 11.085 16.8671C11.085 17.2955 11.4311 17.6428 11.8581 17.6428Z" fill="#191A39"/>
</g>
</svg>
