<svg width="28" height="28" viewBox="0 0 28 28" fill="none" xmlns="http://www.w3.org/2000/svg">
<mask id="mask0" mask-type="alpha" maskUnits="userSpaceOnUse" x="0" y="0" width="28" height="28">
<circle cx="14" cy="14" r="13.5" fill="#94C2FF" stroke="#237BEF"/>
</mask>
<g mask="url(#mask0)">
<path d="M23.9811 25.528C23.6715 24.0541 22.412 23.002 20.9544 23H17.2705V23.8C17.268 24.6825 16.5772 25.3973 15.7243 25.4H12.6319C11.779 25.3973 11.0883 24.6825 11.0857 23.8V23H7.40186C5.94427 23.002 4.68469 24.0541 4.37516 25.528L3.74121 28.6H11.8588C11.8588 27.2745 12.8972 26.2 14.1781 26.2C15.459 26.2 16.4974 27.2745 16.4974 28.6H24.615L23.9811 25.528Z" fill="#237BEF"/>
<path d="M8.79721 15.196C8.88114 14.3891 9.13443 13.6109 9.53939 12.916C9.68618 12.6634 9.85298 12.424 10.038 12.2C11.953 9.83398 15.3588 9.52233 17.6453 11.5039C17.8889 11.715 18.114 11.9479 18.318 12.2C18.503 12.424 18.6698 12.6634 18.8166 12.916C19.2216 13.6109 19.4749 14.3891 19.5588 15.196C20.0424 15.4695 20.3477 15.9898 20.359 16.56C20.5282 16.5944 20.7009 16.6065 20.8731 16.596C21.9384 16.5271 22.7481 15.5776 22.6816 14.4751C22.6422 13.823 22.2975 13.2319 21.7583 12.892C22.768 12.5336 23.3057 11.396 22.9594 10.3512C22.6772 9.49998 21.8803 8.94859 21.0122 9.00399C20.7851 9.01809 20.5624 9.07504 20.3551 9.17199C20.3622 9.08149 20.3635 8.99064 20.359 8.89999C20.3079 8.05714 19.6327 7.40044 18.8166 7.39999C18.8151 6.29389 17.9473 5.3985 16.8783 5.40015C16.3749 5.4009 15.8916 5.6046 15.5309 5.96799C14.7646 5.19595 13.5385 5.21295 12.7924 6.00599C12.735 6.06709 12.6813 6.13189 12.6319 6.20004C11.7795 5.538 10.5699 5.71635 9.93014 6.59829C9.71363 6.89679 9.58225 7.25219 9.55103 7.62404C9.31412 7.47669 9.04277 7.39919 8.76633 7.40004C7.91239 7.40004 7.22012 8.11639 7.22012 9.00004C7.21959 9.14614 7.23911 9.29159 7.27811 9.43203C6.22615 9.61938 5.52012 10.6537 5.70117 11.7423C5.76756 12.1414 5.94943 12.5102 6.22282 12.8C5.47711 13.5925 5.49345 14.8605 6.2593 15.6322C6.61995 15.9956 7.10329 16.1993 7.60668 16.2C7.75903 16.1996 7.9108 16.1808 8.05894 16.144C8.17467 15.7397 8.44003 15.399 8.79721 15.196Z" fill="#237BEF"/>
<path d="M24.3571 25.4428C24.0025 23.789 22.5894 22.6091 20.9524 22.6H17.6551V22.16C18.5543 21.9687 19.2001 21.1501 19.2013 20.2V18.5544C19.9608 18.3976 20.5546 17.7835 20.7065 16.9976C20.7216 16.9976 20.7374 17 20.7525 17C20.8004 17 20.8484 17 20.8951 16.9952C22.1735 16.912 23.1447 15.7722 23.0643 14.4493C23.0309 13.8993 22.8156 13.3779 22.4545 12.9728C23.5076 12.2182 23.7701 10.7232 23.0409 9.63341C22.5218 8.85776 21.6118 8.46876 20.715 8.63926C20.5701 7.82691 19.9583 7.18986 19.1742 7.03486C18.9768 5.72277 17.7889 4.82467 16.5209 5.02897C16.1633 5.08657 15.8237 5.22982 15.529 5.44727C14.615 4.77247 13.3654 4.87027 12.5599 5.67967C12.2247 5.49452 11.8502 5.39842 11.4702 5.40007C10.4637 5.40427 9.57367 6.07732 9.26418 7.06846C8.23306 6.78281 7.17337 7.41621 6.89737 8.48321C6.85374 8.65176 6.83166 8.82551 6.83161 9.00006C6.83161 9.04606 6.83161 9.09166 6.83625 9.13726C5.62649 9.57826 4.99124 10.9506 5.41741 12.2024C5.48984 12.4152 5.59092 12.6164 5.71757 12.8C4.9723 13.8805 5.21457 15.3816 6.25869 16.1528C6.65157 16.4429 7.12201 16.5993 7.60471 16.6C7.60211 17.5504 8.25011 18.3697 9.15092 18.5548V20.2C9.15208 21.1501 9.79787 21.9687 10.6971 22.16V22.6H7.39984C5.76231 22.6091 4.34889 23.7899 3.99509 25.4444L3.36115 28.5164C3.31655 28.7325 3.44962 28.945 3.65836 28.9911C3.68493 28.997 3.71199 29 3.7392 29H24.613C24.8265 29 24.9995 28.8209 24.9996 28.6C24.9996 28.572 24.9967 28.5439 24.991 28.5164L24.3571 25.4428ZM11.4702 23V22.2H16.882V23.8C16.882 24.4628 16.3628 25 15.7223 25H12.6299C11.9894 25 11.4702 24.4628 11.4702 23.8V23ZM17.5801 12.0684C17.477 11.9946 17.3706 11.9239 17.2608 11.8564C15.3524 10.7149 13.0002 10.7149 11.0918 11.8564C10.9815 11.9242 10.8747 11.9952 10.7713 12.0696C10.7377 12.0936 10.7064 12.1196 10.6736 12.144C10.6075 12.194 10.5413 12.2436 10.478 12.296C10.5139 12.256 10.5499 12.216 10.5866 12.176C10.6461 12.1124 10.7052 12.048 10.7675 11.988C10.8371 11.9212 10.9101 11.8592 10.9832 11.7968C11.0477 11.7412 11.1119 11.6841 11.1792 11.6321C11.2565 11.5729 11.3338 11.5196 11.4146 11.4653C11.4834 11.4181 11.5514 11.3689 11.6221 11.3257C11.7053 11.2745 11.7915 11.2301 11.8773 11.1845C11.9492 11.1445 12.0195 11.1045 12.0934 11.0701C12.1834 11.0277 12.2766 10.9925 12.369 10.9557C12.442 10.9265 12.5135 10.8937 12.5881 10.8681C12.6875 10.8341 12.7895 10.8081 12.8908 10.7805C12.9616 10.7609 13.0307 10.7377 13.1026 10.7213C13.2186 10.6957 13.3346 10.6813 13.4505 10.6617C13.5112 10.6525 13.5708 10.6385 13.6322 10.6317C13.9928 10.5906 14.3567 10.5906 14.7173 10.6317C14.7787 10.6385 14.8386 10.6525 14.8997 10.6617C15.0157 10.6793 15.1317 10.6957 15.2476 10.7213C15.3187 10.7373 15.3879 10.7613 15.4583 10.7801C15.5603 10.8081 15.6624 10.8341 15.7621 10.8681C15.836 10.8937 15.9075 10.9261 15.9801 10.9553C16.0729 10.9921 16.1665 11.0277 16.2565 11.0701C16.33 11.1049 16.4003 11.1457 16.4718 11.1837C16.558 11.2297 16.6446 11.2745 16.7281 11.3257C16.7985 11.3689 16.8657 11.4177 16.9341 11.4645C17.0142 11.5193 17.095 11.5732 17.1719 11.6328C17.238 11.684 17.301 11.74 17.3652 11.7948C17.4398 11.8584 17.514 11.922 17.5851 11.9904C17.6458 12.0488 17.7034 12.1104 17.7614 12.1732C17.8 12.2132 17.8348 12.2532 17.8708 12.2932C17.8112 12.2436 17.7482 12.1968 17.686 12.1496C17.6512 12.1232 17.6164 12.0948 17.5801 12.0684ZM19.2013 17.7312V15.4692H19.2075C19.2639 15.4905 19.3188 15.516 19.3717 15.5456C19.7336 15.7506 19.962 16.1401 19.9705 16.5668C19.9708 16.5825 19.9722 16.5981 19.9744 16.6136C19.9704 17.1177 19.6611 17.5648 19.2013 17.7312ZM6.05851 14.2C6.05686 13.7815 6.21448 13.3792 6.49724 13.08C6.64457 12.9245 6.64457 12.6756 6.49724 12.52C5.90089 11.8875 5.91292 10.8746 6.52416 10.2575C6.74792 10.0316 7.03262 9.88116 7.3407 9.82606C7.55118 9.78921 7.69295 9.58276 7.65733 9.36496C7.65473 9.34911 7.65125 9.33346 7.64685 9.31806C7.61844 9.21461 7.60428 9.10756 7.60471 9.00006C7.60471 8.33731 8.1239 7.80006 8.76437 7.80006C8.97093 7.79916 9.17378 7.85701 9.35077 7.96726C9.534 8.08066 9.77134 8.01891 9.88093 7.82936C9.91127 7.77686 9.92958 7.71786 9.93446 7.65686C10.0059 6.83371 10.6715 6.20232 11.4702 6.20007C11.8051 6.19782 12.1313 6.31032 12.398 6.52006C12.4796 6.58486 12.583 6.61271 12.6848 6.59726C12.7864 6.58191 12.8779 6.52536 12.9391 6.44006C13.2322 6.03857 13.6898 5.80182 14.1761 5.80007C14.5805 5.79837 14.9693 5.96147 15.2584 6.25407C15.4088 6.40652 15.6493 6.40652 15.7996 6.25407C16.413 5.63707 17.3936 5.65142 17.9899 6.28612C18.2702 6.58446 18.4273 6.98396 18.4281 7.40006C18.4281 7.62096 18.6012 7.80006 18.8147 7.80006C19.4237 7.80041 19.9286 8.28821 19.9708 8.91686C19.9746 8.99056 19.9737 9.06446 19.9681 9.13806C19.9501 9.35821 20.108 9.55176 20.3207 9.57036C20.3873 9.57621 20.4541 9.56411 20.5147 9.53526C20.6787 9.45941 20.8546 9.41471 21.0339 9.40326C21.8862 9.34806 22.6203 10.0183 22.6736 10.9002C22.7171 11.6189 22.2912 12.2792 21.633 12.5132C21.4309 12.5843 21.3227 12.8115 21.3914 13.0206C21.4205 13.1092 21.4786 13.1844 21.5557 13.2332C21.985 13.5045 22.2592 13.9757 22.2902 14.4952C22.344 15.3769 21.6983 16.1374 20.8464 16.1956C20.8004 16.1988 20.7525 16.1996 20.7057 16.198C20.7022 16.1816 20.6952 16.1664 20.6914 16.1504C20.6719 16.0589 20.6461 15.9689 20.6141 15.8812C20.6056 15.8576 20.5978 15.8332 20.5882 15.81C20.5463 15.7086 20.4964 15.6109 20.439 15.518C20.427 15.4984 20.4135 15.4808 20.4003 15.462C20.3491 15.3854 20.2928 15.3125 20.2318 15.244C20.214 15.224 20.197 15.204 20.1784 15.184C20.1029 15.1053 20.0211 15.0335 19.9337 14.9692C19.9287 14.9652 19.9245 14.96 19.919 14.9564C19.9075 14.8692 19.887 14.7848 19.8715 14.6988C19.856 14.6128 19.8433 14.5292 19.8247 14.4456C19.7977 14.3256 19.7629 14.2056 19.7285 14.0856C19.7053 14.0056 19.6856 13.9256 19.6589 13.8456C19.6164 13.7184 19.565 13.594 19.5139 13.4696C19.4861 13.402 19.4629 13.3328 19.4328 13.266C19.3467 13.0751 19.2512 12.8889 19.1467 12.708C18.9897 12.438 18.8114 12.1818 18.6137 11.942C16.5614 9.40666 12.9114 9.07296 10.4613 11.1967C10.2016 11.4217 9.96157 11.6699 9.74384 11.9384C9.54472 12.1794 9.36527 12.4371 9.20731 12.7088C9.10256 12.8902 9.00708 13.0771 8.92126 13.2688C8.89227 13.3324 8.87024 13.3984 8.84395 13.4628C8.79138 13.5904 8.73881 13.718 8.69513 13.8484C8.66962 13.9256 8.65029 14.0048 8.62748 14.0828C8.59269 14.2028 8.55752 14.3248 8.53007 14.448C8.51152 14.5316 8.49837 14.6164 8.4833 14.7012C8.46822 14.786 8.44735 14.8716 8.43575 14.9584C8.40251 14.982 8.37313 15.0108 8.34143 15.0384C8.31901 15.0568 8.29659 15.0744 8.27495 15.094C8.19111 15.1687 8.11356 15.2506 8.04302 15.3388C8.03258 15.352 8.02446 15.3668 8.01441 15.3788C7.95662 15.4566 7.90429 15.5385 7.85786 15.624C7.84162 15.6544 7.82616 15.6844 7.81109 15.7156C7.7991 15.7408 7.78403 15.7644 7.77243 15.7904C6.9252 15.8878 6.16206 15.2561 6.06788 14.3794C6.06155 14.3199 6.05841 14.26 6.05851 14.2ZM8.37782 16.6C8.37811 16.4838 8.39492 16.3683 8.42768 16.2572C8.44894 16.1823 8.4774 16.1098 8.51273 16.0408C8.58327 15.9032 8.67885 15.781 8.79414 15.6808C8.80689 15.6696 8.82197 15.662 8.83279 15.652C8.87879 15.6137 8.9275 15.5791 8.97852 15.5484C9.03157 15.5183 9.0869 15.4928 9.14396 15.472H9.14899V17.7344C8.68431 17.5654 8.37453 17.1097 8.37782 16.6ZM9.92403 20.2V14.2C10.287 13.5092 10.8276 12.9358 11.4861 12.5432C13.1515 11.5515 15.2011 11.5515 16.8665 12.5432C17.5248 12.9357 18.0654 13.5092 18.4282 14.2V20.2C18.4282 20.8628 17.909 21.4 17.2685 21.4H11.0837C10.4433 21.4 9.92403 20.8628 9.92403 20.2ZM12.282 28.2C12.4944 27.1175 13.5146 26.4182 14.5607 26.638C15.3213 26.7978 15.9158 27.413 16.0702 28.2H12.282ZM21.0745 28.2L20.7417 26.1344L19.9794 26.2656L20.2913 28.2H16.851C16.6389 26.6713 15.2693 25.61 13.7919 25.8296C12.6045 26.006 11.6717 26.9713 11.5012 28.2H8.06085L8.37241 26.2656L7.61013 26.1344L7.27731 28.2H4.21697L4.7508 25.6132C5.02608 24.3259 6.12572 23.4072 7.39984 23.4H10.6971V23.8C10.6984 24.904 11.563 25.7987 12.6299 25.8H15.7223C16.7892 25.7987 17.6538 24.904 17.6551 23.8V23.4H20.9524C22.2259 23.4072 23.3253 24.325 23.6014 25.6116L24.1352 28.2H21.0745Z" fill="#191A39"/>
<path d="M16.4967 16.6C16.9237 16.6 17.2698 16.2418 17.2698 15.8C17.2698 15.3582 16.9237 15 16.4967 15C16.0698 15 15.7236 15.3582 15.7236 15.8C15.7236 16.2418 16.0698 16.6 16.4967 16.6Z" fill="#191A39"/>
<path d="M11.8581 16.6C12.285 16.6 12.6312 16.2418 12.6312 15.8C12.6312 15.3582 12.285 15 11.8581 15C11.4311 15 11.085 15.3582 11.085 15.8C11.085 16.2418 11.4311 16.6 11.8581 16.6Z" fill="#191A39"/>
</svg>
