<svg width="28" height="28" viewBox="0 0 28 28" fill="none" xmlns="http://www.w3.org/2000/svg">
<mask id="mask0" mask-type="alpha" maskUnits="userSpaceOnUse" x="0" y="0" width="28" height="28">
<circle cx="14" cy="14" r="13.5" fill="#94C2FF" stroke="#237BEF"/>
</mask>
<g mask="url(#mask0)">
<path d="M9.53644 14.9999C12.0916 15.0068 14.1684 12.8689 14.1751 10.2248C14.1751 10.2165 14.1751 10.2082 14.1751 10.1999C14.1716 12.8474 16.2429 14.9964 18.8013 14.9999C18.8054 14.9999 18.8096 14.9999 18.8137 14.9999C19.6676 14.9999 20.3599 15.7163 20.3599 16.5999V11.7999C20.3599 8.2653 17.5908 5.3999 14.1751 5.3999C10.7593 5.3999 7.99023 8.2653 7.99023 11.7999V16.5999C7.99023 15.7163 8.6825 14.9999 9.53644 14.9999Z" fill="#237BEF"/>
<path d="M7.99023 23H9.53644V26.2H7.99023V23Z" fill="#237BEF"/>
<path d="M18.8135 23H20.3597V26.2H18.8135V23Z" fill="#237BEF"/>
<path d="M18.8145 26.2007H9.53725H7.99104L7.60449 28.6007H20.7473L20.3607 26.2007H18.8145Z" fill="#237BEF"/>
<path d="M16.4967 16.6C16.9237 16.6 17.2698 16.2418 17.2698 15.8C17.2698 15.3582 16.9237 15 16.4967 15C16.0698 15 15.7236 15.3582 15.7236 15.8C15.7236 16.2418 16.0698 16.6 16.4967 16.6Z" fill="#191A39"/>
<path d="M11.8581 16.6C12.285 16.6 12.6312 16.2418 12.6312 15.8C12.6312 15.3582 12.285 15 11.8581 15C11.4311 15 11.085 15.3582 11.085 15.8C11.085 16.2418 11.4311 16.6 11.8581 16.6Z" fill="#191A39"/>
<path d="M24.3571 25.4428C24.0025 23.789 22.5894 22.6091 20.9524 22.6H17.6551V22.16C18.5543 21.9687 19.2001 21.1501 19.2013 20.2V18.56C20.1005 18.3687 20.7463 17.55 20.7475 16.6V11.8C20.7475 8.04445 17.8054 5 14.1761 5C10.5468 5 7.60471 8.04445 7.60471 11.8V16.6C7.60587 17.55 8.25166 18.3687 9.15092 18.56V20.2C9.15208 21.1501 9.79787 21.9687 10.6971 22.16V22.6H7.39984C5.76231 22.6091 4.34889 23.7899 3.99509 25.4444L3.36115 28.5164C3.31655 28.7325 3.44962 28.945 3.65836 28.9911C3.68493 28.997 3.71199 29 3.7392 29H24.613C24.8265 29 24.9995 28.821 24.9996 28.6C24.9996 28.572 24.9967 28.5439 24.991 28.5164L24.3571 25.4428ZM8.37782 25.8V23.4H9.15092V25.8H8.37782ZM8.31868 26.6H20.0335L20.2913 28.2H8.06085L8.31868 26.6ZM19.9744 25.8H19.2013V23.4H19.9744V25.8ZM18.4282 23.4V25.8H15.7223C16.7892 25.7987 17.6538 24.904 17.6551 23.8V23.4H18.4282ZM11.4702 23V22.2H16.882V23.8C16.882 24.4627 16.3628 25 15.7223 25H12.6299C11.9894 25 11.4702 24.4627 11.4702 23.8V23ZM19.2013 17.7316V15.4736C19.214 15.4784 19.2276 15.4812 19.2399 15.486C19.2604 15.4944 19.2786 15.5044 19.3002 15.514C19.3439 15.535 19.3862 15.5588 19.427 15.5852C19.4456 15.5972 19.4657 15.6088 19.4819 15.6216C19.528 15.6555 19.5717 15.6927 19.6126 15.7332C19.6207 15.7412 19.63 15.748 19.6381 15.7564C19.6852 15.806 19.7282 15.8595 19.7668 15.9164C19.7772 15.9324 19.7861 15.95 19.7962 15.9664C19.8226 16.0099 19.8463 16.055 19.8673 16.1016C19.8768 16.1235 19.8857 16.1459 19.894 16.1688C19.9116 16.2157 19.9261 16.2639 19.9373 16.3128C19.9427 16.3348 19.9489 16.356 19.9527 16.3784C19.9667 16.4514 19.9739 16.5256 19.9744 16.6C19.9737 17.1084 19.6642 17.5615 19.2013 17.7316ZM8.37782 11.8C8.37782 8.4863 10.9738 5.8 14.1761 5.8C17.3784 5.8 19.9744 8.4863 19.9744 11.8V15C19.9593 14.988 19.9419 14.9796 19.9261 14.9684C19.8951 14.9456 19.8623 14.9256 19.8298 14.9048C19.7638 14.8622 19.6954 14.8237 19.6249 14.7896C19.5863 14.7716 19.5507 14.7548 19.5128 14.7392C19.4371 14.7095 19.3596 14.6847 19.2809 14.6648C19.245 14.6556 19.2102 14.644 19.1734 14.6368C19.0553 14.6129 18.9351 14.6006 18.8147 14.6C16.4732 14.6071 14.5695 12.6486 14.5626 10.2257C14.5626 10.2171 14.5626 10.2085 14.5626 10.2C14.5626 9.9791 14.3896 9.8 14.1761 9.8C13.9626 9.8 13.7895 9.9791 13.7895 10.2C13.793 12.6265 11.8948 14.5964 9.54984 14.6C9.54574 14.6 9.54158 14.6 9.53748 14.6C9.41702 14.6009 9.29694 14.6135 9.17875 14.6376C9.14203 14.6448 9.10724 14.6564 9.07129 14.6656C8.99258 14.6854 8.91513 14.7103 8.83936 14.74C8.80071 14.7556 8.76437 14.7724 8.72726 14.7904C8.65681 14.8245 8.58839 14.863 8.52239 14.9056C8.48992 14.9264 8.45706 14.9456 8.42614 14.9692C8.41029 14.9804 8.39289 14.9888 8.37782 15.0008V11.8ZM8.37782 16.6C8.3783 16.526 8.38555 16.4522 8.39947 16.3796C8.40333 16.3572 8.40952 16.336 8.41493 16.314C8.42638 16.2649 8.44083 16.2168 8.45822 16.1696C8.46673 16.1472 8.47523 16.1248 8.48489 16.1032C8.50577 16.0564 8.52949 16.0112 8.55602 15.9676C8.56607 15.9512 8.57496 15.9336 8.5854 15.9176C8.62396 15.8607 8.66701 15.8071 8.71412 15.7576C8.72224 15.7492 8.73151 15.7424 8.73963 15.7344C8.78051 15.694 8.82419 15.6566 8.87029 15.6228C8.88807 15.61 8.90662 15.5984 8.92479 15.5864C8.96567 15.5598 9.00814 15.5361 9.05197 15.5152C9.07168 15.5056 9.09062 15.4956 9.11227 15.4872C9.12464 15.4824 9.13817 15.4796 9.15092 15.4748V17.7328C8.68754 17.5625 8.37792 17.1089 8.37782 16.6ZM9.92403 20.2V15.3852C9.9449 15.3852 9.96539 15.3792 9.98626 15.3776C10.0477 15.372 10.1088 15.3624 10.1699 15.3548C10.2657 15.3424 10.3631 15.3292 10.4559 15.3112C10.5189 15.2992 10.5816 15.2844 10.6442 15.2712C10.735 15.2504 10.8251 15.2276 10.9148 15.2016C10.9774 15.1832 11.0392 15.1616 11.1011 15.1424C11.1888 15.1132 11.275 15.0812 11.3608 15.0468C11.4211 15.0224 11.4811 14.9976 11.5406 14.9712C11.6256 14.9312 11.7091 14.8912 11.7918 14.8484C11.8487 14.8188 11.9078 14.79 11.9615 14.758C12.0458 14.71 12.1274 14.6576 12.2089 14.6044C12.26 14.5712 12.3121 14.5396 12.3636 14.5044C12.4509 14.4432 12.5348 14.376 12.6187 14.3088C12.6593 14.276 12.7018 14.2456 12.7416 14.2112C12.8634 14.1072 12.9817 13.9972 13.0945 13.88C13.1946 13.7764 13.2878 13.6684 13.3798 13.5576C13.408 13.5236 13.4335 13.4876 13.4602 13.4532C13.5209 13.3732 13.5804 13.296 13.6365 13.2132C13.667 13.1692 13.6952 13.1244 13.7242 13.0792C13.7729 13.0036 13.8201 12.9272 13.8649 12.8488C13.8931 12.7996 13.9202 12.75 13.9465 12.7C13.9647 12.6664 13.9851 12.634 14.0018 12.6H14.3543C14.3713 12.634 14.393 12.6664 14.4096 12.7004C14.4359 12.7504 14.4633 12.8 14.4915 12.8492C14.536 12.9292 14.5831 13.0036 14.6318 13.0792C14.6608 13.124 14.6891 13.1692 14.7196 13.2136C14.7756 13.2936 14.8356 13.3736 14.8959 13.4536C14.9229 13.488 14.948 13.5236 14.9759 13.5576C15.0667 13.6684 15.1614 13.7764 15.2615 13.88C15.3744 13.9972 15.4935 14.1072 15.6145 14.2112C15.6531 14.2456 15.6968 14.276 15.7374 14.3088C15.8213 14.376 15.9051 14.4432 15.9925 14.5044C16.0424 14.5396 16.0946 14.5712 16.1471 14.6044C16.2287 14.6576 16.3102 14.71 16.3945 14.758C16.4502 14.79 16.5074 14.8188 16.5642 14.8484C16.6469 14.8912 16.7304 14.9328 16.8155 14.9712C16.875 14.9976 16.9349 15.0224 16.9952 15.0468C17.081 15.0812 17.1672 15.1132 17.255 15.1424C17.3168 15.1632 17.3787 15.1824 17.4413 15.2016C17.5306 15.2276 17.6207 15.2504 17.7119 15.2712C17.7745 15.2856 17.8371 15.3004 17.9001 15.3112C17.9948 15.3292 18.0903 15.3424 18.1862 15.3548C18.2473 15.3624 18.3083 15.372 18.3698 15.3776C18.3907 15.3776 18.4112 15.3836 18.432 15.3852V20.2C18.432 20.8628 17.9128 21.4 17.2724 21.4H11.0837C10.4432 21.4 9.92403 20.8628 9.92403 20.2ZM12.6299 25.8H9.92403V23.4H10.6971V23.8C10.6984 24.904 11.563 25.7987 12.6299 25.8ZM4.7508 25.6132C5.02608 24.3259 6.12572 23.4072 7.39984 23.4H7.60471V26.1672L7.27731 28.2H4.21697L4.7508 25.6132ZM21.0749 28.2L20.7475 26.1672V23.4H20.9524C22.2259 23.4072 23.3253 24.325 23.6014 25.6116L24.1352 28.2H21.0749Z" fill="#191A39"/>
</svg>
