<svg width="28" height="28" viewBox="0 0 28 28" fill="none" xmlns="http://www.w3.org/2000/svg">
<mask id="mask0" mask-type="alpha" maskUnits="userSpaceOnUse" x="0" y="0" width="28" height="28">
<circle cx="14" cy="14" r="13.5" fill="#94C2FF" stroke="#237BEF"/>
</mask>
<g mask="url(#mask0)">
<path d="M13.2088 14.6007C15.3105 14.6358 17.3319 13.7667 18.7906 12.2008H18.8138V15.0006H18.8293C20.016 14.0326 20.7199 12.5642 20.7466 11.0008C20.7468 10.2955 20.5963 9.59898 20.3059 8.96091C20.0274 8.33904 19.6379 7.77721 19.1579 7.30499C17.8573 6.05684 16.1421 5.37497 14.3685 5.40107C12.4548 5.36497 10.615 6.16509 9.30079 7.60497C8.00197 7.22499 7.00467 6.67701 6.47509 6.04104C6.199 6.72526 6.05714 7.45948 6.05762 8.20094C6.08796 10.0587 6.94166 11.7989 8.37306 12.9207C8.64916 13.5703 9.04431 14.1585 9.53658 14.6526V13.6927C10.6726 14.2957 11.9321 14.6072 13.2088 14.6007Z" fill="#237BEF"/>
<path d="M18.8145 15.0173C18.8199 15.0129 18.8245 15.0073 18.8299 15.0029C18.8245 15.0029 18.8199 15.0029 18.8145 15.0029V15.0173Z" fill="#237BEF"/>
<path d="M23.9791 25.5279C23.6696 24.0541 22.41 23.002 20.9524 23H18.4746C18.2127 23.6214 17.7415 24.1231 17.1487 24.4119C17.1256 24.4239 17.0985 24.4319 17.0753 24.4439C16.6712 24.2705 16.3179 23.9906 16.0509 23.632C15.9403 24.3029 15.6294 24.9211 15.1619 25.3999C14.8843 25.6886 14.5474 25.9087 14.1762 26.0439C13.8049 25.9087 13.468 25.6886 13.1905 25.3999C12.7229 24.9211 12.412 24.3029 12.3014 23.632C12.0344 23.9906 11.6812 24.2705 11.277 24.4439C11.2538 24.4319 11.2268 24.4239 11.2036 24.4119C10.6108 24.1231 10.1396 23.6214 9.8777 23H7.3999C5.94231 23.002 4.68273 24.0541 4.3732 25.5279L3.73926 28.5997H24.6131L23.9791 25.5279Z" fill="#237BEF"/>
<path d="M11.2034 24.4123C11.2266 24.4243 11.2536 24.4323 11.2768 24.4443C11.681 24.2709 12.0342 23.991 12.3012 23.6323C12.4119 24.3033 12.7227 24.9215 13.1903 25.4003C13.4678 25.6889 13.8047 25.9091 14.176 26.0442C14.5472 25.9091 14.8841 25.6889 15.1617 25.4003C15.6292 24.9215 15.9401 24.3033 16.0508 23.6323C16.3178 23.991 16.671 24.2709 17.0751 24.4443C17.0983 24.4323 17.1254 24.4243 17.1486 24.4123C17.7413 24.1235 18.2125 23.6217 18.4744 23.0004C18.6417 22.6318 18.7488 22.2372 18.7914 21.8324V21.8244C18.7914 21.8164 18.7875 21.8084 18.7875 21.8004C18.6097 20.5565 17.6124 19.4965 16.2208 18.9686C14.8988 18.4779 13.4531 18.4779 12.1311 18.9686C10.7395 19.4965 9.74223 20.5565 9.56441 21.8004C9.56441 21.8084 9.56055 21.8164 9.56055 21.8244V21.8324C9.60316 22.2372 9.71029 22.6318 9.87752 23.0004C10.1395 23.6217 10.6106 24.1235 11.2034 24.4123Z" fill="#237BEF"/>
<path d="M24.3567 25.443C24.0027 23.789 22.5894 22.609 20.9524 22.6003H19.0331C19.0912 22.3938 19.1343 22.1831 19.1618 21.9699C19.1872 21.9172 19.2006 21.8592 19.2013 21.8003V18.5605C20.2455 18.3415 20.9206 17.288 20.7089 16.2074C20.5859 15.5793 20.179 15.0505 19.6149 14.7859C20.5784 13.777 21.1234 12.4191 21.134 11.0008C21.1347 10.2381 20.9722 9.48465 20.6582 8.79453C20.3603 8.12671 19.9424 7.52354 19.427 7.01701C18.0527 5.69987 16.2425 4.97835 14.3694 5.0011C12.4312 4.96665 10.5613 5.74177 9.18223 7.1514C8.06587 6.79782 7.21391 6.31464 6.7686 5.77987C6.68163 5.67407 6.5473 5.62332 6.41491 5.64627C6.28285 5.66797 6.17104 5.75872 6.1192 5.88626C5.823 6.61943 5.67099 7.40629 5.67196 8.20095C5.70505 10.1445 6.58132 11.9694 8.05814 13.1707C8.30534 13.7239 8.63497 14.2334 9.03496 14.6807C8.00712 14.967 7.39825 16.0613 7.67497 17.1249C7.86467 17.854 8.436 18.4096 9.15092 18.5605V21.8003C9.15165 21.856 9.16489 21.9108 9.18958 21.9603C9.21717 22.1768 9.26075 22.3907 9.31985 22.6003H7.39984C5.76226 22.6092 4.34879 23.79 3.99509 25.4446L3.36115 28.5164C3.31655 28.7325 3.44962 28.945 3.65836 28.9911C3.68493 28.997 3.71199 29 3.7392 29H24.613C24.8265 29 24.9995 28.821 24.9996 28.6001C24.9996 28.572 24.9967 28.5439 24.991 28.5164L24.3567 25.443ZM12.3013 23.2323H12.2959C12.2455 23.2336 12.1958 23.2453 12.1498 23.2667C12.139 23.2715 12.1297 23.2771 12.1193 23.2827C12.073 23.3072 12.032 23.341 11.9987 23.3823C11.8047 23.6419 11.5584 23.8548 11.277 24.0062C10.8085 23.7471 10.4382 23.3319 10.2263 22.8279C10.0849 22.5175 9.99163 22.186 9.94993 21.8455C9.96075 21.7739 9.98162 21.7043 9.99863 21.6339C10.0129 21.5751 10.0222 21.5139 10.0408 21.4575C10.0636 21.3867 10.0968 21.3188 10.1258 21.25C10.1502 21.1928 10.1691 21.1344 10.1973 21.0784C10.2309 21.0112 10.2746 20.9476 10.3133 20.8828C10.3469 20.8276 10.3755 20.7712 10.413 20.7176C10.4575 20.6544 10.5112 20.5952 10.5611 20.5344C10.6032 20.4828 10.6407 20.4292 10.6867 20.3796C10.7408 20.3212 10.8027 20.2672 10.8626 20.2112C10.9128 20.164 10.9588 20.114 11.0122 20.0688C11.0779 20.014 11.1513 19.9644 11.2217 19.9124C11.277 19.8724 11.3284 19.8284 11.3864 19.79C11.4687 19.7356 11.5588 19.688 11.6465 19.6384C11.7002 19.6084 11.7497 19.5748 11.805 19.5468C11.9543 19.4707 12.1075 19.4028 12.2638 19.3436C13.5001 18.8877 14.8506 18.8877 16.0868 19.3436C16.2429 19.4029 16.396 19.4706 16.5453 19.5464C16.589 19.5688 16.628 19.5956 16.6705 19.6192C16.7702 19.674 16.8704 19.728 16.9631 19.7892C17.0157 19.824 17.0617 19.8636 17.112 19.9C17.1893 19.9552 17.2666 20.0088 17.3365 20.0676C17.388 20.1112 17.432 20.1588 17.4803 20.204C17.5414 20.2616 17.606 20.3176 17.662 20.378C17.7076 20.4272 17.7451 20.4804 17.7873 20.5316C17.8371 20.5928 17.8909 20.6516 17.9353 20.7152C17.974 20.7692 18.0026 20.8268 18.0366 20.8824C18.0752 20.9464 18.1189 21.0092 18.1526 21.0756C18.1819 21.1332 18.202 21.1932 18.2268 21.252C18.255 21.3192 18.2871 21.3851 18.3095 21.4519C18.3292 21.5127 18.3393 21.5755 18.354 21.6375C18.3686 21.6995 18.3899 21.7699 18.4 21.8375C18.3594 22.1812 18.2661 22.5159 18.1236 22.8291C17.9116 23.3318 17.5424 23.7462 17.0752 24.0054C16.7944 23.8545 16.5486 23.6423 16.3547 23.3835C16.222 23.2105 15.9788 23.1815 15.8116 23.3189C15.7376 23.3797 15.6877 23.4664 15.6713 23.5626C15.5734 24.1524 15.3002 24.6959 14.8897 25.1174C14.7724 25.2382 14.6428 25.3455 14.5031 25.4374C14.3985 25.5054 14.2889 25.5647 14.1753 25.615C13.9072 25.4982 13.6639 25.3279 13.4594 25.1138C13.0506 24.6929 12.7786 24.1508 12.6813 23.5626C12.6555 23.4069 12.5434 23.2815 12.3953 23.2427C12.3645 23.2352 12.3329 23.2317 12.3013 23.2323ZM9.92403 20.0548V14.3207C10.3897 14.5214 10.8722 14.6774 11.3655 14.7867C11.0364 15.0681 10.99 15.5724 11.2621 15.9129C11.5341 16.2534 12.0214 16.3014 12.3505 16.0199C12.6548 15.7597 12.7207 15.3041 12.5035 14.963C12.7377 14.983 12.9728 14.999 13.2097 14.999C15.1093 15.0213 16.9562 14.3529 18.4282 13.1103V20.0548C18.4057 20.0264 18.3771 20.002 18.354 19.9748C18.2821 19.8896 18.2051 19.808 18.1251 19.7272C18.0683 19.6692 18.0122 19.6112 17.9508 19.556C17.8623 19.476 17.7672 19.402 17.6705 19.328C17.6075 19.2792 17.5468 19.2292 17.4803 19.1833C17.3682 19.1061 17.2484 19.0361 17.127 18.9669C17.0663 18.9317 17.0111 18.8937 16.9465 18.8609C16.7543 18.7601 16.5568 18.6709 16.3547 18.5937C14.9462 18.0729 13.4068 18.0729 11.9983 18.5937C11.7961 18.6705 11.5985 18.7596 11.4065 18.8605C11.3423 18.8937 11.2843 18.9329 11.2225 18.9681C11.1026 19.0373 10.9836 19.1061 10.8726 19.1825C10.8054 19.2292 10.7443 19.28 10.6793 19.3288C10.5835 19.4024 10.4888 19.4764 10.401 19.5556C10.3396 19.6112 10.2851 19.6696 10.2255 19.728C10.1482 19.808 10.0709 19.888 9.99786 19.9744C9.97544 20.0004 9.94645 20.0264 9.92403 20.0548ZM19.9744 16.6006C19.9738 17.1089 19.6643 17.562 19.2013 17.7321V15.469C19.6642 15.6392 19.9737 16.0922 19.9744 16.6006ZM8.61516 12.6084C7.2716 11.5659 6.47028 9.93842 6.44506 8.20095C6.44448 7.71133 6.51097 7.2241 6.64259 6.75382C7.40888 7.33244 8.27611 7.75217 9.19654 7.98976C9.3384 8.03056 9.49041 7.98506 9.58927 7.87217C10.8281 6.51368 12.5647 5.76127 14.3694 5.80106C16.0431 5.77737 17.6618 6.41884 18.892 7.59338C19.3381 8.03136 19.6997 8.55299 19.9578 9.13051C20.224 9.71548 20.3617 10.3542 20.3609 11.0008C20.353 12.1385 19.9401 13.2333 19.2013 14.0759V12.2008C19.1903 11.9754 19.0096 11.799 18.7915 11.8008C18.6836 11.8008 18.5806 11.8475 18.5074 11.9296C17.1228 13.4148 15.2037 14.2374 13.2097 14.2007C11.9952 14.206 10.797 13.9102 9.71568 13.3379C9.6633 13.3104 9.60551 13.2958 9.54675 13.2951C9.54366 13.2951 9.54057 13.2927 9.53747 13.2927H9.53129C9.50853 13.2939 9.48587 13.2971 9.46364 13.3023C9.45282 13.3023 9.442 13.3047 9.43156 13.3075C9.35638 13.3285 9.28989 13.3743 9.24215 13.4379C9.23505 13.4467 9.22843 13.4559 9.22244 13.4655C9.20166 13.4961 9.18513 13.5294 9.17334 13.5647C9.17334 13.5695 9.16832 13.5735 9.16677 13.5783C8.99534 13.3213 8.84878 13.0475 8.72919 12.7607C8.70392 12.701 8.66474 12.6486 8.61516 12.6084ZM8.37782 16.6006C8.3784 16.0922 8.68793 15.6392 9.15092 15.469V17.7321C8.68793 17.562 8.3784 17.1089 8.37782 16.6006ZM21.0749 28.2L20.7421 26.1341L19.9798 26.2661L20.2913 28.2H8.06085L8.37241 26.2661L7.61013 26.1341L7.27731 28.2H4.21697L4.7508 25.613C5.02622 24.3259 6.12586 23.4074 7.39984 23.4003H9.64184C9.64455 23.4051 9.64803 23.4091 9.65035 23.4139C9.7249 23.5509 9.80821 23.6826 9.89967 23.8082C9.91398 23.8286 9.92828 23.8482 9.94335 23.869C10.0317 23.9863 10.1277 24.0972 10.2306 24.201L10.2831 24.2518C10.3857 24.3513 10.4953 24.4427 10.6109 24.5254C10.6252 24.5358 10.6403 24.5446 10.655 24.5546C10.7742 24.6369 10.8999 24.7087 11.0307 24.7694C11.0559 24.782 11.0817 24.7931 11.108 24.8026C11.2061 24.8529 11.3202 24.8578 11.4219 24.8162C11.6691 24.7133 11.9002 24.5731 12.1077 24.4002C12.2852 24.8835 12.5613 25.3216 12.9171 25.6846C13.075 25.8473 13.2493 25.9921 13.437 26.1165C13.629 26.2416 13.8337 26.3443 14.0474 26.4229C14.1307 26.4534 14.2215 26.4534 14.3048 26.4229C14.7289 26.2684 15.114 26.0173 15.4316 25.6882C15.7886 25.3243 16.0655 24.8849 16.2434 24.4002C16.4518 24.5739 16.6839 24.7145 16.9322 24.8178C17.0353 24.859 17.1504 24.8538 17.2496 24.8034C17.2743 24.7934 17.299 24.783 17.3029 24.7802C17.4373 24.7181 17.5666 24.6448 17.6895 24.561C17.7045 24.5506 17.72 24.5418 17.7347 24.5314C17.8522 24.4479 17.9635 24.3555 18.0679 24.255L18.1201 24.2046C18.2246 24.1 18.322 23.988 18.4115 23.8694C18.4255 23.851 18.4386 23.8318 18.4521 23.813C18.545 23.6858 18.6293 23.5522 18.7046 23.4131C18.7069 23.4087 18.71 23.4055 18.7119 23.4011H20.9539C22.2274 23.4081 23.3268 24.326 23.6026 25.6126L24.1352 28.2H21.0749Z" fill="#191A39"/>
<path d="M16.4958 16.2C16.9227 16.2 17.2689 15.8419 17.2689 15.4001C17.2689 14.9583 16.9227 14.6001 16.4958 14.6001C16.0688 14.6001 15.7227 14.9583 15.7227 15.4001C15.7227 15.8419 16.0688 16.2 16.4958 16.2Z" fill="#191A39"/>
</svg>
