<svg width="17" height="17" viewBox="0 0 17 17" fill="none" xmlns="http://www.w3.org/2000/svg">
<path d="M1.70711 0.292894C1.31658 -0.0976307 0.683419 -0.0976313 0.292894 0.292893C-0.0976307 0.683416 -0.0976313 1.31658 0.292893 1.70711L1.70711 0.292894ZM15.2929 16.7071C15.6834 17.0976 16.3166 17.0976 16.7071 16.7071C17.0976 16.3166 17.0976 15.6834 16.7071 15.2929L15.2929 16.7071ZM16.7071 1.70711C17.0976 1.31658 17.0976 0.683416 16.7071 0.292893C16.3166 -0.0976313 15.6834 -0.0976307 15.2929 0.292894L16.7071 1.70711ZM0.292921 15.2929C-0.097603 15.6834 -0.0976024 16.3166 0.292922 16.7071C0.683447 17.0976 1.31661 17.0976 1.70714 16.7071L0.292921 15.2929ZM0.292893 1.70711L7.79289 9.20712L9.20711 7.79291L1.70711 0.292894L0.292893 1.70711ZM7.79289 9.20712L15.2929 16.7071L16.7071 15.2929L9.20711 7.79291L7.79289 9.20712ZM15.2929 0.292894L7.79289 7.79291L9.20711 9.20712L16.7071 1.70711L15.2929 0.292894ZM7.79289 7.79291L0.292921 15.2929L1.70714 16.7071L9.20711 9.20712L7.79289 7.79291Z" fill="#94C2FF"/>
</svg>
