<svg width="15" height="17" viewBox="0 0 15 17" fill="none" xmlns="http://www.w3.org/2000/svg">
<path d="M1.73781 0.627721C1.36501 0.220243 0.732466 0.192129 0.324987 0.564928C-0.0824919 0.937728 -0.110605 1.57027 0.262194 1.97775L1.73781 0.627721ZM13.2622 16.187C13.635 16.5945 14.2675 16.6226 14.675 16.2498C15.0825 15.877 15.1106 15.2445 14.7378 14.837L13.2622 16.187ZM14.7378 1.97775C15.1106 1.57027 15.0825 0.937728 14.675 0.564928C14.2675 0.192129 13.635 0.220243 13.2622 0.627721L14.7378 1.97775ZM0.262219 14.837C-0.110581 15.2445 -0.0824672 15.877 0.325012 16.2498C0.732491 16.6226 1.36503 16.5945 1.73783 16.187L0.262219 14.837ZM0.262194 1.97775L6.7622 9.08241L8.23781 7.73239L1.73781 0.627721L0.262194 1.97775ZM6.7622 9.08241L13.2622 16.187L14.7378 14.837L8.23781 7.73239L6.7622 9.08241ZM13.2622 0.627721L6.7622 7.73239L8.23781 9.08241L14.7378 1.97775L13.2622 0.627721ZM6.7622 7.73239L0.262219 14.837L1.73783 16.187L8.23781 9.08241L6.7622 7.73239Z" fill="#A0A0A0"/>
</svg>
