<svg width="6" height="13" viewBox="0 0 6 13" fill="none" xmlns="http://www.w3.org/2000/svg">
<path d="M4.61044 5.90536C4.15604 5.62344 3.67294 5.40864 3.19463 5.18579C2.9172 5.05692 2.65174 4.90656 2.41736 4.69714C1.95579 4.28366 2.04428 3.61242 2.58477 3.34662C2.73784 3.27144 2.89807 3.24727 3.0607 3.23653C3.68729 3.19895 4.2828 3.32782 4.8496 3.6339C5.13181 3.78695 5.22508 3.73862 5.32074 3.40837C5.42119 3.05933 5.5049 2.70492 5.59817 2.35319C5.66035 2.11692 5.58382 1.96119 5.38532 1.86185C5.0218 1.68196 4.64871 1.55308 4.25649 1.48327C3.74469 1.39467 3.74469 1.39199 3.7423 0.814727C3.73991 0.00119332 3.73991 0.0011933 3.01287 0.0011933C2.90764 0.0011933 2.80241 -0.00149163 2.69718 0.0011933C2.35757 0.011933 2.30018 0.0790563 2.29061 0.463001C2.28583 0.634837 2.29061 0.806672 2.28822 0.981193C2.28583 1.49133 2.28343 1.48328 1.84817 1.66048C0.795871 2.09007 0.145361 2.89555 0.0760049 4.18431C0.0138237 5.32541 0.544755 6.09599 1.37942 6.65714C1.89361 7.00349 2.4628 7.20755 3.00808 7.47873C3.22093 7.58344 3.42422 7.70426 3.6012 7.87073C4.12495 8.3567 4.02929 9.16486 3.40748 9.47094C3.07505 9.63472 2.72349 9.675 2.36236 9.62398C1.80512 9.54612 1.2718 9.38234 0.769564 9.08968C0.475399 8.91785 0.389302 8.96349 0.288855 9.32059C0.202759 9.62935 0.126228 9.94081 0.0496975 10.2523C-0.0531405 10.6711 -0.0148754 10.7704 0.34147 10.9664C0.795871 11.2135 1.28136 11.3397 1.77642 11.4283C2.16386 11.4981 2.17581 11.5169 2.1806 11.9679C2.18299 12.172 2.18299 12.3787 2.18538 12.5828C2.18777 12.8405 2.29778 12.9909 2.53455 12.9963C2.80241 13.0016 3.07266 13.0016 3.34051 12.9936C3.56054 12.9882 3.67294 12.854 3.67294 12.6043C3.67294 12.325 3.6849 12.0431 3.67533 11.7639C3.66338 11.4793 3.77339 11.3343 4.01733 11.2591C4.57935 11.0873 5.05767 10.749 5.42597 10.2442C6.44957 8.84804 6.05974 6.80481 4.61044 5.90536Z" fill="white"/>
</svg>
