<svg width="13" height="14" viewBox="0 0 13 14" fill="none" xmlns="http://www.w3.org/2000/svg">
<rect width="13" height="14" fill="black" fill-opacity="0"/>
<path d="M11.1952 8.92188V12.12H1.80482V8.92188H0V13.06C0 13.5789 0.403462 13.9997 0.903755 13.9997H12.0962C12.5961 13.9997 13 13.5794 13 13.06V8.92188H11.1952Z" fill="#237BEF"/>
<path d="M6.3347 0.123405L3.75075 3.37612C3.75075 3.37612 3.3576 3.76281 3.78393 3.76281C4.21025 3.76281 5.23998 3.76281 5.23998 3.76281C5.23998 3.76281 5.23998 4.02293 5.23998 4.42409C5.23998 5.5678 5.23998 7.64926 5.23998 8.49781C5.23998 8.49781 5.18215 8.72852 5.51568 8.72852C5.8519 8.72852 7.32453 8.72852 7.56526 8.72852C7.80555 8.72852 7.80017 8.53424 7.80017 8.53424C7.80017 7.71137 7.80017 5.55799 7.80017 4.45165C7.80017 4.09298 7.80017 3.86041 7.80017 3.86041C7.80017 3.86041 8.62592 3.86041 9.14415 3.86041C9.66147 3.86041 9.27191 3.45552 9.27191 3.45552C9.27191 3.45552 7.07349 0.415286 6.76686 0.0963192C6.5463 -0.134851 6.3347 0.123405 6.3347 0.123405Z" fill="#237BEF"/>
</svg>
