<svg width="29" height="23" viewBox="0 0 29 23" fill="none" xmlns="http://www.w3.org/2000/svg">
<rect width="29" height="22.5556" fill="black" fill-opacity="0"/>
<path d="M0 3C0 1.34315 1.34315 0 3 0H26C27.6569 0 29 1.34315 29 3V19.5556C29 21.2124 27.6569 22.5556 26 22.5556H3C1.34315 22.5556 0 21.2124 0 19.5556V3Z" fill="#237BEF"/>
<path d="M18.1396 15.015H24.4733C25.0555 15.015 25.5276 14.543 25.5276 13.9607C25.5276 13.3784 25.0555 12.9064 24.4733 12.9064H18.1396C17.5574 12.9064 17.0853 13.3784 17.0853 13.9607C17.0853 14.543 17.5574 15.015 18.1396 15.015Z" fill="white"/>
<path d="M18.1396 9.64765H24.4733C25.0555 9.64765 25.5276 9.17563 25.5276 8.59336C25.5276 8.01109 25.0555 7.53906 24.4733 7.53906H18.1396C17.5574 7.53906 17.0853 8.01109 17.0853 8.59336C17.0853 9.17563 17.5574 9.64765 18.1396 9.64765Z" fill="white"/>
<path fill-rule="evenodd" clip-rule="evenodd" d="M3.37201 11.3887C3.37201 8.31055 5.89325 5.80664 8.99213 5.80664C12.091 5.80664 14.6122 8.31055 14.6122 11.3887C14.6122 14.4668 12.091 16.9746 8.99213 16.9746C5.89325 16.9746 3.37201 14.4668 3.37201 11.3887ZM8.9931 6.7207C10.236 6.7207 11.4079 7.19727 12.2924 8.06445C13.1762 8.93164 13.6728 10.0879 13.6904 11.3184C13.6916 11.3887 13.6481 11.4512 13.5822 11.4746C13.5163 11.502 13.4423 11.4785 13.3976 11.4277C12.4123 10.2402 10.7658 9.5332 8.9931 9.5332C7.22015 9.5332 5.57367 10.2402 4.58832 11.4277C4.55634 11.4668 4.50922 11.4863 4.46088 11.4863L4.40399 11.4746C4.33807 11.4512 4.29462 11.3887 4.29559 11.3184C4.31342 10.0879 4.80975 8.93164 5.69354 8.06445C6.57831 7.19727 7.75018 6.7207 8.9931 6.7207ZM8.99286 9.97461C9.77802 9.97461 10.4167 10.6074 10.4167 11.3887C10.4167 12.166 9.77802 12.8027 8.99286 12.8027C8.20795 12.8027 7.56927 12.166 7.56927 11.3887C7.56927 10.6074 8.20795 9.97461 8.99286 9.97461ZM10.2795 13.2363C11.0956 12.4277 12.2963 12.1074 13.4133 12.4004C13.5014 12.4238 13.5536 12.5176 13.53 12.6035C13.2866 13.502 12.7817 14.3027 12.0703 14.916C11.352 15.5332 10.4748 15.916 9.51434 16.0254C9.43134 16.0254 9.3598 15.9629 9.35028 15.8809C9.23822 14.8965 9.57684 13.9355 10.2795 13.2363ZM4.57245 12.4004C4.48383 12.4238 4.43182 12.5176 4.45551 12.6035C4.69867 13.502 5.20355 14.3027 5.91498 14.916C6.63324 15.5332 7.51044 15.916 8.45209 16.0254C8.55389 16.0254 8.62543 15.9629 8.63495 15.8809C8.74701 14.8965 8.40839 13.9355 7.70575 13.2363C6.88959 12.4277 5.6889 12.1074 4.57245 12.4004Z" fill="white"/>
</svg>
