<svg width="23" height="13" viewBox="0 0 23 13" fill="none" xmlns="http://www.w3.org/2000/svg">
<path d="M11.5 -6.80728e-08C15.8944 -6.80728e-08 19.8795 2.27968 22.82 5.9825C23.06 6.28586 23.06 6.70968 22.82 7.01304C19.8795 10.7203 15.8944 13 11.5 13C7.10561 13 3.12054 10.7203 0.179964 7.0175C-0.059988 6.71414 -0.059988 6.29032 0.179964 5.98696C3.12054 2.27968 7.10561 -6.80728e-08 11.5 -6.80728e-08ZM11.1848 11.0772C14.1018 11.2512 16.5107 8.97152 16.3272 6.2011C16.1767 3.91695 14.2241 2.06555 11.8152 1.92279C8.89818 1.7488 6.48926 4.02848 6.67275 6.7989C6.82801 9.07859 8.78056 10.93 11.1848 11.0772ZM11.3306 8.96259C12.9021 9.05628 14.2006 7.82944 14.0971 6.3394C14.0171 5.1081 12.9632 4.11325 11.6647 4.03294C10.0932 3.93926 8.79467 5.16609 8.89818 6.65614C8.98287 7.8919 10.0368 8.88675 11.3306 8.96259Z" fill="#94C2FF"/>
</svg>
