<svg width="23" height="19" viewBox="0 0 23 19" fill="none" xmlns="http://www.w3.org/2000/svg">
<rect width="23" height="17" fill="black" fill-opacity="0" transform="translate(23 1) scale(-1 1)"/>
<path d="M20 1L3 18" stroke="#BFBFBF" stroke-linecap="round" stroke-linejoin="round"/>
<path d="M11.5 3C15.8944 3 19.8795 5.27968 22.82 8.9825C23.06 9.28586 23.06 9.70968 22.82 10.013C19.8795 13.7203 15.8944 16 11.5 16C7.10561 16 3.12054 13.7203 0.179964 10.0175C-0.059988 9.71414 -0.059988 9.29032 0.179964 8.98696C3.12054 5.27968 7.10561 3 11.5 3ZM11.1848 14.0772C14.1018 14.2512 16.5107 11.9715 16.3272 9.2011C16.1767 6.91695 14.2241 5.06555 11.8152 4.92279C8.89818 4.7488 6.48926 7.02848 6.67275 9.7989C6.82801 12.0786 8.78056 13.93 11.1848 14.0772ZM11.3306 11.9626C12.9021 12.0563 14.2006 10.8294 14.0971 9.3394C14.0171 8.1081 12.9632 7.11325 11.6647 7.03294C10.0932 6.93926 8.79467 8.16609 8.89818 9.65614C8.98287 10.8919 10.0368 11.8868 11.3306 11.9626Z" fill="#BFBFBF"/>
</svg>
