<svg width="11" height="12" viewBox="0 0 11 12" fill="none" xmlns="http://www.w3.org/2000/svg">
<path d="M3.09665 12C2.25228 10.3359 2.70194 9.38228 3.3509 8.48388C4.06157 7.5 4.24473 6.52608 4.24473 6.52608C4.24473 6.52608 4.80339 7.21398 4.57991 8.28986C5.56688 7.24923 5.75314 5.59125 5.6041 4.95628C7.83502 6.43296 8.78847 9.63037 7.50354 12C14.3377 8.33754 9.20349 2.85737 8.30964 2.24006C8.6076 2.85734 8.66411 3.90236 8.06221 4.40951C7.04331 0.749993 4.52406 0 4.52406 0C4.82202 1.88723 3.44402 3.95091 2.11522 5.49293C2.06854 4.74039 2.01894 4.22112 1.60114 3.50098C1.50735 4.86804 0.404341 5.98239 0.105647 7.3521C-0.298947 9.20701 0.408712 10.5652 3.09665 12Z" fill="#FFB74C"/>
</svg>
