<svg width="10" height="17" viewBox="0 0 10 17" fill="none" xmlns="http://www.w3.org/2000/svg">
<path d="M0 11.1111C0 13.8725 2.23859 16.1111 5 16.1111C7.76141 16.1111 10 13.8725 10 11.1111C10 8.33332 8.61111 6.1111 9.54297 4.16666C9.54297 4.16666 8.05553 4.44445 7.22223 6.66665C7.22223 6.66665 4.44445 3.88887 5.60501 0C5.60501 0 2.77781 1.1111 3.07347 4.72221C3.32703 7.81874 2.77781 8.33332 2.77781 8.33332C2.77781 5.83334 0.823238 4.72221 0.823238 4.72221C1.38889 7.77777 0 8.61111 0 11.1111Z" fill="#00B43D"/>
<path d="M8.60909 12.2948C8.60909 14.3745 7.00324 16.15 4.92387 16.1099C2.96701 16.0722 1.51107 14.5833 1.66667 12.6384C1.73612 11.7704 2.39582 10.3641 3.47221 8.9405L4.18981 9.37453C4.16662 7.6153 4.99996 5.27734 4.99996 5.27734C5.54736 7.74067 8.60909 8.37916 8.60909 12.2948Z" fill="#6AC489"/>
<path d="M3.61068 10.5553C3.33289 12.222 2.77734 12.8288 2.77734 13.8886C2.77734 14.9998 3.7723 16.1109 4.99957 16.1109C6.23572 16.1109 7.22519 15.1009 7.22176 13.8647C7.21248 10.5447 5.27736 8.88867 5.27736 8.88867C5.55515 10.5553 4.72181 11.3887 4.72181 11.3887C4.37467 10.868 3.61068 10.5553 3.61068 10.5553Z" fill="white"/>
</svg>
