<svg width="26" height="26" viewBox="0 0 26 26" fill="none" xmlns="http://www.w3.org/2000/svg">
<path d="M13 26C20.1797 26 26 20.1797 26 13C26 5.8203 20.1797 0 13 0C5.8203 0 0 5.8203 0 13C0 20.1797 5.8203 26 13 26Z" fill="#E93B3B"/>
<path fill-rule="evenodd" clip-rule="evenodd" d="M3.63167 5.2729L1.38718 6.89887L2.24199 4.26455L0 2.63513L2.7728 2.633L3.63167 0L4.49054 2.633L7.26334 2.63513L5.02135 4.26455L5.87617 6.89887L3.63167 5.2729Z" transform="translate(5.85474 8.70508)" fill="#F6BB42"/>
<path fill-rule="evenodd" clip-rule="evenodd" d="M1.19023 1.72812L0.454629 2.26102L0.734784 1.39765L0 0.863631L0.90875 0.862933L1.19023 0L1.47172 0.862933L2.38047 0.863631L1.64568 1.39765L1.92584 2.26102L1.19023 1.72812Z" transform="translate(15.2444 7.0957) rotate(23)" fill="#F6BB42"/>
<path fill-rule="evenodd" clip-rule="evenodd" d="M1.19023 1.72812L0.454629 2.26102L0.734784 1.39765L0 0.863631L0.90875 0.862933L1.19023 0L1.47172 0.862933L2.38047 0.863631L1.64568 1.39765L1.92584 2.26102L1.19023 1.72812Z" transform="translate(18.4343 9.51953) rotate(46)" fill="#F6BB42"/>
<path fill-rule="evenodd" clip-rule="evenodd" d="M1.19023 1.72812L0.454629 2.26102L0.734783 1.39765L0 0.863631L0.90875 0.862933L1.19023 0L1.47172 0.862933L2.38047 0.863631L1.64568 1.39765L1.92584 2.26102L1.19023 1.72812Z" transform="translate(19.1719 13.5176) rotate(71)" fill="#F6BB42"/>
<path fill-rule="evenodd" clip-rule="evenodd" d="M1.19023 1.72812L0.454629 2.26102L0.734784 1.39765L0 0.863631L0.90875 0.862934L1.19023 0L1.47172 0.862934L2.38047 0.863631L1.64568 1.39765L1.92584 2.26102L1.19023 1.72812Z" transform="translate(17.1631 16.4688) rotate(93)" fill="#F6BB42"/>
</svg>
