<svg width="26" height="26" viewBox="0 0 26 26" fill="none" xmlns="http://www.w3.org/2000/svg">
<path d="M13 26C20.1797 26 26 20.1797 26 13C26 5.8203 20.1797 0 13 0C5.8203 0 0 5.8203 0 13C0 20.1797 5.8203 26 13 26Z" fill="#4758A9"/>
<mask id="mask0" mask-type="alpha" maskUnits="userSpaceOnUse" x="0" y="0" width="26" height="26">
<path d="M12.9824 26C14.3316 26 15.633 25.7961 16.8572 25.4175C17.8427 22.1885 20.1015 20.9813 23.5983 20.5648C25.1318 18.4338 25.9613 15.8219 25.9613 13C25.9613 10.0393 25.0408 7.30972 23.3675 5.12416C19.8594 5.53036 18.2727 3.4735 17.5419 0.815226C16.1225 0.288119 14.5862 0 12.9824 0C11.7841 0 10.6236 0.160822 9.52132 0.461977C9.21096 0.848659 7.81592 2.69512 6.03096 3.84006C4.246 4.98499 2.29852 5.27854 2.29852 5.53036C0.806278 7.64379 0 10.22 0 13C0 15.7826 0.80791 18.361 2.30269 20.4755C4.00349 21.2044 6.07952 22.3292 7.54317 23.5516C9.00681 24.774 9.17471 25.4381 9.17471 25.4381C10.3793 25.8035 11.6578 26 12.9824 26Z" fill="white"/>
</mask>
<g mask="url(#mask0)">
<path d="M12.9824 26C14.3316 26 15.633 25.7961 16.8572 25.4175C17.8427 22.1885 20.1015 20.9813 23.5983 20.5648C25.1318 18.4338 25.9613 15.8219 25.9613 13C25.9613 10.0393 25.0408 7.30972 23.3675 5.12416C19.8594 5.53036 18.2727 3.4735 17.5419 0.815226C16.1225 0.288119 14.5862 0 12.9824 0C11.7841 0 10.6236 0.160822 9.52132 0.461977C9.21096 0.848659 7.81592 2.69512 6.03096 3.84006C4.246 4.98499 2.29852 5.27854 2.29852 5.53036C0.806278 7.64379 0 10.22 0 13C0 15.7826 0.80791 18.361 2.30269 20.4755C4.00349 21.2044 6.07952 22.3292 7.54317 23.5516C9.00681 24.774 9.17471 25.4381 9.17471 25.4381C10.3793 25.8035 11.6578 26 12.9824 26Z" fill="white"/>
<path d="M0 2.79447L0.911922 3.24836L47.533 26.4532L49.065 23.6587L1.53207 0L0 2.79447Z" transform="translate(-11.3513 -1.38867)" fill="white"/>
<path d="M0 2.19784L47.533 25.8565L48.636 23.6587L1.10308 0L0 2.19784Z" transform="translate(-12.4863 0.681641)" fill="white"/>
<path d="M47.533 0L0 23.6587L1.10308 25.8565L48.636 2.19784L47.533 0Z" transform="translate(-11.3513 1.12305)" fill="white"/>
<path d="M47.533 0L0 23.6587L1.10308 25.8565L48.636 2.19784L47.533 0Z" transform="translate(-12.3381 -0.349609)" fill="white"/>
<path d="M0 2.19784L23.7665 14.0272L24.8696 11.8293L1.10308 0L0 2.19784Z" transform="translate(-12.7053 -0.583984)" fill="#E93B3B"/>
<path d="M23.7665 0L0 11.8293L1.10308 14.0272L24.8696 2.19784L23.7665 0Z" transform="translate(11.9219 0.335938)" fill="#E93B3B"/>
<path d="M24.8696 11.8293L1.10308 0L0 2.19784L23.7665 14.0272L24.8696 11.8293Z" transform="translate(14.3435 12.7422)" fill="#E93B3B"/>
<path d="M1.10308 13.9752L24.8696 2.19784L23.7665 0L0 11.8293L1.10308 13.9752Z" transform="translate(-11.8447 12.0078)" fill="#E93B3B"/>
<path d="M8.03213 0H0V34H8.03213V0Z" transform="translate(8.96631 -4)" fill="white"/>
<path d="M48.1928 0H0V7.99999H48.1928V0Z" transform="translate(-11.114 9)" fill="white"/>
<path d="M4 0H0V34H4V0Z" transform="translate(10.9744 -4)" fill="#E93B3B"/>
<path d="M48.1928 0H0V4H48.1928V0Z" transform="translate(-11.114 11)" fill="#E93B3B"/>
<path fill-rule="evenodd" clip-rule="evenodd" d="M0 4.88324L6.73049 8.19808V0C6.73049 0 4.78641 0.493054 2.83301 1.99808C0.879605 3.50311 0 4.88324 0 4.88324Z" transform="translate(2.28247 0.613281)" fill="#4758A9"/>
<path fill-rule="evenodd" clip-rule="evenodd" d="M0 4.88324L6.73049 8.19808V0C6.73049 0 4.78641 0.493054 2.83301 1.99808C0.879606 3.50311 0 4.88324 0 4.88324Z" transform="translate(23.729 0.613281) scale(-1 1)" fill="#4758A9"/>
<path fill-rule="evenodd" clip-rule="evenodd" d="M0 4.88324L6.73049 8.19808V0C6.73049 0 4.78641 0.493055 2.83301 1.99808C0.879605 3.50311 0 4.88324 0 4.88324Z" transform="translate(2.33472 25.3438) scale(1 -1)" fill="#4758A9"/>
<path fill-rule="evenodd" clip-rule="evenodd" d="M0 4.88324L6.73049 8.19808V0C6.73049 0 4.78641 0.493055 2.83301 1.99808C0.879606 3.50311 0 4.88324 0 4.88324Z" transform="translate(23.729 25.291) rotate(-180)" fill="#4758A9"/>
</g>
</svg>
