<svg width="140" height="48" viewBox="0 0 140 48" fill="none" xmlns="http://www.w3.org/2000/svg">
<rect width="140" height="48" rx="4" fill="black"/>
<path fill-rule="evenodd" clip-rule="evenodd" d="M48.8869 14.4383C48.8869 15.2667 48.6356 15.9272 48.1341 16.4185C47.565 17.0038 46.8233 17.2964 45.91 17.2964C45.0361 17.2964 44.2934 16.9998 43.6819 16.4057C43.0704 15.8125 42.7646 15.0759 42.7646 14.198C42.7646 13.3191 43.0704 12.5836 43.6819 11.9904C44.2934 11.3962 45.0361 11.0996 45.91 11.0996C46.3439 11.0996 46.7587 11.1827 47.1532 11.3478C47.5468 11.5139 47.8637 11.7343 48.0998 12.0111L47.568 12.5322C47.1664 12.0635 46.6154 11.8292 45.91 11.8292C45.2723 11.8292 44.7223 12.0477 44.2571 12.4877C43.7919 12.9266 43.5588 13.4971 43.5588 14.198C43.5588 14.899 43.7919 15.4694 44.2571 15.9084C44.7223 16.3483 45.2723 16.5668 45.91 16.5668C46.5861 16.5668 47.1502 16.3463 47.6013 15.9054C47.8939 15.6177 48.0635 15.2173 48.1089 14.7032H45.91V13.9914H48.8445C48.8728 14.1456 48.8869 14.2949 48.8869 14.4383Z" fill="white"/>
<path fill-rule="evenodd" clip-rule="evenodd" d="M48.8862 14.4375H48.7853C48.7843 15.2472 48.5431 15.876 48.0628 16.3476L48.0618 16.3486L48.0608 16.3496C47.5098 16.9141 46.8004 17.1958 45.9094 17.1968C45.0587 17.1958 44.3473 16.9111 43.7529 16.3347C43.1596 15.7583 42.8659 15.0534 42.8649 14.1973C42.8659 13.3411 43.1596 12.6362 43.7529 12.0598C44.3473 11.4834 45.0587 11.1987 45.9094 11.1977C46.3302 11.1977 46.7308 11.2778 47.1122 11.438C47.4947 11.5991 47.7974 11.8107 48.0224 12.0737L48.0991 12.0104L48.0275 11.9402L47.4957 12.4622L47.5673 12.5314L47.644 12.4681C47.2253 11.9758 46.6359 11.7276 45.9094 11.7296C45.2484 11.7286 44.6672 11.96 44.1858 12.4157C43.7004 12.8725 43.4562 13.4746 43.4573 14.1973C43.4562 14.92 43.7004 15.5221 44.1858 15.9788C44.6672 16.4346 45.2484 16.6659 45.9094 16.6659C46.6077 16.6669 47.2031 16.4346 47.6723 15.9739C47.9851 15.6664 48.1627 15.2413 48.2091 14.7114L48.2182 14.6036H46.0103V14.0885H48.8439V13.9906L48.744 14.0075C48.7712 14.1577 48.7853 14.3001 48.7853 14.4375H48.9871C48.9871 14.2872 48.972 14.133 48.9427 13.9729L48.9276 13.8918H45.8085V14.8013H48.1082V14.7025L48.0073 14.6946C47.9629 15.1918 47.8014 15.5665 47.529 15.8345C47.0951 16.2576 46.5633 16.4672 45.9094 16.4682C45.2958 16.4672 44.7751 16.2596 44.3261 15.8374C43.8811 15.4153 43.6601 14.8775 43.6591 14.1973C43.6601 13.5171 43.8811 12.9793 44.3261 12.5571C44.7751 12.135 45.2958 11.9273 45.9094 11.9273C46.5925 11.9283 47.1072 12.1498 47.4896 12.5957L47.5603 12.6777L48.1708 12.0796L48.2364 12.0163L48.1768 11.9461C47.9286 11.6565 47.5976 11.4271 47.192 11.2561C46.7853 11.086 46.3564 11 45.9094 11C45.0123 10.999 44.2383 11.3075 43.6106 11.9194C42.9799 12.5294 42.6621 13.2966 42.6631 14.1973C42.6621 15.0979 42.9799 15.8651 43.6106 16.4761C44.2383 17.0871 45.0123 17.3955 45.9094 17.3945C46.8438 17.3955 47.6188 17.091 48.2071 16.486L48.1334 16.4178L48.2051 16.488C48.7278 15.9758 48.9871 15.2848 48.9871 14.4375H48.8862Z" fill="white"/>
<path fill-rule="evenodd" clip-rule="evenodd" d="M53.5368 11.9591H50.779V13.8405H53.2654V14.5523H50.779V16.4337H53.5368V17.1623H50.002V11.2305H53.5368V11.9591Z" fill="white"/>
<path fill-rule="evenodd" clip-rule="evenodd" d="M53.5372 11.9603V11.8614H50.6784V13.9406H53.1648V14.4547H50.6784V16.5338H53.4363V17.0647H50.1032V11.3305H53.4363V11.9603H53.5372V11.8614V11.9603H53.6381V11.1328H49.9014V17.2624H53.6381V16.336H50.8802V14.6524H53.3666V13.7428H50.8802V12.0592H53.6381V11.9603H53.5372Z" fill="white"/>
<path fill-rule="evenodd" clip-rule="evenodd" d="M56.8199 17.1623H56.0408V11.9591H54.3506V11.2305H58.5111V11.9591H56.8199V17.1623Z" fill="white"/>
<path fill-rule="evenodd" clip-rule="evenodd" d="M56.8192 17.1635V17.0647H56.1411V11.8614H54.4499V11.3305H58.4096V11.8614H56.7183V17.1635H56.8192V17.0647V17.1635H56.9202V12.0592H58.6114V11.1328H54.248V12.0592H55.9393V17.2624H56.9202V17.1635H56.8192Z" fill="white"/>
<path fill-rule="evenodd" clip-rule="evenodd" d="M61.5205 17.1623H62.2985V11.2305H61.5205V17.1623Z" fill="white"/>
<path fill-rule="evenodd" clip-rule="evenodd" d="M61.5208 17.1635H61.6217V11.3305H62.1969V17.0647H61.5208V17.1635H61.6217H61.5208V17.2624H62.3998V11.1328H61.4199V17.2624H61.5208V17.1635Z" fill="white"/>
<path fill-rule="evenodd" clip-rule="evenodd" d="M65.7486 17.1623H64.9706V11.9591H63.2793V11.2305H67.4398V11.9591H65.7486V17.1623Z" fill="white"/>
<path fill-rule="evenodd" clip-rule="evenodd" d="M65.7489 17.1635V17.0647H65.0718V11.8614H63.3805V11.3305H67.3393V11.8614H65.648V17.1635H65.7489V17.0647V17.1635H65.8498V12.0592H67.5411V11.1328H63.1787V12.0592H64.87V17.2624H65.8498V17.1635H65.7489Z" fill="white"/>
<path fill-rule="evenodd" clip-rule="evenodd" d="M71.4516 15.9005C71.9006 16.3454 72.4486 16.5668 73.0964 16.5668C73.7453 16.5668 74.2942 16.3454 74.7413 15.9005C75.1893 15.4556 75.4143 14.8881 75.4143 14.198C75.4143 13.5079 75.1893 12.9405 74.7413 12.4956C74.2942 12.0507 73.7453 11.8292 73.0964 11.8292C72.4486 11.8292 71.9006 12.0507 71.4516 12.4956C71.0045 12.9405 70.7795 13.5079 70.7795 14.198C70.7795 14.8881 71.0045 15.4556 71.4516 15.9005ZM75.3165 16.3977C74.7221 16.9969 73.9814 17.2964 73.0964 17.2964C72.2114 17.2964 71.4718 16.9969 70.8774 16.3977C70.282 15.7986 69.9854 15.0651 69.9854 14.198C69.9854 13.331 70.282 12.5974 70.8774 11.9983C71.4718 11.3992 72.2114 11.0996 73.0964 11.0996C73.9764 11.0996 74.715 11.4002 75.3124 12.0022C75.9098 12.6043 76.2085 13.3359 76.2085 14.198C76.2085 15.0651 75.9108 15.7986 75.3165 16.3977Z" fill="white"/>
<path fill-rule="evenodd" clip-rule="evenodd" d="M71.45 15.8997L71.3783 15.9689C71.8435 16.4316 72.4227 16.6669 73.0948 16.6659C73.7669 16.6669 74.3471 16.4316 74.8113 15.9689C75.2795 15.5072 75.5146 14.9081 75.5136 14.1973C75.5146 13.4864 75.2795 12.8883 74.8113 12.4256C74.3471 11.9629 73.7669 11.7286 73.0948 11.7296C72.4227 11.7286 71.8435 11.9629 71.3783 12.4256C70.9121 12.8883 70.676 13.4864 70.677 14.1973C70.676 14.9081 70.9121 15.5072 71.3783 15.9689L71.5226 15.8305C71.0937 15.4044 70.8798 14.8666 70.8788 14.1973C70.8798 13.528 71.0937 12.9901 71.5226 12.564H71.5216C71.9545 12.1369 72.4702 11.9283 73.0948 11.9273C73.7204 11.9283 74.2371 12.1369 74.668 12.564C75.0969 12.9911 75.3108 13.528 75.3118 14.1973C75.3108 14.8666 75.0969 15.4034 74.668 15.8305C74.2371 16.2576 73.7204 16.4672 73.0948 16.4682C72.4702 16.4662 71.9545 16.2576 71.5216 15.8305L71.45 15.8997ZM75.3148 16.397L75.2432 16.3278C74.665 16.9091 73.9566 17.1958 73.0948 17.1968C72.233 17.1958 71.5256 16.9091 70.9484 16.3278L70.9454 16.3248L70.9484 16.3278C70.3712 15.7455 70.0856 15.0426 70.0846 14.1973C70.0856 13.352 70.3712 12.6491 70.9484 12.0667C71.5256 11.4854 72.233 11.1987 73.0948 11.1977C73.9515 11.1987 74.6569 11.4874 75.2391 12.0707C75.8184 12.656 76.105 13.3579 76.106 14.1973C76.105 15.0426 75.8194 15.7455 75.2432 16.3278L75.3875 16.4652C76 15.8503 76.3088 15.0861 76.3078 14.1973C76.3088 13.3134 75.998 12.5512 75.3834 11.9333C74.7689 11.3124 73.9979 10.999 73.0948 11C72.1866 10.999 71.4146 11.3114 70.8031 11.9293C70.1906 12.5453 69.8818 13.3085 69.8828 14.1973C69.8818 15.0861 70.1906 15.8503 70.8031 16.4652L70.8061 16.4682L70.8031 16.4652C71.4146 17.0841 72.1866 17.3955 73.0948 17.3945C74.003 17.3955 74.776 17.0841 75.3875 16.4652L75.3148 16.397Z" fill="white"/>
<path fill-rule="evenodd" clip-rule="evenodd" d="M77.2988 17.1623V11.2305H78.2464L81.1889 15.8445H81.2222L81.1889 14.7016V11.2305H81.9669V17.1623H81.1546L78.0768 12.3239H78.0425L78.0768 13.4678V17.1623H77.2988Z" fill="white"/>
<path fill-rule="evenodd" clip-rule="evenodd" d="M77.2982 17.1635H77.3991V11.3305H78.1892L81.1318 15.9455H81.3255L81.2892 14.7018V11.3305H81.8654V17.0647H81.2105L78.1317 12.2263H77.939L77.9753 13.47V17.0647H77.2982V17.1635H77.3991H77.2982V17.2624H78.1771V13.467L78.1428 12.3231L78.0419 12.3251V12.424H78.0762V12.3251L77.9904 12.3775L81.0985 17.2624H82.0672V11.1328H81.0874V14.7048L81.1207 15.8486L81.2216 15.8457V15.7478H81.1883V15.8457L81.274 15.7943L78.3012 11.1328H77.1973V17.2624H77.2982V17.1635Z" fill="white"/>
<path fill-rule="evenodd" clip-rule="evenodd" d="M108.947 33.97H110.83V21.6109H108.947V33.97ZM125.907 26.0628L123.749 31.4212H123.684L121.444 26.0628H119.416L122.775 33.5518L120.86 37.7179H122.824L128.001 26.0628H125.907ZM115.229 32.5661C114.611 32.5661 113.751 32.2645 113.751 31.5171C113.751 30.5631 114.823 30.1973 115.747 30.1973C116.576 30.1973 116.964 30.3723 117.468 30.6105C117.322 31.7554 116.316 32.5661 115.229 32.5661ZM115.456 25.7929C114.092 25.7929 112.681 26.3811 112.096 27.6852L113.768 28.3683C114.125 27.6852 114.79 27.4617 115.488 27.4617C116.462 27.4617 117.452 28.0341 117.468 29.0524V29.179C117.127 28.9882 116.397 28.7025 115.504 28.7025C113.703 28.7025 111.868 29.6723 111.868 31.4845C111.868 33.1385 113.346 34.2043 115.001 34.2043C116.267 34.2043 116.964 33.6477 117.403 32.9952H117.468V33.9492H119.285V29.2116C119.285 27.0168 117.614 25.7929 115.456 25.7929ZM103.819 27.5675H101.141V23.3312H103.819C105.227 23.3312 106.026 24.4731 106.026 25.4488C106.026 26.4068 105.227 27.5675 103.819 27.5675ZM103.77 21.6109H99.2587V33.97H101.141V29.2877H103.77C105.857 29.2877 107.909 27.8068 107.909 25.4488C107.909 23.0909 105.857 21.6109 103.77 21.6109ZM79.1674 32.5681C77.8666 32.5681 76.7778 31.5013 76.7778 30.0361C76.7778 28.5552 77.8666 27.4716 79.1674 27.4716C80.452 27.4716 81.4591 28.5552 81.4591 30.0361C81.4591 31.5013 80.452 32.5681 79.1674 32.5681ZM81.3289 26.7548H81.2643C80.8415 26.2615 80.0292 25.8156 79.0049 25.8156C76.8586 25.8156 74.8918 27.6624 74.8918 30.0361C74.8918 32.3931 76.8586 34.225 79.0049 34.225C80.0292 34.225 80.8415 33.7791 81.2643 33.269H81.3289V33.8741C81.3289 35.4836 80.452 36.3437 79.0372 36.3437C77.8828 36.3437 77.1673 35.531 76.8747 34.8459L75.2329 35.5152C75.7041 36.6304 76.9564 37.9997 79.0372 37.9997C81.2482 37.9997 83.118 36.7253 83.118 33.62V26.0697H81.3289V26.7548ZM84.4188 33.97H86.3048V21.6099H84.4188V33.97ZM89.0839 29.8928C89.0354 28.2685 90.3684 27.44 91.3271 27.44C92.0759 27.44 92.7096 27.8058 92.9205 28.3317L89.0839 29.8928ZM94.9367 28.4909C94.5794 27.5517 93.4896 25.8156 91.2625 25.8156C89.0516 25.8156 87.215 27.5191 87.215 30.0203C87.215 32.3773 89.0354 34.225 91.4734 34.225C93.4412 34.225 94.5794 33.0466 95.0507 32.3614L93.5875 31.4054C93.1001 32.1064 92.4331 32.5681 91.4734 32.5681C90.5148 32.5681 89.8316 32.138 89.3926 31.2947L95.1314 28.9694L94.9367 28.4909ZM49.2161 27.1058V28.8893H53.5725C53.4423 29.8928 53.1012 30.6254 52.5815 31.1355C51.9468 31.7564 50.9548 32.4405 49.2161 32.4405C46.5339 32.4405 44.436 30.3229 44.436 27.695C44.436 25.0662 46.5339 22.9486 49.2161 22.9486C50.6632 22.9486 51.7197 23.5062 52.4998 24.2229L53.7844 22.9644C52.6945 21.9451 51.2485 21.1641 49.2161 21.1641C45.542 21.1641 42.4531 24.0954 42.4531 27.695C42.4531 31.2947 45.542 34.225 49.2161 34.225C51.199 34.225 52.6945 33.5883 53.8651 32.3931C55.0679 31.2146 55.4423 29.5586 55.4423 28.22C55.4423 27.8058 55.41 27.4242 55.3444 27.1058H49.2161ZM60.396 32.5681C59.0953 32.5681 57.9732 31.5171 57.9732 30.0203C57.9732 28.5067 59.0953 27.4716 60.396 27.4716C61.6957 27.4716 62.8179 28.5067 62.8179 30.0203C62.8179 31.5171 61.6957 32.5681 60.396 32.5681ZM60.396 25.8156C58.0216 25.8156 56.0871 27.5833 56.0871 30.0203C56.0871 32.4405 58.0216 34.225 60.396 34.225C62.7694 34.225 64.7039 32.4405 64.7039 30.0203C64.7039 27.5833 62.7694 25.8156 60.396 25.8156ZM69.7938 32.5681C68.4931 32.5681 67.3709 31.5171 67.3709 30.0203C67.3709 28.5067 68.4931 27.4716 69.7938 27.4716C71.0945 27.4716 72.2157 28.5067 72.2157 30.0203C72.2157 31.5171 71.0945 32.5681 69.7938 32.5681ZM69.7938 25.8156C67.4204 25.8156 65.4859 27.5833 65.4859 30.0203C65.4859 32.4405 67.4204 34.225 69.7938 34.225C72.1672 34.225 74.1017 32.4405 74.1017 30.0203C74.1017 27.5833 72.1672 25.8156 69.7938 25.8156Z" fill="white"/>
<path fill-rule="evenodd" clip-rule="evenodd" d="M11.5088 11.7285C11.2035 12.0263 11 12.5225 11 13.1181V35.0531C11 35.6486 11.2035 36.1449 11.5088 36.4426L11.6106 36.5419L24.2294 24.2345V24.1352V24.0359L11.5088 11.7285Z" fill="url(#paint0_linear)"/>
<path fill-rule="evenodd" clip-rule="evenodd" d="M28.4018 28.4033L24.2295 24.334V24.1354V24.0362L28.4018 19.9668L28.5036 20.0661L33.49 22.8451C34.9147 23.6392 34.9147 24.9295 33.49 25.7235L28.4018 28.4033Z" fill="url(#paint1_linear)"/>
<path fill-rule="evenodd" clip-rule="evenodd" d="M28.5024 28.3034L24.2283 24.1348L11.5078 36.5414C12.0166 37.0377 12.729 37.0377 13.6449 36.6407L28.5024 28.3034Z" fill="url(#paint2_linear)"/>
<path fill-rule="evenodd" clip-rule="evenodd" d="M28.5024 19.9667L13.6449 11.7286C12.729 11.2323 12.0166 11.3316 11.5078 11.8279L24.2283 24.1353L28.5024 19.9667Z" fill="url(#paint3_linear)"/>
<path opacity="0.12" fill-rule="evenodd" clip-rule="evenodd" d="M33.4886 25.4251L28.4004 28.2042L28.5022 28.3034L33.4886 25.5243C34.201 25.1273 34.5062 24.631 34.5062 24.1348C34.5062 24.631 34.0992 25.028 33.4886 25.4251Z" fill="black"/>
<path opacity="0.25" fill-rule="evenodd" clip-rule="evenodd" d="M13.6447 11.8276L33.4887 22.8447C34.0993 23.2418 34.5064 23.6388 34.5064 24.135C34.5064 23.6388 34.2011 23.1425 33.4887 22.7455L13.6447 11.7284C12.22 10.9343 11.1006 11.6291 11.1006 13.2172V13.3164C11.1006 11.7284 12.22 11.0336 13.6447 11.8276Z" fill="white"/>
<defs>
<linearGradient id="paint0_linear" x1="23.1096" y1="12.9292" x2="2.96174" y2="18.515" gradientUnits="userSpaceOnUse">
<stop stop-color="#00A0FF"/>
<stop offset="0.00657445" stop-color="#00A1FF"/>
<stop offset="0.2601" stop-color="#00BEFF"/>
<stop offset="0.5122" stop-color="#00D2FF"/>
<stop offset="0.7604" stop-color="#00DFFF"/>
<stop offset="1" stop-color="#00E3FF"/>
</linearGradient>
<linearGradient id="paint1_linear" x1="35.3568" y1="24.1368" x2="10.733" y2="24.1368" gradientUnits="userSpaceOnUse">
<stop stop-color="#FFE000"/>
<stop offset="0.4087" stop-color="#FFBD00"/>
<stop offset="0.7754" stop-color="#FFA500"/>
<stop offset="1" stop-color="#FF9C00"/>
</linearGradient>
<linearGradient id="paint2_linear" x1="26.1893" y1="26.4137" x2="10.5343" y2="53.3619" gradientUnits="userSpaceOnUse">
<stop stop-color="#FF3A44"/>
<stop offset="1" stop-color="#C31162"/>
</linearGradient>
<linearGradient id="paint3_linear" x1="8.35037" y1="4.45949" x2="15.2846" y2="16.5074" gradientUnits="userSpaceOnUse">
<stop stop-color="#32A071"/>
<stop offset="0.0685" stop-color="#2DA771"/>
<stop offset="0.4762" stop-color="#15CF74"/>
<stop offset="0.8009" stop-color="#06E775"/>
<stop offset="1" stop-color="#00F076"/>
</linearGradient>
</defs>
</svg>
