<svg width="99" height="23" viewBox="0 0 99 23" fill="none" xmlns="http://www.w3.org/2000/svg">
<rect width="99.0009" height="23.0001" fill="black" fill-opacity="0"/>
<rect width="99.0009" height="23.0001" fill="black" fill-opacity="0"/>
<rect width="99.0009" height="23.0001" fill="black" fill-opacity="0"/>
<rect width="87.8888" height="23.0001" fill="black" fill-opacity="0" transform="translate(11.1113)"/>
<path fill-rule="evenodd" clip-rule="evenodd" d="M32.0574 2.92803C32.0574 3.63378 31.8447 4.19636 31.4204 4.61493C30.9388 5.1135 30.3112 5.36278 29.5385 5.36278C28.799 5.36278 28.1706 5.11013 27.6531 4.60398C27.1357 4.09867 26.877 3.47124 26.877 2.72338C26.877 1.97468 27.1357 1.3481 27.6531 0.842791C28.1706 0.336639 28.799 0.0839844 29.5385 0.0839844C29.9056 0.0839844 30.2566 0.154728 30.5904 0.295372C30.9234 0.436859 31.1915 0.624665 31.3913 0.860476L30.9414 1.30431C30.6015 0.905112 30.1353 0.705515 29.5385 0.705515C28.9988 0.705515 28.5335 0.891637 28.1398 1.26641C27.7462 1.64034 27.5489 2.12628 27.5489 2.72338C27.5489 3.32049 27.7462 3.80643 28.1398 4.18036C28.5335 4.55513 28.9988 4.74125 29.5385 4.74125C30.1105 4.74125 30.5879 4.55345 30.9695 4.17783C31.2172 3.93276 31.3606 3.59167 31.399 3.15374H29.5385V2.54737H32.0215C32.0454 2.67875 32.0574 2.80592 32.0574 2.92803Z" fill="white"/>
<path fill-rule="evenodd" clip-rule="evenodd" d="M32.0568 2.92827H31.9714C31.9706 3.61802 31.7665 4.15365 31.3601 4.55537L31.3592 4.55621L31.3583 4.55705C30.8921 5.03794 30.2919 5.27796 29.5379 5.2788C28.8181 5.27796 28.2161 5.03541 27.7132 4.54442C27.2111 4.05343 26.9626 3.45295 26.9618 2.72362C26.9626 1.99429 27.2111 1.39381 27.7132 0.902821C28.2161 0.411829 28.8181 0.169281 29.5379 0.168438C29.894 0.168438 30.233 0.236655 30.5557 0.373089C30.8793 0.510364 31.1355 0.690592 31.3259 0.914612L31.3908 0.860712L31.3302 0.800917L30.8802 1.24559L30.9408 1.30454L31.0057 1.25064C30.6513 0.831236 30.1527 0.619848 29.5379 0.621533C28.9786 0.62069 28.4868 0.817761 28.0795 1.20601C27.6688 1.5951 27.4622 2.10798 27.463 2.72362C27.4622 3.33925 27.6688 3.85214 28.0795 4.24123C28.4868 4.62948 28.9786 4.82655 29.5379 4.82655C30.1288 4.82739 30.6326 4.62948 31.0296 4.23702C31.2943 3.9751 31.4446 3.61296 31.4839 3.16155L31.4915 3.06976H29.6233V2.63098H32.0209V2.5476L31.9364 2.56192C31.9595 2.68993 31.9714 2.81121 31.9714 2.92827H32.1422C32.1422 2.80026 32.1294 2.66888 32.1046 2.53244L32.0918 2.46339H29.4525V3.23819H31.3985V3.15397L31.3131 3.14724C31.2755 3.57086 31.1389 3.89004 30.9084 4.11827C30.5412 4.47873 30.0912 4.65727 29.5379 4.65811C29.0188 4.65727 28.5782 4.48041 28.1982 4.1208C27.8216 3.76119 27.6346 3.30304 27.6338 2.72362C27.6346 2.1442 27.8216 1.68605 28.1982 1.32644C28.5782 0.966827 29.0188 0.789969 29.5379 0.789969C30.116 0.790811 30.5514 0.97946 30.8751 1.35928L30.9348 1.42919L31.4514 0.919665L31.5069 0.865765L31.4565 0.80597C31.2465 0.559211 30.9664 0.363825 30.6232 0.218127C30.2791 0.0732719 29.9162 2.00798e-06 29.5379 2.00798e-06C28.7788 -0.000840174 28.1239 0.261921 27.5928 0.783232C27.0591 1.30286 26.7902 1.95639 26.791 2.72362C26.7902 3.49085 27.0591 4.14438 27.5928 4.66485C28.1239 5.18532 28.7788 5.44808 29.5379 5.44724C30.3286 5.44808 30.9844 5.18869 31.4822 4.67327L31.4198 4.61516L31.4805 4.67496C31.9228 4.23871 32.1422 3.65002 32.1422 2.92827H32.0568Z" fill="white"/>
<path fill-rule="evenodd" clip-rule="evenodd" d="M35.993 0.817954H33.6594V2.42063H35.7634V3.027H33.6594V4.62967H35.993V5.25036H33.002V0.197266H35.993V0.817954Z" fill="white"/>
<path fill-rule="evenodd" clip-rule="evenodd" d="M35.9925 0.818188V0.73397H33.5735V2.50508H35.6774V2.94301H33.5735V4.71412H35.9071V5.16637H33.0868V0.281718H35.9071V0.818188H35.9925V0.73397V0.818188H36.0779V0.113281H32.916V5.33481H36.0779V4.54569H33.7443V3.11145H35.8482V2.33664H33.7443V0.902406H36.0779V0.818188H35.9925Z" fill="white"/>
<path fill-rule="evenodd" clip-rule="evenodd" d="M38.7691 5.25036H38.1099V0.817954H36.6797V0.197266H40.2002V0.817954H38.7691V5.25036Z" fill="white"/>
<path fill-rule="evenodd" clip-rule="evenodd" d="M38.7694 5.25059V5.16637H38.1956V0.73397H36.7645V0.281718H40.1151V0.73397H38.684V5.25059H38.7694V5.16637V5.25059H38.8548V0.902406H40.2859V0.113281H36.5938V0.902406H38.0248V5.33481H38.8548V5.25059H38.7694Z" fill="white"/>
<path fill-rule="evenodd" clip-rule="evenodd" d="M42.748 5.25036H43.4064V0.197266H42.748V5.25036Z" fill="white"/>
<path fill-rule="evenodd" clip-rule="evenodd" d="M42.7475 5.25059H42.8329V0.281718H43.3196V5.16637H42.7475V5.25059H42.8329H42.7475V5.33481H43.4912V0.113281H42.6621V5.33481H42.7475V5.25059Z" fill="white"/>
<path fill-rule="evenodd" clip-rule="evenodd" d="M46.3257 5.25036H45.6674V0.817954H44.2363V0.197266H47.7568V0.817954H46.3257V5.25036Z" fill="white"/>
<path fill-rule="evenodd" clip-rule="evenodd" d="M46.3252 5.25059V5.16637H45.7522V0.73397H44.3212V0.281718H47.6709V0.73397H46.2398V5.25059H46.3252V5.16637V5.25059H46.4106V0.902406H47.8417V0.113281H44.1504V0.902406H45.5815V5.33481H46.4106V5.25059H46.3252Z" fill="white"/>
<path fill-rule="evenodd" clip-rule="evenodd" d="M51.1508 4.17362C51.5308 4.5526 51.9944 4.74125 52.5426 4.74125C53.0917 4.74125 53.5562 4.5526 53.9344 4.17362C54.3135 3.79464 54.504 3.31123 54.504 2.72338C54.504 2.13554 54.3135 1.65213 53.9344 1.27315C53.5562 0.894164 53.0917 0.705515 52.5426 0.705515C51.9944 0.705515 51.5308 0.894164 51.1508 1.27315C50.7726 1.65213 50.5821 2.13554 50.5821 2.72338C50.5821 3.31123 50.7726 3.79464 51.1508 4.17362ZM54.4211 4.59724C53.9182 5.1076 53.2915 5.36278 52.5426 5.36278C51.7938 5.36278 51.1679 5.1076 50.665 4.59724C50.1612 4.08688 49.9102 3.46198 49.9102 2.72338C49.9102 1.98479 50.1612 1.35989 50.665 0.849528C51.1679 0.339166 51.7938 0.0839844 52.5426 0.0839844C53.2872 0.0839844 53.9122 0.340008 54.4177 0.852897C54.9232 1.36579 55.1759 1.989 55.1759 2.72338C55.1759 3.46198 54.9241 4.08688 54.4211 4.59724Z" fill="white"/>
<path fill-rule="evenodd" clip-rule="evenodd" d="M51.1483 4.17386L51.0877 4.23281C51.4813 4.62695 51.9714 4.82739 52.5401 4.82655C53.1088 4.82739 53.5998 4.62695 53.9925 4.23281C54.3887 3.83951 54.5877 3.32915 54.5868 2.72362C54.5877 2.11809 54.3887 1.60857 53.9925 1.21443C53.5998 0.820288 53.1088 0.62069 52.5401 0.621532C51.9714 0.62069 51.4813 0.820288 51.0877 1.21443C50.6932 1.60857 50.4934 2.11809 50.4943 2.72362C50.4934 3.32915 50.6932 3.83951 51.0877 4.23281L51.2098 4.1149C50.8469 3.75192 50.6659 3.29378 50.665 2.72362C50.6659 2.15346 50.8469 1.69531 51.2098 1.33233H51.2089C51.5753 0.968512 52.0116 0.790811 52.5401 0.789969C53.0695 0.790811 53.5067 0.968512 53.8713 1.33233C54.2342 1.69616 54.4152 2.15346 54.4161 2.72362C54.4152 3.29378 54.2342 3.75108 53.8713 4.1149C53.5067 4.47873 53.0695 4.65727 52.5401 4.65811C52.0116 4.65643 51.5753 4.47873 51.2089 4.1149L51.1483 4.17386ZM54.4186 4.59748L54.358 4.53852C53.8687 5.03373 53.2693 5.27796 52.5401 5.2788C51.8109 5.27796 51.2124 5.03373 50.724 4.53852L50.7214 4.536L50.724 4.53852C50.2355 4.04248 49.9939 3.44369 49.993 2.72362C49.9939 2.00355 50.2355 1.40476 50.724 0.908717C51.2124 0.413513 51.8109 0.169281 52.5401 0.168438C53.2651 0.169281 53.8619 0.415198 54.3546 0.912085C54.8447 1.41066 55.0872 2.00861 55.0881 2.72362C55.0872 3.44369 54.8456 4.04248 54.358 4.53852L54.4801 4.65559C54.9984 4.13175 55.2597 3.48074 55.2588 2.72362C55.2597 1.97071 54.9967 1.32139 54.4767 0.795022C53.9567 0.266132 53.3043 -0.0008402 52.5401 1.98252e-06C51.7716 -0.0008402 51.1184 0.265289 50.601 0.791653C50.0827 1.31633 49.8214 1.9665 49.8223 2.72362C49.8214 3.48074 50.0827 4.13175 50.601 4.65559L50.6036 4.65811L50.601 4.65559C51.1184 5.18279 51.7716 5.44808 52.5401 5.44724C53.3086 5.44808 53.9627 5.18279 54.4801 4.65559L54.4186 4.59748Z" fill="white"/>
<path fill-rule="evenodd" clip-rule="evenodd" d="M56.0977 5.25036V0.197266H56.8994L59.3893 4.12773H59.4175L59.3893 3.15417V0.197266H60.0476V5.25036H59.3603L56.756 1.12872H56.727L56.756 2.10312V5.25036H56.0977Z" fill="white"/>
<path fill-rule="evenodd" clip-rule="evenodd" d="M56.0991 5.25059H56.1844V0.281718H56.853L59.3429 4.21302H59.5068L59.4761 3.15356V0.281718H59.9637V5.16637H59.4095L56.8044 1.04473H56.6413L56.672 2.1042V5.16637H56.0991V5.25059H56.1844H56.0991V5.33481H56.8428V2.10167L56.8137 1.12727L56.7284 1.12895V1.21317H56.7574V1.12895L56.6848 1.17359L59.3147 5.33481H60.1344V0.113281H59.3053V3.15609L59.3335 4.13049L59.4189 4.12796V4.04459H59.3907V4.12796L59.4633 4.08417L56.9478 0.113281H56.0137V5.33481H56.0991V5.25059Z" fill="white"/>
<path fill-rule="evenodd" clip-rule="evenodd" d="M82.8779 19.567H84.4712V9.03887H82.8779V19.567ZM97.2289 12.8312L95.4024 17.3958H95.3478L93.4522 12.8312H91.7359L94.5785 19.2107L92.9578 22.7597H94.6203L99.0006 12.8312H97.2289ZM88.1932 18.3711C87.6707 18.3711 86.9432 18.1142 86.9432 17.4775C86.9432 16.6648 87.85 16.3532 88.6321 16.3532C89.3331 16.3532 89.6619 16.5023 90.088 16.7053C89.9642 17.6805 89.1129 18.3711 88.1932 18.3711ZM88.3854 12.6013C87.2318 12.6013 86.0372 13.1024 85.5428 14.2132L86.9568 14.7952C87.2591 14.2132 87.8218 14.0229 88.4127 14.0229C89.2367 14.0229 90.0743 14.5105 90.088 15.378V15.4858C89.7994 15.3232 89.182 15.0798 88.4263 15.0798C86.9022 15.0798 85.3499 15.906 85.3499 17.4497C85.3499 18.8587 86.5999 19.7666 88.0003 19.7666C89.0719 19.7666 89.6619 19.2924 90.0333 18.7366H90.088V19.5493H91.6258V15.5136C91.6258 13.6439 90.2118 12.6013 88.3854 12.6013ZM78.5386 14.113H76.2724V10.5043H78.5386C79.7297 10.5043 80.406 11.477 80.406 12.3082C80.406 13.1243 79.7297 14.113 78.5386 14.113ZM78.4976 9.03887H74.68V19.567H76.2724V15.5784H78.4976C80.2634 15.5784 81.9993 14.3168 81.9993 12.3082C81.9993 10.2996 80.2634 9.03887 78.4976 9.03887ZM57.6795 18.3728C56.5789 18.3728 55.6575 17.4641 55.6575 16.2159C55.6575 14.9544 56.5789 14.0313 57.6795 14.0313C58.7665 14.0313 59.6186 14.9544 59.6186 16.2159C59.6186 17.4641 58.7665 18.3728 57.6795 18.3728ZM59.5085 13.4207H59.4538C59.0961 13.0005 58.4087 12.6207 57.542 12.6207C55.7258 12.6207 54.0617 14.1939 54.0617 16.2159C54.0617 18.2237 55.7258 19.7843 57.542 19.7843C58.4087 19.7843 59.0961 19.4044 59.4538 18.9699H59.5085V19.4853C59.5085 20.8564 58.7665 21.5891 57.5693 21.5891C56.5925 21.5891 55.9871 20.8968 55.7395 20.3132L54.3503 20.8833C54.749 21.8333 55.8087 22.9997 57.5693 22.9997C59.4402 22.9997 61.0224 21.9142 61.0224 19.2689V12.8371H59.5085V13.4207ZM62.123 19.567H63.7189V9.03803H62.123V19.567ZM66.0704 16.0938C66.0294 14.7101 67.1574 14.0044 67.9686 14.0044C68.6021 14.0044 69.1384 14.316 69.3168 14.764L66.0704 16.0938ZM71.0229 14.8996C70.7206 14.0995 69.7984 12.6207 67.9139 12.6207C66.0431 12.6207 64.4891 14.0718 64.4891 16.2025C64.4891 18.2102 66.0294 19.7843 68.0924 19.7843C69.7574 19.7843 70.7206 18.7804 71.1193 18.1968L69.8812 17.3824C69.4688 17.9795 68.9044 18.3728 68.0924 18.3728C67.2812 18.3728 66.7031 18.0064 66.3317 17.288L71.1876 15.3072L71.0229 14.8996ZM32.3359 13.7197V15.239H36.022C35.9119 16.0938 35.6233 16.7179 35.1835 17.1525C34.6465 17.6813 33.8071 18.2641 32.3359 18.2641C30.0663 18.2641 28.2911 16.4602 28.2911 14.2217C28.2911 11.9823 30.0663 10.1783 32.3359 10.1783C33.5603 10.1783 34.4543 10.6533 35.1144 11.2639L36.2013 10.1918C35.2792 9.32353 34.0556 8.6582 32.3359 8.6582C29.227 8.6582 26.6133 11.1553 26.6133 14.2217C26.6133 17.288 29.227 19.7843 32.3359 19.7843C34.0137 19.7843 35.2792 19.2419 36.2697 18.2237C37.2875 17.2198 37.6042 15.8092 37.6042 14.6689C37.6042 14.316 37.5769 13.9909 37.5214 13.7197H32.3359ZM41.7959 18.3728C40.6952 18.3728 39.7457 17.4775 39.7457 16.2025C39.7457 14.9131 40.6952 14.0313 41.7959 14.0313C42.8956 14.0313 43.8451 14.9131 43.8451 16.2025C43.8451 17.4775 42.8956 18.3728 41.7959 18.3728ZM41.7959 12.6207C39.7867 12.6207 38.1499 14.1265 38.1499 16.2025C38.1499 18.2641 39.7867 19.7843 41.7959 19.7843C43.8042 19.7843 45.441 18.2641 45.441 16.2025C45.441 14.1265 43.8042 12.6207 41.7959 12.6207ZM49.7479 18.3728C48.6473 18.3728 47.6978 17.4775 47.6978 16.2025C47.6978 14.9131 48.6473 14.0313 49.7479 14.0313C50.8486 14.0313 51.7972 14.9131 51.7972 16.2025C51.7972 17.4775 50.8486 18.3728 49.7479 18.3728ZM49.7479 12.6207C47.7396 12.6207 46.1028 14.1265 46.1028 16.2025C46.1028 18.2641 47.7396 19.7843 49.7479 19.7843C51.7562 19.7843 53.3931 18.2641 53.3931 16.2025C53.3931 14.1265 51.7562 12.6207 49.7479 12.6207Z" fill="white"/>
<rect width="19.934" height="21.747" fill="black" fill-opacity="0" transform="translate(0 0.339844)"/>
<path fill-rule="evenodd" clip-rule="evenodd" d="M0.430545 0.621094C0.172218 0.874743 -8.8161e-09 1.29749 -8.8161e-09 1.80479V20.4903C-8.8161e-09 20.9976 0.172218 21.4203 0.430545 21.674L0.516654 21.7585L11.1942 11.2744V11.1898V11.1053L0.430545 0.621094Z" fill="url(#paint0_linear)"/>
<path fill-rule="evenodd" clip-rule="evenodd" d="M14.7238 14.8254L11.1934 11.3589V11.1898V11.1052L14.7238 7.63867L14.8099 7.72322L19.0293 10.0906C20.2348 10.767 20.2348 11.8662 19.0293 12.5426L14.7238 14.8254Z" fill="url(#paint1_linear)"/>
<path fill-rule="evenodd" clip-rule="evenodd" d="M14.8099 14.7405L11.1933 11.1895L0.429688 21.7582C0.860233 22.1809 1.463 22.1809 2.23798 21.8427L14.8099 14.7405Z" fill="url(#paint2_linear)"/>
<path fill-rule="evenodd" clip-rule="evenodd" d="M14.8099 7.63931L2.23798 0.621686C1.463 0.198938 0.860233 0.283487 0.429688 0.706236L11.1933 11.1904L14.8099 7.63931Z" fill="url(#paint3_linear)"/>
<path opacity="0.12" fill-rule="evenodd" clip-rule="evenodd" d="M19.0301 12.2886L14.7246 14.656L14.8107 14.7405L19.0301 12.3731C19.6328 12.035 19.8912 11.6122 19.8912 11.1895C19.8912 11.6122 19.5467 11.9504 19.0301 12.2886Z" fill="black"/>
<path opacity="0.25" fill-rule="evenodd" clip-rule="evenodd" d="M2.23866 0.705436L19.0299 10.0905C19.5466 10.4287 19.891 10.7669 19.891 11.1896C19.891 10.7669 19.6327 10.3441 19.0299 10.0059L2.23866 0.620886C1.03314 -0.0555115 0.0859375 0.536337 0.0859375 1.88913V1.97368C0.0859375 0.620886 1.03314 0.0290382 2.23866 0.705436Z" fill="white"/>
<defs>
<linearGradient id="paint0_linear" x1="10.2467" y1="1.64389" x2="-6.8179" y2="6.34326" gradientUnits="userSpaceOnUse">
<stop stop-color="#00A0FF"/>
<stop offset="0.00657445" stop-color="#00A1FF"/>
<stop offset="0.2601" stop-color="#00BEFF"/>
<stop offset="0.5122" stop-color="#00D2FF"/>
<stop offset="0.7604" stop-color="#00DFFF"/>
<stop offset="1" stop-color="#00E3FF"/>
</linearGradient>
<linearGradient id="paint1_linear" x1="20.6089" y1="11.1909" x2="-0.226853" y2="11.1909" gradientUnits="userSpaceOnUse">
<stop stop-color="#FFE000"/>
<stop offset="0.4087" stop-color="#FFBD00"/>
<stop offset="0.7754" stop-color="#FFA500"/>
<stop offset="1" stop-color="#FF9C00"/>
</linearGradient>
<linearGradient id="paint2_linear" x1="12.8526" y1="13.1308" x2="-0.527371" y2="36.0088" gradientUnits="userSpaceOnUse">
<stop stop-color="#FF3A44"/>
<stop offset="1" stop-color="#C31162"/>
</linearGradient>
<linearGradient id="paint3_linear" x1="-2.24202" y1="-5.57057" x2="3.68482" y2="4.65816" gradientUnits="userSpaceOnUse">
<stop stop-color="#32A071"/>
<stop offset="0.0685" stop-color="#2DA771"/>
<stop offset="0.4762" stop-color="#15CF74"/>
<stop offset="0.8009" stop-color="#06E775"/>
<stop offset="1" stop-color="#00F076"/>
</linearGradient>
</defs>
</svg>
