<svg width="18" height="18" viewBox="0 0 18 18" fill="none" xmlns="http://www.w3.org/2000/svg">
<path d="M17.1976 7.26175C16.8591 7.21105 16.5116 7.16243 16.1647 7.11722C16.1227 7.11177 16.0886 7.08326 16.078 7.04466C15.9179 6.46377 15.6857 5.90324 15.3877 5.37864C15.3676 5.34341 15.3714 5.29897 15.3973 5.26533C15.6106 4.98812 15.822 4.70789 16.0257 4.43247C16.3008 4.06059 16.2609 3.53289 15.9329 3.20492L14.795 2.06705C14.4671 1.73911 13.9394 1.69918 13.5675 1.97431C13.2926 2.17758 13.0124 2.38901 12.7346 2.60273C12.7011 2.6286 12.6566 2.63236 12.6213 2.61236C12.0968 2.31438 11.5362 2.0821 10.9553 1.922C10.9167 1.91141 10.8882 1.87731 10.8827 1.83519C10.8374 1.48785 10.7888 1.14037 10.7382 0.802443C10.6698 0.344954 10.2684 0 9.80461 0H8.1954C7.73154 0 7.3302 0.344954 7.26185 0.802408C7.21126 1.1404 7.16268 1.48785 7.11736 1.83527C7.11184 1.87735 7.08337 1.91138 7.04469 1.922C6.46377 2.08217 5.9032 2.31441 5.37874 2.61236C5.34348 2.63236 5.29897 2.6285 5.26536 2.60273C4.98759 2.38901 4.70736 2.17758 4.43251 1.97427C4.06052 1.69918 3.53286 1.73918 3.20496 2.06709L2.06709 3.20496C1.73911 3.53296 1.69921 4.0607 1.97434 4.43254C2.17839 4.70838 2.38982 4.98854 2.60276 5.26533C2.6286 5.2989 2.6324 5.34337 2.6124 5.37864C2.31434 5.90334 2.0821 6.46388 1.92203 7.04466C1.91145 7.08322 1.87735 7.11174 1.8353 7.11726C1.48866 7.1625 1.14117 7.21109 0.802478 7.26178C0.344954 7.33016 0 7.73158 0 8.19536V9.8046C0 10.2684 0.344954 10.6698 0.802408 10.7382C1.1411 10.7889 1.48862 10.8375 1.83527 10.8827C1.87735 10.8882 1.91138 10.9167 1.922 10.9553C2.08206 11.5362 2.31434 12.0967 2.61236 12.6214C2.63236 12.6566 2.62857 12.7011 2.60273 12.7347C2.38926 13.0121 2.17783 13.2923 1.97431 13.5675C1.69921 13.9394 1.73908 14.4671 2.06705 14.7951L3.20492 15.9329C3.53293 16.2609 4.06066 16.3009 4.43251 16.0257C4.70733 15.8224 4.98752 15.611 5.26533 15.3973C5.2989 15.3714 5.34341 15.3677 5.37864 15.3876C5.90317 15.6856 6.46367 15.9178 7.04466 16.078C7.0833 16.0886 7.11181 16.1227 7.11729 16.1647C7.16261 16.5121 7.21123 16.8596 7.26178 17.1975C7.3302 17.655 7.73154 17.9999 8.1954 17.9999H9.80461C10.2684 17.9999 10.6698 17.655 10.7382 17.1974C10.7888 16.8591 10.8374 16.5116 10.8826 16.1647C10.8882 16.1226 10.9166 16.0885 10.9553 16.0779C11.5362 15.9177 12.0968 15.6854 12.6213 15.3875C12.6565 15.3676 12.701 15.3714 12.7346 15.3971C13.0124 15.6108 13.2926 15.8223 13.5674 16.0256C13.9393 16.3006 14.467 16.2608 14.795 15.9328L15.9329 14.7949C16.2608 14.467 16.3008 13.9393 16.0257 13.5674C15.8219 13.292 15.6105 13.0118 15.3972 12.7345C15.3714 12.701 15.3676 12.6565 15.3876 12.6212C15.6856 12.0965 15.9179 11.536 16.0779 10.9552C16.0886 10.9166 16.1227 10.8881 16.1647 10.8826C16.5115 10.8374 16.859 10.7887 17.1976 10.7381C17.655 10.6697 18 10.2683 18 9.8045V8.19525C18 7.73154 17.655 7.33013 17.1976 7.26175ZM17.1595 9.80468C17.1595 9.85565 17.1224 9.8996 17.0732 9.90702C16.7399 9.9569 16.3977 10.0047 16.0561 10.0493C15.6779 10.0986 15.3684 10.3666 15.2677 10.7321C15.126 11.246 14.9205 11.742 14.6568 12.2062C14.4694 12.5363 14.4985 12.9449 14.7311 13.2473C14.9412 13.5204 15.1494 13.7963 15.35 14.0674C15.3796 14.1074 15.3747 14.1648 15.3386 14.2008L14.2007 15.3387C14.1647 15.3748 14.1073 15.3796 14.0674 15.3501C13.7968 15.1499 13.5208 14.9416 13.2472 14.7312C12.9449 14.4985 12.5363 14.4694 12.2062 14.6568C11.742 14.9205 11.246 15.1261 10.732 15.2678C10.3666 15.3685 10.0986 15.6779 10.0492 16.0562C10.0047 16.398 9.9568 16.7402 9.90695 17.0733C9.8996 17.1225 9.85558 17.1596 9.80461 17.1596H8.1954C8.14442 17.1596 8.1004 17.1225 8.09305 17.0733C8.04331 16.7405 7.99539 16.3983 7.95078 16.0562C7.90145 15.678 7.63342 15.3685 7.26801 15.2678C6.75399 15.1261 6.25797 14.9206 5.79376 14.6568C5.64902 14.5747 5.48917 14.5341 5.32984 14.5341C5.12579 14.5341 4.92255 14.6006 4.75285 14.7312C4.47923 14.9417 4.20325 15.1499 3.93266 15.3502C3.89265 15.3797 3.83538 15.3748 3.79934 15.3388L2.66144 14.2009C2.62537 14.1648 2.62045 14.1075 2.65005 14.0676C2.85047 13.7966 3.05867 13.5207 3.26894 13.2474C3.5015 12.945 3.53068 12.5365 3.34326 12.2064C3.07948 11.742 2.87399 11.246 2.73235 10.7322C2.63163 10.3668 2.32218 10.0988 1.94397 10.0494C1.60253 10.0049 1.26028 9.95697 0.926756 9.90712C0.877572 9.89974 0.840517 9.85576 0.840517 9.80478V8.19554C0.840517 8.14456 0.877572 8.10058 0.926756 8.09319C1.26028 8.04331 1.6025 7.99543 1.9439 7.95088C2.32215 7.90159 2.63159 7.6336 2.73231 7.26815C2.87389 6.7543 3.07945 6.25828 3.34323 5.7939C3.53068 5.46382 3.5015 5.05523 3.26894 4.75296C3.05923 4.48029 2.851 4.20438 2.65005 3.93276C2.62052 3.89279 2.6254 3.83541 2.66144 3.79941L3.79927 2.66151C3.83527 2.62544 3.89261 2.62062 3.93259 2.65012C4.20318 2.8503 4.47916 3.05853 4.75278 3.26905C5.05513 3.50157 5.46368 3.53078 5.7938 3.3433C6.25797 3.07962 6.75399 2.87406 7.26797 2.73238C7.63342 2.63166 7.90145 2.32222 7.95078 1.94397C7.99543 1.60186 8.04327 1.25965 8.09309 0.926791C8.10044 0.877677 8.14445 0.840588 8.19543 0.840588H9.80464C9.85562 0.840588 9.89963 0.877642 9.90698 0.926826C9.9568 1.25958 10.0046 1.60176 10.0493 1.94397C10.0986 2.32222 10.3666 2.63166 10.7321 2.73238C11.246 2.87406 11.742 3.07962 12.2063 3.3433C12.5364 3.53068 12.9449 3.50157 13.2472 3.26898C13.5208 3.05849 13.7968 2.85026 14.0674 2.65008C14.1074 2.62048 14.1647 2.62537 14.2008 2.66147L15.3386 3.79934C15.3747 3.83541 15.3796 3.89275 15.35 3.93269C15.1495 4.20389 14.9412 4.47979 14.7311 4.75289C14.4986 5.05527 14.4694 5.46385 14.6569 5.79394C14.9206 6.25818 15.1261 6.75416 15.2678 7.26815C15.3685 7.63356 15.678 7.90152 16.0561 7.95081C16.3977 7.99539 16.74 8.04327 17.0734 8.09312C17.1225 8.10051 17.1596 8.14449 17.1596 8.19547V9.80468H17.1595Z" fill="white"/>
<path d="M8.99984 5.08984C6.84546 5.08984 5.09277 6.84253 5.09277 8.99691C5.09277 11.1513 6.84546 12.904 8.99984 12.904C11.1542 12.904 12.9069 11.1513 12.9069 8.99691C12.9069 6.84253 11.1542 5.08984 8.99984 5.08984ZM8.99984 12.0634C7.30892 12.0634 5.93333 10.6878 5.93333 8.99691C5.93333 7.30599 7.30899 5.9304 8.99984 5.9304C10.6907 5.9304 12.0663 7.30603 12.0663 8.99691C12.0663 10.6878 10.6907 12.0634 8.99984 12.0634Z" fill="white"/>
</svg>
