<svg width="22" height="25" viewBox="0 0 22 25" fill="none" xmlns="http://www.w3.org/2000/svg">
<path d="M17.3949 10.3999C14.2594 3.47033 12.6297 0.838884 7.50618 0.947622C5.68155 0.986315 6.1199 -0.40948 4.72867 0.120086C3.33854 0.649935 4.53149 1.42494 3.10919 2.62331C-0.881898 5.98768 -0.513947 9.1004 1.33681 16.5188C2.11726 19.6431 -0.543098 19.7965 0.509606 22.8256C1.27768 25.034 6.9427 25.9587 12.9196 23.6808C18.8964 21.4036 22.6692 16.8826 21.9011 14.6743C20.8481 11.6451 18.7163 13.3174 17.3949 10.3999ZM12.2708 21.8148C6.93308 23.8489 2.54599 22.6522 2.36064 22.1207C2.04109 21.2033 4.08379 18.1437 10.1863 15.8178C16.2894 13.4923 19.6948 14.3545 20.0509 15.3792C20.2615 15.9842 17.6092 19.7807 12.2708 21.8148ZM10.5554 16.8795C7.76468 17.9432 5.8251 19.1596 4.57027 20.2549C5.4533 21.079 7.10853 21.2801 8.75853 20.6514C10.8587 19.8513 12.1482 18.0143 11.6381 16.5488C11.6323 16.531 11.6229 16.5152 11.6166 16.4977C11.2723 16.6146 10.9189 16.7411 10.5554 16.8795Z" fill="white"/>
</svg>
