<svg width="14" height="12" viewBox="0 0 14 12" fill="none" xmlns="http://www.w3.org/2000/svg">
<rect width="14" height="11.2243" fill="black" fill-opacity="0"/>
<rect width="10.9681" height="9.63885" fill="black" fill-opacity="0"/>
<rect width="10.9681" height="9.63885" fill="black" fill-opacity="0"/>
<path d="M10.1798 0H0.788349C0.353637 0 0 0.353637 0 0.788322V6.42268C0 6.85736 0.353637 7.21103 0.788349 7.21103H1.39732V9.30857C1.39732 9.44212 1.47777 9.56257 1.6012 9.6137C1.64205 9.63065 1.68498 9.63886 1.72753 9.63886C1.8135 9.63886 1.89793 9.60528 1.96112 9.54211L4.29221 7.21105H4.7599C4.94231 7.21105 5.09016 7.06321 5.09016 6.8808C5.09016 6.69836 4.94226 6.55051 4.7599 6.55051C4.7599 6.55051 4.13947 6.55095 4.13299 6.5516C4.0561 6.55683 3.98063 6.58849 3.92184 6.64725L2.05784 8.51125C2.05784 8.51125 2.05727 6.8599 2.0562 6.85135C2.0413 6.68274 1.89987 6.55051 1.72742 6.55051H0.788349C0.717857 6.55051 0.660544 6.49317 0.660544 6.4227V0.788322C0.660544 0.717829 0.717884 0.660517 0.788349 0.660517H10.1798C10.2503 0.660517 10.3076 0.717857 10.3076 0.788322V2.94999C10.3076 3.1324 10.4555 3.28024 10.6379 3.28024C10.8202 3.28024 10.9681 3.1324 10.9681 2.94999V0.788322C10.9681 0.353637 10.6145 0 10.1798 0Z" fill="white"/>
<rect width="8.15053" height="7.18458" fill="black" fill-opacity="0" transform="translate(5.84961 4.03906)"/>
<rect width="8.15053" height="7.18458" fill="black" fill-opacity="0" transform="translate(5.84961 4.03906)"/>
<path d="M13.2118 4.03906H6.63796C6.20327 4.03906 5.84961 4.3927 5.84961 4.82741V8.67113C5.84961 9.10581 6.20325 9.45948 6.63796 9.45948H10.7536L12.421 11.1269C12.4842 11.1901 12.5687 11.2236 12.6546 11.2236C12.6972 11.2236 12.7401 11.2154 12.7809 11.1985C12.9043 11.1474 12.9848 11.027 12.9848 10.8934V9.45945H13.2118C13.6465 9.45945 14.0001 9.10581 14.0001 8.6711V4.82738C14.0002 4.3927 13.6465 4.03906 13.2118 4.03906ZM13.3397 8.67113C13.3397 8.7416 13.2823 8.79893 13.2118 8.79893H12.6547C12.4809 8.79893 12.3388 8.93325 12.3257 9.10374C12.3249 9.11095 12.3243 10.096 12.3243 10.096L11.1252 8.89688C11.1239 8.89562 11.1226 8.89445 11.1214 8.89319C11.1167 8.8886 11.1122 8.8846 11.108 8.88102C11.0499 8.83005 10.9739 8.79891 10.8906 8.79891H6.63796C6.56747 8.79891 6.51015 8.74157 6.51015 8.6711V4.82738C6.51015 4.75689 6.56749 4.69958 6.63796 4.69958H13.2118C13.2823 4.69958 13.3397 4.75692 13.3397 4.82738V8.67113V8.67113Z" fill="white"/>
<rect width="0.660517" height="0.660517" fill="black" fill-opacity="0" transform="translate(9.59473 6.42383)"/>
<rect width="0.660517" height="0.660517" fill="black" fill-opacity="0" transform="translate(9.59473 6.42383)"/>
<path d="M9.92499 6.42383C9.74268 6.42383 9.59473 6.57179 9.59473 6.75409C9.59473 6.93639 9.74268 7.08435 9.92499 7.08435C10.1073 7.08435 10.2552 6.93639 10.2552 6.75409C10.2552 6.57179 10.1073 6.42383 9.92499 6.42383Z" fill="white"/>
<rect width="6.67129" height="0.660517" fill="black" fill-opacity="0" transform="translate(2.14844 2.18359)"/>
<rect width="6.67129" height="0.660517" fill="black" fill-opacity="0" transform="translate(2.14844 2.18359)"/>
<path d="M8.48947 2.18359H2.4787C2.29631 2.18359 2.14844 2.33144 2.14844 2.51385C2.14844 2.69626 2.29634 2.84411 2.4787 2.84411H8.48947C8.67185 2.84411 8.81972 2.69626 8.81972 2.51385C8.81972 2.33144 8.67185 2.18359 8.48947 2.18359Z" fill="white"/>
<rect width="2.94167" height="0.660517" fill="black" fill-opacity="0" transform="translate(2.14844 4.36719)"/>
<rect width="2.94167" height="0.660517" fill="black" fill-opacity="0" transform="translate(2.14844 4.36719)"/>
<path d="M4.75985 4.36719H2.4787C2.29631 4.36719 2.14844 4.51504 2.14844 4.69745C2.14844 4.87986 2.29634 5.0277 2.4787 5.0277H4.75985C4.94226 5.0277 5.09011 4.87986 5.09011 4.69745C5.09011 4.51504 4.94224 4.36719 4.75985 4.36719Z" fill="white"/>
<rect width="0.660517" height="0.660517" fill="black" fill-opacity="0" transform="translate(8.05957 6.42383)"/>
<rect width="0.660517" height="0.660517" fill="black" fill-opacity="0" transform="translate(8.05957 6.42383)"/>
<path d="M8.38983 6.42383C8.20756 6.42383 8.05957 6.57179 8.05957 6.75409C8.05957 6.93639 8.20756 7.08435 8.38983 7.08435C8.57216 7.08435 8.72009 6.93639 8.72009 6.75409C8.72009 6.57179 8.57216 6.42383 8.38983 6.42383Z" fill="white"/>
<rect width="0.660517" height="0.660517" fill="black" fill-opacity="0" transform="translate(11.1289 6.42383)"/>
<rect width="0.660517" height="0.660517" fill="black" fill-opacity="0" transform="translate(11.1289 6.42383)"/>
<path d="M11.4592 6.42383C11.2769 6.42383 11.1289 6.57179 11.1289 6.75409C11.1289 6.93639 11.2769 7.08435 11.4592 7.08435C11.6415 7.08435 11.7894 6.93639 11.7894 6.75409C11.7894 6.57179 11.6415 6.42383 11.4592 6.42383Z" fill="white"/>
</svg>
