<svg width="30" height="20" viewBox="0 0 30 20" fill="none" xmlns="http://www.w3.org/2000/svg">
<path d="M6.66667 1.66667C6.66667 0.746192 7.41286 0 8.33333 0H28.3333C29.2538 0 30 0.746192 30 1.66667C30 2.58714 29.2538 3.33333 28.3333 3.33333H8.33333C7.41286 3.33333 6.66667 2.58714 6.66667 1.66667Z" fill="white"/>
<path d="M0 1.66667C0 0.746192 0.746192 0 1.66667 0C2.58714 0 3.33333 0.746192 3.33333 1.66667C3.33333 2.58714 2.58714 3.33333 1.66667 3.33333C0.746192 3.33333 0 2.58714 0 1.66667Z" fill="white"/>
<path d="M6.66667 18.3333C6.66667 17.4129 7.41286 16.6667 8.33333 16.6667H28.3333C29.2538 16.6667 30 17.4129 30 18.3333C30 19.2538 29.2538 20 28.3333 20H8.33333C7.41286 20 6.66667 19.2538 6.66667 18.3333Z" fill="white"/>
<path d="M0 18.3333C0 17.4129 0.746192 16.6667 1.66667 16.6667C2.58714 16.6667 3.33333 17.4129 3.33333 18.3333C3.33333 19.2538 2.58714 20 1.66667 20C0.746192 20 0 19.2538 0 18.3333Z" fill="white"/>
<path d="M6.66667 10C6.66667 9.07953 7.41286 8.33333 8.33333 8.33333H28.3333C29.2538 8.33333 30 9.07953 30 10C30 10.9205 29.2538 11.6667 28.3333 11.6667H8.33333C7.41286 11.6667 6.66667 10.9205 6.66667 10Z" fill="white"/>
<path d="M0 10C0 9.07953 0.746192 8.33333 1.66667 8.33333C2.58714 8.33333 3.33333 9.07953 3.33333 10C3.33333 10.9205 2.58714 11.6667 1.66667 11.6667C0.746192 11.6667 0 10.9205 0 10Z" fill="white"/>
</svg>
