<svg width="32" height="32" viewBox="0 0 32 32" fill="none" xmlns="http://www.w3.org/2000/svg">
<path d="M23.3767 15.1094C22.9597 11.7075 20.2749 9.02936 16.872 8.62105C16.579 8.58761 16.2843 8.57086 15.9894 8.5708C12.982 8.57543 10.2742 10.3929 9.13054 13.1744C7.98692 15.9558 8.63323 19.1524 10.7676 21.2711C11.9026 22.3581 12.5526 23.8559 12.5712 25.4274V26.2857H19.4283V25.4229C19.4334 23.8813 20.0606 22.4069 21.1677 21.3339C22.8398 19.7206 23.6577 17.4158 23.3767 15.1094Z" fill="white"/>
<path d="M16.0001 32.0003C16.7263 31.9995 17.3735 31.5419 17.6165 30.8574H14.3838C14.6267 31.5419 15.2738 31.9995 16.0001 32.0003Z" fill="white"/>
<path d="M13.1426 29.143C13.143 29.4585 13.3986 29.714 13.714 29.7145H18.2854C18.6009 29.714 18.8564 29.4585 18.8569 29.143V27.4287H13.1426V29.143Z" fill="white"/>
<path d="M16.0003 5.14288C16.6315 5.14288 17.1432 4.63119 17.1432 4.00001V1.14288C17.1432 0.511688 16.6315 0 16.0003 0C15.3691 0 14.8574 0.511688 14.8574 1.14288V4.00001C14.8574 4.63119 15.3691 5.14288 16.0003 5.14288Z" fill="white"/>
<path d="M6.35493 7.97126C6.80718 8.40319 7.51905 8.40319 7.9713 7.97126C8.18567 7.75694 8.30611 7.46619 8.30611 7.16307C8.30611 6.85994 8.18567 6.56919 7.9713 6.35488L5.95087 4.33481C5.73662 4.12044 5.44593 4 5.14287 4C4.83981 4 4.54912 4.12044 4.33481 4.33481C4.12044 4.54906 4 4.83975 4 5.14288C4 5.446 4.12044 5.73663 4.33481 5.95094L6.35493 7.97126Z" fill="white"/>
<path d="M5.14286 16.0003C5.14286 15.3691 4.63117 14.8574 3.99999 14.8574H1.14287C0.511936 14.858 0.000624998 15.3694 0 16.0003C0.000624998 16.6312 0.511936 17.1425 1.14287 17.1432H3.99999C4.63117 17.1432 5.14286 16.6315 5.14286 16.0003Z" fill="white"/>
<path d="M7.45968 23.7312C7.06468 23.6256 6.64343 23.739 6.35487 24.0287L4.33481 26.0491C4.12044 26.2634 4 26.554 4 26.8572C4 27.1603 4.12044 27.4509 4.33481 27.6652C4.78694 28.0972 5.49874 28.0972 5.95087 27.6652L7.97124 25.6452C8.26086 25.3566 8.37436 24.9354 8.2688 24.5404C8.16324 24.1454 7.85468 23.8367 7.45968 23.7312Z" fill="white"/>
<path d="M25.645 24.0287C25.3565 23.7391 24.9352 23.6256 24.5402 23.7312C24.1452 23.8367 23.8367 24.1452 23.7312 24.5402C23.6256 24.9352 23.739 25.3565 24.0287 25.645L26.0491 27.6651C26.5012 28.097 27.213 28.097 27.6652 27.6651C27.8795 27.4508 28 27.1602 28 26.857C28 26.5539 27.8795 26.2633 27.6652 26.049L25.645 24.0287Z" fill="white"/>
<path d="M30.8574 14.8574H28.0003C27.3691 14.8574 26.8574 15.3691 26.8574 16.0003C26.8574 16.6315 27.3691 17.1432 28.0003 17.1432H30.8574C31.4886 17.1432 32.0003 16.6315 32.0003 16.0003C32.0003 15.3691 31.4886 14.8574 30.8574 14.8574Z" fill="white"/>
<path d="M25.6446 7.97123L27.6647 5.95085C27.9533 5.66217 28.0661 5.24142 27.9604 4.84704C27.8547 4.45266 27.5467 4.14466 27.1523 4.03898C26.758 3.93329 26.3372 4.04604 26.0485 4.33473L24.0282 6.35479C23.8138 6.5691 23.6934 6.85985 23.6934 7.16298C23.6934 7.46611 23.8138 7.75686 24.0282 7.97117C24.4805 8.40317 25.1924 8.40317 25.6446 7.97123Z" fill="white"/>
<path d="M23.3767 15.1089C22.9597 11.707 20.2749 9.02888 16.872 8.62056C16.579 8.58713 16.2843 8.57038 15.9894 8.57031C12.982 8.57494 10.2742 10.3924 9.13054 13.1739C7.98692 15.9553 8.63323 19.152 10.7676 21.2706C11.9026 22.3576 12.5526 23.8555 12.5712 25.4269V26.2852H19.4283V25.4225C19.4334 23.8808 20.0606 22.4065 21.1677 21.3335C22.8398 19.7201 23.6577 17.4153 23.3767 15.1089Z" fill="white"/>
<path d="M16.0001 31.9998C16.7263 31.999 17.3735 31.5414 17.6165 30.8569H14.3838C14.6267 31.5414 15.2738 31.999 16.0001 31.9998Z" fill="white"/>
<path d="M13.1426 29.1425C13.143 29.458 13.3986 29.7135 13.714 29.714H18.2854C18.6009 29.7135 18.8564 29.458 18.8569 29.1425V27.4282H13.1426V29.1425Z" fill="white"/>
</svg>
