<svg width="16" height="15" viewBox="0 0 16 15" fill="none" xmlns="http://www.w3.org/2000/svg">
<rect width="16" height="14.0499" fill="black" fill-opacity="0"/>
<rect width="16" height="0.756001" fill="black" fill-opacity="0" transform="translate(0 13.293)"/>
<rect width="16" height="0.756001" fill="black" fill-opacity="0" transform="translate(0 13.293)"/>
<path d="M15.622 13.293H0.378C0.169219 13.293 0 13.4622 0 13.671C0 13.8797 0.169219 14.049 0.378 14.049H15.622C15.8307 14.049 16 13.8797 16 13.671C16 13.4622 15.8308 13.293 15.622 13.293Z" fill="white"/>
<rect width="14.0292" height="11.9318" fill="black" fill-opacity="0" transform="translate(0.985352)"/>
<rect width="14.0292" height="11.9318" fill="black" fill-opacity="0" transform="translate(0.985352)"/>
<path d="M14.6366 1.7845H11.982C11.7733 1.7845 11.604 1.95378 11.604 2.1625V4.7325H9.70532V0.378C9.70532 0.169281 9.53604 0 9.32732 0H6.67263C6.46391 0 6.29463 0.169281 6.29463 0.378V7.53056H4.39598V4.31747C4.39598 4.10869 4.2267 3.93947 4.01798 3.93947H1.36335C1.15457 3.93947 0.985352 4.10869 0.985352 4.31747V11.5538C0.985352 11.7626 1.15463 11.9318 1.36335 11.9318H4.01798H6.6726H9.32729H11.9819H14.6366C14.8454 11.9318 15.0146 11.7625 15.0146 11.5538V2.1625C15.0146 1.95378 14.8454 1.7845 14.6366 1.7845ZM3.64001 11.1758H1.74135V4.69547H3.64001V11.1758ZM6.2947 11.1758H4.39604V8.28656H6.2947V11.1758ZM8.94935 5.1105V11.1758H7.05066V0.756H8.94935V5.1105ZM11.604 11.1758H9.70538V5.4885H11.604V11.1758ZM14.2587 11.1758H12.36V5.1105V2.5405H14.2587V11.1758H14.2587Z" fill="white"/>
</svg>
