<svg width="20" height="21" viewBox="0 0 20 21" fill="none" xmlns="http://www.w3.org/2000/svg">
<path d="M12.053 11.0513V14.102C12.053 14.6682 12.3531 15.1073 12.6113 15.1073H20V10.0459H12.6113C12.3531 10.0459 12.053 10.4851 12.053 11.0513ZM15.0969 11.4022C15.7227 11.4022 16.2319 11.929 16.2319 12.5766C16.2319 13.2242 15.7227 13.751 15.0969 13.751C14.4711 13.751 13.962 13.2242 13.962 12.5766C13.962 11.929 14.4711 11.4022 15.0969 11.4022ZM12.6113 16.7407C11.4331 16.7407 10.4745 15.5569 10.4745 14.102V11.0513C10.4745 9.59639 11.433 8.41264 12.6113 8.41264H20V6.42235C20 5.41512 19.362 4.56 18.4824 4.26448L17.1038 0.525522C17.0259 0.314166 16.8666 0.145713 16.6642 0.0603434C16.4617 -0.0249174 16.2342 -0.0196907 16.0355 0.0751525L7.49847 4.15319H2.19298C0.983836 4.15319 0 5.1712 0 6.42235V18.7307C0 19.982 0.983836 21 2.19298 21H17.8069C19.0162 21 20 19.982 20 18.7307V16.7407H12.6113ZM15.9302 1.92454L16.7518 4.1533H11.2646L15.9302 1.92454Z" fill="white"/>
</svg>
