<svg width="13" height="17" viewBox="0 0 13 17" fill="none" xmlns="http://www.w3.org/2000/svg">
<path d="M12.5777 11.8975L11.8125 11.3874V6.95859C11.8125 4.13918 9.64612 1.81665 6.89062 1.56714V0.691406C6.89062 0.419587 6.67026 0.199219 6.39844 0.199219C6.12662 0.199219 5.90625 0.419587 5.90625 0.691406V1.56714C3.15075 1.81665 0.984375 4.13918 0.984375 6.95859V11.3874L0.219187 11.8975C0.0822281 11.9888 0 12.1424 0 12.307V14.2758C0 14.5476 0.220369 14.768 0.492187 14.768H3.73652C3.96756 16.0354 5.07284 16.9992 6.39844 16.9992C7.724 16.9992 8.82932 16.0354 9.06035 14.768H12.3047C12.5765 14.768 12.7969 14.5476 12.7969 14.2758V12.307C12.7969 12.1424 12.7146 11.9888 12.5777 11.8975ZM6.39844 16.0148C5.61786 16.0148 4.95682 15.4879 4.74603 14.768H8.05087C7.84005 15.4879 7.17901 16.0148 6.39844 16.0148ZM11.8125 13.7836C11.3557 13.7836 1.52204 13.7836 0.984375 13.7836V12.5704L1.74956 12.0603C1.88649 11.969 1.96875 11.8153 1.96875 11.6508V6.95859C1.96875 4.51606 3.95591 2.52891 6.39844 2.52891C8.84097 2.52891 10.8281 4.51606 10.8281 6.95859V11.6508C10.8281 11.8154 10.9104 11.969 11.0473 12.0603L11.8125 12.5704V13.7836Z" fill="white"/>
</svg>
