<svg width="11" height="14" viewBox="0 0 11 14" fill="none" xmlns="http://www.w3.org/2000/svg">
<rect width="10.0561" height="14" fill="black" fill-opacity="0"/>
<path d="M9.12161 0H8.65295H7.0159H0V3.97732V8.65458V12.6277H0.935454V14L1.87091 13.3765L2.80636 14V12.6277H7.0159H8.65295H9.12161C9.63681 12.6277 10.0561 12.2084 10.0561 11.6932V8.65458V3.97732V0.934518C10.0561 0.419317 9.63681 0 9.12161 0ZM0.467727 0.467727H7.0159V3.97732H0.467727V0.467727V0.467727ZM7.0159 8.18686H0.467727V4.44504H7.0159V8.18686ZM2.33863 13.1263L1.87091 12.8143L1.40318 13.1263V12.6277H2.33863V13.1263ZM2.80636 12.16H0.935454H0.467727V8.65458H7.0159V12.16H2.80636V12.16ZM7.48363 12.16V8.65458V3.97732V0.467727H8.18522V3.97732V8.65458V12.16H7.48363V12.16ZM8.65295 4.44504H9.5884V8.18686H8.65295V4.44504ZM9.5884 11.6932C9.5884 11.9507 9.37886 12.16 9.12161 12.16H8.65295V8.65458H9.5884V11.6932ZM8.65295 3.97732V0.467727H9.12161C9.37909 0.467727 9.5884 0.677268 9.5884 0.934518V3.97732H8.65295V3.97732Z" fill="white"/>
</svg>
