<svg width="17" height="17" viewBox="0 0 17 17" fill="none" xmlns="http://www.w3.org/2000/svg">
<path d="M8.50057 1.11719C5.65277 1.11719 3.33594 3.53721 3.33594 6.51187C3.33594 7.89479 3.832 9.38336 4.69696 10.5959C5.36127 11.5271 5.71235 12.5631 5.71235 13.5921V16.1779C5.71235 16.6314 6.08186 17.0004 6.53602 17.0004H10.4652C10.9193 17.0004 11.2888 16.6314 11.2888 16.1779V13.5921C11.2888 12.5632 11.6399 11.5271 12.3041 10.5959C13.1691 9.38339 13.6652 7.89479 13.6652 6.51187C13.6651 3.53721 11.3483 1.11719 8.50057 1.11719ZM10.4651 16.1779H6.53596V15.64H8.50054C8.728 15.64 8.91241 15.4559 8.91241 15.2287C8.91241 15.0016 8.728 14.8175 8.50054 14.8175H6.53596V14.2796H10.4652L10.4657 16.1779C10.4656 16.1779 10.4655 16.1779 10.4651 16.1779ZM7.92302 8.5051L7.37226 7.33013H9.62881L9.07813 8.5051C9.05645 8.55135 9.04358 8.60125 9.04015 8.65219L8.72079 13.4571H8.28032L7.96096 8.65219C7.95757 8.60125 7.94466 8.55135 7.92302 8.5051ZM11.6333 10.1187C10.8977 11.1498 10.4958 12.3012 10.4668 13.4571H9.54629L9.85688 8.78374L10.6493 7.09319C10.709 6.96582 10.6994 6.81677 10.6238 6.6981C10.5482 6.57947 10.4171 6.50758 10.2763 6.50758H6.72479C6.58394 6.50758 6.4529 6.57947 6.37729 6.6981C6.30171 6.81674 6.29207 6.96579 6.35179 7.09316L7.1442 8.78371L7.45479 13.457H6.53423C6.50517 12.3012 6.10338 11.1498 5.36775 10.1186C4.61118 9.05806 4.15951 7.70971 4.15951 6.51183C4.15951 3.9907 6.10687 1.93967 8.50047 1.93967C10.8941 1.93967 12.8414 3.9907 12.8414 6.51183C12.8415 7.70978 12.3898 9.05813 11.6333 10.1187Z" fill="white"/>
</svg>
