<svg width="14" height="11" viewBox="0 0 14 11" fill="none" xmlns="http://www.w3.org/2000/svg">
<rect width="14" height="10.8882" fill="black" fill-opacity="0"/>
<rect width="3.93181" height="1.7911" fill="black" fill-opacity="0" transform="translate(5.03418 7.54297)"/>
<rect width="3.93181" height="1.7911" fill="black" fill-opacity="0" transform="translate(5.03418 7.54297)"/>
<path d="M8.54391 7.54297H5.4562C5.22348 7.54297 5.03418 7.73227 5.03418 7.96499V8.91202C5.03418 9.14474 5.22348 9.33407 5.4562 9.33407H8.54394C8.77666 9.33407 8.96599 9.14477 8.96599 8.91202V7.96499C8.96594 7.7323 8.77664 7.54297 8.54391 7.54297ZM8.42333 8.79146H5.57676V8.08561H8.42333V8.79146Z" fill="white"/>
<rect width="14" height="10.8882" fill="black" fill-opacity="0"/>
<rect width="14" height="10.8882" fill="black" fill-opacity="0"/>
<path d="M13.8626 5.19684L13.867 5.19466L11.8325 1.17228C11.668 0.847164 11.3396 0.64523 10.9753 0.64523H10.5887V0.271305C10.5887 0.121461 10.4672 0 10.3174 0H3.68266C3.53281 0 3.41135 0.121461 3.41135 0.271305V0.64523H3.02468C2.66044 0.64523 2.33204 0.847164 2.16757 1.17228L0.133027 5.19466L0.137375 5.19684C0.0502305 5.34037 0 5.5087 0 5.68851V9.93798C0 10.4619 0.426289 10.8882 0.95025 10.8882H13.0498C13.5737 10.8882 14 10.4619 14 9.93798V5.68851C14 5.5087 13.9498 5.34037 13.8626 5.19684ZM10.5886 1.24813H10.9753C11.1109 1.24813 11.2332 1.32336 11.2944 1.44443L12.9605 4.73832H11.8276V3.72479C11.8276 3.57495 11.7062 3.45349 11.5563 3.45349H11.2207V1.99806C11.2207 1.84822 11.0992 1.72676 10.9494 1.72676H10.5886V1.24813ZM11.285 3.99607V4.73829H9.85335C9.60769 4.73829 9.38375 4.88302 9.28282 5.10694L8.89191 5.97401C8.8882 5.98218 8.88002 5.98749 8.87102 5.98749H5.129C5.12001 5.98749 5.11183 5.98218 5.10811 5.97398L4.71723 5.10697C4.61628 4.88302 4.39234 4.73829 4.14668 4.73829H2.71499V3.99607H11.285V3.99607ZM3.95396 0.542609H10.046V1.72673H3.95396V0.542609ZM10.6781 2.26934V3.45346H3.32194V2.26934H10.6781ZM2.70555 1.44443C2.7668 1.32333 2.88909 1.24813 3.02468 1.24813H3.41135V1.72673H3.05063C2.90079 1.72673 2.77933 1.84819 2.77933 1.99804V3.45346H2.44368C2.29384 3.45346 2.17238 3.57492 2.17238 3.72477V4.73829H1.0395L2.70555 1.44443ZM13.0498 10.2853H0.95025C0.758734 10.2853 0.602902 10.1294 0.602902 9.93798V5.68851C0.602902 5.49702 0.758707 5.34122 0.95025 5.34122H4.14668C4.15565 5.34122 4.16388 5.34652 4.1676 5.35475L4.55848 6.22177C4.65943 6.44571 4.88335 6.59039 5.129 6.59039H8.871C9.11665 6.59039 9.3406 6.44569 9.44152 6.2218L9.83243 5.35475V5.35473C9.83615 5.34652 9.84432 5.34122 9.85332 5.34122H13.0497C13.2413 5.34122 13.397 5.49705 13.397 5.68851V9.93798H13.3971C13.3971 10.1295 13.2413 10.2853 13.0498 10.2853Z" fill="white"/>
</svg>
