<svg width="20" height="24" viewBox="0 0 20 24" fill="none" xmlns="http://www.w3.org/2000/svg">
<path fill-rule="evenodd" clip-rule="evenodd" d="M2.94104 0.587891C1.6416 0.587891 0.588135 1.64258 0.588135 2.93945V17.0566C0.588135 18.3574 1.6416 19.4121 2.94104 19.4121H15.2937L19.4116 23.5293V19.4121V14.1191V2.93945C19.4116 1.64258 18.3583 0.587891 17.0587 0.587891H2.94104ZM16.12 14.6543C16.4171 14.5254 16.5516 14.1777 16.4203 13.8809C16.2891 13.584 15.9417 13.4473 15.6445 13.5801C13.3778 14.5801 11.7065 15.0996 10.1224 15.123C8.55298 15.1465 7.00293 14.6855 4.98462 13.5996C4.69861 13.4473 4.3418 13.5527 4.18787 13.8379C4.03381 14.123 4.14087 14.4824 4.427 14.6348C6.54578 15.7754 8.29846 16.3262 10.1403 16.2988C11.9674 16.2715 13.8157 15.6738 16.12 14.6543Z" fill="white"/>
</svg>
