<svg width="72" height="73" viewBox="0 0 72 73" fill="none" xmlns="http://www.w3.org/2000/svg">
<path d="M16.8001 38.4023C7.52164 38.4023 0 45.9239 0 55.2023C0 64.4807 7.52164 72.0023 16.8001 72.0023C26.0785 72.0023 33.6002 64.4807 33.6002 55.2023C33.5903 45.9281 26.0743 38.4122 16.8001 38.4023ZM16.8001 69.6023C8.8472 69.6023 2.40001 63.1552 2.40001 55.2023C2.40001 47.2495 8.8472 40.8023 16.8001 40.8023C24.753 40.8023 31.2002 47.2495 31.2002 55.2023C31.1916 63.1517 24.7495 69.5938 16.8001 69.6023Z" fill="#94C2FF"/>
<path d="M23.4391 55.786C22.9809 55.1597 22.2896 54.7294 21.365 54.4956C22.5424 53.8607 23.0598 52.7831 22.9177 51.2626C22.8702 50.7112 22.7261 50.2334 22.485 49.8283C22.2437 49.4232 21.9182 49.0975 21.507 48.8511C21.0962 48.6044 20.6495 48.4166 20.1677 48.2872C19.6859 48.1577 19.1327 48.0637 18.5085 48.0053V44.8477H16.6835V47.9175C16.3675 47.9175 15.8855 47.9259 15.2377 47.9426V44.8477H13.4125V48.0053C13.1516 48.0137 12.7685 48.0179 12.2629 48.0179L9.75037 48.0053V50.0603H11.0658C11.6663 50.0603 12.0179 50.3444 12.1206 50.9123V54.5085C12.1997 54.5085 12.2629 54.5128 12.3103 54.5212H12.1206V59.5581C12.0575 59.984 11.8284 60.1972 11.4333 60.1972H10.1179L9.75045 62.4903H12.1208C12.2709 62.4903 12.4881 62.4924 12.7727 62.4962C13.057 62.5004 13.2703 62.5025 13.4125 62.5025V65.6976H15.2381V62.5401C15.5698 62.5486 16.0518 62.5527 16.6838 62.5527V65.6976H18.5089V62.5025C19.1569 62.4691 19.7317 62.4068 20.2332 62.3146C20.7349 62.2224 21.215 62.0785 21.6732 61.8821C22.1313 61.6859 22.5144 61.4414 22.8225 61.149C23.1308 60.8569 23.3854 60.485 23.5872 60.0339C23.7884 59.5827 23.9169 59.0606 23.972 58.4674C24.0752 57.3066 23.8973 56.4126 23.4391 55.786ZM15.2732 50.1977C15.3285 50.1977 15.4846 50.1956 15.7413 50.1914C15.9983 50.1871 16.2115 50.183 16.3814 50.1788C16.5513 50.1746 16.7804 50.1851 17.0689 50.2101C17.3573 50.2352 17.6002 50.2687 17.7977 50.3104C17.9951 50.3521 18.2126 50.421 18.4494 50.5171C18.6867 50.6131 18.8762 50.7301 19.0182 50.8679C19.1606 51.0057 19.281 51.1812 19.3796 51.3942C19.4785 51.6072 19.5279 51.8515 19.5279 52.1272C19.5279 52.3611 19.4924 52.5742 19.4214 52.7664C19.3505 52.9585 19.2435 53.1193 19.1015 53.2488C18.9594 53.3783 18.8129 53.4912 18.6628 53.5872C18.5128 53.6831 18.321 53.7605 18.088 53.8189C17.8551 53.8774 17.6516 53.9233 17.4779 53.9567C17.3041 53.9901 17.0868 54.0132 16.8261 54.0256C16.5653 54.0381 16.3677 54.0466 16.2334 54.0508C16.099 54.0549 15.9154 54.0549 15.6822 54.0508C15.449 54.0466 15.3129 54.0444 15.2733 54.0444V50.1977H15.2732V50.1977ZM20.257 58.7307C20.1817 58.9229 20.0851 59.0901 19.9667 59.2322C19.848 59.3739 19.6919 59.4993 19.4984 59.6078C19.305 59.7165 19.1171 59.8041 18.9356 59.8709C18.7537 59.938 18.5344 59.9962 18.2779 60.0465C18.0207 60.0967 17.7957 60.1319 17.6019 60.153C17.4085 60.1739 17.1775 60.1905 16.9087 60.2032C16.6402 60.2155 16.4307 60.2218 16.2806 60.2218C16.1305 60.2218 15.9408 60.2195 15.7117 60.2155C15.4824 60.2116 15.3364 60.2095 15.2731 60.2095V55.9741C15.3362 55.9741 15.5239 55.97 15.8361 55.9615C16.1483 55.9531 16.4029 55.9492 16.6005 55.9492C16.798 55.9492 17.0707 55.9615 17.4185 55.9867C17.7659 56.0116 18.0583 56.049 18.2955 56.0992C18.5325 56.1494 18.791 56.2265 19.0717 56.3311C19.3521 56.4354 19.5794 56.5628 19.7533 56.7131C19.9271 56.8638 20.0732 57.0556 20.1917 57.2896C20.3104 57.5234 20.3697 57.7908 20.3697 58.0916C20.3696 58.3257 20.3322 58.5384 20.257 58.7307Z" fill="#94C2FF"/>
<path d="M55.1999 33.6C64.4783 33.6 72 26.0784 72 16.8C72 7.52159 64.4783 0 55.1999 0C45.9214 0 38.3998 7.52159 38.3998 16.8C38.4097 26.0742 45.9256 33.5901 55.1999 33.6ZM55.1999 2.4C63.1528 2.4 69.5999 8.84714 69.5999 16.8C69.5999 24.7528 63.1528 31.2 55.1999 31.2C47.247 31.2 40.7998 24.7528 40.7998 16.8C40.8083 8.85059 47.2504 2.40855 55.1999 2.4Z" fill="#94C2FF"/>
<path d="M55.2002 22.7992C53.8746 22.7992 52.8002 21.7248 52.8002 20.3992H50.4001C50.4084 22.5813 51.8874 24.4833 54.0002 25.0288V26.3992H56.4002V25.0288C58.9623 24.3694 60.5048 21.7578 59.8454 19.1956C59.3 17.0766 57.3882 15.5965 55.2002 15.5992C53.8746 15.5992 52.8002 14.5248 52.8002 13.1992C52.8002 11.8737 53.8746 10.7992 55.2002 10.7992C56.5257 10.7992 57.6002 11.8737 57.6002 13.1992H60.0002C59.9919 11.0172 58.5129 9.11517 56.4002 8.56962V7.19922H54.0002V8.56962C51.438 9.22902 49.8955 11.8407 50.5549 14.4028C51.1004 16.5219 53.0121 18.0019 55.2002 17.9992C56.5257 17.9992 57.6002 19.0737 57.6002 20.3992C57.6002 21.7248 56.5257 22.7992 55.2002 22.7992Z" fill="#94C2FF"/>
<path d="M65.1523 35.1522L60.3523 39.9522L62.0491 41.649L64.6363 39.0618C63.0544 53.6899 50.714 64.7818 36.0005 64.8005C34.8532 64.8005 33.7067 64.7327 32.5673 64.5977L32.2805 66.9809C33.5152 67.127 34.7573 67.2004 36.0005 67.2005C52.1501 67.1795 65.6212 54.8521 67.0711 38.7678L69.9511 41.6478L71.6479 39.951L66.8479 35.151C66.3792 34.6836 65.6204 34.6842 65.1523 35.1522Z" fill="#94C2FF"/>
<path d="M5.99999 38.4C6.31829 38.4 6.6234 38.2734 6.8484 38.0484L11.6484 33.2484L9.95161 31.5516L7.2588 34.2444C8.2029 19.0582 20.7847 7.21948 36.0002 7.19998C37.1556 7.20028 38.31 7.26868 39.4574 7.40518L39.743 5.02318C22.6256 2.96518 7.0809 15.1732 5.02289 32.2905C4.94069 32.974 4.88114 33.6601 4.84439 34.3476L2.04837 31.5516L0.351563 33.2484L5.15159 38.0484C5.37659 38.2734 5.68169 38.4 5.99999 38.4Z" fill="#94C2FF"/>
</svg>
