<svg width="51" height="70" viewBox="0 0 51 70" fill="none" xmlns="http://www.w3.org/2000/svg">
<path d="M43.3151 28H5.58904C3.65983 28 2.09589 29.567 2.09589 31.5V64.4C2.09589 66.333 3.65983 67.9 5.58904 67.9H43.3151C45.2443 67.9 46.8082 66.333 46.8082 64.4V54.6H48.9041V64.4C48.9041 67.4928 46.4018 70 43.3151 70H5.58904C2.5023 70 0 67.4928 0 64.4V31.5C0 28.4072 2.5023 25.9 5.58904 25.9H43.3151C46.4018 25.9 48.9041 28.4072 48.9041 31.5V42H46.8082V31.5C46.8082 29.567 45.2443 28 43.3151 28Z" fill="#94C2FF"/>
<path fill-rule="evenodd" clip-rule="evenodd" d="M48.9041 31.85C48.9041 32.4299 48.4349 32.9 47.8562 32.9H8.73288C8.15411 32.9 7.68493 32.4299 7.68493 31.85C7.68493 31.2701 8.15411 30.8 8.73288 30.8H47.8562C48.4349 30.8 48.9041 31.2701 48.9041 31.85Z" fill="#94C2FF"/>
<path fill-rule="evenodd" clip-rule="evenodd" d="M51 42V54.6H39.8219C36.3493 54.6 33.5342 51.7794 33.5342 48.3C33.5342 44.8206 36.3493 42 39.8219 42H51ZM39.8219 44.1C37.5069 44.1 35.6301 45.9804 35.6301 48.3C35.6301 50.6196 37.5069 52.5 39.8219 52.5H48.9041V44.1H39.8219Z" fill="#94C2FF"/>
<path d="M42.6164 48.3C42.6164 49.4598 41.6781 50.4 40.5205 50.4C39.363 50.4 38.4247 49.4598 38.4247 48.3C38.4247 47.1402 39.363 46.2 40.5205 46.2C41.6781 46.2 42.6164 47.1402 42.6164 48.3Z" fill="#94C2FF"/>
<path fill-rule="evenodd" clip-rule="evenodd" d="M29.3426 17.5C33.5869 17.5 37.0276 14.0526 37.0276 9.8C37.0276 5.54741 33.5869 2.1 29.3426 2.1C25.0984 2.1 21.6577 5.54741 21.6577 9.8C21.6577 14.0526 25.0984 17.5 29.3426 17.5ZM29.3426 19.6C34.7444 19.6 39.1234 15.2124 39.1234 9.8C39.1234 4.38761 34.7444 0 29.3426 0C23.9408 0 19.5618 4.38761 19.5618 9.8C19.5618 15.2124 23.9408 19.6 29.3426 19.6Z" fill="#94C2FF"/>
<path fill-rule="evenodd" clip-rule="evenodd" d="M12.6178 12.9925L7.68501 17.9349L2.75222 12.9925L4.23424 11.5075L6.63707 13.9151V3.5H8.73296V13.9151L11.1358 11.5075L12.6178 12.9925Z" fill="#94C2FF"/>
</svg>
