<svg width="76" height="72" viewBox="0 0 76 72" fill="none" xmlns="http://www.w3.org/2000/svg">
<circle cx="38.5" cy="15.5" r="14.5" stroke="#94C2FF" stroke-width="2"/>
<path d="M38.5 30V40.5M38.5 40.5L28.5 49M38.5 40.5L48.5 49" stroke="#94C2FF" stroke-width="2"/>
<mask id="mask0" mask-type="alpha" maskUnits="userSpaceOnUse" x="25" y="2" width="27" height="27">
<circle cx="38.5" cy="15.5" r="13.5" fill="#C4C4C4"/>
</mask>
<g mask="url(#mask0)">
<path d="M43 11.5C43 13.9853 40.9853 16 38.5 16C36.0147 16 34 13.9853 34 11.5C34 9.01472 36.0147 7 38.5 7C40.9853 7 43 9.01472 43 11.5ZM30 28.5C30 23.8056 33.8056 20 38.5 20C43.1944 20 47 23.8056 47 28.5V34H30V28.5Z" stroke="#94C2FF" stroke-width="2"/>
</g>
<circle cx="15.5" cy="56.5" r="14.5" stroke="#94C2FF" stroke-width="2"/>
<mask id="mask1" mask-type="alpha" maskUnits="userSpaceOnUse" x="2" y="43" width="27" height="27">
<circle cx="15.5" cy="56.5" r="13.5" fill="#C4C4C4"/>
</mask>
<g mask="url(#mask1)">
<path d="M20 52.5C20 54.9853 17.9853 57 15.5 57C13.0147 57 11 54.9853 11 52.5C11 50.0147 13.0147 48 15.5 48C17.9853 48 20 50.0147 20 52.5ZM7 69.5C7 64.8056 10.8056 61 15.5 61C20.1944 61 24 64.8056 24 69.5V75H7V69.5Z" stroke="#94C2FF" stroke-width="2"/>
</g>
<circle cx="60.5" cy="56.5" r="14.5" stroke="#94C2FF" stroke-width="2"/>
<mask id="mask2" mask-type="alpha" maskUnits="userSpaceOnUse" x="47" y="43" width="27" height="27">
<circle cx="60.5" cy="56.5" r="13.5" fill="#C4C4C4"/>
</mask>
<g mask="url(#mask2)">
<path d="M65 52.5C65 54.9853 62.9853 57 60.5 57C58.0147 57 56 54.9853 56 52.5C56 50.0147 58.0147 48 60.5 48C62.9853 48 65 50.0147 65 52.5ZM52 69.5C52 64.8056 55.8056 61 60.5 61C65.1944 61 69 64.8056 69 69.5V75H52V69.5Z" stroke="#94C2FF" stroke-width="2"/>
</g>
</svg>
