<svg width="55" height="55" viewBox="0 0 55 55" fill="none" xmlns="http://www.w3.org/2000/svg">
<rect width="55" height="55" rx="27.5" fill="#94C2FF"/>
<g clip-path="url(#clip0)">
<path d="M31.7428 24.8384C32.528 24.3144 33 23.4328 33 22.4888V18H21V22.4888C21 23.4328 21.472 24.3144 22.2572 24.8384L26.2 27.4668V28.5336L22.2572 31.162C21.472 31.6856 21 32.5672 21 33.5112V38H33V33.5112C33 32.5672 32.528 31.6856 31.7428 31.1616L27.8 28.5332V27.4664L31.7428 24.8384Z" fill="white"/>
<path d="M31.076 23.8397C31.5288 23.5377 31.7992 23.0325 31.7992 22.4889C31.7992 21.9665 31.4436 21.5109 30.9368 21.3841L24.9156 19.8789C23.536 19.5337 22.1992 20.5773 22.1992 21.9997V22.4889C22.1992 23.0325 22.4696 23.5377 22.9224 23.8397L26.5992 26.5381V32.8889C26.5992 34.3409 25.0936 35.3033 23.776 34.6933C23.0664 34.3649 22.2072 34.8509 22.1996 35.6329C22.1996 35.6385 22.1996 35.6437 22.1996 35.6493V37.9997H31.7996V33.5105C31.7996 33.5049 31.7996 33.4997 31.7996 33.4941C31.792 32.7217 31.044 32.1653 30.2832 32.2977L29.4636 32.4405C28.3856 32.6281 27.3992 31.7985 27.3992 30.7049V26.5381L31.076 23.8397Z" fill="#94C2FF"/>
<path d="M35 38H19V39.6H35V38Z" fill="#94C2FF"/>
<path d="M36.6 39.1996H35.4V37.5996H18.6V39.1996H17.4C17.1792 39.1996 17 39.3784 17 39.5996C17 39.8208 17.1792 39.9996 17.4 39.9996H18.6H19H35H35.4H36.6C36.8208 39.9996 37 39.8208 37 39.5996C37 39.3784 36.8208 39.1996 36.6 39.1996ZM19.4 38.3996H34.6V39.1996H19.4V38.3996Z" fill="white"/>
<path d="M35 16.4004H19V18.0004H35V16.4004Z" fill="#94C2FF"/>
<path d="M36.6 16H35.4H35H19H18.6H17.4C17.1792 16 17 16.1788 17 16.4C17 16.6212 17.1792 16.8 17.4 16.8H18.6V18.4H35.4V16.8H36.6C36.8208 16.8 37 16.6212 37 16.4C37 16.1788 36.8208 16 36.6 16ZM34.6 17.6H19.4V16.8H34.6V17.6Z" fill="white"/>
</g>
<defs>
<clipPath id="clip0">
<rect width="24" height="24" fill="white" transform="translate(15 16)"/>
</clipPath>
</defs>
</svg>
