<svg width="29" height="23" viewBox="0 0 29 23" fill="none" xmlns="http://www.w3.org/2000/svg">
<rect width="29" height="23" fill="black" fill-opacity="0"/>
<rect width="29" height="23" fill="black" fill-opacity="0"/>
<rect width="29" height="23" fill="black" fill-opacity="0"/>
<path d="M25.8422 0H3.15778C1.41778 0 0 1.43343 0 3.19263V19.8074C0 21.5666 1.41778 23 3.15778 23H25.8422C27.5822 23 29 21.5666 29 19.8074V3.19263C29 1.43343 27.5822 0 25.8422 0ZM6.28333 7.5255C6.57333 6.09207 7.95889 5.14731 9.37667 5.44051C10.7944 5.73371 11.7289 7.13456 11.4389 8.56799C11.2456 9.61048 10.4078 10.4575 9.37667 10.653C7.95889 10.9462 6.57333 10.0014 6.28333 8.56799C6.21889 8.24221 6.21889 7.88385 6.28333 7.5255ZM13.34 16.9079C13.34 17.2989 13.0178 17.6246 12.6311 17.6246H5.09111C4.70444 17.6246 4.38222 17.2989 4.38222 16.9079V16.0609C4.35 13.7153 6.05778 11.7606 8.34556 11.4348C10.7944 11.1416 13.05 12.9334 13.3078 15.4093C13.34 15.5722 13.34 15.7677 13.34 15.9306V16.9079ZM24.36 14.2365C24.36 14.8303 23.8787 15.3116 23.2849 15.3116H16.9928C16.3991 15.3116 15.9178 14.8303 15.9178 14.2365C15.9178 13.6428 16.3991 13.1615 16.9928 13.1615H23.2849C23.8787 13.1615 24.36 13.6428 24.36 14.2365ZM24.36 8.76346C24.36 9.3572 23.8787 9.83853 23.2849 9.83853H16.9928C16.3991 9.83853 15.9178 9.3572 15.9178 8.76346C15.9178 8.16971 16.3991 7.68839 16.9928 7.68839H23.2849C23.8787 7.68839 24.36 8.16971 24.36 8.76346Z" fill="#237BEF"/>
</svg>
