<svg width="242" height="136" viewBox="0 0 242 136" fill="none" xmlns="http://www.w3.org/2000/svg">
<path d="M0 4C0 1.79086 1.79086 0 4 0H238C240.209 0 242 1.79086 242 4V132C242 134.209 240.209 136 238 136H3.99999C1.79086 136 0 134.209 0 132V4Z" fill="white"/>
<path d="M117.762 96.114C117.762 96.114 118.251 96.0493 119.114 96.1066C119.975 96.1652 121.2 96.3243 122.645 96.6499C123.361 96.8164 124.149 97.047 124.944 97.2984C125.728 97.531 126.58 97.7083 127.437 97.7393C128.297 97.7804 129.159 97.6159 129.892 97.1744C130.637 96.7396 131.319 96.0399 132.049 95.386C133.501 94.0829 134.959 92.7866 136.348 91.5941C137.042 90.9948 137.72 90.4366 138.376 89.8953C139.037 89.3607 139.719 88.8787 140.435 88.5875C141.16 88.3057 141.854 88.2262 142.446 88.1541C143.044 88.0873 143.567 88.059 143.996 88.0408C144.856 88.0186 145.346 88.0421 145.346 88.0421C145.346 88.0421 144.856 88.0792 144.01 88.2019C143.586 88.2585 143.073 88.3327 142.493 88.4513C141.914 88.5781 141.259 88.7068 140.643 89.0311C139.397 89.6681 138.279 90.9921 136.937 92.2365C135.611 93.4971 134.174 94.8177 132.732 96.1315C132.001 96.7632 131.308 97.4804 130.381 98.0143C129.443 98.5503 128.349 98.6878 127.385 98.6028C126.408 98.5172 125.529 98.2368 124.722 97.9348C123.935 97.618 123.209 97.3665 122.507 97.1528C121.119 96.7119 119.934 96.4187 119.094 96.2805C118.255 96.1221 117.762 96.114 117.762 96.114Z" fill="#191A39"/>
<path d="M176.096 87.4301C176.096 87.4301 176.259 87.4045 176.564 87.3573C176.872 87.3216 177.329 87.2933 177.909 87.329C178.489 87.3654 179.192 87.4739 179.973 87.6984C180.738 87.9283 181.656 88.2518 182.414 88.9428C183.982 90.1791 185.531 91.975 186.897 94.0499C187.58 95.0881 188.224 96.1896 188.893 97.2904C189.574 98.3548 190.161 99.6626 191.066 100.173C191.516 100.416 191.96 100.356 192.601 100.163C193.207 99.9619 194.121 99.8203 194.848 100.174C195.584 100.5 196.071 101.061 196.469 101.585C196.866 102.118 197.191 102.656 197.532 103.148C198.211 104.147 198.95 104.934 199.992 105.106C200.511 105.222 201.081 105.271 201.633 105.441C202.182 105.604 202.665 105.852 203.102 106.106C203.978 106.619 204.687 107.163 205.377 107.544C206.056 107.914 206.725 108.119 207.283 108.17C207.842 108.22 208.29 108.14 208.575 108.03C208.862 107.923 209 107.827 209 107.827C209 107.827 208.877 107.939 208.598 108.082C208.323 108.226 207.869 108.38 207.272 108.374C206.677 108.372 205.962 108.225 205.197 107.894C204.441 107.571 203.669 107.065 202.818 106.618C202.391 106.399 201.936 106.202 201.455 106.087C200.978 105.966 200.44 105.948 199.847 105.852C199.258 105.771 198.583 105.517 198.078 105.097C197.566 104.683 197.16 104.178 196.787 103.67C196.049 102.685 195.404 101.496 194.457 101.075C193.98 100.867 193.505 100.925 192.877 101.124C192.56 101.214 192.216 101.322 191.785 101.34C191.384 101.357 190.938 101.245 190.584 101.049C189.868 100.642 189.435 100.033 189.065 99.4664C188.704 98.8887 188.384 98.3346 188.062 97.769C187.426 96.6412 186.809 95.5357 186.183 94.4901C185.569 93.4378 184.925 92.4563 184.24 91.5793C183.557 90.6969 182.838 89.9371 182.139 89.2482C181.487 88.5323 180.636 88.2094 179.896 87.9323C179.147 87.6701 178.462 87.5359 177.896 87.4564C177.328 87.3802 176.874 87.3762 176.567 87.3897C176.26 87.4166 176.096 87.4301 176.096 87.4301Z" fill="#191A39"/>
<path d="M137.658 91.7382C137.679 91.7484 137.544 91.6978 137.545 91.836C137.556 91.9553 137.646 92.1158 137.773 92.3099C138.031 92.6989 138.473 93.2267 139.073 93.861C140.273 95.1216 142.104 96.8588 144.621 98.4565C145.249 98.8542 145.921 99.2398 146.643 99.5742C147.004 99.7413 147.377 99.8957 147.762 100.03C148.179 100.204 148.555 100.331 148.96 100.525C150.589 101.305 152.056 102.457 153.43 103.781C154.786 105.117 156.041 106.61 157.366 108.05C158.691 109.473 160.104 110.899 161.712 111.935C162.096 112.176 162.43 112.262 162.733 112.16C163.056 112.061 163.395 111.774 163.708 111.435C164.363 110.688 165.015 109.943 165.662 109.205C166.985 107.741 168.288 106.301 169.548 104.908C172.066 102.122 174.461 99.5708 176.413 97.2997C178.349 95.0219 179.929 93.069 181.107 91.7679C182.269 90.4534 182.978 89.7422 182.978 89.7422C182.978 89.7422 182.363 90.5316 181.286 91.9135C180.205 93.2901 178.789 95.3468 176.912 97.7082C175.042 100.071 172.73 102.715 170.224 105.508C168.981 106.913 167.698 108.364 166.394 109.84C165.75 110.591 165.102 111.348 164.452 112.107C164.095 112.495 163.67 112.919 163.023 113.118C162.347 113.336 161.633 113.07 161.189 112.77C159.429 111.605 158.023 110.129 156.682 108.662C155.359 107.183 154.121 105.699 152.83 104.369C151.551 103.042 150.157 101.882 148.694 101.116C148.331 100.922 147.903 100.758 147.553 100.595C147.15 100.442 146.764 100.269 146.394 100.085C145.653 99.715 144.972 99.3011 144.343 98.8738C141.85 97.1244 140.098 95.2962 138.947 93.9723C138.378 93.3015 137.972 92.7407 137.734 92.3335C137.619 92.1292 137.537 91.9621 137.533 91.8367C137.545 91.687 137.679 91.7504 137.658 91.7382Z" fill="#191A39"/>
<path d="M157.545 103.605C157.545 103.605 157.677 103.668 157.897 103.79C158.123 103.918 158.418 104.057 158.796 104.205C158.979 104.286 159.188 104.347 159.401 104.419C159.612 104.497 159.853 104.531 160.083 104.6C160.562 104.695 161.073 104.768 161.59 104.784C162.106 104.802 162.62 104.762 163.105 104.699C163.34 104.645 163.581 104.625 163.797 104.562C164.015 104.504 164.228 104.457 164.416 104.389C164.799 104.269 165.12 104.137 165.342 104.034C165.565 103.93 165.703 103.874 165.703 103.874C165.703 103.874 165.624 103.992 165.465 104.193C165.306 104.39 165.048 104.66 164.679 104.906C164.32 105.174 163.84 105.393 163.303 105.565C163.031 105.628 162.749 105.722 162.453 105.74C162.159 105.786 161.858 105.782 161.556 105.792C161.255 105.761 160.954 105.746 160.664 105.681C160.37 105.641 160.095 105.531 159.827 105.45C159.303 105.243 158.838 104.993 158.499 104.702C158.15 104.435 157.894 104.135 157.76 103.938C157.62 103.73 157.545 103.605 157.545 103.605Z" fill="#191A39"/>
<path d="M145.854 83.631L144.706 99.0622L144.838 83.5898L145.854 83.631Z" fill="#191A39"/>
<path d="M176.368 81.0627C176.368 81.0627 176.354 81.3229 176.33 81.7786C176.312 82.2302 176.296 82.8605 176.3 83.6411C176.302 85.1936 176.392 87.2746 176.486 89.3576C176.579 91.4413 176.67 93.5277 176.672 95.0944C176.685 96.661 176.604 97.7019 176.604 97.7019C176.604 97.7019 176.621 96.6583 176.513 95.0998C176.415 93.5405 176.198 91.469 175.978 89.3954C175.758 87.3211 175.541 85.2442 175.442 83.6708C175.391 82.8888 175.366 82.2154 175.357 81.7556C175.354 81.2993 175.352 81.0391 175.352 81.0391L176.368 81.0627Z" fill="#191A39"/>
<path d="M135.237 54.5006C135.237 54.5006 135.237 54.0786 134.976 53.4112C134.72 52.7587 134.226 51.8109 133.238 51.1226C133.008 50.9554 132.693 50.7916 132.454 50.6966C132.254 50.6453 131.933 50.8085 131.656 50.9642C131.371 51.1334 131.091 51.3451 130.836 51.5824C130.711 51.7017 130.586 51.8284 130.491 51.9585C130.378 52.1176 130.362 52.1419 130.311 52.367C130.152 53.0243 130.297 53.7456 130.554 54.4554C130.824 55.1673 131.209 55.8765 131.574 56.6248C131.952 57.3683 132.268 58.1826 132.499 58.9747C132.745 59.7702 132.906 60.5717 133.025 61.3476C133.161 62.1181 133.183 62.8907 133.243 63.583C133.304 64.2571 133.45 64.88 133.709 65.3862C133.979 65.8837 134.35 66.27 134.767 66.5012C135.177 66.7473 135.603 66.8437 135.95 66.9084C136.303 66.961 136.585 66.9933 136.779 66.9906C136.973 66.9994 137.078 67.0034 137.078 67.0034C137.076 66.9805 136.672 67.1059 135.931 67.0884C135.565 67.0661 135.105 67.0237 134.613 66.8086C134.125 66.6064 133.599 66.2242 133.243 65.6525C132.892 65.0815 132.68 64.3933 132.558 63.6686C132.451 62.9587 132.297 62.2509 132.148 61.506C131.988 60.7665 131.788 60.0135 131.552 59.2632C131.308 58.5076 131.02 57.7869 130.676 57.0508C130.326 56.318 129.947 55.5617 129.697 54.7379C129.433 53.9256 129.355 52.9913 129.656 52.1621C129.692 52.0805 129.715 51.9794 129.788 51.8473C129.853 51.7293 129.922 51.641 129.994 51.5601C130.136 51.3943 130.287 51.2622 130.44 51.1348C130.748 50.886 131.068 50.6764 131.406 50.5058C131.746 50.3561 132.108 50.1687 132.571 50.2962C132.941 50.4707 133.186 50.6386 133.447 50.8483C134.451 51.6734 134.892 52.6845 135.083 53.3762C135.28 54.0813 135.237 54.5006 135.237 54.5006Z" fill="#191A39"/>
<path d="M132.37 50.5045C132.37 50.5045 132.066 49.6072 131.632 48.0069C131.214 46.4032 130.63 44.1038 130.179 41.2886C129.962 39.8784 129.779 38.3421 129.719 36.6966C129.67 35.0564 129.735 33.2849 130.234 31.512C130.719 29.7336 131.734 28.0146 133.11 26.6637C134.481 25.2919 136.132 24.2275 137.806 23.2898C139.492 22.3602 141.193 21.5317 142.911 20.7349C144.631 19.9529 146.393 19.2788 148.186 18.8932C149.971 18.5035 151.805 18.4274 153.459 18.7853C155.095 19.0934 156.614 19.6394 157.886 20.3405C159.17 21.0301 160.227 21.864 161.042 22.708C161.864 23.548 162.458 24.3805 162.906 25.0836C163.351 25.7914 163.632 26.3833 163.814 26.7891C163.991 27.1963 164.085 27.414 164.085 27.414C164.085 27.414 163.972 27.2057 163.761 26.8154C163.548 26.4271 163.209 25.8703 162.733 25.1989C161.786 23.8641 160.127 22.1047 157.611 20.865C156.358 20.2401 154.915 19.781 153.323 19.5437C151.76 19.2828 150.074 19.3779 148.381 19.7594C146.685 20.1457 144.991 20.8131 143.315 21.6004C141.642 22.3871 139.95 23.281 138.292 24.1594C136.645 25.0553 135.059 26.059 133.768 27.3196C132.466 28.5769 131.536 30.1091 131.066 31.7519C130.574 33.3934 130.417 35.0834 130.415 36.6851C130.412 38.2902 130.539 39.8171 130.709 41.2158C131.039 44.0215 131.472 46.3472 131.809 47.9644C132.139 49.5857 132.37 50.5045 132.37 50.5045Z" fill="#191A39"/>
<path d="M136.515 24.5137C137.221 24.0783 137.765 23.452 138.319 22.8487C138.87 22.2406 139.39 21.6029 139.909 20.9666L142.983 17.0971C143.501 16.4581 144.099 15.8318 144.74 15.2945C145.38 14.7478 146.067 14.2544 146.791 13.8155C148.236 12.9304 149.873 12.3338 151.584 12.1053C152.422 11.9941 153.308 11.9644 154.161 12.048C155.02 12.1282 155.873 12.3021 156.696 12.5792C157.515 12.8677 158.294 13.2695 159.01 13.763C159.193 13.8937 159.349 14.0097 159.544 14.1654L160.011 14.5719C160.332 14.882 160.636 15.1981 160.907 15.521C162 16.8282 162.869 18.2714 163.6 19.7686C164.315 21.2746 164.912 22.8285 165.371 24.4275L164.801 24.4558C165.068 23.2464 165.283 22.0236 165.377 20.7859C165.466 19.5489 165.427 18.2984 165.201 17.0648C165.572 18.2654 165.709 19.5347 165.717 20.7967C165.729 22.0613 165.605 23.3266 165.378 24.5704L165.176 25.6759L164.808 24.5987C164.284 23.0631 163.622 21.5692 162.855 20.1414C162.096 18.713 161.247 17.3223 160.2 16.123C159.937 15.8204 159.664 15.5473 159.391 15.2878L158.918 14.8907L158.458 14.5591C157.809 14.1263 157.098 13.7892 156.359 13.527C155.621 13.2634 154.848 13.0895 154.063 13.0012C153.271 12.9102 152.494 12.9203 151.693 13.01C150.12 13.1886 148.588 13.7326 147.163 14.4674C146.454 14.8436 145.769 15.2777 145.127 15.7664C144.468 16.2471 143.91 16.8025 143.373 17.4281L140.122 21.1445C139.57 21.758 139.019 22.3721 138.435 22.9572C137.843 23.5255 137.246 24.1261 136.515 24.5137Z" fill="#191A39"/>
<path d="M167.206 25.9017C167.206 25.9017 167.246 25.7089 167.339 25.3745C167.435 25.0422 167.587 24.5696 167.869 24.0263C168.015 23.758 168.189 23.4674 168.44 23.1883C168.707 22.9012 168.996 22.6713 169.349 22.4576C170.044 22.0525 170.831 21.8226 171.57 21.5981C173.069 21.1505 174.593 20.7871 175.757 20.5815C176.337 20.473 176.826 20.409 177.174 20.3685C177.546 20.3119 177.741 20.4582 177.73 20.4548C177.73 20.4548 177.525 20.4076 177.23 20.5681C176.921 20.7184 176.472 20.9307 175.926 21.1525C174.838 21.6082 173.359 22.1253 171.855 22.5587C171.097 22.7791 170.358 22.9484 169.747 23.2187C169.451 23.3441 169.143 23.5106 168.931 23.6919C168.699 23.8786 168.492 24.0991 168.316 24.3182C167.958 24.7543 167.692 25.1648 167.504 25.45C167.314 25.7372 167.206 25.9017 167.206 25.9017Z" fill="#191A39"/>
<path d="M167.883 27.6257C167.883 27.6257 167.927 27.5765 168.007 27.4841C168.084 27.3931 168.218 27.2569 168.412 27.1248C168.796 26.8545 169.428 26.5619 170.222 26.4062C171.017 26.239 171.946 26.1912 172.928 26.1561C173.418 26.144 173.97 26.1595 174.488 26.2262C175.014 26.295 175.541 26.3914 176.059 26.5046C176.575 26.6273 177.081 26.7669 177.576 26.9037C178.089 27.0298 178.64 27.3116 179.055 27.5765C179.487 27.8441 179.866 28.1232 180.224 28.3713C180.582 28.622 180.929 28.8236 181.257 28.9948C181.914 29.3292 182.523 29.4741 182.963 29.5179C183.182 29.5537 183.357 29.5402 183.477 29.5462C183.597 29.5483 183.661 29.5489 183.661 29.5489L183.687 29.7384C183.687 29.7384 183.622 29.7498 183.499 29.7721C183.376 29.7903 183.195 29.8381 182.959 29.8469C182.491 29.8988 181.784 29.8664 181.004 29.584C180.221 29.3184 179.411 28.8034 178.599 28.347C178.177 28.1144 177.808 27.9634 177.326 27.8434C176.833 27.7255 176.332 27.6061 175.832 27.4861C175.336 27.3648 174.84 27.263 174.352 27.1868C173.857 27.1093 173.401 27.048 172.915 27.0291C171.948 26.9833 171.051 26.9293 170.295 26.963C169.538 26.9947 168.913 27.1066 168.506 27.2893C168.099 27.4558 167.883 27.6257 167.883 27.6257Z" fill="#191A39"/>
<path d="M155.183 12.4654C155.183 12.4654 156.134 12.3393 157.811 12.2611C159.488 12.191 161.888 12.1404 164.771 12.3407C166.209 12.4741 167.773 12.6224 169.401 13.0869C171.055 13.5325 172.562 14.5389 174.117 15.3297C174.898 15.724 175.7 16.0881 176.548 16.2532C177.382 16.4413 178.328 16.384 179.339 16.6199C180.412 16.8444 181.266 17.5657 181.903 18.3201C182.544 19.0825 183.095 19.8503 183.636 20.6667C185.791 23.9098 187.024 27.6667 187.724 31.1896C188.087 32.9544 188.313 34.6775 188.468 36.3122C188.539 37.1292 188.609 37.9233 188.676 38.6925C188.735 39.4583 188.786 40.2504 188.592 41.0061C188.505 41.3836 188.304 41.7692 188.029 42.0456C187.762 42.3226 187.35 42.5646 186.897 42.4817C186.453 42.4022 186.187 42.0341 186.029 41.7813C185.861 41.5123 185.713 41.2535 185.574 40.9838C185.036 39.9282 184.749 38.9325 184.603 38.1054C184.446 37.2782 184.448 36.6149 184.454 36.1686C184.463 35.721 184.492 35.4851 184.492 35.4851C184.492 35.4851 184.484 35.7237 184.512 36.1679C184.541 36.6108 184.606 37.262 184.804 38.0629C184.998 38.8624 185.34 39.8136 185.921 40.7937C186.212 41.2265 186.559 41.933 186.984 41.9802C187.416 42.0442 187.921 41.4658 188.018 40.8706C188.158 40.2295 188.093 39.5136 188.003 38.7559C187.907 37.9955 187.807 37.2088 187.705 36.4005C187.474 34.7894 187.216 33.0953 186.849 31.3682C186.484 29.6439 185.99 27.8783 185.329 26.1701C184.67 24.437 183.796 22.7854 182.799 21.2006C182.299 20.422 181.745 19.6326 181.171 18.9342C180.602 18.2412 179.918 17.6803 179.118 17.5091C178.293 17.2954 177.336 17.3352 176.364 17.1147C175.398 16.9078 174.522 16.506 173.72 16.0692C172.122 15.176 170.741 14.1695 169.209 13.703C167.684 13.2157 166.134 13.0168 164.722 12.8442C161.884 12.5099 159.487 12.4398 157.815 12.429C156.141 12.4067 155.183 12.4654 155.183 12.4654Z" fill="#191A39"/>
<path d="M188.119 38.4727C188.057 38.5542 188.122 38.7072 188.133 38.8198L188.215 39.1845L188.388 39.9126L188.759 41.3633C189.004 42.332 189.253 43.2953 189.47 44.2781L189.486 44.3462L189.458 44.4622C189.362 44.8491 189.525 45.3143 189.68 45.8623C189.757 46.1374 189.835 46.4407 189.845 46.7885C189.852 46.9611 189.824 47.1452 189.78 47.3251L189.697 47.5618C189.675 47.6258 189.607 47.7431 189.558 47.8287C189.121 48.5028 188.405 48.7435 187.803 48.8338C187.182 48.9228 186.585 48.9019 186.003 48.8129L186.53 48.4152C186.516 48.5311 186.508 48.6922 186.544 48.8776C186.568 49.0576 186.62 49.2484 186.663 49.4439C186.751 49.8362 186.873 50.2353 186.962 50.6492C187.053 51.0618 187.137 51.4858 187.142 51.9233C187.146 52.141 187.137 52.3601 187.102 52.5752C187.071 52.7915 186.979 52.9958 186.876 53.1771C187.019 52.3406 186.643 51.5977 186.344 50.844C186.18 50.4679 186.022 50.0856 185.865 49.6859C185.786 49.485 185.721 49.2774 185.667 49.0502C185.608 48.8304 185.572 48.5743 185.593 48.2777L185.625 47.8449L186.12 47.8799C186.639 47.9163 187.164 47.9393 187.642 47.8516C188.115 47.7674 188.541 47.588 188.718 47.3117C188.734 47.2753 188.751 47.2807 188.777 47.2153L188.837 47.0643C188.86 46.9773 188.876 46.887 188.88 46.7832C188.891 46.5782 188.854 46.3369 188.8 46.0774C188.698 45.5711 188.497 44.9172 188.752 44.2269L188.738 44.4109C188.589 43.4321 188.441 42.4392 188.315 41.4475L188.146 39.9544C188.122 39.7049 188.094 39.4562 188.08 39.2047L188.066 38.8272C188.076 38.712 188.033 38.5502 188.119 38.4727Z" fill="#191A39"/>
<path d="M183.421 59.2155C183.727 57.8558 183.809 56.4631 183.846 55.0744C183.87 53.6851 183.825 52.2924 183.683 50.9152C183.613 50.2269 183.512 49.5413 183.354 48.88C183.204 48.2261 182.92 47.6019 182.617 46.983C182.01 45.7481 181.266 44.5185 180.894 43.1129C180.543 41.6946 180.487 40.3032 180.36 38.9085C180.235 37.5421 180.204 36.0846 179.355 35.1725C178.504 34.2463 177.137 33.8358 175.817 33.4225L171.796 32.1714L169.786 31.5458C169.116 31.353 168.425 31.0618 167.922 31.1211C167.668 31.1528 167.499 31.2573 167.258 31.4845C167.038 31.7056 166.689 32.017 166.343 32.1835C165.54 32.6089 164.657 32.5017 163.95 32.2995C163.229 32.0992 162.586 31.7979 161.963 31.6382C161.301 31.4723 160.641 31.3604 159.958 31.2944C158.602 31.1616 157.215 31.2222 155.823 31.3186C153.043 31.5343 150.246 31.8478 147.451 32.1188C144.652 32.3864 141.856 32.6837 139.021 32.737L139.225 32.6392C138.295 33.7495 137.787 35.1591 137.59 36.6104C137.385 38.0685 137.475 39.5637 137.557 41.0522C137.646 42.5426 137.761 44.0432 137.703 45.5526C137.66 47.0639 137.32 48.5686 136.812 49.9802C136.331 51.4025 135.757 52.7878 135.462 54.2365C135.166 55.6879 135.18 57.1736 135.367 58.6459C135.549 60.1182 135.908 61.5669 136.285 63.0122L137.431 67.3528L138.576 71.6941C138.959 73.1414 139.318 74.5874 139.877 75.943C140.981 78.6692 143.103 80.8283 145.238 82.9033C147.38 84.9822 149.62 86.9675 152.138 88.5092C154.645 90.0496 157.478 91.0864 160.394 91.2144C163.305 91.3769 166.161 90.39 168.465 88.607C170.8 86.8529 172.674 84.5198 174.435 82.124C176.192 79.7033 177.961 77.2906 179.314 74.677C179.978 73.3679 180.542 72.0123 180.917 70.6088C181.302 69.2066 181.434 67.7599 181.519 66.2634C181.607 64.7831 181.735 63.2178 182.15 61.7441C182.56 60.2618 183.166 58.8535 183.877 57.5141C184.582 56.1706 185.386 54.8931 186.196 53.6285C186.622 53.0339 186.916 52.2742 187.749 51.809C187.953 51.7072 188.212 51.6425 188.43 51.6574C188.66 51.6621 188.945 51.7356 189.129 51.8663C189.531 52.1286 189.759 52.5209 189.901 52.9072C190.047 53.2982 190.099 53.7073 190.087 54.1192C190.043 54.5668 189.987 54.8682 189.872 55.276C189.66 56.0364 189.336 56.7287 188.979 57.3995C188.268 58.7369 187.411 59.9699 186.899 61.3437C186.777 61.6882 186.677 62.0374 186.607 62.394C186.546 62.7492 186.529 63.1086 186.462 63.5029C186.327 64.2532 186.125 64.9839 185.826 65.6864C185.673 66.0349 185.499 66.3814 185.235 66.68C184.97 67.0117 184.529 67.0879 184.172 67.1634C183.417 67.2874 182.62 67.2476 181.917 66.9294L181.959 66.8378C182.642 67.1216 183.42 67.135 184.139 66.9921C184.496 66.9018 184.868 66.8276 185.075 66.5405C185.3 66.2681 185.459 65.9318 185.595 65.592C185.861 64.9078 186.037 64.1797 186.141 63.4544C186.191 63.1092 186.198 62.7182 186.25 62.3347C186.312 61.9538 186.405 61.581 186.521 61.2143C187.005 59.7508 187.859 58.4834 188.529 57.1676C188.865 56.5123 189.163 55.8322 189.341 55.1466C189.432 54.8358 189.5 54.3949 189.521 54.099C189.524 53.7646 189.474 53.4188 189.351 53.1101C189.235 52.8007 189.045 52.5222 188.808 52.3773C188.677 52.2978 188.582 52.2789 188.439 52.2695C188.28 52.2614 188.163 52.3018 188.031 52.3645C187.51 52.6402 187.164 53.3561 186.761 53.979C185.977 55.2517 185.206 56.5285 184.542 57.8511C183.872 59.1697 183.314 60.5388 182.95 61.9497C182.579 63.3721 182.49 64.81 182.425 66.3133C182.367 67.8017 182.256 69.3536 181.873 70.8514C181.51 72.3507 180.915 73.7771 180.228 75.1381C178.83 77.8575 177.04 80.3039 175.287 82.7381C173.512 85.1643 171.597 87.583 169.117 89.4617C167.898 90.3954 166.46 91.1558 164.993 91.6297C163.49 92.1319 161.905 92.2883 160.348 92.2182C157.225 92.0591 154.233 90.9226 151.645 89.304C149.032 87.6888 146.785 85.6132 144.661 83.4803C142.558 81.3643 140.379 79.0885 139.259 76.1898C138.7 74.7627 138.362 73.2877 138.004 71.8383L136.935 67.4782C136.264 64.564 135.395 61.6916 135.002 58.6918C134.821 57.1993 134.817 55.6535 135.132 54.1705C135.445 52.682 136.034 51.2893 136.521 49.8824C137.032 48.4796 137.331 47.0262 137.366 45.5411C137.41 44.0581 137.283 42.5703 137.181 41.0771C137.084 39.5839 136.988 38.0746 137.156 36.5578C137.324 35.0512 137.828 33.5243 138.81 32.3001L138.884 32.2071L139.014 32.2017C141.797 32.0871 144.588 31.7312 147.373 31.4042C150.162 31.0726 152.942 30.6897 155.762 30.4686C157.169 30.362 158.6 30.2865 160.043 30.4173C160.759 30.4807 161.488 30.5993 162.188 30.7706C162.927 30.9613 163.566 31.2526 164.198 31.4272C164.819 31.6166 165.448 31.6496 165.91 31.4063C166.198 31.266 166.379 31.1049 166.659 30.838C166.917 30.5825 167.369 30.2839 167.827 30.2555C168.747 30.2016 169.377 30.5548 170.047 30.7328L172.052 31.3752L176.062 32.6601C177.375 33.0976 178.856 33.498 179.934 34.6683C180.469 35.2521 180.741 36.0219 180.855 36.7372C180.979 37.4591 181.014 38.1649 181.055 38.8613C181.149 40.2426 181.187 41.6589 181.484 42.9606C181.799 44.2751 182.49 45.4845 183.088 46.7606C183.382 47.4017 183.676 48.0616 183.815 48.7762C183.957 49.4779 184.034 50.179 184.08 50.8808C184.174 52.2829 184.17 53.6851 184.097 55.0832C184.011 56.4773 183.877 57.8828 183.521 59.2378L183.421 59.2155Z" fill="#191A39"/>
<path d="M134.538 32.0859C134.008 33.0978 133.639 34.109 133.411 35.1741C133.175 36.2304 133.061 37.311 132.979 38.4011L132.888 40.0486L132.812 41.7056C132.8 42.2287 132.81 42.7639 132.933 43.2506C133.047 43.7373 133.288 44.1816 133.746 44.4175L133.57 44.46C133.809 44.2753 133.964 43.9274 133.913 43.5661C134.088 43.8897 134.066 44.34 133.811 44.6825L133.757 44.7546L133.635 44.7249C133.333 44.6514 133.038 44.4876 132.81 44.2584C132.584 44.0272 132.42 43.7508 132.296 43.4677C132.063 42.8934 131.962 42.3028 131.929 41.713C131.906 41.1393 131.887 40.5886 131.901 40.0216C131.909 39.4581 131.925 38.8905 131.979 38.3242C132.086 37.193 132.272 36.0464 132.686 34.9624C133.077 33.8811 133.702 32.849 134.538 32.0859Z" fill="#191A39"/>
<path d="M178.045 51.542C178.045 51.542 177.846 51.4867 177.499 51.3903C177.324 51.3337 177.114 51.3067 176.88 51.2582C176.651 51.2049 176.376 51.1793 176.079 51.1483C174.894 51.0256 173.309 51.1341 171.746 51.3748C170.961 51.4934 170.198 51.7617 169.467 51.8871C168.733 52.0031 168.029 52.0267 167.409 52.0145C166.177 52.0105 165.275 51.7644 165.275 51.7644L165.228 51.5683C165.228 51.5683 165.913 50.9339 167.08 50.4337C167.66 50.1708 168.362 49.9362 169.14 49.8109C169.923 49.705 170.782 49.7704 171.626 49.7657C172.475 49.7832 173.323 49.8075 174.114 49.9416C174.905 50.0535 175.633 50.2355 176.236 50.4479C176.832 50.6501 177.34 50.8834 177.643 51.064C177.951 51.2514 178.127 51.3579 178.127 51.3579L178.045 51.542Z" fill="#191A39"/>
<path d="M164.666 57.3301C164.666 57.3301 164.728 57.1251 164.918 56.7854C165.107 56.451 165.442 55.9919 165.964 55.5612C166.483 55.1244 167.167 54.7212 167.981 54.4395C168.345 54.3141 168.793 54.1745 169.235 54.1051C169.673 54.0296 170.124 53.9797 170.576 53.9709C172.396 53.9271 174.16 54.5466 175.262 55.2848C175.827 55.6367 176.227 56.0236 176.497 56.2899C176.747 56.5784 176.889 56.7429 176.889 56.7429C176.889 56.7429 176.702 56.6357 176.374 56.4483C176.039 56.2757 175.575 56.025 174.991 55.7971C173.836 55.3246 172.219 54.9342 170.595 54.9781C170.189 54.974 169.784 55.0084 169.39 55.065C168.997 55.1237 168.635 55.1796 168.231 55.2888C167.506 55.4682 166.832 55.7405 166.295 56.0331C165.757 56.3297 165.346 56.6519 165.077 56.906C164.809 57.1588 164.666 57.3301 164.666 57.3301Z" fill="#191A39"/>
<path d="M164.666 57.3273C164.666 57.3273 165.504 57.4669 166.681 57.8255C167.86 58.1551 169.387 58.6998 170.894 58.7416C171.219 58.7457 171.63 58.685 172.008 58.6149C172.398 58.5374 172.754 58.4747 173.106 58.3506C173.802 58.1127 174.472 57.843 175.031 57.603C175.594 57.363 176.062 57.1547 176.385 56.9983C176.713 56.8494 176.889 56.7422 176.889 56.7422C176.889 56.7422 176.748 56.8932 176.469 57.1285C176.189 57.3604 175.773 57.6704 175.252 58.0109C174.725 58.3459 174.113 58.7268 173.379 59.0571C173.018 59.2202 172.607 59.3746 172.208 59.4757C171.798 59.5782 171.402 59.6975 170.904 59.7137C169.095 59.7649 167.506 59.0167 166.425 58.4342C165.337 57.8316 164.666 57.3273 164.666 57.3273Z" fill="#191A39"/>
<path d="M152.739 79.815C152.739 79.815 153.002 79.7827 153.454 79.7584C153.91 79.7362 154.54 79.7099 155.292 79.7072C156.044 79.7031 156.909 79.6984 157.823 79.7126C158.738 79.7031 159.704 79.7166 160.656 79.6789C161.134 79.6728 161.608 79.6411 162.073 79.6162C162.536 79.5757 162.996 79.5663 163.433 79.5023C163.874 79.4571 164.291 79.3823 164.699 79.3324C165.086 79.2333 165.485 79.2003 165.826 79.0998C166.173 79.0095 166.505 78.9421 166.785 78.8443C167.067 78.7506 167.335 78.6926 167.534 78.6043C167.948 78.452 168.208 78.3711 168.208 78.3711C168.208 78.3711 168.06 78.5807 167.762 78.936C167.617 79.1207 167.412 79.3088 167.166 79.5178C166.927 79.7429 166.63 79.9546 166.289 80.1636C165.957 80.3995 165.563 80.5728 165.144 80.7723C164.72 80.9341 164.268 81.141 163.782 81.2448C163.299 81.3743 162.798 81.4976 162.281 81.5624C161.766 81.6379 161.239 81.6763 160.715 81.6945C160.19 81.7046 159.668 81.7006 159.157 81.6567C158.645 81.6345 158.149 81.5381 157.669 81.4774C156.714 81.315 155.838 81.1006 155.107 80.8451C153.634 80.3658 152.739 79.815 152.739 79.815Z" fill="#191A39"/>
<path d="M48.5903 35.0742C48.5903 35.0742 48.5165 35.1726 48.3778 35.358C48.2425 35.5454 48.0314 35.811 47.7452 36.1393C47.1667 36.7844 46.306 37.6797 45.2173 38.6834C44.1307 39.6865 42.8424 40.8386 41.5879 42.1524C40.9621 42.803 40.3382 43.5114 39.8713 44.2786C39.3747 45.0815 39.0141 45.9174 38.784 46.8328C38.2968 48.6341 38.3672 50.5762 38.9085 52.2426L38.9586 52.399C38.9633 52.4152 38.9836 52.4731 38.9755 52.4549L39.0093 52.5338L39.1392 52.8493C39.2319 53.0468 39.3219 53.2066 39.4241 53.3886C39.6454 53.7459 39.8869 54.0883 40.1467 54.4065C40.6643 55.0456 41.2192 55.6105 41.7503 56.112C42.816 57.1144 43.7579 57.9099 44.4352 58.4431C45.1091 58.9831 45.4948 59.2918 45.4948 59.2918C45.4948 59.2918 45.0617 59.0525 44.3262 58.5941C43.5995 58.1249 42.5494 57.4616 41.387 56.5192C40.8105 56.0426 40.2029 55.5013 39.6108 54.8622C39.3138 54.544 39.0283 54.1935 38.7576 53.8126C38.6277 53.6171 38.4863 53.3913 38.3747 53.1857L38.2244 52.879L38.1879 52.8014L38.1473 52.6956L38.0851 52.5264C37.3942 50.7231 37.2718 48.5727 37.8049 46.5773C38.0621 45.5897 38.5066 44.6069 39.0438 43.7737C39.619 42.9047 40.2949 42.1983 40.9688 41.5417C42.3349 40.2501 43.7119 39.2032 44.8574 38.2695C46.0137 37.3494 46.9799 36.5903 47.6119 36.0072C48.2493 35.4369 48.5903 35.0742 48.5903 35.0742Z" fill="#191A39"/>
<path d="M49.9673 33.2471C50.9281 33.1966 51.736 32.9148 52.6914 32.782C53.1691 32.7159 53.6711 32.7038 54.1698 32.8029C54.661 32.906 55.1685 33.1339 55.4797 33.537L55.4993 33.5572C55.567 33.6799 55.4872 33.7938 55.4215 33.8289C55.3518 33.8714 55.2449 33.868 55.2098 33.8046C55.2747 33.8323 55.3234 33.7851 55.3424 33.7433C55.3694 33.6988 55.3485 33.6624 55.3336 33.6779L55.3532 33.6981C54.5162 33.351 53.6765 33.4366 52.7847 33.5249C52.3348 33.5727 51.8645 33.6314 51.3774 33.6112C50.8949 33.5984 50.3861 33.4979 49.9673 33.2471Z" fill="#191A39"/>
<path d="M48.2656 59.3737C48.2656 59.3737 47.9063 58.9914 47.1607 58.3531C46.4279 57.7005 45.258 56.8531 43.9426 55.5609C43.3005 54.907 42.6043 54.1243 42.1597 53.0794C41.7436 52.0474 41.4655 50.8427 41.4648 49.5464C41.4635 48.2575 41.7402 46.8358 42.5495 45.5786C43.3384 44.3004 44.7296 43.4281 46.0781 42.661C47.4516 41.8979 48.7845 41.0013 49.991 39.8459C50.5965 39.2749 51.1608 38.6493 51.7076 37.9759C52.2624 37.3058 52.8341 36.5926 53.5676 35.9859C54.3058 35.3758 55.1556 34.9552 55.95 34.5123C56.7531 34.0768 57.4717 33.555 58.1693 32.9429C59.5598 31.7383 60.8886 30.2343 62.6452 29.1982C66.192 27.0923 70.9832 26.9885 74.7026 29.2474C75.6207 29.8103 76.4834 30.5316 77.1283 31.4424C77.7724 32.3619 78.1635 33.3144 78.7244 34.1402C79.8679 35.8066 81.209 37.4757 82.4012 39.1906C84.8194 42.6199 87.0956 46.1381 89.3014 49.6172C90.3982 51.3605 91.4862 53.0896 92.5613 54.7978C93.6162 56.5363 94.6832 58.2021 95.4647 60.101C95.8172 61.0536 96.0757 62.0883 95.9113 63.1676C95.7678 64.2435 94.9782 65.2755 93.9234 65.6119C92.8868 65.9645 91.7954 65.8236 90.8691 65.3686C89.9733 64.9223 89.2655 64.2165 88.6897 63.4952C86.4853 60.5325 85.2646 57.3277 83.3254 54.905C82.8471 54.3016 82.3349 53.7482 81.7902 53.2561C81.2448 52.766 80.6467 52.3662 80.0574 51.9429C79.4734 51.5229 78.8983 51.0551 78.472 50.5016C78.0282 49.9475 77.7088 49.3597 77.4158 48.788C76.842 47.6387 76.3698 46.5628 75.6837 45.7039C75.0145 44.8552 74.2749 44.1501 73.6227 43.5111C72.2945 42.2511 71.354 41.1119 70.973 40.1964C70.7639 39.7515 70.6665 39.3828 70.6192 39.136C70.5711 38.888 70.5461 38.7599 70.5461 38.7599C70.5461 38.7599 70.5758 38.8866 70.6327 39.1333C70.6882 39.378 70.7991 39.7407 71.0224 40.1735C71.4311 41.0687 72.4041 42.1433 73.7594 43.3695C74.4312 43.9937 75.187 44.6719 75.9097 45.5381C76.633 46.3929 77.1601 47.5052 77.7521 48.6141C78.0532 49.1662 78.3847 49.7311 78.8029 50.2246C79.221 50.7369 79.7529 51.1447 80.3402 51.5452C80.9268 51.9382 81.5574 52.3527 82.142 52.8577C82.7219 53.3639 83.2666 53.9329 83.7734 54.551C85.8107 57.023 87.1193 60.2568 89.2682 63.0328C89.821 63.7001 90.4523 64.3021 91.2284 64.6709C91.9578 65.0187 92.876 65.1138 93.6365 64.8306C94.4004 64.559 94.9329 63.8599 95.054 63.0334C95.1812 62.1996 94.9694 61.2787 94.6379 60.4111C93.9213 58.6874 92.8293 56.9731 91.7819 55.2771C90.6986 53.5769 89.6025 51.8559 88.4975 50.1214C86.2789 46.6585 83.9831 43.1706 81.5716 39.7684C80.3855 38.0413 79.1067 36.4409 77.9016 34.666C77.3001 33.76 76.8921 32.7737 76.3427 31.9931C75.7913 31.2037 75.0388 30.562 74.2046 30.0436C70.837 27.9498 66.3409 28.034 63.1154 29.931C61.4563 30.8923 60.1856 32.3234 58.7018 33.5598C57.969 34.1833 57.155 34.7529 56.3214 35.1837C55.4953 35.6246 54.6888 36.0129 54.0263 36.5447C52.7123 37.6227 51.7414 39.1799 50.4267 40.309C49.1648 41.4806 47.7405 42.4015 46.3528 43.1416C44.9779 43.8973 43.7106 44.6705 42.9372 45.8334C42.1577 46.9713 41.8512 48.3108 41.8187 49.5491C41.7856 50.7989 42.019 51.9645 42.3972 52.9824C42.7931 53.9855 43.4534 54.7728 44.0712 55.4328C45.3405 56.7412 46.4773 57.6405 47.1904 58.3146C47.9198 58.98 48.2656 59.3737 48.2656 59.3737Z" fill="#191A39"/>
<path d="M66.229 36.4986C66.2074 36.4926 65.8603 36.169 65.6485 35.8488C65.4252 35.5373 65.2486 35.0958 65.252 35.0742C65.252 35.0742 65.39 35.0729 65.5605 35.1463C65.7304 35.2185 65.934 35.3634 66.068 35.5643C66.2074 35.7618 66.2676 36.0038 66.2737 36.1865C66.2811 36.3746 66.229 36.4986 66.229 36.4986Z" fill="#191A39"/>
<path d="M60.2746 36.2777C60.2746 36.2777 60.1812 36.2521 60.0222 36.2237C59.8693 36.1887 59.6386 36.1819 59.3794 36.2042C58.8604 36.2507 58.1926 36.5338 57.7143 36.9868C57.4477 37.2322 57.2521 37.4924 57.0654 37.7715C56.8901 38.0492 56.7291 38.3209 56.6181 38.569C56.3887 39.0732 56.2358 39.4096 56.2358 39.4096C56.2358 39.4096 56.2216 39.0308 56.3481 38.4753C56.4205 38.2023 56.5099 37.8753 56.6763 37.5511C56.8333 37.2295 57.083 36.8918 57.3556 36.6289C57.9565 36.0518 58.7914 35.8476 59.3828 35.9204C59.6812 35.9453 59.9085 36.0545 60.0581 36.1321C60.2042 36.2143 60.2746 36.2777 60.2746 36.2777Z" fill="#191A39"/>
<path d="M53.1792 42.004C53.1792 42.004 52.7854 42.0391 52.2949 42.2669C51.8043 42.4847 51.2299 42.9404 50.8435 43.5032C50.6297 43.8046 50.4822 44.1052 50.3482 44.42C50.2244 44.7308 50.1134 45.0315 50.0492 45.3004C49.9071 45.8343 49.8333 46.2118 49.8333 46.2118C49.8333 46.2118 49.742 45.837 49.7663 45.2573C49.7887 44.9708 49.8191 44.6283 49.9253 44.2744C50.0228 43.9252 50.2048 43.545 50.4179 43.2275C50.8814 42.5399 51.6196 42.122 52.2049 41.9986C52.4965 41.9265 52.7475 41.944 52.918 41.9575C53.0872 41.975 53.1792 42.004 53.1792 42.004Z" fill="#191A39"/>
<path d="M48.2656 48.9594C48.2656 48.9594 48.181 48.9129 48.0504 48.9459C47.9144 48.9715 47.7676 49.0915 47.5835 49.2573C47.388 49.4164 47.2121 49.6193 47.0159 49.8485C46.8278 50.0777 46.6336 50.3278 46.4793 50.6029C46.1565 51.1422 45.9218 51.7361 45.804 52.2086C45.7533 52.4446 45.6971 52.6468 45.6802 52.7917C45.6592 52.936 45.6403 53.0209 45.6403 53.0209C45.6403 53.0209 45.5192 52.6953 45.5205 52.1729C45.5198 51.6552 45.6734 50.9487 46.0429 50.3447C46.2256 50.044 46.4495 49.7676 46.6918 49.5438C46.9252 49.3187 47.2019 49.1454 47.4218 49.0241C47.6377 48.8899 47.886 48.8272 48.047 48.8475C48.2175 48.8724 48.2649 48.9675 48.2656 48.9594Z" fill="#191A39"/>
<path d="M80.9912 47.7582C80.9912 47.7582 80.9736 47.8168 81.0162 47.8425C81.048 47.8721 81.1428 47.8728 81.2287 47.8647C81.2862 47.8586 81.2821 47.8485 81.36 47.8189C81.4276 47.7939 81.4831 47.7622 81.5487 47.7427C81.6773 47.6942 81.8146 47.6422 81.952 47.591C82.224 47.4886 82.5041 47.3942 82.7254 47.316C82.946 47.2398 83.1178 47.1953 83.1178 47.1953C83.1178 47.1953 83.0556 47.3618 82.8871 47.5499C82.7206 47.7373 82.448 47.949 82.1293 48.0629C81.9696 48.1162 81.8065 48.1606 81.6489 48.1741C81.5704 48.1863 81.4872 48.1836 81.4208 48.1795C81.3667 48.1788 81.2327 48.1728 81.1746 48.1418C81.0318 48.0892 80.9391 47.9766 80.9229 47.8735C80.9262 47.7602 81.002 47.7622 80.9912 47.7582Z" fill="#191A39"/>
<path d="M84.5303 51.1191C84.5452 51.1009 84.8943 50.8529 85.19 50.7241C85.4816 50.5879 85.9011 50.4902 85.9241 50.4922C85.9241 50.4922 85.9241 50.6203 85.8429 50.7713C85.7644 50.9216 85.6061 51.0935 85.3991 51.1832C85.1947 51.2782 84.9599 51.2823 84.7948 51.2418C84.6236 51.2034 84.5303 51.1191 84.5303 51.1191Z" fill="#191A39"/>
<path d="M92.5553 59.217C92.5553 59.217 92.8449 59.2413 93.2408 59.5278C93.6359 59.8089 94.0743 60.3617 94.4336 61.1052C94.7902 61.8474 95.0453 62.8128 94.9553 63.863C94.9154 64.3767 94.6603 64.9881 94.0676 65.2018C93.5195 65.4189 92.8761 65.307 92.3835 65.0266C91.8821 64.7387 91.4863 64.3403 91.0999 63.9608C90.7129 63.5752 90.3624 63.1633 90.0782 62.7245C89.7974 62.2863 89.5741 61.8124 89.5396 61.3236C89.499 60.8302 89.7406 60.3887 90.0369 60.1015C90.6405 59.5184 91.3313 59.2925 91.8016 59.2164C92.0404 59.1739 92.2312 59.1827 92.3605 59.1887C92.487 59.2069 92.5553 59.217 92.5553 59.217ZM92.5553 59.217C92.5553 59.217 92.487 59.2083 92.3591 59.1921C92.2306 59.1881 92.0397 59.1827 91.8029 59.2285C91.3394 59.3148 90.6445 59.5426 90.0775 60.1392C89.8001 60.4325 89.5965 60.8545 89.6526 61.3142C89.704 61.7692 89.9355 62.2142 90.225 62.626C90.5214 63.0366 90.8773 63.4262 91.2589 63.801C91.6466 64.1711 92.0452 64.552 92.5066 64.8068C92.9606 65.0738 93.508 65.1668 93.985 64.9929C94.4607 64.8338 94.7212 64.3248 94.7801 63.8408C94.91 62.8411 94.7043 61.8751 94.3829 61.1288C94.0568 60.3779 93.617 59.8258 93.2333 59.5386C92.8449 59.2467 92.5553 59.217 92.5553 59.217Z" fill="#191A39"/>
<path d="M89.0215 57.75C89.0215 57.75 89.0458 57.5694 89.1845 57.3348C89.3178 57.1042 89.5641 56.8298 89.8801 56.6532C90.1927 56.4719 90.5554 56.3991 90.8233 56.4025C91.0933 56.4031 91.2665 56.4739 91.2665 56.4739C91.2665 56.4739 91.1055 56.5663 90.8883 56.6788C90.6684 56.7887 90.3991 56.9431 90.1318 57.0907C89.8686 57.2444 89.5973 57.3961 89.3909 57.5289C89.1852 57.6563 89.0215 57.75 89.0215 57.75Z" fill="#191A39"/>
<path d="M79.4375 51.6372C79.4375 51.6372 79.449 51.7525 79.4707 51.9682C79.4896 52.1846 79.537 52.4974 79.5235 52.9092C79.5295 53.3205 79.4835 53.8193 79.336 54.3856C79.1777 54.9417 78.8766 55.5814 78.3177 56.0877C77.7676 56.6034 77.0281 56.9297 76.3 57.2512C75.9374 57.4117 75.5686 57.5728 75.2303 57.7662C75.145 57.8087 75.0138 57.9098 74.7864 57.9355C74.5422 57.9469 74.4522 57.8997 74.3744 57.9011C74.3236 57.8991 74.1321 57.8903 73.9569 57.8094C73.8094 57.7474 73.6971 57.6699 73.5935 57.593C73.1835 57.2816 72.9 56.9303 72.5921 56.623C72.2816 56.3014 71.9669 55.9758 71.6503 55.6475C71.0312 54.9761 70.4019 54.2939 69.7733 53.611C67.2861 50.8599 64.9328 48.0051 63.1769 45.8553C62.2824 44.7956 61.5835 43.87 61.0659 43.2465C60.5625 42.6094 60.2749 42.2461 60.2749 42.2461C60.2749 42.2461 61.6735 43.475 63.6161 45.4677C64.5762 46.4735 65.7231 47.6242 66.8848 48.9124C68.0649 50.1858 69.2909 51.5705 70.5251 52.9457C71.1401 53.6339 71.7552 54.3215 72.3614 54.999C72.6639 55.3388 72.9643 55.6758 73.2613 56.0088C73.5692 56.3466 73.8432 56.6883 74.122 56.9108C74.1896 56.9661 74.2587 57.0106 74.3087 57.0362C74.3283 57.0524 74.3541 57.0631 74.5151 57.0908C74.871 57.1548 74.6193 57.1953 74.8764 57.1043C75.279 56.9081 75.6742 56.7679 76.0504 56.629C76.7946 56.358 77.4787 56.1019 77.9767 55.69C78.4848 55.2936 78.8198 54.7826 79.02 54.2797C79.2122 53.7741 79.3123 53.2935 79.3482 52.8991C79.4071 52.5055 79.4152 52.1839 79.4247 51.9682C79.4321 51.7525 79.4375 51.6372 79.4375 51.6372Z" fill="#191A39"/>
<path d="M72.6651 56.0402C72.6745 56.0381 72.6556 56.1696 72.7165 56.3941C72.7686 56.6199 72.9249 56.9226 73.1353 57.3095C73.3396 57.6958 73.565 58.2135 73.6116 58.8546C73.6563 59.4943 73.5 60.2129 73.2158 60.9315C73.0602 61.2888 72.9519 61.6542 72.6163 62.0418C72.2679 62.3964 71.8599 62.575 71.4647 62.7699C70.665 63.1426 69.8219 63.4831 68.9504 63.8491L68.7867 63.9172C68.7427 63.9334 68.7691 63.9293 68.6676 63.9624L68.5823 63.9893C68.4916 64.0278 68.311 64.0574 68.133 64.0722C67.8231 64.0797 67.5315 64.0311 67.2697 63.9388C66.7358 63.7662 66.2879 63.4851 65.8576 63.1912C65.0023 62.5986 64.2668 61.8827 63.5381 61.1971C62.0631 59.7673 60.7694 58.2196 59.5934 56.7433C58.4391 55.2616 57.3612 53.8789 56.4376 52.6938C55.4883 51.5364 54.7089 50.5569 54.1107 49.9158C53.5187 49.266 53.1797 48.8945 53.1797 48.8945C53.1797 48.8945 53.2792 48.9721 53.4652 49.117C53.6479 49.266 53.9348 49.4662 54.2616 49.7628C54.9321 50.3371 55.8754 51.1838 56.9011 52.2975C57.9377 53.4003 59.1076 54.7209 60.3174 56.1541C61.5299 57.5819 62.8452 59.0899 64.2262 60.4846C64.9502 61.1816 65.6525 61.8787 66.4022 62.4469C66.7764 62.724 67.1661 62.9795 67.5552 63.1177C67.9747 63.2593 68.2298 63.293 68.6662 63.113C69.5546 62.7995 70.4227 62.5056 71.2103 62.1928C71.5987 62.0344 71.9817 61.8719 72.2165 61.6528C72.4418 61.4445 72.6048 61.0515 72.7747 60.7381C73.1001 60.0882 73.2997 59.4444 73.3112 58.8613C73.3207 58.2775 73.1583 57.776 72.9892 57.3756C72.8254 56.9711 72.7023 56.6388 72.6759 56.4001C72.6407 56.1649 72.6745 56.0408 72.6651 56.0402Z" fill="#191A39"/>
<path d="M65.5196 62.4957C65.5196 62.4957 65.5466 62.6096 65.5974 62.8227C65.6346 63.039 65.6955 63.3606 65.6846 63.7792C65.6664 64.1938 65.5784 64.7115 65.3037 65.2434C65.0317 65.7733 64.5709 66.2991 63.9532 66.7096C63.3354 67.1195 62.5674 67.4066 61.7149 67.5172C60.8461 67.6217 59.9327 67.4612 59.0524 67.1309C58.1714 66.8006 57.3595 66.2357 56.6632 65.5454C55.9426 64.8578 55.4677 63.9599 54.9561 63.2527C54.4426 62.522 53.8397 62.0225 53.0257 61.769C52.2178 61.496 51.2997 61.3841 50.4085 61.0801C49.5289 60.7909 48.6899 60.263 48.1114 59.6442C47.5079 59.0274 47.0843 58.3142 46.8394 57.6124C46.5795 56.9086 46.5471 56.213 46.5775 55.64C46.6005 55.0663 46.6181 54.5809 46.568 54.1845C46.5146 53.7915 46.4117 53.4909 46.3082 53.3001C46.2081 53.1073 46.1309 53.0156 46.1309 53.0156C46.1052 53.0203 46.5545 53.3095 46.7751 54.1448C46.8827 54.5526 46.9314 55.0629 46.9835 55.6265C47.0417 56.186 47.1242 56.7954 47.3989 57.3947C47.6648 57.9953 48.0877 58.5912 48.6547 59.0827C49.2373 59.5788 49.8821 59.9698 50.688 60.2044C51.4783 60.4343 52.387 60.528 53.3404 60.8327C53.8221 60.9877 54.2978 61.2055 54.7315 61.5398C55.1551 61.8695 55.4886 62.2759 55.7708 62.6784C56.3344 63.5001 56.7485 64.2747 57.3405 64.9003C57.9231 65.5393 58.6295 66.0389 59.3684 66.4022C60.1059 66.748 60.9111 66.9678 61.656 66.9105C62.4132 66.8606 63.1196 66.6233 63.7069 66.3092C64.2955 65.991 64.7536 65.5582 65.0466 65.0978C65.3416 64.6367 65.4708 64.1601 65.5256 63.7651C65.5859 63.3673 65.5656 63.0465 65.5561 62.8294C65.5324 62.6117 65.5196 62.4957 65.5196 62.4957Z" fill="#191A39"/>
<path d="M155.725 69.2852C155.725 69.2852 155.684 69.486 155.614 69.8386C155.556 70.1763 155.487 70.7042 155.752 71.114C155.895 71.3217 156.057 71.4484 156.299 71.4558C156.468 71.4565 156.777 71.3392 157.135 71.1848C157.491 71.0298 158.018 70.8525 158.562 71.0028C159.045 71.1214 159.42 71.319 159.736 71.4154C160.068 71.5104 160.212 71.507 160.532 71.3405C160.827 71.2017 161.293 70.8828 161.822 70.897C162.398 70.934 162.698 71.1471 163.002 71.2333C163.294 71.3318 163.486 71.352 163.67 71.2084C163.86 71.0722 163.995 70.8363 164.077 70.628C164.16 70.415 164.199 70.2107 164.205 70.0415C164.227 69.697 164.13 69.5022 164.13 69.5022C164.13 69.5022 164.16 69.5447 164.217 69.6242C164.262 69.7092 164.338 69.8393 164.378 70.0247C164.418 70.2087 164.441 70.4419 164.404 70.7102C164.356 70.9745 164.279 71.2839 164.026 71.5765C163.776 71.8913 163.221 72.0018 162.841 71.9142C162.462 71.8428 162.073 71.7302 161.873 71.7551C161.611 71.7639 161.399 71.9445 161 72.1872C160.819 72.2931 160.528 72.4245 160.253 72.4522C159.961 72.4892 159.682 72.442 159.447 72.3753C158.979 72.2371 158.633 72.0254 158.33 71.9533C158.083 71.8771 157.801 71.9108 157.448 72.0288C157.094 72.134 156.685 72.3126 156.143 72.2061C155.672 72.1191 155.315 71.7032 155.214 71.3628C155.081 71.0129 155.099 70.6637 155.167 70.4035C155.229 70.1366 155.333 69.9316 155.42 69.7698C155.599 69.4496 155.725 69.2852 155.725 69.2852Z" fill="#191A39"/>
<path d="M170.778 58.2423C171.837 58.2423 172.695 57.3897 172.695 56.338C172.695 55.2862 171.837 54.4336 170.778 54.4336C169.719 54.4336 168.86 55.2862 168.86 56.338C168.86 57.3897 169.719 58.2423 170.778 58.2423Z" fill="#191A39"/>
<path d="M139.901 51.3229C139.901 51.3229 140.091 51.211 140.422 51.0148C140.579 50.9076 140.809 50.822 141.063 50.7067C141.32 50.5834 141.613 50.4944 141.936 50.3818C142.583 50.1695 143.361 49.9841 144.204 49.8762C145.048 49.7414 145.951 49.7198 146.854 49.7023C147.754 49.7084 148.668 49.6416 149.505 49.7502C150.336 49.8762 151.09 50.1149 151.715 50.3825C152.972 50.8914 153.714 51.5406 153.714 51.5406L153.667 51.7368C153.667 51.7368 152.711 51.9694 151.397 51.966C150.736 51.9747 149.982 51.9471 149.194 51.8298C148.409 51.7011 147.586 51.4334 146.741 51.3128C145.901 51.1948 145.053 51.0984 144.259 51.0613C143.465 51.0209 142.72 51.0249 142.085 51.0856C141.77 51.122 141.471 51.1436 141.226 51.2015C140.976 51.2561 140.751 51.2791 140.565 51.3417C140.194 51.4469 139.983 51.5076 139.983 51.5076L139.901 51.3229Z" fill="#191A39"/>
<path d="M154.294 57.4817C154.294 57.4817 154.148 57.3044 153.873 57.0442C153.597 56.7813 153.174 56.4463 152.619 56.1382C152.066 55.8342 151.37 55.551 150.621 55.3643C150.205 55.2517 149.83 55.1924 149.425 55.1317C149.017 55.0731 148.598 55.0374 148.18 55.0414C146.5 54.9962 144.831 55.4021 143.64 55.8935C143.039 56.1301 142.56 56.3917 142.216 56.571C141.879 56.7658 141.686 56.877 141.686 56.877C141.686 56.877 141.834 56.7078 142.092 56.4119C142.372 56.1389 142.786 55.7418 143.369 55.3805C143.943 55.007 144.673 54.6491 145.506 54.4037C145.922 54.2857 146.359 54.1705 146.813 54.1192C147.266 54.0592 147.732 54.0228 148.197 54.0329C148.663 54.0417 149.128 54.0936 149.579 54.1705C150.034 54.2419 150.494 54.3841 150.87 54.5136C151.71 54.8028 152.414 55.216 152.95 55.6643C153.489 56.1065 153.835 56.5777 154.032 56.9215C154.229 57.2707 154.294 57.4817 154.294 57.4817Z" fill="#191A39"/>
<path d="M154.294 57.4804C154.294 57.4804 153.6 57.9947 152.475 58.6115C151.359 59.2081 149.721 59.9766 147.86 59.9254C147.349 59.9085 146.939 59.7865 146.517 59.6813C146.106 59.5775 145.684 59.4198 145.311 59.2519C144.554 58.9129 143.922 58.5219 143.378 58.1774C142.84 57.8275 142.41 57.5093 142.12 57.2714C141.832 57.03 141.686 56.875 141.686 56.875C141.686 56.875 141.868 56.9862 142.205 57.1413C142.537 57.3037 143.02 57.5201 143.6 57.7696C144.176 58.019 144.865 58.2987 145.584 58.5455C145.948 58.6735 146.316 58.7403 146.718 58.8205C147.108 58.8933 147.532 58.9567 147.87 58.9526C149.429 58.9108 151.006 58.3459 152.22 58.0021C153.432 57.63 154.294 57.4804 154.294 57.4804Z" fill="#191A39"/>
<path d="M147.99 58.4248C149.083 58.4248 149.969 57.5454 149.969 56.4605C149.969 55.3756 149.083 54.4961 147.99 54.4961C146.897 54.4961 146.012 55.3756 146.012 56.4605C146.012 57.5454 146.897 58.4248 147.99 58.4248Z" fill="#191A39"/>
<path d="M112.632 121.001H33.0612C29.7193 121.001 27 118.301 27 114.981V62.2596C27 58.9396 29.7193 56.2398 33.0612 56.2398L41.6753 56.2748L45.4941 59.2935L33.0612 59.2665C31.4001 59.2665 30.0482 60.6094 30.0482 62.2596V114.981C30.0482 116.631 31.4001 117.973 33.0612 117.973H112.631C114.293 117.973 115.644 116.631 115.644 114.981V62.2596C115.644 60.6094 114.293 59.2665 112.631 59.2665L94.6406 59.2928L92.9016 56.2344L112.666 56.2404C115.974 56.2398 118.692 58.9403 118.692 62.2603V114.982C118.693 118.301 115.974 121.001 112.632 121.001Z" fill="#191A39"/>
<path d="M86.1429 59.2651H73.4813L73.3548 57.7517L72.5293 56.2383L74.7784 57.3452L77.2433 56.4756L84.6787 56.2383L86.1429 59.2651Z" fill="#191A39"/>
<path d="M52.7429 84.4876H48.2826V87.9H53.5853V89.7376H45.8711V77.793H53.5697V79.6394H48.2833V82.6419H52.7435V84.4876H52.7429Z" fill="#191A39"/>
<path d="M58.4582 83.6812H58.5076L59.8791 80.8594H62.6052L59.9123 85.2485L62.6959 89.7361H59.9786L58.5164 86.7909L57.0542 89.7361H54.3281L57.1118 85.2485L54.4114 80.8594H57.1205L58.4582 83.6812Z" fill="#191A39"/>
<path d="M68.4368 82.9218L67.5525 82.8968C67.1945 82.8968 66.9002 82.971 66.6688 83.1186C66.4374 83.2662 66.2608 83.4746 66.1397 83.7415V89.7384H63.7363V80.8624H65.9746L66.0815 82.1749C66.2906 81.7111 66.5619 81.3484 66.8948 81.0882C67.2284 80.8293 67.612 80.6992 68.0471 80.6992C68.1682 80.6992 68.2798 80.7093 68.3813 80.7275C68.4835 80.7464 68.587 80.77 68.6912 80.7976L68.4368 82.9218Z" fill="#191A39"/>
<path d="M74.963 89.7391C74.8744 89.5369 74.7986 89.3232 74.7357 89.0994C74.672 88.8749 74.6267 88.645 74.599 88.4097C74.3507 88.8425 74.0238 89.1998 73.6165 89.485C73.2085 89.7688 72.7241 89.9117 72.1625 89.9117C71.226 89.9117 70.5047 89.6724 69.9986 89.1931C69.4918 88.7151 69.2388 88.0626 69.2388 87.2368C69.2388 86.3665 69.5764 85.6924 70.251 85.2151C70.9249 84.7365 71.9101 84.4965 73.2038 84.4965H74.5584V83.7907C74.5584 83.364 74.4454 83.0337 74.2194 82.7984C73.9934 82.5631 73.6578 82.4458 73.2119 82.4458C72.8208 82.4458 72.519 82.5402 72.3073 82.729C72.0948 82.9184 71.9892 83.1766 71.9892 83.5042H69.6677L69.6515 83.455C69.6129 82.7061 69.9418 82.0589 70.638 81.5149C71.3343 80.9709 72.245 80.6992 73.3682 80.6992C74.442 80.6992 75.3101 80.9675 75.9739 81.5034C76.6376 82.0394 76.9692 82.8072 76.9692 83.8082V87.4747C76.9692 87.8907 77.0003 88.2817 77.0639 88.6484C77.1275 89.0151 77.2276 89.3785 77.3657 89.7391H74.963ZM72.7572 88.1401C73.1754 88.1401 73.5502 88.0356 73.8804 87.828C74.2106 87.6204 74.4366 87.3797 74.5584 87.1067V85.8515H73.2038C72.6916 85.8515 72.3045 85.9775 72.0434 86.229C71.7815 86.4804 71.6509 86.7898 71.6509 87.1559C71.6509 87.4565 71.7484 87.6959 71.9439 87.8732C72.1395 88.0504 72.4108 88.1401 72.7572 88.1401Z" fill="#191A39"/>
<path d="M81.6695 78.6843V80.8583H83.1811V82.5402H81.6695V87.0602C81.6695 87.4053 81.7426 87.6507 81.8887 87.7983C82.0349 87.9459 82.2257 88.0201 82.4625 88.0201C82.589 88.0201 82.6993 88.0134 82.7927 87.9992C82.8861 87.9857 82.9937 87.9628 83.1148 87.9291L83.313 89.6602C83.0701 89.7418 82.8353 89.8038 82.6066 89.8442C82.3779 89.8854 82.1289 89.9063 81.859 89.9063C81.0274 89.9063 80.3873 89.6798 79.9387 89.2254C79.4894 88.7711 79.2655 88.0518 79.2655 87.0676V82.5395H77.9609V80.8576H79.2661V78.6836H81.6695V78.6843Z" fill="#191A39"/>
<path d="M88.5412 89.9124C87.2083 89.9124 86.1676 89.5066 85.4186 88.6943C84.6696 87.8813 84.2954 86.8358 84.2954 85.5556V85.2273C84.2954 83.8993 84.6588 82.8099 85.3854 81.9626C86.1128 81.1152 87.1115 80.6932 88.3836 80.6993C89.5839 80.6993 90.5054 81.064 91.1469 81.794C91.7883 82.5241 92.109 83.5076 92.109 84.7433V85.9817H86.7813L86.7563 86.0309C86.7949 86.6376 86.9802 87.1303 87.3138 87.5078C87.6474 87.8854 88.1413 88.0734 88.7963 88.0734C89.3362 88.0734 89.7943 88.0195 90.1712 87.9096C90.5481 87.8004 90.9378 87.6326 91.3397 87.4088L91.992 88.8851C91.6341 89.1749 91.1496 89.4183 90.5386 89.6151C89.929 89.814 89.2625 89.9124 88.5412 89.9124ZM88.3842 82.5457C87.8998 82.5457 87.5263 82.7115 87.2651 83.0425C87.0039 83.3728 86.8456 83.8123 86.7901 84.3591L86.8064 84.3995H89.747V84.2195C89.747 83.7004 89.6394 83.2913 89.4242 82.994C89.2104 82.6947 88.8633 82.5457 88.3842 82.5457Z" fill="#191A39"/>
<path d="M98.3457 87.2779C98.3457 87.0157 98.2178 86.7898 97.962 86.6018C97.7063 86.4123 97.2306 86.2472 96.5371 86.1049C95.491 85.8973 94.696 85.5825 94.154 85.1619C93.612 84.7399 93.3407 84.1689 93.3407 83.4476C93.3407 82.6872 93.6655 82.0394 94.3157 81.5034C94.9653 80.9675 95.83 80.6992 96.9092 80.6992C98.0378 80.6992 98.9425 80.9675 99.6232 81.5034C100.302 82.0394 100.629 82.7067 100.602 83.5049L100.585 83.5541H98.2564C98.2564 83.1982 98.1407 82.909 97.91 82.6838C97.6785 82.46 97.3456 82.3481 96.9106 82.3481C96.5249 82.3481 96.2197 82.4438 95.9938 82.636C95.7678 82.8274 95.6548 83.0613 95.6548 83.3404C95.6548 83.6141 95.7718 83.8372 96.0059 84.0098C96.2394 84.1824 96.715 84.3367 97.4309 84.4729C98.527 84.692 99.343 85.0129 99.8803 85.4376C100.417 85.8616 100.685 86.4447 100.685 87.1883C100.685 87.9864 100.341 88.6396 99.6529 89.1493C98.9641 89.6575 98.0561 89.9117 96.9268 89.9117C95.738 89.9117 94.7968 89.6124 94.106 89.0131C93.4151 88.4151 93.0863 87.7323 93.1195 86.9665L93.1357 86.9173H95.3408C95.3577 87.3932 95.5147 87.7383 95.8124 87.9507C96.1095 88.1644 96.4978 88.2709 96.9769 88.2709C97.4228 88.2709 97.7631 88.1819 97.9966 88.0039C98.2286 87.8266 98.3457 87.584 98.3457 87.2779Z" fill="#191A39"/>
<path d="M48.8049 103.127H47.2379V96.6982H45.6167V95.5056L48.8049 95.2266V103.127Z" fill="#191A39"/>
<path d="M56.7418 96.5406C55.8554 97.5706 55.2519 98.4982 54.9325 99.324C54.6132 100.148 54.4535 101.095 54.4535 102.161V103.123H52.881V102.161C52.881 101.077 53.0813 100.088 53.4819 99.1946C53.8817 98.302 54.4643 97.4169 55.2289 96.5399H51.228V95.3359H56.7418V96.5406Z" fill="#191A39"/>
<path d="M59.5217 103.126H57.9492V101.758H59.5217V103.126Z" fill="#191A39"/>
<path d="M66.1986 100.307C66.1986 101.22 65.957 101.936 65.4746 102.457C64.9915 102.978 64.3514 103.238 63.555 103.238C62.7512 103.238 62.1064 102.978 61.6219 102.457C61.1374 101.936 60.8945 101.219 60.8945 100.307V98.1623C60.8945 97.2536 61.1361 96.5364 61.6185 96.0126C62.1009 95.4881 62.7431 95.2266 63.5435 95.2266C64.3406 95.2266 64.982 95.4888 65.4685 96.0126C65.955 96.537 66.1986 97.2543 66.1986 98.1623V100.307ZM64.6308 98.0012C64.6308 97.5024 64.5348 97.1154 64.3426 96.8417C64.1504 96.5667 63.8838 96.4299 63.5428 96.4299C63.1978 96.4299 62.9318 96.5667 62.7431 96.8417C62.5543 97.1154 62.4602 97.503 62.4602 98.0012V100.457C62.4602 100.967 62.5556 101.358 62.7458 101.631C62.9366 101.904 63.2059 102.04 63.5537 102.04C63.8947 102.04 64.1592 101.904 64.348 101.631C64.5368 101.358 64.6308 100.967 64.6308 100.457V98.0012Z" fill="#191A39"/>
<path d="M72.3972 97.3608C72.3972 97.7464 72.2964 98.0868 72.0954 98.3848C71.8945 98.6834 71.6184 98.916 71.2659 99.0832C71.6935 99.2578 72.0325 99.5079 72.2835 99.8341C72.5353 100.16 72.6604 100.534 72.6604 100.955C72.6604 101.675 72.408 102.235 71.904 102.636C71.3992 103.038 70.7537 103.238 69.9675 103.238C69.1454 103.238 68.4708 103.038 67.943 102.636C67.4153 102.235 67.1514 101.674 67.1514 100.955C67.1514 100.534 67.2813 100.16 67.5418 99.8341C67.8023 99.5079 68.1548 99.2578 68.6 99.0832C68.2306 98.9153 67.9403 98.6834 67.7306 98.3848C67.5208 98.0875 67.4152 97.7464 67.4152 97.3608C67.4152 96.6759 67.6507 96.1501 68.121 95.78C68.5912 95.4113 69.2036 95.2266 69.9573 95.2266C70.6786 95.2266 71.2652 95.4119 71.7179 95.78C72.1712 96.1494 72.3972 96.6759 72.3972 97.3608ZM71.0886 100.88C71.0886 100.534 70.9797 100.25 70.7625 100.028C70.546 99.8052 70.2774 99.6933 69.958 99.6933C69.6055 99.6933 69.3139 99.8045 69.0797 100.028C68.8463 100.25 68.7299 100.534 68.7299 100.88C68.7299 101.234 68.8456 101.515 69.077 101.725C69.3084 101.936 69.6055 102.041 69.9681 102.041C70.2916 102.041 70.5588 101.936 70.7706 101.725C70.9831 101.515 71.0886 101.233 71.0886 100.88ZM70.8302 97.4302C70.8302 97.1229 70.749 96.8802 70.5879 96.7002C70.4262 96.5195 70.2165 96.4299 69.958 96.4299C69.663 96.4299 69.4282 96.5175 69.2523 96.6941C69.0764 96.8707 68.9884 97.1161 68.9884 97.4302C68.9884 97.7478 69.0784 98.0026 69.257 98.1981C69.4363 98.3922 69.6738 98.4886 69.9681 98.4886C70.2266 98.4886 70.435 98.3929 70.5933 98.2001C70.751 98.008 70.8302 97.7511 70.8302 97.4302Z" fill="#191A39"/>
<path d="M75.3855 103.126H73.813V101.758H75.3855V103.126Z" fill="#191A39"/>
<path d="M82.138 103.127H76.8772V102.105L79.3063 99.3771C79.669 98.9531 79.9261 98.5938 80.079 98.2999C80.2319 98.0053 80.3084 97.7349 80.3084 97.4889C80.3084 97.1687 80.2272 96.9112 80.0655 96.7191C79.9044 96.5263 79.6615 96.4305 79.3388 96.4305C78.9978 96.4305 78.7339 96.5539 78.5471 96.7993C78.3604 97.0453 78.267 97.3581 78.267 97.7356H76.7378L76.727 97.7033C76.7094 97.0123 76.9388 96.4265 77.4165 95.9472C77.8935 95.4672 78.5349 95.2266 79.3388 95.2266C80.1426 95.2266 80.7678 95.4315 81.2123 95.8393C81.6576 96.2472 81.8802 96.7959 81.8802 97.4842C81.8802 97.9513 81.7557 98.3767 81.506 98.7623C81.2563 99.1479 80.8267 99.6804 80.2164 100.361L78.924 101.902L78.9348 101.928H82.1386V103.127H82.138Z" fill="#191A39"/>
<path d="M88.3905 100.307C88.3905 101.22 88.1489 101.936 87.6665 102.457C87.1834 102.978 86.5433 103.238 85.7469 103.238C84.9431 103.238 84.2983 102.978 83.8138 102.457C83.3293 101.936 83.0864 101.219 83.0864 100.307V98.1623C83.0864 97.2536 83.328 96.5364 83.8104 96.0126C84.2928 95.4888 84.935 95.2266 85.7354 95.2266C86.5325 95.2266 87.1739 95.4888 87.6604 96.0126C88.1469 96.537 88.3905 97.2543 88.3905 98.1623V100.307ZM86.8234 98.0012C86.8234 97.5024 86.7273 97.1154 86.5352 96.8417C86.343 96.5667 86.0764 96.4299 85.7354 96.4299C85.3903 96.4299 85.1244 96.5667 84.9356 96.8417C84.7469 97.1154 84.6528 97.503 84.6528 98.0012V100.457C84.6528 100.967 84.7482 101.358 84.9383 101.631C85.1291 101.904 85.3984 102.04 85.7462 102.04C86.0872 102.04 86.3518 101.904 86.5406 101.631C86.7294 101.358 86.8234 100.967 86.8234 100.457V98.0012Z" fill="#191A39"/>
<path d="M93.1887 103.127H91.6217V96.6982H90.0005V95.5056L93.1887 95.2266V103.127Z" fill="#191A39"/>
<path d="M100.915 97.3608C100.915 97.7464 100.814 98.0868 100.614 98.3848C100.413 98.6834 100.136 98.916 99.784 99.0832C100.212 99.2578 100.551 99.5079 100.802 99.8341C101.053 100.16 101.178 100.534 101.178 100.955C101.178 101.675 100.926 102.235 100.422 102.636C99.9173 103.038 99.2718 103.238 98.4855 103.238C97.6634 103.238 96.9888 103.038 96.4611 102.636C95.9333 102.235 95.6694 101.674 95.6694 100.955C95.6694 100.534 95.7993 100.16 96.0598 99.8341C96.3203 99.5079 96.6729 99.2578 97.1181 99.0832C96.7486 98.9153 96.4584 98.6834 96.2486 98.3848C96.0389 98.0875 95.9333 97.7464 95.9333 97.3608C95.9333 96.6759 96.1688 96.1501 96.639 95.78C97.1093 95.4113 97.7216 95.2266 98.4754 95.2266C99.1967 95.2266 99.7833 95.4119 100.236 95.78C100.689 96.1494 100.915 96.6759 100.915 97.3608ZM99.6067 100.88C99.6067 100.534 99.4978 100.25 99.2806 100.028C99.0641 99.8052 98.7954 99.6933 98.4761 99.6933C98.1235 99.6933 97.8319 99.8045 97.5978 100.028C97.3644 100.25 97.248 100.534 97.248 100.88C97.248 101.234 97.3637 101.515 97.5951 101.725C97.8265 101.936 98.1235 102.041 98.4862 102.041C98.8096 102.041 99.0769 101.936 99.2887 101.725C99.5011 101.515 99.6067 101.233 99.6067 100.88ZM99.3482 97.4302C99.3482 97.1229 99.267 96.8802 99.106 96.7002C98.9443 96.5195 98.7345 96.4299 98.4761 96.4299C98.1811 96.4299 97.9463 96.5175 97.7703 96.6941C97.5944 96.8707 97.5065 97.1161 97.5065 97.4302C97.5065 97.7478 97.5965 98.0026 97.7751 98.1981C97.9544 98.3922 98.1919 98.4886 98.4862 98.4886C98.7447 98.4886 98.9531 98.3929 99.1114 98.2001C99.2691 98.008 99.3482 97.7511 99.3482 97.4302Z" fill="#191A39"/>
</svg>
