<svg width="211" height="127" viewBox="0 0 211 127" fill="none" xmlns="http://www.w3.org/2000/svg">
<rect width="211" height="126.841" fill="black" fill-opacity="0"/>
<rect width="106.303" height="75.3653" fill="black" fill-opacity="0" transform="translate(0 51.4746)"/>
<path d="M99.2755 126.84H7.02708C3.1525 126.84 0 123.698 0 119.835V58.4861C0 54.6232 3.1525 51.4809 7.02708 51.4809L17.0136 51.5215L21.4407 55.0343L7.02708 55.003C5.10073 55.003 3.53386 56.5652 3.53386 58.4861V119.835C3.53386 121.756 5.10073 123.317 7.02708 123.317H99.2755C101.202 123.317 102.769 121.756 102.769 119.835V58.4861C102.769 56.5652 101.202 55.003 99.2755 55.003L78.4185 55.0335L76.4023 51.4746L99.3154 51.4816C103.151 51.4809 106.303 54.6232 106.303 58.4861V119.835C106.303 123.698 103.151 126.84 99.2755 126.84Z" fill="#020202"/>
<path d="M105.223 97.8787C105.223 97.8787 105.79 97.8037 106.791 97.8701C107.788 97.9389 109.209 98.1233 110.884 98.5023C111.714 98.6961 112.629 98.9642 113.55 99.2565C114.459 99.5268 115.447 99.7332 116.441 99.7691C117.436 99.8168 118.437 99.6261 119.287 99.1119C120.151 98.6063 120.941 97.7912 121.787 97.0308C123.471 95.5147 125.161 94.0065 126.771 92.6185C127.576 91.9215 128.362 91.2721 129.123 90.6414C129.889 90.0193 130.681 89.4582 131.51 89.1199C132.35 88.7916 133.155 88.6994 133.841 88.6158C134.535 88.5376 135.14 88.5056 135.638 88.4837C136.635 88.4579 137.203 88.4853 137.203 88.4853C137.203 88.4853 136.636 88.5291 135.654 88.6713C135.164 88.7369 134.568 88.8237 133.896 88.962C133.225 89.1097 132.465 89.259 131.752 89.6364C130.307 90.378 129.011 91.9183 127.454 93.3664C125.917 94.8333 124.252 96.3697 122.579 97.8982C121.731 98.6336 120.928 99.4675 119.854 100.09C118.767 100.713 117.498 100.873 116.38 100.775C115.247 100.676 114.228 100.348 113.293 99.9981C112.381 99.6292 111.538 99.3362 110.724 99.0884C109.115 98.575 107.741 98.2343 106.767 98.0733C105.795 97.8889 105.223 97.8787 105.223 97.8787Z" fill="#020202"/>
<path d="M172.852 87.7734C172.852 87.7734 173.041 87.7437 173.395 87.689C173.752 87.6476 174.281 87.614 174.955 87.6562C175.628 87.6984 176.442 87.825 177.348 88.086C178.235 88.3533 179.298 88.7299 180.178 89.5341C181.996 90.972 183.791 93.0625 185.375 95.4772C186.167 96.6854 186.914 97.967 187.689 99.2479C188.479 100.487 189.159 102.008 190.208 102.602C190.73 102.886 191.245 102.815 191.988 102.591C192.691 102.357 193.75 102.192 194.594 102.604C195.446 102.983 196.011 103.637 196.472 104.245C196.933 104.867 197.31 105.492 197.706 106.066C198.492 107.227 199.349 108.143 200.557 108.344C201.159 108.478 201.82 108.536 202.46 108.734C203.097 108.923 203.657 109.211 204.164 109.507C205.178 110.103 206.001 110.736 206.8 111.18C207.587 111.61 208.363 111.849 209.01 111.908C209.658 111.967 210.177 111.873 210.508 111.745C210.841 111.621 211 111.509 211 111.509C211 111.509 210.857 111.638 210.534 111.806C210.215 111.973 209.689 112.152 208.998 112.145C208.308 112.143 207.479 111.971 206.593 111.586C205.716 111.211 204.82 110.622 203.834 110.102C203.338 109.847 202.812 109.617 202.255 109.485C201.702 109.343 201.078 109.323 200.391 109.212C199.708 109.118 198.925 108.822 198.34 108.333C197.745 107.851 197.276 107.264 196.843 106.673C195.985 105.526 195.239 104.142 194.14 103.652C193.588 103.41 193.038 103.478 192.309 103.71C191.942 103.814 191.542 103.941 191.043 103.962C190.578 103.981 190.061 103.851 189.652 103.623C188.821 103.15 188.32 102.44 187.891 101.782C187.472 101.11 187.101 100.465 186.727 99.8066C185.99 98.4938 185.274 97.2082 184.55 95.9915C183.837 94.7669 183.091 93.6244 182.298 92.6045C181.506 91.5777 180.673 90.6938 179.863 89.892C179.106 89.0589 178.12 88.683 177.262 88.3611C176.393 88.0555 175.599 87.9 174.942 87.807C174.283 87.7187 173.758 87.7132 173.401 87.7289C173.043 87.7578 172.852 87.7734 172.852 87.7734Z" fill="#020202"/>
<path d="M128.29 92.7851C128.313 92.7968 128.158 92.7382 128.159 92.8992C128.172 93.0375 128.276 93.2243 128.422 93.4509C128.722 93.9034 129.234 94.5176 129.929 95.2561C131.32 96.7229 133.444 98.7446 136.362 100.603C137.091 101.066 137.869 101.514 138.706 101.904C139.124 102.099 139.556 102.279 140.002 102.434C140.486 102.636 140.922 102.784 141.392 103.011C143.28 103.917 144.981 105.258 146.574 106.799C148.146 108.355 149.601 110.091 151.137 111.766C152.673 113.422 154.311 115.082 156.175 116.288C156.621 116.568 157.008 116.668 157.36 116.55C157.734 116.435 158.127 116.101 158.489 115.707C159.248 114.837 160.005 113.971 160.755 113.111C162.29 111.409 163.799 109.733 165.261 108.111C168.18 104.87 170.956 101.901 173.219 99.2589C175.463 96.6089 177.295 94.3363 178.662 92.8218C180.01 91.2924 180.83 90.4648 180.83 90.4648C180.83 90.4648 180.117 91.3839 178.869 92.9921C177.616 94.5942 175.974 96.9879 173.798 99.7356C171.631 102.486 168.951 105.562 166.045 108.812C164.605 110.447 163.117 112.135 161.605 113.852C160.859 114.726 160.108 115.607 159.354 116.491C158.94 116.941 158.447 117.435 157.697 117.666C156.913 117.921 156.085 117.61 155.57 117.261C153.53 115.906 151.901 114.188 150.346 112.481C148.812 110.76 147.377 109.033 145.88 107.486C144.398 105.941 142.781 104.592 141.084 103.7C140.663 103.475 140.167 103.283 139.761 103.094C139.294 102.916 138.846 102.715 138.417 102.5C137.558 102.07 136.769 101.588 136.04 101.091C133.149 99.0557 131.117 96.9277 129.783 95.3866C129.124 94.6059 128.652 93.9534 128.377 93.4798C128.244 93.2422 128.149 93.0476 128.144 92.9015C128.158 92.7249 128.314 92.7991 128.29 92.7851Z" fill="#020202"/>
<path d="M151.346 106.596C151.346 106.596 151.498 106.669 151.753 106.811C152.015 106.959 152.357 107.122 152.795 107.294C153.008 107.388 153.25 107.458 153.498 107.542C153.743 107.632 154.021 107.673 154.289 107.753C154.844 107.862 155.437 107.948 156.035 107.966C156.633 107.988 157.229 107.94 157.791 107.868C158.063 107.805 158.343 107.782 158.594 107.709C158.846 107.642 159.093 107.587 159.311 107.508C159.756 107.369 160.128 107.214 160.386 107.094C160.644 106.974 160.805 106.908 160.805 106.908C160.805 106.908 160.713 107.045 160.529 107.279C160.344 107.508 160.045 107.823 159.618 108.109C159.202 108.42 158.646 108.676 158.023 108.876C157.706 108.95 157.38 109.058 157.036 109.08C156.696 109.132 156.346 109.128 155.996 109.139C155.649 109.103 155.298 109.086 154.962 109.01C154.621 108.964 154.303 108.835 153.993 108.741C153.385 108.5 152.846 108.209 152.452 107.87C152.048 107.56 151.751 107.211 151.596 106.981C151.432 106.741 151.346 106.596 151.346 106.596Z" fill="#020202"/>
<path d="M137.791 83.3531L136.46 101.309L136.614 83.3047L137.791 83.3531Z" fill="#020202"/>
<path d="M173.167 80.3633C173.167 80.3633 173.15 80.6665 173.123 81.1964C173.102 81.7223 173.084 82.4553 173.088 83.3634C173.091 85.1702 173.195 87.592 173.304 90.0154C173.412 92.4395 173.517 94.8676 173.52 96.6908C173.535 98.514 173.441 99.7253 173.441 99.7253C173.441 99.7253 173.462 98.5109 173.336 96.697C173.222 94.8832 172.972 92.4716 172.716 90.0591C172.461 87.6459 172.209 85.228 172.095 83.3978C172.035 82.4881 172.006 81.7043 171.996 81.1698C171.992 80.6392 171.99 80.3359 171.99 80.3359L173.167 80.3633Z" fill="#020202"/>
<path d="M125.482 49.4574C125.482 49.4574 125.482 48.9659 125.18 48.1899C124.883 47.4311 124.311 46.3276 123.165 45.5266C122.899 45.332 122.534 45.1413 122.257 45.0304C122.025 44.9702 121.653 45.1601 121.331 45.3422C121.001 45.5391 120.676 45.7853 120.38 46.0611C120.235 46.2002 120.091 46.3471 119.98 46.4995C119.849 46.6847 119.831 46.7129 119.771 46.9747C119.587 47.739 119.756 48.5791 120.053 49.4051C120.368 50.2335 120.813 51.0587 121.236 51.9293C121.674 52.7944 122.04 53.7423 122.308 54.6637C122.592 55.5897 122.779 56.522 122.918 57.4254C123.075 58.3218 123.101 59.2213 123.171 60.027C123.242 60.8116 123.41 61.536 123.712 62.1253C124.024 62.7043 124.454 63.1537 124.938 63.4233C125.413 63.7093 125.907 63.8219 126.31 63.8969C126.719 63.9586 127.045 63.9961 127.27 63.993C127.495 64.0032 127.616 64.0078 127.616 64.0078C127.614 63.9813 127.145 64.1274 126.287 64.1063C125.862 64.0805 125.329 64.0305 124.759 63.7804C124.193 63.5452 123.583 63.1005 123.171 62.4355C122.764 61.7712 122.517 60.9702 122.376 60.127C122.252 59.301 122.074 58.4773 121.9 57.6106C121.716 56.7502 121.483 55.8742 121.21 55.0005C120.927 54.1213 120.593 53.282 120.194 52.4263C119.788 51.5737 119.349 50.693 119.059 49.7349C118.752 48.7901 118.662 47.7022 119.012 46.7371C119.052 46.6418 119.079 46.5245 119.165 46.3706C119.24 46.2338 119.32 46.1307 119.403 46.0361C119.567 45.8431 119.743 45.6899 119.92 45.5407C120.277 45.2507 120.648 45.0077 121.04 44.8084C121.434 44.6341 121.854 44.4169 122.39 44.5646C122.819 44.7678 123.104 44.9631 123.406 45.207C124.57 46.1674 125.081 47.3443 125.303 48.1485C125.532 48.9698 125.482 49.4574 125.482 49.4574Z" fill="#020202"/>
<path d="M122.158 44.8083C122.158 44.8083 121.806 43.7642 121.303 41.902C120.819 40.0358 120.141 37.36 119.618 34.084C119.367 32.4429 119.155 30.6557 119.085 28.741C119.028 26.8327 119.104 24.7711 119.682 22.708C120.244 20.6394 121.421 18.6388 123.016 17.0665C124.607 15.4699 126.52 14.2313 128.46 13.1403C130.415 12.058 132.387 11.0944 134.379 10.1676C136.373 9.25714 138.416 8.47332 140.495 8.02475C142.564 7.57149 144.69 7.4824 146.608 7.89971C148.503 8.25763 150.264 8.89375 151.74 9.70884C153.228 10.5114 154.454 11.482 155.398 12.4636C156.351 13.4412 157.04 14.4102 157.56 15.2277C158.075 16.0506 158.402 16.7398 158.612 17.2118C158.817 17.6862 158.927 17.9386 158.927 17.9386C158.927 17.9386 158.796 17.6964 158.551 17.2423C158.304 16.7898 157.912 16.1428 157.359 15.3613C156.261 13.8085 154.338 11.7602 151.421 10.3184C149.968 9.59084 148.295 9.05708 146.45 8.78122C144.637 8.47722 142.683 8.58819 140.719 9.03208C138.754 9.48143 136.79 10.2582 134.847 11.1749C132.907 12.09 130.946 13.1309 129.023 14.1531C127.114 15.1956 125.275 16.3632 123.779 17.8308C122.27 19.2937 121.191 21.0771 120.646 22.9886C120.076 24.8985 119.893 26.8647 119.891 28.7293C119.888 30.5963 120.036 32.3734 120.232 34.002C120.614 37.2662 121.116 39.9725 121.506 41.8551C121.892 43.7392 122.158 44.8083 122.158 44.8083Z" fill="#020202"/>
<path d="M126.964 14.5626C127.783 14.0562 128.414 13.3271 129.055 12.6246C129.695 11.9173 130.297 11.1749 130.9 10.4341L134.463 5.93117C135.063 5.1872 135.757 4.45886 136.501 3.83367C137.242 3.19754 138.038 2.62316 138.878 2.11285C140.553 1.08286 142.452 0.3889 144.434 0.122415C145.406 -0.00652932 146.434 -0.041696 147.422 0.0559892C148.418 0.149767 149.407 0.352171 150.361 0.674141C151.31 1.0094 152.214 1.4775 153.044 2.05189C153.255 2.20428 153.437 2.3387 153.663 2.52L154.204 2.99358C154.577 3.35462 154.928 3.7227 155.243 4.09859C156.51 5.61936 157.518 7.29876 158.365 9.04146C159.194 10.7943 159.886 12.6019 160.418 14.4626L159.757 14.4954C160.067 13.088 160.317 11.6649 160.426 10.2254C160.528 8.7867 160.483 7.3308 160.221 5.896C160.651 7.29329 160.81 8.76951 160.819 10.2387C160.833 11.7102 160.689 13.1825 160.426 14.6298L160.193 15.9162L159.766 14.6627C159.158 12.8754 158.391 11.1374 157.501 9.47597C156.621 7.81376 155.637 6.19531 154.424 4.79958C154.118 4.44713 153.802 4.12985 153.484 3.82742L152.937 3.36556L152.403 2.97951C151.65 2.47624 150.827 2.08393 149.971 1.77837C149.115 1.47125 148.218 1.26963 147.309 1.16647C146.392 1.06097 145.49 1.07192 144.562 1.17663C142.738 1.38451 140.961 2.01751 139.309 2.87245C138.486 3.31008 137.693 3.81491 136.948 4.38383C136.184 4.94337 135.537 5.58966 134.914 6.31722L131.145 10.6419C130.506 11.3554 129.867 12.0705 129.189 12.7512C128.504 13.4131 127.812 14.1117 126.964 14.5626Z" fill="#020202"/>
<path d="M162.546 16.1763C162.546 16.1763 162.592 15.952 162.699 15.5628C162.812 15.176 162.987 14.6258 163.314 13.9936C163.484 13.6818 163.685 13.3434 163.975 13.0183C164.286 12.6838 164.621 12.4166 165.029 12.1681C165.836 11.6968 166.747 11.4288 167.604 11.1678C169.342 10.6465 171.109 10.2237 172.457 9.9846C173.13 9.858 173.697 9.78376 174.101 9.73609C174.532 9.66966 174.758 9.84003 174.745 9.8369C174.745 9.8369 174.508 9.78141 174.166 9.96897C173.807 10.144 173.287 10.391 172.654 10.6489C171.391 11.1787 169.677 11.7812 167.934 12.2853C167.055 12.5416 166.199 12.7385 165.49 13.0527C165.147 13.1981 164.79 13.3919 164.544 13.6029C164.274 13.8209 164.034 14.0772 163.831 14.3312C163.416 14.8384 163.108 15.3166 162.889 15.648C162.671 15.9848 162.546 16.1763 162.546 16.1763Z" fill="#020202"/>
<path d="M163.331 18.183C163.331 18.183 163.381 18.126 163.474 18.0181C163.562 17.9118 163.719 17.754 163.944 17.6C164.389 17.2859 165.121 16.9444 166.042 16.7638C166.963 16.5693 168.04 16.513 169.179 16.4731C169.747 16.4591 170.387 16.477 170.987 16.5544C171.597 16.6349 172.208 16.7466 172.808 16.8787C173.406 17.0209 173.994 17.1843 174.566 17.3429C175.162 17.4898 175.8 17.8173 176.281 18.1252C176.782 18.437 177.22 18.7613 177.637 19.0497C178.052 19.3419 178.454 19.5756 178.833 19.7757C179.595 20.1641 180.302 20.3336 180.811 20.3844C181.065 20.4259 181.268 20.4102 181.407 20.4173C181.547 20.4196 181.622 20.4204 181.622 20.4204L181.651 20.6408C181.651 20.6408 181.576 20.6548 181.433 20.6798C181.29 20.7009 181.081 20.7572 180.807 20.7666C180.265 20.8268 179.445 20.7892 178.541 20.461C177.633 20.1516 176.694 19.5522 175.752 19.0215C175.263 18.7511 174.835 18.5753 174.276 18.4362C173.704 18.2994 173.124 18.1596 172.544 18.0205C171.97 17.879 171.395 17.7602 170.829 17.6719C170.254 17.582 169.727 17.5102 169.163 17.4883C168.041 17.4351 167.002 17.3718 166.125 17.4117C165.248 17.4484 164.523 17.5789 164.052 17.7915C163.581 17.9853 163.331 18.183 163.331 18.183Z" fill="#020202"/>
<path d="M148.607 0.544754C148.607 0.544754 149.709 0.398617 151.654 0.306402C153.598 0.225128 156.381 0.165736 159.723 0.398617C161.39 0.553351 163.204 0.72684 165.091 1.26684C167.009 1.78497 168.755 2.95641 170.558 3.87621C171.463 4.33572 172.394 4.7585 173.377 4.95075C174.344 5.16956 175.44 5.10235 176.612 5.37744C177.856 5.63845 178.847 6.47854 179.584 7.35615C180.328 8.24313 180.966 9.13636 181.594 10.0874C184.092 13.8612 185.521 18.2328 186.332 22.3325C186.753 24.3862 187.016 26.3915 187.195 28.2928C187.278 29.2431 187.359 30.1676 187.436 31.0624C187.505 31.9541 187.564 32.8754 187.338 33.7546C187.237 34.1938 187.004 34.6431 186.686 34.9643C186.377 35.2871 185.899 35.5684 185.374 35.4715C184.859 35.3793 184.55 34.9503 184.367 34.6564C184.172 34.343 184 34.0422 183.839 33.7288C183.215 32.5003 182.882 31.3414 182.713 30.3794C182.532 29.4166 182.534 28.6445 182.541 28.1256C182.552 27.6051 182.585 27.33 182.585 27.33C182.585 27.33 182.575 27.6075 182.608 28.1248C182.641 28.6406 182.717 29.3978 182.947 30.3301C183.172 31.2609 183.568 32.3675 184.243 33.5084C184.58 34.0125 184.981 34.8346 185.474 34.8893C185.975 34.9643 186.561 34.2907 186.673 33.5983C186.836 32.8528 186.76 32.0197 186.656 31.1374C186.544 30.252 186.429 29.3377 186.311 28.3968C186.042 26.522 185.744 24.5503 185.318 22.5411C184.894 20.5343 184.323 18.4798 183.556 16.4924C182.792 14.4754 181.779 12.5538 180.624 10.7095C180.045 9.80375 179.401 8.88472 178.736 8.07198C178.077 7.2655 177.283 6.61296 176.356 6.41368C175.399 6.16517 174.29 6.21128 173.164 5.95495C172.043 5.71425 171.029 5.24615 170.099 4.73818C168.247 3.69881 166.646 2.52815 164.87 1.98502C163.101 1.41845 161.304 1.18635 159.667 0.98551C156.377 0.596332 153.598 0.515058 151.66 0.501773C149.718 0.475984 148.607 0.544754 148.607 0.544754Z" fill="#020202"/>
<path d="M186.79 30.8047C186.719 30.8992 186.794 31.0774 186.808 31.2087L186.903 31.6331L187.103 32.4802L187.533 34.169C187.817 35.2966 188.106 36.4173 188.358 37.5606L188.376 37.6403L188.342 37.7755C188.231 38.2256 188.421 38.7672 188.601 39.4049C188.69 39.7253 188.781 40.0785 188.792 40.4826C188.8 40.6834 188.768 40.8975 188.717 41.107L188.621 41.3828C188.595 41.4571 188.517 41.5938 188.46 41.6931C187.952 42.4777 187.123 42.7582 186.424 42.8622C185.705 42.9653 185.013 42.9411 184.338 42.8379L184.948 42.3753C184.932 42.5105 184.923 42.6981 184.965 42.913C184.993 43.1224 185.053 43.3443 185.102 43.5718C185.205 44.0281 185.346 44.4931 185.449 44.9745C185.556 45.4543 185.653 45.9482 185.659 46.457C185.664 46.711 185.653 46.9649 185.611 47.215C185.575 47.4667 185.469 47.705 185.349 47.9152C185.515 46.9415 185.08 46.078 184.733 45.2004C184.543 44.7627 184.361 44.3181 184.178 43.8523C184.086 43.6186 184.011 43.3764 183.947 43.1122C183.88 42.8567 183.838 42.5582 183.863 42.2128L183.899 41.7087L184.473 41.7493C185.075 41.7923 185.684 41.8189 186.238 41.7157C186.787 41.6173 187.28 41.4094 187.486 41.0874C187.505 41.0452 187.524 41.0515 187.555 40.9757L187.624 40.7998C187.651 40.6982 187.669 40.5935 187.673 40.4724C187.687 40.234 187.644 39.9535 187.581 39.6511C187.463 39.0618 187.23 38.3014 187.525 37.4981L187.509 37.7122C187.336 36.5728 187.166 35.4178 187.019 34.2643L186.822 32.5271C186.794 32.2371 186.762 31.9472 186.746 31.6549L186.729 31.2157C186.74 31.0829 186.692 30.8953 186.79 30.8047Z" fill="#020202"/>
<path d="M181.344 54.947C181.698 53.3645 181.794 51.7445 181.837 50.1284C181.865 48.5115 181.812 46.8915 181.648 45.2887C181.566 44.4877 181.449 43.6898 181.266 42.9208C181.092 42.1596 180.762 41.4336 180.411 40.7131C179.707 39.276 178.845 37.8458 178.415 36.2094C178.007 34.5589 177.943 32.9405 177.796 31.3166C177.649 29.7263 177.614 28.0304 176.63 26.9692C175.643 25.8915 174.059 25.414 172.528 24.9334L167.868 23.4775L165.537 22.7492C164.761 22.5241 163.959 22.1857 163.376 22.2553C163.082 22.292 162.887 22.4131 162.606 22.6781C162.351 22.9352 161.947 23.297 161.545 23.4908C160.615 23.9855 159.591 23.8612 158.772 23.626C157.936 23.3931 157.19 23.0422 156.468 22.8562C155.702 22.6632 154.936 22.5327 154.144 22.4561C152.572 22.3014 150.964 22.3725 149.35 22.4843C146.127 22.7351 142.884 23.1001 139.644 23.4158C136.399 23.7276 133.157 24.073 129.871 24.1348L130.107 24.0207C129.029 25.3124 128.44 26.9528 128.211 28.6416C127.973 30.3382 128.079 32.0785 128.174 33.8103C128.276 35.5444 128.41 37.291 128.343 39.047C128.293 40.8053 127.9 42.5566 127.31 44.1993C126.752 45.8545 126.087 47.4667 125.745 49.1523C125.401 50.8411 125.418 52.5705 125.635 54.2827C125.846 55.9965 126.262 57.6822 126.699 59.3632L128.027 64.4139L129.354 69.4654C129.798 71.1502 130.215 72.832 130.863 74.4098C132.142 77.5818 134.602 80.0943 137.078 82.5091C139.561 84.9285 142.158 87.2386 145.077 89.0321C147.983 90.8248 151.268 92.0314 154.648 92.1799C158.023 92.369 161.334 91.2203 164.006 89.1454C166.712 87.105 168.884 84.3893 170.926 81.601C172.962 78.7838 175.014 75.9767 176.582 72.9351C177.353 71.412 178.006 69.8342 178.441 68.2017C178.887 66.57 179.041 64.8867 179.139 63.1447C179.241 61.4216 179.388 59.6007 179.87 57.8854C180.346 56.1606 181.048 54.5219 181.871 52.9628C182.688 51.3999 183.621 49.9127 184.559 48.442C185.054 47.7503 185.396 46.8665 186.36 46.3249C186.597 46.2069 186.896 46.1311 187.149 46.1483C187.416 46.1538 187.746 46.2397 187.96 46.3913C188.426 46.6961 188.691 47.1533 188.855 47.6026C189.024 48.0575 189.084 48.5342 189.071 49.0132C189.02 49.5337 188.955 49.8846 188.822 50.3597C188.575 51.2443 188.2 52.0501 187.786 52.8308C186.962 54.3875 185.968 55.8215 185.374 57.4204C185.234 57.8213 185.118 58.2277 185.037 58.6426C184.966 59.056 184.946 59.4741 184.869 59.9329C184.713 60.8058 184.478 61.6568 184.131 62.4735C183.953 62.879 183.751 63.2815 183.446 63.63C183.138 64.0161 182.628 64.1044 182.213 64.1919C181.339 64.3365 180.414 64.2896 179.598 63.9192L179.647 63.8121C180.439 64.1419 181.341 64.1583 182.174 63.9919C182.588 63.8864 183.02 63.8004 183.26 63.4667C183.521 63.1502 183.704 62.7579 183.862 62.3633C184.17 61.5669 184.374 60.7206 184.496 59.8758C184.553 59.4749 184.561 59.0193 184.623 58.5731C184.695 58.13 184.802 57.6955 184.937 57.2696C185.497 55.5659 186.489 54.0913 187.265 52.5604C187.654 51.7976 187.999 51.006 188.207 50.2089C188.312 49.8478 188.391 49.3344 188.415 48.9898C188.418 48.6006 188.36 48.1981 188.218 47.8387C188.083 47.4784 187.863 47.1541 187.588 46.9861C187.437 46.8931 187.326 46.8712 187.161 46.861C186.976 46.8516 186.84 46.8985 186.688 46.972C186.083 47.2924 185.683 48.1255 185.216 48.8507C184.307 50.3324 183.413 51.8172 182.642 53.3559C181.866 54.89 181.219 56.4834 180.797 58.1253C180.367 59.7805 180.263 61.4536 180.188 63.2026C180.121 64.9343 179.993 66.7403 179.548 68.483C179.127 70.2273 178.438 71.8872 177.641 73.4712C176.019 76.6355 173.945 79.4824 171.912 82.3153C169.853 85.138 167.634 87.9529 164.758 90.1395C163.344 91.2257 161.678 92.1104 159.977 92.6621C158.234 93.2466 156.398 93.4287 154.592 93.3467C150.971 93.1615 147.502 91.8392 144.501 89.9558C141.472 88.0756 138.868 85.6608 136.405 83.1796C133.967 80.7171 131.44 78.0695 130.142 74.6958C129.494 73.0352 129.102 71.319 128.687 69.6326L127.449 64.5584C126.67 61.1676 125.663 57.8252 125.207 54.3335C124.997 52.5963 124.992 50.7981 125.357 49.0718C125.721 47.3401 126.404 45.7193 126.968 44.0821C127.561 42.4496 127.907 40.7584 127.947 39.0306C127.998 37.3051 127.851 35.5741 127.732 33.8361C127.619 32.0988 127.508 30.3421 127.703 28.5775C127.899 26.8238 128.483 25.0475 129.62 23.6229L129.706 23.515L129.856 23.5088C133.082 23.3759 136.318 22.9617 139.548 22.5812C142.781 22.1951 146.003 21.7497 149.274 21.4918C150.905 21.3683 152.564 21.28 154.237 21.4324C155.066 21.5058 155.912 21.6442 156.724 21.8434C157.579 22.0654 158.321 22.4038 159.054 22.6077C159.774 22.8281 160.502 22.8664 161.04 22.5835C161.373 22.4202 161.583 22.2334 161.907 21.9224C162.207 21.6254 162.731 21.2777 163.262 21.2448C164.329 21.1815 165.06 21.5926 165.836 21.8005L168.16 22.5483L172.809 24.0433C174.331 24.5528 176.048 25.0186 177.299 26.3799C177.919 27.0598 178.233 27.9554 178.366 28.7877C178.511 29.6278 178.551 30.4491 178.598 31.2595C178.708 32.8662 178.751 34.5144 179.095 36.0297C179.46 37.559 180.262 38.9665 180.955 40.4521C181.296 41.1976 181.637 41.9658 181.798 42.7973C181.962 43.614 182.052 44.4298 182.106 45.2457C182.215 46.8774 182.21 48.5092 182.125 50.1362C182.025 51.7586 181.87 53.3934 181.458 54.9704L181.344 54.947Z" fill="#020202"/>
<path d="M124.673 23.377C124.058 24.5546 123.63 25.7316 123.365 26.9702C123.091 28.1995 122.96 29.4569 122.864 30.726L122.759 32.643L122.671 34.5709C122.657 35.1797 122.668 35.8025 122.811 36.3691C122.943 36.9357 123.223 37.4522 123.755 37.7265L123.551 37.7758C123.827 37.5608 124.007 37.156 123.948 36.7356C124.151 37.1123 124.125 37.6359 123.83 38.0352L123.767 38.1196L123.625 38.0852C123.275 38 122.932 37.8094 122.669 37.5421C122.406 37.2733 122.217 36.9513 122.073 36.6223C121.802 35.9541 121.686 35.2672 121.648 34.5803C121.621 33.9129 121.599 33.2713 121.615 32.6117C121.624 31.9561 121.642 31.2957 121.706 30.6369C121.83 29.3201 122.045 27.9861 122.524 26.7248C122.979 25.4659 123.703 24.2647 124.673 23.377Z" fill="#020202"/>
<path d="M175.112 46.0101C175.112 46.0101 174.881 45.9461 174.479 45.8335C174.277 45.7671 174.033 45.7366 173.762 45.6803C173.495 45.6186 173.176 45.5889 172.833 45.5522C171.459 45.41 169.621 45.535 167.81 45.8155C166.9 45.9531 166.016 46.2657 165.168 46.4118C164.316 46.547 163.5 46.5744 162.782 46.5595C161.353 46.5548 160.308 46.268 160.308 46.268L160.253 46.0398C160.253 46.0398 161.048 45.3013 162.4 44.7199C163.073 44.4136 163.886 44.1408 164.788 43.9947C165.695 43.8712 166.692 43.9478 167.671 43.9423C168.654 43.9627 169.637 43.9908 170.555 44.1471C171.472 44.2768 172.316 44.4894 173.015 44.7355C173.707 44.9708 174.295 45.2419 174.646 45.4529C175.003 45.671 175.207 45.7952 175.207 45.7952L175.112 46.0101Z" fill="#020202"/>
<path d="M159.601 52.7459C159.601 52.7459 159.673 52.5075 159.893 52.1121C160.112 51.7237 160.501 51.1892 161.106 50.6882C161.708 50.1795 162.5 49.7114 163.445 49.3832C163.867 49.237 164.385 49.0753 164.898 48.9948C165.407 48.9072 165.93 48.8486 166.453 48.8385C168.562 48.7877 170.607 49.5082 171.885 50.3678C172.54 50.7773 173.003 51.2282 173.318 51.5377C173.607 51.873 173.772 52.0652 173.772 52.0652C173.772 52.0652 173.554 51.9409 173.174 51.7229C172.786 51.5221 172.247 51.2298 171.571 50.9649C170.232 50.4155 168.358 49.9607 166.474 50.0123C166.005 50.0076 165.535 50.0474 165.078 50.1138C164.623 50.1818 164.203 50.2475 163.734 50.3741C162.894 50.5827 162.112 50.9 161.491 51.2407C160.867 51.5862 160.39 51.9613 160.078 52.2567C159.767 52.5466 159.601 52.7459 159.601 52.7459Z" fill="#020202"/>
<path d="M159.601 52.7471C159.601 52.7471 160.573 52.9088 161.937 53.3262C163.304 53.7091 165.075 54.3436 166.822 54.3921C167.198 54.3968 167.675 54.3265 168.113 54.2452C168.565 54.1553 168.977 54.0818 169.386 53.9381C170.193 53.6614 170.969 53.3473 171.617 53.0683C172.27 52.7893 172.812 52.5462 173.186 52.3649C173.566 52.1914 173.771 52.0664 173.771 52.0664C173.771 52.0664 173.607 52.2422 173.284 52.5158C172.959 52.7854 172.477 53.1464 171.873 53.5426C171.262 53.9326 170.552 54.3757 169.701 54.7594C169.282 54.9493 168.806 55.129 168.344 55.2463C167.869 55.365 167.41 55.5041 166.832 55.5237C164.734 55.5831 162.893 54.7125 161.639 54.035C160.379 53.334 159.601 52.7471 159.601 52.7471Z" fill="#020202"/>
<path d="M145.774 78.9126C145.774 78.9126 146.078 78.8751 146.603 78.847C147.131 78.8212 147.862 78.7907 148.733 78.7876C149.605 78.7829 150.607 78.7774 151.668 78.7938C152.727 78.7829 153.848 78.7985 154.952 78.7548C155.505 78.7477 156.055 78.7102 156.594 78.6821C157.132 78.6344 157.665 78.6235 158.171 78.5492C158.684 78.4969 159.166 78.4101 159.639 78.3515C160.089 78.2366 160.551 78.1983 160.946 78.0803C161.348 77.9748 161.733 77.8967 162.058 77.7826C162.385 77.6732 162.697 77.6068 162.926 77.5036C163.405 77.3262 163.707 77.2324 163.707 77.2324C163.707 77.2324 163.537 77.4762 163.191 77.8897C163.023 78.1046 162.786 78.3234 162.5 78.5664C162.223 78.8282 161.879 79.0744 161.483 79.3182C161.099 79.5933 160.641 79.7949 160.157 80.0262C159.665 80.2146 159.142 80.4553 158.577 80.5764C158.017 80.7272 157.437 80.8702 156.836 80.946C156.239 81.0336 155.628 81.0789 155.021 81.1C154.412 81.1117 153.807 81.107 153.215 81.0562C152.621 81.0304 152.047 80.9187 151.489 80.8476C150.382 80.6592 149.366 80.4091 148.52 80.1114C146.812 79.5542 145.774 78.9126 145.774 78.9126Z" fill="#020202"/>
<path d="M25.0302 26.8535C25.0302 26.8535 24.9443 26.9684 24.7841 27.1841C24.627 27.4021 24.3824 27.7116 24.0503 28.0937C23.3798 28.8439 22.3818 29.8864 21.1189 31.054C19.8592 32.2215 18.3658 33.5618 16.9114 35.0911C16.1854 35.8484 15.4626 36.6728 14.921 37.5653C14.345 38.4999 13.927 39.4721 13.6605 40.538C13.0955 42.634 13.1767 44.894 13.8043 46.8329L13.8629 47.015C13.8683 47.0337 13.8918 47.1009 13.8824 47.0798L13.9215 47.1713L14.0723 47.5378C14.1794 47.7675 14.2841 47.9535 14.4021 48.1653C14.6584 48.581 14.9382 48.9796 15.2398 49.35C15.84 50.094 16.4832 50.7512 17.099 51.335C18.3345 52.5017 19.427 53.4278 20.2116 54.0475C20.9931 54.6758 21.4393 55.0353 21.4393 55.0353C21.4393 55.0353 20.9376 54.7563 20.085 54.2233C19.2418 53.6779 18.025 52.9058 16.6778 51.8093C16.0096 51.2545 15.3047 50.6246 14.6186 49.8814C14.2747 49.511 13.9434 49.1031 13.6292 48.66C13.4784 48.4326 13.3143 48.17 13.1853 47.9309L13.0111 47.5745L12.9689 47.4838L12.9212 47.3612L12.8485 47.1642C12.0475 45.0659 11.9053 42.5636 12.5234 40.2419C12.8219 39.0923 13.3369 37.949 13.9598 36.98C14.6264 35.9695 15.4102 35.1474 16.1909 34.3831C17.775 32.8803 19.3708 31.6612 20.6985 30.5749C22.0387 29.5043 23.1594 28.6212 23.8924 27.9429C24.634 27.2763 25.0302 26.8535 25.0302 26.8535Z" fill="#020202"/>
<path d="M26.6267 24.7249C27.7411 24.6663 28.6773 24.3389 29.7855 24.1834C30.3387 24.106 30.9209 24.0919 31.4992 24.2076C32.0689 24.3279 32.6566 24.5929 33.0177 25.0618L33.0403 25.0852C33.1193 25.2282 33.0263 25.3603 32.9505 25.4009C32.87 25.4502 32.7457 25.4462 32.7051 25.3728C32.7801 25.4048 32.8371 25.3501 32.8582 25.3009C32.8895 25.2493 32.8653 25.2071 32.8481 25.2251L32.8707 25.2485C31.9001 24.8445 30.9272 24.9438 29.8933 25.0469C29.3721 25.1024 28.8266 25.1712 28.2616 25.1477C27.702 25.1329 27.112 25.0156 26.6267 24.7249Z" fill="#020202"/>
<path d="M24.6542 55.1263C24.6542 55.1263 24.2377 54.6816 23.3726 53.9392C22.5231 53.1796 21.1672 52.1934 19.6418 50.6898C18.8978 49.9286 18.0905 49.0182 17.5748 47.8022C17.0918 46.6011 16.7698 45.1991 16.769 43.6908C16.7675 42.1912 17.0879 40.536 18.0265 39.0739C18.9408 37.5867 20.5538 36.5715 22.1175 35.6791C23.7094 34.7913 25.2552 33.7473 26.654 32.4031C27.3566 31.7389 28.0107 31.0105 28.6444 30.2275C29.2876 29.4476 29.9503 28.6176 30.8005 27.912C31.6563 27.2016 32.6417 26.7124 33.5623 26.1966C34.4938 25.6902 35.3269 25.083 36.1349 24.3703C37.7471 22.9683 39.2874 21.2186 41.324 20.0127C45.4354 17.562 50.9909 17.4417 55.3023 20.0706C56.3667 20.7254 57.367 21.5648 58.1149 22.6252C58.862 23.6951 59.3152 24.804 59.9654 25.7644C61.2908 27.7033 62.846 29.6461 64.2276 31.6412C67.0316 35.6314 69.6707 39.7256 72.2269 43.7737C73.4983 45.8016 74.7597 47.8139 76.0061 49.802C77.2291 51.8253 78.4662 53.7634 79.372 55.9734C79.7807 57.0815 80.08 58.2858 79.8893 59.5424C79.7228 60.7943 78.807 61.9955 77.5847 62.387C76.3828 62.7973 75.1176 62.6332 74.0438 62.1041C73.0052 61.5844 72.1847 60.7631 71.5165 59.9238C68.9603 56.4759 67.545 52.7474 65.2983 49.9278C64.7434 49.2253 64.1495 48.5814 63.5181 48.0093C62.8858 47.4388 62.1927 46.9738 61.5089 46.4815C60.8321 45.9931 60.1655 45.4484 59.6708 44.8045C59.1566 44.1597 58.7862 43.4759 58.447 42.8101C57.782 41.473 57.2349 40.2211 56.4394 39.2216C55.6634 38.2345 54.8069 37.414 54.0496 36.67C52.5093 35.204 51.4192 33.8778 50.9776 32.8126C50.7346 32.2953 50.622 31.8662 50.5673 31.5787C50.5111 31.2895 50.4829 31.141 50.4829 31.141C50.4829 31.141 50.5173 31.2887 50.5837 31.5755C50.6486 31.86 50.7768 32.282 51.0354 32.7861C51.509 33.8278 52.6375 35.0781 54.2083 36.5051C54.9874 37.2311 55.8634 38.0204 56.7012 39.0285C57.5397 40.0234 58.1508 41.3175 58.837 42.6077C59.1863 43.2501 59.5708 43.9073 60.0553 44.4817C60.5398 45.078 61.1564 45.5523 61.8379 46.0181C62.5185 46.476 63.2492 46.9574 63.9275 47.5459C64.6004 48.1351 65.2311 48.797 65.8187 49.516C68.1804 52.3926 69.698 56.1555 72.1894 59.3861C72.831 60.1621 73.5616 60.8631 74.4619 61.2921C75.3075 61.697 76.3726 61.8071 77.2542 61.4781C78.1404 61.1624 78.7569 60.3481 78.8976 59.3869C79.0453 58.4163 78.7999 57.3449 78.4154 56.336C77.5847 54.3299 76.3187 52.3356 75.1051 50.3616C73.8492 48.3829 72.5785 46.3807 71.2977 44.3621C68.7251 40.332 66.0641 36.2738 63.268 32.3148C61.8926 30.3048 60.4101 28.4426 59.0136 26.3779C58.3165 25.3237 57.8429 24.1765 57.2068 23.2676C56.5676 22.3494 55.6954 21.6023 54.7279 20.999C50.8237 18.5623 45.6112 18.66 41.8718 20.8685C39.9486 21.9868 38.4747 23.6521 36.7554 25.0916C35.906 25.8168 34.9619 26.4803 33.996 26.9812C33.0379 27.4946 32.1033 27.9463 31.3351 28.5645C29.8112 29.8188 28.6859 31.631 27.162 32.9447C25.699 34.3076 24.0478 35.3798 22.4387 36.241C20.8453 37.1201 19.3753 38.0204 18.4789 39.3732C17.5748 40.697 17.2192 42.2553 17.1825 43.6971C17.1442 45.1514 17.4146 46.5081 17.8537 47.692C18.3125 48.8588 19.0775 49.7755 19.7949 50.5437C21.2665 52.066 22.5841 53.1124 23.4109 53.897C24.2525 54.6675 24.6542 55.1263 24.6542 55.1263Z" fill="#020202"/>
<path d="M45.4791 28.511C45.4541 28.504 45.0509 28.1273 44.8063 27.7546C44.5476 27.392 44.3429 26.8785 44.346 26.8535C44.346 26.8535 44.5062 26.852 44.7039 26.9379C44.9008 27.0215 45.1368 27.1911 45.2924 27.4248C45.4533 27.6553 45.5237 27.9366 45.5307 28.1492C45.5401 28.3665 45.4791 28.511 45.4791 28.511Z" fill="#020202"/>
<path d="M38.5755 28.2516C38.5755 28.2516 38.4668 28.2219 38.2832 28.1891C38.1058 28.1477 37.8385 28.1407 37.5384 28.1657C36.9367 28.2196 36.1623 28.5494 35.6074 29.0769C35.2979 29.3621 35.0713 29.6645 34.8548 29.9896C34.6517 30.3132 34.4649 30.6289 34.3367 30.918C34.071 31.5049 33.8936 31.8965 33.8936 31.8965C33.8936 31.8965 33.8772 31.4557 34.0233 30.8094C34.107 30.4914 34.2109 30.1116 34.4039 29.7341C34.586 29.3606 34.8759 28.9667 35.1917 28.6611C35.8887 27.9898 36.8562 27.7523 37.5416 27.8367C37.8878 27.8656 38.1511 27.993 38.3246 28.0828C38.4942 28.1774 38.5755 28.2516 38.5755 28.2516Z" fill="#020202"/>
<path d="M30.3503 34.9157C30.3503 34.9157 29.8939 34.9563 29.325 35.222C28.7561 35.4752 28.0903 36.0051 27.6425 36.6608C27.3948 37.0116 27.2236 37.3617 27.0681 37.7275C26.9243 38.0893 26.7962 38.4394 26.7211 38.752C26.5562 39.3733 26.4711 39.8125 26.4711 39.8125C26.4711 39.8125 26.3656 39.3764 26.3937 38.702C26.4195 38.3683 26.4546 37.9697 26.5781 37.5579C26.6906 37.1515 26.9017 36.7092 27.1494 36.3396C27.687 35.5393 28.5428 35.0532 29.2211 34.9095C29.5595 34.8258 29.8502 34.8462 30.0479 34.8618C30.2433 34.8821 30.3503 34.9157 30.3503 34.9157Z" fill="#020202"/>
<path d="M24.6541 43.0059C24.6541 43.0059 24.5557 42.952 24.4048 42.9903C24.247 43.02 24.0766 43.1599 23.8641 43.3529C23.6366 43.5381 23.4335 43.7741 23.2053 44.0414C22.9872 44.3079 22.7622 44.5994 22.5832 44.919C22.2089 45.5465 21.9361 46.2373 21.8002 46.7875C21.7408 47.0626 21.6759 47.2978 21.6564 47.4658C21.6321 47.6338 21.6103 47.7331 21.6103 47.7331C21.6103 47.7331 21.4704 47.3541 21.4719 46.7461C21.4712 46.1436 21.6493 45.3214 22.0776 44.6181C22.2894 44.268 22.5488 43.9468 22.8302 43.6858C23.1013 43.424 23.4217 43.2216 23.6765 43.0809C23.9266 42.9246 24.2149 42.852 24.4009 42.8754C24.5979 42.9051 24.6526 43.0161 24.6541 43.0059Z" fill="#020202"/>
<path d="M62.5935 41.61C62.5935 41.61 62.5732 41.6787 62.6224 41.7076C62.6592 41.742 62.7686 41.7428 62.8686 41.7334C62.935 41.7264 62.9303 41.7147 63.021 41.6795C63.0991 41.6506 63.164 41.6139 63.2398 41.5912C63.3891 41.5349 63.5485 41.4748 63.7071 41.4146C64.0221 41.295 64.3472 41.1856 64.6043 41.095C64.8606 41.0067 65.0591 40.9551 65.0591 40.9551C65.0591 40.9551 64.9872 41.1489 64.7918 41.3677C64.5988 41.5857 64.2831 41.8327 63.9135 41.9648C63.7282 42.0273 63.5391 42.0781 63.3563 42.0945C63.2656 42.1085 63.1687 42.1054 63.0921 42.1007C63.0296 42.0999 62.8741 42.0929 62.8069 42.057C62.6412 41.996 62.5341 41.8647 62.5154 41.7452C62.5185 41.6123 62.6068 41.6146 62.5935 41.61Z" fill="#020202"/>
<path d="M66.697 45.5229C66.7142 45.5018 67.119 45.2134 67.4621 45.0634C67.7997 44.9047 68.2866 44.7914 68.3131 44.793C68.3131 44.793 68.3131 44.9422 68.2193 45.1181C68.1287 45.2931 67.9443 45.4932 67.7051 45.5979C67.4683 45.7089 67.1956 45.7128 67.0041 45.6659C66.8049 45.6206 66.697 45.5229 66.697 45.5229Z" fill="#020202"/>
<path d="M76.0007 54.9458C76.0007 54.9458 76.3367 54.9739 76.7947 55.3068C77.2526 55.6343 77.7613 56.2774 78.1771 57.1425C78.5905 58.0061 78.8859 59.1299 78.7812 60.3513C78.7351 60.9491 78.4397 61.6603 77.752 61.9096C77.1166 62.162 76.3703 62.0323 75.799 61.7056C75.2176 61.3711 74.7589 60.9069 74.3111 60.4654C73.8625 60.0168 73.4562 59.5378 73.1264 59.0267C72.8013 58.5172 72.5418 57.9654 72.502 57.3965C72.4551 56.8221 72.7349 56.3087 73.0787 55.9742C73.7781 55.2959 74.5791 55.0333 75.1246 54.9442C75.4013 54.895 75.6232 54.9052 75.7725 54.9122C75.9217 54.9341 76.0007 54.9458 76.0007 54.9458ZM76.0007 54.9458C76.0007 54.9458 75.9217 54.9356 75.7733 54.9161C75.624 54.9114 75.4028 54.9052 75.1285 54.9591C74.5917 55.0591 73.7859 55.3248 73.1279 56.0188C72.8067 56.3595 72.57 56.8511 72.6356 57.3856C72.695 57.9154 72.963 58.4328 73.2991 58.9118C73.6429 59.3901 74.0556 59.8433 74.4979 60.2794C74.9472 60.71 75.4091 61.1531 75.9444 61.4501C76.4703 61.7611 77.1049 61.8689 77.6582 61.6665C78.2091 61.4813 78.5116 60.8898 78.5796 60.3255C78.7304 59.1619 78.492 58.0381 78.1193 57.1691C77.7418 56.2954 77.2315 55.653 76.7868 55.3186C76.3367 54.9802 76.0007 54.9458 76.0007 54.9458Z" fill="#020202"/>
<path d="M71.9033 53.2436C71.9033 53.2436 71.9315 53.0333 72.0924 52.7606C72.2472 52.4918 72.5332 52.1729 72.8989 51.9682C73.2615 51.7572 73.682 51.672 73.993 51.6759C74.3064 51.6767 74.5064 51.7587 74.5064 51.7587C74.5064 51.7587 74.3197 51.8666 74.068 51.9979C73.8133 52.126 73.5007 52.305 73.1912 52.4777C72.8856 52.6567 72.5715 52.8325 72.3324 52.988C72.0932 53.1342 71.9033 53.2436 71.9033 53.2436Z" fill="#020202"/>
<path d="M60.7922 46.1247C60.7922 46.1247 60.8055 46.2584 60.8305 46.51C60.8523 46.7616 60.9078 47.1258 60.8922 47.6048C60.8992 48.0831 60.8461 48.6645 60.675 49.3233C60.4913 49.9712 60.142 50.7151 59.4941 51.3036C58.8564 51.9038 57.9984 52.2836 57.1544 52.6571C56.7339 52.8439 56.3065 53.0315 55.9142 53.2565C55.8149 53.3058 55.6625 53.423 55.4 53.4527C55.1171 53.466 55.0131 53.4113 54.9225 53.4128C54.8639 53.4105 54.6419 53.4003 54.438 53.3065C54.2676 53.2339 54.1371 53.1448 54.0167 53.0549C53.5416 52.6931 53.2126 52.2836 52.8562 51.9264C52.496 51.5521 52.1318 51.1731 51.7645 50.7917C51.0463 50.0102 50.3172 49.2163 49.5881 48.4223C46.7044 45.2205 43.9763 41.8993 41.9405 39.3977C40.9035 38.1646 40.0931 37.0877 39.4929 36.3617C38.9091 35.6208 38.5754 35.1973 38.5754 35.1973C38.5754 35.1973 40.197 36.6274 42.4492 38.946C43.5621 40.1159 44.8914 41.4554 46.2386 42.955C47.6062 44.4367 49.0278 46.0481 50.4586 47.6478C51.1721 48.4481 51.8849 49.2491 52.5874 50.0368C52.9383 50.4322 53.2868 50.8246 53.6307 51.2122C53.9878 51.6053 54.3051 52.003 54.6286 52.2617C54.7068 52.3266 54.7873 52.3781 54.8451 52.4071C54.8678 52.4258 54.8982 52.4383 55.0842 52.4711C55.4969 52.5454 55.2046 52.593 55.5031 52.4868C55.9704 52.2586 56.4276 52.0952 56.8637 51.9343C57.7264 51.6185 58.5196 51.3208 59.0971 50.841C59.6856 50.3799 60.0748 49.7852 60.3069 49.1999C60.5296 48.6114 60.646 48.0519 60.6867 47.5939C60.7547 47.136 60.764 46.7616 60.775 46.5108C60.7867 46.2591 60.7922 46.1247 60.7922 46.1247Z" fill="#020202"/>
<path d="M52.9416 51.247C52.9525 51.2446 52.9306 51.3978 53.0009 51.6588C53.0611 51.9214 53.2432 52.2739 53.4862 52.724C53.723 53.1733 53.9841 53.7759 54.0388 54.5222C54.0903 55.2669 53.909 56.1031 53.58 56.9393C53.3995 57.3551 53.2737 57.7802 52.8845 58.2311C52.4813 58.6437 52.0069 58.8516 51.5497 59.0782C50.6221 59.5119 49.6445 59.9082 48.6348 60.3341L48.4449 60.4138C48.3941 60.4325 48.4246 60.4278 48.3066 60.4661L48.2081 60.4974C48.1034 60.5419 47.8932 60.5771 47.6877 60.5943C47.3282 60.6029 46.9898 60.5466 46.6866 60.4388C46.0676 60.2379 45.548 59.9105 45.0494 59.569C44.0577 58.8789 43.2051 58.0467 42.3603 57.2488C40.6504 55.585 39.15 53.7845 37.7871 52.0668C36.4484 50.3428 35.1996 48.7338 34.129 47.3544C33.0286 46.0072 32.1245 44.8678 31.4313 44.1214C30.7444 43.3658 30.3521 42.9336 30.3521 42.9336C30.3521 42.9336 30.4669 43.0235 30.6834 43.1923C30.8952 43.3658 31.2281 43.5986 31.6063 43.944C32.3839 44.6122 33.4772 45.5977 34.6666 46.8934C35.8677 48.1766 37.2244 49.7137 38.6272 51.3814C40.033 53.0428 41.5585 54.798 43.159 56.4212C43.9983 57.2324 44.8126 58.0428 45.6816 58.7047C46.1153 59.0266 46.567 59.3244 47.0179 59.4854C47.5048 59.6503 47.8002 59.6893 48.3058 59.4799C49.3358 59.1149 50.3423 58.7734 51.2551 58.4093C51.7052 58.2248 52.1491 58.0357 52.4219 57.781C52.6829 57.5387 52.872 57.0815 53.0689 56.7166C53.4464 55.9601 53.6777 55.2114 53.691 54.5331C53.7019 53.854 53.5136 53.2702 53.3182 52.8037C53.1283 52.3333 52.9853 51.9464 52.9548 51.6682C52.9126 51.3923 52.9525 51.2478 52.9416 51.247Z" fill="#020202"/>
<path d="M44.6569 58.763C44.6569 58.763 44.6882 58.8951 44.7476 59.1436C44.7905 59.396 44.8616 59.7696 44.8484 60.2564C44.8265 60.7394 44.7249 61.3411 44.4068 61.9601C44.0919 62.5767 43.5574 63.1886 42.8415 63.6661C42.1249 64.1435 41.2348 64.4772 40.247 64.6062C39.2397 64.7281 38.1808 64.5413 37.1601 64.1568C36.1388 63.7723 35.1978 63.1151 34.3906 62.3117C33.5552 61.5115 33.0042 60.4667 32.4119 59.6445C31.8164 58.7943 31.1177 58.2129 30.1737 57.9183C29.2375 57.601 28.1723 57.4705 27.1392 57.1165C26.1194 56.7796 25.1472 56.1662 24.4759 55.4456C23.7757 54.7282 23.2857 53.8983 23.0013 53.0809C22.6996 52.2619 22.6629 51.4523 22.6973 50.7857C22.7238 50.1175 22.7442 49.5541 22.6863 49.0922C22.6246 48.6343 22.505 48.2849 22.3855 48.063C22.269 47.8387 22.1799 47.7324 22.1799 47.7324C22.1502 47.7379 22.6707 48.0747 22.9262 49.0461C23.0513 49.5205 23.1075 50.1144 23.1677 50.77C23.2349 51.421 23.3311 52.1298 23.6499 52.8277C23.9586 53.5271 24.4486 54.2195 25.1058 54.7915C25.781 55.3683 26.5289 55.8239 27.4635 56.0966C28.3802 56.3639 29.4336 56.4733 30.5387 56.8273C31.0966 57.0078 31.6484 57.261 32.1516 57.6502C32.6424 58.0331 33.0292 58.5067 33.3567 58.9756C34.01 59.9313 34.4906 60.8332 35.1767 61.5615C35.8519 62.3055 36.6709 62.8861 37.5274 63.3097C38.3824 63.7122 39.3155 63.9677 40.179 63.9013C41.0566 63.8434 41.8756 63.5668 42.5571 63.2011C43.2401 62.8306 43.7699 62.3266 44.1099 61.7913C44.4522 61.2544 44.6022 60.7003 44.6647 60.2408C44.7343 59.7782 44.7116 59.4046 44.6999 59.1514C44.6717 58.8982 44.6569 58.763 44.6569 58.763Z" fill="#020202"/>
<path d="M149.235 66.6562C149.235 66.6562 149.188 66.8907 149.107 67.3002C149.04 67.6933 148.961 68.3075 149.268 68.7842C149.433 69.0257 149.62 69.1734 149.901 69.182C150.097 69.1828 150.456 69.046 150.871 68.8663C151.282 68.6858 151.893 68.4802 152.526 68.6545C153.085 68.7928 153.521 69.0226 153.886 69.1343C154.271 69.2445 154.438 69.2406 154.809 69.0476C155.151 68.8858 155.691 68.5146 156.305 68.5318C156.972 68.5756 157.321 68.8233 157.673 68.9233C158.012 69.0382 158.234 69.0616 158.447 68.8944C158.667 68.7358 158.824 68.4615 158.919 68.2192C159.016 67.9715 159.061 67.7339 159.068 67.537C159.093 67.1361 158.981 66.9094 158.981 66.9094C158.981 66.9094 159.016 66.9587 159.081 67.0517C159.133 67.1509 159.221 67.3025 159.268 67.5174C159.314 67.7316 159.34 68.0027 159.297 68.3153C159.243 68.6225 159.153 68.9827 158.86 69.3234C158.57 69.69 157.927 69.8181 157.485 69.7165C157.047 69.6337 156.594 69.5024 156.363 69.5313C156.059 69.5415 155.813 69.7517 155.35 70.0346C155.141 70.1573 154.803 70.3112 154.484 70.3425C154.146 70.3855 153.822 70.3308 153.55 70.2526C153.007 70.0916 152.605 69.8455 152.254 69.7611C151.968 69.6728 151.64 69.7118 151.232 69.8486C150.821 69.9713 150.346 70.1792 149.719 70.0549C149.172 69.9533 148.76 69.4704 148.642 69.0734C148.487 68.6662 148.509 68.2599 148.587 67.9574C148.659 67.6472 148.779 67.408 148.88 67.2197C149.09 66.8477 149.235 66.6562 149.235 66.6562Z" fill="#020202"/>
<path d="M166.687 53.8115C167.915 53.8115 168.91 52.8192 168.91 51.5952C168.91 50.3712 167.915 49.3789 166.687 49.3789C165.459 49.3789 164.463 50.3712 164.463 51.5952C164.463 52.8192 165.459 53.8115 166.687 53.8115Z" fill="#020202"/>
<path d="M130.891 45.759C130.891 45.759 131.111 45.6285 131.494 45.4003C131.677 45.2753 131.944 45.176 132.238 45.0416C132.535 44.8978 132.875 44.7939 133.25 44.6634C134 44.4164 134.902 44.2007 135.879 44.0749C136.857 43.9178 137.903 43.8928 138.951 43.8725C139.995 43.8795 141.054 43.8022 142.023 43.9288C142.988 44.0757 143.861 44.3531 144.585 44.6641C146.042 45.2565 146.903 46.0114 146.903 46.0114L146.848 46.2396C146.848 46.2396 145.74 46.51 144.216 46.5061C143.45 46.5163 142.577 46.4842 141.662 46.3482C140.751 46.1982 139.798 45.8864 138.818 45.7465C137.844 45.609 136.861 45.4964 135.941 45.4534C135.02 45.4058 134.156 45.4112 133.42 45.4816C133.054 45.5238 132.708 45.5496 132.424 45.6168C132.134 45.6801 131.874 45.7074 131.659 45.7801C131.229 45.9028 130.983 45.9731 130.983 45.9731L130.891 45.759Z" fill="#020202"/>
<path d="M147.577 52.9248C147.577 52.9248 147.409 52.7185 147.089 52.416C146.768 52.1097 146.278 51.7205 145.635 51.3618C144.994 51.0078 144.186 50.6788 143.318 50.4616C142.835 50.3303 142.401 50.2615 141.931 50.1904C141.458 50.1224 140.973 50.081 140.488 50.0849C138.541 50.0317 136.605 50.5045 135.225 51.0766C134.527 51.3524 133.973 51.6564 133.574 51.8643C133.183 52.0909 132.96 52.2207 132.96 52.2207C132.96 52.2207 133.131 52.0237 133.431 51.6799C133.756 51.3618 134.235 50.9 134.911 50.4795C135.576 50.045 136.423 49.6277 137.388 49.3433C137.871 49.2057 138.378 49.0721 138.904 49.0127C139.43 48.9431 139.969 48.9009 140.509 48.9119C141.049 48.922 141.587 48.9822 142.111 49.0721C142.638 49.1549 143.171 49.3206 143.607 49.4714C144.58 49.8075 145.398 50.2888 146.018 50.8109C146.643 51.3251 147.045 51.8737 147.273 52.2738C147.501 52.6794 147.577 52.9248 147.577 52.9248Z" fill="#020202"/>
<path d="M147.577 52.926C147.577 52.926 146.772 53.5246 145.469 54.242C144.175 54.936 142.276 55.8308 140.117 55.7714C139.526 55.7518 139.051 55.6096 138.561 55.4877C138.085 55.3666 137.595 55.1829 137.163 54.9883C136.286 54.5945 135.553 54.1389 134.923 53.738C134.298 53.3308 133.801 52.9604 133.464 52.6837C133.131 52.4032 132.96 52.2227 132.96 52.2227C132.96 52.2227 133.171 52.3524 133.562 52.5329C133.947 52.722 134.506 52.9737 135.178 53.2636C135.846 53.5535 136.646 53.8794 137.479 54.167C137.901 54.3162 138.328 54.3936 138.793 54.4874C139.245 54.5718 139.737 54.6452 140.128 54.6413C141.936 54.5929 143.764 53.9357 145.172 53.5355C146.578 53.1003 147.577 52.926 147.577 52.926Z" fill="#020202"/>
<path d="M140.268 54.0209C141.535 54.0209 142.562 52.9975 142.562 51.735C142.562 50.4726 141.535 49.4492 140.268 49.4492C139.001 49.4492 137.974 50.4726 137.974 51.735C137.974 52.9975 139.001 54.0209 140.268 54.0209Z" fill="#020202"/>
<rect width="15.7828" height="3.52214" fill="black" fill-opacity="0" transform="translate(52.7837 51.4824)"/>
<path d="M68.5665 55.0046H53.8879L53.7402 53.2439L52.7837 51.4824L55.3915 52.7703L58.2486 51.7591L66.8691 51.4824L68.5665 55.0046Z" fill="#020202"/>
<rect width="64.4159" height="29.6088" fill="black" fill-opacity="0" transform="translate(21.5823 76.5625)"/>
<path d="M29.8449 84.3523H24.6738V88.323H30.8217V90.4611H21.8777V76.5625H30.8022V78.7116H24.6738V82.2056H29.8449V84.3523Z" fill="black"/>
<path d="M36.471 83.4166H36.5289L38.1184 80.1328H41.2787L38.1567 85.2398L41.3834 90.4616H38.2325L36.5375 87.0341L34.8424 90.4616H31.6821L34.9089 85.2398L31.7775 80.1328H34.9182L36.471 83.4166Z" fill="black"/>
<path d="M48.0394 82.5289L47.0148 82.5C46.5999 82.5 46.2584 82.5859 45.9903 82.7579C45.7215 82.9298 45.5175 83.172 45.3768 83.4823V90.4609H42.5901V80.1321H45.1854L45.3096 81.6591C45.5527 81.1191 45.8668 80.6971 46.2529 80.3947C46.6397 80.093 47.0844 79.9414 47.5892 79.9414C47.7299 79.9414 47.8588 79.9531 47.9768 79.975C48.0956 79.9969 48.2152 80.0242 48.3363 80.0563L48.0394 82.5289Z" fill="black"/>
<path d="M55.6041 90.4621C55.5017 90.2269 55.4134 89.9784 55.3407 89.7181C55.2672 89.4563 55.2141 89.1898 55.1828 88.9156C54.8953 89.4188 54.5155 89.8354 54.0434 90.1667C53.5706 90.4973 53.0088 90.6629 52.3578 90.6629C51.2723 90.6629 50.4361 90.384 49.8492 89.8268C49.2616 89.2703 48.9685 88.5115 48.9685 87.5511C48.9685 86.5383 49.3592 85.7545 50.1415 85.198C50.923 84.6408 52.0647 84.3619 53.5644 84.3619H55.1352V83.5413C55.1352 83.0451 55.0039 82.6606 54.7421 82.3863C54.4803 82.112 54.0911 81.976 53.5738 81.976C53.1197 81.976 52.7712 82.0862 52.525 82.305C52.2789 82.5254 52.1562 82.8255 52.1562 83.2076H49.4647L49.446 83.1506C49.4014 82.2792 49.7828 81.5259 50.5901 80.8929C51.3974 80.2599 52.4531 79.9434 53.7551 79.9434C55 79.9434 56.0065 80.2552 56.7763 80.8788C57.546 81.5024 57.9305 82.3957 57.9305 83.5608V87.8277C57.9305 88.3115 57.9665 88.7671 58.0407 89.193C58.115 89.6189 58.2306 90.0424 58.39 90.4621H55.6041ZM53.0471 88.6014C53.5316 88.6014 53.9661 88.4795 54.349 88.238C54.7319 87.9957 54.9937 87.716 55.1344 87.3987V85.9381H53.5636C52.9697 85.9381 52.5211 86.085 52.2187 86.3773C51.9147 86.6696 51.7639 87.0298 51.7639 87.4565C51.7639 87.8066 51.8772 88.0848 52.1038 88.2911C52.3304 88.4967 52.6454 88.6014 53.0471 88.6014Z" fill="black"/>
<path d="M63.3798 77.6023V80.132H65.1319V82.0896H63.3798V87.349C63.3798 87.7507 63.4642 88.0359 63.6338 88.2078C63.8026 88.3798 64.0245 88.4657 64.2988 88.4657C64.4457 88.4657 64.5731 88.4579 64.6817 88.4415C64.7896 88.4251 64.9146 88.3993 65.0553 88.3602L65.285 90.3749C65.0037 90.4702 64.731 90.5421 64.466 90.589C64.2011 90.6375 63.912 90.6609 63.5994 90.6609C62.6358 90.6609 61.8934 90.3975 61.3729 89.8685C60.8525 89.3402 60.5922 88.5032 60.5922 87.3576V82.0888H59.0801V80.1312H60.593V77.6016H63.3798V77.6023Z" fill="black"/>
<path d="M71.3471 90.6618C69.8021 90.6618 68.5947 90.189 67.7272 89.2442C66.859 88.2986 66.4253 87.0819 66.4253 85.5924V85.2102C66.4253 83.6645 66.8465 82.3977 67.6889 81.4115C68.5322 80.4252 69.6903 79.9344 71.165 79.9415C72.5568 79.9415 73.6251 80.3658 74.3683 81.2153C75.1122 82.0648 75.4842 83.2096 75.4842 84.6468V86.0878H69.3074L69.2785 86.1449C69.323 86.8513 69.5387 87.4242 69.9248 87.8634C70.3116 88.3026 70.8844 88.5214 71.644 88.5214C72.27 88.5214 72.8014 88.4581 73.2383 88.3307C73.6751 88.2033 74.1276 88.0087 74.5933 87.7485L75.3498 89.4662C74.9348 89.803 74.373 90.0867 73.6649 90.3156C72.9569 90.5446 72.184 90.6618 71.3471 90.6618ZM71.165 82.0898C70.6031 82.0898 70.1709 82.282 69.8677 82.6673C69.5645 83.0518 69.3809 83.5629 69.3176 84.199L69.3363 84.2459H72.7459V84.0357C72.7459 83.4316 72.6209 82.9557 72.3724 82.6095C72.1231 82.2625 71.7206 82.0898 71.165 82.0898Z" fill="black"/>
<path d="M82.7137 87.598C82.7137 87.2932 82.5653 87.0306 82.2683 86.811C81.9713 86.5906 81.4204 86.3984 80.6162 86.2335C79.4034 85.9912 78.482 85.6255 77.8537 85.1363C77.2254 84.6455 76.9105 83.9805 76.9105 83.1412C76.9105 82.2558 77.2871 81.5024 78.0405 80.8788C78.7938 80.2552 79.7957 79.9434 81.0476 79.9434C82.3558 79.9434 83.4054 80.2552 84.1939 80.8788C84.9816 81.5024 85.3606 82.2792 85.3286 83.2076L85.309 83.2647H82.609C82.609 82.8505 82.4754 82.5137 82.2073 82.2519C81.9385 81.9916 81.5525 81.8611 81.0484 81.8611C80.6014 81.8611 80.2474 81.9721 79.9856 82.1956C79.7238 82.4183 79.5925 82.691 79.5925 83.0154C79.5925 83.3342 79.7285 83.5929 79.9997 83.7937C80.2708 83.9946 80.8218 84.1743 81.6517 84.3329C82.9224 84.5877 83.868 84.9613 84.4908 85.4551C85.1129 85.9483 85.4239 86.6274 85.4239 87.4925C85.4239 88.4209 85.0246 89.1813 84.2267 89.7744C83.4288 90.366 82.3754 90.6622 81.0664 90.6622C79.6878 90.6622 78.5977 90.3136 77.7959 89.6165C76.9949 88.9202 76.6135 88.1263 76.6518 87.2354L76.6705 87.1783H79.2268C79.2463 87.7324 79.4284 88.1333 79.773 88.381C80.1177 88.6295 80.567 88.7538 81.1226 88.7538C81.64 88.7538 82.0339 88.6506 82.305 88.4428C82.5778 88.2364 82.7137 87.9543 82.7137 87.598Z" fill="black"/>
<path d="M25.2787 106.039H23.4617V98.5591H21.5823V97.172L25.2787 96.8477V106.039Z" fill="black"/>
<path d="M34.4807 98.3778C33.453 99.5758 32.7536 100.656 32.3832 101.617C32.0127 102.577 31.8275 103.678 31.8275 104.918V106.038H30.0043V104.918C30.0043 103.657 30.2364 102.506 30.7006 101.467C31.164 100.428 31.84 99.3984 32.7262 98.3778H28.0881V96.9766H34.4807V98.3778Z" fill="black"/>
<path d="M37.7026 106.04H35.8794V104.447H37.7026V106.04Z" fill="black"/>
<path d="M45.4442 102.761C45.4442 103.823 45.1644 104.656 44.6048 105.263C44.0445 105.869 43.3029 106.172 42.3792 106.172C41.4469 106.172 40.6998 105.869 40.1379 105.263C39.576 104.657 39.2947 103.823 39.2947 102.761V100.265C39.2947 99.2077 39.5744 98.3731 40.134 97.7628C40.6935 97.1524 41.4375 96.8477 42.3659 96.8477C43.2904 96.8477 44.0336 97.1524 44.5978 97.7628C45.1613 98.3731 45.4442 99.2077 45.4442 100.265V102.761ZM43.6272 100.078C43.6272 99.4977 43.5155 99.0467 43.2927 98.7279C43.07 98.4083 42.7605 98.2489 42.3659 98.2489C41.9666 98.2489 41.6571 98.4083 41.4391 98.7279C41.2202 99.0467 41.1116 99.4977 41.1116 100.078V102.935C41.1116 103.528 41.2218 103.983 41.4422 104.3C41.6633 104.617 41.9752 104.776 42.3792 104.776C42.7746 104.776 43.0817 104.618 43.2998 104.3C43.5186 103.983 43.6272 103.527 43.6272 102.935V100.078Z" fill="black"/>
<path d="M52.6298 99.3312C52.6298 99.7798 52.5133 100.176 52.2805 100.522C52.0476 100.87 51.7272 101.14 51.3185 101.335C51.8139 101.538 52.207 101.829 52.4985 102.209C52.79 102.588 52.9353 103.023 52.9353 103.512C52.9353 104.351 52.6423 105.002 52.0585 105.47C51.474 105.936 50.7253 106.17 49.8141 106.17C48.8615 106.17 48.0792 105.936 47.4673 105.47C46.8554 105.003 46.5491 104.351 46.5491 103.512C46.5491 103.022 46.6999 102.588 47.0016 102.209C47.3032 101.829 47.7127 101.538 48.2285 101.335C47.8002 101.14 47.4634 100.869 47.2204 100.522C46.9773 100.176 46.8554 99.779 46.8554 99.3312C46.8554 98.5341 47.1282 97.9222 47.6736 97.4924C48.2191 97.0633 48.9287 96.8477 49.8024 96.8477C50.6386 96.8477 51.3192 97.0633 51.8436 97.4924C52.3672 97.9222 52.6298 98.5341 52.6298 99.3312ZM51.1129 103.426C51.1129 103.024 50.9871 102.693 50.7347 102.434C50.483 102.175 50.172 102.046 49.8016 102.046C49.3929 102.046 49.0545 102.176 48.7833 102.434C48.5129 102.694 48.3777 103.024 48.3777 103.426C48.3777 103.838 48.5114 104.165 48.7802 104.41C49.049 104.655 49.3929 104.777 49.8133 104.777C50.1884 104.777 50.4987 104.655 50.7441 104.41C50.9902 104.165 51.1129 103.837 51.1129 103.426ZM50.8128 99.4125C50.8128 99.0546 50.7191 98.7724 50.5323 98.563C50.3447 98.3528 50.1017 98.2489 49.8016 98.2489C49.4601 98.2489 49.1874 98.3512 48.9834 98.556C48.7794 98.7615 48.677 99.0467 48.677 99.4125C48.677 99.7813 48.781 100.078 48.9889 100.306C49.1967 100.532 49.4718 100.644 49.8133 100.644C50.1126 100.644 50.3549 100.533 50.5378 100.308C50.7214 100.085 50.8128 99.7852 50.8128 99.4125Z" fill="black"/>
<path d="M56.0949 106.04H54.2717V104.447H56.0949V106.04Z" fill="black"/>
<path d="M63.9231 106.039H57.8236V104.85L60.6393 101.676C61.0597 101.183 61.3582 100.765 61.5349 100.423C61.7122 100.079 61.8006 99.7653 61.8006 99.4785C61.8006 99.1057 61.7068 98.8064 61.5192 98.5829C61.3324 98.3579 61.0511 98.2469 60.6768 98.2469C60.2814 98.2469 59.975 98.3899 59.7585 98.6759C59.5421 98.9627 59.4342 99.3261 59.4342 99.7653H57.661L57.6485 99.7278C57.6282 98.9237 57.8939 98.2414 58.448 97.6842C59.0013 97.1255 59.7445 96.8457 60.6768 96.8457C61.6091 96.8457 62.3335 97.0841 62.8493 97.5592C63.3659 98.0336 63.6238 98.6728 63.6238 99.473C63.6238 100.016 63.4792 100.512 63.19 100.96C62.9009 101.409 62.4023 102.028 61.6951 102.821L60.197 104.613L60.2095 104.644H63.9238V106.039H63.9231Z" fill="black"/>
<path d="M71.1719 102.761C71.1719 103.823 70.8922 104.656 70.3326 105.263C69.7723 105.869 69.0307 106.172 68.107 106.172C67.1747 106.172 66.4276 105.869 65.8657 105.263C65.3038 104.657 65.0225 103.823 65.0225 102.761V100.265C65.0225 99.2077 65.3022 98.3731 65.8618 97.7628C66.4213 97.1524 67.1653 96.8477 68.0937 96.8477C69.0182 96.8477 69.7614 97.1524 70.3256 97.7628C70.889 98.3731 71.1719 99.2077 71.1719 100.265V102.761ZM69.355 100.078C69.355 99.4977 69.2432 99.0467 69.0205 98.7279C68.7978 98.4083 68.4883 98.2489 68.0937 98.2489C67.6943 98.2489 67.3849 98.4083 67.1668 98.7279C66.948 99.0467 66.8394 99.4977 66.8394 100.078V102.935C66.8394 103.528 66.9496 103.983 67.17 104.3C67.3911 104.617 67.7029 104.776 68.107 104.776C68.5024 104.776 68.8095 104.618 69.0276 104.3C69.2464 103.983 69.355 103.527 69.355 102.935V100.078Z" fill="black"/>
<path d="M76.7345 106.039H74.9175V98.5591H73.0381V97.172L76.7345 96.8477V106.039Z" fill="black"/>
<path d="M85.6928 99.3312C85.6928 99.7798 85.5763 100.176 85.3434 100.522C85.1106 100.87 84.7902 101.14 84.3814 101.335C84.8769 101.538 85.27 101.829 85.5615 102.209C85.853 102.588 85.9983 103.023 85.9983 103.512C85.9983 104.351 85.7053 105.002 85.1215 105.47C84.537 105.936 83.7883 106.17 82.8771 106.17C81.9245 106.17 81.1422 105.936 80.5303 105.47C79.9184 105.003 79.6121 104.351 79.6121 103.512C79.6121 103.022 79.7629 102.588 80.0645 102.209C80.3662 101.829 80.7757 101.538 81.2915 101.335C80.8632 101.14 80.5264 100.869 80.2834 100.522C80.0403 100.176 79.9184 99.779 79.9184 99.3312C79.9184 98.5341 80.1911 97.9222 80.7366 97.4924C81.2821 97.0633 81.9917 96.8477 82.8654 96.8477C83.7016 96.8477 84.3822 97.0633 84.9066 97.4924C85.431 97.9222 85.6928 98.5341 85.6928 99.3312ZM84.1759 103.426C84.1759 103.024 84.0501 102.693 83.7977 102.434C83.546 102.175 83.235 102.046 82.8646 102.046C82.4559 102.046 82.1175 102.176 81.8463 102.434C81.5759 102.694 81.4407 103.024 81.4407 103.426C81.4407 103.838 81.5744 104.165 81.8432 104.41C82.112 104.655 82.4559 104.777 82.8763 104.777C83.2514 104.777 83.5617 104.655 83.8071 104.41C84.0532 104.165 84.1759 103.837 84.1759 103.426ZM83.8758 99.4125C83.8758 99.0546 83.782 98.7724 83.5953 98.563C83.4077 98.3528 83.1647 98.2489 82.8646 98.2489C82.5231 98.2489 82.2503 98.3512 82.0464 98.556C81.8424 98.7615 81.74 99.0467 81.74 99.4125C81.74 99.7813 81.844 100.078 82.0518 100.306C82.2597 100.532 82.5348 100.644 82.8763 100.644C83.1756 100.644 83.4179 100.533 83.6007 100.308C83.7844 100.085 83.8758 99.7852 83.8758 99.4125Z" fill="black"/>
</svg>
