<svg width="123" height="123" viewBox="0 0 123 123" fill="none" xmlns="http://www.w3.org/2000/svg">
<g filter="url(#filter0_d)">
<rect x="12" y="12" width="99" height="99" rx="12" fill="#323142"/>
</g>
<path d="M61.9282 69.5855C39.2266 69.5855 39.2266 69.5855 39.152 69.5787C33.712 69.3822 29.4102 64.9246 29.4102 59.4371C29.4102 54.5459 32.9736 50.3727 37.709 49.492C37.5939 48.74 37.5397 47.9881 37.5397 47.2429C37.5397 38.8356 44.3752 32 52.7825 32C57.7144 32 62.3686 34.4389 65.2071 38.4426C67.1718 36.898 69.57 36.0648 72.0901 36.0648C77.5234 36.0648 82.0827 39.9466 83.0379 45.2376C89.3992 45.644 94.4463 50.9486 94.4463 57.4048C94.4463 57.757 94.4328 58.1296 94.3989 58.5022L92.3733 58.3329C92.4004 58.0212 92.4139 57.7164 92.4139 57.398C92.4139 51.7954 87.8546 47.2361 82.252 47.2361L82.1504 47.2429H81.2291L81.141 46.3283C80.6736 41.6335 76.7849 38.0904 72.0901 38.0904C69.6987 38.0904 67.4292 39.0185 65.7085 40.6986L64.7871 41.5996L64.1232 40.4953C61.7115 36.4441 57.4706 34.0324 52.7825 34.0324C45.4998 34.0324 39.5721 39.9602 39.5721 47.2429C39.5721 48.1981 39.6805 49.1668 39.8972 50.1356L40.1547 51.2873L38.9759 51.3754C34.7485 51.6802 31.4358 55.2233 31.4358 59.4371C31.4358 63.8271 34.8773 67.3973 39.274 67.5531C39.5179 67.5531 51.4208 67.5531 61.9215 67.5531V69.5855H61.9282Z" fill="#7E849A"/>
<path d="M48.7171 59.2269C46.4747 59.2269 44.6523 57.4046 44.6523 55.1622C44.6523 52.9198 46.4747 51.0974 48.7171 51.0974C50.9595 51.0974 52.7819 52.9198 52.7819 55.1622C52.7819 57.4046 50.9595 59.2269 48.7171 59.2269ZM48.7171 53.1298C47.5993 53.1298 46.6847 54.0444 46.6847 55.1622C46.6847 56.28 47.5993 57.1946 48.7171 57.1946C49.8349 57.1946 50.7495 56.28 50.7495 55.1622C50.7495 54.0444 49.8417 53.1298 48.7171 53.1298Z" fill="#7E849A"/>
<path d="M61.9261 59.2269C61.5128 59.2269 61.1064 59.166 60.7134 59.044C59.0062 58.5156 57.8613 56.9574 57.8613 55.1622C57.8613 52.9198 59.6837 51.0974 61.9261 51.0974C64.1685 51.0974 65.9908 52.9198 65.9908 55.1622C65.9908 57.4046 64.1685 59.2269 61.9261 59.2269ZM61.9261 53.1298C60.8083 53.1298 59.8937 54.0444 59.8937 55.1622C59.8937 56.0564 60.4695 56.8355 61.3231 57.0997C61.5196 57.1607 61.7161 57.1946 61.9261 57.1946C63.0439 57.1946 63.9585 56.28 63.9585 55.1622C63.9585 54.0444 63.0507 53.1298 61.9261 53.1298Z" fill="#7E849A"/>
<path d="M77.1717 90.9999L76.833 90.8779C61.1227 85.2686 59.8965 64.6128 59.8965 58.4208V57.5266L60.784 57.4182C68.446 56.4629 76.3317 47.6763 76.413 47.5882L77.1717 46.7346L77.9305 47.5882C78.0118 47.6763 85.9042 56.4629 93.5595 57.4182L94.4469 57.5266V58.4208C94.4469 64.6196 93.2275 85.2686 77.5104 90.8779L77.1717 90.9999ZM61.9356 59.2812C62.0508 65.9406 63.6699 83.7307 77.1717 88.832C90.6735 83.7239 92.2859 65.9338 92.4078 59.2812C85.6942 58.0008 79.326 51.9646 77.1717 49.7425C75.0174 51.9646 68.6493 58.0008 61.9356 59.2812Z" fill="#7E849A"/>
<path d="M77.1718 85.9527L76.7585 85.7698C66.6508 81.2782 64.4355 66.8551 64.4355 61.6861V60.7918L65.323 60.6834C70.7901 59.9992 76.413 54.6947 76.474 54.6405L77.1718 53.9766L77.8696 54.6405C77.9238 54.6947 83.567 59.9992 89.0206 60.6834L89.908 60.7918V61.6861C89.908 66.8619 87.6927 81.2782 77.585 85.7698L77.1718 85.9527ZM66.4815 62.5397C66.7186 69.2194 69.713 80.0588 77.1718 83.7171C84.6306 80.0656 87.6182 69.2194 87.8621 62.5397C83.2147 61.6115 78.8383 58.17 77.1718 56.7338C75.5052 58.17 71.1289 61.6115 66.4815 62.5397Z" fill="#7E849A"/>
<path d="M75.4926 75.1137L70.3574 69.9718L71.7936 68.5355L75.4655 72.2074L82.5382 64.8298L84.0015 66.2322L75.4926 75.1137Z" fill="#7E849A"/>
<path d="M44.4427 46.4908L42.4238 46.2334C43.1013 40.9289 47.6538 36.9319 53.0058 36.9319C54.7739 36.9319 56.5218 37.3722 58.0596 38.1987L57.0908 39.9872C55.8511 39.3165 54.4352 38.9643 53.0058 38.9643C48.67 38.9643 44.9846 42.2025 44.4427 46.4908Z" fill="#7E849A"/>
<defs>
<filter id="filter0_d" x="0" y="0" width="123" height="123" filterUnits="userSpaceOnUse" color-interpolation-filters="sRGB">
<feFlood flood-opacity="0" result="BackgroundImageFix"/>
<feColorMatrix in="SourceAlpha" type="matrix" values="0 0 0 0 0 0 0 0 0 0 0 0 0 0 0 0 0 0 127 0"/>
<feOffset/>
<feGaussianBlur stdDeviation="6"/>
<feColorMatrix type="matrix" values="0 0 0 0 0 0 0 0 0 0 0 0 0 0 0 0 0 0 0.05 0"/>
<feBlend mode="normal" in2="BackgroundImageFix" result="effect1_dropShadow"/>
<feBlend mode="normal" in="SourceGraphic" in2="effect1_dropShadow" result="shape"/>
</filter>
</defs>
</svg>
