<svg width="123" height="123" viewBox="0 0 123 123" fill="none" xmlns="http://www.w3.org/2000/svg">
<g filter="url(#filter0_d)">
<rect x="12" y="12" width="99" height="99" rx="12" fill="#323142"/>
</g>
<path d="M89 82.9844H68.375V84.7031H89V82.9844Z" fill="#7E849A"/>
<path d="M54.625 82.9844H34V84.7031H54.625V82.9844Z" fill="#7E849A"/>
<path d="M69.2344 87.2812H53.7656V80.4062H69.2344V87.2812ZM55.4844 85.5625H67.5156V82.125H55.4844V85.5625Z" fill="#7E849A"/>
<path d="M62.3594 76.1094H60.6406V81.2656H62.3594V76.1094Z" fill="#7E849A"/>
<path d="M61.5 42.5937C60.7266 42.5937 42.5938 42.5479 42.5938 38.2969C42.5938 34.0458 60.7266 34 61.5 34C62.2734 34 80.4062 34.0516 80.4062 38.2969C80.4062 42.5422 62.2734 42.5937 61.5 42.5937ZM44.3354 38.2969C44.9656 39.2536 51.0443 40.875 61.5 40.875C71.9557 40.875 78.0344 39.2536 78.6646 38.2969C78.0344 37.3401 71.95 35.7187 61.5 35.7187C51.05 35.7187 44.9656 37.3401 44.3354 38.2969Z" fill="#7E849A"/>
<path d="M61.5 53.7655C60.7266 53.7655 42.5938 53.7197 42.5938 49.4687H44.3125C44.7307 50.3567 50.838 52.0468 61.5 52.0468C72.162 52.0468 78.2693 50.3567 78.699 49.4114L80.4062 49.4687C80.4062 53.714 62.2734 53.7655 61.5 53.7655Z" fill="#7E849A"/>
<path d="M61.5 64.9374C60.7266 64.9374 42.5938 64.8916 42.5938 60.6405H44.3125C44.7307 61.5286 50.838 63.2187 61.5 63.2187C72.162 63.2187 78.2693 61.5286 78.699 60.5833L80.4062 60.6405C80.4062 64.8859 62.2734 64.9374 61.5 64.9374Z" fill="#7E849A"/>
<path d="M61.5 76.1094C60.7266 76.1094 42.5938 76.0635 42.5938 71.8125V38.2969H44.3125V71.8125C44.7307 72.7005 50.838 74.3906 61.5 74.3906C72.162 74.3906 78.2693 72.7005 78.699 71.7552L78.6875 38.2969H80.4062V71.8125C80.4062 76.0578 62.2734 76.1094 61.5 76.1094Z" fill="#7E849A"/>
<path d="M58.9219 46.8906H57.2031V48.6094H58.9219V46.8906Z" fill="#7E849A"/>
<path d="M62.3594 46.8906H60.6406V48.6094H62.3594V46.8906Z" fill="#7E849A"/>
<path d="M65.7969 46.8906H64.0781V48.6094H65.7969V46.8906Z" fill="#7E849A"/>
<path d="M58.9219 58.0625H57.2031V59.7812H58.9219V58.0625Z" fill="#7E849A"/>
<path d="M62.3594 58.0625H60.6406V59.7812H62.3594V58.0625Z" fill="#7E849A"/>
<path d="M65.7969 58.0625H64.0781V59.7812H65.7969V58.0625Z" fill="#7E849A"/>
<path d="M58.9219 69.2344H57.2031V70.9531H58.9219V69.2344Z" fill="#7E849A"/>
<path d="M62.3594 69.2344H60.6406V70.9531H62.3594V69.2344Z" fill="#7E849A"/>
<path d="M65.7969 69.2344H64.0781V70.9531H65.7969V69.2344Z" fill="#7E849A"/>
<defs>
<filter id="filter0_d" x="0" y="0" width="123" height="123" filterUnits="userSpaceOnUse" color-interpolation-filters="sRGB">
<feFlood flood-opacity="0" result="BackgroundImageFix"/>
<feColorMatrix in="SourceAlpha" type="matrix" values="0 0 0 0 0 0 0 0 0 0 0 0 0 0 0 0 0 0 127 0"/>
<feOffset/>
<feGaussianBlur stdDeviation="6"/>
<feColorMatrix type="matrix" values="0 0 0 0 0 0 0 0 0 0 0 0 0 0 0 0 0 0 0.05 0"/>
<feBlend mode="normal" in2="BackgroundImageFix" result="effect1_dropShadow"/>
<feBlend mode="normal" in="SourceGraphic" in2="effect1_dropShadow" result="shape"/>
</filter>
</defs>
</svg>
