<svg width="123" height="123" viewBox="0 0 123 123" fill="none" xmlns="http://www.w3.org/2000/svg">
<g filter="url(#filter0_d)">
<rect x="12" y="12" width="99" height="99" rx="12" fill="#323142"/>
</g>
<path d="M74.3896 69.513H37.8182C34.0584 69.513 31 66.4545 31 62.6948V39.8182C31 36.0584 34.0584 33 37.8182 33H74.8312C78.5909 33 81.6493 36.0584 81.6493 39.8182V56.3766H79.7013V39.8182C79.7013 37.1299 77.5195 34.9481 74.8312 34.9481H37.8182C35.1299 34.9481 32.9481 37.1299 32.9481 39.8182V62.6948C32.9481 65.3831 35.1299 67.5649 37.8182 67.5649H74.3896V69.513Z" fill="#7E849A"/>
<path d="M72.8967 61.2793H31.9746V63.2273H72.8967V61.2793Z" fill="#7E849A"/>
<path d="M57.8968 64.4221H54.7539V66.3702H57.8968V64.4221Z" fill="#7E849A"/>
<path d="M65.7471 75.4155H46.8965V77.3636H65.7471V75.4155Z" fill="#7E849A"/>
<path d="M50.6479 68.4474L49.8613 76.2976L51.7996 76.4918L52.5862 68.6417L50.6479 68.4474Z" fill="#7E849A"/>
<path d="M62.0028 68.4426L60.0645 68.6365L60.8495 76.4866L62.7878 76.2928L62.0028 68.4426Z" fill="#7E849A"/>
<path d="M93.3376 62.7532H69.9609V55.9351H93.3376V62.7532ZM71.909 60.8052H91.3895V57.8831H71.909V60.8052Z" fill="#7E849A"/>
<path d="M93.3376 91.0001H69.9609V84.1819H93.3376V91.0001ZM71.909 89.052H91.3895V86.1299H71.909V89.052Z" fill="#7E849A"/>
<path d="M81.8051 74.2858C76.5194 74.2858 72.2207 69.9871 72.2207 64.7014V61.7793H74.1688V64.7014C74.1688 68.9092 77.5908 72.3377 81.8051 72.3377C85.9415 72.3377 89.3636 68.9741 89.435 64.8442V61.7858H91.383V64.8637C91.2986 70.065 86.9999 74.2858 81.8051 74.2858Z" fill="#7E849A"/>
<path d="M91.3889 85.1558H89.4408V82.2337C89.4408 78.0259 86.0188 74.5974 81.8045 74.5974C77.6681 74.5974 74.246 77.961 74.1746 82.0909V85.1493H72.2266V82.0714C72.3175 76.8636 76.6162 72.6428 81.8045 72.6428C87.0902 72.6428 91.3889 76.9415 91.3889 82.2272V85.1558Z" fill="#7E849A"/>
<path d="M81.8048 69.5715C78.9281 69.5715 76.584 67.2274 76.584 64.3507V61.7793H78.532V64.3507C78.532 66.1559 79.9996 67.6235 81.8048 67.6235C83.5775 67.6235 85.045 66.1819 85.0775 64.4092V61.7793H87.0255V64.4286C86.9736 67.2728 84.6359 69.5715 81.8048 69.5715Z" fill="#7E849A"/>
<path d="M87.0255 85.156H85.0775V82.5845C85.0775 80.7794 83.61 79.3118 81.8048 79.3118C80.032 79.3118 78.5645 80.7534 78.532 82.5196V85.156H76.584V82.5066C76.6359 79.6625 78.9736 77.3638 81.8048 77.3638C84.6814 77.3638 87.0255 79.7079 87.0255 82.5845V85.156Z" fill="#7E849A"/>
<path d="M42.6883 34.5066H40.7402V62.7533H42.6883V34.5066Z" fill="#7E849A"/>
<path d="M71.909 33.5325H69.9609V56.9091H71.909V33.5325Z" fill="#7E849A"/>
<path d="M68.0133 46.1948H44.6367V38.4026H68.0133V46.1948ZM46.5848 44.2467H66.0653V40.3506H46.5848V44.2467Z" fill="#7E849A"/>
<path d="M61.1953 48.1428H51.4551V50.0909H61.1953V48.1428Z" fill="#7E849A"/>
<path d="M68.0133 52.0391H44.6367V53.9871H68.0133V52.0391Z" fill="#7E849A"/>
<path d="M68.0133 55.9351H44.6367V57.8831H68.0133V55.9351Z" fill="#7E849A"/>
<defs>
<filter id="filter0_d" x="0" y="0" width="123" height="123" filterUnits="userSpaceOnUse" color-interpolation-filters="sRGB">
<feFlood flood-opacity="0" result="BackgroundImageFix"/>
<feColorMatrix in="SourceAlpha" type="matrix" values="0 0 0 0 0 0 0 0 0 0 0 0 0 0 0 0 0 0 127 0"/>
<feOffset/>
<feGaussianBlur stdDeviation="6"/>
<feColorMatrix type="matrix" values="0 0 0 0 0 0 0 0 0 0 0 0 0 0 0 0 0 0 0.05 0"/>
<feBlend mode="normal" in2="BackgroundImageFix" result="effect1_dropShadow"/>
<feBlend mode="normal" in="SourceGraphic" in2="effect1_dropShadow" result="shape"/>
</filter>
</defs>
</svg>
