<svg width="123" height="123" viewBox="0 0 123 123" fill="none" xmlns="http://www.w3.org/2000/svg">
<g filter="url(#filter0_d)">
<rect x="12" y="12" width="99" height="99" rx="12" fill="#323142"/>
</g>
<path d="M71.375 80.9417H38.125C34.7475 80.9417 32 78.1942 32 74.8167V54.2659C32 50.8884 34.7475 48.1409 38.125 48.1409H71.375C74.7525 48.1409 77.5 50.8884 77.5 54.2659V74.8167C77.5 78.1942 74.7525 80.9417 71.375 80.9417ZM38.125 49.8909C35.71 49.8909 33.75 51.8509 33.75 54.2659V74.8167C33.75 77.2317 35.71 79.1917 38.125 79.1917H71.375C73.79 79.1917 75.75 77.2317 75.75 74.8167V54.2659C75.75 51.8509 73.79 49.8909 71.375 49.8909H38.125Z" fill="#7E849A"/>
<path d="M75.9192 73.5449H32.875V75.2949H75.9192V73.5449Z" fill="#7E849A"/>
<path d="M56.1612 76.374H53.3379V78.124H56.1612V76.374Z" fill="#7E849A"/>
<path d="M63.2193 86.25H46.2852V88H63.2193V86.25Z" fill="#7E849A"/>
<path d="M49.6467 79.9831L48.9395 87.041L50.6807 87.2155L51.3879 80.1576L49.6467 79.9831Z" fill="#7E849A"/>
<path d="M59.8506 79.9787L58.1094 80.1528L58.8152 87.2107L60.5564 87.0366L59.8506 79.9787Z" fill="#7E849A"/>
<path d="M88 88H60V86.25H86.25V33.75H58.25V48.625H56.5V32H88V88Z" fill="#7E849A"/>
<path d="M72.25 45.125C69.835 45.125 67.875 43.165 67.875 40.75C67.875 38.335 69.835 36.375 72.25 36.375C74.665 36.375 76.625 38.335 76.625 40.75C76.625 43.165 74.665 45.125 72.25 45.125ZM72.25 38.125C70.8033 38.125 69.625 39.3033 69.625 40.75C69.625 42.1967 70.8033 43.375 72.25 43.375C73.6967 43.375 74.875 42.1967 74.875 40.75C74.875 39.3033 73.6967 38.125 72.25 38.125Z" fill="#7E849A"/>
<path d="M81 39H79.25V40.75H81V39Z" fill="#7E849A"/>
<path d="M84.5 39H82.75V40.75H84.5V39Z" fill="#7E849A"/>
<path d="M84.5 56.5H76.625V58.25H84.5V56.5Z" fill="#7E849A"/>
<path d="M84.5 60H76.625V61.75H84.5V60Z" fill="#7E849A"/>
<path d="M76.625 82.75H67.875V84.5H76.625V82.75Z" fill="#7E849A"/>
<path d="M43.375 59.125H37.25V53H43.375V59.125ZM39 57.375H41.625V54.75H39V57.375Z" fill="#7E849A"/>
<path d="M43.375 67H37.25V60.875H43.375V67ZM39 65.25H41.625V62.625H39V65.25Z" fill="#7E849A"/>
<path d="M51.25 59.125H45.125V53H51.25V59.125ZM46.875 57.375H49.5V54.75H46.875V57.375Z" fill="#7E849A"/>
<path d="M51.25 67H45.125V60.875H51.25V67ZM46.875 65.25H49.5V62.625H46.875V65.25Z" fill="#7E849A"/>
<path d="M45.125 70.5H32.875V72.25H45.125V70.5Z" fill="#7E849A"/>
<path d="M48.625 70.5H46.875V72.25H48.625V70.5Z" fill="#7E849A"/>
<path d="M52.125 70.5H50.375V72.25H52.125V70.5Z" fill="#7E849A"/>
<path d="M55.625 70.5H53.875V72.25H55.625V70.5Z" fill="#7E849A"/>
<path d="M59.125 70.5H57.375V72.25H59.125V70.5Z" fill="#7E849A"/>
<path d="M62.625 70.5H60.875V72.25H62.625V70.5Z" fill="#7E849A"/>
<path d="M76.625 70.5H64.375V72.25H76.625V70.5Z" fill="#7E849A"/>
<path d="M72.25 53H70.5V54.75H72.25V53Z" fill="#7E849A"/>
<path d="M68.75 53H67V54.75H68.75V53Z" fill="#7E849A"/>
<path d="M65.25 53H63.5V54.75H65.25V53Z" fill="#7E849A"/>
<defs>
<filter id="filter0_d" x="0" y="0" width="123" height="123" filterUnits="userSpaceOnUse" color-interpolation-filters="sRGB">
<feFlood flood-opacity="0" result="BackgroundImageFix"/>
<feColorMatrix in="SourceAlpha" type="matrix" values="0 0 0 0 0 0 0 0 0 0 0 0 0 0 0 0 0 0 127 0"/>
<feOffset/>
<feGaussianBlur stdDeviation="6"/>
<feColorMatrix type="matrix" values="0 0 0 0 0 0 0 0 0 0 0 0 0 0 0 0 0 0 0.05 0"/>
<feBlend mode="normal" in2="BackgroundImageFix" result="effect1_dropShadow"/>
<feBlend mode="normal" in="SourceGraphic" in2="effect1_dropShadow" result="shape"/>
</filter>
</defs>
</svg>
