<svg width="24" height="11" viewBox="0 0 24 11" fill="none" xmlns="http://www.w3.org/2000/svg">
<path fill-rule="evenodd" clip-rule="evenodd" d="M22.9561 3.95117L22.915 3.93164L20.0684 2.70312C19.959 2.65625 19.8398 2.63867 19.7236 2.65234C19.666 2.66016 19.6084 2.67383 19.5537 2.69531L17.8447 3.36719L16.1367 2.69531C15.9775 2.63281 15.8008 2.63281 15.6416 2.69531L13.9326 3.36719L12.2246 2.69531C12.0654 2.63281 11.8887 2.63281 11.73 2.69531L10.4888 3.18359C9.979 2.07812 9.12939 1.19336 8.0874 0.640625C7.31104 0.228516 6.42773 0 5.49902 0C2.4668 0 0 2.4668 0 5.5C0 8.5332 2.4668 11 5.49902 11C7.76562 11 9.75244 9.64648 10.5903 7.58203H22.0791C23.1377 7.58203 24 6.71875 24 5.66016C24 4.93555 23.5996 4.28125 22.9561 3.95117ZM5.3999 8C6.78076 8 7.8999 6.88086 7.8999 5.5C7.8999 4.11914 6.78076 3 5.3999 3C4.01904 3 2.8999 4.11914 2.8999 5.5C2.8999 6.88086 4.01904 8 5.3999 8Z" fill="#237BEF"/>
</svg>
