<svg width="172" height="40" viewBox="0 0 172 40" fill="none" xmlns="http://www.w3.org/2000/svg">
	<path d="M0.446715 24.0609C-0.148905 21.1945 -0.148905 18.3653 0.446715 15.4989C0.558394 15.4989 0.670073 15.4989 0.781752 15.4989C8.33868 15.4989 15.9328 15.4989 23.4898 15.4989C23.7131 15.4989 23.862 15.5361 24.0109 15.7223C25.3139 16.988 26.5796 18.2536 27.8825 19.5193C28.1431 19.7799 28.1431 19.8171 27.8825 20.0777C26.5796 21.3434 25.2766 22.6463 23.9737 23.912C23.862 24.0237 23.7131 24.0609 23.5642 24.0609C15.9701 24.0609 8.33868 24.0609 0.744525 24.0609C0.670073 24.0609 0.558394 24.0609 0.446715 24.0609Z" fill="#191A39"></path>
	<path d="M21.9638 39.5852C20.0281 39.5852 18.1295 39.3246 16.2682 38.7662C15.5981 38.5801 15.2259 38.0217 15.412 37.4261C15.5981 36.8304 16.1938 36.5326 16.8266 36.7188C18.8368 37.2772 20.8843 37.5377 22.9689 37.4261C27.8456 37.1283 32.0149 35.1925 35.3653 31.6188C37.785 29.0129 39.3113 25.9232 39.8324 22.3867C40.577 17.2494 39.274 12.6334 35.9237 8.65016C32.9084 5.03921 29.0368 2.95454 24.3835 2.3217C21.7777 1.94943 19.2463 2.17279 16.7149 2.91732C16.3427 3.029 16.0076 3.029 15.6726 2.80564C15.3003 2.54505 15.1514 2.21002 15.1887 1.7633C15.2631 1.31659 15.4865 1.01878 15.9332 0.907099C16.7894 0.683741 17.6456 0.460384 18.4646 0.311479C23.1923 -0.470273 27.6967 0.1998 31.866 2.54505C37.1521 5.48593 40.577 9.91586 41.8054 15.8348C43.1084 22.2005 41.5076 27.8589 37.2266 32.7356C34.1368 36.2721 30.1908 38.394 25.5748 39.2129C24.3835 39.4363 23.1551 39.4735 21.9638 39.6224C22.0011 39.6224 22.0011 39.5852 21.9638 39.5852Z" fill="#191A39"></path>
	<path d="M1.19092 26.6671C7.85442 26.6671 14.4435 26.6671 21.107 26.6671C21.0325 26.7788 20.9581 26.816 20.9208 26.8905C18.1289 29.608 15.3369 32.3255 12.5822 35.043C12.4705 35.1547 12.3216 35.1919 12.1727 35.1919C10.423 35.1919 8.63617 35.1919 6.88654 35.1919C6.77486 35.1919 6.62595 35.1547 6.51427 35.043C4.16902 32.7722 2.38216 30.0547 1.26537 26.9649C1.22814 26.8905 1.22814 26.7788 1.19092 26.6671Z" fill="#191A39"></path>
	<path d="M21.107 12.8944C14.4435 12.8944 7.81719 12.8944 1.19092 12.8944C1.22814 12.7828 1.26537 12.6711 1.3026 12.5594C2.41938 9.46963 4.16902 6.78934 6.51427 4.51853C6.62595 4.40686 6.77486 4.36963 6.92376 4.36963C8.6734 4.36963 10.4603 4.36963 12.2099 4.36963C12.3216 4.36963 12.4705 4.40686 12.5822 4.51853C15.4114 7.27328 18.2033 9.9908 21.0325 12.7455C20.9953 12.7828 21.0325 12.82 21.107 12.8944Z" fill="#191A39"></path>
	<path d="M65.7041 25.7745V27.1147H55.4297V12.5964H65.4063V13.9366H56.9932V19.111H64.5129V20.414H56.9932V25.8118H65.7041V25.7745Z" fill="#237BEF"></path>
	<path d="M82.3815 27.0762L77.691 20.6733L73.0377 27.0762H71.2881L76.7976 19.5937L71.6231 12.5208H73.3728L77.7655 18.5142L82.1209 12.5952H83.7961L78.6589 19.5937L84.2056 27.1134H82.3815V27.0762Z" fill="#237BEF"></path>
	<path d="M100.474 27.0775L97.1232 22.4242C96.751 22.4614 96.3787 22.4986 95.9692 22.4986H92.0605V27.1147H90.5342V12.5964H95.9692C99.6546 12.5964 101.888 14.4577 101.888 17.5848C101.888 19.8556 100.697 21.4563 98.575 22.1636L102.112 27.1519H100.474V27.0775ZM100.362 17.5475C100.362 15.2395 98.8356 13.8994 95.932 13.8994H92.0605V21.1957H95.932C98.8356 21.1957 100.362 19.8183 100.362 17.5475Z" fill="#237BEF"></path>
	<path d="M118.789 23.2064H110.711L108.961 27.0779H107.36L113.987 12.5597H115.513L122.139 27.0779H120.538L118.789 23.2064ZM118.23 21.9779L114.731 14.1604L111.232 21.9779H118.23Z" fill="#237BEF"></path>
	<path d="M130.813 13.8998H125.713V12.5597H137.439V13.8998H132.339V27.1152H130.813V13.8998Z" fill="#237BEF"></path>
	<path d="M154.34 25.7745V27.1147H144.065V12.5964H154.042V13.9366H145.629V19.111H153.149V20.414H145.629V25.8118H154.34V25.7745Z" fill="#237BEF"></path>
	<path d="M160.706 25.3281L161.301 24.1369C162.344 25.142 164.168 25.8865 166.103 25.8865C168.821 25.8865 170.012 24.7325 170.012 23.3179C170.012 19.3347 161.078 21.7916 161.078 16.3938C161.078 14.2719 162.753 12.4106 166.438 12.4106C168.076 12.4106 169.789 12.8945 170.943 13.7135L170.422 14.942C169.193 14.123 167.741 13.7507 166.438 13.7507C163.795 13.7507 162.604 14.942 162.604 16.3938C162.604 20.377 171.538 17.9573 171.538 23.2807C171.538 25.4026 169.826 27.2266 166.141 27.2266C163.907 27.2266 161.785 26.4449 160.706 25.3281Z" fill="#237BEF"></path>
</svg>