<svg width="20" height="20" viewBox="0 0 20 20" fill="none" xmlns="http://www.w3.org/2000/svg">
<path d="M17.5391 0H5.82031C4.46336 0 3.35938 1.10398 3.35938 2.46094V15.0781H0.78125C0.349766 15.0781 0 15.4279 0 15.8594V17.5391C0 18.896 1.10398 20 2.46094 20H14.1797C15.5366 20 16.6406 18.896 16.6406 17.5391V4.92188H19.2188C19.6502 4.92188 20 4.57211 20 4.14062V2.46094C20 1.10398 18.896 0 17.5391 0ZM2.46094 18.4375C1.96555 18.4375 1.5625 18.0345 1.5625 17.5391V16.6406C1.80793 16.6406 11.5535 16.6406 11.7188 16.6406V17.5391C11.7188 17.855 11.7822 18.1674 11.8886 18.4375H2.46094ZM15.0781 2.46094C15.0781 3.7507 15.0781 16.8103 15.0781 17.5391C15.0781 18.0345 14.6751 18.4375 14.1797 18.4375C13.6843 18.4375 13.2812 18.0345 13.2812 17.5391V15.8594C13.2812 15.4279 12.9315 15.0781 12.5 15.0781H4.92188V2.46094C4.92188 1.96551 5.32492 1.5625 5.82031 1.5625H15.2479C15.1414 1.83281 15.0781 2.14563 15.0781 2.46094ZM18.4375 3.35938H16.6406V2.46094C16.6406 1.96551 17.0436 1.5625 17.5391 1.5625C18.0345 1.5625 18.4375 1.96551 18.4375 2.46094V3.35938Z" fill="#FFF"/>
<path fill-rule="evenodd" clip-rule="evenodd" d="M6.89655 4.65517C6.89655 4.17906 7.28251 3.7931 7.75862 3.7931H12.2414C12.7175 3.7931 13.1034 4.17906 13.1034 4.65517C13.1034 5.13128 12.7175 5.51724 12.2414 5.51724H7.75862C7.28251 5.51724 6.89655 5.13128 6.89655 4.65517Z" fill="#FFF"/>
<path fill-rule="evenodd" clip-rule="evenodd" d="M6.89655 8.10345C6.89655 7.62734 7.28251 7.24138 7.75862 7.24138H12.2414C12.7175 7.24138 13.1034 7.62734 13.1034 8.10345C13.1034 8.57956 12.7175 8.96552 12.2414 8.96552H7.75862C7.28251 8.96552 6.89655 8.57956 6.89655 8.10345Z" fill="#FFF"/>
<path fill-rule="evenodd" clip-rule="evenodd" d="M6.89655 11.5517C6.89655 11.0756 7.28251 10.6897 7.75862 10.6897H10.1724C10.6485 10.6897 11.0345 11.0756 11.0345 11.5517C11.0345 12.0278 10.6485 12.4138 10.1724 12.4138H7.75862C7.28251 12.4138 6.89655 12.0278 6.89655 11.5517Z" fill="#FFF"/>
</svg>
