<svg width="123" height="123" viewBox="0 0 123 123" fill="none" xmlns="http://www.w3.org/2000/svg">
<g filter="url(#filter0_d)">
<rect x="12" y="12" width="99" height="99" rx="12" fill="white"/>
</g>
<path d="M61.7486 70.0983H36.3362C32.4125 70.0983 29.2207 66.9065 29.2207 62.9828V39.1155C29.2207 35.1918 32.4125 32 36.3362 32H74.9631C78.8868 32 82.0786 35.1918 82.0786 39.1155V53.9021H80.0456V39.1155C80.0456 36.3099 77.7686 34.033 74.9631 34.033H36.3362C33.5307 34.033 31.2537 36.3099 31.2537 39.1155V62.9896C31.2537 65.7951 33.5307 68.0721 36.3362 68.0721H61.7486V70.0983Z" fill="#7E849A"/>
<path d="M60.7322 61.5055H30.2373V63.5385H60.7322V61.5055Z" fill="#7E849A"/>
<path d="M57.2887 64.7854H54.0088V66.8184H57.2887V64.7854Z" fill="#7E849A"/>
<path d="M63.7822 76.2651H45.8105V78.2981H63.7822V76.2651Z" fill="#7E849A"/>
<path d="M50.3766 68.9875L49.5557 77.1799L51.5785 77.3826L52.3994 69.1902L50.3766 68.9875Z" fill="#7E849A"/>
<path d="M76.9953 92.59L76.6565 92.468C60.9414 86.8569 59.7148 66.1949 59.7148 60.0011V59.1066L60.6026 58.9981C68.267 58.0426 76.155 49.2533 76.2363 49.1652L76.9953 48.3114L77.7543 49.1652C77.8356 49.2533 85.7304 58.0426 93.388 58.9981L94.2757 59.1066V60.0011C94.2757 66.2017 93.056 86.8569 77.3341 92.468L76.9953 92.59ZM61.7546 60.8685C61.8698 67.5299 63.4894 85.3254 76.9953 90.4282C90.5012 85.3186 92.114 67.5232 92.236 60.8685C85.5203 59.5877 79.1503 53.5497 76.9953 51.3202C74.8403 53.5429 68.4703 59.5809 61.7546 60.8685Z" fill="#237BEF"/>
<path d="M76.996 87.5414L76.5826 87.3584C66.4718 82.8587 64.2559 68.438 64.2559 63.2607V62.3662L65.1436 62.2577C70.6124 61.5733 76.237 56.2672 76.2912 56.213L76.9892 55.5489L77.6872 56.213C77.7414 56.2672 83.3863 61.5733 88.8415 62.2577L89.7293 62.3662V63.2607C89.7293 68.438 87.5133 82.8587 77.4026 87.3517L76.996 87.5414ZM66.3024 64.1213C66.5396 70.8031 69.5349 81.6457 76.996 85.3051C84.457 81.6525 87.4455 70.8031 87.6895 64.1213C83.0407 63.1929 78.663 59.7504 76.996 58.3137C75.3289 59.7504 70.9512 63.1929 66.3024 64.1213Z" fill="#7E849A"/>
<path d="M75.3154 76.6988L70.1787 71.5621L71.6154 70.1186L75.2883 73.7916L82.3631 66.4118L83.8269 67.8213L75.3154 76.6988Z" fill="#237BEF"/>
<path d="M42.4329 44.198H35.3174V37.0825H42.4329V44.198ZM37.3504 42.165H40.3999V39.1155H37.3504V42.165Z" fill="#7E849A"/>
<path d="M42.4329 53.3465H35.3174V46.231H42.4329V53.3465ZM37.3504 51.3135H40.3999V48.264H37.3504V51.3135Z" fill="#237BEF"/>
<path d="M51.5813 44.198H44.4658V37.0825H51.5813V44.198ZM46.4988 42.165H49.5483V39.1155H46.4988V42.165Z" fill="#237BEF"/>
<path d="M51.5813 53.3464H44.4658V46.231H51.5813V53.3464ZM46.4988 51.3134H49.5483V48.264H46.4988V51.3134Z" fill="#7E849A"/>
<path d="M44.4673 57.4125H30.2363V59.4455H44.4673V57.4125Z" fill="#7E849A"/>
<path d="M48.532 57.4125H46.499V59.4455H48.532V57.4125Z" fill="#7E849A"/>
<path d="M52.5984 57.4124H50.5654V59.4454H52.5984V57.4124Z" fill="#7E849A"/>
<path d="M56.6639 57.4125H54.6309V59.4455H56.6639V57.4125Z" fill="#7E849A"/>
<path d="M60.7303 57.4124H58.6973V59.4454H60.7303V57.4124Z" fill="#7E849A"/>
<path d="M71.9119 37.0825H69.8789V39.1155H71.9119V37.0825Z" fill="#237BEF"/>
<path d="M67.8455 37.0825H65.8125V39.1155H67.8455V37.0825Z" fill="#237BEF"/>
<defs>
<filter id="filter0_d" x="0" y="0" width="123" height="123" filterUnits="userSpaceOnUse" color-interpolation-filters="sRGB">
<feFlood flood-opacity="0" result="BackgroundImageFix"/>
<feColorMatrix in="SourceAlpha" type="matrix" values="0 0 0 0 0 0 0 0 0 0 0 0 0 0 0 0 0 0 127 0"/>
<feOffset/>
<feGaussianBlur stdDeviation="6"/>
<feColorMatrix type="matrix" values="0 0 0 0 0 0 0 0 0 0 0 0 0 0 0 0 0 0 0.05 0"/>
<feBlend mode="normal" in2="BackgroundImageFix" result="effect1_dropShadow"/>
<feBlend mode="normal" in="SourceGraphic" in2="effect1_dropShadow" result="shape"/>
</filter>
</defs>
</svg>
