<svg width="123" height="123" viewBox="0 0 123 123" fill="none" xmlns="http://www.w3.org/2000/svg">
<g filter="url(#filter0_d)">
<rect x="12" y="12" width="99" height="99" rx="12" fill="white"/>
</g>
<path d="M88.7169 81.2169H35.443C31.3276 81.2169 27.9824 77.8796 27.9824 73.7738V39.7562C27.9824 35.6505 31.3276 32.3131 35.443 32.3131H88.7247C92.84 32.3131 96.1852 35.6505 96.1852 39.7562V73.7738C96.1774 77.8796 92.8322 81.2169 88.7169 81.2169ZM35.443 34.4397C32.5023 34.4397 30.114 36.8224 30.114 39.7562V73.7738C30.114 76.7076 32.5023 79.0903 35.443 79.0903H88.7247C91.6653 79.0903 94.0536 76.7076 94.0536 73.7738V39.7562C94.0536 36.8224 91.6653 34.4397 88.7247 34.4397H35.443Z" fill="#7E849A"/>
<path d="M94.0455 70.584H29.0479V72.7105H94.0455V70.584Z" fill="#7E849A"/>
<path d="M64.2114 74.8371H59.9482V76.9637H64.2114V74.8371Z" fill="#237BEF"/>
<path d="M74.8612 89.7232H49.29V91.8498H74.8612V89.7232Z" fill="#7E849A"/>
<path d="M54.6255 80.0461L53.5586 90.68L55.6795 90.8918L56.7465 80.2579L54.6255 80.0461Z" fill="#7E849A"/>
<path d="M69.5281 80.0412L67.4072 80.2528L68.4731 90.8866L70.594 90.6751L69.5281 80.0412Z" fill="#7E849A"/>
<path d="M49.0962 57.7546L47.3613 56.5205L53.2582 48.2781L58.6494 51.5067L64.2739 44.77L69.7507 52.4148L74.2006 48.8679L75.5309 50.5288L69.3228 55.4805L64.1495 48.247L59.1161 54.262L53.8494 51.1109L49.0962 57.7546Z" fill="#237BEF"/>
<path d="M55.6853 64.2508H53.5537V66.3774H55.6853V64.2508Z" fill="#7E849A"/>
<path d="M59.948 64.2508H57.8164V66.3774H59.948V64.2508Z" fill="#7E849A"/>
<path d="M64.2117 64.2508H62.0801V66.3774H64.2117V64.2508Z" fill="#237BEF"/>
<path d="M68.4744 64.2508H66.3428V66.3774H68.4744V64.2508Z" fill="#7E849A"/>
<defs>
<filter id="filter0_d" x="0" y="0" width="123" height="123" filterUnits="userSpaceOnUse" color-interpolation-filters="sRGB">
<feFlood flood-opacity="0" result="BackgroundImageFix"/>
<feColorMatrix in="SourceAlpha" type="matrix" values="0 0 0 0 0 0 0 0 0 0 0 0 0 0 0 0 0 0 127 0"/>
<feOffset/>
<feGaussianBlur stdDeviation="6"/>
<feColorMatrix type="matrix" values="0 0 0 0 0 0 0 0 0 0 0 0 0 0 0 0 0 0 0.05 0"/>
<feBlend mode="normal" in2="BackgroundImageFix" result="effect1_dropShadow"/>
<feBlend mode="normal" in="SourceGraphic" in2="effect1_dropShadow" result="shape"/>
</filter>
</defs>
</svg>
