<svg width="16" height="16" viewBox="0 0 16 16" fill="none" xmlns="http://www.w3.org/2000/svg">
<path d="M16 9.72918V15.6445H12.5707V10.1254C12.5707 8.7389 12.0747 7.7927 10.8334 7.7927C9.88579 7.7927 9.32189 8.43037 9.07381 9.04721C8.98334 9.26772 8.96006 9.57466 8.96006 9.88333V15.6445H5.52958C5.52958 15.6445 5.57579 6.29689 5.52958 5.32841H8.95972V6.79067C8.95276 6.8016 8.94372 6.8134 8.93718 6.824H8.95972V6.79067C9.41545 6.08876 10.2293 5.08605 12.051 5.08605C14.308 5.08602 16 6.56048 16 9.72918ZM1.94116 0.355545C0.767605 0.355545 0 1.12531 0 2.13757C0 3.12778 0.745397 3.9209 1.89563 3.9209H1.91855C3.11484 3.9209 3.85882 3.12793 3.85882 2.13757C3.83628 1.12531 3.11484 0.355545 1.94116 0.355545ZM0.20374 15.6445H3.63291V5.32841H0.20374V15.6445Z" fill="#94C2FF"/>
</svg>
