<svg width="123" height="123" viewBox="0 0 123 123" fill="none" xmlns="http://www.w3.org/2000/svg">
<g filter="url(#filter0_d)">
<rect x="12" y="12" width="99" height="99" rx="12" fill="white"/>
</g>
<path d="M66.5209 85.3742H56.9887V80.9512C55.2665 80.5064 53.6206 79.8264 52.0828 78.9113L48.9498 82.0443L42.2137 75.3018L45.3466 72.1752C44.4316 70.631 43.7516 68.9851 43.3067 67.2693H38.8838V57.7371H43.3067C43.7516 56.0149 44.4316 54.369 45.3466 52.8311L42.2137 49.6982L48.9498 42.9494L52.0828 46.0823C53.627 45.1672 55.2729 44.4809 56.9887 44.0424V39.6194H66.5209V44.0424C68.2431 44.4872 69.8826 45.1672 71.4269 46.0823L74.5598 42.9494L81.3023 49.6918L78.1693 52.8248C79.0844 54.369 79.7644 56.0149 80.2092 57.7307H84.6322V67.2629H80.2092C79.7644 68.9851 79.0844 70.6247 78.1693 72.1689L81.3023 75.3018L74.5662 82.0443L71.4332 78.9113C69.889 79.8264 68.2431 80.5064 66.5273 80.9512V85.3742H66.5209ZM58.8951 83.4678H64.6145V79.4261L65.3707 79.2672C67.3852 78.8351 69.298 78.0407 71.0519 76.9032L71.7001 76.4838L74.5598 79.3498L78.6015 75.3082L75.7418 72.4421L76.1612 71.7939C77.2987 70.04 78.0931 68.1272 78.5252 66.1064L78.6841 65.3501H82.7258V59.6308H78.6841L78.5252 58.8746C78.0931 56.8537 77.2987 54.9473 76.1612 53.1934L75.7418 52.5452L78.6015 49.6855L74.5598 45.6438L71.7001 48.5035L71.0519 48.0841C69.2916 46.9466 67.3852 46.1522 65.3644 45.7201L64.6081 45.5612V41.5195H58.8888V45.5612L58.1326 45.7201C56.1181 46.1522 54.2053 46.9466 52.4513 48.0841L51.8032 48.5035L48.9435 45.6438L44.8955 49.6855L47.7551 52.5452L47.3357 53.1934C46.1982 54.9473 45.4038 56.8601 44.9717 58.8746L44.8128 59.6308H40.7712V65.3501H44.8128L44.9717 66.1064C45.4038 68.1208 46.1982 70.0337 47.3357 71.7876L47.7678 72.4421L44.9018 75.3018L48.9435 79.3498L51.8032 76.4902L52.4513 76.9096C54.2053 78.0471 56.1181 78.8414 58.1326 79.2736L58.8888 79.4324V83.4678H58.8951Z" fill="#7E849A"/>
<path d="M61.7552 74.8888C54.9238 74.8888 49.3633 69.3283 49.3633 62.4968C49.3633 55.6654 54.9238 50.1049 61.7552 50.1049C68.5866 50.1049 74.1471 55.6654 74.1471 62.4968C74.1471 69.3283 68.593 74.8888 61.7552 74.8888ZM61.7552 52.0114C55.9723 52.0114 51.2697 56.7139 51.2697 62.4968C51.2697 68.2797 55.9723 72.9823 61.7552 72.9823C67.5381 72.9823 72.2407 68.2797 72.2407 62.4968C72.2407 56.7139 67.5381 52.0114 61.7552 52.0114Z" fill="#7E849A"/>
<path d="M92.2274 62.4968H90.3209C90.3209 46.7305 77.4905 33.9001 61.7242 33.9001C48.7794 33.9001 37.4106 42.6253 34.087 55.1189L32.2441 54.6295C35.7901 41.3035 47.9088 32 61.7178 32C78.5391 31.9936 92.2274 45.6756 92.2274 62.4968Z" fill="#237BEF"/>
<path d="M61.7239 93C44.9027 93 31.2207 79.3181 31.2207 62.4968H33.1272C33.1272 78.2632 45.9576 91.0936 61.7239 91.0936C74.6687 91.0936 86.0311 82.3684 89.361 69.8748L91.2039 70.3641C87.6452 83.6902 75.5266 93 61.7239 93Z" fill="#237BEF"/>
<path d="M91.7565 75.5878L90.0089 71.508L85.9291 73.2556L85.1729 71.5016L91.0066 69.0042L93.5104 74.8379L91.7565 75.5878Z" fill="#237BEF"/>
<path d="M32.3576 56.1102L30 50.2193L31.7666 49.5075L33.4189 53.6318L37.5368 51.9796L38.2422 53.7526L32.3576 56.1102Z" fill="#237BEF"/>
<path d="M62.7082 61.5436H60.8018V63.4501H62.7082V61.5436Z" fill="#237BEF"/>
<path d="M58.8957 61.5436H56.9893V63.4501H58.8957V61.5436Z" fill="#237BEF"/>
<path d="M66.5217 61.5436H64.6152V63.4501H66.5217V61.5436Z" fill="#237BEF"/>
<defs>
<filter id="filter0_d" x="0" y="0" width="123" height="123" filterUnits="userSpaceOnUse" color-interpolation-filters="sRGB">
<feFlood flood-opacity="0" result="BackgroundImageFix"/>
<feColorMatrix in="SourceAlpha" type="matrix" values="0 0 0 0 0 0 0 0 0 0 0 0 0 0 0 0 0 0 127 0"/>
<feOffset/>
<feGaussianBlur stdDeviation="6"/>
<feColorMatrix type="matrix" values="0 0 0 0 0 0 0 0 0 0 0 0 0 0 0 0 0 0 0.05 0"/>
<feBlend mode="normal" in2="BackgroundImageFix" result="effect1_dropShadow"/>
<feBlend mode="normal" in="SourceGraphic" in2="effect1_dropShadow" result="shape"/>
</filter>
</defs>
</svg>
