<svg width="123" height="123" viewBox="0 0 123 123" fill="none" xmlns="http://www.w3.org/2000/svg">
<g filter="url(#filter0_d)">
<rect x="12" y="12" width="99" height="99" rx="12" fill="white"/>
</g>
<path d="M37.7656 51.9688C35.135 51.9688 33 49.8338 33 47.2031C33 44.5725 35.135 42.4375 37.7656 42.4375C40.3963 42.4375 42.5312 44.5725 42.5312 47.2031C42.5312 49.8338 40.3963 51.9688 37.7656 51.9688ZM37.7656 44.3438C36.1898 44.3438 34.9062 45.6273 34.9062 47.2031C34.9062 48.779 36.1898 50.0625 37.7656 50.0625C39.3415 50.0625 40.625 48.779 40.625 47.2031C40.625 45.6273 39.3415 44.3438 37.7656 44.3438Z" fill="#237BEF"/>
<path d="M37.7656 80.5625C35.135 80.5625 33 78.4211 33 75.7969C33 73.1663 35.135 71.0312 37.7656 71.0312C40.3963 71.0312 42.5312 73.1663 42.5312 75.7969C42.5312 78.4211 40.3963 80.5625 37.7656 80.5625ZM37.7656 72.9375C36.1898 72.9375 34.9062 74.221 34.9062 75.7969C34.9062 77.3727 36.1898 78.6562 37.7656 78.6562C39.3415 78.6562 40.625 77.3727 40.625 75.7969C40.625 74.221 39.3415 72.9375 37.7656 72.9375Z" fill="#237BEF"/>
<path d="M87.3281 51.9688C84.6975 51.9688 82.5625 49.8338 82.5625 47.2031C82.5625 44.5725 84.6975 42.4375 87.3281 42.4375C89.9588 42.4375 92.0938 44.5725 92.0938 47.2031C92.0938 49.8338 89.9588 51.9688 87.3281 51.9688ZM87.3281 44.3438C85.7523 44.3438 84.4688 45.6273 84.4688 47.2031C84.4688 48.779 85.7523 50.0625 87.3281 50.0625C88.904 50.0625 90.1875 48.779 90.1875 47.2031C90.1875 45.6273 88.904 44.3438 87.3281 44.3438Z" fill="#237BEF"/>
<path d="M87.3281 80.5625C84.6975 80.5625 82.5625 78.4211 82.5625 75.7969C82.5625 73.1663 84.6975 71.0312 87.3281 71.0312C89.9588 71.0312 92.0938 73.1663 92.0938 75.7969C92.0938 78.4211 89.9588 80.5625 87.3281 80.5625ZM87.3281 72.9375C85.7523 72.9375 84.4688 74.221 84.4688 75.7969C84.4688 77.3727 85.7523 78.6562 87.3281 78.6562C88.904 78.6562 90.1875 77.3727 90.1875 75.7969C90.1875 74.221 88.904 72.9375 87.3281 72.9375Z" fill="#237BEF"/>
<path d="M62.5469 40.5312C59.9163 40.5312 57.7812 38.3962 57.7812 35.7656C57.7812 33.135 59.9163 31 62.5469 31C65.1775 31 67.3125 33.135 67.3125 35.7656C67.3125 38.3962 65.1775 40.5312 62.5469 40.5312ZM62.5469 32.9062C60.971 32.9062 59.6875 34.1898 59.6875 35.7656C59.6875 37.3415 60.971 38.625 62.5469 38.625C64.1227 38.625 65.4062 37.3415 65.4062 35.7656C65.4062 34.1898 64.1227 32.9062 62.5469 32.9062Z" fill="#237BEF"/>
<path d="M62.5469 92C59.9163 92 57.7812 89.865 57.7812 87.2344C57.7812 84.6038 59.9163 82.4688 62.5469 82.4688C65.1775 82.4688 67.3125 84.6038 67.3125 87.2344C67.3125 89.8586 65.1775 92 62.5469 92ZM62.5469 84.375C60.971 84.375 59.6875 85.6585 59.6875 87.2344C59.6875 88.8102 60.971 90.0938 62.5469 90.0938C64.1227 90.0938 65.4062 88.8102 65.4062 87.2344C65.4062 85.6585 64.1227 84.375 62.5469 84.375Z" fill="#237BEF"/>
<path d="M62.5469 78.6562C53.0855 78.6562 45.3906 70.9614 45.3906 61.5C45.3906 52.0386 53.0855 44.3438 62.5469 44.3438C72.0082 44.3438 79.7031 52.0386 79.7031 61.5C79.7031 70.955 72.0082 78.6562 62.5469 78.6562ZM62.5469 46.25C54.1403 46.25 47.2969 53.0934 47.2969 61.5C47.2969 69.9066 54.1403 76.75 62.5469 76.75C70.9534 76.75 77.7969 69.9066 77.7969 61.5C77.7969 53.0871 70.9534 46.25 62.5469 46.25Z" fill="#237BEF"/>
<path d="M79.4235 60.5469H46.3438V62.4531H79.4235V60.5469Z" fill="#237BEF"/>
<path d="M76.7234 52.4453H48.3711V54.3516H76.7234V52.4453Z" fill="#237BEF"/>
<path d="M76.7234 68.6484H48.3711V70.5547H76.7234V68.6484Z" fill="#237BEF"/>
<path d="M63.5 45.2969H61.5938V77.7031H63.5V45.2969Z" fill="#237BEF"/>
<path d="M62.5458 78.6562C56.7127 78.6562 52.1377 71.1202 52.1377 61.5C52.1377 51.8798 56.7063 44.3438 62.5458 44.3438C68.3853 44.3438 72.9539 51.8798 72.9539 61.5C72.9539 71.1202 68.3789 78.6562 62.5458 78.6562ZM62.5458 46.25C57.939 46.25 54.0439 53.2332 54.0439 61.5C54.0439 69.7668 57.939 76.75 62.5458 76.75C67.1526 76.75 71.0477 69.7668 71.0477 61.5C71.0477 53.2332 67.1526 46.25 62.5458 46.25Z" fill="#237BEF"/>
<path d="M63.5 39.5781H61.5938V45.2969H63.5V39.5781Z" fill="#237BEF"/>
<path d="M63.5 77.7031H61.5938V83.4219H63.5V77.7031Z" fill="#237BEF"/>
<path d="M41.5432 48.2686L40.5898 49.9194L47.9305 54.1584L48.8838 52.5076L41.5432 48.2686Z" fill="#237BEF"/>
<path d="M77.158 68.8278L76.2051 70.4788L83.552 74.7193L84.505 73.0683L77.158 68.8278Z" fill="#237BEF"/>
<path d="M47.9311 68.8335L40.585 73.0749L41.5381 74.7257L48.8842 70.4843L47.9311 68.8335Z" fill="#237BEF"/>
<path d="M83.559 48.2638L76.2129 52.506L77.1662 54.1569L84.5123 49.9146L83.559 48.2638Z" fill="#237BEF"/>
<path d="M55.7585 86.1901L54.834 87.8571L56.4399 88.7477L57.3644 87.0807L55.7585 86.1901Z" fill="#7E849A"/>
<path d="M52.5486 84.406L51.624 86.0731L53.2299 86.9637L54.1544 85.2967L52.5486 84.406Z" fill="#7E849A"/>
<path d="M49.3356 82.6193L48.4102 84.2857L50.0155 85.1773L50.941 83.5108L49.3356 82.6193Z" fill="#7E849A"/>
<path d="M46.8083 83.3901L45.207 82.5005L46.1347 80.8357L47.736 81.7253L46.8083 83.3901Z" fill="#7E849A"/>
<path d="M42.9227 79.0503L41.9951 80.7156L43.5994 81.6092L44.5269 79.9439L42.9227 79.0503Z" fill="#7E849A"/>
<path d="M37.7656 68.1719H35.8594V70.0781H37.7656V68.1719Z" fill="#7E849A"/>
<path d="M37.7656 64.3594H35.8594V66.2656H37.7656V64.3594Z" fill="#7E849A"/>
<path d="M37.7656 60.5469H35.8594V62.4531H37.7656V60.5469Z" fill="#7E849A"/>
<path d="M37.7656 56.7344H35.8594V58.6406H37.7656V56.7344Z" fill="#7E849A"/>
<path d="M37.7656 52.9219H35.8594V54.8281H37.7656V52.9219Z" fill="#7E849A"/>
<path d="M43.6053 41.3842L42 42.2758L42.9255 43.9422L44.5308 43.0507L43.6053 41.3842Z" fill="#7E849A"/>
<path d="M46.8107 39.5988L45.2061 40.4917L46.1329 42.1573L47.7375 41.2645L46.8107 39.5988Z" fill="#7E849A"/>
<path d="M50.0206 37.8205L48.416 38.7133L49.3428 40.379L50.9474 39.4861L50.0206 37.8205Z" fill="#7E849A"/>
<path d="M53.2296 36.0357L51.625 36.9285L52.5518 38.5942L54.1564 37.7013L53.2296 36.0357Z" fill="#7E849A"/>
<path d="M56.4374 34.2492L54.832 35.1407L55.7575 36.8072L57.3629 35.9156L56.4374 34.2492Z" fill="#7E849A"/>
<path d="M81.4884 41.3861L80.5625 43.0524L82.1677 43.9443L83.0935 42.278L81.4884 41.3861Z" fill="#7E849A"/>
<path d="M78.2843 39.6047L77.3584 41.271L78.9636 42.1629L79.8894 40.4966L78.2843 39.6047Z" fill="#7E849A"/>
<path d="M75.0733 37.8199L74.1475 39.4862L75.7526 40.3781L76.6785 38.7118L75.0733 37.8199Z" fill="#7E849A"/>
<path d="M71.8663 36.0386L70.9404 37.7048L72.5456 38.5968L73.4715 36.9305L71.8663 36.0386Z" fill="#7E849A"/>
<path d="M68.6554 34.2538L67.7295 35.92L69.3346 36.812L70.2605 35.1457L68.6554 34.2538Z" fill="#7E849A"/>
<path d="M89.2344 68.1719H87.3281V70.0781H89.2344V68.1719Z" fill="#7E849A"/>
<path d="M89.2344 64.3594H87.3281V66.2656H89.2344V64.3594Z" fill="#7E849A"/>
<path d="M89.2344 60.5469H87.3281V62.4531H89.2344V60.5469Z" fill="#7E849A"/>
<path d="M89.2344 56.7344H87.3281V58.6406H89.2344V56.7344Z" fill="#7E849A"/>
<path d="M89.2344 52.9219H87.3281V54.8281H89.2344V52.9219Z" fill="#7E849A"/>
<path d="M69.3288 86.1871L67.7246 87.0807L68.6522 88.746L70.2564 87.8524L69.3288 86.1871Z" fill="#7E849A"/>
<path d="M72.5382 84.4038L70.9336 85.2968L71.8606 86.9625L73.4652 86.0694L72.5382 84.4038Z" fill="#7E849A"/>
<path d="M75.7618 82.6181L74.1572 83.5113L75.0844 85.1769L76.689 84.2837L75.7618 82.6181Z" fill="#7E849A"/>
<path d="M78.9596 80.8378L77.3545 81.7299L78.2805 83.3961L79.8857 82.504L78.9596 80.8378Z" fill="#7E849A"/>
<path d="M82.1638 79.0523L80.5586 79.9442L81.4845 81.6105L83.0896 80.7185L82.1638 79.0523Z" fill="#7E849A"/>
<defs>
<filter id="filter0_d" x="0" y="0" width="123" height="123" filterUnits="userSpaceOnUse" color-interpolation-filters="sRGB">
<feFlood flood-opacity="0" result="BackgroundImageFix"/>
<feColorMatrix in="SourceAlpha" type="matrix" values="0 0 0 0 0 0 0 0 0 0 0 0 0 0 0 0 0 0 127 0"/>
<feOffset/>
<feGaussianBlur stdDeviation="6"/>
<feColorMatrix type="matrix" values="0 0 0 0 0 0 0 0 0 0 0 0 0 0 0 0 0 0 0.05 0"/>
<feBlend mode="normal" in2="BackgroundImageFix" result="effect1_dropShadow"/>
<feBlend mode="normal" in="SourceGraphic" in2="effect1_dropShadow" result="shape"/>
</filter>
</defs>
</svg>
