<svg width="148" height="38" viewBox="0 0 148 38" fill="none" xmlns="http://www.w3.org/2000/svg">
<path fill-rule="evenodd" clip-rule="evenodd" d="M20.7581 38C18.8899 38.002 17.0325 37.7305 15.2434 37.1973C15.0999 37.1504 14.97 37.0742 14.8616 36.9746C14.7756 36.8945 14.7034 36.8008 14.6477 36.6953C14.5227 36.459 14.4954 36.1817 14.5735 35.9238C14.5989 35.8418 14.634 35.7637 14.678 35.6914C14.7171 35.625 14.7639 35.5645 14.8176 35.5098C14.8889 35.4356 14.9719 35.3711 15.0637 35.3203C15.3001 35.1895 15.5784 35.1582 15.8381 35.2285C17.4339 35.7051 19.0911 35.9453 20.7571 35.9453C30.1585 35.9453 37.8079 28.3438 37.8079 18.9981C37.8079 9.65431 30.1594 2.05274 20.7571 2.05274C19.885 2.05274 19.0159 2.1172 18.1575 2.24806C17.3215 2.37501 16.4954 2.56446 15.6858 2.81446C15.428 2.88282 15.1546 2.84767 14.9221 2.71876C14.6887 2.59181 14.5149 2.37892 14.4358 2.12501C14.3577 1.87306 14.3801 1.59962 14.4983 1.36329C14.5471 1.26563 14.6096 1.17774 14.6848 1.10157C14.7932 0.992197 14.926 0.90626 15.0745 0.853525C16.9143 0.287119 18.8303 -0.00194329 20.7581 9.83168e-06C31.2991 9.83168e-06 39.8753 8.52735 39.8753 18.9981C39.8753 29.4688 31.302 38 20.7581 38ZM0.0207655 18.0664C-0.0544299 19.7539 0.0744764 21.4473 0.409437 23.1113H22.4622L26.4924 19.1055V18.8965L22.4622 14.8906H0.409437C0.1985 15.9395 0.068617 17.002 0.0207655 18.0664ZM11.677 4.17579L19.9485 12.3906L1.07936 12.3965C2.12916 9.28907 3.90455 6.47267 6.25807 4.17579H11.677ZM6.25905 33.8301H11.678L19.9495 25.6094H1.08131C2.13112 28.7168 3.90553 31.5332 6.25905 33.8301ZM145.451 21.2227C146.143 21.7891 146.489 22.5625 146.489 23.541C146.489 24.5449 146.07 25.3496 145.233 25.957C144.395 26.5645 143.285 26.8672 141.904 26.8672C140.351 26.8672 139.108 26.5078 138.173 25.7871C137.239 25.0664 136.771 24.084 136.771 22.8359H135.271C135.271 23.8731 135.539 24.791 136.075 25.5938C136.2 25.7774 136.339 25.9531 136.491 26.1192C136.619 26.2578 136.757 26.3906 136.904 26.5176C137.338 26.8926 137.855 27.207 138.453 27.4629C139.086 27.7324 139.755 27.9199 140.461 28.0254C140.926 28.0957 141.407 28.1309 141.904 28.1309C143.733 28.1309 145.204 27.709 146.318 26.8672C146.983 26.3692 147.45 25.7734 147.721 25.082C147.907 24.6055 148 24.084 148 23.5176C148 23.0899 147.951 22.6895 147.854 22.3184C147.75 21.9219 147.592 21.5567 147.378 21.2227C147.15 20.8652 146.859 20.5352 146.505 20.2344C146.219 19.9902 145.892 19.7656 145.525 19.5586C144.704 19.0899 143.497 18.6406 141.904 18.2109C140.311 17.7734 139.153 17.2715 138.429 16.7051C137.705 16.1387 137.344 15.4063 137.344 14.5078C137.344 13.5371 137.746 12.752 138.551 12.1524C139.356 11.5449 140.437 11.2422 141.794 11.2422C143.193 11.2422 144.306 11.6094 145.135 12.3457C145.964 13.0742 146.378 14.043 146.378 15.2481H147.891C147.891 14.252 147.634 13.3496 147.122 12.541C146.832 12.082 146.474 11.6797 146.047 11.3359C145.722 11.0723 145.357 10.8418 144.952 10.6465C144.383 10.3672 143.765 10.1758 143.1 10.0684C142.684 10 142.248 9.96681 141.794 9.96681C141.05 9.96681 140.363 10.0449 139.731 10.2012C138.887 10.4082 138.144 10.7559 137.502 11.2422C136.389 12.084 135.832 13.1797 135.832 14.5313C135.832 15.9238 136.433 17.0488 137.636 17.9082C138.482 18.5137 139.823 19.0762 141.66 19.5957C142.369 19.793 142.992 19.9942 143.531 20.2012C144.387 20.5293 145.028 20.8692 145.451 21.2227ZM57.7249 19.4121H49.4221V26.625H58.969V27.8887H47.9221V10.209H58.9075V11.4844H49.4221V18.1504H57.7249V19.4121ZM67.5403 17.6895L72.5393 10.209H74.3313L68.4544 18.9277L74.5149 27.8887H72.7102L67.5403 20.166L62.346 27.8887H60.5657L66.638 18.9277L60.7493 10.209H62.5413L67.5403 17.6895ZM78.9036 20.5293H84.0618L88.3528 27.8887H89.9505V27.7305L85.512 20.2149C85.9739 20.0781 86.3967 19.8965 86.7815 19.6699C87.0257 19.5254 87.2542 19.3633 87.4671 19.1836C87.5852 19.084 87.6985 18.9766 87.8079 18.8652C87.9446 18.7246 88.0735 18.5762 88.1946 18.418C88.8616 17.5508 89.1946 16.5508 89.1946 15.418C89.1946 14.8867 89.1389 14.3926 89.0276 13.9356C88.9807 13.7461 88.9251 13.5645 88.8587 13.3867L88.8118 13.2676L88.7512 13.1231C88.4856 12.5274 88.1008 12.0137 87.5969 11.582C86.5325 10.666 85.053 10.209 83.1594 10.209H77.3919V27.8887H78.9036V20.5293ZM83.5003 19.2559H78.9036V11.4844H83.135C84.5735 11.4844 85.6917 11.8281 86.4876 12.5156C87.2844 13.2051 87.6829 14.1719 87.6829 15.418C87.6829 16.5508 87.301 17.4746 86.5364 18.1875C86.2854 18.4219 86.0081 18.6172 85.7034 18.7734C85.636 18.8086 85.5676 18.8399 85.4983 18.8711L85.387 18.9199C85.2571 18.9727 85.1223 19.0195 84.9837 19.0606C84.5344 19.1914 84.0403 19.2559 83.5003 19.2559ZM102.863 22.9336H94.803L92.9739 27.8887H91.4016L98.1194 10.209H99.5462L106.265 27.8887H104.703L102.863 22.9336ZM98.8264 12.0313L95.2669 21.6582H102.387L98.8264 12.0313ZM113.263 11.4844H119.347V10.209H105.692V11.4844H111.763V27.8887H113.263V11.4844ZM132.028 19.4121H123.725V26.625H133.272V27.8887H122.225V10.209H133.21V11.4844H123.725V18.1504H132.028V19.4121Z" fill="white"/>
</svg>
