<svg width="139" height="32" viewBox="0 0 139 32" fill="none" xmlns="http://www.w3.org/2000/svg">
<path d="M0.360778 19.4325C-0.120259 17.1175 -0.120259 14.8326 0.360778 12.5176C0.450972 12.5176 0.541167 12.5176 0.631361 12.5176C6.73452 12.5176 12.8677 12.5176 18.9709 12.5176C19.1513 12.5176 19.2715 12.5476 19.3918 12.698C20.4441 13.7202 21.4663 14.7424 22.5185 15.7646C22.729 15.975 22.729 16.0051 22.5185 16.2155C21.4663 17.2378 20.414 18.29 19.3617 19.3122C19.2715 19.4024 19.1513 19.4325 19.031 19.4325C12.8978 19.4325 6.73452 19.4325 0.601296 19.4325C0.541167 19.4325 0.450972 19.4325 0.360778 19.4325Z" fill="white"/>
<path d="M17.738 31.9699C16.1746 31.9699 14.6413 31.7595 13.1381 31.3085C12.5969 31.1582 12.2963 30.7072 12.4466 30.2262C12.5969 29.7451 13.0779 29.5046 13.589 29.6549C15.2125 30.1059 16.8661 30.3164 18.5497 30.2262C22.4882 29.9857 25.8555 28.4223 28.5613 25.5361C30.5155 23.4315 31.7482 20.9361 32.1691 18.08C32.7704 13.931 31.7181 10.203 29.0123 6.98608C26.577 4.06979 23.4503 2.38616 19.6922 1.87506C17.5877 1.57441 15.5433 1.7548 13.4989 2.35609C13.1982 2.44629 12.9276 2.44629 12.657 2.2659C12.3564 2.05545 12.2361 1.78486 12.2662 1.42409C12.3263 1.06331 12.5067 0.822789 12.8675 0.732594C13.559 0.552206 14.2505 0.371817 14.9119 0.251557C18.7301 -0.379804 22.368 0.161363 25.7352 2.05545C30.0044 4.43057 32.7704 8.00828 33.7625 12.7886C34.8148 17.9297 33.522 22.4995 30.0646 26.438C27.5692 29.2942 24.3823 31.0079 20.6543 31.6693C19.6922 31.8497 18.7001 31.8797 17.738 32C17.7681 32 17.7681 31.9699 17.738 31.9699Z" fill="white"/>
<path d="M0.962891 21.5371C6.34449 21.5371 11.666 21.5371 17.0476 21.5371C16.9874 21.6273 16.9273 21.6574 16.8972 21.7175C14.6424 23.9122 12.3875 26.107 10.1627 28.3017C10.0725 28.3919 9.95227 28.422 9.83201 28.422C8.41896 28.422 6.97585 28.422 5.56281 28.422C5.47261 28.422 5.35235 28.3919 5.26216 28.3017C3.36808 26.4677 1.92496 24.273 1.02302 21.7776C0.992955 21.7175 0.992955 21.6273 0.962891 21.5371Z" fill="white"/>
<path d="M17.0476 10.4141C11.666 10.4141 6.31443 10.4141 0.962891 10.4141C0.992955 10.3239 1.02302 10.2338 1.05309 10.1436C1.95503 7.64818 3.36808 5.48351 5.26216 3.64956C5.35235 3.55936 5.47261 3.5293 5.59287 3.5293C7.00592 3.5293 8.44903 3.5293 9.86208 3.5293C9.95227 3.5293 10.0725 3.55936 10.1627 3.64956C12.4476 5.87435 14.7025 8.06908 16.9874 10.2939C16.9574 10.3239 16.9874 10.354 17.0476 10.4141Z" fill="white"/>
<path d="M53.0635 20.8168V21.8991H44.7656V10.1738H52.823V11.2562H46.0283V15.4352H52.1014V16.4874H46.0283V20.8468H53.0635V20.8168Z" fill="white"/>
<path d="M66.5316 21.8686L62.7434 16.6975L58.9853 21.8686H57.5723L62.0219 15.8256L57.8428 10.1133H59.2559L62.8035 14.9537L66.3211 10.1734H67.674L63.5251 15.8256L68.0048 21.8987H66.5316V21.8686Z" fill="white"/>
<path d="M81.1445 21.869L78.4387 18.1109C78.138 18.141 77.8374 18.1711 77.5066 18.1711H74.3498V21.8991H73.1172V10.1738H77.5066C80.4831 10.1738 82.287 11.6771 82.287 14.2025C82.287 16.0365 81.3249 17.3293 79.6112 17.9005L82.4673 21.9292H81.1445V21.869ZM81.0543 14.1724C81.0543 12.3084 79.8216 11.2261 77.4766 11.2261H74.3498V17.1188H77.4766C79.8216 17.1188 81.0543 16.0064 81.0543 14.1724Z" fill="white"/>
<path d="M95.935 18.7431H89.4109L87.9979 21.8698H86.7051L92.0566 10.1445H93.2893L98.6408 21.8698H97.348L95.935 18.7431ZM95.484 17.7509L92.6579 11.4373L89.8318 17.7509H95.484Z" fill="white"/>
<path d="M105.646 11.2269H101.527V10.1445H110.998V11.2269H106.879V21.8999H105.646V11.2269Z" fill="white"/>
<path d="M124.647 20.8168V21.8991H116.35V10.1738H124.407V11.2562H117.612V15.4352H123.685V16.4874H117.612V20.8468H124.647V20.8168Z" fill="white"/>
<path d="M129.789 20.4559L130.27 19.4939C131.112 20.3056 132.585 20.9069 134.148 20.9069C136.343 20.9069 137.305 19.9749 137.305 18.8324C137.305 15.6155 130.09 17.5998 130.09 13.2404C130.09 11.5267 131.443 10.0234 134.419 10.0234C135.742 10.0234 137.125 10.4143 138.057 11.0757L137.636 12.0678C136.644 11.4064 135.471 11.1058 134.419 11.1058C132.284 11.1058 131.322 12.0678 131.322 13.2404C131.322 16.4573 138.538 14.5031 138.538 18.8024C138.538 20.5161 137.155 21.9892 134.179 21.9892C132.375 21.9892 130.661 21.3579 129.789 20.4559Z" fill="white"/>
</svg>
