<svg width="14" height="11" viewBox="0 0 14 11" fill="none" xmlns="http://www.w3.org/2000/svg">
<path d="M13.3015 10.2272H3.93978C3.62297 10.2272 3.36621 9.97045 3.36621 9.65365C3.36621 9.33684 3.62297 9.08008 3.93978 9.08008H13.3013C13.6181 9.08008 13.8749 9.33684 13.8749 9.65365C13.8749 9.97051 13.6183 10.2272 13.3015 10.2272Z" fill="white" stroke="#24253F" stroke-width="0.25"/>
<path d="M13.8749 5.26888V5.26896C13.875 5.58569 13.6183 5.84245 13.3015 5.84245H3.93978C3.62297 5.84245 3.36621 5.58569 3.36621 5.26888C3.36621 4.95207 3.62297 4.69531 3.93978 4.69531H13.3013C13.6181 4.69531 13.8749 4.95207 13.8749 5.26888Z" fill="white" stroke="#24253F" stroke-width="0.25"/>
<path d="M13.3015 1.45768H3.93978C3.62297 1.45768 3.36621 1.20092 3.36621 0.884115C3.36621 0.567308 3.62297 0.310547 3.93978 0.310547H13.3013C13.6181 0.310547 13.8749 0.567308 13.8749 0.884115C13.8749 1.20098 13.6183 1.45768 13.3015 1.45768Z" fill="white" stroke="#24253F" stroke-width="0.25"/>
<path d="M1.75135 0.938177C1.75135 1.38728 1.38728 1.75135 0.938177 1.75135C0.489072 1.75135 0.125 1.38728 0.125 0.938177C0.125 0.489072 0.489072 0.125 0.938177 0.125C1.38728 0.125 1.75135 0.489072 1.75135 0.938177Z" fill="white" stroke="#24253F" stroke-width="0.25"/>
<path d="M1.75135 5.26825C1.75135 5.71736 1.38728 6.08143 0.938177 6.08143C0.489072 6.08143 0.125 5.71736 0.125 5.26825C0.125 4.81915 0.489072 4.45508 0.938177 4.45508C1.38728 4.45508 1.75135 4.81915 1.75135 5.26825Z" fill="white" stroke="#24253F" stroke-width="0.25"/>
<path d="M1.75135 9.60029C1.75135 10.0494 1.38728 10.4135 0.938177 10.4135C0.489072 10.4135 0.125 10.0494 0.125 9.60029C0.125 9.15118 0.489072 8.78711 0.938177 8.78711C1.38728 8.78711 1.75135 9.15118 1.75135 9.60029Z" fill="white" stroke="#24253F" stroke-width="0.25"/>
</svg>
