<svg width="74" height="18" viewBox="0 0 74 18" fill="none" xmlns="http://www.w3.org/2000/svg">
<path d="M2 2.5L2.78087 3.1247C3.07304 2.75948 3.07304 2.24053 2.78087 1.87531L2 2.5ZM-0.780862 4.37531C-1.12587 4.80657 -1.05595 5.43586 -0.624687 5.78087C-0.193424 6.12588 0.435868 6.05596 0.780877 5.62469L-0.780862 4.37531ZM0.780869 -0.624694C0.43586 -1.05596 -0.193432 -1.12588 -0.624694 -0.780869C-1.05596 -0.43586 -1.12588 0.193432 -0.780869 0.624694L0.780869 -0.624694ZM1.21913 1.87531L-0.780862 4.37531L0.780877 5.62469L2.78087 3.1247L1.21913 1.87531ZM-0.780869 0.624694L1.21913 3.1247L2.78087 1.87531L0.780869 -0.624694L-0.780869 0.624694Z" transform="translate(67 6.5)" fill="white"/>
<path d="M2.27051 5.60352L2.30469 6.42383C2.84701 5.78581 3.57845 5.4668 4.49902 5.4668C5.53353 5.4668 6.23763 5.86328 6.61133 6.65625C6.85742 6.30078 7.17643 6.01367 7.56836 5.79492C7.96484 5.57617 8.43197 5.4668 8.96973 5.4668C10.5921 5.4668 11.417 6.32585 11.4443 8.04395V13H10.1797V8.11914C10.1797 7.59049 10.0589 7.19629 9.81738 6.93652C9.57585 6.6722 9.17025 6.54004 8.60059 6.54004C8.13118 6.54004 7.74154 6.68132 7.43164 6.96387C7.12174 7.24186 6.94173 7.61784 6.8916 8.0918V13H5.62012V8.15332C5.62012 7.0778 5.09375 6.54004 4.04102 6.54004C3.21159 6.54004 2.64421 6.89323 2.33887 7.59961V13H1.07422V5.60352H2.27051ZM14.7324 13H13.4678V5.60352H14.7324V13ZM13.3652 3.6416C13.3652 3.43652 13.4268 3.26335 13.5498 3.12207C13.6774 2.98079 13.8643 2.91016 14.1104 2.91016C14.3564 2.91016 14.5433 2.98079 14.6709 3.12207C14.7985 3.26335 14.8623 3.43652 14.8623 3.6416C14.8623 3.84668 14.7985 4.01758 14.6709 4.1543C14.5433 4.29102 14.3564 4.35938 14.1104 4.35938C13.8643 4.35938 13.6774 4.29102 13.5498 4.1543C13.4268 4.01758 13.3652 3.84668 13.3652 3.6416ZM17.959 5.60352L18 6.5332C18.5651 5.82227 19.3034 5.4668 20.2148 5.4668C21.778 5.4668 22.5664 6.34863 22.5801 8.1123V13H21.3154V8.10547C21.3109 7.57227 21.1878 7.17806 20.9463 6.92285C20.7093 6.66764 20.3379 6.54004 19.832 6.54004C19.4219 6.54004 19.0618 6.64941 18.752 6.86816C18.4421 7.08691 18.2005 7.37402 18.0273 7.72949V13H16.7627V5.60352H17.959ZM25.8613 13H24.5967V5.60352H25.8613V13ZM24.4941 3.6416C24.4941 3.43652 24.5557 3.26335 24.6787 3.12207C24.8063 2.98079 24.9932 2.91016 25.2393 2.91016C25.4854 2.91016 25.6722 2.98079 25.7998 3.12207C25.9274 3.26335 25.9912 3.43652 25.9912 3.6416C25.9912 3.84668 25.9274 4.01758 25.7998 4.1543C25.6722 4.29102 25.4854 4.35938 25.2393 4.35938C24.9932 4.35938 24.8063 4.29102 24.6787 4.1543C24.5557 4.01758 24.4941 3.84668 24.4941 3.6416ZM29.0811 5.60352L29.1152 6.42383C29.6576 5.78581 30.389 5.4668 31.3096 5.4668C32.3441 5.4668 33.0482 5.86328 33.4219 6.65625C33.668 6.30078 33.987 6.01367 34.3789 5.79492C34.7754 5.57617 35.2425 5.4668 35.7803 5.4668C37.4027 5.4668 38.2275 6.32585 38.2549 8.04395V13H36.9902V8.11914C36.9902 7.59049 36.8695 7.19629 36.6279 6.93652C36.3864 6.6722 35.9808 6.54004 35.4111 6.54004C34.9417 6.54004 34.5521 6.68132 34.2422 6.96387C33.9323 7.24186 33.7523 7.61784 33.7021 8.0918V13H32.4307V8.15332C32.4307 7.0778 31.9043 6.54004 30.8516 6.54004C30.0221 6.54004 29.4548 6.89323 29.1494 7.59961V13H27.8848V5.60352H29.0811ZM41.543 13H40.2783V5.60352H41.543V13ZM40.1758 3.6416C40.1758 3.43652 40.2373 3.26335 40.3604 3.12207C40.488 2.98079 40.6748 2.91016 40.9209 2.91016C41.167 2.91016 41.3538 2.98079 41.4814 3.12207C41.609 3.26335 41.6729 3.43652 41.6729 3.6416C41.6729 3.84668 41.609 4.01758 41.4814 4.1543C41.3538 4.29102 41.167 4.35938 40.9209 4.35938C40.6748 4.35938 40.488 4.29102 40.3604 4.1543C40.2373 4.01758 40.1758 3.84668 40.1758 3.6416ZM44.7627 11.9678H49.0898V13H43.2178V12.0703L47.2988 6.64941H43.2793V5.60352H48.8848V6.49902L44.7627 11.9678ZM53.4785 13.1367C52.4759 13.1367 51.6602 12.8086 51.0312 12.1523C50.4023 11.4915 50.0879 10.6097 50.0879 9.50684V9.27441C50.0879 8.54069 50.2269 7.88672 50.5049 7.3125C50.7874 6.73372 51.1794 6.28255 51.6807 5.95898C52.1865 5.63086 52.7334 5.4668 53.3213 5.4668C54.2829 5.4668 55.0303 5.78353 55.5635 6.41699C56.0967 7.05046 56.3633 7.95736 56.3633 9.1377V9.66406H51.3525C51.3708 10.3932 51.5827 10.9834 51.9883 11.4346C52.3984 11.8812 52.918 12.1045 53.5469 12.1045C53.9935 12.1045 54.3717 12.0133 54.6816 11.8311C54.9915 11.6488 55.2627 11.4072 55.4951 11.1064L56.2676 11.708C55.6478 12.6605 54.7181 13.1367 53.4785 13.1367ZM53.3213 6.50586C52.8109 6.50586 52.3825 6.69271 52.0361 7.06641C51.6898 7.43555 51.4756 7.95508 51.3936 8.625H55.0986V8.5293C55.0622 7.88672 54.889 7.38997 54.5791 7.03906C54.2692 6.68359 53.8499 6.50586 53.3213 6.50586Z" fill="white"/>
<line x1="1" y1="-1" x2="17" y2="-1" transform="translate(72) rotate(90)" stroke="white" stroke-width="2" stroke-linecap="round" stroke-linejoin="round"/>
</svg>
