<svg width="14" height="11" viewBox="0 0 14 11" fill="none" xmlns="http://www.w3.org/2000/svg">
<rect width="14" height="10.9562" fill="black" fill-opacity="0"/>
<rect width="14" height="10.9562" fill="black" fill-opacity="0"/>
<path d="M13.7278 6.71234C13.5548 6.61687 13.3353 6.63785 13.1255 6.76991L9.25027 9.21016C9.14242 9.2781 9.11005 9.42056 9.17796 9.5284C9.2459 9.63625 9.38836 9.66862 9.4962 9.60071L13.3715 7.16046C13.4533 7.10892 13.4981 7.11271 13.5047 7.1164C13.5114 7.12009 13.5384 7.15594 13.5384 7.25264C13.5384 7.51261 13.3455 7.86214 13.1255 8.00067L9.36867 10.3663C9.16891 10.4921 8.9863 10.5267 8.86763 10.4612C8.74898 10.3957 8.68095 10.2228 8.68095 9.98668C8.68095 9.38859 9.10852 8.61408 9.61463 8.2954L13.8922 5.60183C13.9593 5.55959 14 5.48583 14 5.40654C14 5.32725 13.9593 5.2535 13.8922 5.21125L5.6728 0.0354919C5.59766 -0.0118306 5.502 -0.0118306 5.42686 0.0354919L1.09722 2.76186C0.481964 3.1493 0 4.02231 0 4.74938V4.87245C0 5.59952 0.481964 6.47256 1.09722 6.85997L7.5369 10.915C7.64475 10.9829 7.78724 10.9505 7.85514 10.8427C7.92305 10.7349 7.89068 10.5924 7.78284 10.5245L1.34315 6.46942C0.865252 6.16853 0.461533 5.43719 0.461533 4.87245V4.74938C0.461533 4.18465 0.865252 3.45333 1.34315 3.15241L5.54982 0.503487L13.3362 5.40651L9.3687 7.90482C8.72424 8.31063 8.21942 9.22508 8.21942 9.98668C8.21942 10.4019 8.3704 10.7139 8.64458 10.8653C8.7547 10.9261 8.87615 10.9562 9.00485 10.9562C9.19658 10.9562 9.40439 10.8893 9.6146 10.7569L13.3715 8.39122C13.7239 8.16928 14 7.66916 14 7.25264C14 7.00477 13.9008 6.80785 13.7278 6.71234Z" fill="white"/>
<path d="M10.8821 5.63761C10.9588 5.63761 11.0338 5.59943 11.0777 5.5298C11.1456 5.42195 11.1132 5.27946 11.0053 5.21156L5.6731 1.85387C5.56522 1.78596 5.42276 1.81836 5.35485 1.92618C5.28695 2.03402 5.31932 2.17651 5.42716 2.24442L10.7594 5.60211C10.7976 5.62614 10.8401 5.63761 10.8821 5.63761Z" fill="white"/>
<path d="M9.9588 6.24905C10.0356 6.24905 10.1107 6.21072 10.1545 6.14084C10.2222 6.03287 10.1896 5.89044 10.0816 5.82275L7.82897 4.4103C7.72094 4.34255 7.57854 4.37526 7.51088 4.48323C7.44316 4.59123 7.47581 4.73362 7.58381 4.80132L9.83643 6.21376C9.87452 6.23767 9.91689 6.24905 9.9588 6.24905Z" fill="white"/>
<path d="M6.88916 5.01748C6.78106 4.94997 6.6387 4.98289 6.57119 5.09102C6.50368 5.19914 6.53661 5.34148 6.64473 5.40898L8.91464 6.82626C8.95267 6.84998 8.99489 6.8613 9.03664 6.8613C9.11359 6.8613 9.18885 6.82281 9.23261 6.75272C9.30011 6.6446 9.26719 6.50226 9.15907 6.43476L6.88916 5.01748Z" fill="white"/>
<path d="M4.46799 2.45736L2.55017 3.66516C2.48288 3.70753 2.44214 3.78156 2.44238 3.8611C2.44263 3.94064 2.48377 4.01442 2.55131 4.05642L4.83851 5.47853C4.87583 5.50173 4.91808 5.51333 4.96036 5.51333C5.00396 5.51333 5.04752 5.50099 5.08562 5.47637L5.59503 5.14714C5.70207 5.07795 5.73275 4.93512 5.66358 4.82807C5.59441 4.72103 5.45155 4.69038 5.34451 4.75952L4.95799 5.00933L3.10819 3.85919L4.59125 2.9252L6.41412 4.06817L6.2016 4.20552C6.09456 4.27472 6.06388 4.41755 6.13305 4.5246C6.20225 4.63164 6.34517 4.66232 6.45212 4.59315L6.96904 4.25903C7.03529 4.2162 7.07507 4.14251 7.07455 4.06362C7.07399 3.98476 7.03319 3.91162 6.96636 3.86971L4.71353 2.45714C4.63845 2.41004 4.54301 2.41013 4.46799 2.45736Z" fill="white"/>
<path d="M8.31071 7.36466C8.378 7.25642 8.34483 7.11414 8.23658 7.04685L5.94932 5.62468C5.84107 5.55736 5.69877 5.59056 5.63151 5.6988C5.56421 5.80705 5.59738 5.94933 5.70563 6.01662L7.99289 7.43879C8.0308 7.46239 8.07292 7.47362 8.11452 7.47362C8.19163 7.47362 8.26701 7.43497 8.31071 7.36466Z" fill="white"/>
<path d="M1.64713 4.41171C1.57984 4.51995 1.61301 4.66223 1.72125 4.72952L7.36667 8.23967C7.40457 8.26327 7.4467 8.2745 7.4883 8.2745C7.5654 8.2745 7.64079 8.23585 7.68448 8.16554C7.75177 8.0573 7.7186 7.91502 7.61036 7.84773L1.96494 4.33759C1.8567 4.27023 1.71442 4.30346 1.64713 4.41171Z" fill="white"/>
</svg>
