<svg width="13" height="13" viewBox="0 0 13 13" fill="none" xmlns="http://www.w3.org/2000/svg">
<path d="M6.09202 12.1825C6.49969 12.5183 7.11806 12.478 7.47316 12.0924L12.7514 7.02684L12.7593 7.01834C13.0699 6.68088 13.0761 6.19079 12.7997 5.84863C12.7845 5.82982 12.7684 5.81138 12.7514 5.79348L7.47316 0.727913C7.11806 0.342352 6.49969 0.302025 6.09202 0.637853C5.68435 0.97368 5.64171 1.55853 5.99676 1.94427L9.87044 5.48441H0.978913C0.438265 5.48441 0 5.89891 0 6.41034C0 6.92176 0.438265 7.33626 0.978913 7.33626H9.87011L5.99676 10.876C5.64171 11.2618 5.68435 11.8466 6.09202 12.1825Z" fill="white"/>
</svg>
