<svg width="13" height="13" viewBox="0 0 13 13" fill="none" xmlns="http://www.w3.org/2000/svg">
<path d="M6.90798 12.1825C6.50031 12.5183 5.88194 12.478 5.52684 12.0924L0.248601 7.02684L0.240714 7.01834C-0.069928 6.68088 -0.0761418 6.19079 0.200277 5.84863C0.215525 5.82982 0.231633 5.81138 0.248601 5.79348L5.52684 0.727913C5.88194 0.342352 6.50031 0.302025 6.90798 0.637853C7.31565 0.97368 7.35829 1.55853 7.00324 1.94427L3.12956 5.48441H12.0211C12.5617 5.48441 13 5.89891 13 6.41034C13 6.92176 12.5617 7.33626 12.0211 7.33626H3.12989L7.00324 10.876C7.35829 11.2618 7.31565 11.8466 6.90798 12.1825Z" fill="white"/>
</svg>
