<svg width="20" height="26" viewBox="0 0 20 26" fill="none" xmlns="http://www.w3.org/2000/svg">
<rect width="20" height="26" fill="black" fill-opacity="0"/>
<path d="M17.7778 0H2.22224C0.996615 0 0 0.971699 0 2.16668V23.8334C0 25.0283 0.996615 26 2.22224 26H17.7778C19.0034 26 20 25.0283 20 23.8333V2.16668C20 0.971699 19.0034 0 17.7778 0ZM13.8889 22.75H6.11109C5.80401 22.75 5.55552 22.5077 5.55552 22.2083C5.55552 21.9089 5.80401 21.6666 6.11109 21.6666H13.8889C14.1959 21.6666 14.4444 21.9089 14.4444 22.2083C14.4444 22.5077 14.196 22.75 13.8889 22.75ZM16.1111 19.5H3.88891C3.58182 19.5 3.33333 19.2577 3.33333 18.9583C3.33333 18.6589 3.58182 18.4166 3.88891 18.4166H16.1111C16.4182 18.4166 16.6667 18.6589 16.6667 18.9583C16.6667 19.2577 16.4182 19.5 16.1111 19.5ZM10 16.25C6.3238 16.25 3.33333 13.3343 3.33333 9.75C3.33333 6.16571 6.3238 3.25 10 3.25C13.6762 3.25 16.6667 6.16571 16.6667 9.75C16.6667 13.3343 13.6762 16.25 10 16.25Z" fill="#237BEF"/>
<path d="M9.9994 15.1668C10.6245 15.1668 11.5401 13.2362 11.6454 10.2918H8.35336C8.45867 13.2362 9.37435 15.1668 9.9994 15.1668Z" fill="#237BEF"/>
<path d="M11.7788 4.64465C12.3751 5.77981 12.7101 7.47052 12.7675 9.20892H15.4992C15.2774 7.07392 13.7961 5.31562 11.7788 4.64465Z" fill="#237BEF"/>
<path d="M4.49969 9.20892H7.23136C7.28876 7.47052 7.62376 5.77981 8.22001 4.64465C6.20272 5.31562 4.72141 7.07392 4.49969 9.20892Z" fill="#237BEF"/>
<path d="M9.9994 4.33398C9.37435 4.33398 8.45867 6.26459 8.35336 9.20898H11.6454C11.5401 6.26464 10.6245 4.33398 9.9994 4.33398Z" fill="#237BEF"/>
<path d="M11.7788 14.8561C13.7961 14.1851 15.2774 12.4268 15.4992 10.2918H12.7675C12.7101 12.0302 12.3751 13.7209 11.7788 14.8561Z" fill="#237BEF"/>
<path d="M4.49969 10.2918C4.72141 12.4268 6.20272 14.1851 8.22001 14.8561C7.62376 13.7209 7.28876 12.0302 7.23136 10.2918H4.49969Z" fill="#237BEF"/>
</svg>
