<svg width="22" height="16" viewBox="0 0 22 16" fill="none" xmlns="http://www.w3.org/2000/svg">
<path d="M6.72797 6.75632C6.72442 7.40046 6.87019 8.03681 7.15405 8.61642C7.43792 9.19602 7.85232 9.70341 8.36537 10.0996C6.38348 11.2406 5.87738 13.4933 5.67749 15.2155C5.66744 15.3015 5.67467 15.3886 5.69877 15.4719C5.72286 15.5551 5.76335 15.6328 5.8179 15.7005C5.87244 15.7682 5.93997 15.8246 6.0166 15.8664C6.09323 15.9081 6.17745 15.9345 6.2644 15.9439H6.34095C6.5026 15.9409 6.65766 15.8799 6.77732 15.7722C6.89699 15.6646 6.97315 15.5176 6.99166 15.3586C7.31063 12.6091 8.23778 11.2491 10.1006 10.8238C10.2385 10.7868 10.3607 10.707 10.4494 10.5961C10.5381 10.4852 10.5885 10.3491 10.5933 10.2077C10.5981 10.0664 10.5569 9.92724 10.4759 9.81076C10.3948 9.69428 10.2782 9.60659 10.1431 9.56059C9.46367 9.35847 8.88033 8.92115 8.49959 8.32848C8.11886 7.73581 7.96614 7.02733 8.06931 6.33241C8.17249 5.6375 8.52468 5.0025 9.06157 4.54337C9.59847 4.08425 10.2843 3.83162 10.9937 3.83162C11.7031 3.83162 12.3889 4.08425 12.9258 4.54337C13.4627 5.0025 13.8149 5.6375 13.9181 6.33241C14.0213 7.02733 13.8685 7.73581 13.4878 8.32848C13.1071 8.92115 12.5237 9.35847 11.8443 9.56059C11.7092 9.60659 11.5926 9.69428 11.5115 9.81076C11.4305 9.92724 11.3894 10.0664 11.3941 10.2077C11.3989 10.3491 11.4493 10.4852 11.538 10.5961C11.6267 10.707 11.7489 10.7868 11.8868 10.8238C13.7496 11.2448 14.681 12.6091 14.9957 15.3586C14.9986 15.4499 15.0205 15.5396 15.0601 15.6221C15.0997 15.7046 15.1562 15.7781 15.2259 15.8379C15.2956 15.8977 15.3771 15.9426 15.4652 15.9696C15.5533 15.9967 15.6461 16.0054 15.7378 15.9952C15.8295 15.985 15.918 15.9561 15.9979 15.9103C16.0777 15.8645 16.1471 15.8028 16.2016 15.7292C16.2562 15.6555 16.2947 15.5715 16.3148 15.4823C16.3349 15.3932 16.3361 15.3009 16.3184 15.2113C16.1185 13.4891 15.6124 11.2364 13.6305 10.0953C14.2085 9.65471 14.6633 9.07537 14.952 8.41213C15.2406 7.74889 15.3536 7.0237 15.2801 6.30518C15.2066 5.58667 14.9492 4.89859 14.5322 4.30607C14.1151 3.71355 13.5523 3.23618 12.8969 2.91914C12.2415 2.6021 11.5152 2.45587 10.7868 2.49429C10.0584 2.53272 9.35192 2.75453 8.73426 3.13872C8.1166 3.52292 7.60817 4.0568 7.25709 4.68984C6.90601 5.32288 6.72389 6.03414 6.72797 6.75632Z" fill="#94C2FF"/>
<path d="M14.481 2.33583C14.7869 2.00111 15.1668 1.74098 15.5911 1.5758C16.0154 1.41062 16.4726 1.34485 16.9268 1.38364C17.3811 1.42244 17.8201 1.56474 18.2096 1.79942C18.599 2.03411 18.9284 2.35481 19.1718 2.73645C19.4153 3.11809 19.5663 3.55031 19.613 3.99933C19.6598 4.44834 19.6009 4.90197 19.4412 5.32474C19.2814 5.7475 19.025 6.12794 18.692 6.4363C18.3591 6.74467 17.9586 6.97259 17.5218 7.10225C17.3868 7.14825 17.2701 7.23593 17.1891 7.35242C17.1081 7.4689 17.0669 7.60804 17.0717 7.7494C17.0764 7.89076 17.1268 8.02688 17.2155 8.13776C17.3042 8.24865 17.4265 8.32845 17.5644 8.36544C19.4272 8.7865 20.3586 10.1507 20.6733 12.9003C20.692 13.0607 20.7694 13.2088 20.8908 13.3167C21.0123 13.4245 21.1694 13.4846 21.3325 13.4856H21.4091C21.5842 13.4655 21.7442 13.3776 21.8542 13.2411C21.9641 13.1046 22.0151 12.9307 21.996 12.7571C21.7961 11.035 21.29 8.78229 19.3081 7.64121C19.7895 7.28415 20.1897 6.83079 20.4825 6.31058C20.7754 5.79037 20.9544 5.21496 21.0079 4.62178C21.0614 4.02859 20.9882 3.43089 20.793 2.86755C20.5979 2.3042 20.2852 1.78782 19.8753 1.35196C19.4654 0.916109 18.9674 0.570545 18.4137 0.337735C17.86 0.104926 17.2631 -0.00991776 16.6616 0.000670973C16.0602 0.0112597 15.4677 0.147044 14.9228 0.399195C14.3778 0.651347 13.8926 1.01422 13.4985 1.46423C13.4121 1.59645 13.3762 1.75488 13.3972 1.911C13.4183 2.06711 13.495 2.21065 13.6135 2.31576C13.7319 2.42087 13.8844 2.48065 14.0435 2.48433C14.2025 2.48801 14.3577 2.43535 14.481 2.33583Z" fill="#94C2FF"/>
<path d="M0.667411 13.4919C0.829886 13.491 0.986467 13.4315 1.10782 13.3246C1.22917 13.2176 1.30696 13.0705 1.32662 12.9108C1.64559 10.1613 2.57274 8.80124 4.43554 8.37597C4.57343 8.33898 4.6957 8.25918 4.78438 8.1483C4.87307 8.03741 4.9235 7.90129 4.92826 7.75994C4.93301 7.61858 4.89186 7.47943 4.81082 7.36295C4.72979 7.24647 4.61316 7.15878 4.47807 7.11278C4.04136 6.98312 3.64086 6.7552 3.30789 6.44684C2.97493 6.13847 2.71854 5.75803 2.55876 5.33527C2.39898 4.9125 2.34015 4.45888 2.38687 4.00986C2.43359 3.56085 2.58459 3.12862 2.82807 2.74698C3.07154 2.36534 3.40089 2.04464 3.79036 1.80996C4.17982 1.57527 4.61884 1.43297 5.07309 1.39418C5.52733 1.35538 5.98448 1.42115 6.40879 1.58633C6.83309 1.75152 7.21305 2.01164 7.51895 2.34636C7.64125 2.45973 7.80214 2.52343 7.96968 2.52483C8.13722 2.52622 8.29917 2.46521 8.42339 2.35389C8.5476 2.24257 8.62501 2.08909 8.64025 1.9239C8.65548 1.7587 8.60743 1.59388 8.50563 1.46213C8.11017 1.0166 7.62478 0.658068 7.08076 0.40967C6.53674 0.161272 5.94618 0.0285192 5.34715 0.019972C4.74813 0.0114248 4.15395 0.127273 3.60293 0.360046C3.0519 0.59282 2.55628 0.937349 2.14801 1.37142C1.73974 1.80548 1.4279 2.31945 1.23259 2.88016C1.03729 3.44088 0.962854 4.0359 1.01409 4.62685C1.06533 5.2178 1.24111 5.79155 1.53008 6.31111C1.81905 6.83067 2.21481 7.28449 2.69182 7.64332C0.709941 8.78861 0.203838 11.0371 0.00394834 12.7592C-0.0151933 12.9328 0.0357755 13.1068 0.145731 13.2432C0.255687 13.3797 0.415703 13.4676 0.590858 13.4877H0.667411V13.4919Z" fill="#94C2FF"/>
</svg>
