<svg width="14" height="21" viewBox="0 0 14 21" fill="none" xmlns="http://www.w3.org/2000/svg">
<path fill-rule="evenodd" clip-rule="evenodd" d="M1 0C0.447266 0 0 0.449219 0 1V20C0 20.5508 0.447266 21 1 21H13C13.5527 21 14 20.5508 14 20V1C14 0.449219 13.5527 0 13 0H1ZM3 3C2.44727 3 2 3.44922 2 4V15C2 15.5508 2.44727 16 3 16H11C11.5527 16 12 15.5508 12 15V4C12 3.44922 11.5527 3 11 3H3ZM8 19C8 19.5508 7.55273 20 7 20C6.44727 20 6 19.5508 6 19C6 18.4492 6.44727 18 7 18C7.55273 18 8 18.4492 8 19ZM5.5 1C5.22363 1 5 1.22266 5 1.5C5 1.77734 5.22363 2 5.5 2H8.5C8.77637 2 9 1.77734 9 1.5C9 1.22266 8.77637 1 8.5 1H5.5Z" fill="#237BEF"/>
</svg>
