<svg width="12" height="16" viewBox="0 0 12 16" fill="none" xmlns="http://www.w3.org/2000/svg">
<rect width="10.7446" height="14.0028" fill="black" fill-opacity="0" transform="translate(1 1)"/>
<rect width="10.7446" height="10.1118" fill="black" fill-opacity="0" transform="translate(1 4.89062)"/>
<rect width="10.7446" height="10.1118" fill="black" fill-opacity="0" transform="translate(1 4.89062)"/>
<path d="M9.27945 5.37059C8.98175 5.84616 8.88497 6.35113 9.01852 6.82608M9.27945 5.37059C9.27964 5.37028 9.27984 5.36998 9.28003 5.36967L9.38595 5.43604L9.27918 5.37105C9.27927 5.37089 9.27936 5.37074 9.27945 5.37059ZM9.27945 5.37059C9.28181 5.36661 9.28226 5.36446 9.28234 5.36408L9.28239 5.36314L9.28232 5.36286M9.01852 6.82608L9.27131 5.35674C9.27327 5.35651 9.27448 5.35654 9.27505 5.35658L9.27565 5.35664L9.27578 5.35667L9.2758 5.35667L9.27635 5.357C9.27797 5.35804 9.28002 5.35998 9.28232 5.36286M9.01852 6.82608L9.02027 6.83347L9.02043 6.83622C9.02517 6.9167 9.06238 6.99815 9.12752 7.05327L9.1275 7.0533L9.12991 7.05524C9.74274 7.54829 10.1836 8.17606 10.4106 8.86511C10.451 8.99042 10.5665 9.06892 10.6928 9.06892H11.0654C11.1826 9.06892 11.2786 9.16485 11.2786 9.2821V10.5374C11.2786 10.6546 11.1826 10.7506 11.0654 10.7506H10.7129C10.587 10.7506 10.4665 10.832 10.4297 10.9604C10.3373 11.259 10.0767 11.6666 9.81688 12.0236C9.57027 12.3624 9.33556 12.6406 9.27673 12.7104C9.27667 12.7105 9.27662 12.7105 9.27656 12.7106M9.01852 6.82608L9.27656 12.7106M9.28232 5.36286C9.28294 5.36364 9.28358 5.36448 9.28424 5.3654C9.28218 5.36252 9.28187 5.36146 9.28209 5.36201L9.28232 5.36286ZM9.61523 13.0336C9.65535 12.9877 10.5438 11.9589 10.8332 11.2195H11.0625C11.4379 11.2195 11.7446 10.9128 11.7446 10.5374V9.2821C11.7446 8.90667 11.4379 8.60001 11.0625 8.60001V8.47501H10.9027C10.6364 7.78673 10.1868 7.16565 9.59074 6.6635C9.5072 6.36265 9.5646 6.03685 9.784 5.68901C9.91095 5.48917 9.90628 5.24215 9.78087 5.04508C9.65478 4.84694 9.43307 4.74148 9.19873 4.77032L9.19849 4.77035C8.36597 4.87441 7.85995 5.25059 7.56356 5.60546C7.28908 5.52956 7.00614 5.47551 6.7214 5.44092L6.72136 5.44092C6.55804 5.42112 6.41022 5.5389 6.39027 5.69853L6.39021 5.69899C6.37042 5.86232 6.48819 6.01013 6.64783 6.03009L6.6481 6.03012C6.96757 6.06935 7.28383 6.13656 7.5856 6.23154L9.20827 6.95784C9.83877 7.46511 10.2944 8.11281 10.5295 8.82642C10.5524 8.89807 10.6183 8.94392 10.6928 8.94392H11.0654C11.2517 8.94392 11.4036 9.09582 11.4036 9.2821V10.5374C11.4036 10.7237 11.2517 10.8756 11.0654 10.8756H10.7129C10.6384 10.8756 10.5696 10.9243 10.5495 10.9959C10.3557 11.625 9.49328 12.6475 9.37238 12.7909C9.3699 12.7938 9.36773 12.7964 9.36589 12.7986L9.29997 12.8559L9.29711 12.8588C8.73252 13.3689 8.67521 13.9679 8.67234 14.137V14.1398V14.5554C8.67234 14.6127 8.62648 14.6586 8.56917 14.6586H6.88687C6.82956 14.6586 6.7837 14.6127 6.7837 14.5554V14.1599C6.7837 14.1112 6.76364 14.0653 6.72638 14.0309C6.68913 13.9994 6.64041 13.9822 6.59455 13.9879C6.1618 14.0338 5.72618 14.0252 5.30202 13.9707C5.2533 13.965 5.20458 13.9793 5.16446 14.0109C5.1272 14.0424 5.10427 14.0911 5.10427 14.1398V14.5554C5.10427 14.6127 5.05842 14.6586 5.0011 14.6586H3.31881C3.26436 14.6586 3.2185 14.6156 3.21564 14.564V14.5611V14.4293V14.4207C3.20131 14.1312 3.1096 13.389 2.53641 12.7986C2.24122 12.4948 1.97756 12.0964 1.75402 11.615C1.75402 11.6121 1.75115 11.6092 1.75115 11.6092C1.61645 11.3513 1.51615 11.0762 1.44736 10.7982M9.61523 13.0336L9.59803 13.0508M9.61523 13.0336L9.7093 13.1159L9.70381 13.1222L9.61523 13.0336ZM9.59803 13.0508L9.52638 13.1138C9.05637 13.5409 9.01912 14.0424 9.01625 14.1427V14.5554C9.01625 14.8019 8.81564 15.0025 8.56917 15.0025H6.88687C6.6404 15.0025 6.43979 14.8019 6.43979 14.5554V14.3462C6.10734 14.3691 5.77776 14.3634 5.45105 14.3318V14.5554C5.45105 14.8019 5.25044 15.0025 5.00397 15.0025H3.32167C3.08667 15.0025 2.88892 14.819 2.87459 14.584M9.59803 13.0508L9.68642 13.1392L9.68078 13.1448L9.59803 13.0508ZM2.87459 14.584V14.5783V14.5525V14.4322C2.86026 14.1771 2.78002 13.5409 2.28994 13.0365C1.96896 12.7069 1.68524 12.277 1.4445 11.7611C1.3012 11.4774 1.18943 11.1822 1.11492 10.8784L1.11205 10.8698C0.995436 10.4847 0.999439 10.0354 1.00021 9.94945C1.00025 9.94457 1.00028 9.94086 1.00028 9.9384C1.00028 9.72059 1.02034 9.50278 1.05473 9.2907C1.06906 9.19899 1.15791 9.13594 1.25248 9.15027C1.34419 9.1646 1.40724 9.25344 1.39291 9.34802C1.36139 9.5429 1.34419 9.74351 1.34419 9.94126V9.94699C1.34419 9.94718 1.34418 9.94782 1.34415 9.9489C1.34341 9.98171 1.33343 10.4201 1.44163 10.7752C1.4445 10.7781 1.4445 10.7781 1.4445 10.781M2.87459 14.584L2.74982 14.5917L2.74936 14.584H2.87459ZM1.4445 10.781L1.44736 10.7924V10.7982M1.4445 10.781H1.49322H1.51686M1.4445 10.781H1.51686M1.44736 10.7982L1.47053 10.7924L1.51686 10.781M1.44736 10.7982L1.51686 10.781M9.27656 12.7106L9.21795 12.7616L9.21775 12.7613L9.21159 12.7675L9.21093 12.7682C8.61332 13.3097 8.55054 13.9468 8.54736 14.1348H8.54734V14.137V14.1398V14.5336H6.9087V14.1599C6.9087 14.0756 6.87352 13.9966 6.81117 13.9391L6.81125 13.939L6.80713 13.9355C6.74822 13.8857 6.66612 13.8535 6.58037 13.8637C6.15826 13.9084 5.73277 13.9 5.31794 13.8468L5.31663 13.8466C5.23332 13.8368 5.15191 13.8617 5.08723 13.9126L5.08718 13.9125L5.08372 13.9154C5.01885 13.9703 4.97927 14.0537 4.97927 14.1398V14.5336H3.34064V14.4293V14.4293V14.4293V14.4292V14.4292V14.4292V14.4292V14.4292V14.4292V14.4291V14.4291V14.4291V14.4291V14.4291V14.4291V14.429V14.429V14.429V14.429V14.429V14.429V14.4289V14.4289V14.4289V14.4289V14.4289V14.4288V14.4288V14.4288V14.4288V14.4288V14.4288V14.4287V14.4287V14.4287V14.4287V14.4287V14.4287V14.4286V14.4286V14.4286V14.4286V14.4286V14.4286V14.4285V14.4285V14.4285V14.4285V14.4285V14.4285V14.4284V14.4284V14.4284V14.4284V14.4284V14.4284V14.4283V14.4283V14.4283V14.4283V14.4283V14.4283V14.4282V14.4282V14.4282V14.4282V14.4282V14.4282V14.4281V14.4281V14.4281V14.4281V14.4281V14.4281V14.428V14.428V14.428V14.428V14.428V14.428V14.4279V14.4279V14.4279V14.4279V14.4279V14.4279V14.4278V14.4278V14.4278V14.4278V14.4278V14.4278V14.4277V14.4277V14.4277V14.4277V14.4277V14.4277V14.4276V14.4276V14.4276V14.4276V14.4276V14.4276V14.4275V14.4275V14.4275V14.4275V14.4275V14.4275V14.4274V14.4274V14.4274V14.4274V14.4274V14.4274V14.4273V14.4273V14.4273V14.4273V14.4273V14.4273V14.4272V14.4272V14.4272V14.4272V14.4272V14.4272V14.4271V14.4271V14.4271V14.4271V14.4271V14.4271V14.427V14.427V14.427V14.427V14.427V14.427V14.4269V14.4269V14.4269V14.4269V14.4269V14.4269V14.4268V14.4268V14.4268V14.4268V14.4268V14.4268V14.4267V14.4267V14.4267V14.4267V14.4267V14.4266V14.4266V14.4266V14.4266V14.4266V14.4266V14.4265V14.4265V14.4265V14.4265V14.4265V14.4265V14.4264V14.4264V14.4264V14.4264V14.4264V14.4264V14.4263V14.4263V14.4263V14.4263V14.4263V14.4263V14.4262V14.4262V14.4262V14.4262V14.4262V14.4262V14.4261V14.4261V14.4261V14.4261V14.4261V14.4261V14.426V14.426V14.426V14.426V14.426V14.426V14.4259V14.4259V14.4259V14.4259V14.4259V14.4259V14.4258V14.4258V14.4258V14.4258V14.4258V14.4258V14.4257V14.4257V14.4257V14.4257V14.4257V14.4257V14.4256V14.4256V14.4256V14.4256V14.4256V14.4256V14.4255V14.4255V14.4255V14.4255V14.4255V14.4255V14.4254V14.4254V14.4254V14.4254V14.4254V14.4254V14.4253V14.4253V14.4253V14.4253V14.4253V14.4253V14.4252V14.4252V14.4252V14.4252V14.4252V14.4252V14.4251V14.4251V14.4251V14.4251V14.4251V14.4251V14.425V14.425V14.425V14.425V14.425V14.425V14.4249V14.4249V14.4249V14.4249V14.4249V14.4249V14.4248V14.4248V14.4248V14.4248V14.4248V14.4248V14.4247V14.4247V14.4247V14.4247V14.4247V14.4247V14.4246V14.4246V14.4246V14.4246V14.4246V14.4246V14.4245V14.4245V14.4245V14.4245V14.4245V14.4244V14.4244V14.4244V14.4244V14.4244V14.4244V14.4243V14.4243V14.4243V14.4243V14.4243V14.4243V14.4242V14.4242V14.4242V14.4242V14.4242V14.4242V14.4241V14.4241V14.4241V14.4241V14.4241V14.4241V14.424V14.424V14.424V14.424V14.424V14.424V14.4239V14.4239V14.4239V14.4239V14.4239V14.4239V14.4238V14.4238V14.4238V14.4238V14.4238V14.4238V14.4237V14.4237V14.4237V14.4237V14.4237V14.4237V14.4236V14.4236V14.4236V14.4236V14.4236V14.4236V14.4235V14.4235V14.4235V14.4235V14.4235V14.4235V14.4234V14.4234V14.4234V14.4234V14.4234V14.4234V14.4233V14.4233V14.4233V14.4233V14.4233V14.4233V14.4232V14.4232V14.4232V14.4232V14.4232V14.4232V14.4231V14.4231V14.4231V14.4231V14.4231V14.4231V14.423V14.423V14.423V14.423V14.423V14.423V14.4229V14.4229V14.4229V14.4229V14.4229V14.4229V14.4228V14.4228V14.4228V14.4228V14.4228V14.4228V14.4227V14.4227V14.4227V14.4227V14.4227V14.4227V14.4226V14.4226V14.4226V14.4226V14.4226V14.4226V14.4225V14.4225V14.4225V14.4225V14.4225V14.4225V14.4224V14.4224V14.4224V14.4224V14.4224V14.4224V14.4223V14.4223V14.4223V14.4223V14.4223V14.4222V14.4222V14.4222V14.4222V14.4222V14.4222V14.4221V14.4221V14.4221V14.4221V14.4221V14.4221V14.422V14.422V14.422V14.422V14.422V14.422V14.4219V14.4219V14.4219V14.4219V14.4219V14.4219V14.4218V14.4218V14.4218V14.4218V14.4218V14.4218V14.4217V14.4217V14.4217V14.4217V14.4217V14.4217V14.4216V14.4216V14.4216V14.4216V14.4216V14.4216V14.4215V14.4215V14.4215V14.4215V14.4215V14.4215V14.4214V14.4214V14.4214V14.4214V14.4214V14.4214V14.4213V14.4213V14.4213V14.4213V14.4213V14.4213V14.4212V14.4212V14.4212V14.4212V14.4212V14.4212V14.4211V14.4211V14.4211V14.4211V14.4211V14.4211V14.421V14.421V14.421V14.421V14.421V14.421V14.4209V14.4209V14.4209V14.4209V14.4209V14.4209V14.4208V14.4208V14.4208V14.4208V14.4208V14.4208V14.4207V14.4207V14.4207V14.4207H3.34079L3.34048 14.4145C3.32559 14.1137 3.23071 13.3343 2.6261 12.7115L2.62606 12.7115C2.34433 12.4215 2.0893 12.0384 1.8711 11.5703C1.86663 11.558 1.86132 11.549 1.85815 11.5441C1.73274 11.3024 1.6382 11.0444 1.57236 10.7828V10.7771L1.56863 10.7621L1.56773 10.7585C1.56608 10.7486 1.56289 10.7366 1.55672 10.7238C1.46064 10.3956 1.4683 9.99411 1.46913 9.95064C1.46917 9.9487 1.46919 9.94747 1.46919 9.94699V9.94698V9.94696V9.94694V9.94693V9.94691V9.94689V9.94688V9.94686V9.94685V9.94683V9.94681V9.9468V9.94678V9.94676V9.94675V9.94673V9.94672V9.9467V9.94669V9.94667V9.94665V9.94664V9.94662V9.94661V9.94659V9.94658V9.94656V9.94655V9.94653V9.94652V9.9465V9.94649V9.94647V9.94646V9.94644V9.94643V9.94641V9.9464V9.94639V9.94637V9.94636V9.94634V9.94633V9.94631V9.9463V9.94629V9.94627V9.94626V9.94624V9.94623V9.94622V9.9462V9.94619V9.94618V9.94616V9.94615V9.94614V9.94612V9.94611V9.94609V9.94608V9.94607V9.94605V9.94604V9.94603V9.94602V9.946V9.94599V9.94598V9.94596V9.94595V9.94594V9.94593V9.94591V9.9459V9.94589V9.94588V9.94586V9.94585V9.94584V9.94583V9.94581V9.9458V9.94579V9.94578V9.94576V9.94575V9.94574V9.94573V9.94572V9.9457V9.94569V9.94568V9.94567V9.94566V9.94565V9.94563V9.94562V9.94561V9.9456V9.94559V9.94558V9.94557V9.94555V9.94554V9.94553V9.94552V9.94551V9.9455V9.94549V9.94548V9.94546V9.94545V9.94544V9.94543V9.94542V9.94541V9.9454V9.94539V9.94538V9.94537V9.94536V9.94534V9.94533V9.94532V9.94531V9.9453V9.94529V9.94528V9.94527V9.94526V9.94525V9.94524V9.94523V9.94522V9.94521V9.9452V9.94519V9.94518V9.94517V9.94516V9.94515V9.94514V9.94513V9.94512V9.94511V9.9451V9.94509V9.94508V9.94507V9.94506V9.94505V9.94504V9.94503V9.94502V9.94501V9.945V9.94499V9.94498V9.94497V9.94496V9.94495V9.94494V9.94493V9.94492V9.94491V9.9449V9.9449V9.94489V9.94488V9.94487V9.94486V9.94485V9.94484V9.94483V9.94482V9.94481V9.9448V9.94479V9.94478V9.94478V9.94477V9.94476V9.94475V9.94474V9.94473V9.94472V9.94471V9.9447V9.94469V9.94468V9.94468V9.94467V9.94466V9.94465V9.94464V9.94463V9.94462V9.94461V9.94461V9.9446V9.94459V9.94458V9.94457V9.94456V9.94455V9.94454V9.94454V9.94453V9.94452V9.94451V9.9445V9.94449V9.94448V9.94447V9.94447V9.94446V9.94445V9.94444V9.94443V9.94442V9.94441V9.94441V9.9444V9.94439V9.94438V9.94437V9.94436V9.94436V9.94435V9.94434V9.94433V9.94432V9.94431V9.9443V9.9443V9.94429V9.94428V9.94427V9.94426V9.94425V9.94424V9.94424V9.94423V9.94422V9.94421V9.9442V9.94419V9.94419V9.94418V9.94417V9.94416V9.94415V9.94414V9.94414V9.94413V9.94412V9.94411V9.9441V9.94409V9.94409V9.94408V9.94407V9.94406V9.94405V9.94404V9.94404V9.94403V9.94402V9.94401V9.944V9.94399V9.94398V9.94398V9.94397V9.94396V9.94395V9.94394V9.94393V9.94393V9.94392V9.94391V9.9439V9.94389V9.94388V9.94387V9.94387V9.94386V9.94385V9.94384V9.94383V9.94382V9.94381V9.94381V9.9438V9.94379V9.94378V9.94377V9.94376V9.94375V9.94375V9.94374V9.94373V9.94372V9.94371V9.9437V9.94369V9.94368V9.94368V9.94367V9.94366V9.94365V9.94364V9.94363V9.94362V9.94361V9.94361V9.9436V9.94359V9.94358V9.94357V9.94356V9.94355V9.94354V9.94353V9.94352V9.94352V9.94351V9.9435V9.94349V9.94348V9.94347V9.94346V9.94345V9.94344V9.94343V9.94342V9.94342V9.94341V9.9434V9.94339V9.94338V9.94337V9.94336V9.94335V9.94334V9.94333V9.94332V9.94331V9.9433V9.94329V9.94328V9.94327V9.94326V9.94325V9.94324V9.94324V9.94323V9.94322V9.94321V9.9432V9.94319V9.94318V9.94317V9.94316V9.94315V9.94314V9.94313V9.94312V9.94311V9.9431V9.94309V9.94308V9.94307V9.94306V9.94305V9.94304V9.94303V9.94302V9.943V9.94299V9.94298V9.94297V9.94296V9.94295V9.94294V9.94293V9.94292V9.94291V9.9429V9.94289V9.94288V9.94287V9.94286V9.94285V9.94283V9.94282V9.94281V9.9428V9.94279V9.94278V9.94277V9.94276V9.94275V9.94274V9.94272V9.94271V9.9427V9.94269V9.94268V9.94267V9.94266V9.94264V9.94263V9.94262V9.94261V9.9426V9.94259V9.94257V9.94256V9.94255V9.94254V9.94253V9.94251V9.9425V9.94249V9.94248V9.94247V9.94245V9.94244V9.94243V9.94242V9.9424V9.94239V9.94238V9.94237V9.94235V9.94234V9.94233V9.94232V9.9423V9.94229V9.94228V9.94227V9.94225V9.94224V9.94223V9.94221V9.9422V9.94219V9.94217V9.94216V9.94215V9.94213V9.94212V9.94211V9.94209V9.94208V9.94207V9.94205V9.94204V9.94202V9.94201V9.942V9.94198V9.94197V9.94195V9.94194V9.94193V9.94191V9.9419V9.94188V9.94187V9.94185V9.94184V9.94183V9.94181V9.9418V9.94178V9.94177V9.94175V9.94174V9.94172V9.94171V9.94169V9.94168V9.94166V9.94165V9.94163V9.94162V9.9416V9.94158V9.94157V9.94155V9.94154V9.94152V9.94151V9.94149V9.94147V9.94146V9.94144V9.94143V9.94141V9.94139V9.94138V9.94136V9.94134V9.94133V9.94131V9.94129V9.94128V9.94126C1.46919 9.75064 1.48578 9.55671 1.51631 9.36798L1.51631 9.36798L1.5165 9.36674C1.5406 9.20772 1.435 9.05227 1.27178 9.02677L1.27121 9.02668C1.11242 9.00262 0.95719 9.10787 0.931346 9.27069C0.896035 9.48844 0.875282 9.713 0.875282 9.9384C0.875282 9.94062 0.875247 9.94412 0.875201 9.94882C0.874366 10.0329 0.869723 10.5009 0.992418 10.906L0.992372 10.9061L0.993467 10.9093L0.99474 10.9132C1.07153 11.2245 1.18601 11.5263 1.33205 11.8157C1.57704 12.3403 1.86778 12.7821 2.20029 13.1236C2.65676 13.5934 2.73532 14.189 2.74959 14.4357V14.5525V14.5526V14.5526V14.5527V14.5527V14.5528V14.5528V14.5529V14.5529V14.553V14.553V14.5531V14.5531V14.5532V14.5532V14.5533V14.5533V14.5534V14.5534V14.5535V14.5535V14.5536V14.5536V14.5537V14.5537V14.5538V14.5538V14.5539V14.5539V14.554V14.554V14.5541V14.5541V14.5541V14.5542V14.5542V14.5543V14.5543V14.5544V14.5544V14.5545V14.5545V14.5546V14.5546V14.5547V14.5547V14.5548V14.5548V14.5549V14.5549V14.555V14.555V14.5551V14.5551V14.5552V14.5552V14.5552V14.5553V14.5553V14.5554V14.5554V14.5555V14.5555V14.5556V14.5556V14.5557V14.5557V14.5558V14.5558V14.5559V14.5559V14.556V14.556V14.556V14.5561V14.5561V14.5562V14.5562V14.5563V14.5563V14.5564V14.5564V14.5565V14.5565V14.5566V14.5566V14.5567V14.5567V14.5567V14.5568V14.5568V14.5569V14.5569V14.557V14.557V14.5571V14.5571V14.5572V14.5572V14.5572V14.5573V14.5573V14.5574V14.5574V14.5575V14.5575V14.5576V14.5576V14.5577V14.5577V14.5577V14.5578V14.5578V14.5579V14.5579V14.558V14.558V14.5581V14.5581V14.5582V14.5582V14.5582V14.5583V14.5583V14.5584V14.5584V14.5585V14.5585V14.5586V14.5586V14.5587V14.5587V14.5587V14.5588V14.5588V14.5589V14.5589V14.559V14.559V14.5591V14.5591V14.5592V14.5592V14.5592V14.5593V14.5593V14.5594V14.5594V14.5595V14.5595V14.5596V14.5596V14.5596V14.5597V14.5597V14.5598V14.5598V14.5599V14.5599V14.56V14.56V14.56V14.5601V14.5601V14.5602V14.5602V14.5603V14.5603V14.5604V14.5604V14.5605V14.5605V14.5605V14.5606V14.5606V14.5607V14.5607V14.5608V14.5608V14.5609V14.5609V14.5609V14.561V14.561V14.5611V14.5611V14.5612V14.5612V14.5613V14.5613V14.5613V14.5614V14.5614V14.5615V14.5615V14.5616V14.5616V14.5617V14.5617V14.5618V14.5618V14.5618V14.5619V14.5619V14.562V14.562V14.5621V14.5621V14.5622V14.5622V14.5622V14.5623V14.5623V14.5624V14.5624V14.5625V14.5625V14.5626V14.5626V14.5627V14.5627V14.5627V14.5628V14.5628V14.5629V14.5629V14.563V14.563V14.5631V14.5631V14.5632V14.5632V14.5632V14.5633V14.5633V14.5634V14.5634V14.5635V14.5635V14.5636V14.5636V14.5637V14.5637V14.5637V14.5638V14.5638V14.5639V14.5639V14.564V14.564V14.5641V14.5641V14.5642V14.5642V14.5642V14.5643V14.5643V14.5644V14.5644V14.5645V14.5645V14.5646V14.5646V14.5647V14.5647V14.5648V14.5648V14.5649V14.5649V14.5649V14.565V14.565V14.5651V14.5651V14.5652V14.5652V14.5653V14.5653V14.5654V14.5654V14.5655V14.5655V14.5656V14.5656V14.5656V14.5657V14.5657V14.5658V14.5658V14.5659V14.5659V14.566V14.566V14.5661V14.5661V14.5662V14.5662V14.5663V14.5663V14.5664V14.5664V14.5665V14.5665V14.5666V14.5666V14.5667V14.5667V14.5667V14.5668V14.5668V14.5669V14.5669V14.567V14.567V14.5671V14.5671V14.5672V14.5672V14.5673V14.5673V14.5674V14.5674V14.5675V14.5675V14.5676V14.5676V14.5677V14.5677V14.5678V14.5678V14.5679V14.5679V14.568V14.568V14.5681V14.5681V14.5682V14.5682V14.5683V14.5683V14.5684V14.5684V14.5685V14.5685V14.5686V14.5686V14.5687V14.5687V14.5688V14.5688V14.5689V14.5689V14.569V14.569V14.5691V14.5691V14.5692V14.5692V14.5693V14.5693V14.5694V14.5694V14.5695V14.5695V14.5696V14.5697V14.5697V14.5698V14.5698V14.5699V14.5699V14.57V14.57V14.5701V14.5701V14.5702V14.5702V14.5703V14.5703V14.5704V14.5704V14.5705V14.5705V14.5706V14.5707V14.5707V14.5708V14.5708V14.5709V14.5709V14.571V14.571V14.5711V14.5711V14.5712V14.5712V14.5713V14.5714V14.5714V14.5715V14.5715V14.5716V14.5716V14.5717V14.5717V14.5718V14.5719V14.5719V14.572V14.572V14.5721V14.5721V14.5722V14.5722V14.5723V14.5724V14.5724V14.5725V14.5725V14.5726V14.5726V14.5727V14.5728V14.5728V14.5729V14.5729V14.573V14.573V14.5731V14.5732V14.5732V14.5733V14.5733V14.5734V14.5734V14.5735V14.5736V14.5736V14.5737V14.5737V14.5738V14.5739V14.5739V14.574V14.574V14.5741V14.5741V14.5742V14.5743V14.5743V14.5744V14.5744V14.5745V14.5746V14.5746V14.5747V14.5747V14.5748V14.5749V14.5749V14.575V14.5751V14.5751V14.5752V14.5752V14.5753V14.5754V14.5754V14.5755V14.5755V14.5756V14.5757V14.5757V14.5758V14.5759V14.5759V14.576V14.576V14.5761V14.5762V14.5762V14.5763V14.5764V14.5764V14.5765V14.5765V14.5766V14.5767V14.5767V14.5768V14.5769V14.5769V14.577V14.5771V14.5771V14.5772V14.5773V14.5773V14.5774V14.5775V14.5775V14.5776V14.5776V14.5777V14.5778V14.5778V14.5779V14.578V14.578V14.5781V14.5782V14.5782V14.5783L9.27656 12.7106ZM7.62341 6.1124C7.69506 6.13533 7.77531 6.10667 7.8183 6.04362L6.51431 5.71404C6.50284 5.80861 6.57162 5.89459 6.66333 5.90605C6.99005 5.94617 7.3139 6.01496 7.62341 6.1124Z" fill="white" stroke="white" stroke-width="0.25"/>
<rect width="4.49949" height="4.49949" fill="black" fill-opacity="0" transform="translate(1.02344 4.1875)"/>
<rect width="4.49949" height="4.49949" fill="black" fill-opacity="0" transform="translate(1.02344 4.1875)"/>
<path d="M3.27318 4.0625C1.9631 4.0625 0.898438 5.13024 0.898438 6.43724C0.898438 7.74722 1.9632 8.81199 3.27318 8.81199C4.58316 8.81199 5.64793 7.74722 5.64793 6.43724C5.64793 5.12727 4.58316 4.0625 3.27318 4.0625ZM3.27318 8.21808C2.29043 8.21808 1.49235 7.42 1.49235 6.43724C1.49235 5.45449 2.29043 4.65641 3.27318 4.65641C4.25582 4.65641 5.05402 5.45723 5.05402 6.43724C5.05402 7.42 4.25594 8.21808 3.27318 8.21808Z" fill="white" stroke="white" stroke-width="0.25"/>
<rect width="3.06653" height="3.06653" fill="black" fill-opacity="0" transform="translate(4.44238 1)"/>
<rect width="3.06653" height="3.06653" fill="black" fill-opacity="0" transform="translate(4.44238 1)"/>
<path d="M5.97565 0.875C5.06117 0.875 4.31738 1.61878 4.31738 2.53327C4.31738 3.44759 5.05815 4.19153 5.97565 4.19153C6.89013 4.19153 7.63391 3.44775 7.63391 2.53327C7.63391 1.61878 6.89013 0.875 5.97565 0.875ZM5.97565 3.59762C5.38839 3.59762 4.91129 3.12052 4.91129 2.53327C4.91129 1.94601 5.38839 1.46891 5.97565 1.46891C6.56291 1.46891 7.04 1.94601 7.04 2.53327C7.04 3.12052 6.56291 3.59762 5.97565 3.59762Z" fill="white" stroke="white" stroke-width="0.25"/>
</svg>
