<?xml version="1.0" encoding="utf-8"?>
<!-- Generator: Adobe Illustrator 23.0.2, SVG Export Plug-In . SVG Version: 6.00 Build 0)  -->
<svg version="1.1" id="Layer_1" xmlns="http://www.w3.org/2000/svg" xmlns:xlink="http://www.w3.org/1999/xlink" x="0px" y="0px"
	 viewBox="0 0 134.8 134.8" style="enable-background:new 0 0 134.8 134.8;" xml:space="preserve">
<style type="text/css">
	.st0{fill:#181818;}
	.st1{fill:#191818;}
	.st2{fill:#201600;}
	.st3{fill:#80B95D;}
</style>
<g>
	<g>
		<polygon class="st0" points="-128.2,56.4 -169.8,56.4 -169.8,39.8 -134.9,39.8 -134.9,43.7 -165.9,43.7 -165.9,52.5 -128.2,52.5 
					"/>
		<polygon class="st0" points="-64.9,56.4 -106.4,56.4 -106.4,52.5 -68.7,52.5 -68.7,43.7 -99.7,43.7 -99.7,39.8 -64.9,39.8 		"/>
		<g>
			<rect x="-159.4" y="46.2" class="st0" width="3.9" height="3.9"/>
			<rect x="-151.6" y="46.2" class="st0" width="3.9" height="3.9"/>
			<rect x="-143.9" y="46.2" class="st0" width="3.9" height="3.9"/>
		</g>
		<polygon class="st0" points="-64.9,127.6 -169.8,127.6 -169.8,54.4 -165.9,54.4 -165.9,123.7 -68.7,123.7 -68.7,54.4 -64.9,54.4 
					"/>
		<polygon class="st0" points="-105.2,87.1 -129.5,87.1 -129.5,62.8 -122.7,62.8 -122.7,66.7 -125.6,66.7 -125.6,83.2 -109.1,83.2 
			-109.1,66.7 -111.9,66.7 -111.9,62.8 -105.2,62.8 		"/>
		<path class="st0" d="M-135.1,87.1h-24.3V62.8h24.3V87.1z M-155.5,83.2h16.5V66.7h-16.5V83.2z"/>
		<path class="st0" d="M-75.2,87.1h-24.3V62.8h24.3V87.1z M-95.6,83.2h16.5V66.7h-16.5V83.2z"/>
		<g>
			<rect x="-159.4" y="111.1" class="st0" width="24.3" height="3.9"/>
			<rect x="-159.4" y="102.7" class="st0" width="24.3" height="3.9"/>
			<rect x="-159.4" y="94.3" class="st0" width="24.3" height="3.9"/>
		</g>
		<g>
			<rect x="-99.5" y="111.1" class="st0" width="24.3" height="3.9"/>
			<rect x="-99.5" y="102.7" class="st0" width="24.3" height="3.9"/>
			<rect x="-99.5" y="94.3" class="st0" width="24.3" height="3.9"/>
		</g>
		<g>
			<rect x="-129.5" y="111.1" class="st0" width="24.3" height="3.9"/>
			<rect x="-129.5" y="102.7" class="st0" width="24.3" height="3.9"/>
			<rect x="-129.5" y="94.3" class="st0" width="24.3" height="3.9"/>
		</g>
	</g>
	<g>
		<path class="st0" d="M-117.3,79.1l-19.8-37.3c-2.1-3.5-3.2-7.5-3.2-11.6c0-12.7,10.3-23,23-23c12.7,0,23,10.3,23,23
			c0,4.1-1.1,8.1-3.2,11.6L-117.3,79.1z M-117.3,11c-10.5,0-19.1,8.6-19.1,19.1c0,3.4,0.9,6.8,2.7,9.7l0.1,0.1l16.4,30.9l16.5-31
			c1.7-2.9,2.7-6.3,2.7-9.7C-98.2,19.6-106.8,11-117.3,11z"/>
		<g>
			
				<rect x="-131" y="28.2" transform="matrix(0.7071 -0.7071 0.7071 0.7071 -55.6728 -74.1275)" class="st0" width="27.4" height="3.9"/>
			<g>
				<path class="st0" d="M-111.3,41.8c-3.1,0-5.6-2.5-5.6-5.6c0-3.1,2.5-5.6,5.6-5.6c3.1,0,5.6,2.5,5.6,5.6
					C-105.7,39.3-108.2,41.8-111.3,41.8z M-111.3,34.5c-0.9,0-1.7,0.8-1.7,1.7c0,0.9,0.8,1.7,1.7,1.7c0.9,0,1.7-0.8,1.7-1.7
					C-109.6,35.2-110.3,34.5-111.3,34.5z"/>
				<path class="st0" d="M-123.3,29.7c-3.1,0-5.6-2.5-5.6-5.6s2.5-5.6,5.6-5.6c3.1,0,5.6,2.5,5.6,5.6S-120.3,29.7-123.3,29.7z
					 M-123.3,22.4c-0.9,0-1.7,0.8-1.7,1.7s0.8,1.7,1.7,1.7c0.9,0,1.7-0.8,1.7-1.7S-122.4,22.4-123.3,22.4z"/>
			</g>
		</g>
	</g>
</g>
<g>
	<g>
		<path class="st0" d="M219.6,128c1-0.2,1.8-1.1,1.8-2.4c0-1.4-1-2.6-3-2.6h-5.5v10.4h5.6c2,0,3-1.2,3-2.8
			C221.6,129.2,220.7,128.2,219.6,128z M215.1,124.9h2.8c0.7,0,1.2,0.5,1.2,1.1c0,0.7-0.5,1.1-1.2,1.1h-2.8V124.9z M218,131.4h-2.9
			V129h2.9c0.9,0,1.3,0.5,1.3,1.2C219.3,131,218.8,131.4,218,131.4z"/>
		<path class="st0" d="M230.3,129.1c0,1.4-0.8,2.4-2.4,2.4c-1.6,0-2.4-1-2.4-2.4V123h-2.2v6.2c0,2.6,1.5,4.3,4.7,4.3
			c3.2,0,4.7-1.8,4.7-4.3V123h-2.3V129.1z"/>
		<polygon class="st0" points="238.6,127.1 236.1,123 233.5,123 237.5,129.1 237.5,133.3 239.7,133.3 239.7,129.1 243.7,123 
			241.2,123 		"/>
		<path class="st0" d="M253.6,122.8c-3.1,0-5.4,2.2-5.4,5.4c0,3.1,2.3,5.4,5.4,5.4c3.1,0,5.4-2.2,5.4-5.4
			C259,125,256.7,122.8,253.6,122.8z M253.6,131.6c-1.9,0-3.2-1.5-3.2-3.4c0-1.9,1.2-3.4,3.2-3.4c1.9,0,3.1,1.5,3.1,3.4
			C256.7,130.1,255.5,131.6,253.6,131.6z"/>
		<polygon class="st0" points="267.6,129.5 262.8,123 260.5,123 260.5,133.3 262.8,133.3 262.8,126.6 267.7,133.3 269.8,133.3 
			269.8,123 267.6,123 		"/>
		<polygon class="st0" points="274,123 271.8,123 271.8,133.3 278.4,133.3 278.4,131.4 274,131.4 		"/>
		<rect x="279.9" y="123" class="st0" width="2.2" height="10.4"/>
		<polygon class="st0" points="291.2,129.5 286.4,123 284.1,123 284.1,133.3 286.4,133.3 286.4,126.6 291.3,133.3 293.4,133.3 
			293.4,123 291.2,123 		"/>
		<polygon class="st0" points="302.8,124.9 302.8,123 295.5,123 295.5,133.3 302.8,133.3 302.8,131.4 297.7,131.4 297.7,129 
			302.7,129 302.7,127.1 297.7,127.1 297.7,124.9 		"/>
	</g>
</g>
<g>
	<g>
		<path class="st0" d="M111.8,331.9c0-0.6,0.5-1,1.5-1c1.1,0,2.2,0.4,3,1.1l1.2-1.6c-1-0.9-2.4-1.4-4-1.4c-2.4,0-3.9,1.4-3.9,3.2
			c0,3.9,6,2.6,6,4.4c0,0.6-0.6,1.2-1.8,1.2c-1.4,0-2.6-0.7-3.3-1.4l-1.2,1.7c1,1,2.4,1.6,4.4,1.6c2.8,0,4.2-1.4,4.2-3.3
			C117.8,332.4,111.8,333.5,111.8,331.9z"/>
		<polygon class="st0" points="126.7,329 118.4,329 118.4,331 121.5,331 121.5,339.4 123.7,339.4 123.7,331 126.7,331 		"/>
		<path class="st0" d="M130,329l-4,10.4h2.5l0.7-1.8h4.4l0.7,1.8h2.5l-4-10.4H130z M129.8,335.7l1.6-4.5l1.6,4.5H129.8z"/>
		<polygon class="st0" points="136.1,331 139.1,331 139.1,339.4 141.4,339.4 141.4,331 144.4,331 144.4,329 136.1,329 		"/>
		<rect x="145.8" y="329" class="st0" width="2.2" height="10.4"/>
		<path class="st0" d="M152,331.9c0-0.6,0.5-1,1.5-1c1.1,0,2.2,0.4,3,1.1l1.2-1.6c-1-0.9-2.4-1.4-4-1.4c-2.4,0-3.9,1.4-3.9,3.2
			c0,3.9,6,2.6,6,4.4c0,0.6-0.6,1.2-1.8,1.2c-1.4,0-2.6-0.7-3.3-1.4l-1.2,1.7c1,1,2.4,1.6,4.4,1.6c2.8,0,4.2-1.4,4.2-3.3
			C157.9,332.4,152,333.5,152,331.9z"/>
		<polygon class="st0" points="158.5,331 161.6,331 161.6,339.4 163.8,339.4 163.8,331 166.8,331 166.8,329 158.5,329 		"/>
		<rect x="168.2" y="329" class="st0" width="2.2" height="10.4"/>
		<path class="st0" d="M177.5,330.8c1.1,0,2,0.7,2.4,1.5l1.9-0.9c-0.7-1.3-2.1-2.5-4.3-2.5c-3.1,0-5.5,2.2-5.5,5.4
			c0,3.2,2.4,5.4,5.5,5.4c2.3,0,3.6-1.3,4.3-2.5l-1.9-0.9c-0.4,0.8-1.4,1.5-2.4,1.5c-1.9,0-3.3-1.4-3.3-3.4
			C174.3,332.3,175.6,330.8,177.5,330.8z"/>
		<path class="st0" d="M185.1,331.9c0-0.6,0.5-1,1.5-1c1.1,0,2.2,0.4,3,1.1l1.2-1.6c-1-0.9-2.4-1.4-4-1.4c-2.4,0-3.9,1.4-3.9,3.2
			c0,3.9,6,2.6,6,4.4c0,0.6-0.6,1.2-1.8,1.2c-1.4,0-2.6-0.7-3.3-1.4l-1.2,1.7c1,1,2.4,1.6,4.4,1.6c2.8,0,4.2-1.4,4.2-3.3
			C191,332.4,185.1,333.5,185.1,331.9z"/>
	</g>
</g>
<g>
	<g>
		<g>
			<path class="st0" d="M-206.7-104.4h-11.7V-117h11.7V-104.4z M-214.5-108.3h3.9v-4.8h-3.9V-108.3z"/>
			<path class="st0" d="M-190-104.4h-11.7V-123h11.7V-104.4z M-197.7-108.3h3.9v-10.8h-3.9V-108.3z"/>
			<path class="st0" d="M-173.2-104.4h-11.7v-24.5h11.7V-104.4z M-181-108.3h3.9V-125h-3.9V-108.3z"/>
			<path class="st0" d="M-156.5-104.4h-11.7v-30.5h11.7V-104.4z M-164.3-108.3h3.9V-131h-3.9V-108.3z"/>
			<path class="st0" d="M-139.8-104.4h-11.7v-36.5h11.7V-104.4z M-147.5-108.3h3.9V-137h-3.9V-108.3z"/>
		</g>
	</g>
	<path class="st0" d="M-125.1-89.2h-108v-11.3h108V-89.2z M-229.2-93.1h100.2v-3.6h-100.2V-93.1z"/>
	<path class="st0" d="M-168.5-164.3h-21.2v-11.4h21.2V-164.3z M-185.7-168.2h13.4v-3.6h-13.4V-168.2z"/>
	<polygon class="st0" points="-130.3,-153.8 -134.1,-153.8 -134.1,-164.3 -144.7,-164.3 -144.7,-168.2 -130.3,-168.2 	"/>
	<polygon class="st0" points="-130.3,-96.6 -227.8,-96.6 -227.8,-168.2 -152,-168.2 -152,-164.3 -224,-164.3 -224,-100.5 
		-134.1,-100.5 -134.1,-146.5 -130.3,-146.5 	"/>
	<polygon class="st0" points="-224.5,-122.3 -227.3,-125 -208.9,-143.4 -200.3,-134.9 -183.3,-152 -174.8,-143.4 -157.8,-160.5 
		-149.2,-152 -133.6,-167.6 -130.8,-164.9 -149.2,-146.5 -157.8,-155 -174.8,-137.9 -183.3,-146.5 -200.3,-129.4 -208.9,-137.9 	"/>
</g>
<g>
	<path class="st0" d="M22.1-132.4v37h36.6v-37H22.1z M54.7-99.3H25.9v-29.2h28.8V-99.3z"/>
	<rect x="68.7" y="-132.4" class="st0" width="43.1" height="3.9"/>
	<rect x="68.7" y="-120" class="st0" width="43.1" height="3.9"/>
	<rect x="68.7" y="-107.6" class="st0" width="43.1" height="3.9"/>
	<rect x="68.7" y="-95.2" class="st0" width="43.1" height="3.9"/>
	<rect x="68.7" y="-82.8" class="st0" width="43.1" height="3.9"/>
	<rect x="22.1" y="-82.8" class="st0" width="36.6" height="3.7"/>
	<path class="st0" d="M123.3-66.4H11.5v-71.3c0-1.5,0.6-3,1.7-4.1c1.1-1.1,2.5-1.7,4.1-1.7h100.3c1.5,0,3,0.6,4.1,1.7
		c1.1,1.1,1.7,2.5,1.7,4.1V-66.4z M15.4-70.2h104.1v-67.4c0-0.5-0.2-1-0.6-1.3c-0.3-0.3-0.8-0.5-1.3-0.5H17.2c-0.5,0-1,0.2-1.3,0.5
		c-0.3,0.3-0.5,0.8-0.5,1.3V-70.2z"/>
	<path class="st0" d="M117.6-53.7H17.2c-1.5,0-3-0.6-4.1-1.7c-1.1-1.1-1.7-2.5-1.7-4.1v-10.8h111.8v10.8c0,1.5-0.6,3-1.7,4.1
		C120.6-54.3,119.1-53.7,117.6-53.7z M15.4-66.4v6.9c0,0.5,0.2,1,0.5,1.3c0.4,0.4,0.8,0.6,1.3,0.6h100.3c0.5,0,1-0.2,1.3-0.5
		c0.4-0.4,0.6-0.8,0.6-1.3v-6.9H15.4z"/>
</g>
<g>
	<path class="st1" d="M303.9,211.5c0-0.6,0.5-1,1.5-1c1.1,0,2.2,0.4,3,1.1l1.2-1.6c-1-0.9-2.4-1.4-4-1.4c-2.4,0-3.9,1.4-3.9,3.2
		c0,3.9,6,2.6,6,4.4c0,0.6-0.6,1.2-1.8,1.2c-1.4,0-2.6-0.7-3.3-1.4l-1.2,1.7c1,1,2.4,1.6,4.4,1.6c2.8,0,4.2-1.4,4.2-3.3
		C309.8,212,303.9,213.1,303.9,211.5z"/>
	<polygon class="st1" points="310.5,210.6 313.5,210.6 313.5,219 315.7,219 315.7,210.6 318.7,210.6 318.7,208.7 310.5,208.7 	"/>
	<path class="st1" d="M328.5,212c0-1.9-1.3-3.3-3.5-3.3h-4.9V219h2.2v-3.7h1.6l2,3.7h2.6l-2.3-3.9
		C327.3,214.8,328.5,213.8,328.5,212z M324.7,213.4h-2.3v-2.8h2.3c0.9,0,1.5,0.5,1.5,1.4C326.2,212.9,325.6,213.4,324.7,213.4z"/>
	<path class="st1" d="M337.3,214.8c0,1.4-0.8,2.4-2.4,2.4c-1.6,0-2.4-1-2.4-2.4v-6.2h-2.2v6.2c0,2.6,1.5,4.3,4.7,4.3
		c3.2,0,4.7-1.8,4.7-4.3v-6.2h-2.3V214.8z"/>
	<path class="st1" d="M346.6,210.4c1.1,0,2,0.7,2.4,1.5l1.9-0.9c-0.7-1.3-2.1-2.5-4.3-2.5c-3.1,0-5.5,2.2-5.5,5.4
		c0,3.2,2.4,5.4,5.5,5.4c2.3,0,3.6-1.3,4.3-2.5l-1.9-0.9c-0.4,0.8-1.4,1.5-2.4,1.5c-1.9,0-3.3-1.4-3.3-3.4S344.7,210.4,346.6,210.4z
		"/>
	<polygon class="st1" points="351.6,210.6 354.6,210.6 354.6,219 356.9,219 356.9,210.6 359.9,210.6 359.9,208.7 351.6,208.7 	"/>
	<path class="st1" d="M368.4,214.8c0,1.4-0.8,2.4-2.4,2.4c-1.6,0-2.4-1-2.4-2.4v-6.2h-2.2v6.2c0,2.6,1.5,4.3,4.7,4.3
		c3.2,0,4.7-1.8,4.7-4.3v-6.2h-2.3V214.8z"/>
	<path class="st1" d="M381,212c0-1.9-1.3-3.3-3.5-3.3h-4.8V219h2.2v-3.7h1.6l2,3.7h2.5l-2.3-3.9C379.9,214.8,381,213.8,381,212z
		 M377.2,213.4h-2.3v-2.8h2.3c0.9,0,1.5,0.5,1.5,1.4C378.8,212.9,378.1,213.4,377.2,213.4z"/>
	<polygon class="st1" points="390,210.6 390,208.7 382.7,208.7 382.7,219 390,219 390,217.1 384.9,217.1 384.9,214.7 389.9,214.7 
		389.9,212.8 384.9,212.8 384.9,210.6 	"/>
</g>
<g>
	<g>
		<path class="st0" d="M-30.1,293.2h-111v-81.6h111V293.2z M-137.2,289.3H-34v-73.8h-103.2V289.3z"/>
		<path class="st0" d="M-30.1,215.5h-111v-17.4h111V215.5z M-137.2,211.6H-34V202h-103.2V211.6z"/>
		<rect x="-106.6" y="213.5" class="st0" width="3.9" height="77.7"/>
		<g>
			<rect x="-115.4" y="204.8" class="st0" width="4.3" height="3.9"/>
			<rect x="-124.1" y="204.8" class="st0" width="4.3" height="3.9"/>
			<rect x="-132.7" y="204.8" class="st0" width="4.3" height="3.9"/>
		</g>
	</g>
	<g>
		<g>
			<path class="st0" d="M-73.3,232.7h-12.5v-12.5h12.5V232.7z M-82,228.9h4.8v-4.8H-82V228.9z"/>
			<path class="st0" d="M-56.1,232.7h-12.5v-12.5h12.5V232.7z M-64.7,228.9h4.8v-4.8h-4.8V228.9z"/>
			<path class="st0" d="M-38.8,232.7h-12.5v-12.5h12.5V232.7z M-47.4,228.9h4.8v-4.8h-4.8V228.9z"/>
		</g>
		<path class="st0" d="M-38.8,250h-47.1v-12.5h47.1V250z M-82,246.1h39.3v-4.8H-82V246.1z"/>
		<path class="st0" d="M-38.8,267.3h-47.1v-12.5h47.1V267.3z M-82,263.4h39.3v-4.8H-82V263.4z"/>
		<path class="st0" d="M-64.7,284.6h-21.2V272h21.2V284.6z M-82,280.7h13.4v-4.8H-82V280.7z"/>
		<g>
			<polygon class="st0" points="-89.9,280.2 -97.9,280.2 -97.9,224.5 -89.9,224.5 -89.9,228.4 -94.1,228.4 -94.1,276.4 -89.9,276.4 
							"/>
			<rect x="-96" y="241.8" class="st0" width="6" height="3.9"/>
			<rect x="-96" y="259.1" class="st0" width="6" height="3.9"/>
		</g>
		<g>
			<rect x="-42.9" y="276.4" class="st0" width="4.3" height="3.9"/>
			<rect x="-51.5" y="276.4" class="st0" width="4.3" height="3.9"/>
			<rect x="-60.2" y="276.4" class="st0" width="4.3" height="3.9"/>
		</g>
	</g>
	<g>
		<rect x="-132.7" y="246.1" class="st0" width="21.6" height="3.9"/>
		<rect x="-132.7" y="254.8" class="st0" width="21.6" height="3.9"/>
		<rect x="-132.7" y="263.4" class="st0" width="21.6" height="3.9"/>
		<rect x="-132.7" y="272" class="st0" width="21.6" height="3.9"/>
		<rect x="-132.7" y="280.7" class="st0" width="21.6" height="3.9"/>
	</g>
	<path class="st0" d="M-111.3,241.4h-21.2v-21.2h21.2V241.4z M-128.6,237.5h13.4v-13.4h-13.4V237.5z"/>
</g>
<polygon class="st2" points="7.3,127.5 54.3,127.5 54.3,80.5 7.3,80.5 7.3,127.5 "/>
<path class="st3" d="M7.3,7.3v58.5h12.4c32.7,0,49.3,16.6,49.3,49.3v12.4h58.5V7.3H7.3L7.3,7.3z M102.7,32.1L102.7,32.1
	c0,16,0,54.5,0,70.5c-4.5,0-5.2,0-9.6,0C89,67.8,67,45.9,32.2,41.7c0-4.4,0-5.1,0-9.6C48.1,32.1,86.7,32.1,102.7,32.1L102.7,32.1z"
	/>
</svg>
