<svg width="8" height="13" viewBox="0 0 8 13" fill="none" xmlns="http://www.w3.org/2000/svg">
<path d="M3.00781 8.79688C3.01823 8.17708 3.08854 7.6875 3.21875 7.32812C3.34896 6.96875 3.61458 6.57031 4.01562 6.13281L5.03906 5.07812C5.47656 4.58333 5.69531 4.05208 5.69531 3.48438C5.69531 2.9375 5.55208 2.51042 5.26562 2.20312C4.97917 1.89062 4.5625 1.73438 4.01562 1.73438C3.48438 1.73438 3.05729 1.875 2.73438 2.15625C2.41146 2.4375 2.25 2.8151 2.25 3.28906H0.804688C0.815104 2.44531 1.11458 1.76562 1.70312 1.25C2.29688 0.729167 3.06771 0.46875 4.01562 0.46875C5 0.46875 5.76562 0.734375 6.3125 1.26562C6.86458 1.79167 7.14062 2.51562 7.14062 3.4375C7.14062 4.34896 6.71875 5.2474 5.875 6.13281L5.02344 6.97656C4.64323 7.39844 4.45312 8.00521 4.45312 8.79688H3.00781ZM2.94531 11.2734C2.94531 11.0391 3.01562 10.8438 3.15625 10.6875C3.30208 10.526 3.51562 10.4453 3.79688 10.4453C4.07812 10.4453 4.29167 10.526 4.4375 10.6875C4.58333 10.8438 4.65625 11.0391 4.65625 11.2734C4.65625 11.5078 4.58333 11.7031 4.4375 11.8594C4.29167 12.0104 4.07812 12.0859 3.79688 12.0859C3.51562 12.0859 3.30208 12.0104 3.15625 11.8594C3.01562 11.7031 2.94531 11.5078 2.94531 11.2734Z" fill="white"/>
</svg>
