<svg width="14" height="14" viewBox="0 0 14 14" fill="none" xmlns="http://www.w3.org/2000/svg">
<rect width="14" height="13.7295" fill="black" fill-opacity="0"/>
<rect width="14" height="13.7295" fill="black" fill-opacity="0"/>
<rect width="14" height="13.7295" fill="black" fill-opacity="0"/>
<rect width="14" height="13.7295" fill="black" fill-opacity="0"/>
<path d="M7.00027 2.54545C7.70317 2.54545 8.27299 1.97563 8.27299 1.27273C8.27299 0.569828 7.70317 0 7.00027 0C6.29737 0 5.72754 0.569828 5.72754 1.27273C5.72754 1.97563 6.29734 2.54545 7.00027 2.54545ZM7.00027 0.636364C7.35173 0.636364 7.63663 0.921262 7.63663 1.27273C7.63663 1.62419 7.35173 1.90909 7.00027 1.90909C6.6488 1.90909 6.3639 1.62419 6.3639 1.27273C6.3639 0.921262 6.6488 0.636364 7.00027 0.636364Z" fill="white"/>
<path d="M7.46204 2.75224C7.45641 2.75233 7.4508 2.75248 7.4452 2.75263H6.5543C5.59695 2.72611 4.79938 3.48072 4.77286 4.43806C4.7727 4.44367 4.77258 4.4493 4.77246 4.4549V4.70944C4.77246 4.88444 4.94746 4.97991 5.12246 4.97991H8.877C9.052 4.97991 9.22701 4.88444 9.22701 4.70944V4.4549C9.20977 3.49734 8.41957 2.73503 7.46204 2.75224ZM5.44065 4.34351C5.47247 3.86626 5.96565 3.38897 6.55427 3.38897H7.44517C8.03382 3.38897 8.527 3.86623 8.55879 4.34351H5.44065Z" fill="white"/>
<path d="M1.82991 8.08228C2.00564 8.08228 2.14809 7.93983 2.14809 7.7641C2.14708 6.29222 2.8142 4.89946 3.96171 3.97774C4.0876 3.85511 4.09022 3.65368 3.96759 3.52779C3.86092 3.41829 3.69143 3.40014 3.56399 3.48455C2.26474 4.52479 1.50947 6.09971 1.51172 7.7641C1.51172 7.93983 1.65417 8.08228 1.82991 8.08228Z" fill="white"/>
<path d="M8.55092 12.3582C8.54842 12.3591 8.54592 12.36 8.54346 12.3609C7.54713 12.6944 6.46932 12.6944 5.473 12.3609C5.30613 12.3089 5.12854 12.4013 5.07528 12.5678C5.01483 12.7234 5.09199 12.8985 5.2476 12.959C5.25372 12.9613 5.2599 12.9635 5.26617 12.9655C6.39615 13.3474 7.62031 13.3474 8.75025 12.9655C8.91889 12.9053 9.01012 12.7229 8.95707 12.5518C8.89842 12.3862 8.71657 12.2995 8.55092 12.3582Z" fill="white"/>
<path d="M9.80014 3.80125C11.0888 4.70847 11.8546 6.18665 11.8524 7.76261C11.8524 7.93834 11.9949 8.08079 12.1706 8.08079C12.3463 8.08079 12.4888 7.93834 12.4888 7.76261C12.4844 5.97983 11.6193 4.30893 10.166 3.27624C10.0211 3.17521 9.82164 3.21081 9.72057 3.35578C9.61953 3.50076 9.65516 3.70021 9.80014 3.80125Z" fill="white"/>
<path d="M2.22683 11.2955C2.92973 11.2955 3.49956 10.7256 3.49956 10.0227C3.49956 9.31983 2.92973 8.75 2.22683 8.75C1.52393 8.75 0.954102 9.3198 0.954102 10.0227C0.954102 10.7257 1.52393 11.2955 2.22683 11.2955ZM2.22683 9.38636C2.57829 9.38636 2.86319 9.67126 2.86319 10.0227C2.86319 10.3742 2.57829 10.6591 2.22683 10.6591C1.87536 10.6591 1.59047 10.3742 1.59047 10.0227C1.59047 9.67126 1.87536 9.38636 2.22683 9.38636Z" fill="white"/>
<path d="M2.68961 11.5022C2.68398 11.5023 2.67837 11.5025 2.67277 11.5026H1.78184C0.824489 11.4761 0.0269186 12.2307 0.000395862 13.1881C0.000243607 13.1937 0.000121804 13.1993 0 13.2049V13.4594C0 13.6344 0.175002 13.7299 0.350003 13.7299H4.10454C4.27954 13.7299 4.45455 13.6344 4.45455 13.4594V13.2049C4.43737 12.2473 3.64717 11.485 2.68961 11.5022ZM0.668215 13.0935C0.700036 12.6163 1.19322 12.139 1.78184 12.139H2.67274C3.26139 12.139 3.75457 12.6162 3.78636 13.0935H0.668215Z" fill="white"/>
<path d="M10.5 10.0227C10.5 10.7256 11.0698 11.2955 11.7727 11.2955C12.4756 11.2955 13.0455 10.7256 13.0455 10.0227C13.0455 9.31983 12.4756 8.75 11.7727 8.75C11.0698 8.75 10.5 9.3198 10.5 10.0227ZM12.4091 10.0227C12.4091 10.3742 12.1242 10.6591 11.7727 10.6591C11.4213 10.6591 11.1364 10.3742 11.1364 10.0227C11.1364 9.67126 11.4213 9.38636 11.7727 9.38636C12.1242 9.38636 12.4091 9.67126 12.4091 10.0227Z" fill="white"/>
<path d="M12.2355 11.5022C12.2298 11.5023 12.2242 11.5025 12.2186 11.5026H11.3277C10.3704 11.4761 9.57282 12.2307 9.54629 13.1881C9.54614 13.1937 9.54602 13.1993 9.5459 13.2049V13.4594C9.5459 13.6344 9.7209 13.7299 9.8959 13.7299H13.6504C13.8254 13.7299 14.0004 13.6344 14.0004 13.4594V13.2049C13.9832 12.2473 13.193 11.485 12.2355 11.5022ZM10.2141 13.0935C10.2459 12.6163 10.7391 12.139 11.3277 12.139H12.2186C12.8073 12.139 13.3004 12.6162 13.3322 13.0935H10.2141Z" fill="white"/>
</svg>
