<svg width="22" height="24" viewBox="0 0 22 24" fill="none" xmlns="http://www.w3.org/2000/svg">
<path d="M10.9999 4.87305C9.46232 5.5937 7.17893 6.45691 4.38086 6.89645V10.1712C4.38086 12.386 5.11342 14.4909 6.49938 16.2583C7.66498 17.7447 9.21689 18.8825 10.9999 19.561C12.7829 18.8825 14.3348 17.7447 15.5004 16.2583C16.8863 14.4909 17.6189 12.386 17.6189 10.1712V6.89645C14.8208 6.45686 12.5374 5.5937 10.9999 4.87305Z" fill="#237BEF"/>
<path d="M21.2699 2.96592C18.2887 2.96592 15.7726 2.23711 14.1868 1.62577C12.4569 0.958875 11.4242 0.281859 11.4147 0.275625L11 0L10.5853 0.275672C10.5448 0.302578 6.47113 2.96597 0.730173 2.96597H-4.5309e-08V10.1721C-4.5309e-08 11.7446 0.265393 13.2941 0.78883 14.7775C1.29966 16.2251 2.04468 17.5789 3.0033 18.8014C3.96192 20.0238 5.11019 21.0846 6.41617 21.9539C7.75448 22.8447 9.22948 23.5147 10.8001 23.9452L11 24L11.1999 23.9452C12.7706 23.5147 14.2456 22.8447 15.5838 21.9539C16.8899 21.0845 18.0381 20.0238 18.9967 18.8014C19.9553 17.5789 20.7004 16.225 21.2112 14.7775C21.7346 13.2941 22 11.7446 22 10.1721V2.96592H21.2699ZM19.0794 10.172C19.0794 12.6952 18.2448 15.093 16.6659 17.1066C15.2763 18.8788 13.4038 20.2162 11.2508 20.9744L11 21.0627L10.7493 20.9744C8.59632 20.2162 6.72387 18.8787 5.33415 17.1066C3.75523 15.093 2.92069 12.6952 2.92069 10.172V5.6767L3.55317 5.59448C6.65104 5.19178 9.133 4.21242 10.6697 3.46172L11 3.30033L11.3304 3.46172C12.8671 4.21242 15.3491 5.19183 18.4469 5.59448L19.0794 5.6767V10.172Z" fill="#237BEF"/>
</svg>
