<svg width="28" height="26" viewBox="0 0 28 26" fill="none" xmlns="http://www.w3.org/2000/svg">
<path fill-rule="evenodd" clip-rule="evenodd" d="M13.6015 2.08203C7.30475 2.08203 2.17837 6.98169 2.17837 13C2.17837 19.0183 7.30475 23.918 13.6015 23.918C19.8983 23.918 25.0247 19.0183 25.0247 13C25.0247 6.98169 19.8983 2.08203 13.6015 2.08203ZM0 13C0 5.83182 6.10167 0 13.6015 0C21.1014 0 27.2031 5.83182 27.2031 13C27.2031 20.1682 21.1014 26 13.6015 26C6.10167 26 0 20.1682 0 13Z" fill="#BFBFBF"/>
<path d="M18.6725 16.1757C18.1897 15.7141 17.4068 15.7143 16.9239 16.1757C16.2412 16.8283 15.3988 17.2373 14.5158 17.4035C14.5103 17.4045 14.5048 17.4059 14.4993 17.4069C14.4299 17.4197 14.3604 17.4307 14.2907 17.4405C14.2858 17.4412 14.2812 17.4422 14.2763 17.4428C14.2593 17.4452 14.2422 17.4465 14.2253 17.4486C14.0182 17.4749 13.8099 17.4889 13.6014 17.4889C13.2762 17.4889 12.9511 17.4558 12.6315 17.3919C12.5163 17.3688 12.4016 17.3422 12.288 17.3108C12.2797 17.3086 12.2712 17.3067 12.2628 17.3043C12.2055 17.2881 12.1487 17.27 12.0919 17.2517C12.0767 17.2468 12.0613 17.2427 12.0461 17.2376C11.472 17.0461 10.9292 16.7452 10.4539 16.3348C10.3944 16.2835 10.336 16.2305 10.2788 16.1757C9.796 15.7142 9.013 15.7142 8.53015 16.1757C8.04724 16.6372 8.04724 17.3855 8.53015 17.8471C9.92845 19.1835 11.7645 19.8515 13.6014 19.8515C15.4377 19.8515 17.2747 19.1832 18.6727 17.8471C19.1554 17.3855 19.1554 16.6373 18.6725 16.1757Z" fill="#BFBFBF"/>
<path d="M18.8772 8.90332C18.4436 8.90332 18.0182 9.07115 17.7116 9.36502C17.4049 9.65813 17.2285 10.0639 17.2285 10.4791C17.2285 10.8942 17.4049 11.3 17.7116 11.5932C18.0183 11.8871 18.4436 12.0548 18.8772 12.0548C19.3116 12.0548 19.7361 11.887 20.0428 11.5932C20.3495 11.3001 20.5258 10.8944 20.5258 10.4791C20.5258 10.0639 20.3494 9.65808 20.0428 9.36502C19.7361 9.07115 19.3116 8.90332 18.8772 8.90332Z" fill="#BFBFBF"/>
<path d="M9.49198 11.5937C9.7987 11.3006 9.97505 10.8941 9.97505 10.4796C9.97505 10.0651 9.79865 9.65857 9.49198 9.36551C9.18531 9.07164 8.75999 8.90381 8.32639 8.90381C7.89188 8.90381 7.46742 9.07164 7.1608 9.36551C6.85333 9.65862 6.67773 10.0651 6.67773 10.4796C6.67773 10.894 6.85333 11.3005 7.1608 11.5937C7.46747 11.8875 7.89188 12.0553 8.32639 12.0553C8.75999 12.0553 9.18536 11.8875 9.49198 11.5937Z" fill="#BFBFBF"/>
<path d="M12.0469 17.2373C12.0618 17.2423 12.0769 17.2465 12.0918 17.2514C12.0769 17.2464 12.0618 17.2423 12.0469 17.2373Z" fill="#BFBFBF"/>
<path d="M12.6318 17.3916C12.9514 17.4556 13.2765 17.4886 13.6017 17.4886C13.2765 17.4886 12.9514 17.4556 12.6318 17.3916Z" fill="#BFBFBF"/>
<path d="M12.2637 17.3042C12.2721 17.3066 12.2806 17.3084 12.2889 17.3106C12.2806 17.3084 12.272 17.3065 12.2637 17.3042Z" fill="#BFBFBF"/>
<path d="M14.5 17.4068C14.5053 17.4058 14.5106 17.4043 14.5158 17.4033C14.5105 17.4043 14.5053 17.4058 14.5 17.4068Z" fill="#BFBFBF"/>
<path d="M14.2254 17.4487C14.0184 17.475 13.81 17.4891 13.6016 17.4891C13.81 17.4891 14.0184 17.475 14.2254 17.4487Z" fill="#BFBFBF"/>
<path d="M14.2773 17.4427C14.282 17.4421 14.2865 17.441 14.2912 17.4404C14.2865 17.4411 14.2819 17.442 14.2773 17.4427Z" fill="#BFBFBF"/>
</svg>
