<svg width="18" height="22" viewBox="0 0 18 22" fill="none" xmlns="http://www.w3.org/2000/svg">
<path fill-rule="evenodd" clip-rule="evenodd" d="M2.25 0C1.00781 0 0 1.00977 0 2.25586V15.7949C0 17.041 1.00781 18.0508 2.25 18.0508H14.0625L18 22V18.0508V12.9746V2.25586C18 1.00977 16.9922 0 15.75 0H2.25ZM14.8516 13.4902C15.1367 13.3652 15.2656 13.0312 15.1406 12.7461C15.0156 12.4609 14.6836 12.332 14.3984 12.459C12.2305 13.418 10.6328 13.9141 9.11719 13.9375C7.61719 13.9609 6.13281 13.5195 4.20312 12.4785C3.92969 12.3301 3.58984 12.4336 3.44141 12.707C3.29688 12.9805 3.39844 13.3242 3.67188 13.4707C5.69531 14.5645 7.375 15.0918 9.13281 15.0664C10.8828 15.0391 12.6484 14.4668 14.8516 13.4902Z" fill="white"/>
</svg>
