<svg width="14" height="13" viewBox="0 0 14 13" fill="none" xmlns="http://www.w3.org/2000/svg">
<rect width="14" height="12.9547" fill="black" fill-opacity="0"/>
<rect width="2.46252" height="2.46252" fill="black" fill-opacity="0" transform="translate(4.63867 10.4922)"/>
<rect width="2.46252" height="2.46252" fill="black" fill-opacity="0" transform="translate(4.63867 10.4922)"/>
<path d="M5.86993 10.4922C5.19102 10.4922 4.63867 11.0445 4.63867 11.7234C4.63867 12.4024 5.19102 12.9547 5.86993 12.9547C6.54885 12.9547 7.1012 12.4024 7.1012 11.7234C7.10117 11.0445 6.54883 10.4922 5.86993 10.4922ZM5.86993 12.2672C5.57008 12.2672 5.32615 12.0232 5.32615 11.7234C5.32615 11.4235 5.57011 11.1796 5.86993 11.1796C6.16976 11.1796 6.41372 11.4236 6.41372 11.7234C6.41372 12.0233 6.16976 12.2672 5.86993 12.2672Z" fill="white"/>
<rect width="2.46252" height="2.46252" fill="black" fill-opacity="0" transform="translate(8.95801 10.4922)"/>
<rect width="2.46252" height="2.46252" fill="black" fill-opacity="0" transform="translate(8.95801 10.4922)"/>
<path d="M10.1893 10.4922C9.51035 10.4922 8.95801 11.0445 8.95801 11.7234C8.95801 12.4024 9.51035 12.9547 10.1893 12.9547C10.8682 12.9547 11.4205 12.4024 11.4205 11.7234C11.4205 11.0445 10.8682 10.4922 10.1893 10.4922ZM10.1893 12.2672C9.88942 12.2672 9.64548 12.0232 9.64548 11.7234C9.64548 11.4235 9.88945 11.1796 10.1893 11.1796C10.4891 11.1796 10.7331 11.4236 10.7331 11.7234C10.7331 12.0233 10.4891 12.2672 10.1893 12.2672Z" fill="white"/>
<rect width="5.61343" height="0.687477" fill="black" fill-opacity="0" transform="translate(5.22266 4.01367)"/>
<rect width="5.61343" height="0.687477" fill="black" fill-opacity="0" transform="translate(5.22266 4.01367)"/>
<path d="M10.4923 4.01367H5.56639C5.37655 4.01367 5.22266 4.16756 5.22266 4.35741C5.22266 4.54726 5.37657 4.70115 5.56639 4.70115H10.4923C10.6822 4.70115 10.8361 4.54726 10.8361 4.35741C10.8361 4.16754 10.6822 4.01367 10.4923 4.01367Z" fill="white"/>
<rect width="5.07716" height="0.687477" fill="black" fill-opacity="0" transform="translate(5.49023 5.79883)"/>
<rect width="5.07716" height="0.687477" fill="black" fill-opacity="0" transform="translate(5.49023 5.79883)"/>
<path d="M10.2237 5.79883H5.83397C5.64413 5.79883 5.49023 5.95272 5.49023 6.14257C5.49023 6.33241 5.64413 6.48631 5.83397 6.48631H10.2237C10.4135 6.48631 10.5674 6.33241 10.5674 6.14257C10.5674 5.95275 10.4135 5.79883 10.2237 5.79883Z" fill="white"/>
<rect width="14" height="9.93632" fill="black" fill-opacity="0"/>
<rect width="14" height="9.93632" fill="black" fill-opacity="0"/>
<path d="M13.8453 2.47817C13.7142 2.31728 13.5199 2.22502 13.3124 2.22502H2.60527L2.38904 1.17532C2.34389 0.956349 2.19454 0.772489 1.98944 0.683431L0.480688 0.0285475C0.306509 -0.0471127 0.104083 0.0328131 0.0285319 0.206938C-0.047101 0.381118 0.0328248 0.583571 0.206923 0.659122L1.7157 1.31403L3.37891 9.38758C3.44443 9.70553 3.7276 9.93632 4.05225 9.93632H12.2873C12.4771 9.93632 12.631 9.78243 12.631 9.59258C12.631 9.40273 12.4771 9.24884 12.2873 9.24884H4.05228L3.84996 8.26676H12.3509C12.6755 8.26676 12.9587 8.03598 13.0242 7.71802L13.9857 3.05113C14.0276 2.84791 13.9764 2.63903 13.8453 2.47817ZM12.3509 7.57934H3.70835L2.74691 2.91247L13.3124 2.91249L12.3509 7.57934Z" fill="white"/>
</svg>
