<svg width="242" height="136" viewBox="0 0 242 136" fill="none" xmlns="http://www.w3.org/2000/svg">
<rect x="0.5" y="0.5" width="241" height="135" stroke="#A0A0A0" stroke-dasharray="8 8"/>
<rect x="33.5" y="28.5391" width="177" height="33" rx="16.5" fill="#237BEF" stroke="#237BEF"/>
<path d="M75.5303 40.0859V46.8535C75.5257 47.7923 75.2295 48.5602 74.6416 49.1572C74.0583 49.7542 73.2653 50.0892 72.2627 50.1621L71.9141 50.1758C70.8249 50.1758 69.9567 49.8818 69.3096 49.2939C68.6624 48.7061 68.3343 47.8971 68.3252 46.8672V40.0859H69.624V46.8262C69.624 47.5462 69.8223 48.1068 70.2188 48.5078C70.6152 48.9043 71.1803 49.1025 71.9141 49.1025C72.6569 49.1025 73.2243 48.9043 73.6162 48.5078C74.0127 48.1113 74.2109 47.5531 74.2109 46.833V40.0859H75.5303ZM83.6514 46.4229C83.6514 47.5485 83.3939 48.4554 82.8789 49.1436C82.3639 49.8317 81.6667 50.1758 80.7871 50.1758C79.8893 50.1758 79.1829 49.891 78.668 49.3213V52.8828H77.4033V42.6426H78.5586L78.6201 43.4629C79.1351 42.8249 79.8506 42.5059 80.7666 42.5059C81.6553 42.5059 82.3571 42.8408 82.8721 43.5107C83.3916 44.1807 83.6514 45.1126 83.6514 46.3066V46.4229ZM82.3867 46.2793C82.3867 45.4453 82.209 44.7868 81.8535 44.3037C81.498 43.8206 81.0104 43.5791 80.3906 43.5791C79.625 43.5791 79.0508 43.9186 78.668 44.5977V48.1318C79.0462 48.8063 79.625 49.1436 80.4043 49.1436C81.0104 49.1436 81.4912 48.9043 81.8467 48.4258C82.2067 47.9427 82.3867 47.2272 82.3867 46.2793ZM86.6387 50.0391H85.374V39.5391H86.6387V50.0391ZM88.334 46.2725C88.334 45.5479 88.4753 44.8962 88.7578 44.3174C89.0449 43.7386 89.4414 43.292 89.9473 42.9775C90.4577 42.6631 91.0387 42.5059 91.6904 42.5059C92.6976 42.5059 93.5111 42.8545 94.1309 43.5518C94.7552 44.249 95.0674 45.1764 95.0674 46.334V46.4229C95.0674 47.1429 94.9284 47.79 94.6504 48.3643C94.377 48.9339 93.9827 49.3783 93.4678 49.6973C92.9574 50.0163 92.3695 50.1758 91.7041 50.1758C90.7015 50.1758 89.888 49.8271 89.2637 49.1299C88.6439 48.4326 88.334 47.5098 88.334 46.3613V46.2725ZM89.6055 46.4229C89.6055 47.2432 89.7946 47.9017 90.1729 48.3984C90.5557 48.8952 91.0661 49.1436 91.7041 49.1436C92.3467 49.1436 92.8571 48.8929 93.2354 48.3916C93.6136 47.8857 93.8027 47.1794 93.8027 46.2725C93.8027 45.4613 93.609 44.805 93.2217 44.3037C92.8389 43.7979 92.3285 43.5449 91.6904 43.5449C91.0661 43.5449 90.5625 43.7933 90.1797 44.29C89.7969 44.7868 89.6055 45.4977 89.6055 46.4229ZM101.22 50.0391C101.147 49.8932 101.088 49.6335 101.042 49.2598C100.454 49.8704 99.7523 50.1758 98.9365 50.1758C98.2074 50.1758 97.6081 49.9707 97.1387 49.5605C96.6738 49.1458 96.4414 48.6217 96.4414 47.9883C96.4414 47.2181 96.7331 46.6211 97.3164 46.1973C97.9043 45.7689 98.7292 45.5547 99.791 45.5547H101.021V44.9736C101.021 44.5316 100.889 44.1807 100.625 43.9209C100.361 43.6566 99.971 43.5244 99.4561 43.5244C99.0049 43.5244 98.6266 43.6383 98.3213 43.8662C98.016 44.0941 97.8633 44.3698 97.8633 44.6934H96.5918C96.5918 44.3242 96.7217 43.9688 96.9814 43.627C97.2458 43.2806 97.6012 43.0072 98.0479 42.8066C98.499 42.6061 98.9935 42.5059 99.5312 42.5059C100.383 42.5059 101.051 42.7201 101.534 43.1484C102.017 43.5723 102.268 44.1579 102.286 44.9053V48.3096C102.286 48.9886 102.373 49.5286 102.546 49.9297V50.0391H101.22ZM99.1211 49.0752C99.5176 49.0752 99.8936 48.9727 100.249 48.7676C100.604 48.5625 100.862 48.2959 101.021 47.9678V46.4502H100.03C98.4808 46.4502 97.7061 46.9036 97.7061 47.8105C97.7061 48.207 97.8382 48.5169 98.1025 48.7402C98.3669 48.9635 98.7064 49.0752 99.1211 49.0752ZM103.961 46.2793C103.961 45.1445 104.23 44.2331 104.768 43.5449C105.305 42.8522 106.009 42.5059 106.88 42.5059C107.746 42.5059 108.432 42.8021 108.938 43.3945V39.5391H110.202V50.0391H109.04L108.979 49.2461C108.473 49.8659 107.769 50.1758 106.866 50.1758C106.009 50.1758 105.31 49.8249 104.768 49.123C104.23 48.4212 103.961 47.5052 103.961 46.375V46.2793ZM105.226 46.4229C105.226 47.2614 105.399 47.9176 105.745 48.3916C106.091 48.8656 106.57 49.1025 107.181 49.1025C107.983 49.1025 108.568 48.7425 108.938 48.0225V44.625C108.559 43.9277 107.978 43.5791 107.194 43.5791C106.575 43.5791 106.091 43.8184 105.745 44.2969C105.399 44.7754 105.226 45.484 105.226 46.4229ZM115.336 46.2793C115.336 45.1445 115.605 44.2331 116.143 43.5449C116.68 42.8522 117.384 42.5059 118.255 42.5059C119.121 42.5059 119.807 42.8021 120.312 43.3945V39.5391H121.577V50.0391H120.415L120.354 49.2461C119.848 49.8659 119.144 50.1758 118.241 50.1758C117.384 50.1758 116.685 49.8249 116.143 49.123C115.605 48.4212 115.336 47.5052 115.336 46.375V46.2793ZM116.601 46.4229C116.601 47.2614 116.774 47.9176 117.12 48.3916C117.466 48.8656 117.945 49.1025 118.556 49.1025C119.358 49.1025 119.943 48.7425 120.312 48.0225V44.625C119.934 43.9277 119.353 43.5791 118.569 43.5791C117.95 43.5791 117.466 43.8184 117.12 44.2969C116.774 44.7754 116.601 45.484 116.601 46.4229ZM123.211 46.2725C123.211 45.5479 123.352 44.8962 123.635 44.3174C123.922 43.7386 124.318 43.292 124.824 42.9775C125.335 42.6631 125.916 42.5059 126.567 42.5059C127.575 42.5059 128.388 42.8545 129.008 43.5518C129.632 44.249 129.944 45.1764 129.944 46.334V46.4229C129.944 47.1429 129.805 47.79 129.527 48.3643C129.254 48.9339 128.86 49.3783 128.345 49.6973C127.834 50.0163 127.246 50.1758 126.581 50.1758C125.578 50.1758 124.765 49.8271 124.141 49.1299C123.521 48.4326 123.211 47.5098 123.211 46.3613V46.2725ZM124.482 46.4229C124.482 47.2432 124.672 47.9017 125.05 48.3984C125.433 48.8952 125.943 49.1436 126.581 49.1436C127.224 49.1436 127.734 48.8929 128.112 48.3916C128.491 47.8857 128.68 47.1794 128.68 46.2725C128.68 45.4613 128.486 44.805 128.099 44.3037C127.716 43.7979 127.205 43.5449 126.567 43.5449C125.943 43.5449 125.439 43.7933 125.057 44.29C124.674 44.7868 124.482 45.4977 124.482 46.4229ZM134.497 49.1436C134.948 49.1436 135.342 49.0068 135.68 48.7334C136.017 48.46 136.204 48.1182 136.24 47.708H137.437C137.414 48.1318 137.268 48.5352 136.999 48.918C136.73 49.3008 136.37 49.6061 135.919 49.834C135.472 50.0618 134.998 50.1758 134.497 50.1758C133.49 50.1758 132.688 49.8408 132.091 49.1709C131.498 48.4964 131.202 47.5758 131.202 46.4092V46.1973C131.202 45.4772 131.334 44.8369 131.599 44.2764C131.863 43.7158 132.241 43.2806 132.733 42.9707C133.23 42.6608 133.816 42.5059 134.49 42.5059C135.32 42.5059 136.008 42.7542 136.555 43.251C137.106 43.7477 137.4 44.3926 137.437 45.1855H136.24C136.204 44.707 136.021 44.3151 135.693 44.0098C135.37 43.6999 134.969 43.5449 134.49 43.5449C133.848 43.5449 133.349 43.7773 132.993 44.2422C132.642 44.7025 132.467 45.3701 132.467 46.2451V46.4844C132.467 47.3366 132.642 47.9928 132.993 48.4531C133.344 48.9134 133.845 49.1436 134.497 49.1436ZM143.425 49.3076C142.933 49.8864 142.21 50.1758 141.258 50.1758C140.469 50.1758 139.868 49.9479 139.453 49.4922C139.043 49.0319 138.836 48.3529 138.831 47.4551V42.6426H140.096V47.4209C140.096 48.542 140.551 49.1025 141.463 49.1025C142.429 49.1025 143.072 48.7425 143.391 48.0225V42.6426H144.655V50.0391H143.452L143.425 49.3076ZM147.772 42.6426L147.807 43.4629C148.349 42.8249 149.08 42.5059 150.001 42.5059C151.035 42.5059 151.74 42.9023 152.113 43.6953C152.359 43.3398 152.678 43.0527 153.07 42.834C153.467 42.6152 153.934 42.5059 154.472 42.5059C156.094 42.5059 156.919 43.3649 156.946 45.083V50.0391H155.682V45.1582C155.682 44.6296 155.561 44.2354 155.319 43.9756C155.078 43.7113 154.672 43.5791 154.103 43.5791C153.633 43.5791 153.243 43.7204 152.934 44.0029C152.624 44.2809 152.444 44.6569 152.394 45.1309V50.0391H151.122V45.1924C151.122 44.1169 150.596 43.5791 149.543 43.5791C148.714 43.5791 148.146 43.9323 147.841 44.6387V50.0391H146.576V42.6426H147.772ZM161.93 50.1758C160.927 50.1758 160.111 49.8477 159.482 49.1914C158.854 48.5306 158.539 47.6488 158.539 46.5459V46.3135C158.539 45.5798 158.678 44.9258 158.956 44.3516C159.239 43.7728 159.631 43.3216 160.132 42.998C160.638 42.6699 161.185 42.5059 161.772 42.5059C162.734 42.5059 163.481 42.8226 164.015 43.4561C164.548 44.0895 164.814 44.9964 164.814 46.1768V46.7031H159.804C159.822 47.4323 160.034 48.0225 160.439 48.4736C160.85 48.9202 161.369 49.1436 161.998 49.1436C162.445 49.1436 162.823 49.0524 163.133 48.8701C163.443 48.6878 163.714 48.4463 163.946 48.1455L164.719 48.7471C164.099 49.6995 163.169 50.1758 161.93 50.1758ZM161.772 43.5449C161.262 43.5449 160.834 43.7318 160.487 44.1055C160.141 44.4746 159.927 44.9941 159.845 45.6641H163.55V45.5684C163.513 44.9258 163.34 44.429 163.03 44.0781C162.72 43.7227 162.301 43.5449 161.772 43.5449ZM167.48 42.6426L167.521 43.5723C168.087 42.8613 168.825 42.5059 169.736 42.5059C171.299 42.5059 172.088 43.3877 172.102 45.1514V50.0391H170.837V45.1445C170.832 44.6113 170.709 44.2171 170.468 43.9619C170.231 43.7067 169.859 43.5791 169.354 43.5791C168.943 43.5791 168.583 43.6885 168.273 43.9072C167.964 44.126 167.722 44.4131 167.549 44.7686V50.0391H166.284V42.6426H167.48ZM175.725 40.8516V42.6426H177.105V43.6201H175.725V48.207C175.725 48.5033 175.786 48.7266 175.909 48.877C176.032 49.0228 176.242 49.0957 176.538 49.0957C176.684 49.0957 176.884 49.0684 177.14 49.0137V50.0391C176.807 50.1302 176.483 50.1758 176.169 50.1758C175.604 50.1758 175.178 50.0049 174.891 49.6631C174.604 49.3213 174.46 48.8359 174.46 48.207V43.6201H173.113V42.6426H174.46V40.8516H175.725Z" fill="white"/>
<path d="M92.9707 101.66V108.732C92.9707 109.951 92.418 110.561 91.3125 110.561C91.0742 110.561 90.8535 110.525 90.6504 110.455V109.588C90.7754 109.619 90.9395 109.635 91.1426 109.635C91.3848 109.635 91.5684 109.568 91.6934 109.436C91.8223 109.307 91.8867 109.08 91.8867 108.756V101.66H92.9707ZM91.7754 99.9785C91.7754 99.8066 91.8281 99.6602 91.9336 99.5391C92.043 99.4141 92.2012 99.3516 92.4082 99.3516C92.6191 99.3516 92.7793 99.4121 92.8887 99.5332C92.998 99.6543 93.0527 99.8027 93.0527 99.9785C93.0527 100.154 92.998 100.301 92.8887 100.418C92.7793 100.535 92.6191 100.594 92.4082 100.594C92.1973 100.594 92.0391 100.535 91.9336 100.418C91.8281 100.301 91.7754 100.154 91.7754 99.9785ZM100.078 104.9C100.078 105.865 99.8574 106.643 99.416 107.232C98.9746 107.822 98.377 108.117 97.623 108.117C96.8535 108.117 96.248 107.873 95.8066 107.385V110.438H94.7227V101.66H95.7129L95.7656 102.363C96.207 101.816 96.8203 101.543 97.6055 101.543C98.3672 101.543 98.9688 101.83 99.4102 102.404C99.8555 102.979 100.078 103.777 100.078 104.801V104.9ZM98.9941 104.777C98.9941 104.062 98.8418 103.498 98.5371 103.084C98.2324 102.67 97.8145 102.463 97.2832 102.463C96.627 102.463 96.1348 102.754 95.8066 103.336V106.365C96.1309 106.943 96.627 107.232 97.2949 107.232C97.8145 107.232 98.2266 107.027 98.5312 106.617C98.8398 106.203 98.9941 105.59 98.9941 104.777ZM101.203 104.777C101.203 103.789 101.432 103.004 101.889 102.422C102.346 101.836 102.951 101.543 103.705 101.543C104.479 101.543 105.082 101.816 105.516 102.363L105.568 101.66H106.559V107.848C106.559 108.668 106.314 109.314 105.826 109.787C105.342 110.26 104.689 110.496 103.869 110.496C103.412 110.496 102.965 110.398 102.527 110.203C102.09 110.008 101.756 109.74 101.525 109.4L102.088 108.75C102.553 109.324 103.121 109.611 103.793 109.611C104.32 109.611 104.73 109.463 105.023 109.166C105.32 108.869 105.469 108.451 105.469 107.912V107.367C105.035 107.867 104.443 108.117 103.693 108.117C102.951 108.117 102.35 107.818 101.889 107.221C101.432 106.623 101.203 105.809 101.203 104.777ZM102.293 104.9C102.293 105.615 102.439 106.178 102.732 106.588C103.025 106.994 103.436 107.197 103.963 107.197C104.646 107.197 105.148 106.887 105.469 106.266V103.371C105.137 102.766 104.639 102.463 103.975 102.463C103.447 102.463 103.035 102.668 102.738 103.078C102.441 103.488 102.293 104.096 102.293 104.9ZM108.164 109.699L107.549 109.277C107.916 108.766 108.107 108.238 108.123 107.695V106.717H109.184V107.566C109.184 107.961 109.086 108.355 108.891 108.75C108.699 109.145 108.457 109.461 108.164 109.699ZM118.887 104.9C118.887 105.865 118.666 106.643 118.225 107.232C117.783 107.822 117.186 108.117 116.432 108.117C115.662 108.117 115.057 107.873 114.615 107.385V110.438H113.531V101.66H114.521L114.574 102.363C115.016 101.816 115.629 101.543 116.414 101.543C117.176 101.543 117.777 101.83 118.219 102.404C118.664 102.979 118.887 103.777 118.887 104.801V104.9ZM117.803 104.777C117.803 104.062 117.65 103.498 117.346 103.084C117.041 102.67 116.623 102.463 116.092 102.463C115.436 102.463 114.943 102.754 114.615 103.336V106.365C114.939 106.943 115.436 107.232 116.104 107.232C116.623 107.232 117.035 107.027 117.34 106.617C117.648 106.203 117.803 105.59 117.803 104.777ZM121.295 101.66L121.33 102.457C121.814 101.848 122.447 101.543 123.229 101.543C124.568 101.543 125.244 102.299 125.256 103.811V108H124.172V103.805C124.168 103.348 124.062 103.01 123.855 102.791C123.652 102.572 123.334 102.463 122.9 102.463C122.549 102.463 122.24 102.557 121.975 102.744C121.709 102.932 121.502 103.178 121.354 103.482V108H120.27V101.66H121.295ZM126.633 104.777C126.633 103.789 126.861 103.004 127.318 102.422C127.775 101.836 128.381 101.543 129.135 101.543C129.908 101.543 130.512 101.816 130.945 102.363L130.998 101.66H131.988V107.848C131.988 108.668 131.744 109.314 131.256 109.787C130.771 110.26 130.119 110.496 129.299 110.496C128.842 110.496 128.395 110.398 127.957 110.203C127.52 110.008 127.186 109.74 126.955 109.4L127.518 108.75C127.982 109.324 128.551 109.611 129.223 109.611C129.75 109.611 130.16 109.463 130.453 109.166C130.75 108.869 130.898 108.451 130.898 107.912V107.367C130.465 107.867 129.873 108.117 129.123 108.117C128.381 108.117 127.779 107.818 127.318 107.221C126.861 106.623 126.633 105.809 126.633 104.777ZM127.723 104.9C127.723 105.615 127.869 106.178 128.162 106.588C128.455 106.994 128.865 107.197 129.393 107.197C130.076 107.197 130.578 106.887 130.898 106.266V103.371C130.566 102.766 130.068 102.463 129.404 102.463C128.877 102.463 128.465 102.668 128.168 103.078C127.871 103.488 127.723 104.096 127.723 104.9ZM133.594 109.699L132.979 109.277C133.346 108.766 133.537 108.238 133.553 107.695V106.717H134.613V107.566C134.613 107.961 134.516 108.355 134.32 108.75C134.129 109.145 133.887 109.461 133.594 109.699ZM138.703 104.777C138.703 103.789 138.932 103.004 139.389 102.422C139.846 101.836 140.451 101.543 141.205 101.543C141.979 101.543 142.582 101.816 143.016 102.363L143.068 101.66H144.059V107.848C144.059 108.668 143.814 109.314 143.326 109.787C142.842 110.26 142.189 110.496 141.369 110.496C140.912 110.496 140.465 110.398 140.027 110.203C139.59 110.008 139.256 109.74 139.025 109.4L139.588 108.75C140.053 109.324 140.621 109.611 141.293 109.611C141.82 109.611 142.23 109.463 142.523 109.166C142.82 108.869 142.969 108.451 142.969 107.912V107.367C142.535 107.867 141.943 108.117 141.193 108.117C140.451 108.117 139.85 107.818 139.389 107.221C138.932 106.623 138.703 105.809 138.703 104.777ZM139.793 104.9C139.793 105.615 139.939 106.178 140.232 106.588C140.525 106.994 140.936 107.197 141.463 107.197C142.146 107.197 142.648 106.887 142.969 106.266V103.371C142.637 102.766 142.139 102.463 141.475 102.463C140.947 102.463 140.535 102.668 140.238 103.078C139.941 103.488 139.793 104.096 139.793 104.9ZM146.877 108H145.793V101.66H146.877V108ZM145.705 99.9785C145.705 99.8027 145.758 99.6543 145.863 99.5332C145.973 99.4121 146.133 99.3516 146.344 99.3516C146.555 99.3516 146.715 99.4121 146.824 99.5332C146.934 99.6543 146.988 99.8027 146.988 99.9785C146.988 100.154 146.934 100.301 146.824 100.418C146.715 100.535 146.555 100.594 146.344 100.594C146.133 100.594 145.973 100.535 145.863 100.418C145.758 100.301 145.705 100.154 145.705 99.9785ZM149.15 108V102.498H148.148V101.66H149.15V101.01C149.15 100.33 149.332 99.8047 149.695 99.4336C150.059 99.0625 150.572 98.877 151.236 98.877C151.486 98.877 151.734 98.9102 151.98 98.9766L151.922 99.8555C151.738 99.8203 151.543 99.8027 151.336 99.8027C150.984 99.8027 150.713 99.9062 150.521 100.113C150.33 100.316 150.234 100.609 150.234 100.992V101.66H151.588V102.498H150.234V108H149.15Z" fill="#A0A0A0"/>
<path d="M56.8965 85.1973C55.9316 84.9199 55.2285 84.5801 54.7871 84.1777C54.3496 83.7715 54.1309 83.2715 54.1309 82.6777C54.1309 82.0059 54.3984 81.4512 54.9336 81.0137C55.4727 80.5723 56.1719 80.3516 57.0312 80.3516C57.6172 80.3516 58.1387 80.4648 58.5957 80.6914C59.0566 80.918 59.4121 81.2305 59.6621 81.6289C59.916 82.0273 60.043 82.4629 60.043 82.9355H58.9121C58.9121 82.4199 58.748 82.0156 58.4199 81.7227C58.0918 81.4258 57.6289 81.2773 57.0312 81.2773C56.4766 81.2773 56.043 81.4004 55.7305 81.6465C55.4219 81.8887 55.2676 82.2266 55.2676 82.6602C55.2676 83.0078 55.4141 83.3027 55.707 83.5449C56.0039 83.7832 56.5059 84.002 57.2129 84.2012C57.9238 84.4004 58.4785 84.6211 58.877 84.8633C59.2793 85.1016 59.5762 85.3809 59.7676 85.7012C59.9629 86.0215 60.0605 86.3984 60.0605 86.832C60.0605 87.5234 59.791 88.0781 59.252 88.4961C58.7129 88.9102 57.9922 89.1172 57.0898 89.1172C56.5039 89.1172 55.957 89.0059 55.4492 88.7832C54.9414 88.5566 54.5488 88.248 54.2715 87.8574C53.998 87.4668 53.8613 87.0234 53.8613 86.5273H54.9922C54.9922 87.043 55.1816 87.4512 55.5605 87.752C55.9434 88.0488 56.4531 88.1973 57.0898 88.1973C57.6836 88.1973 58.1387 88.0762 58.4551 87.834C58.7715 87.5918 58.9297 87.2617 58.9297 86.8438C58.9297 86.4258 58.7832 86.1035 58.4902 85.877C58.1973 85.6465 57.666 85.4199 56.8965 85.1973ZM62.4219 83.4277C62.9023 82.8379 63.5273 82.543 64.2969 82.543C65.6367 82.543 66.3125 83.2988 66.3242 84.8105V89H65.2402V84.8047C65.2363 84.3477 65.1309 84.0098 64.9238 83.791C64.7207 83.5723 64.4023 83.4629 63.9688 83.4629C63.6172 83.4629 63.3086 83.5566 63.043 83.7441C62.7773 83.9316 62.5703 84.1777 62.4219 84.4824V89H61.3379V80H62.4219V83.4277ZM67.6602 85.7715C67.6602 85.1504 67.7812 84.5918 68.0234 84.0957C68.2695 83.5996 68.6094 83.2168 69.043 82.9473C69.4805 82.6777 69.9785 82.543 70.5371 82.543C71.4004 82.543 72.0977 82.8418 72.6289 83.4395C73.1641 84.0371 73.4316 84.832 73.4316 85.8242V85.9004C73.4316 86.5176 73.3125 87.0723 73.0742 87.5645C72.8398 88.0527 72.502 88.4336 72.0605 88.707C71.623 88.9805 71.1191 89.1172 70.5488 89.1172C69.6895 89.1172 68.9922 88.8184 68.457 88.2207C67.9258 87.623 67.6602 86.832 67.6602 85.8477V85.7715ZM68.75 85.9004C68.75 86.6035 68.9121 87.168 69.2363 87.5938C69.5645 88.0195 70.002 88.2324 70.5488 88.2324C71.0996 88.2324 71.5371 88.0176 71.8613 87.5879C72.1855 87.1543 72.3477 86.5488 72.3477 85.7715C72.3477 85.0762 72.1816 84.5137 71.8496 84.084C71.5215 83.6504 71.084 83.4336 70.5371 83.4336C70.002 83.4336 69.5703 83.6465 69.2422 84.0723C68.9141 84.498 68.75 85.1074 68.75 85.9004ZM78.7051 88.373C78.2832 88.8691 77.6641 89.1172 76.8477 89.1172C76.1719 89.1172 75.6562 88.9219 75.3008 88.5312C74.9492 88.1367 74.7715 87.5547 74.7676 86.7852V82.6602H75.8516V86.7559C75.8516 87.7168 76.2422 88.1973 77.0234 88.1973C77.8516 88.1973 78.4023 87.8887 78.6758 87.2715V82.6602H79.7598V89H78.7285L78.7051 88.373ZM82.5898 89H81.5059V80H82.5898V89ZM84.0664 85.7773C84.0664 84.8047 84.2969 84.0234 84.7578 83.4336C85.2188 82.8398 85.8223 82.543 86.5684 82.543C87.3105 82.543 87.8984 82.7969 88.332 83.3047V80H89.416V89H88.4199L88.3672 88.3203C87.9336 88.8516 87.3301 89.1172 86.5566 89.1172C85.8223 89.1172 85.2227 88.8164 84.7578 88.2148C84.2969 87.6133 84.0664 86.8281 84.0664 85.8594V85.7773ZM85.1504 85.9004C85.1504 86.6191 85.2988 87.1816 85.5957 87.5879C85.8926 87.9941 86.3027 88.1973 86.8262 88.1973C87.5137 88.1973 88.0156 87.8887 88.332 87.2715V84.3594C88.0078 83.7617 87.5098 83.4629 86.8379 83.4629C86.3066 83.4629 85.8926 83.668 85.5957 84.0781C85.2988 84.4883 85.1504 85.0957 85.1504 85.9004ZM99.4473 85.9004C99.4473 86.8691 99.2246 87.6484 98.7793 88.2383C98.334 88.8242 97.7363 89.1172 96.9863 89.1172C96.1855 89.1172 95.5664 88.834 95.1289 88.2676L95.0762 89H94.0801V80H95.1641V83.3574C95.6016 82.8145 96.2051 82.543 96.9746 82.543C97.7441 82.543 98.3477 82.834 98.7852 83.416C99.2266 83.998 99.4473 84.7949 99.4473 85.8066V85.9004ZM98.3633 85.7773C98.3633 85.0391 98.2207 84.4688 97.9355 84.0664C97.6504 83.6641 97.2402 83.4629 96.7051 83.4629C95.9902 83.4629 95.4766 83.7949 95.1641 84.459V87.2012C95.4961 87.8652 96.0137 88.1973 96.7168 88.1973C97.2363 88.1973 97.6406 87.9961 97.9297 87.5938C98.2188 87.1914 98.3633 86.5859 98.3633 85.7773ZM103.449 89.1172C102.59 89.1172 101.891 88.8359 101.352 88.2734C100.812 87.707 100.543 86.9512 100.543 86.0059V85.8066C100.543 85.1777 100.662 84.6172 100.9 84.125C101.143 83.6289 101.479 83.2422 101.908 82.9648C102.342 82.6836 102.811 82.543 103.314 82.543C104.139 82.543 104.779 82.8145 105.236 83.3574C105.693 83.9004 105.922 84.6777 105.922 85.6895V86.1406H101.627C101.643 86.7656 101.824 87.2715 102.172 87.6582C102.523 88.041 102.969 88.2324 103.508 88.2324C103.891 88.2324 104.215 88.1543 104.48 87.998C104.746 87.8418 104.979 87.6348 105.178 87.377L105.84 87.8926C105.309 88.709 104.512 89.1172 103.449 89.1172ZM103.314 83.4336C102.877 83.4336 102.51 83.5938 102.213 83.9141C101.916 84.2305 101.732 84.6758 101.662 85.25H104.838V85.168C104.807 84.6172 104.658 84.1914 104.393 83.8906C104.127 83.5859 103.768 83.4336 103.314 83.4336ZM111.336 89H110.252V80H111.336V89ZM115.707 89.1172C114.848 89.1172 114.148 88.8359 113.609 88.2734C113.07 87.707 112.801 86.9512 112.801 86.0059V85.8066C112.801 85.1777 112.92 84.6172 113.158 84.125C113.4 83.6289 113.736 83.2422 114.166 82.9648C114.6 82.6836 115.068 82.543 115.572 82.543C116.396 82.543 117.037 82.8145 117.494 83.3574C117.951 83.9004 118.18 84.6777 118.18 85.6895V86.1406H113.885C113.9 86.7656 114.082 87.2715 114.43 87.6582C114.781 88.041 115.227 88.2324 115.766 88.2324C116.148 88.2324 116.473 88.1543 116.738 87.998C117.004 87.8418 117.236 87.6348 117.436 87.377L118.098 87.8926C117.566 88.709 116.77 89.1172 115.707 89.1172ZM115.572 83.4336C115.135 83.4336 114.768 83.5938 114.471 83.9141C114.174 84.2305 113.99 84.6758 113.92 85.25H117.096V85.168C117.064 84.6172 116.916 84.1914 116.65 83.8906C116.385 83.5859 116.025 83.4336 115.572 83.4336ZM123.131 87.3184C123.131 87.0254 123.02 86.7988 122.797 86.6387C122.578 86.4746 122.193 86.334 121.643 86.2168C121.096 86.0996 120.66 85.959 120.336 85.7949C120.016 85.6309 119.777 85.4355 119.621 85.209C119.469 84.9824 119.393 84.7129 119.393 84.4004C119.393 83.8809 119.611 83.4414 120.049 83.082C120.49 82.7227 121.053 82.543 121.736 82.543C122.455 82.543 123.037 82.7285 123.482 83.0996C123.932 83.4707 124.156 83.9453 124.156 84.5234H123.066C123.066 84.2266 122.939 83.9707 122.686 83.7559C122.436 83.541 122.119 83.4336 121.736 83.4336C121.342 83.4336 121.033 83.5195 120.811 83.6914C120.588 83.8633 120.477 84.0879 120.477 84.3652C120.477 84.627 120.58 84.8242 120.787 84.957C120.994 85.0898 121.367 85.2168 121.906 85.3379C122.449 85.459 122.889 85.6035 123.225 85.7715C123.561 85.9395 123.809 86.1426 123.969 86.3809C124.133 86.6152 124.215 86.9023 124.215 87.2422C124.215 87.8086 123.988 88.2637 123.535 88.6074C123.082 88.9473 122.494 89.1172 121.771 89.1172C121.264 89.1172 120.814 89.0273 120.424 88.8477C120.033 88.668 119.727 88.418 119.504 88.0977C119.285 87.7734 119.176 87.4238 119.176 87.0488H120.26C120.279 87.4121 120.424 87.7012 120.693 87.916C120.967 88.127 121.326 88.2324 121.771 88.2324C122.182 88.2324 122.51 88.1504 122.756 87.9863C123.006 87.8184 123.131 87.5957 123.131 87.3184ZM129.318 87.3184C129.318 87.0254 129.207 86.7988 128.984 86.6387C128.766 86.4746 128.381 86.334 127.83 86.2168C127.283 86.0996 126.848 85.959 126.523 85.7949C126.203 85.6309 125.965 85.4355 125.809 85.209C125.656 84.9824 125.58 84.7129 125.58 84.4004C125.58 83.8809 125.799 83.4414 126.236 83.082C126.678 82.7227 127.24 82.543 127.924 82.543C128.643 82.543 129.225 82.7285 129.67 83.0996C130.119 83.4707 130.344 83.9453 130.344 84.5234H129.254C129.254 84.2266 129.127 83.9707 128.873 83.7559C128.623 83.541 128.307 83.4336 127.924 83.4336C127.529 83.4336 127.221 83.5195 126.998 83.6914C126.775 83.8633 126.664 84.0879 126.664 84.3652C126.664 84.627 126.768 84.8242 126.975 84.957C127.182 85.0898 127.555 85.2168 128.094 85.3379C128.637 85.459 129.076 85.6035 129.412 85.7715C129.748 85.9395 129.996 86.1426 130.156 86.3809C130.32 86.6152 130.402 86.9023 130.402 87.2422C130.402 87.8086 130.176 88.2637 129.723 88.6074C129.27 88.9473 128.682 89.1172 127.959 89.1172C127.451 89.1172 127.002 89.0273 126.611 88.8477C126.221 88.668 125.914 88.418 125.691 88.0977C125.473 87.7734 125.363 87.4238 125.363 87.0488H126.447C126.467 87.4121 126.611 87.7012 126.881 87.916C127.154 88.127 127.514 88.2324 127.959 88.2324C128.369 88.2324 128.697 88.1504 128.943 87.9863C129.193 87.8184 129.318 87.5957 129.318 87.3184ZM136.262 81.125V82.6602H137.445V83.498H136.262V87.4297C136.262 87.6836 136.314 87.875 136.42 88.0039C136.525 88.1289 136.705 88.1914 136.959 88.1914C137.084 88.1914 137.256 88.168 137.475 88.1211V89C137.189 89.0781 136.912 89.1172 136.643 89.1172C136.158 89.1172 135.793 88.9707 135.547 88.6777C135.301 88.3848 135.178 87.9688 135.178 87.4297V83.498H134.023V82.6602H135.178V81.125H136.262ZM139.801 83.4277C140.281 82.8379 140.906 82.543 141.676 82.543C143.016 82.543 143.691 83.2988 143.703 84.8105V89H142.619V84.8047C142.615 84.3477 142.51 84.0098 142.303 83.791C142.1 83.5723 141.781 83.4629 141.348 83.4629C140.996 83.4629 140.688 83.5566 140.422 83.7441C140.156 83.9316 139.949 84.1777 139.801 84.4824V89H138.717V80H139.801V83.4277ZM149.24 89C149.178 88.875 149.127 88.6523 149.088 88.332C148.584 88.8555 147.982 89.1172 147.283 89.1172C146.658 89.1172 146.145 88.9414 145.742 88.5898C145.344 88.2344 145.145 87.7852 145.145 87.2422C145.145 86.582 145.395 86.0703 145.895 85.707C146.398 85.3398 147.105 85.1562 148.016 85.1562H149.07V84.6582C149.07 84.2793 148.957 83.9785 148.73 83.7559C148.504 83.5293 148.17 83.416 147.729 83.416C147.342 83.416 147.018 83.5137 146.756 83.709C146.494 83.9043 146.363 84.1406 146.363 84.418H145.273C145.273 84.1016 145.385 83.7969 145.607 83.5039C145.834 83.207 146.139 82.9727 146.521 82.8008C146.908 82.6289 147.332 82.543 147.793 82.543C148.523 82.543 149.096 82.7266 149.51 83.0938C149.924 83.457 150.139 83.959 150.154 84.5996V87.5176C150.154 88.0996 150.229 88.5625 150.377 88.9062V89H149.24ZM147.441 88.1738C147.781 88.1738 148.104 88.0859 148.408 87.9102C148.713 87.7344 148.934 87.5059 149.07 87.2246V85.9238H148.221C146.893 85.9238 146.229 86.3125 146.229 87.0898C146.229 87.4297 146.342 87.6953 146.568 87.8867C146.795 88.0781 147.086 88.1738 147.441 88.1738ZM152.879 82.6602L152.914 83.457C153.398 82.8477 154.031 82.543 154.812 82.543C156.152 82.543 156.828 83.2988 156.84 84.8105V89H155.756V84.8047C155.752 84.3477 155.646 84.0098 155.439 83.791C155.236 83.5723 154.918 83.4629 154.484 83.4629C154.133 83.4629 153.824 83.5566 153.559 83.7441C153.293 83.9316 153.086 84.1777 152.938 84.4824V89H151.854V82.6602H152.879ZM164.902 89H163.812V81.7754L161.627 82.5781V81.5938L164.732 80.4277H164.902V89ZM172.186 82.6602L172.215 83.3633C172.68 82.8164 173.307 82.543 174.096 82.543C174.982 82.543 175.586 82.8828 175.906 83.5625C176.117 83.2578 176.391 83.0117 176.727 82.8242C177.066 82.6367 177.467 82.543 177.928 82.543C179.318 82.543 180.025 83.2793 180.049 84.752V89H178.965V84.8164C178.965 84.3633 178.861 84.0254 178.654 83.8027C178.447 83.5762 178.1 83.4629 177.611 83.4629C177.209 83.4629 176.875 83.584 176.609 83.8262C176.344 84.0645 176.189 84.3867 176.146 84.793V89H175.057V84.8457C175.057 83.9238 174.605 83.4629 173.703 83.4629C172.992 83.4629 172.506 83.7656 172.244 84.3711V89H171.16V82.6602H172.186ZM187.057 85.9004C187.057 86.8691 186.834 87.6484 186.389 88.2383C185.943 88.8242 185.346 89.1172 184.596 89.1172C183.795 89.1172 183.176 88.834 182.738 88.2676L182.686 89H181.689V80H182.773V83.3574C183.211 82.8145 183.814 82.543 184.584 82.543C185.354 82.543 185.957 82.834 186.395 83.416C186.836 83.998 187.057 84.7949 187.057 85.8066V85.9004ZM185.973 85.7773C185.973 85.0391 185.83 84.4688 185.545 84.0664C185.26 83.6641 184.85 83.4629 184.314 83.4629C183.6 83.4629 183.086 83.7949 182.773 84.459V87.2012C183.105 87.8652 183.623 88.1973 184.326 88.1973C184.846 88.1973 185.25 87.9961 185.539 87.5938C185.828 87.1914 185.973 86.5859 185.973 85.7773Z" fill="#A0A0A0"/>
</svg>
