<svg width="14" height="14" viewBox="0 0 14 14" fill="none" xmlns="http://www.w3.org/2000/svg">
<path d="M13.7029 6.04571H13.3457V3.63429C13.3457 3.06857 12.9 2.62286 12.3629 2.62286H12.0943V1.01143C12.0943 0.445714 11.6771 0 11.1714 0C11.1714 0 11.1429 0 11.1114 0L0.922857 2.62C0.92 2.62 0.914286 2.62286 0.911429 2.62286C0.408571 2.66286 0 3.09429 0 3.63429V12.9886C0 13.5543 0.445714 14 0.982857 14H12.3629C12.9286 14 13.3743 13.5543 13.3743 12.9886V10.5143H13.7029C13.8829 10.5143 14 10.3943 14 10.2171V6.34571C14 6.16571 13.8514 6.04571 13.7029 6.04571ZM11.2286 0.565714C11.3771 0.594286 11.5257 0.774286 11.5257 1.01143V2.62H3.30571L11.2286 0.565714ZM12.78 12.9886C12.78 13.2257 12.6 13.4343 12.3629 13.4343H0.982857C0.745714 13.4343 0.565714 13.2257 0.565714 12.9886V3.63429C0.565714 3.39714 0.745714 3.18857 0.982857 3.18857H12.3314C12.5686 3.18857 12.7486 3.39714 12.7486 3.63429V6.04571H9.8C8.54857 6.04571 7.56571 7.02857 7.56571 8.28C7.56571 9.53143 8.57714 10.5143 9.8 10.5143H12.78V12.9886ZM13.4029 9.94857H9.8C8.90571 9.94857 8.16286 9.20286 8.16286 8.31143C8.16286 7.42 8.90857 6.67429 9.8 6.67429H13.4029V9.94857Z" fill="white"/>
<path d="M9.47168 8.34011C9.47168 8.52011 9.62025 8.63725 9.76882 8.63725H10.0374C10.186 8.63725 10.3345 8.51725 10.3345 8.34011C10.3345 8.16011 10.186 8.04297 10.0374 8.04297H9.77168C9.59168 8.04297 9.47168 8.16297 9.47168 8.34011Z" fill="white"/>
</svg>
