<svg  fill="none" height="14" viewBox="0 0 14 14" width="14" xmlns="http://www.w3.org/2000/svg"><path  d="M10.4993 0.00291293L8.68387 0C6.64426 0 5.32617 1.35233 5.32617 3.44542V5.03399H3.5008C3.34306 5.03399 3.21533 5.16187 3.21533 5.3196V7.62126C3.21533 7.77899 3.34321 7.90672 3.5008 7.90672H5.32617V13.7145C5.32617 13.8723 5.4539 14 5.61163 14H7.99322C8.15096 14 8.27869 13.8721 8.27869 13.7145V7.90672H10.413C10.5707 7.90672 10.6984 7.77899 10.6984 7.62126L10.6993 5.3196C10.6993 5.24386 10.6692 5.17133 10.6157 5.11773C10.5623 5.06414 10.4894 5.03399 10.4137 5.03399H8.27869V3.68734C8.27869 3.04008 8.43293 2.71151 9.27607 2.71151L10.4991 2.71107C10.6566 2.71107 10.7844 2.58319 10.7844 2.4256V0.288381C10.7844 0.130936 10.6568 0.00320423 10.4993 0.00291293Z" fill="#7E849A"></path></svg>