<svg  fill="none" height="14" viewBox="0 0 14 14" width="14" xmlns="http://www.w3.org/2000/svg"><path  d="M10.1364 0H3.86335C1.73307 0 -6.10352e-05 1.73321 -6.10352e-05 3.86349V10.1365C-6.10352e-05 12.2669 1.73307 14 3.86335 14H10.1364C12.2668 14 13.9999 12.2668 13.9999 10.1365V3.86349C14 1.73321 12.2668 0 10.1364 0ZM12.7579 10.1365C12.7579 11.582 11.5819 12.7579 10.1364 12.7579H3.86335C2.41799 12.7579 1.24209 11.582 1.24209 10.1365V3.86349C1.24209 2.41813 2.41799 1.24215 3.86335 1.24215H10.1364C11.5818 1.24215 12.7578 2.41813 12.7578 3.86349V10.1365H12.7579Z" fill="#7E849A"></path><path  d="M6.99996 3.39282C5.01079 3.39282 3.39252 5.01109 3.39252 7.00027C3.39252 8.98936 5.01079 10.6075 6.99996 10.6075C8.98914 10.6075 10.6074 8.98936 10.6074 7.00027C10.6074 5.01109 8.98914 3.39282 6.99996 3.39282ZM6.99996 9.36531C5.69579 9.36531 4.63467 8.30435 4.63467 7.00018C4.63467 5.69593 5.69571 4.63489 6.99996 4.63489C8.30422 4.63489 9.36526 5.69593 9.36526 7.00018C9.36526 8.30435 8.30414 9.36531 6.99996 9.36531Z" fill="#7E849A"></path><path  d="M10.7587 2.3396C10.5194 2.3396 10.2843 2.43649 10.1153 2.60625C9.94541 2.77518 9.84778 3.01036 9.84778 3.25051C9.84778 3.48991 9.94549 3.72501 10.1153 3.89477C10.2842 4.0637 10.5194 4.16142 10.7587 4.16142C10.9988 4.16142 11.2332 4.0637 11.4029 3.89477C11.5727 3.72501 11.6696 3.48983 11.6696 3.25051C11.6696 3.01036 11.5727 2.77518 11.4029 2.60625C11.234 2.43649 10.9988 2.3396 10.7587 2.3396Z" fill="#7E849A"></path></svg>