<svg  fill="none" height="14" viewBox="0 0 18 14" width="18" xmlns="http://www.w3.org/2000/svg"><path  d="M17.9999 2.05451H17.0067C16.7481 2.05451 16.0714 2.33545 16.0714 2.57461V11.2598C16.0714 11.4995 16.7481 11.6961 17.0067 11.6961H17.9999V13.6244H11.5713V11.6961H12.8574V2.69696H12.6336L9.53898 13.6244H7.14302L4.08846 2.69696H3.85711V11.6961H5.14258V13.6244H-6.10352e-05V11.6961H0.713191C0.993202 11.6961 1.28545 11.4995 1.28545 11.2597V2.57461C1.28545 2.33541 0.993239 2.05451 0.713191 2.05451H-6.10352e-05V0.125977H6.66466L8.84076 7.83927H8.89931L11.0969 0.125977H17.9999V2.05451Z" fill="#7E849A"></path></svg>