<svg  fill="none" height="14" viewBox="0 0 17 14" width="17" xmlns="http://www.w3.org/2000/svg"><path  d="M0.283953 6.71295L3.98902 8.0958L5.42311 12.7078C5.51487 13.0032 5.87608 13.1124 6.11582 12.9164L8.18109 11.2327C8.39758 11.0563 8.70593 11.0475 8.93217 11.2118L12.6572 13.9162C12.9136 14.1026 13.277 13.9621 13.3413 13.6522L16.0701 0.526311C16.1403 0.187781 15.8077 -0.0946306 15.4853 0.0300401L0.279611 5.89594C-0.0956338 6.04066 -0.0923643 6.57193 0.283953 6.71295ZM5.19199 7.35967L12.4331 2.89988C12.5632 2.81996 12.6971 2.99593 12.5854 3.09959L6.60936 8.65456C6.39931 8.85009 6.26381 9.11176 6.22543 9.39578L6.02186 10.9044C5.9949 11.1058 5.71196 11.1258 5.65637 10.9309L4.87346 8.17989C4.78379 7.86613 4.91446 7.53097 5.19199 7.35967Z" fill="#7E849A"></path></svg>