<svg  fill="none" height="17" viewBox="0 0 17 17" width="17" xmlns="http://www.w3.org/2000/svg"><g  clip-path="url(#clip0)"><path  d="M16.3373 3.54484C15.7237 2.81538 14.5907 2.51782 12.427 2.51782H4.57272C2.35948 2.51782 1.20732 2.83457 0.595981 3.6112C-6.10352e-05 4.36841 -6.10352e-05 5.4841 -6.10352e-05 7.02825V9.97139C-6.10352e-05 12.9629 0.707139 14.4818 4.57272 14.4818H12.427C14.3034 14.4818 15.3432 14.2192 16.0158 13.5754C16.7056 12.9153 16.9999 11.8374 16.9999 9.97139V7.02825C16.9999 5.39982 16.9538 4.27754 16.3373 3.54484ZM10.914 8.90615L7.34739 10.7702C7.26766 10.8119 7.18046 10.8325 7.09338 10.8325C6.99478 10.8325 6.8964 10.806 6.80926 10.7532C6.64518 10.6538 6.54499 10.476 6.54499 10.2841V6.56805C6.54499 6.37655 6.64491 6.19887 6.80866 6.09939C6.97246 5.99992 7.17619 5.99312 7.34613 6.08141L10.9127 7.93342C11.0942 8.02763 11.2081 8.21496 11.2084 8.41935C11.2086 8.62389 11.0952 8.8115 10.914 8.90615Z" fill="#7E849A"></path></g><defs ><clipPath  id="clip0"><rect  fill="white" height="17" width="17"></rect></clipPath></defs></svg>