<svg width="132" height="31" viewBox="0 0 132 31" fill="none" xmlns="http://www.w3.org/2000/svg">
<path d="M0.346912 18.9327C-0.115637 16.7067 -0.115637 14.5096 0.346912 12.2836C0.43364 12.2836 0.520368 12.2836 0.607096 12.2836C6.47569 12.2836 12.3732 12.2836 18.2418 12.2836C18.4152 12.2836 18.5309 12.3414 18.6465 12.457C19.6583 13.4399 20.6413 14.4229 21.6531 15.4058C21.8555 15.6081 21.8555 15.6371 21.6531 15.8394C20.6413 16.8223 19.6294 17.8342 18.6176 18.8171C18.5309 18.9038 18.4152 18.9327 18.2996 18.9327C12.4021 18.9327 6.47569 18.9327 0.578187 18.9327C0.520368 18.9327 0.43364 18.9327 0.346912 18.9327Z" fill="white"/>
<path d="M17.0566 30.959C15.5533 30.959 14.0789 30.7566 12.6334 30.323C12.1131 30.1785 11.824 29.7448 11.9685 29.2823C12.1131 28.8197 12.5756 28.5884 13.0671 28.733C14.6282 29.1666 16.2182 29.369 17.8371 29.2823C21.6243 29.051 24.8621 27.5477 27.4639 24.7724C29.343 22.7488 30.5283 20.3493 30.9331 17.6029C31.5112 13.6134 30.4994 10.0287 27.8976 6.93535C25.5559 4.13115 22.5494 2.51223 18.9357 2.02077C16.912 1.73167 14.9462 1.90513 12.9804 2.48332C12.6913 2.57004 12.4311 2.57004 12.1709 2.39659C11.8818 2.19422 11.7662 1.93404 11.7951 1.58713C11.8529 1.24021 12.0264 1.00894 12.3733 0.922212C13.0093 0.748756 13.6742 0.5753 14.3102 0.459663C17.9817 -0.147433 21.4797 0.372935 24.7176 2.19422C28.8227 4.47806 31.4823 7.91827 32.4363 12.5149C33.4482 17.4584 32.2051 21.8526 28.8805 25.6397C26.481 28.3861 23.4166 30.0339 19.8319 30.6699C18.9068 30.8434 17.9528 30.8723 17.0277 30.9879C17.0855 31.0168 17.0855 30.9879 17.0566 30.959Z" fill="white"/>
<path d="M0.925049 20.9563C6.09982 20.9563 11.2168 20.9563 16.3915 20.9563C16.3337 21.043 16.2759 21.0719 16.247 21.1298C14.0788 23.2401 11.9106 25.3505 9.77131 27.4609C9.68458 27.5476 9.56894 27.5765 9.4533 27.5765C8.09456 27.5765 6.70692 27.5765 5.34818 27.5765C5.26145 27.5765 5.14581 27.5476 5.05908 27.4609C3.2378 25.6974 1.85015 23.587 0.982868 21.1587C0.953958 21.1008 0.953958 21.043 0.925049 20.9563Z" fill="white"/>
<path d="M16.3915 10.2599C11.2168 10.2599 6.07091 10.2599 0.925049 10.2599C0.953958 10.1732 0.982867 10.0864 1.01178 9.9997C1.87906 7.60023 3.2378 5.51876 5.05908 3.75529C5.14581 3.66856 5.26145 3.63965 5.37709 3.63965C6.73583 3.63965 8.12347 3.63965 9.48221 3.63965C9.56894 3.63965 9.68458 3.66856 9.77131 3.75529C11.9684 5.89458 14.1366 8.00496 16.3337 10.1442C16.3048 10.1732 16.3337 10.2021 16.3915 10.2599Z" fill="white"/>
<path d="M49.9553 18.9908V21.0144H41.5427V10.1445H49.753V12.1682H44.0578V14.5098H49.0881V16.4757H44.0578V18.9908H49.9553Z" fill="white"/>
<path d="M61.7792 21.0143L59.1484 17.2561L56.5755 21.0143H53.6846L57.703 15.4927L53.8869 10.1733H56.749L59.2352 13.7003L61.6925 10.1733H64.4099L60.6228 15.4059L64.6701 21.0143H61.7792V21.0143Z" fill="white"/>
<path d="M75.6845 21.0144L73.603 17.979H73.4874H71.2903V21.0144H68.7751V10.1445H73.4585C76.3494 10.1445 78.1707 11.6478 78.1707 14.0762C78.1707 15.6951 77.3612 16.9093 75.9447 17.4875L78.373 20.9855H75.6845V21.0144ZM73.3139 12.1971H71.2614V15.9842H73.3139C74.8461 15.9842 75.6267 15.2615 75.6267 14.1051C75.6267 12.8909 74.8461 12.1971 73.3139 12.1971Z" fill="white"/>
<path d="M90.3992 18.6728H85.369L84.415 20.9855H81.842L86.6699 10.1445H89.1561L94.0129 20.9855H91.3821L90.3992 18.6728ZM89.6187 16.7648L87.8841 12.6018L86.1495 16.7648H89.6187Z" fill="white"/>
<path d="M99.9393 12.1971H96.4702V10.1445H105.924V12.1971H102.454V20.9855H99.9393V12.1971Z" fill="white"/>
<path d="M118.76 18.9908V21.0144H110.347V10.1445H118.557V12.1682H112.862V14.5098H117.892V16.4757H112.862V18.9908H118.76Z" fill="white"/>
<path d="M123.009 19.9448L123.848 18.0657C124.773 18.7306 126.131 19.1932 127.432 19.1932C128.907 19.1932 129.514 18.7017 129.514 18.0368C129.514 16.0131 123.212 17.4008 123.212 13.3824C123.212 11.5322 124.686 10 127.779 10C129.138 10 130.526 10.318 131.538 10.954L130.757 12.862C129.745 12.2838 128.704 12.0237 127.75 12.0237C126.276 12.0237 125.698 12.5729 125.698 13.2668C125.698 15.2615 132 13.8739 132 17.8633C132 19.6846 130.497 21.2168 127.403 21.2168C125.698 21.1879 123.963 20.6675 123.009 19.9448Z" fill="white"/>
</svg>
