<svg id="Слой_1" data-name="Слой 1" xmlns="http://www.w3.org/2000/svg" viewBox="0 0 198.38 198.38"><defs><style>.cls-1{fill:#fe9b00;}.cls-2{fill:#191c31;}</style></defs><title>abbc</title><circle class="cls-1" cx="99.19" cy="99.19" r="99.19"/><path class="cls-2" d="M183.51,102.56s-1.28-9.62-13.46-13.46S147.29,96,147.29,96l-8,7.23s-3.84-12.5-13.46-14.1a32.76,32.76,0,0,0-17,1.6V61.53S98.71,59.61,98.64,68.9s0,28.53,0,28.53l-2.32.32S88,88.46,82.86,88.14,77.41,86.85,66.51,91l-.32-23.08S64,59.29,55.61,61.53V99.19s-8.33-17.14-26.28-11.7-14.11,23.08-14.11,23.08,2.57,18.92,18,17.63,13.15-3.52,13.15-3.52l4.16,3.59h5.13V111.86L73.24,97.75S84.46,93.91,89,105.12s-7.37,14.43-7.37,14.43-7.59,4.08-13.79-4.2a33.1,33.1,0,0,1-1.92-7l-8,7s.33,8.17,10.9,12.92S90,125,90,125s4.26-.32,8.68-12.82c.29-.83.54-1.54.75-2.17L114,99.19s8.65-7.21,14.42,3.69-3.84,14.75-3.84,14.75-7.32,6.67-15.71-2.28l-1.6-7-8.58,7A20.34,20.34,0,0,0,113,129.77c12.18,3.56,23.08-8.94,23.08-8.94l21.15-21.64s7.06-4.33,13.47,0,4.48,12,4.48,12ZM36.45,119.86A11.66,11.66,0,1,1,48.11,108.2,11.66,11.66,0,0,1,36.45,119.86Z"/><path class="cls-2" d="M152.35,109.05s.57,12.1,12.86,11.53l-8.13,8.14s-7.92.93-12.86-12.3Z"/></svg>