<svg id="Слой_1" data-name="Слой 1" xmlns="http://www.w3.org/2000/svg" viewBox="0 0 218.15 218.15"><defs><style>.cls-1{fill:#f3ca6b;}.cls-2,.cls-4,.cls-5{fill:none;stroke-miterlimit:10;}.cls-2,.cls-4{stroke:#003860;}.cls-2{stroke-width:24px;}.cls-3{fill:#01375e;}.cls-4,.cls-5{stroke-width:2px;}.cls-5{stroke:#01375e;}.cls-6{fill:#003661;}</style></defs><title>abtc</title><circle class="cls-1" cx="109.08" cy="109.08" r="109.08"/><circle class="cls-2" cx="109.08" cy="109.08" r="86.94"/><path class="cls-3" d="M68.75,82.86l.29,1h0a2.48,2.48,0,0,1,.64,3.53L51.61,112.53a13.66,13.66,0,0,1-5,3.61H56.65l-1.31-1.25a1.94,1.94,0,0,1-.21-2.6l4.26-5.52H70.33v7.49l-1.58,1.88h6.48V82.86Zm1.87,20.74H60.9l9.72-12.53Z"/><path class="cls-4" d="M126.22,82.83V116.1"/><path class="cls-4" d="M147.39,82.83V116.1"/><path class="cls-3" d="M79.84,82.86c.43-.14,6.91,0,6.91,0l-2.59,2.88L84,114l2.73,2.17H79.84Z"/><path class="cls-3" d="M144.87,82.86c-.43-.14-6.92,0-6.92,0l2.6,2.88.14,28.23L138,116.14h6.92Z"/><path class="cls-3" d="M128.63,82.86c.43-.14,6.91,0,6.91,0L133,85.74,132.81,114l2.73,2.17h-6.91Z"/><path class="cls-3" d="M89.06,82.8h5.47l14.55,29-2.31,4.33-11.23-21,.13,17.47a3.41,3.41,0,0,0,.68,2l1.2,1.57H90.64l.94-1a3.46,3.46,0,0,0,.93-2.37l-.13-25.82a3.44,3.44,0,0,0-1.44-2.78Z"/><line class="cls-5" x1="96.83" y1="82.86" x2="109.94" y2="109.08"/><path class="cls-3" d="M108.22,82.86h-8.5l11.66,23.19,7.49-13.72V113.4l-1,2.74h5.76V82.86h-8.21a3.06,3.06,0,0,1,1.19,4l-4.93,10-4.73-9a3.74,3.74,0,0,1,.75-4.46Z"/><path class="cls-3" d="M149.82,82.86c.32.07,7,0,7,0l-2.2,2.57a3,3,0,0,0-.71,2l.21,25.44h11.79a3.41,3.41,0,0,0,2.61-1.22l2.11-2.53v7H149.82Z"/><path class="cls-6" d="M63.14,131c2.72.49,4.63,1.78,4.63,4.24a4.63,4.63,0,0,1-2.48,3.92,10.15,10.15,0,0,1-4.91,1.09H53.15v-1c2-.2,2.19-.33,2.19-2.5v-9.84c0-2.17-.33-2.41-2.17-2.54v-1H61a7.63,7.63,0,0,1,4.23.9,3.31,3.31,0,0,1,1.58,2.87C66.84,129.36,64.82,130.66,63.14,131Zm-3.28-.33c2.46,0,3.36-1.06,3.36-3a2.79,2.79,0,0,0-2.89-3.1,2.49,2.49,0,0,0-1.22.21c-.28.18-.25.41-.25,1v4.91Zm-1,6.07c0,1.86.85,2.42,2.24,2.4s2.82-1.27,2.82-3.67-1.27-3.69-4.16-3.69h-.9Z"/><path class="cls-6" d="M69.7,140.24v-1c2-.18,2.2-.33,2.2-2.5v-9.84c0-2.17-.26-2.38-2.2-2.54v-1h8v1c-1.94.18-2.2.37-2.2,2.54v9.84c0,2.14.23,2.3,2.2,2.5v1Z"/><path class="cls-6" d="M94.17,127.92a8.21,8.21,0,0,0-1.11-2.54c-.47-.54-.67-.74-2.2-.74H89.21v12.14c0,2.17.26,2.32,2.56,2.5v1H83.19v-1c2.19-.18,2.43-.33,2.43-2.5V124.64H84c-1.45,0-1.86.23-2.35.85a10.06,10.06,0,0,0-1.06,2.45h-1c.18-1.88.36-3.9.41-5.14h.78c.39.6.7.65,1.47.65H92.64a1.71,1.71,0,0,0,1.5-.65h.75c0,1.09.13,3.36.26,5Z"/><path class="cls-6" d="M113,135.8a37.56,37.56,0,0,1-1.44,4.16,22.51,22.51,0,0,1-4.76.67c-6.94,0-9.81-4.47-9.81-8.58,0-5.35,4.08-9,10.28-9a27,27,0,0,1,4.88.62c.13,1.21.31,3.12.49,4.26l-1,.18c-.54-2-1.32-3-2.69-3.51a6.46,6.46,0,0,0-2.24-.37c-3.75,0-5.64,3.13-5.64,7.19,0,4.72,2.43,7.93,6,7.93,2.17,0,3.62-1.14,5-4Z"/><path class="cls-6" d="M124.26,123.09a8.41,8.41,0,0,1,8.68,8.57,8.86,8.86,0,1,1-8.68-8.57Zm-.39,1.13c-2.63,0-4.57,2.59-4.57,7.16,0,4.36,1.73,8.11,5.22,8.11,2.45,0,4.37-2.38,4.37-7.1C128.89,127.27,126.87,124.22,123.87,124.22Z"/><path class="cls-6" d="M135.19,140.24v-1c2-.18,2.19-.33,2.19-2.5v-9.84c0-2.17-.26-2.38-2.19-2.54v-1h8v1c-1.94.18-2.2.37-2.2,2.54v9.84c0,2.14.24,2.3,2.2,2.5v1Z"/><path class="cls-6" d="M163.37,124.4c-1.58.21-2.07.55-2.14,1.71s-.16,1.88-.16,4.13v10.28h-1.45l-10.77-12.91v5.84a38.39,38.39,0,0,0,.13,4c.1,1.14.65,1.73,2.56,1.83v1h-6.41v-1c1.47-.13,2.12-.51,2.28-1.73a35.82,35.82,0,0,0,.15-4.1v-6.13a3.09,3.09,0,0,0-.54-2.09c-.47-.65-1.09-.72-2.17-.83v-1h5l9.84,11.44v-4.65c0-2.25,0-3.1-.11-4.05-.07-1.11-.49-1.66-2.63-1.79v-1h6.38Z"/></svg>