<svg id="Слой_1" data-name="Слой 1" xmlns="http://www.w3.org/2000/svg" viewBox="0 0 199.01 171.87"><defs><style>.cls-1{fill:#767dff;}.cls-2{fill:#6c67fe;}.cls-3{fill:#668bff;}.cls-4{fill:#5a87ff;}.cls-5{fill:#4c68ff;}.cls-6{fill:#5b52fd;}.cls-7{fill:#3052f8;}.cls-8{fill:#4236f3;}</style></defs><title>act</title><path class="cls-1" d="M82.65-1.12c10.26,4,30.48,8.1,35.66,14.77L45.94,136.83c-.64,1-3,2.31-4.11,2.88L45.16,138c-4.36,2.27-31.06-7.62-42.66-10.88a3.44,3.44,0,0,1-2-5.14L72.63,2.26A8.19,8.19,0,0,1,82.65-1.12Z" transform="translate(0 1.68)"/><path class="cls-2" d="M24.53,163s-8.07-29.76-5.1-37.67l142.85-2.7c1.23,0,3.54,1.36,4.6,2l-3.2-2c4.22,2.53,9.74,30.47,13,42.05.63,2.21.33,4.12-2,4.09l-147.5,1.41Z" transform="translate(0 1.68)"/><path class="cls-3" d="M75.28.69,96.75-1.68c6,0,15,2.46,25.81.5l75.78,121.12c.63,1.06.65,3.74.65,5l0-3.74c0,5.81-5.31,10.89-8.25,15.9l-14.28,31.44Z" transform="translate(0 1.68)"/><path class="cls-4" d="M100.92,43.25,75.64,2.3a2.63,2.63,0,0,1,2.26-4h43.15A2.54,2.54,0,0,1,123.3,2Z" transform="translate(0 1.68)"/><path class="cls-5" d="M176.48,168.51l-27.13-45c-1-1.76,1.92-1.46,4-1.46h43.14a2.55,2.55,0,0,1,2.25,3.73Z" transform="translate(0 1.68)"/><path class="cls-6" d="M27.24,170.19.64,125.8c-1-1.75,1.73-.64,3.77-.64l44.6-.43c1.92,0,4.07.29,3.18,2Z" transform="translate(0 1.68)"/><polygon class="cls-7" points="100.92 44.93 93.36 57.8 74.65 1.68 100.92 44.93"/><polygon class="cls-8" points="148.78 124.27 134.58 124.8 176.48 170.2 148.78 124.27"/></svg>