<?xml version="1.0" encoding="utf-8"?>
<!-- Generator: Adobe Illustrator 23.0.1, SVG Export Plug-In . SVG Version: 6.00 Build 0)  -->
<svg version="1.1" id="Слой_1" xmlns="http://www.w3.org/2000/svg" xmlns:xlink="http://www.w3.org/1999/xlink" x="0px" y="0px"
	 viewBox="0 0 198.5 200" style="enable-background:new 0 0 198.5 200;" xml:space="preserve">
<style type="text/css">
	.st0{fill:#E9021C;}
</style>
<title>adb</title>
<g>
	<path class="st0" d="M118.8,44.5c15.3,6,27.5,18.1,33.5,33.5h43.1C183.2,24.1,129.7-9.8,75.8,2.3C38.1,10.8,8.7,40.3,0.2,78h42.4
		C54.4,47.7,88.5,32.7,118.8,44.5z"/>
	<path class="st0" d="M197,121.2h-10.3c0-0.1,0-0.2,0-0.2h-34.5c-12,30.2-46.2,45-76.4,33.1c-15.1-6-27.1-17.9-33.1-33.1H0
		c9.9,46.1,50.6,79,97.8,79c24.5,0,44.7-8.9,59.8-23.5v13.8c0,5.4,4.4,9.7,9.7,9.7h22.4c4.8,0,8.7-3.9,8.7-8.7v-68.5
		C198.5,121.9,197.8,121.2,197,121.2z"/>
</g>
</svg>
