<svg id="Слой_1" data-name="Слой 1" xmlns="http://www.w3.org/2000/svg" viewBox="0 0 195.9 195.9"><defs><style>.cls-1{fill:#0f4605;}.cls-2{fill:#3e9a0b;}.cls-3{fill:#57a23c;}.cls-4{fill:#bbcc9a;}.cls-5{fill:#3d5a2e;}</style></defs><title>adk</title><circle class="cls-1" cx="97.95" cy="97.95" r="97.95"/><ellipse class="cls-2" cx="97.95" cy="97.95" rx="90.66" ry="89.75"/><circle class="cls-1" cx="97.95" cy="97.95" r="83.89"/><circle class="cls-3" cx="98.22" cy="97.95" r="80.14"/><circle class="cls-4" cx="98.03" cy="97.95" r="72.52"/><path class="cls-5" d="M115.36,69.82l14.93-33s-23.5-.63-40,4.76S60.44,46,45.83,67.28l-3.17-1.9L33.45,76.81l22.22,35.87S46.47,82.84,63,71.09s36.78-4.44,36.78-4.44l12.75,4.44Z"/><path class="cls-5" d="M58.21,131.1,63,122.21,58.21,99.35S55.67,80,68.37,74.73s33.63-10,42.85,3l7.32-4.45,14.29,57.79h-2.54l-6-22.54-3.81,1.9-6-2.22-1.27,7.94,11.43,3.17s3.49,38.1,8.26,39.69-31.44-20.64-31.44-20.64l-1.63-15.56-8.84-6.66Z"/></svg>