<svg width="14" height="9" viewBox="0 0 14 9" fill="none" xmlns="http://www.w3.org/2000/svg">
<path d="M0 9V0.46875H2.625C3.375 0.46875 4.04492 0.638672 4.63477 0.978516C5.22852 1.31445 5.69141 1.79492 6.02344 2.41992C6.35547 3.04102 6.52148 3.74805 6.52148 4.54102V4.93359C6.52148 5.72656 6.35742 6.43164 6.0293 7.04883C5.70508 7.66602 5.24609 8.14453 4.65234 8.48438C4.05859 8.82422 3.38867 8.99609 2.64258 9H0ZM1.75781 1.89258V7.58789H2.60742C3.29492 7.58789 3.82031 7.36328 4.18359 6.91406C4.54688 6.46484 4.73242 5.82227 4.74023 4.98633V4.53516C4.74023 3.66797 4.56055 3.01172 4.20117 2.56641C3.8418 2.11719 3.31641 1.89258 2.625 1.89258H1.75781Z" fill="#fff"/>
<path d="M9.3457 3.35156C9.79492 2.8125 10.3594 2.54297 11.0391 2.54297C12.4141 2.54297 13.1113 3.3418 13.1309 4.93945V9H11.4375V4.98633C11.4375 4.62305 11.3594 4.35547 11.2031 4.18359C11.0469 4.00781 10.7871 3.91992 10.4238 3.91992C9.92773 3.91992 9.56836 4.11133 9.3457 4.49414V9H7.65234V0H9.3457V3.35156Z" fill="#fff"/>
</svg>
