<svg width="19" height="12" xmlns="http://www.w3.org/2000/svg">
 <g>
  <title>background</title>
  <rect x="-1" y="-1" width="21" height="14" id="canvas_background" fill="none"/>
 </g>

 <g>
  <title>Layer 1</title>
  <g stroke="null" id="svg_3">
   <path stroke="null" d="m0,11.031006l0,-9.574692l3.292917,0c0.940833,0 1.781211,0.190703 2.521145,0.572119c0.744826,0.377017 1.325496,0.916252 1.742009,1.617695c0.416513,0.697065 0.624763,1.490571 0.624763,2.380528l0,0.440585c0,0.889957 -0.205804,1.681274 -0.617412,2.373951c-0.406716,0.692677 -0.982494,1.229713 -1.72732,1.61113c-0.744826,0.381405 -1.585204,0.574296 -2.521132,0.578684l-3.314969,0l0,-0.000001zm2.205075,-7.976716l0,6.391893l1.065789,0c0.862431,0 1.521503,-0.252082 1.977218,-0.756245c0.455727,-0.504163 0.688477,-1.225325 0.698274,-2.163508l0,-0.506352c0,-0.973254 -0.225398,-1.709769 -0.67622,-2.209544c-0.45081,-0.504163 -1.109882,-0.756245 -1.977218,-0.756245l-1.087841,0l-0.000001,0.000001z" fill="#000" id="svg_1"/>
   <path stroke="null" d="m11.723661,4.691716c0.563522,-0.604992 1.27163,-0.907487 2.124276,-0.907487c1.724861,0 2.59946,0.896534 2.624047,2.689589l0,4.557188l-2.124276,0l0,-4.504575c0,-0.407712 -0.097972,-0.70802 -0.294042,-0.900922c-0.195944,-0.197279 -0.521849,-0.295919 -0.977588,-0.295919c-0.622292,0 -1.073102,0.214821 -1.352416,0.644452l0,5.056964l-2.124226,0l0,-10.100774l2.124226,0l0,3.761483l0,0.000001z" fill="#000" id="svg_2"/>
  </g>
 </g>
</svg>