<svg width="18" height="12" xmlns="http://www.w3.org/2000/svg">
 <g>
  <g id="svg_3" stroke="null">
   <path stroke="null" id="svg_1" fill="#000" d="m0,12.048505l0,-12.026355l3.582728,0c1.023636,0 1.937976,0.239534 2.743032,0.718614c0.810379,0.473555 1.442154,1.150864 1.895324,2.031916c0.453171,0.875553 0.679749,1.872242 0.679749,2.990078l0,0.5534c0,1.117836 -0.223917,2.111775 -0.671751,2.981817c-0.442511,0.870042 -1.068964,1.544589 -1.879342,2.02367c-0.810379,0.479066 -1.724719,0.721348 -2.743018,0.72686l-3.606721,0l0,-0.000001l-0.000001,0.000001zm2.399145,-10.019207l0,8.028579l1.15959,0c0.938334,0 1.655411,-0.316629 2.151234,-0.949887c0.495836,-0.633257 0.74907,-1.539078 0.759729,-2.717488l0,-0.636007c0,-1.222462 -0.245235,-2.147567 -0.735734,-2.775312c-0.490486,-0.633257 -1.207563,-0.949887 -2.151234,-0.949887l-1.183582,0l-0.000001,0.000001l-0.000001,0z"/>
   <path stroke="null" id="svg_2" fill="#000" d="m12.417177,4.46452c0.66261,-0.719236 1.495229,-1.078853 2.497801,-1.078853c2.028154,0 3.05654,1.065831 3.08545,3.197479l0,5.417747l-2.497801,0l0,-5.355199c0,-0.484703 -0.115199,-0.841719 -0.345745,-1.071048c-0.230398,-0.234532 -0.613609,-0.351799 -1.149484,-0.351799c-0.731714,0 -1.261792,0.255387 -1.59022,0.766147l0,6.011898l-2.497742,0l0,-12.008159l2.497742,0l0,4.471785l0,0.000001l-0.000001,0z"/>
  </g>
 </g>
</svg>