<?xml version="1.0" encoding="utf-8"?>
<!-- Generator: Adobe Illustrator 23.0.2, SVG Export Plug-In . SVG Version: 6.00 Build 0)  -->
<svg version="1.1" id="Layer_1" xmlns="http://www.w3.org/2000/svg" xmlns:xlink="http://www.w3.org/1999/xlink" x="0px" y="0px"
	 viewBox="0 0 64 64" style="enable-background:new 0 0 64 64;" xml:space="preserve">
<style type="text/css">
	.st0{fill:#023864;}
</style>
<g>
	<path class="st0" d="M0.1,58.5c2.5-5.5,5-10.9,7.4-16.4C13.2,29.4,19,16.6,24.8,3.9c0.4-0.9,0.8-1.2,1.8-1.2c3.7,0.1,7.3,0.1,11,0
		c0.8,0,1.1,0.2,1.5,0.9c1.8,4.1,3.7,8.2,5.5,12.3c0.4,0.8,0.8,1.2,1.7,1c0.5-0.1,1.1-0.1,1.6-0.1c3-0.1,3.5,0.3,4.1,3.6
		c-0.9,0-1.8,0-2.6,0c-0.8,0-1.7,0-2.5,0c0,0.2,0,0.3,0.1,0.4c1,2.3,1,2.3,3.5,2.3c3.5,0,3.5,0,4.6,3.3c0,0.1,0,0.2,0,0.3
		c-1.7,0-3.4,0-5.3,0c4.8,10.6,9.6,21.2,14.4,31.8c-4.4,0-8.5,0-12.7,0c-1.2,0-1-1.4-1.5-2.1c-0.4-0.5-0.2-0.8,0.2-1.3
		c2.3-2.7,3.9-5.8,4-9.4c0.1-7.4-6.3-13.6-13.9-13.2c-1,0-1.4-0.3-1.8-1.2c-1.8-4-3.6-8-5.4-12c-0.2-0.4-0.2-1-1.1-0.9
		c-6.7,1.1-12.1,4.4-15.4,10.5c-2.9,5.4-1.8,11.3,2.8,15.3c0.6,0.6,0.8,0.9,0.4,1.7C15.9,53.7,8,58.8,0.1,58.5z"/>
	<path class="st0" d="M34.9,55.3c1.2-0.4,2.4-0.8,3.5-1.2c2.1-0.9,4-2.2,5.5-4c1.6-2,1.9-4.4,0.8-6.3c-1.3-2.2-3.6-3.2-6.2-2.8
		c-2.8,0.4-5.2,1.8-8,2.4c-2.4,0.5-4.8,0.6-7.1-0.5c-4.7-2.3-6.4-7.9-3.7-12.6c2.1-3.7,5.3-6,9.3-7.4c0.7-0.3,1.1-0.1,1.4,0.6
		c0.3,0.9,1.2,1.8,1,2.6c-0.1,1-1.6,0.8-2.4,1.2c-1.8,0.9-3.4,1.9-4.6,3.4c-1.6,1.9-1.9,4.1-0.8,5.9c1.1,1.9,3.2,2.7,5.6,2.3
		c1.8-0.3,3.5-0.9,5.2-1.5c1.4-0.5,2.9-0.9,4.3-1.1c4-0.6,7.2,0.8,9.5,4.1c2.3,3.2,2.3,6.6,0.5,10c-2.5,4.4-6.3,7-11,8.5
		c-0.7,0.2-1.1,0.1-1.4-0.6C35.9,57.1,35.4,56.2,34.9,55.3z"/>
</g>
</svg>
