<?xml version="1.0" encoding="utf-8"?>
<!-- Generator: Adobe Illustrator 23.0.1, SVG Export Plug-In . SVG Version: 6.00 Build 0)  -->
<svg version="1.1" id="Слой_1" xmlns="http://www.w3.org/2000/svg" xmlns:xlink="http://www.w3.org/1999/xlink" x="0px" y="0px"
	 viewBox="0 0 195.11 198.2" style="enable-background:new 0 0 195.11 198.2;" xml:space="preserve">
<style type="text/css">
	.st0{fill:#23E3E1;}
</style>
<title>amn</title>
<g>
	
		<ellipse transform="matrix(0.3827 -0.9239 0.9239 0.3827 -31.4976 151.0605)" class="st0" cx="97.29" cy="99.1" rx="22.12" ry="22.12"/>
	<path class="st0" d="M113.66,9.32V41.1c34.08,9.61,53.92,45.02,44.31,79.1c-9.61,34.08-45.02,53.92-79.1,44.31
		c-34.08-9.61-53.92-45.02-44.31-79.1c4.73-16.79,16.11-30.93,31.49-39.15l23.47,24.1V-0.02H20.15L43.01,22.6l0.82,0.84
		c-26.7,17-44.36,46.3-44.36,79.64c0,52.52,43.79,95.11,97.82,95.11c54.03,0,97.82-42.59,97.82-95.11
		C195.11,55.98,159.89,16.9,113.66,9.32z"/>
</g>
</svg>
