<svg id="Слой_1" data-name="Слой 1" xmlns="http://www.w3.org/2000/svg" viewBox="0 0 530.84 959.32"><defs><style>.cls-1{fill:#8dc63f;}.cls-2{fill:#00365b;}</style></defs><title>any</title><polygon class="cls-1" points="376.82 745.21 376.82 784.74 483.93 815.29 483.93 694.71 376.82 745.21"/><polygon class="cls-2" points="141.81 833.81 265.42 798.51 265.42 833.81 320.27 816.16 218.29 959.32 79.06 888.72 141.81 869.11 141.81 833.81"/><path class="cls-2" d="M481.08,217.09,222.22,232.78l-3.93-56.88L57.48,73.93,73.17,246.5C20.22,234.74,0,285.73,0,285.73S51.6,681.87,61.4,756.39s54.92,56.88,54.92,56.88l327.5-94.14c100-15.69,86.29-54.91,86.29-54.91V552.44s-2-209.84.64-280.44S481.08,217.09,481.08,217.09ZM167.45,687.89l-10.59-80.33,62.67,51.2,3.53,16.77Zm278.06-69.74L404,627.86l-1.77-58.26L212.44,612.09l.91,28.13-60.91-47.67,47.22-79.44,4,33.54L400.49,508.7V413.36s1.76-37.07-42.37-30-144.77,19.42-144.77,19.42-23.83,2.65-18.54,47.67l5.3,45-47.67,75.91L134.79,444.51s-12.36-40.86,22.07-91.17c0,0,11.47-26.48,58.26-30.9s160.65-14.12,160.65-14.12,35.31-2.65,53.85,35.31c0,0,15,24.71,15.89,75S445.51,618.15,445.51,618.15Z" transform="translate(0 6.82)"/><polygon class="cls-1" points="351.12 208.36 475.96 200.4 475.96 156.57 530.84 156.57 410.88 0 289.26 161.88 351.12 160.55 351.12 208.36"/></svg>