<svg id="Слой_1" data-name="Слой 1" xmlns="http://www.w3.org/2000/svg" viewBox="0 0 168.62 188.23"><defs><style>.cls-1{fill:#3597bc;}.cls-2{fill:#3975b4;}.cls-3{fill:#3f659e;}.cls-4{fill:#4d4c73;}.cls-5{fill:#367fbb;}</style></defs><title>arn</title><polygon class="cls-1" points="28.1 51.43 71.91 1.84 3.72 43.17 19.84 51.43 28.1 51.43"/><path class="cls-2" d="M0,47.71,17.36,58.46s.82,6.2,3.3,6.61l-2.48-.41L0,127.48Z"/><path class="cls-3" d="M26,67.14,1.65,137.4s-2.06,4.13,5,5.37,69.85,14.88,69.85,14.88Z"/><path class="cls-4" d="M10.68,149.79c2.55,0,69.5,16.12,69.5,16.12v22.32H76.46Z"/><polygon class="cls-4" points="87.2 165.91 87.2 188.23 90.92 188.23 155.81 149.79 87.2 165.91"/><path class="cls-3" d="M90.1,157.65l50.83-90.51,25.21,67.36s4.55,7-7.85,9.92S90.1,157.65,90.1,157.65Z"/><path class="cls-2" d="M168.62,127.48,146.3,64.24s2.07-.41,2.48-5.78l19.84-10.75Z"/><path class="cls-1" d="M146.3,53.91l18.6-10.74-69-41.33,42.57,49.59S143.83,49.37,146.3,53.91Z"/><path class="cls-1" d="M32.24,56.39H134.73L87.2,1.84s-3.3-4.14-7,0S32.24,56.39,32.24,56.39Z"/><path class="cls-5" d="M32.24,61.35l52.52,96.3,50-93.41V61.35Zm13,11.09a3.31,3.31,0,1,1,3.31-3.3A3.31,3.31,0,0,1,45.22,72.44ZM62,82a3.31,3.31,0,1,1,3.31-3.31A3.31,3.31,0,0,1,62,82Zm6.62,29.34a3.31,3.31,0,1,1,3.3-3.31A3.31,3.31,0,0,1,68.61,111.36Zm7.85-37.61a3.31,3.31,0,1,1,3.31-3.31A3.31,3.31,0,0,1,76.46,73.75Zm6.61,53.73a3.31,3.31,0,1,1,3.31-3.31A3.31,3.31,0,0,1,83.07,127.48Zm32.65-50-5,4.55V99L107,102.27l-2.89-14.68-12,6v4.16L90.1,99v-5.4l-5.34-1.42,2.44-2.69,2.9.83L100.43,82,87.2,75.4l2.9-3.3h3.3l12,4.54,5.37-2.48,5.37-2.06,2.07,2.48Z"/></svg>