<svg id="Слой_1" data-name="Слой 1" xmlns="http://www.w3.org/2000/svg" viewBox="0 0 758.47 503.72"><title>aunit</title><path d="M694.73,233.5V18.56A17.81,17.81,0,0,0,676.93.75H587.12a17.81,17.81,0,0,0-17.81,17.81V315.3a46.15,46.15,0,0,1-4,18.73l-3.61,8.12a45,45,0,0,1-6,9.92c-30.9,38.56-81.46,34.39-106.25-6.87a17.53,17.53,0,0,1-1.21-2.46l-2.86-7.05a72.71,72.71,0,0,1-5.33-27.32v-148h0a120,120,0,0,0-14.53-53.48,265.19,265.19,0,0,0-26-39C314.86-36.35,147.43-10.65,95.48,78c-11.23,19.18-20.11,33.87-25.17,55.52l-7.39,35.15a18,18,0,0,0-.38,3.66V233.5a17.8,17.8,0,0,1-17.8,17.81H16.67a17.8,17.8,0,0,0-17.8,17.81v92.63a17.8,17.8,0,0,0,17.8,17.81H44.55a17.81,17.81,0,0,1,17.81,18l-.9,88.18a17.81,17.81,0,0,0,17.81,18h90.89A17.81,17.81,0,0,0,188,485.91V396.1a17.81,17.81,0,0,1,17.8-17.81h108a17.8,17.8,0,0,1,16,9.93l12.2,24.7a17.79,17.79,0,0,0,1.46,2.45c19.48,27.35,45.19,67.88,129.88,85.83a96.71,96.71,0,0,0,24.83,1.93l40.31-2.05c6-.57,12.41-1.94,24-5.82.75-.25,21.8-8.54,22.5-8.92,21.47-11.83,48.81-30.32,71.1-58.25a128.86,128.86,0,0,0,15.36-24.78l7-14.7a17.81,17.81,0,0,1,16.37-10.12l44.46.76a17.81,17.81,0,0,0,18.11-17.8V269.12a17.81,17.81,0,0,0-17.81-17.81h-27A17.81,17.81,0,0,1,694.73,233.5ZM295.92,251.86H206.2a17.81,17.81,0,0,1-17.81-17.81V190.5a71.73,71.73,0,0,1,7.52-32.4c7-13.87,15.81-20.13,18-21.55.36-.22.7-.46,1-.71,3.9-2.92,29.66-20.56,62.77-4.57,36,17.37,36,48.4,36,48.4v54.38A17.81,17.81,0,0,1,295.92,251.86Z" transform="translate(1.13)"/></svg>