<svg id="Слой_1" data-name="Слой 1" xmlns="http://www.w3.org/2000/svg" viewBox="0 0 107.12 121.09"><defs><style>.cls-1{fill:#fab915;}.cls-2{fill:#ab7e0b;}</style></defs><title>b2g</title><polygon class="cls-1" points="19.3 18.3 19.3 80.53 54.11 101.4 88.61 80.92 88.61 40.35 107.12 29.93 107.12 90.37 54.11 121.09 0 89.98 0 28.93 19.3 18.3"/><polygon class="cls-2" points="19.3 18.3 19.3 40.02 0 28.93 19.3 18.3"/><polygon class="cls-2" points="37.41 8.27 37.41 30.72 53.72 21.66 88.61 40.56 107.12 29.93 53.72 0 37.41 8.27"/><path class="cls-1" d="M54,42,38.09,51V69.93L54,79.08,69.73,70V51Zm11.1,28.62H42.75V61s1.78-2.84,4.8-2.84h9.87s3-1.95-.09-4l-13.87.08V50.46h18s7.2,5.34,0,11.91l-12.28.21s-2.47.41-1.76,3.79h17.6Z"/></svg>