<svg id="Слой_1" data-name="Слой 1" xmlns="http://www.w3.org/2000/svg" viewBox="0 0 120.34 120.34"><defs><style>.cls-1{fill:#e18d4c;}.cls-2{fill:#fff;}</style></defs><title>b2x</title><path class="cls-1" d="M144.55,400.61a60.17,60.17,0,1,1,60.17-60.17,60.17,60.17,0,0,1-60.17,60.17Z" transform="translate(-84.38 -280.27)"/><path class="cls-2" d="M143.82,360.49,134.58,358l4.09-15.57L148,345c5.39,1.44,7.95,5.46,6.74,10.13s-5.35,6.9-10.91,5.41m.4-38.44,7.69,2.06c4.06,1.09,5.73,4.23,4.91,7.41s-3.76,5.07-8,4l-7.69-2.06,3.05-11.36Zm18.41,21.45c3.48-.85,7.16-3.36,8.65-8.92,2-7.39-3.83-15.3-12-17.48l-.79-.21L161.44,306l-6.75-1.81-2.92,10.88-5.29-1.42,2.67-10.94-6.71-1.8-2.91,10.88-13.71-3.68-2.25,8.4,6.33,1.7a2.89,2.89,0,0,1,1.91,3.6L123.72,352a2.9,2.9,0,0,1-3.46,2.17l-4.67-1.25-3.84,7.73,13.7,3.67-2.91,10.88,7,1.86,2.91-10.88,5.29,1.42-2.91,10.88,6.76,1.81,2.91-10.88c10,2.69,22,1.26,25.24-10.8,2-7.4-2.39-12.69-7.06-15.12" transform="translate(-84.38 -280.27)"/></svg>