<?xml version="1.0" encoding="utf-8"?>
<!-- Generator: Adobe Illustrator 23.0.2, SVG Export Plug-In . SVG Version: 6.00 Build 0)  -->
<svg version="1.1" id="Layer_1" xmlns="http://www.w3.org/2000/svg" xmlns:xlink="http://www.w3.org/1999/xlink" x="0px" y="0px"
	 viewBox="0 0 64 64" style="enable-background:new 0 0 64 64;" xml:space="preserve">
<style type="text/css">
	.st0{fill:#752A95;}
	.st1{fill:#FB4F01;}
</style>
<g>
	<path class="st0" d="M32,2.6c0.2,0.2,0.4,0.5,0.5,0.8c10.4,18.1,20.9,36.1,31.3,54.2c0.1,0.1,0.1,0.2,0.2,0.4
		c-0.1,0.1-0.3,0.1-0.4,0.1c-21.1,0-42.1,0-63.2,0c-0.1,0-0.3,0.1-0.4-0.1c0.1-0.1,0.3-0.1,0.4-0.2c3.5-2,7-4,10.5-6.1
		c2.8-1.6,5.7-3.3,8.5-4.9c0.2,0,0.3,0,0.5,0c8,0,16,0,24.1,0c0.1,0,0.3,0.1,0.4-0.1c-0.1-0.1-0.1-0.3-0.2-0.4
		c-2.9-5-5.7-9.9-8.6-14.9c-1.2-2.1-2.4-4.2-3.7-6.3C32,17.6,32,10.1,32,2.6z"/>
	<path class="st1" d="M32,2.6c0,7.5,0,15,0,22.5c-0.1,0.1-0.1,0.2-0.2,0.3c-4.1,7.1-8.2,14.2-12.3,21.3c-2.8,1.6-5.7,3.3-8.5,4.9
		c-3.5,2-7,4.1-10.5,6.1c-0.1,0.1-0.3,0.1-0.4,0.2c1.3-2.3,2.6-4.6,4-6.9c9.3-16,18.5-32,27.8-48.1C31.8,2.8,31.8,2.6,32,2.6z"/>
</g>
</svg>
