<svg id="Слой_1" data-name="Слой 1" xmlns="http://www.w3.org/2000/svg" viewBox="0 0 166.86 164.01"><defs><style>.cls-1{fill:#1a416a;}</style></defs><title>bbx</title><path class="cls-1" d="M21,116.94c-9-21.26-8-34-8-34A65.68,65.68,0,0,1,27.4,39.33,78.86,78.86,0,0,1,65.67,13.82v-12C18.92,15,7.2,48.9,7.2,48.9s-19.83,39.67,6.33,78.63C38.17,164.21,65.67,163,65.67,163V151s-5.32,0-18.6-6.91S21,116.94,21,116.94Z"/><path class="cls-1" d="M70.45,0,69.39,35.61H53.18s-13-1.06-19.93,12.76S37.5,75.48,37.5,75.48C24.74,81.86,25.27,99.4,25.27,99.4,27.4,123.85,50.79,126,50.79,126l19.66-.53v38.27H81.68L81.08,0ZM69,111.2s-14.44.32-18.61,0S42,108,42,108a12.34,12.34,0,0,1-3.85-14.11c3.21-9,14.12-8.67,14.12-8.67H69Zm.44-38.07H56S42.16,69.6,44.41,58.37,55,48.75,55,48.75H69.44Z"/><path class="cls-1" d="M145.84,116.94c9-21.26,8-34,8-34a65.68,65.68,0,0,0-14.35-43.59,78.86,78.86,0,0,0-38.27-25.51v-12C147.94,15,159.66,48.9,159.66,48.9s19.83,39.67-6.33,78.63C128.69,164.21,101.19,163,101.19,163V151s5.32,0,18.6-6.91S145.84,116.94,145.84,116.94Z"/><path class="cls-1" d="M85.78,0V164l10.63-.3V125.44l19.66.53s23.39-2.12,25.52-26.57c0,0,.53-17.54-12.23-23.92,0,0,11.16-13.29,4.25-27.11s-19.93-12.76-19.93-12.76H97.47L96.41,0ZM97.86,85.21h16.69s10.91-.32,14.12,8.67A12.35,12.35,0,0,1,124.82,108s-4.18,2.89-8.35,3.21-18.61,0-18.61,0Zm-.44-36.46h14.44s8.34-1.61,10.59,9.62S110.9,73.13,110.9,73.13H97.42Z"/></svg>