<svg id="Слой_1" data-name="Слой 1" xmlns="http://www.w3.org/2000/svg" viewBox="0 0 199.47 189.15"><defs><style>.cls-1{fill:#fbdd50;}.cls-2{fill:#0b0a08;}.cls-3{fill:#f59622;}.cls-4{fill:#f3a529;}</style></defs><title>bca</title><path class="cls-1" d="M123.78,159.41a71.9,71.9,0,1,1,51.58-87.63,71.89,71.89,0,0,1-51.58,87.63Z"/><path class="cls-2" d="M110.92,113.22l-11.44-.1.07-19.23,11.53.09c6.66.06,10.83,3.94,10.83,9.71s-4.12,9.58-11,9.53M99.85,68.63l9.52.08c5,0,7.9,3.17,7.9,7.09s-2.83,7-8,7l-9.51-.08.11-14.05Zm27.73,19.29c3.77-2,7.28-6,7.34-12.91.07-9.13-9-16.55-19.07-16.63h-1L115,44.91l-8.36-.07L106.5,58.3,100,58.24l-.19-13.46-8.3-.06-.11,13.45L74.4,58l-.08,10.39,7.82.06a3.46,3.46,0,0,1,3.29,3.6l-.31,37.35A3.45,3.45,0,0,1,81.77,113l-5.79,0L73.86,123l17,.14-.11,13.46,8.6.07.11-13.45,6.55.05-.11,13.45,8.36.07.11-13.45c12.41.1,25.83-5.14,26-20.06.08-9.16-6.57-14-12.7-15.38"/><path class="cls-3" d="M158.91,41.3l6.56,8.33s7.88-13.27,7.13-33.83-25.58-9-25.58-9S124.45,20.31,111.66,33.1L91.34,54.92,70.28,85.27l-13,22.32S48,127.15,47,131.66,45.45,152,45.45,152a7.09,7.09,0,0,0-2,8.78,7.21,7.21,0,0,0,8,4.27L55,163.51h7a51.7,51.7,0,0,0,16.43-7.19l-3.86-1.72-6.8,3.64a21.54,21.54,0,0,1-10,1.76s2-5.77-3.76-8.28l-5.27-.5L49,138.68s3.51-13.54,6.52-19.56S69,94,69,94L90.34,62.7s22.82-24.33,25.08-25.58l20.06-13.55s14.8-6.77,19.81-2.25S158.91,41.3,158.91,41.3Z"/><path class="cls-4" d="M35.17,103.55l3.06,11S22.72,113.29,6,101.27,12.68,75,12.68,75,36.46,63.69,54.19,60.13l27.37-4.49a30,30,0,0,1,4.13-.37l34.85-.68,25.81,1.51s21.43,3.12,25.74,4.79,17.74,10,17.74,10a7.1,7.1,0,0,1,8.42,3.19,7.21,7.21,0,0,1-.9,9l-3.2,2.09-3.89,5.84s-4.31,5.57-13.49,9.4L177,97c0-.67,0-.75.61-1.09l5-3a21.48,21.48,0,0,0,7-7.37s-5.91-1.53-4.8-7.72l2.5-4.66-10.58-6.74S163.6,61.87,156.93,61s-28.38-2.62-28.38-2.62L95,58.74a55.67,55.67,0,0,0-8.74.78c-9,1.55-28.18,5.23-30.82,6l-22.39,9.2S19.22,83.24,20.2,89.92,36.37,103.49,35.17,103.55Z"/><path class="cls-4" d="M141.53,152.2l9.87-6.82s2.63,15.7-4.47,35-27.12.63-27.12.63-17.25-19.89-25.43-36L81.85,118,71.26,82.58,65.8,57.31s-2.75-21.48-2.3-26.08,4.88-19.78,4.88-19.78a7.1,7.1,0,0,1,.82-9,7.2,7.2,0,0,1,9-1.56L81,3.45,87.7,5.63A57.07,57.07,0,0,1,101.48,18l-3.75.32-6.18-5.91a21.53,21.53,0,0,0-9-4.79s.11,6.11-6.15,6.7l-5.16-1.16-3.66,12s-.87,14,.12,20.62,5.08,28,5.08,28l10.52,36.42s14.14,30.22,15.89,32.11l14.86,19.1s12,11,18.13,8.31S141.53,152.2,141.53,152.2Z"/><circle class="cls-4" cx="75.27" cy="7.9" r="7.9"/><circle class="cls-4" cx="50.58" cy="157.24" r="7.9"/><circle class="cls-4" cx="191.57" cy="78.35" r="7.9"/></svg>