<svg id="Слой_1" data-name="Слой 1" xmlns="http://www.w3.org/2000/svg" viewBox="0 0 203.92 171.97"><defs><style>.cls-1{fill:none;stroke:#333;stroke-miterlimit:10;stroke-width:3px;}.cls-2{fill:#fcc339;}</style></defs><title>bcd</title><polygon class="cls-1" points="101.97 168.9 1.97 57.87 34.69 16.76 66.48 1.5 138.52 1.5 169.46 16.33 201.97 57.87 101.97 168.9"/><polyline class="cls-1" points="34.69 16.76 65.63 32.44 137.68 32.44 169.46 16.33"/><polyline class="cls-1" points="3.36 56.11 52.92 82.44 101.97 168.9 149.97 81.6 201.97 57.87"/><line class="cls-1" x1="65.63" y1="32.44" x2="52.92" y2="82.44"/><line class="cls-1" x1="134.71" y1="32.44" x2="149.97" y2="81.6"/><path class="cls-2" d="M108,102.24l-9.56,0V86.09l9.65.06c5.58,0,9.07,3.26,9.09,8.09s-3.43,8-9.18,8M98.6,65l8,0c4.21,0,6.61,2.63,6.63,5.91s-2.36,5.87-6.7,5.85l-8-.05L98.6,65ZM121.85,81C125,79.33,127.93,76,128,70.21c0-7.65-7.59-13.83-16-13.87h-.82l.06-11.26-7,0-.06,11.26-5.47,0L98.47,45l-6.94,0-.06,11.26-14.19-.08,0,8.69,6.55,0a2.89,2.89,0,0,1,2.76,3l-.17,31.25a2.88,2.88,0,0,1-2.79,3l-4.84,0L77,110.54l14.19.07-.06,11.26,7.19,0,.06-11.26,5.48,0-.06,11.26,7,0,.06-11.26c10.39.06,21.61-4.36,21.68-16.85,0-7.67-5.53-11.67-10.67-12.84" transform="translate(-0.92 -0.18)"/></svg>