<svg id="Слой_1" data-name="Слой 1" xmlns="http://www.w3.org/2000/svg" viewBox="0 0 200 124.72"><defs><style>.cls-1{fill:#e18d4c;}</style></defs><title>bch</title><path class="cls-1" d="M106.61,63.62l-9.44,2,3.39,15.73,9.36-2c5.63-1.18,8.32-5,7.29-9.75S112.07,62.48,106.61,63.62Z"/><path class="cls-1" d="M108.42,47.65c-.7-3.2-3.61-5.25-7.73-4.38L92.9,44.91l2.42,11.5,7.79-1.64C107.36,53.88,109.13,50.86,108.42,47.65Z"/><path class="cls-1" d="M155.05,35.27a60.17,60.17,0,1,0-26.48,80.87A60.16,60.16,0,0,0,155.05,35.27ZM114.52,87.06l2.32,11L110,99.51l-2.32-11-5.36,1.12,2.32,11-7,1.48-2.32-11L81.38,94l-.07-8.63,4.74-1a2.88,2.88,0,0,0,2.1-3.5L81.73,50.31A2.89,2.89,0,0,0,78.4,48L72,49.3,70.2,40.8l13.89-2.92-2.32-11,6.8-1.43,2.56,11,5.36-1.13-2.32-11L101,22.81l2.31,11,.81-.17c8.23-1.73,17,2.71,18.56,10.19,1.19,5.64-1,9.54-3.68,11.86,5.27.07,11.56,2.8,13.13,10.3C134.72,78.23,124.68,84.92,114.52,87.06Z"/><path class="cls-1" d="M25.9,60.26A73.19,73.19,0,0,1,57.89,0H0V124.72H64.71C41.56,112.09,25.9,88,25.9,60.26Z"/><path class="cls-1" d="M145.34,0a73.17,73.17,0,0,1,32,60.26c0,27.7-15.66,51.83-38.81,64.46H200V0Z"/></svg>