<?xml version="1.0" encoding="utf-8"?>
<!-- Generator: Adobe Illustrator 23.0.2, SVG Export Plug-In . SVG Version: 6.00 Build 0)  -->
<svg version="1.1" id="Layer_1" xmlns="http://www.w3.org/2000/svg" xmlns:xlink="http://www.w3.org/1999/xlink" x="0px" y="0px"
	 viewBox="0 0 64 64" style="enable-background:new 0 0 64 64;" xml:space="preserve">
<style type="text/css">
	.st0{fill:#DB9D2C;}
</style>
<path class="st0" d="M22.6,31.8c0.5-2.3,1-4.5,1.4-6.8c0.1-0.8,0.5-0.9,1.2-1c2.5-0.2,2.5-0.3,2.8-2.8c0-0.4,0.2-0.8,0.2-1.1
	c-0.1-1.2,0.5-1.3,1.5-1.2c1.8,0,1.8,0,1.5,1.8c-0.2,0.9-0.3,1.8-0.5,2.7c-0.1,0.5,0,0.7,0.5,0.7c0,0,0.1,0,0.1,0
	c2.8-0.1,2.1,0.6,2.7-2.2c0.2-0.7,0.3-1.4,0.4-2.1c0.1-0.6,0.4-0.8,1.1-0.8c2.2,0,2.2,0,1.7,2.2c-0.2,0.7-0.3,1.5-0.4,2.2
	c-0.2,0.7,0.1,0.8,0.7,0.7c1.3-0.3,2.6,0,3.8,0.2c1.2,0.2,2.4,0.7,3.2,1.8c0.2,0.3,0.4,0.3,0.7,0.1c2.8-1.8,5.8-2.2,9-2.2
	c3.1,0,6.1,0,9.2,0c0.7,0,0.8,0.2,0.7,0.8c-0.3,1.2-0.6,2.3-0.7,3.5C63.1,29,62.7,29,62.1,29c-3.4,0-6.9-0.1-10.3,0
	c-2.7,0.1-5.1,1-6.3,3.9c-0.6,1.6-0.6,3.2,0.7,4.5c1.1,1.1,2.5,1.2,4,1.2c3.1,0,6.1,0,9.2,0c0.3,0,0.6,0,0.9,0
	c0.5,0.1,0.8,0.3,0.6,1c-0.3,1.1-0.5,2.3-0.8,3.4c-0.1,0.3-0.1,0.5-0.5,0.5c-4.3,0-8.6,0.2-12.8-0.1c-1.7-0.1-3.3-0.8-4.7-1.9
	c-0.3-0.2-0.5-0.4-0.8-0.1c-2.1,1.8-4.5,2.4-7.2,2.2c-1.7-0.1-1.7,0-2,1.6c-0.4,2-0.4,1.9-2.4,2c-0.9,0-1-0.3-0.8-1
	c0.2-0.6,0.2-1.2,0.4-1.7c0.2-0.7,0.1-0.8-0.6-0.8c-2.3,0-2.3-0.1-2.7,2.3c-0.1,0.5,0,1.2-0.6,1.2c-0.8,0.1-1.6,0-2.5,0
	c-0.2,0-0.1-0.3-0.1-0.5c0.1-0.7,0.2-1.4,0.4-2.1c0.2-0.8-0.1-0.8-0.7-0.8c-2,0-4.1,0-6.1,0c-1.1,0-1.5-0.4-1-1.4
	c0.4-0.9,0.5-1.8,0.7-2.7c0.1-0.7,0.4-0.9,1.1-0.9c1.5,0,1.5,0,1.1-1.5c-0.7-2.5-1.3-5.1-2-7.6c0-0.1-0.1-0.2-0.2-0.6
	c-2.2,3.3-4.2,6.4-6.4,9.6c0.3,0,0.4,0,0.5,0.1c1.8,0.1,1.8,0.1,1.4,1.9c-0.2,0.9-0.6,1.7-0.5,2.6c0,0.3-0.1,0.5-0.5,0.5
	c-3.5,0-7,0-10.7,0c0.9-1.4,1.8-2.6,2.6-3.9c3.3-5,6.7-10,10-14.9c0.3-0.4,0.6-0.7,1.2-0.7c1.9,0,3.9,0,5.8,0c0.6,0,0.8,0.2,0.9,0.7
	c0.5,1.9,1,3.9,1.5,5.8C22.1,31,22.3,31.4,22.6,31.8z M31.9,38.6c1.1-0.1,2.6,0.1,4-0.1c0.9-0.2,1.7-0.9,1.5-1.6
	c-0.2-0.9-0.9-1-1.7-1c-2,0-4,0-6,0c-1.9,0-1.8,0-2.1,1.9c-0.1,0.6,0,0.9,0.7,0.9C29.4,38.6,30.5,38.6,31.9,38.6z M33.7,29
	c-0.9,0-1.7,0-2.6,0c-1.8,0-1.7,0-2.1,1.8c-0.2,0.7,0.1,0.9,0.7,0.8c2.3,0,4.6,0,6.9,0c0.3,0,0.7,0,1-0.1c0.7-0.3,1.2-0.8,1.1-1.5
	c-0.1-0.7-0.8-0.9-1.4-0.9C36.1,29,34.9,29,33.7,29z"/>
</svg>
