<svg id="Слой_1" data-name="Слой 1" xmlns="http://www.w3.org/2000/svg" viewBox="0 0 116.34 99.44"><defs><style>.cls-1{fill:#eab300;}</style></defs><title>bchsv</title><path class="cls-1" d="M91.36,11.71S60-14.64,29.5,11.71c0,0,3.36,3.55,13.46,3.74a32.5,32.5,0,0,1,9.9,3.93s12-6.55,22.8,2.8c0,0,1.5-9.35,7.11-3,0,0,1.49,8.6-2.06,10.28,0,0,3.55,6.17,1.12,12.71,0,0,2.43-5.8,4.68-5.24,0,0-1.31-5,2.61-7.47A9.62,9.62,0,0,1,90.43,22s-.93-5,.93-5.79S91.36,11.71,91.36,11.71Z"/><path class="cls-1" d="M29.5,26.67a31.05,31.05,0,0,0-6,27.28c3.92,16.64,26,23.74,26,23.74l-3,6.54-2.06-5S39.22,76,40.53,80.68l1.87,1.5.74,3.92s-3.36-4.48-5.6-4.86a3,3,0,0,0-3.18,1.5S33.05,84.42,37,85.17s3,3.17,3,3.17-9.16,0-8.6,3.93S37,91.33,37,91.33l6,.38-2.81,3.18s-2.43,5.23,2.62,4.48l2.06-4.48s4.11-2.43,4.67-3,2.24,3,4.48,2.24,1.69-3.74,1.69-3.74L51.37,87l4.36-1.87,10-5.8S84.64,79.56,96,60.68c0,0,7.85-8,5.23-26l3.55.38s-3.92,3.92,0,4.67,2.24-1.87,2.24-1.87a7.16,7.16,0,0,1,4.86,3.55s4.86.56,1.31-3.74l-3-.93a4.11,4.11,0,0,1,4.29-1.12c2.81.74,1.51-3.37,1.51-3.37s-2.25-.93-3.74.19,2-.94,1.87-2.62-2.43-1.31-2.43-1.31L109.87,31a1.76,1.76,0,0,1,.56-2.61c1.68-1.12-2.62-1.68-2.62-1.68s-1.87,1.3-.93,4.48c0,0-5-6.35-8.6-6.35,0,0-3.36-3.93-3.92-8s-1.13,9-1.13,9l-1-1.68L91,34.89l-1.31-2.8L87.63,42.18l-1.5-2.62L83,49.51l-1.12-3.22L76.41,57.7l-1.49-4.87s-3,.38-9,10.47-18-8-17-11c0,0-6.54,2.89-8.79-2.76,0,0-3.36-1.35-2.61-4.15,0,0-3.56-1.31-2.25-5.61L32.68,36.2,36,32.46s-.93-3.55,1.12-4.11S29.5,26.67,29.5,26.67Z"/><path class="cls-1" d="M62.92,43.06l2,4.84s3.73-1.62,3.73,1.61,1.49-3.22,1.49-3.22l1.86.45.62-2.07,1.25.38s1.11-2.49-3.86-5c0,0,.8,2.21-.53,2.1A7.73,7.73,0,0,1,66.4,40.7S68.64,45.29,62.92,43.06Z"/><path class="cls-1" d="M75.22,27.9c3.6,0,4.6-1,4.6-1V21.09c0-2.47-.75-1.14-.75-1.14.25,4.72-1,6-1,6s0,.62-5.47.49-5.71,3.23-5.71,3.23-3,2.49-4,1.49-2.48-1-3.91-.87-1.55-.62-1.55-.62l-.25-4.35C57,21,53.48,23.06,53.48,23.06l-.62-.87c-4.35-6.09-20-5.22-20-5.22A21.61,21.61,0,0,1,22.6,10c-.08,2.61,4.42,7.09,9.27,8.58a39.84,39.84,0,0,0,11.18,1.24,27.32,27.32,0,0,1,6.09,2.23c2.36,1.37-.25,1.5-.25,1.5-4.23-2.37-12.3-2.47-12.3-2.47-12.8-.85-18.63-8-18.63-8S22.3,22.69,33.11,24.3,44.91,29,44.91,29c-6.09.75-5.84,2.36-5.84,2.36,8.57.75,7.71,4.72,7.71,4.72-6.59-6.08-10.07,0-9.82,0a54.37,54.37,0,0,1,3.73,4c-1.87,0-2.49,2.1-2.49,2.1a2.27,2.27,0,0,1,3.48,1.38c-.74.37-1,2.48-1,2.48l1.24-.25c2,5.84,5.59,2.89,5.59,2.89L51,46.78l2.23.13a3.18,3.18,0,0,1-1.49,2.6c2.49,1.86,4.38-2.1,4.38-2.1s.1-5.22-1-6-1.74.74-1.74.74.25,1.38-2.73-1.48,0-3.6,0-3.6l2.6,2.48c1.12,1,4.23,1.12,4.23,1.12a12.88,12.88,0,0,0,2.61,8.81,12.65,12.65,0,0,1,2.85,8.19S61.81,61.32,59,60s-5.78-6.46-5.78-6.46c-2.11-.49-.12,2.11-.12,2.11L57,60.82a6.83,6.83,0,0,0,5.47,1.12c3.1-.75,2.85-5,2.85-5.34s-.49-2.73-3.72-10.31.62-7.83.62-7.83v2.11c1.37,0,2.61-3,2.61-3l.74,1.49,1.74-1.49L68.44,39l1.81-2.36,2.74,2L73.11,36H76l-.13-.84c-3.72-.47-2.73-3-2.73-3l-1-.13c-3.11-.49-1.74-3.1-1.74-3.1S71.62,27.9,75.22,27.9ZM53,34c-3.48,1.37-5.72-3-4.6-2.48s4.6-.87,4.6-.87S56.46,32.62,53,34Z"/><path class="cls-1" d="M21.81,23.56c.37.12,5,2.32,5,2.32s-8.2,8.06-10.07,18.2S6.53,52.87,6.53,52.87s-3.11-.74-4.1-3.3c0,0,4.72,2,6.58,0,0,0-14.66-1.58-6.58-12.7,0,0,1.29,16,13,4.64,0,0-10.81,7.33-9.44-6,0,0,5.22,7,10.19-.37Z"/></svg>