<svg id="Слой_1" data-name="Слой 1" xmlns="http://www.w3.org/2000/svg" viewBox="0 0 204.42 204.42"><defs><style>.cls-1{fill:#e18d4c;}.cls-2{font-size:13.68px;fill:#fff;font-family:Arial-Black, Arial Black;font-weight:800;}.cls-3{letter-spacing:0.02em;}.cls-4,.cls-5{fill:none;stroke:#334151;stroke-linecap:round;stroke-linejoin:round;}.cls-4{stroke-width:5px;stroke-dasharray:26.67 19.76;}.cls-5{stroke-width:10px;}</style></defs><title>bci</title><path class="cls-1" d="M109.7,87.89c-.07-3.46-2.76-6.24-7.38-6.31l-8.75-.13.11,12.38,8.75.13C107.21,94,109.77,91.34,109.7,87.89Z" transform="translate(-0.88 -0.79)"/><path class="cls-1" d="M104.29,103.87l-10.6-.17.1,7a10.52,10.52,0,0,0,10.51,10.09h.15c6.32.09,10.06-3.24,10-8.32S110.42,104,104.29,103.87Z" transform="translate(-0.88 -0.79)"/><path class="cls-1" d="M102.64,31.7C63.52,31.7,31.81,63.61,31.81,103s31.71,71.27,70.83,71.27,70.84-31.9,70.84-71.27S141.76,31.7,102.64,31.7Zm7.1,100.08.11,11.85-7.69-.12-.11-11.85-6-.1.11,11.86-7.91-.12-.11-11.86-15.6-.24,1.8-8.88,5.32.08a3,3,0,0,0,3-3.1l-.31-32.91a3.19,3.19,0,0,0-3.08-3.2l-7.2-.11L72,73.93l15.6.24-.12-11.85,7.64.11.39,11.86,6,.1-.11-11.86,7.68.12.12,11.86h.9c9.25.14,17.73,6.74,17.8,14.79.06,6.07-3.1,9.58-6.54,11.33,5.67,1.29,11.85,5.57,11.93,13.64C133.42,127.43,121.15,132,109.74,131.78Z" transform="translate(-0.88 -0.79)"/><text class="cls-2" transform="translate(71.37 156.04) scale(0.95 1)">Inte<tspan class="cls-3" x="29.65" y="0">r</tspan><tspan x="35.94" y="0">est</tspan></text><circle class="cls-4" cx="102.21" cy="102.21" r="81.28"/><circle class="cls-5" cx="102.21" cy="102.21" r="97.21"/></svg>