<svg id="Слой_1" data-name="Слой 1" xmlns="http://www.w3.org/2000/svg" viewBox="0 0 244.6 285.27"><defs><style>.cls-1{fill:#039684;}</style></defs><title>bcl</title><path class="cls-1" d="M244.6,76.44,122.77,2.27.47,70.73,0,213.36l121.83,74.18,122.3-68.46ZM159.07,172q-9.36,25.53-35.37,25.18-20.11-.26-29.63-16.22t-9.22-38.24q.34-26.67,11.55-40.44t29.07-13.54Q139.93,88.92,149,97a36.12,36.12,0,0,1,8.89,12.85,10.83,10.83,0,0,1-19.77,8.84q-3.67-8.23-12.55-8.35-8.07-.11-13.11,6.88t-5.25,23.7q-.24,18.49,4.58,26.19t13.06,7.8A13.16,13.16,0,0,0,135,170.65a18.3,18.3,0,0,0,3.57-6.18A10.77,10.77,0,0,1,151,157.68l.41.09A10.75,10.75,0,0,1,159.07,172Z" transform="translate(0 -2.27)"/></svg>