<svg id="Слой_1" data-name="Слой 1" xmlns="http://www.w3.org/2000/svg" viewBox="0 0 197.26 200.27"><defs><style>.cls-1{fill:#4b4a48;}.cls-2{fill:#f2c81e;}</style></defs><title>bcx</title><path class="cls-1" d="M130,195.38C78.42,212.4,22.51,183.56,5.16,131S15.6,21.91,67.22,4.89,174.75,16.71,192.09,69.31,181.66,178.36,130,195.38Z"/><path class="cls-2" d="M152.64,105c-6.16-8.28-16.55-10.7-16.55-10.7,4.42-4.21,8.33-6.74,10.39-10.45C153,72.13,148,59.52,141.78,53c-7.42-7.7-17.88-9.67-17.88-9.67L130,29.48H111.71l-6.1,13.86H84L79.57,29.48H61.84l5,13.86H39.12V59.41h9.42c9.42,0,10,7.2,10,7.2S57.4,125.35,57.4,132,53,139.2,53,139.2l-13.85-.55v18.28l22.51,1-5,12.83H75.41L79,158h32.69l5.54,12.75h16.63l-5-13.86c9-4.75,15.82-7.61,20.23-12.27C161.78,131.25,159.32,114,152.64,105ZM84.19,60.94s34.88-2.43,35,15.13C119.2,91.21,84.19,91.2,84.19,91.2Zm0,78.73V106.19s41.92-2.7,42,16.74C126.27,139.68,84.19,139.67,84.19,139.67Z"/></svg>