<svg id="Слой_1" data-name="Слой 1" xmlns="http://www.w3.org/2000/svg" viewBox="0 0 179.75 200"><defs><style>.cls-1{fill:#f44336;}</style></defs><title>beet</title><path class="cls-1" d="M179.75,40.61c-.31-.91,0-13.68,0-13.68L90,82.59S2.88,23.1,0,20.85V36.72l20.38,13-.31,22.51L0,84V98.57L19.77,86.84l-.91,41.67L0,140.68,81.2,200V184.17L19.46,141l8.82-5.78L88.2,176.56l59.91-38.93,9.43,6.7L94.59,184.78,94,200l85.77-54.76-21.6-14.6L159.37,89l20.38,13.7V88.3L159.37,74.37l.3-21.59S180.05,41.53,179.75,40.61ZM55.66,74.68,89.87,97.79l34.22-23.11v33.76L89.87,132.16,55.66,108.44Zm89.72,49.57L88.5,162,33.15,122.12V59.17l9.73,6.08-.6,48.66,47.59,32.54,46.38-31,1.22-47.75L146.9,61Z"/><path class="cls-1" d="M137.47,39.09V0L126,8.61,125.3,32.4l-3.65,2.66-31-21.51L60.22,33.62l-4.56-2.13V8.68L43.8,0V38.79L90,70.12ZM90,28.45l18.86,12.16L90.63,54,72.38,40.61Z"/></svg>