<svg id="Слой_1" data-name="Слой 1" xmlns="http://www.w3.org/2000/svg" viewBox="0 0 280.33 291.82"><defs><style>.cls-1{fill:#f0d140;}.cls-2{fill:#e9b929;}.cls-3{fill:#fadf3f;}</style></defs><title>bfg</title><polygon class="cls-1" points="68.51 32.46 79.25 33.65 71.78 41.45 73.97 52.04 64.23 47.34 54.85 52.69 56.31 41.98 48.31 34.71 58.95 32.79 63.4 22.94 68.51 32.46"/><polygon class="cls-1" points="22.15 99.32 32.89 100.5 25.42 108.31 27.61 118.89 17.87 114.19 8.48 119.55 9.95 108.84 1.95 101.56 12.59 99.64 17.04 89.79 22.15 99.32"/><polygon class="cls-1" points="20.2 180.81 30.94 182 23.46 189.81 25.66 200.39 15.92 195.69 6.53 201.05 7.99 190.34 0 183.06 10.64 181.14 15.09 171.29 20.2 180.81"/><polygon class="cls-1" points="68.51 245.72 79.25 246.91 71.78 254.71 73.97 265.3 64.23 260.6 54.85 265.95 56.31 255.24 48.31 247.97 58.95 246.05 63.4 236.2 68.51 245.72"/><polygon class="cls-1" points="145.64 271.58 156.38 272.77 148.9 280.58 151.09 291.16 141.36 286.46 131.97 291.82 133.43 281.11 125.44 273.83 136.07 271.91 140.52 262.06 145.64 271.58"/><polygon class="cls-1" points="223.23 245.72 233.97 246.91 226.5 254.71 228.69 265.3 218.95 260.6 209.56 265.95 211.03 255.24 203.03 247.97 213.67 246.05 218.12 236.2 223.23 245.72"/><polygon class="cls-1" points="269.59 180.81 280.33 182 272.86 189.81 275.05 200.39 265.31 195.69 255.93 201.05 257.39 190.34 249.39 183.06 260.03 181.14 264.48 171.29 269.59 180.81"/><polygon class="cls-1" points="269.59 101.27 280.33 102.46 272.86 110.26 275.05 120.85 265.31 116.15 255.93 121.5 257.39 110.79 249.39 103.52 260.03 101.6 264.48 91.75 269.59 101.27"/><polygon class="cls-1" points="223.23 32.46 233.97 33.65 226.5 41.45 228.69 52.04 218.95 47.34 209.56 52.69 211.03 41.98 203.03 34.71 213.67 32.79 218.12 22.94 223.23 32.46"/><polygon class="cls-1" points="145.87 9.52 156.61 10.71 149.14 18.52 151.33 29.1 141.59 24.4 132.21 29.75 133.67 19.05 125.67 11.77 136.31 9.85 140.76 0 145.87 9.52"/><path class="cls-2" d="M152.72,136.41c16.3,2.5,29.55,9.69,29.55,24.87,0,10.63-6.45,19.08-16.47,24.08-8.83,4.54-17.49,6.11-29.38,6.11H94.64v-4.38c14.44-1.26,15.29-2.66,15.29-15V109.35c0-13-1.53-14.08-15.29-15.18V89.79h44.5c12.73,0,20.71,2,26.15,5.48,5.94,3.75,10,9.54,10,17.52C175.31,127.49,162.23,134.22,152.72,136.41Zm-19.53-1.88c18.68,0,26.32-6.88,26.32-19.71,0-10.95-7.3-19.4-23.6-19.4-4.76,0-7.81.47-9.51,1.57-1.36.94-1.87,2.66-1.87,7.66v29.88Zm-8.66,37.23c0,11.26,2.89,14.07,14.95,14.07,13.24,0,26.15-6.56,26.15-23,0-16-12.23-22.84-32.95-22.84h-8.15Z" transform="translate(1.95)"/><path class="cls-3" d="M153.34,140.58c16.31,2.5,29.55,9.7,29.55,24.87,0,10.64-6.45,19.08-16.47,24.09-8.83,4.53-17.49,6.1-29.38,6.1H95.27v-4.38c14.43-1.25,15.28-2.66,15.28-15V113.52c0-13-1.53-14.08-15.28-15.18V94h44.49c12.73,0,20.72,2,26.15,5.47,5.94,3.75,10,9.54,10,17.52C175.93,131.66,162.85,138.39,153.34,140.58Zm-19.53-1.88c18.68,0,26.33-6.88,26.33-19.71,0-10.95-7.31-19.39-23.61-19.39-4.75,0-7.81.47-9.51,1.56-1.36.94-1.87,2.66-1.87,7.66V138.7Zm-8.66,37.23c0,11.26,2.89,14.08,14.95,14.08,13.24,0,26.15-6.57,26.15-23,0-15.95-12.23-22.83-32.94-22.83h-8.16Z" transform="translate(1.95)"/></svg>