<?xml version="1.0" encoding="utf-8"?>
<!-- Generator: Adobe Illustrator 23.0.2, SVG Export Plug-In . SVG Version: 6.00 Build 0)  -->
<svg version="1.1" id="Layer_1" xmlns="http://www.w3.org/2000/svg" xmlns:xlink="http://www.w3.org/1999/xlink" x="0px" y="0px"
	 viewBox="0 0 64 64" style="enable-background:new 0 0 64 64;" xml:space="preserve">
<style type="text/css">
	.st0{fill:#323C71;}
	.st1{fill:#0CCFF3;}
	.st2{fill:#067BE5;}
</style>
<g>
	<path class="st1" d="M0.1,37C0,36.6,0,36.2,0,35.7C0,28.4,0,21,0,13.6c0-0.4,0.1-0.5,0.5-0.5c0.5,0,1.1,0,1.6,0
		c0.4,0,0.5,0.1,0.5,0.5c0,4.3,0,8.6,0,13c0,0.1,0,0.3,0,0.5c0.5-0.5,0.9-1.1,1.3-1.5c0.9-1,1.9-1.8,3.1-2.5
		c1.1-0.6,2.3-1.2,3.5-1.5c1.2-0.3,2.5-0.6,3.7-0.6c4.6,0,8.4,1.7,11.4,5.2c1.1,1.3,1.9,2.8,2.7,4.2c0.4,0.7,0.9,1.4,1.3,2.1
		c0,0.1,0.1,0.1,0.1,0.2c0,0.1,0,0.2,0.1,0.3c0,0,0,0,0,0c-0.2,0.4,0.3,0.4,0.4,0.6c0,0,0,0,0,0c0,0.4-0.3,0.8-0.8,0.8
		c-0.3,0-0.6,0-0.9,0c0,0,0,0,0,0c0-0.1,0-0.3-0.2-0.3c-0.2,0-0.4,0.1-0.5,0.3c0,0.1,0,0.3-0.1,0.4c-1-1.7-2-3.4-2.9-5.1
		c-1.5-2.6-3.7-4.5-6.6-5.4c-2.3-0.8-4.7-0.8-7-0.2c-2.7,0.7-4.8,2.3-6.5,4.5c-0.7,0.9-1.2,1.9-1.6,2.9c-0.5,1.5-0.8,3.1-0.6,4.8
		c0,0.1,0,0.2,0,0.3c-0.1-0.1-0.1-0.3-0.1-0.4c0-0.6,0-1.2,0-1.7c-0.2,0.6,0.1,1.2-0.4,1.8c-0.1-0.6-0.4-0.6-0.8-0.6
		c-1,0-0.8,0.1-1-0.5c0,0,0,0-0.1,0C0.4,35.7,0.2,36.4,0.1,37z M27.9,34.1c0-0.2,0.4-0.2,0.2-0.5c0-0.1-0.1-0.1-0.2,0
		C27.8,33.8,27.9,34,27.9,34.1z"/>
	<path class="st2" d="M0.1,37c0-0.6,0.3-1.3,0.1-1.9c0.1,0,0.1,0,0.1,0c0.1,0.6,0,0.5,1,0.5c0.4,0,0.7,0,0.8,0.6
		c0.5-0.6,0.2-1.3,0.4-1.8c0,0.6,0,1.2,0,1.7c0,0.1-0.1,0.3,0.1,0.4c0.3,2.6,1.3,5,3.1,6.9c1.9,2.1,4.3,3.3,7.1,3.7
		c1.9,0.3,3.8,0.1,5.6-0.5c3.8-1.4,6.4-4,7.6-7.9c0,0,0-0.1,0-0.1c0,0,0,0,0.1-0.1c0.2,0.3,0.4,0.6,0.6,0.9c0.3,0.5,0.6,1.1,0.9,1.6
		c0.1,0.2,0.1,0.4,0,0.6c-0.6,1.2-1.4,2.2-2.2,3.2c-1,1.1-2,2-3.3,2.8c-2.7,1.7-5.7,2.4-8.9,2.1c-5-0.5-8.8-2.9-11.4-7.2
		C0.9,40.8,0.3,39,0.1,37z"/>
	<path class="st2" d="M27.9,34.8c0.1-0.1,0.1-0.3,0.1-0.4c0.1-0.2,0.2-0.3,0.5-0.3c0.2,0,0.2,0.2,0.2,0.3c-0.1,0-0.1,0-0.2,0
		c-0.1,0-0.1,0.1-0.1,0.2c0,0.1,0.1,0.1,0.1,0.1c0.1,0,0.2,0,0.2-0.2c0-0.1,0-0.1,0-0.2c0.3,0,0.6,0,0.9,0c0.4,0,0.7-0.3,0.8-0.8
		c0.5,0.7,0.9,1.5,1.3,2.2c1,1.7,2,3.4,2.9,5.2c1.9,3.4,4.8,5.5,8.7,6c4.9,0.7,8.8-1.1,11.8-5.1c0.2-0.3,0.3-0.3,0.6-0.1
		c0.4,0.4,0.8,0.9,1.3,1.3c0.2,0.2,0.2,0.3,0.1,0.6c-1.2,1.7-2.8,3.1-4.6,4.1c-1.6,0.9-3.2,1.5-5,1.7c-3.5,0.5-6.8-0.2-9.9-2
		c-2-1.2-3.6-2.9-4.8-4.9c-1.5-2.5-3.1-5-4.5-7.6C28,35,28,34.9,27.9,34.8z"/>
	<path class="st1" d="M33.5,32.5c-0.6-1-1.1-1.9-1.6-2.8c-0.1-0.1,0-0.3,0-0.4c1.1-2.2,2.6-4,4.6-5.5c1.9-1.4,4-2.3,6.4-2.6
		c2.3-0.3,4.5-0.2,6.7,0.6c0.8,0.3,1.7,0.6,2.4,1c1.8,1,3.3,2.3,4.6,3.9c0.2,0.2,0.2,0.3,0,0.5c-0.5,0.4-0.9,0.9-1.3,1.3
		c-0.2,0.2-0.3,0.2-0.5,0c-1.4-1.9-3.2-3.3-5.3-4.1c-2-0.8-4.2-1-6.3-0.6c-2.4,0.4-4.5,1.5-6.3,3.1c-1.3,1.2-2.3,2.8-2.9,4.5
		C33.8,31.7,33.7,32.1,33.5,32.5z"/>
	<path class="st1" d="M45.5,13c1.7,0.1,3.6,0.3,5.5,0.8c1.9,0.5,3.7,1.2,5.5,2.2c2.6,1.5,4.8,3.4,6.7,5.6c0.3,0.3,0.5,0.6,0.8,0.9
		c0.1,0.2,0.2,0.4,0.1,0.6c-0.2,0.1-0.3-0.1-0.5-0.2c-1.1-1.4-2.3-2.7-3.6-3.9c-1.5-1.3-3.1-2.3-4.8-3.2c-1.6-0.7-3.2-1.3-4.9-1.7
		c-0.8-0.2-1.7-0.3-2.6-0.4c-1.5-0.2-2.9-0.2-4.4-0.1c-1.4,0.1-2.9,0.3-4.3,0.8c-0.8,0.2-1.6,0.4-2.4,0.8c-0.2,0.1-0.4,0-0.4-0.1
		c-0.1-0.2,0.1-0.3,0.3-0.4c0.6-0.2,1.2-0.5,1.9-0.7C40.6,13.3,42.9,13.1,45.5,13z"/>
	<path class="st1" d="M60.9,23.7c0,0.1,0,0.2-0.1,0.2c-0.2,0-0.3,0-0.4-0.1c-0.3-0.4-0.5-0.7-0.8-1c-1.4-1.6-2.9-2.9-4.7-4
		c-1.2-0.7-2.4-1.2-3.7-1.6c-1.6-0.5-3.2-0.7-4.8-0.9c-1.7-0.2-3.3,0.1-5,0.4c-1,0.2-1.9,0.5-2.8,0.8c-0.2,0.1-0.4,0.2-0.5-0.1
		c-0.1-0.3,0.1-0.3,0.3-0.4c1.5-0.6,3-1,4.6-1.2c1.4-0.2,2.7-0.2,4.1-0.1c2,0.2,4,0.7,5.9,1.5c2.4,1.1,4.6,2.5,6.4,4.5
		c0.5,0.6,1,1.1,1.5,1.8C60.9,23.5,61,23.6,60.9,23.7z"/>
	<path class="st1" d="M45.2,18.8c-1.7-0.1-3.5,0.3-5.2,0.9c-0.2,0.1-0.5,0.2-0.6,0c-0.1-0.2,0.2-0.4,0.4-0.5
		c0.7-0.3,1.5-0.5,2.2-0.7c1.1-0.2,2.2-0.4,3.3-0.3c3.7,0.1,7.2,1.1,10.1,3.5c1,0.8,1.9,1.8,2.7,2.8c0.2,0.2,0.4,0.5,0.2,0.7
		c-0.3,0.2-0.4-0.2-0.6-0.3c-1.4-1.8-3-3.2-4.9-4.3c-1.3-0.7-2.6-1.2-4.1-1.5C47.6,18.9,46.5,18.7,45.2,18.8z"/>
	<path class="st2" d="M30.4,33.7c-0.1-0.2-0.6-0.2-0.4-0.6C30.2,33.2,30.3,33.4,30.4,33.7z"/>
	<path class="st2" d="M30,33.1c-0.1-0.1-0.1-0.2-0.1-0.3C29.9,32.9,30,33,30,33.1z"/>
	<path class="st2" d="M27.9,34.1c-0.1-0.2-0.2-0.4,0-0.5c0.1,0,0.1,0,0.2,0C28.3,33.9,28,34,27.9,34.1z"/>
	<path class="st1" d="M28.7,34.4c0,0.1,0,0.1,0,0.2c0,0.1-0.1,0.2-0.2,0.2c-0.1,0-0.1,0-0.1-0.1c0-0.1,0-0.2,0.1-0.2
		C28.6,34.5,28.6,34.5,28.7,34.4C28.7,34.4,28.7,34.4,28.7,34.4z"/>
</g>
</svg>
