<?xml version="1.0" encoding="utf-8"?>
<!-- Generator: Adobe Illustrator 24.0.1, SVG Export Plug-In . SVG Version: 6.00 Build 0)  -->
<svg version="1.1" id="Layer_1" xmlns="http://www.w3.org/2000/svg" xmlns:xlink="http://www.w3.org/1999/xlink" x="0px" y="0px"
	 viewBox="0 0 50.4 45.7" style="enable-background:new 0 0 50.4 45.7;" xml:space="preserve">
<style type="text/css">
	.st0{fill:#8B5BFC;}
</style>
<title>bc-logo-mono</title>
<g id="Layer_2_1_">
	<g id="New-PAge-Live">
		<path class="st0" d="M42.3,3.3C38.1-1,31.1-1.1,26.8,3.1c-2.1,2.1-3.3,4.9-3.3,7.9c0,6.1,4.9,11,10.9,11c-0.6-2.2-1.8-4-3.6-5.3
			l0,0c-3.1-2-4-6.2-2-9.3s6.2-4,9.3-2s4,6.2,2,9.3c0,0,0,0.1-0.1,0.1c0.6,0.9,1,1.8,1.4,2.7c0.2,0.5,0.4,1,0.5,1.5
			c1.7-1.6,2.8-3.6,3.2-5.9c0.8-2.8,2.6-5.2,5.1-6.7C47.4,6.4,44.5,5.3,42.3,3.3z"/>
		<path class="st0" d="M40.9,24.4c0-6.8-4.4-12.9-10.9-15c-0.7,2,0,4.2,1.7,5.4c5.2,3.5,6.6,10.7,3,15.9c-3.5,5.2-10.7,6.6-15.9,3
			s-6.6-10.7-3-15.9c1.4-2.1,3.5-3.7,5.9-4.5c-0.3-1.4-0.3-2.9-0.1-4.3c-8.1,2-13.3,10-11.7,18.3l-5.5,1.3c0.4,2,2.3,3.4,4.3,3.2
			l2.5-0.6c0.3,0.6,0.7,1.2,1.1,1.8l-10,2.4c0.5,2.1,2.5,3.5,4.7,3.1l0.1,0l8.4-2c0.7,0.5,1.4,1,2.2,1.5L0,42.5
			c0.4,1.6,1.6,2.8,3.1,3.1c0.5,0.1,0.9,0.1,1.4,0.1l24.3-6l0,0C35.9,38,40.9,31.7,40.9,24.4z"/>
	</g>
</g>
</svg>
