<svg width="16" height="18" viewBox="0 0 16 18" fill="none" xmlns="http://www.w3.org/2000/svg">
<path d="M2.09365 3.31875C2.85303 2.89688 3.6124 2.475 4.34365 2.05313C5.49678 1.40625 6.6499 0.731255 7.80303 0.0843796C7.94365 4.54858e-06 8.02803 0.0281296 8.16865 0.0843796C10.6437 1.49063 13.1187 2.89688 15.6218 4.30313C15.8468 4.44375 15.9593 4.58438 15.9593 4.86563C15.9312 5.82188 15.9593 6.80625 15.9593 7.7625C15.9593 8.4375 15.9593 9.08438 15.9312 9.75938C15.9312 10.9125 15.9312 12.0656 15.9312 13.2469C15.9312 13.4438 15.8749 13.5563 15.7062 13.6688C13.1749 15.1031 10.6718 16.5375 8.14053 17.9719C7.9999 18.0563 7.91553 18.0281 7.80303 17.9438C5.49678 16.6219 3.19053 15.3 0.856152 13.9781C0.659277 13.8656 0.462402 13.725 0.265527 13.6406C0.124902 13.5844 0.0967773 13.5 0.0405273 13.3875C0.0405273 13.3594 0.0405273 13.3594 0.0405273 13.3313C0.0686523 13.2469 0.0686523 13.1906 0.0405273 13.1063C0.0686523 12.6563 0.0686523 12.2063 0.0405273 11.7281C0.0686523 11.5875 0.0686523 11.4188 0.0405273 11.2781C0.0686523 10.8563 0.0686523 10.4344 0.0405273 10.0125C0.0686523 9.81563 0.0686523 9.59063 0.0405273 9.39375C0.0405273 8.38126 0.0405273 7.39688 0.0686523 6.38438C0.0686523 5.82188 0.0686523 5.2875 0.0686523 4.725C0.0686523 4.52813 0.124902 4.41563 0.293652 4.33125C0.687402 4.13438 1.08115 3.88125 1.4749 3.65625C1.6999 3.57188 1.89678 3.45938 2.09365 3.31875ZM14.3562 4.3875C14.328 4.3875 14.328 4.35938 14.2999 4.35938C14.2999 4.33125 14.2718 4.33125 14.2437 4.33125C14.103 4.21875 13.9343 4.13438 13.7655 4.05C13.7374 4.02188 13.7374 4.02188 13.7093 3.99375C11.853 2.925 9.99678 1.88438 8.14053 0.81563C7.9999 0.731255 7.91553 0.75938 7.80303 0.81563C6.67803 1.4625 5.55303 2.08125 4.45615 2.72813C3.2749 3.40313 2.06553 4.05 0.912402 4.78125C0.715527 4.80938 0.743652 4.95 0.743652 5.09063C0.743652 7.67813 0.743652 10.2656 0.743652 12.8813C0.743652 13.1063 0.799902 13.2188 1.0249 13.2469C1.05303 13.275 1.05303 13.3031 1.08115 13.3031C3.33115 14.5969 5.58115 15.8625 7.83115 17.1563C7.9999 17.2406 8.08428 17.2125 8.2249 17.1281C10.4749 15.8063 12.753 14.5125 15.0312 13.2188C15.1999 13.1344 15.1999 13.0219 15.1999 12.8531C15.1999 10.2656 15.1999 7.67813 15.1999 5.11875C15.1999 5.03438 15.2562 4.92188 15.1437 4.86563C14.9749 4.78125 14.8062 4.66875 14.6374 4.58438C14.5812 4.47188 14.4687 4.41563 14.3562 4.3875Z" fill="#0059F3"/>
<path d="M4.14648 6.94689C4.31523 6.21564 4.48398 5.48439 4.62461 4.72501C4.68086 4.47189 4.76523 4.21876 4.82148 3.96564C4.87773 3.79689 4.99023 3.88126 5.07461 3.88126C6.45274 3.88126 7.85899 3.88126 9.23711 3.88126C9.79961 3.88126 10.334 3.88126 10.8965 3.88126C11.0652 3.88126 11.1215 3.93751 11.1496 4.07814C11.3746 4.97814 11.5715 5.90626 11.7965 6.80626C11.8527 7.03126 11.7402 7.00314 11.5996 7.00314C10.5027 7.00314 9.40586 7.00314 8.33711 7.00314C6.95899 7.00314 5.55273 7.00314 4.17461 7.00314C4.14648 7.00314 4.14648 6.97501 4.14648 6.94689Z" fill="#0059F3"/>
<path d="M4.93457 14.5406C4.79395 14.4844 4.76582 14.3437 4.68145 14.2312C3.8377 12.7969 3.02207 11.3906 2.20645 9.95623C2.1502 9.84373 2.06582 9.73123 1.98145 9.61873C2.6002 9.16873 3.21895 8.71873 3.80957 8.26873C4.00645 8.1281 4.14707 8.07185 4.34395 8.2406C4.42832 8.29685 4.5127 8.3531 4.59707 8.40935C4.65332 8.43748 4.68145 8.4656 4.7377 8.49373C4.82207 8.54998 4.87832 8.5781 4.9627 8.63435C5.21582 8.8031 5.46895 8.97185 5.72207 9.11248C5.8627 9.19685 5.89082 9.30935 5.91895 9.44998C5.91895 10.0687 5.89082 10.6875 5.94707 11.2781C5.9752 11.3062 5.9752 11.3344 6.00332 11.3625C6.39707 11.7281 6.7627 12.1219 7.15645 12.4875C7.4377 12.7406 7.40957 13.1906 7.12832 13.4437C6.7627 13.8094 6.34082 14.1187 6.00332 14.5125C5.66582 14.5406 5.3002 14.5406 4.93457 14.5406Z" fill="#0059F3"/>
<path d="M9.99689 9.36562C10.025 9.25312 10.1094 9.225 10.1656 9.16875C10.6719 8.85937 11.1781 8.52187 11.6844 8.18437C11.7969 8.1 11.8813 8.1 11.9938 8.18437C12.5844 8.63437 13.1469 9.05625 13.7375 9.47812C13.9063 9.59062 13.8781 9.70313 13.7938 9.81563C13.3156 10.6594 12.8094 11.5031 12.3031 12.375C11.9375 13.0219 11.5438 13.6406 11.2063 14.2875C11.1219 14.4281 11.0094 14.4844 10.8406 14.4844C9.91252 14.4844 9.91252 14.4844 9.26564 13.8656C9.15314 13.7531 9.04064 13.6406 8.92814 13.5562C8.67502 13.3875 8.56252 13.1625 8.59064 12.825C8.61877 12.6844 8.64689 12.6 8.73127 12.5156C9.12502 12.0937 9.57502 11.7562 9.94064 11.3344C10.025 10.7156 9.96877 10.0687 9.96877 9.45C9.99689 9.42187 9.99689 9.39375 9.99689 9.36562Z" fill="#0059F3"/>
<path d="M9.32207 11.1938C8.4502 11.1938 7.57832 11.1938 6.70645 11.1938C6.48145 11.1938 6.39707 11.1938 6.45332 10.9125C6.5377 10.3781 6.56582 9.84376 6.62207 9.30939C6.62207 9.28126 6.62207 9.22501 6.59395 9.19689C6.45332 8.85939 6.34082 8.49376 6.17207 8.18439C6.0877 7.95939 6.00332 7.73439 5.91895 7.50939C5.94707 7.50939 5.94707 7.48126 5.94707 7.48126C7.24082 7.48126 8.53457 7.48126 9.8002 7.48126C9.96895 7.50939 9.9127 7.59376 9.88457 7.70626C9.74395 8.04376 9.65957 8.43751 9.4627 8.74689C9.20957 9.22501 9.32207 9.70314 9.37832 10.1813C9.40645 10.4906 9.43457 10.8281 9.4627 11.1375C9.4627 11.1938 9.40645 11.1938 9.37832 11.2219C9.40645 11.1938 9.37832 11.1938 9.32207 11.1938Z" fill="#0059F3"/>
</svg>
