<svg id="Слой_1" data-name="Слой 1" xmlns="http://www.w3.org/2000/svg" viewBox="0 0 88.23 88.58"><defs><style>.cls-1{fill:#ecb14e;}</style></defs><title>bnb</title><polygon class="cls-1" points="54.39 44.29 44.11 54.56 33.84 44.29 44.11 34.02 54.39 44.29 54.39 44.29"/><polygon class="cls-1" points="88.23 44.29 77.95 54.56 67.68 44.29 77.95 34.02 88.23 44.29 88.23 44.29"/><polygon class="cls-1" points="0 44.29 10.27 54.56 20.55 44.29 10.27 34.02 0 44.29 0 44.29"/><polygon class="cls-1" points="71.13 27.2 43.94 0 16.74 27.2 27.02 37.47 43.94 20.55 60.86 37.47 71.13 27.2 71.13 27.2"/><polygon class="cls-1" points="71.13 61.39 43.94 88.58 16.74 61.39 27.02 51.11 43.94 68.03 60.86 51.11 71.13 61.39 71.13 61.39"/></svg>