<svg id="Слой_1" data-name="Слой 1" xmlns="http://www.w3.org/2000/svg" viewBox="0 0 470.32 482.56"><defs><style>.cls-1,.cls-2,.cls-3,.cls-4{fill:#fff;stroke-miterlimit:10;stroke-width:7px;}.cls-1{stroke:#571b73;}.cls-2{stroke:#d832c5;}.cls-3{stroke:#1f297e;}.cls-4{stroke:#370d63;}.cls-5{fill:#5a5657;}</style></defs><title>bptn</title><path class="cls-1" d="M153.61,179.19l.3,39.58c1,.15,1.18.22,1.29.12l83.47-83.55,84.24,84.42a.24.24,0,0,0,.41-.17V177.76L239,93.88Z" transform="translate(0 -0.55)"/><path class="cls-2" d="M152.61,90.8l.3,39.58c1,.15,1.18.22,1.29.11L237.67,47l84.24,84.42a.24.24,0,0,0,.41-.17V89.37L238,5.49Z" transform="translate(0 -0.55)"/><path class="cls-3" d="M154.91,219.17l20-20L239,263l84.24-84.42a.24.24,0,0,1,.41.17V220.6l-84.35,83.88Z" transform="translate(0 -0.55)"/><path class="cls-4" d="M154.11,134.52l20-20,64,63.86L322.41,94a.24.24,0,0,1,.41.17V136l-84.35,83.88Z" transform="translate(0 -0.55)"/><path class="cls-5" d="M87.78,426s12-6.23,12-26.28-25-30.89-25-30.89H0V483.11H63.4S91,481.48,98.07,458.73,87.78,426,87.78,426ZM76.4,443.56c4.88,21.13-15.17,21.13-15.17,21.13H25.47V387.2H65s10.84-1.08,12.14,15.18-20.81,15.17-20.81,15.17v16.79C72.61,430.55,76.4,443.56,76.4,443.56Z" transform="translate(0 -0.55)"/><path class="cls-5" d="M126.25,368.78v21.68H188s18.42-.55,16.79,17.33-21.67,14.09-21.67,14.09l-56.89.34v60.89h27.36v-39l37.12,1.08s34.67-4.88,35.76-36.84-29.8-39.56-29.8-39.56Z" transform="translate(0 -0.55)"/><polygon class="cls-5" points="248.7 368.24 248.7 390.45 285.01 390.45 285.01 482.56 311.01 482.56 311.01 390.45 348.4 389.91 348.4 368.24 248.7 368.24"/><polygon class="cls-5" points="470.31 482.56 444.85 482.56 402.04 412.13 402.04 482.56 377.12 482.56 377.12 368.24 403.13 368.24 470.31 482.56"/><path class="cls-5" d="M444.85,406.71h25.47V368.78H444.85Z" transform="translate(0 -0.55)"/></svg>