<svg id="Слой_1" data-name="Слой 1" xmlns="http://www.w3.org/2000/svg" viewBox="0 0 242.78 242.37"><defs><style>.cls-1{fill:#b44e28;stroke-width:12px;}.cls-1,.cls-2,.cls-3{stroke:#e18d4c;stroke-miterlimit:10;}.cls-2{fill:#be592d;}.cls-2,.cls-3{stroke-width:2px;}.cls-3{fill:none;stroke-dasharray:4.99 2;}</style></defs><title>brb</title><path class="cls-1" d="M152.23,232.12c-61.39,17.07-125-18.76-142-80S29.16,27.32,90.55,10.25s125,18.76,142,80-18.93,124.77-80.32,141.84Z"/><path class="cls-2" d="M126.56,154.73l-19-.41.53-32,19.17.41c11.08.24,17.93,6.79,17.81,16.39S138,155,126.56,154.73M109.15,80.34l15.82.35c8.36.18,13.07,5.44,13,12s-4.87,11.58-13.5,11.39l-15.82-.34.51-23.36ZM154.83,113c6.32-3.28,12.24-9.86,12.48-21.32C167.64,76.54,152.69,64,136,63.64l-1.64,0,.49-22.37-13.9-.31-.49,22.37-10.88-.23,0-22.38-13.8-.3-.48,22.37-28.19-.61-.38,17.28,13,.28a5.74,5.74,0,0,1,5.38,6.06l-1.34,62.09a5.75,5.75,0,0,1-5.65,5.83l-9.62-.21-3.75,16.74,28.19.61-.48,22.37,14.3.31.48-22.37,10.88.24-.48,22.36,13.9.31.48-22.37c20.64.44,43.08-8,43.62-32.79.33-15.23-10.61-23.36-20.78-25.85"/><line class="cls-3" x1="46.39" y1="67.22" x2="46.39" y2="167.22"/><line class="cls-3" x1="190.39" y1="67.22" x2="190.39" y2="167.22"/></svg>