<?xml version="1.0" encoding="utf-8"?>
<!-- Generator: Adobe Illustrator 23.0.1, SVG Export Plug-In . SVG Version: 6.00 Build 0)  -->
<svg version="1.1" id="Слой_1" xmlns="http://www.w3.org/2000/svg" xmlns:xlink="http://www.w3.org/1999/xlink" x="0px" y="0px"
	 viewBox="0 0 388.49 388.49" style="enable-background:new 0 0 388.49 388.49;" xml:space="preserve">
<style type="text/css">
	.st0{fill:#F79822;}
	.st1{fill:#FFFFFF;}
</style>
<circle class="st0" cx="194.25" cy="194.25" r="194.25"/>
<path class="st1" d="M253.25,194.25c0,0,34.72,2.67,26.88-43.22c-0.91-5.32-3.02-10.36-6.16-14.75c0,0-9.73-16.02-36.73-21.02l9-33
	l-22-8l-9,34l-16-3l9-31l-20.98-7l-10.02,33l-43-10l-6,23l16.94,3.76c5.54,1.23,9,6.75,7.69,12.27l-22.49,94.95
	c-1.18,4.97-6.17,8.05-11.14,6.85l-15.99-3.84l-10,25l37,10l-13,49l27,7l33-114l17,4l-32,116l24,8l33-121c0,0,15,22,20,59
	s12,62,12,62h22l-11-106C262.25,226.25,260.25,206.25,253.25,194.25z M235.23,170.11c-9.79,19.57-52.6,3.67-52.6,3.67l9.38-42.82
	l25.91,7.7c5.14,1.53,9.89,4.23,13.61,8.09C236.43,151.85,240.43,159.72,235.23,170.11z"/>
</svg>
