<svg id="Слой_1" data-name="Слой 1" xmlns="http://www.w3.org/2000/svg" viewBox="0 0 120.34 120.34"><defs><style>.cls-1{fill:#e18d4c;}.cls-2{fill:#fff;}</style></defs><title>btc</title><path class="cls-1" d="M60.17,120.34a60.17,60.17,0,1,1,60.17-60.17,60.17,60.17,0,0,1-60.17,60.17Z"/><path class="cls-2" d="M59.44,80.22,50.2,77.74l4.09-15.57,9.32,2.5c5.38,1.44,8,5.46,6.74,10.14S65,81.71,59.44,80.22m.39-38.44,7.69,2.06c4.07,1.09,5.74,4.22,4.92,7.4s-3.76,5.08-8,3.95l-7.69-2.06,3-11.35ZM78.25,63.22c3.47-.84,7.16-3.35,8.65-8.92,2-7.38-3.83-15.3-12-17.47l-.79-.22,2.91-10.87L70.3,23.93,67.39,34.8,62.1,33.38l2.67-10.94-6.71-1.79L55.15,31.52,41.44,27.85l-2.25,8.4,6.33,1.69a2.89,2.89,0,0,1,1.9,3.61L39.33,71.73a2.87,2.87,0,0,1-3.45,2.17L31.2,72.65l-3.84,7.73,13.71,3.68L38.16,94.93l7,1.86L48,85.92l5.29,1.42L50.4,98.21,57.15,100l2.92-10.87c10,2.69,22,1.26,25.24-10.81,2-7.4-2.39-12.68-7.06-15.12"/></svg>