<svg id="Слой_1" data-name="Слой 1" xmlns="http://www.w3.org/2000/svg" viewBox="0 0 198.94 198.94"><defs><style>.cls-1{fill:#272d63;}.cls-2{fill:#fff;}.cls-3{fill:#fefefe;}</style></defs><title>btcp</title><circle class="cls-1" cx="99.47" cy="99.47" r="99.47"/><path class="cls-2" d="M155.31,72c-7.28-13.26-24.39-18.4-24.39-18.4l4.28-21.39-12-3.42-6.42,21-10.27-2.56,4.28-21.4L99.28,22.33,92.42,44.58l-26.1-7.27L62,53.13l11.74,3.16a6,6,0,0,1,4.28,7.36l-15.4,58.66a4.21,4.21,0,0,1-5,3l-10.54-2.48-6.85,16.26,27,6.42L62,168.65l14.12,3.85,17.11-68.45a175.75,175.75,0,0,0,36.37,3.85c20.11,0,25.67-12.84,25.67-12.84S162.58,85.22,155.31,72ZM130.07,84.37c-.86,11.12-18.4,9-18.4,9l-15.4-3.42,6.84-26.1A100.91,100.91,0,0,1,113.21,66c4.54,1.28,12.15,5.56,12.15,5.56S130.92,73.24,130.07,84.37Z"/><path class="cls-3" d="M85.76,175l10.51-39.29,14.12,2.13s14.11.43,15.4-9.41a17.34,17.34,0,0,0-6-15.4s18,0,26.52-4.71c0,0,9.84,3.43,8.13,18.4s-5.13,17.11-5.13,17.11-1.11,9.42-19.17,13.7c0,0-12.92.85-24.47-2.14l-6.3,21.82Z"/></svg>