<svg id="Слой_1" data-name="Слой 1" xmlns="http://www.w3.org/2000/svg" viewBox="0 0 188.74 181.87"><defs><style>.cls-1{fill:#444;}.cls-2{fill:#fbd042;}.cls-3{fill:#42a9ca;stroke:#4190a8;}.cls-3,.cls-5{stroke-miterlimit:10;}.cls-4{fill:#ecca59;}.cls-5{fill:none;stroke:#ecca59;stroke-width:12px;}</style></defs><title>btcz</title><ellipse class="cls-1" cx="94.37" cy="90.93" rx="94.37" ry="90.93"/><path class="cls-2" d="M122.53,98.92a16.37,16.37,0,0,0-13.64-9.38h0c7.64-10.41,7.64-17.82-.23-26.62,0,0-4.16-3.13-7.05-3.13a57.88,57.88,0,0,0-10.47,1.13l-2.56.59L86.1,51.37,75.53,53.65,78,63.93l-7.32,1.68a10.87,10.87,0,0,0-8.19,12.85L71.74,122c1.06,5,6.23,9.72,11.22,8.52L93.39,128l2.28,9.47,10.65-3-2.21-9.07,2.69-.65c5.65-1.36,9.72-1.39,16.45-10A21.5,21.5,0,0,0,122.53,98.92ZM78.75,84.8l-.36-1.59a5.09,5.09,0,0,1,3.81-6.1l10.16-2.34a5.09,5.09,0,0,1,6.1,3.82l.37,1.59A5.09,5.09,0,0,1,95,86.28L84.85,88.62A5.09,5.09,0,0,1,78.75,84.8Zm22,26.15-10.16,2.34a5.09,5.09,0,0,1-6.1-3.82l-.37-1.59a5.09,5.09,0,0,1,3.82-6.1l10.16-2.34a5.09,5.09,0,0,1,6.1,3.82l.36,1.59A5.09,5.09,0,0,1,100.7,111Z"/><path class="cls-3" d="M129.11,149.13a4.78,4.78,0,0,1,1.33-3.3l11.47-11.94c1.22-1.33,2.39-2.52,3.68-3.85v-.11H133.24a2.19,2.19,0,0,1-2.19-2.11h0a2.72,2.72,0,0,1,2.72-2.81h16a2.12,2.12,0,0,1,2.11,2.26l0,.48a4.72,4.72,0,0,1-1.33,3.76l-11.38,12.05c-1.17,1.38-2.34,2.62-3.62,3.9l1.71.11h12.17a2.65,2.65,0,0,1,2.65,2.65h0a2.28,2.28,0,0,1-2.3,2.28l-18.65-.15c-1.12,0-2-2.1-2-3.22Z"/><path class="cls-4" d="M94.35,169.43a78.5,78.5,0,1,1,78.52-78.16,77.8,77.8,0,0,1-3.71,23.57,5.19,5.19,0,0,1-6.86,3.26l-1.55-.62a5.15,5.15,0,0,1-3-6.34,66.52,66.52,0,1,0-63.4,46.29h1.3a66.27,66.27,0,0,0,20.11-3.5,5.15,5.15,0,0,1,6.39,2.89l.64,1.54a5.16,5.16,0,0,1-3.07,6.9,78.37,78.37,0,0,1-23.84,4.17Z"/><path class="cls-5" d="M-48.09,81.7"/><path class="cls-5" d="M-37.62,65"/></svg>