<svg id="Слой_1" data-name="Слой 1" xmlns="http://www.w3.org/2000/svg" viewBox="0 0 195.92 195.92"><defs><style>.cls-1{fill:#01206a;}.cls-2,.cls-3{fill:none;stroke-miterlimit:10;}.cls-2{stroke:#01206a;stroke-width:7px;}.cls-3{stroke:#fed801;stroke-width:19px;}</style></defs><title>btg</title><path class="cls-1" d="M126.54,96.2s5.51-3.37,4.29-18.08-19.62-16.85-19.62-16.85v-9.8H102V61.88l-7.35-.3V51.47H84.86V61.88H61.57l6.59,12.57h6.59v49.64h-7l-6.13,11.64,23.29.31.61,9.19H95V136l7.36-.31.61,9.5h9.19v-9.5c11,.31,15.33-3.67,15.33-3.67s6.43-2.76,8.58-16.24S126.54,96.2,126.54,96.2ZM87,73.83h24.82c18.69,8.58,0,19.92,0,19.92H87Zm30.95,50H87V103.87h30.61C134.17,113.67,118,123.78,118,123.78Z" transform="translate(-0.98 -0.39)"/><circle class="cls-2" cx="97.96" cy="97.96" r="63.38"/><circle class="cls-3" cx="97.96" cy="97.96" r="88.46"/></svg>