<?xml version="1.0" encoding="utf-8"?>
<!-- Generator: Adobe Illustrator 23.0.2, SVG Export Plug-In . SVG Version: 6.00 Build 0)  -->
<svg version="1.1" id="Layer_1" xmlns="http://www.w3.org/2000/svg" xmlns:xlink="http://www.w3.org/1999/xlink" x="0px" y="0px"
	 viewBox="0 0 64 64" style="enable-background:new 0 0 64 64;" xml:space="preserve">
<style type="text/css">
	.st0{fill:#FCFBFD;}
	.st1{fill:#68369A;}
</style>
<g>
	<circle class="st0" cx="32" cy="32" r="32"/>
	<g>
		<path class="st1" d="M60.9,26.8C58.3,8.9,39.4-2.4,22.4,3.9C10,8.5,2.2,20.7,3.3,34.1c0.7,8.9,4.6,16,11.7,21.4
			c1.2,1.1,2.6,2,4.2,2.4c-1.4-1-2.8-2.1-4.2-3.1c-0.3-0.3-0.5-0.6-0.8-0.9c-3.4-3.6-5.5-7.9-6-12.8c-1.3-13.7,9.1-26.5,22.8-28.1
			c3.2-0.4,3.1-0.4,3.2,2.8c0,1.2-0.3,1.5-1.5,1.6C19.6,18,7.7,32.4,15.5,47.8c2.4,4.7,6.1,8.3,11.2,10.2c3.9,1.8,8,2.3,12.2,2.3
			c0.6,0,1.2,0.1,2.1-0.4c-0.6-0.1-0.9-0.1-1.1-0.1c-4.1,0-8.2-0.7-12.1-2.1c-0.3-0.1-0.7-0.3-1-0.1c-1.5-0.7-2.8-1.7-4.1-2.8
			c-5.3-4.3-8.1-10-8-16.8C15,25.5,27.1,16.4,39.2,19.2c3.1,0.7,3.1,0.7,1.8,3.6c-0.1,0.2-0.2,0.3-0.2,0.5c-0.2,0.7-0.6,0.8-1.3,0.6
			c-2.5-0.9-5.1-1-7.6-0.5c-6,1.2-9.9,5-11.7,10.7c-1.8,5.8-0.4,11.2,3.8,15.7c1.7,1.8,3.7,3.1,6,4.1c0.3,0.1,0.7,0.4,0.9-0.1
			c0.2-0.4-0.3-0.5-0.6-0.7c-0.9-0.6-1.8-1.1-2.7-1.7c-4.8-3.7-7.5-8.5-6.3-14.7c1.1-5.8,4.5-9.9,10.3-11.4
			c5.7-1.4,10.5,0.3,14.3,4.9c1.4,1.8,1.4,1.8-0.6,2.9c-0.4,0.2-0.8,0.4-1.2,0.7c-0.6,0.4-1,0.3-1.3-0.3c-0.7-1.1-1.6-1.9-2.7-2.6
			c-4-2.5-9.3-1.7-12.2,1.8c-3.1,3.8-3,9.4,0.3,13c2.7,3,6.2,4.6,10.1,5.3c4.6,0.8,9.3,0.5,13.9,0.2c2.1-0.1,3.2-1.1,4.3-2.7
			C60.5,41.8,62,34.6,60.9,26.8z"/>
		<path class="st1" d="M44.1,55.8c-3.1,0-6.2-0.3-9.3-0.9c-0.2-0.2-0.4-0.3-0.7-0.2c-0.4-0.1-0.8-0.2-1.2-0.3
			C32.6,54.1,32.3,54,32,54c-0.3-0.2-0.7-0.4-0.8,0.1c-0.1,0.4,0.4,0.5,0.7,0.6c0.2,0.1,0.3,0.1,0.5,0.2c1.7,0.6,3.4,1.1,5.3,1.2
			c0.2,0.2,0.3,0.2,0.5,0.1c0.9,0.2,1.8,0.3,2.7,0.2c0.7,0.3,1.4,0.3,2.1,0c0.4,0,0.7,0,1.1,0c1.8,0.1,3.5-0.2,5.2-0.5
			c0-0.1,0-0.3,0-0.4C47.5,55.5,45.8,55.7,44.1,55.8z"/>
	</g>
</g>
</svg>
