<svg id="Слой_1" data-name="Слой 1" xmlns="http://www.w3.org/2000/svg" viewBox="0 0 163.85 188.87"><defs><style>.cls-1{fill:#6e4e92;}.cls-2{fill:#542784;}.cls-3{fill:#b3b3b3;}.cls-4{fill:#e6e6e6;}.cls-5{fill:#f2f2f2;}.cls-6{fill:#f0f0f1;}.cls-7{fill:#6b4192;}</style></defs><title>btw</title><polygon class="cls-1" points="0 46.9 0 141.97 81.92 188.87 81.92 138.42 81.92 93.29 40.96 70.09 0 46.9"/><polygon class="cls-2" points="163.84 46.9 163.84 141.97 81.92 188.87 81.92 138.42 81.92 93.29 122.88 70.09 163.84 46.9"/><polygon class="cls-3" points="0 93.23 40.96 70.09 1.2 47.58 0 46.9 0 93.23"/><polygon class="cls-3" points="163.84 93.26 122.88 70.13 162.65 47.61 163.84 46.93 163.84 93.26"/><polygon class="cls-4" points="0 93.61 40.96 70.09 81.92 93.29 40.96 118.67 0 93.61"/><polygon class="cls-4" points="163.84 93.61 122.88 70.09 81.92 93.29 122.88 118.67 163.84 93.61"/><polygon class="cls-5" points="81.92 93.29 0 46.9 81.92 0 163.47 46.9 81.92 93.29"/><path class="cls-2" d="M95.45,56.19H53.85v44.67l51.75-1.39s8.29-1.07,8.49-22.38S95.45,56.19,95.45,56.19Zm-5.33,40H68.4V68.71h24s8,3.26,7.79,14.74S90.12,96.15,90.12,96.15Z" transform="translate(0 -5.18)"/><polygon class="cls-3" points="53.85 77.64 68.4 85.63 68.4 90.97 77.83 90.97 81.92 93.29 53.85 110.94 53.85 77.64"/><path class="cls-6" d="M53.85,104.77V149.6H96.76s17.09-3.06,17.33-18.6-1.28-20.12-1.28-20.12-3.65-8.41-12.65-8.41V100l-46.31.9Z" transform="translate(0 -5.18)"/><path class="cls-3" d="M81.92,98.47,86,96.15s9.75,1.22,13.23-7.49l14.89-8.51s-.71,9.59-2.66,13.62c-.41.85-1,2-1.33,2.56a7.46,7.46,0,0,1-3.69,3.45l-.75.18h-5.53v2.51s8.46-.91,12.65,8.41l1,7.36Z" transform="translate(0 -5.18)"/><path class="cls-7" d="M68.4,108.65V137s21.47.36,22,0,9.58-.91,9.75-10.83l.18-9.93s-.55-7.76-11.91-7.58S68.4,108.65,68.4,108.65Z" transform="translate(0 -5.18)"/></svg>