<svg id="Слой_1" data-name="Слой 1" xmlns="http://www.w3.org/2000/svg" viewBox="0 0 195 195"><defs><style>.cls-1{fill:#fd2d84;}.cls-2{fill:none;stroke:#fd2d84;stroke-miterlimit:10;stroke-width:6px;}.cls-3{fill:#fff;}</style></defs><title>btx</title><path class="cls-1" d="M113.35,67,99.5,63.29,94,83.75l13.85,3.71c7.56,2,12.87-1.39,14.34-7.12S120.68,69,113.35,67Z" transform="translate(3 -0.88)"/><path class="cls-1" d="M106.3,104.54,89.51,100l-7.37,28,16.65,4.46c10,2.69,17.48-1.32,19.65-9.74S116,107.14,106.3,104.54Z" transform="translate(3 -0.88)"/><path class="cls-1" d="M94.5,17.51a80.88,80.88,0,1,0,80.88,80.87A80.87,80.87,0,0,0,94.5,17.51Zm53.28,70c-2.69,10-9.32,14.56-15.59,16.07,8.42,4.39,16.29,13.91,12.72,27.24-5.82,21.74-27.4,24.31-45.47,19.47l-5.25,19.59L82,166.62,87.27,147l-9.53-2.55-5.25,19.59L60,160.71l5.24-19.59L40.52,134.5l6.92-13.93,8.42,2.26a5.21,5.21,0,0,0,6.23-3.91L76.66,64.54A5.21,5.21,0,0,0,73.23,58l-11.4-3,4-15.13,24.7,6.61,5.24-19.59,12.09,3.24L103.1,49.83l9.53,2.55,5.25-19.59,12.17,3.27L124.8,55.65l1.44.38C140.88,60,151.34,74.21,147.78,87.51Z" transform="translate(3 -0.88)"/><circle class="cls-2" cx="97.5" cy="97.5" r="94.5"/><path class="cls-3" d="M33.12,121.75c-5.6-1.48-7.7-6.62-6.39-11.56a9.21,9.21,0,0,1,3.74-5.29l1.83,3A5.45,5.45,0,0,0,30,111c-.71,2.67.77,5.33,4.15,6.23s6-.42,6.73-3.27a5.72,5.72,0,0,0-.56-4.24l3-1.69a8.91,8.91,0,0,1,.79,7C42.85,119.91,38.79,123.26,33.12,121.75Z" transform="translate(3 -0.88)"/><path class="cls-3" d="M37.28,105.38c-5.51-1.46-7.71-5.9-6.31-11.16s5.53-8,11-6.57,7.86,5.94,6.46,11.2S42.78,106.84,37.28,105.38Zm3.5-13.21c-3.37-.9-5.81.26-6.52,2.92s.84,4.87,4.22,5.77,6-.22,6.67-2.88S44.16,93.07,40.78,92.17Z" transform="translate(3 -0.88)"/><path class="cls-3" d="M34.61,81.75l1.86-7c1.1-4.14,3.25-7.2,7.25-6.14s4.64,4.86,3.54,9l-.69,2.61,6.06,1.61-1.17,4.42Zm9.53-4.61c.62-2.32.09-3.79-1.57-4.23s-2.55.65-3.17,3l-.6,2.26,4.74,1.26Zm1.9,1-1.62-3.7,11.16-3.71-1.32,4.94Z" transform="translate(3 -0.88)"/><path class="cls-3" d="M39.48,63.39l3.25-12.23,3.19.85-2.07,7.82,3.38.89L49,54.07l3.19.85-1.76,6.65,3.88,1,2.15-8.12,3.2.85L56.33,67.86Z" transform="translate(3 -0.88)"/></svg>