<svg id="Слой_1" data-name="Слой 1" xmlns="http://www.w3.org/2000/svg" viewBox="0 0 198.33 188.17"><defs><style>.cls-1{fill:#2854a1;}.cls-2{fill:#fff;}.cls-3,.cls-4{fill:none;stroke-miterlimit:10;}.cls-3{stroke:#fff;stroke-width:9px;}.cls-4{stroke:#2854a1;stroke-width:4px;}</style></defs><title>cas</title><circle class="cls-1" cx="100.21" cy="94.95" r="79.57"/><path class="cls-2" d="M123.7,65.56l-.41,2.85L118,65.56V51.27h-10.2v8.57l-16.73.82V51.27H80V65.56S61.67,77.39,64.12,98.61,80,124.72,80,124.72v16.33h11V130.84H107v10.21h11.42V128l4.49-3.27v5.72l12.65-.82V65.56Zm-23.52,52.82a22.7,22.7,0,1,1,22.71-22.7A22.7,22.7,0,0,1,100.18,118.38Z" transform="translate(0.03 -0.21)"/><circle class="cls-3" cx="26.75" cy="137.98" r="18.59"/><circle class="cls-3" cx="26.75" cy="137.98" r="18.59"/><circle class="cls-3" cx="173.65" cy="50.07" r="18.59"/><path class="cls-4" d="M196.31,50.5a22.45,22.45,0,0,0-30.8-20.83A92.11,92.11,0,0,0,11.42,119.83,23.25,23.25,0,0,0,35,159.62a92.11,92.11,0,0,0,153.11-91.8A22.41,22.41,0,0,0,196.31,50.5Z" transform="translate(0.03 -0.21)"/><circle class="cls-1" cx="26.75" cy="137.98" r="14.5"/><circle class="cls-1" cx="172.65" cy="51.07" r="14.5"/></svg>