<svg id="Слой_1" data-name="Слой 1" xmlns="http://www.w3.org/2000/svg" viewBox="0 0 130.56 193.68"><defs><style>.cls-1{fill:#27bbc0;}</style></defs><title>cbc</title><path class="cls-1" d="M121.57,75.85l9-29.82-12.77-9,6.38-23.66L106.9,8.17l-5.2,19.88L89.39,24.26l5.68-19.4L78.51,0,71.88,23.32s-27.45.47-47.32,19.87A85.34,85.34,0,0,0,.9,86.26s-5.21,24.6,9.46,50.63c0,0,5.21,13.25,25.56,25.08l-4.26,21.77,17.51,3.79L53,170l14.11,3.31-4.64,17L79,193.68l6.15-20.35s12.78-2.36,14.2-4.73,8-29.81,8-29.81-15.8,12.77-40.31,8-35.4-25.55-35.4-25.55-10.41-24.14.47-44.49S67.06,52.18,67.06,52.18s21.6-5.14,38.42,8S121.57,75.85,121.57,75.85Z"/><path class="cls-1" d="M110.21,70.17S101.22,56,72.35,56c0,0-27.44,1-36.91,28.87a41.86,41.86,0,0,0,10.89,44.95s20.35,18.93,46.37,9.94L97,120.33s-20.35,15.14-38.8-1-2.84-37.86-2.84-37.86,20.35-19.4,40.22-1.89c0,0,8,8.05,9,10.41Z"/></svg>