<svg id="Слой_1" data-name="Слой 1" xmlns="http://www.w3.org/2000/svg" viewBox="0 0 200 200"><defs><style>.cls-1{fill:#3231bb;}.cls-2{fill:none;stroke:#fff;stroke-miterlimit:10;stroke-width:3px;}.cls-3{fill:#fff;}</style></defs><title>cedex</title><rect class="cls-1" width="200" height="200"/><rect class="cls-2" x="20.99" y="77.67" width="43.28" height="43.28"/><circle class="cls-2" cx="43.01" cy="99.76" r="21.32"/><line class="cls-2" x1="28.84" y1="83.83" x2="57.18" y2="83.83"/><line class="cls-2" x1="22.73" y1="93.16" x2="43.01" y2="121.08"/><line class="cls-2" x1="45.39" y1="120.94" x2="64.33" y2="93.16"/><path class="cls-3" d="M94.3,108.78a13.75,13.75,0,0,1-5.62,1c-6.28,0-10.55-3.86-10.55-10.24s4.51-10.65,11.12-10.65a11.87,11.87,0,0,1,5.15,1l-.75,2.55a10.29,10.29,0,0,0-4.27-.86c-4.75,0-7.89,2.9-7.89,7.89,0,4.56,2.8,7.69,7.77,7.69a11.3,11.3,0,0,0,4.44-.84Z"/><path class="cls-3" d="M112.66,100.24h-8.11v6.58h9.06v2.63H101.35V89.23h11.79v2.62h-8.59v5.78h8.11Z"/><path class="cls-3" d="M120.73,89.5a41,41,0,0,1,6-.44c4,0,6.74.88,8.65,2.55a9,9,0,0,1,3.05,7.23,10.52,10.52,0,0,1-3.09,7.87c-2.06,1.91-5.38,2.93-9.5,2.93a44.19,44.19,0,0,1-5.15-.25Zm3.2,17.49a18.67,18.67,0,0,0,2.55.12c5.59,0,8.61-3,8.61-8.15,0-4.59-2.76-7.4-8.12-7.4a15.8,15.8,0,0,0-3,.26Z"/><path class="cls-3" d="M156.88,100.24h-8.11v6.58h9v2.63H145.57V89.23h11.79v2.62h-8.59v5.78h8.11Z"/><path class="cls-3" d="M176.44,109.45,174,105.24c-1-1.7-1.67-2.8-2.31-3.94h-.06c-.54,1.15-1.13,2.21-2.13,3.94l-2.32,4.21h-3.71l6.37-10.24-6.13-10h3.73l2.54,4.46c.75,1.32,1.31,2.35,1.86,3.43h.07c.57-1.2,1.09-2.13,1.81-3.41l2.6-4.48H180l-6.33,9.85,6.51,10.37Z"/></svg>