<svg width="18" height="18" viewBox="0 0 18 18" fill="none" xmlns="http://www.w3.org/2000/svg">
<path d="M7.9875 0C8.1 0 8.24063 0 8.35313 0C8.775 0.1125 9.16875 0.1125 9.59062 0C9.73125 0 9.87187 0 10.0125 0C10.0969 0.140625 10.2656 0.1125 10.4062 0.1125C14.175 0.703125 17.1 3.51563 17.8875 7.22813C17.9156 7.34063 17.8875 7.48125 18 7.5375C18 8.55 18 9.5625 18 10.575C17.8594 10.6312 17.8875 10.7719 17.8594 10.8844C16.9312 14.625 14.5969 16.9594 10.8562 17.8875C10.7437 17.9156 10.575 17.8875 10.4906 18C9.47812 18 8.46562 18 7.45312 18C7.36875 17.8594 7.22812 17.8875 7.11562 17.8594C3.54375 17.1 0.73125 14.1469 0.140625 10.4906C0.1125 10.3781 0.16875 10.2094 0 10.1531C0 10.0125 0 9.87187 0 9.73125C0.1125 9.28125 0.1125 8.83125 0 8.35313C0 8.2125 0 8.07188 0 7.93125C0.140625 7.84688 0.1125 7.70625 0.140625 7.59375C0.759375 3.76875 3.825 0.703125 7.59375 0.140625C7.73438 0.1125 7.90312 0.140625 7.9875 0ZM15.75 9.05625C15.75 5.34375 12.7406 2.33438 9.02812 2.33438C5.37187 2.33438 2.33438 5.34375 2.33438 9C2.30625 12.7125 5.31562 15.75 9 15.75C12.7125 15.75 15.7219 12.7406 15.75 9.05625Z" fill="#FE5948"/>
<path d="M0 8.35309C0.1125 8.80309 0.1125 9.25309 0 9.73121C0 9.25309 0 8.80309 0 8.35309Z" fill="#FE5A49"/>
<path d="M9.56221 0C9.14033 0.1125 8.74658 0.1125 8.32471 0C8.74658 0 9.16846 0 9.56221 0Z" fill="#FE5A49"/>
<path d="M15.7498 9.05629C15.7217 12.7407 12.7123 15.75 8.9998 15.75C5.31543 15.75 2.30605 12.7125 2.33418 9.00004C2.33418 5.34379 5.37168 2.33441 9.02793 2.33441C12.7404 2.33441 15.7498 5.34379 15.7498 9.05629ZM9.02793 13.8375C9.36543 13.8375 9.64668 13.6969 9.87168 13.4719C11.0811 12.2625 12.2623 11.0813 13.4436 9.87191C13.9498 9.36566 13.9498 8.69066 13.4436 8.21254C12.2623 7.00316 11.0529 5.82191 9.84355 4.61254C9.33731 4.10629 8.6623 4.10629 8.18418 4.61254C6.9748 5.82191 5.76543 7.00316 4.58418 8.21254C4.10605 8.69066 4.10605 9.36566 4.58418 9.87191C5.79355 11.0813 7.00293 12.2907 8.18418 13.5C8.4373 13.6969 8.71855 13.8375 9.02793 13.8375Z" fill="#FEFDFD"/>
<path d="M9.02842 13.8375C8.69092 13.8375 8.40967 13.725 8.18467 13.5C6.97529 12.2906 5.76592 11.1094 4.58467 9.87187C4.10654 9.39375 4.10654 8.71875 4.58467 8.2125C5.79404 7.00313 6.97529 5.79375 8.18467 4.6125C8.69092 4.13438 9.36592 4.13438 9.84404 4.6125C11.0534 5.79375 12.2347 7.00313 13.444 8.2125C13.9222 8.71875 13.9222 9.39375 13.444 9.87187C12.2628 11.0812 11.0534 12.2625 9.87217 13.4719C9.64717 13.6969 9.36592 13.8375 9.02842 13.8375ZM10.9972 9.05625C10.9409 9 10.9128 8.94375 10.8565 8.8875C10.294 8.325 9.75967 7.79063 9.19717 7.22813C9.05654 7.05938 8.94404 7.11562 8.83154 7.25625C8.29717 7.79062 7.76279 8.325 7.22842 8.85938C7.08779 9 7.05967 9.08438 7.22842 9.25313C7.76279 9.7875 8.29717 10.3219 8.83154 10.8562C8.97217 10.9969 9.05654 11.025 9.22529 10.8562C9.75967 10.3219 10.294 9.7875 10.8284 9.25313C10.8847 9.16875 10.9409 9.1125 10.9972 9.05625Z" fill="#FE5A49"/>
<path d="M10.9968 9.05626C10.9406 9.14063 10.8843 9.19689 10.8281 9.25313C10.2937 9.78751 9.75932 10.3219 9.22495 10.8563C9.0562 11.025 8.97182 10.9969 8.8312 10.8563C8.29682 10.3219 7.76245 9.78751 7.22807 9.25313C7.05932 9.08439 7.08745 9.00001 7.22807 8.85938C7.76245 8.32501 8.29682 7.79063 8.8312 7.25626C8.97182 7.11563 9.0562 7.08751 9.19682 7.22814C9.7312 7.79064 10.2937 8.32501 10.8562 8.88751C10.9124 8.91563 10.9406 8.97188 10.9968 9.05626Z" fill="#FEFDFD"/>
</svg>
