<svg id="Слой_1" data-name="Слой 1" xmlns="http://www.w3.org/2000/svg" viewBox="0 0 174.3 199.23"><defs><style>.cls-1{fill:#22ae4e;}.cls-2{fill:#020202;}</style></defs><title>clo</title><path class="cls-1" d="M62.88,81.39,81.47,50A7.12,7.12,0,0,0,79,40.22L13.25,1.2A8.44,8.44,0,0,0,.49,8.46V87A5.47,5.47,0,0,0,6,92.49H46L33.27,71.34s-2.11,10-10,6.87S19,67.64,19,67.64l4.68-19.82A9,9,0,0,1,35,41.24l21.54,6.31S65,51.78,61.82,57.6h0a8.29,8.29,0,0,1-9.54,4l-1-.29Z"/><path class="cls-1" d="M76,110.82l18.61,31.41a7.11,7.11,0,0,0,9.74,2.5l65.83-38.85a8.44,8.44,0,0,0-.23-14.67L101,53.41a5.46,5.46,0,0,0-7.41,2.16L74.38,90.64l24.64-1S91.23,83,97.83,77.58,109.14,79,109.14,79L124.26,92.6a9,9,0,0,1,.33,13.09l-15.9,15.84s-7.78,5.38-11.35-.19h0a8.27,8.27,0,0,1,1.09-10.29l.75-.76Z"/><path class="cls-2" d="M43.91,107.28l-36.5-.07A7.13,7.13,0,0,0,.27,114.3L0,190.74a8.45,8.45,0,0,0,12.73,7.31l67.7-39.88a5.45,5.45,0,0,0,1.94-7.47L62.06,116.23,50.28,137.89s9.73-3.27,11,5.17-7,9-7,9l-19.46,6a9,9,0,0,1-11.41-6.41L18,129.92s-.65-9.44,6-9.65h0a8.26,8.26,0,0,1,8.28,6.19l.27,1Z"/></svg>