<svg id="Слой_1" data-name="Слой 1" xmlns="http://www.w3.org/2000/svg" viewBox="0 0 865.54 767.03"><defs><style>.cls-1{fill:#215a8f;}</style></defs><title>cmk</title><path class="cls-1" d="M279.21,159.12,150,538.23A109.84,109.84,0,0,1,46,612.64H0L124.78,255.85a144.41,144.41,0,0,1,136.31-96.73Z"/><path class="cls-1" d="M522.11,76.52,339.65,619.4a108.17,108.17,0,0,1-102.53,73.71H114.45l178.7-510.79a158,158,0,0,1,149.1-105.8Z"/><path class="cls-1" d="M311.46,766.84,535.61,109.78A162.14,162.14,0,0,1,689.06,0H865.54L633.92,667.4A148.28,148.28,0,0,1,497.55,767Z"/></svg>