<?xml version="1.0" encoding="utf-8"?>
<!-- Generator: Adobe Illustrator 23.0.2, SVG Export Plug-In . SVG Version: 6.00 Build 0)  -->
<svg version="1.1" id="Layer_1" xmlns="http://www.w3.org/2000/svg" xmlns:xlink="http://www.w3.org/1999/xlink" x="0px" y="0px"
	 viewBox="0 0 64 64" style="enable-background:new 0 0 64 64;" xml:space="preserve">
<style type="text/css">
	.st0{fill:#4B58FF;}
</style>
<g>
	<path class="st0" d="M8,63.4c0-2.8,0-5.6,0-8.5c0-0.8,0.7-1.2,1.1-1.7c5.1-5.1,10.2-10.2,15.3-15.3c0.9-0.9,1.3-1.1,2.2,0.1
		c2.7,3.8,6.5,5.1,11.1,4.2c0.7-0.1,1.6-0.2,1.8-0.9c0.2-0.7-0.6-1-1.1-1.4c-5.4-5.4-10.7-10.8-16.2-16c-1.5-1.4-1.3-2.2-0.1-3.6
		c5.4-5.9,14-7.6,21-3.9c1.6,0.8,2.4,0.6,3.6-0.6c3.7-3.8,3.8-3.9-1.2-6.1c-9.3-4.1-18.2-3.1-26,3.5C11.8,19.7,9.1,28.1,11.4,38
		c0.5,2.2,0.5,3.8-1.4,5c-0.3,0.2-0.6,0.5-0.8,0.8c-2.7,2.8-2.7,2.8-4.1-1C-1.7,24.4,9.9,4.3,29.2,0.6C38.4-1.2,46.5,1,54,6.1
		c1.1,0.8,1.7,0.9,2.7-0.2c1.2-1.4,2.5-2.6,4.2-4.2c0,3.3,0,6.3,0,9.2c0,0.5-0.5,0.9-0.9,1.3c-4.5,4.5-9.1,9-13.7,13.6
		c-1.1,1.1-1.6,1.1-2.6-0.2c-3.1-4.2-8.3-5.4-13.1-3.1c3.4,3.4,6.7,6.8,10.1,10.1c2.6,2.6,5.1,5.2,7.8,7.6c1.2,1.1,1.1,1.9,0.1,3.1
		c-5.2,6.1-14.1,7.9-21.4,4.1c-1.3-0.7-2-0.7-3,0.4c-1.1,1.3-2.5,2.4-3.7,3.6c8.4,7.4,22.9,6.6,31.4-1.5c1-1,2.2-2.9,3-2.7
		c1.2,0.2,2.1,2,3.3,2.8c2,1.5,1.6,2.6,0,4.2c-6.6,6.6-14.7,9.9-23.9,9.8c-6.4-0.1-12.5-2.2-17.7-6c-1.2-0.9-1.9-0.9-2.9,0.2
		c-1.6,1.9-3.4,3.7-5.1,5.6C8.5,63.6,8.2,63.5,8,63.4z"/>
</g>
</svg>
