<svg id="Слой_1" data-name="Слой 1" xmlns="http://www.w3.org/2000/svg" xmlns:xlink="http://www.w3.org/1999/xlink" viewBox="0 0 200 200"><defs><style>.cls-1{fill:#061f3a;}.cls-2{fill:#008bee;}.cls-3,.cls-4{fill:none;stroke-miterlimit:10;stroke-width:3px;}.cls-3{stroke:url(#Безымянный_градиент_28);}.cls-4{stroke:url(#Безымянный_градиент_28-2);}</style><linearGradient id="Безымянный_градиент_28" x1="29.32" y1="99.38" x2="170.79" y2="99.38" gradientUnits="userSpaceOnUse"><stop offset="0" stop-color="#f6f6f5"/><stop offset="0.01" stop-color="#008bee"/><stop offset="0.37" stop-color="#032e52"/><stop offset="0.69" stop-color="#016bb9"/><stop offset="1" stop-color="#031f3a"/></linearGradient><linearGradient id="Безымянный_градиент_28-2" x1="14.82" y1="100.32" x2="188.55" y2="100.32" xlink:href="#Безымянный_градиент_28"/></defs><title>cnet</title><rect class="cls-1" width="200" height="200"/><path class="cls-2" d="M120.52,88.07l16.37-12.38S130,66.6,115.79,61.14V51.31h-8.37v8H98v-8H88.86v9.83S69.21,67.32,63.38,88.07s6.55,36.39,6.55,36.39,8.74,9.46,18.2,12.74l.36,11.64h9.1v-8.73h8.73v8.73h9.83V137.56s9.1-1.82,20.74-14.92l-16.37-12.37s-8,13.82-22.93,8.37-13.1-20.75-13.1-20.75S84.58,82.24,100,79.7C100,79.7,112.15,75.33,120.52,88.07Z"/><circle class="cls-3" cx="100.06" cy="99.38" r="69.23"/><circle class="cls-4" cx="101.68" cy="100.32" r="85.37"/></svg>