<svg id="Слой_1" data-name="Слой 1" xmlns="http://www.w3.org/2000/svg" viewBox="0 0 197.88 197.88"><defs><style>.cls-1{fill:#1d2050;stroke:#f9bf51;stroke-miterlimit:10;stroke-width:6px;}.cls-2{fill:#dc4544;}.cls-3{fill:#f9a742;}.cls-4{fill:#f4f4f4;}</style></defs><title>crbt</title><circle class="cls-1" cx="98.94" cy="98.94" r="95.94"/><path class="cls-2" d="M80.65,132.4s10.54-2.94,18.73,4.89l7.2-9.29,15.17,6.85v23s5.6-6.46,7.1-25.87a12.56,12.56,0,0,0-2.33-8.39,45,45,0,0,0-13.58-11.73l10.28-27.4,9.29-20.55a49.19,49.19,0,0,0-13.7-39.27S95.33,31.12,89,52.65L85.54,76.13,80.65,104l-12.26.82A15.29,15.29,0,0,0,55,115.07C52,123.45,48.73,135,50.8,139.74l10.28-19.17h18.1Z" transform="translate(-0.44 -0.6)"/><path class="cls-3" d="M78.69,173s3.92.49-3.91-23c0,0-2-14.19,11.74-12.23S96.8,148.55,96.8,148.55s-.4,11.2-8.81,15.65v-6.36s-2.08-1.94-2.06,3.61a18.49,18.49,0,0,1-1.64,7.39,6.37,6.37,0,0,1-3.49,3.35Z" transform="translate(-0.44 -0.6)"/><path class="cls-4" d="M121,55.86,120,60.21,109.5,57.63A5.45,5.45,0,0,0,104,59.45a5.67,5.67,0,0,0,.42,6.61s4.15,3.51,13.45,4.71l-1.45,4.74-7.2-1.35-1,3.73-4.57-1.48,1.24-4.35s-4-.15-6.6-5.92c0,0-2.49-11.33,7.19-13.26.75-.15,5.71.18,5.71.18l1-3.65,4.59,1.2-1.28,3.75Z" transform="translate(-0.44 -0.6)"/></svg>