<?xml version="1.0" encoding="utf-8"?>
<!-- Generator: Adobe Illustrator 23.0.2, SVG Export Plug-In . SVG Version: 6.00 Build 0)  -->
<svg version="1.1" id="Layer_1" xmlns="http://www.w3.org/2000/svg" xmlns:xlink="http://www.w3.org/1999/xlink" x="0px" y="0px"
	 viewBox="0 0 64 64" style="enable-background:new 0 0 64 64;" xml:space="preserve">
<style type="text/css">
	.st0{fill:#2267FF;}
</style>
<g>
	<path class="st0" d="M13.4,53.5c0.1-0.1,0.3,0,0.4,0c0.4,0,0.8-0.1,1.2,0C14.5,53.5,13.9,53.5,13.4,53.5z"/>
	<path class="st0" d="M64,32c0,17.9-14.3,32-32.3,32C14.3,64-0.1,49.5,0,32c0.1-17.7,14.4-32,32.1-32C49.8,0.1,64,14.3,64,32z
		 M58,32C58,17.6,46.3,6,32,6C17.7,6.1,6.1,17.7,6,32C6,46.3,17.7,58,32,58C46.4,58,58,46.4,58,32z"/>
	<path class="st0" d="M16.7,27.3c1.7,1,3.3,2,4.9,2.8c0.6,0.3,0.4,0.8,0.4,1.3c-0.3,5.8,4.3,10.6,10,10.6c4.2,0,8.1-2.7,9.5-6.7
		c1.4-4,0.2-8.5-3.2-11.2c-3.3-2.7-8-3-11.6-0.7c-0.7,0.5-1.2,0.4-1.8,0c-1.2-0.8-2.5-1.5-3.8-2.2c-0.6-0.3-0.6-0.6-0.1-1
		c4.2-3.8,9.1-5.1,14.6-3.9c0.9,0.2,1.3,0.1,1.7-0.7c0.4-0.8,0.8-2,1.5-2.2c0.6-0.2,1.6,0.7,2.4,1.2c1.1,0.7,2.3,1.3,3.4,2
		c0.5,0.3,0.6,0.5,0.2,1c-0.6,0.9-1.4,1.8-1.5,2.7c-0.1,1,1.2,1.6,1.8,2.4c3.9,5.5,4,12.7,0.3,18.3c-3.7,5.5-10.4,8.3-17,6.7
		c-0.7-0.2-1,0-1.3,0.6c-0.5,0.9-0.9,2.3-1.7,2.5c-0.7,0.2-1.8-0.8-2.7-1.4c-1-0.6-2-1.2-3-1.7c-0.5-0.3-0.7-0.5-0.3-1
		c0.6-0.9,1.5-1.8,1.5-2.7c-0.1-0.8-1.2-1.6-1.8-2.4C16.1,37.2,15.3,32.5,16.7,27.3z"/>
</g>
</svg>
