<?xml version="1.0" encoding="utf-8"?>
<!-- Generator: Adobe Illustrator 18.0.0, SVG Export Plug-In . SVG Version: 6.00 Build 0)  -->
<!DOCTYPE svg PUBLIC "-//W3C//DTD SVG 1.1//EN" "http://www.w3.org/Graphics/SVG/1.1/DTD/svg11.dtd">
<svg version="1.1"
	 id="Layer_1" sodipodi:docname="cron_light.svg" inkscape:version="0.91 r13725" xmlns:svg="http://www.w3.org/2000/svg" xmlns:dc="http://purl.org/dc/elements/1.1/" xmlns:cc="http://creativecommons.org/ns#" xmlns:rdf="http://www.w3.org/1999/02/22-rdf-syntax-ns#" xmlns:sodipodi="http://sodipodi.sourceforge.net/DTD/sodipodi-0.dtd" xmlns:inkscape="http://www.inkscape.org/namespaces/inkscape"
	 xmlns="http://www.w3.org/2000/svg" xmlns:xlink="http://www.w3.org/1999/xlink" x="0px" y="0px" viewBox="-25 -25 192 192"
	 enable-background="new -25 -25 192 192" xml:space="preserve">
<sodipodi:namedview  inkscape:current-layer="Layer_1" inkscape:window-maximized="0" inkscape:window-y="0" inkscape:window-x="0" inkscape:window-height="627" inkscape:window-width="1033" inkscape:pageopacity="0" inkscape:pageshadow="2" inkscape:cy="130.35001" inkscape:zoom="1" showborder="false" inkscape:cx="130.35001" guidetolerance="10" showgrid="false" gridtolerance="10" borderopacity="1" id="namedview19" bordercolor="#666666" objecttolerance="10" pagecolor="#ffffff">
	</sodipodi:namedview>
<g id="g3" transform="translate(0,-120.70001)">
	
		<linearGradient id="path10_1_" gradientUnits="userSpaceOnUse" x1="155.3675" y1="90.9789" x2="50.559" y2="-13.8296" gradientTransform="matrix(1 0 0 -1 0 262.7)">
		<stop  offset="7.718211e-02" style="stop-color:#01B0F1"/>
		<stop  offset="0.915" style="stop-color:#001C7F"/>
	</linearGradient>
	<path id="path10" inkscape:connector-curvature="0" fill="url(#path10_1_)" d="M135.1,152.7L115,172.8c2.5,5.8,4,12.3,4,19.1
		c0,7.5-1.7,14.6-4.8,20.9l19.7,19.7C149.6,208.5,150,177.2,135.1,152.7L135.1,152.7z"/>
	
		<linearGradient id="path17_1_" gradientUnits="userSpaceOnUse" x1="122.8653" y1="123.4763" x2="18.0513" y2="18.6623" gradientTransform="matrix(1 0 0 -1 0 262.7)">
		<stop  offset="7.718211e-02" style="stop-color:#01B0F1"/>
		<stop  offset="0.915" style="stop-color:#001C7F"/>
	</linearGradient>
	<path id="path17" inkscape:connector-curvature="0" fill="url(#path17_1_)" d="M95.6,233c-7.1,4.3-15.4,6.7-24.4,6.7
		c-26.4,0-47.8-21.4-47.8-47.8s21.4-47.8,47.8-47.8c9.6,0,18.5,2.8,26,7.7l19.6-19.6C87.4,109.6,45,111.7,18,138.7
		c-29.3,29.3-29.3,76.8,0,106.1c26.5,26.5,67.7,29,97.1,7.7L95.6,233z"/>
</g>
</svg>
