<svg id="Слой_1" data-name="Слой 1" xmlns="http://www.w3.org/2000/svg" viewBox="0 0 200.14 200.78"><defs><style>.cls-1{fill:none;}.cls-1,.cls-2{stroke:#fbc205;stroke-miterlimit:10;stroke-width:5px;}.cls-2{fill:#fff;}</style></defs><title>cryp</title><path class="cls-1" d="M185.4,53.71c.33-.32-22.5-39.78-62-48.26S53,15.56,53,15.56,15.21,38.21,7.42,71.46c-.24,1-.48,2-.78,3C4.72,81-3.3,112.21,10.94,139.81c16,31,32.93,41.74,32.93,41.74s29.68,19.56,60.33,17.28c22.55-1.68,42.1-11.65,50.86-16.81a43.15,43.15,0,0,0,8.44-6.48c8-7.91,26.84-27.6,25.82-37.37" transform="translate(-0.15 -0.73)"/><path class="cls-1" d="M162.27,66.12c.24-.24-16.68-29.38-45.93-35.64A78,78,0,0,0,64.13,38S36.29,54.57,30.39,79c-.22.9-.43,1.8-.69,2.69-1.53,5.25-7.15,27.92,3.25,48,11.84,22.88,24.41,30.83,24.41,30.83s22,14.44,44.72,12.76a75.59,75.59,0,0,0,12.68-2.09,79.79,79.79,0,0,0,45.58-31.36c3-4.27,5.14-8.41,4.83-11.34" transform="translate(-0.15 -0.73)"/><path class="cls-1" d="M140.39,118a51.54,51.54,0,0,1-5,8.14,46.48,46.48,0,0,1-30.85,19.05c-1,.14-2,.25-3,.33-14,1-27.47-7.84-27.47-7.84s-7.73-4.88-15-18.94c-6.28-12.11-3.06-25.77-2-29.3.2-.72.37-1.44.56-2.16,3.78-14.83,20.64-24.9,20.64-24.9a48,48,0,0,1,32.08-4.58c18,3.85,28.36,21.74,28.22,21.89l4.72,8.93L197.79,88v27.72h-6.52l-7.17-4.89-7.5,4.57-7.83-.33-9.13-4.89-7.17,4.56H143Z" transform="translate(-0.15 -0.73)"/><circle class="cls-2" cx="188.91" cy="137.52" r="8.37"/><circle class="cls-2" cx="161.78" cy="137.52" r="8.37"/><circle class="cls-2" cx="159.29" cy="61.48" r="8.37"/><circle class="cls-2" cx="188.46" cy="61.48" r="8.37"/><circle class="cls-2" cx="29.51" cy="100.45" r="8.37"/><circle class="cls-2" cx="46.86" cy="16.94" r="8.37"/><circle class="cls-2" cx="46.86" cy="180.75" r="8.37"/><circle class="cls-2" cx="80.43" cy="100.39" r="8.37"/></svg>