<?xml version="1.0" encoding="utf-8"?>
<!-- Generator: Adobe Illustrator 23.0.2, SVG Export Plug-In . SVG Version: 6.00 Build 0)  -->
<svg version="1.1" id="Layer_1" xmlns="http://www.w3.org/2000/svg" xmlns:xlink="http://www.w3.org/1999/xlink" x="0px" y="0px"
	 viewBox="0 0 64 64" style="enable-background:new 0 0 64 64;" xml:space="preserve">
<style type="text/css">
	.st0{fill:#D24A43;}
</style>
<g>
	<path class="st0" d="M42.8,0c2.1,0.7,4.3,1.4,6.4,2.2c4.2,1.8,7.8,4.5,11,8c-0.3,0.2-0.6,0.4-0.9,0.6c-3.4,2-6.8,3.9-10.2,5.9
		c-0.5,0.3-0.8,0.3-1.3-0.1c-6.1-4.4-12.7-5.4-19.5-2.5c-7,3-10.9,8.6-11.8,16.1c-1.1,10.2,6.7,19.8,16.9,21
		c5.3,0.6,10.1-0.7,14.4-3.9c0.4-0.3,0.7-0.6,1.2-0.2c3.6,2.1,7.3,4.2,10.9,6.3c0.1,0,0.2,0.1,0.2,0.2c-2.5,4.1-12.9,10.1-17.7,10.2
		c0-1.7,0-3.4,0-5.1c0-1.4-0.2-1.8-1.6-2.2c-3.3-0.9-6.7-0.9-10,0c-1.3,0.4-1.5,0.7-1.5,2.1c0,1.7,0,3.4,0,5.1
		c-4.2,0.3-15.1-6-17.7-10.1c1.5-0.9,3-1.8,4.5-2.6c0.9-0.5,1.2-1.1,1-2.1c-0.9-3.5-2.6-6.6-5.2-9.1c-0.7-0.7-1.5-0.8-2.4-0.2
		c-1.4,0.9-2.9,1.7-4.6,2.7c-2.2-6.9-2.2-13.7,0-20.6c1.6,0.9,3.2,1.8,4.6,2.7c0.9,0.5,1.6,0.5,2.3-0.2c2.7-2.5,4.4-5.6,5.3-9.2
		c0.2-0.9-0.1-1.5-0.9-2c-1.5-0.8-3-1.7-4.6-2.7c0.3-0.3,0.5-0.6,0.7-0.8C16.7,5,21.9,2,27.9,0.4c0.4-0.1,0.8-0.3,1.2-0.4
		c0.1,0,0.1,0,0.2,0c0,1.8,0.1,3.6,0.1,5.4c0,1,0.4,1.6,1.3,1.8c3.5,1,7,1,10.5,0c1-0.3,1.3-0.9,1.3-2c0-1.8,0-3.5,0.1-5.3
		C42.7,0,42.7,0,42.8,0z"/>
	<path class="st0" d="M39.4,44c-2.3,0-4.4,0-6.7,0c1-1.9,2.7-3.6,2.2-6.2c-0.4,0.4-0.6,0.6-0.9,0.8c-1.7,1.5-4.1,1.6-6,0.4
		c-1.8-1.2-2.6-3.3-1.7-5.5c0.5-1.2,1.2-2.4,2-3.4c1.2-1.6,2.6-3.1,3.9-4.6c1.3-1.7,2.6-3.5,3.9-5.2c0,0,0,0,0.1,0
		c2,3.5,4.9,6.4,7.3,9.5c0.9,1.1,1.7,2.4,2.3,3.8c0.9,2.1,0.1,4.2-1.6,5.4c-1.8,1.2-4.3,1.1-6-0.3c-0.3-0.2-0.5-0.5-1-0.9
		C36.6,40.4,38.2,42.1,39.4,44z"/>
</g>
</svg>
