<?xml version="1.0" encoding="utf-8"?>
<!-- Generator: Adobe Illustrator 23.0.2, SVG Export Plug-In . SVG Version: 6.00 Build 0)  -->
<svg version="1.1" id="Layer_1" xmlns="http://www.w3.org/2000/svg" xmlns:xlink="http://www.w3.org/1999/xlink" x="0px" y="0px"
	 viewBox="0 0 64 64" style="enable-background:new 0 0 64 64;" xml:space="preserve">
<style type="text/css">
	.st0{fill:#323C71;}
	.st1{fill:#D6AB43;}
</style>
<g>
	<path class="st1" d="M64,32c0.3,17.1-14.4,32.9-33.7,31.9C13.9,63.1,0,49.6,0,31.9C0,14.1,14.9-0.8,33.5,0
		C50.2,0.7,64.1,14.7,64,32z M60.6,32C60.7,16.4,47.9,3.4,32.1,3.4c-16,0-28.7,13-28.7,28.6c0,15.6,12.8,28.6,28.6,28.6
		C47.8,60.5,60.6,47.8,60.6,32z"/>
	<path class="st1" d="M47.1,17.1c-0.9,0.1-1.1-0.5-1.5-1c-0.2-0.3,0.4-1,0.7-1.1c0.5,0,0.8,0,1.1,0.5c0.6,0.9,0.7,1.7,0.3,2.8
		c-0.5,1.2-0.9,2.4-1.4,3.6c-0.2,0.4-0.4,0.4-0.7,0.3c-0.9-0.5-1.9-0.9-2.8-1.3c-0.3-0.1-0.4-0.1-0.4,0.2c-0.1,2.6-0.1,5.2-0.2,7.8
		c0,0.4,0.1,0.5,0.5,0.4c1.2-0.3,2.5-0.6,3.7-1c0.4-0.1,0.5,0,0.5,0.4c0,3.4,0,6.8,0,10.2c0,0.3-0.1,0.4-0.3,0.6
		c-1.1,0.6-2.3,1.1-3.4,1.7c-0.3,0.2-0.4,0.1-0.5-0.2c0-0.6,0-1.2,0-1.7c0-0.2,0-0.3,0.2-0.3c0.1,0,0.1-0.1,0.2-0.1
		c1.5-0.4,1.9-1.5,1.8-2.9c-0.1-1.2,0-2.3,0-3.5c0,0,0-0.1-0.1-0.2c-0.9,0.5-2,0.8-2.8,1.6c-0.3,0.3-0.7,0.6-0.9,1
		c-0.7,1-1.7,1.5-2.9,1.9c-2.6,0.9-5.2,1.9-7.8,2.8c-0.4,0.1-0.5,0.3-0.5,0.7c0,0.7,0,1.5-0.1,2.2c0,0.4-0.2,0.6-0.5,0.7
		c-2.1,1.1-4.2,2.2-6.3,3.3c-0.3,0.2-0.5,0.4-0.5,0.8c0,1.4,0,2.9,0,4.3c0,0.3-0.1,0.5-0.4,0.7c-1.1,0.5-2.1,1-3.2,1.5
		c-0.4,0.2-0.5,0.1-0.5-0.3c0-0.1,0-0.2,0-0.2c-0.2-1.3,0.2-2.2,1.5-2.5c0.3-0.1,0.4-0.3,0.4-0.7c0-1.6,0-3.2,0-4.8
		c0-0.4,0.1-0.6,0.5-0.7c0.8-0.3,1.5-0.7,2.3-1.1c0.4-0.2,0.5-0.4,0.5-0.8c0-2.1-0.1-4.2,0.1-6.3c0-0.4,0.4-0.8,0.1-1.1
		c-0.3-0.3-0.7-0.1-1.1-0.2c-0.5-0.1-0.9,0-1.3,0.2c-1.1,0.6-2.2,1.2-3.2,1.7c-0.3,0.2-0.7,0.2-1,0c-1.1-0.5-2.3-1-3.4-1.5
		c0.1-0.2,0.3-0.3,0.4-0.3c2.3-1,4.7-2.1,7-3.1c0.3-0.1,0.6-0.1,0.8,0c0.8,0.4,1.6,0.8,2.4,1.3c0.3,0.1,0.5,0.2,0.8,0
		c3.7-1.8,7.4-3.6,11.1-5.4c0.3-0.2,0.5-0.3,0.3-0.7c-0.6-2-1.1-4-1.7-5.9c-0.1-0.4-0.3-0.5-0.7-0.3c-0.7,0.3-1.4,0.6-2.2,0.9
		c-0.4,0.2-0.5,0.4-0.4,0.8c0.3,0.6,0.5,1.3,0.7,2c0.1,0.3,0.2,0.4,0.5,0.2c0.2-0.1,0.4-0.1,0.6-0.1c0.3,0,0.8-0.1,0.9,0.3
		c0.2,0.5,0.3,1-0.3,1.4c-1,0.7-2.1,0.5-2.7-0.6c-0.8-1.3-1.6-2.7-2.4-4c-0.2-0.4-0.2-0.5,0.1-0.8c1.6-1.3,3.3-2.6,4.9-3.9
		c0.2-0.2,0.5-0.3,0.8-0.3c0.2,0,0.5,0,0.7,0c0.4-0.1,1,0.2,1.2-0.2c0.3-0.5,0.3-1.2,0.2-1.8c-0.2-0.9-0.5-1.8-0.6-2.8
		c0-0.7,0.5-1.3,1.2-1.5c0.4-0.1,0.7-0.1,1.1-0.2c1-0.2,1.7,0.4,2.4,0.9c0.2,0.1,0.1,0.4,0.1,0.6c0.1,1.2,0.2,2.3,0.1,3.5
		c0,0.5-0.2,0.7-0.7,0.7c-0.3,0-0.5,0.1-0.5,0.4c0,0.4,0.3,0.3,0.5,0.3c1.2-0.2,2,0.3,2.8,1.2c0.6,0.6,1.2,1.2,1.9,1.8
		c0.2,0.2,0.4,0.2,0.5-0.1C46.2,18.8,46.6,18,47.1,17.1z"/>
</g>
</svg>
