<svg id="Слой_1" data-name="Слой 1" xmlns="http://www.w3.org/2000/svg" viewBox="0 0 178.38 203.5"><defs><style>.cls-1{fill:#211a14;}</style></defs><title>dacc</title><path class="cls-1" d="M75.71,203.5H0V0H84a99.43,99.43,0,0,1,40.22,8.07C143.5,16.46,168,35.18,174.8,76.84L160,79.26C149.1,12.8,87.11,14.89,84.47,15H15V188.5H75.44a113.35,113.35,0,0,0,38.17-9.72c25.53-11.68,41.15-31.33,46.43-58.39l14.72,2.87c-6.2,31.82-25.37,55.82-55.42,69.39a125.79,125.79,0,0,1-43.51,10.84Z" transform="translate(0 0.01)"/><path class="cls-1" d="M58.13,169.55a104.07,104.07,0,0,1-13.38-.78l-6.45-.91V115.14h15v39.28c11.46.49,35.64-.32,51.31-14,10.06-8.76,15.16-21.78,15.16-38.71s-5.11-30-15.2-38.87C88.92,49.14,64.79,48.14,53.3,48.55V86h-15V35l6.5-.87c1.76-.24,43.36-5.54,69.6,17.4,13.52,11.82,20.37,28.71,20.37,50.21s-6.85,38.34-20.37,50.07C97.05,166.89,73,169.55,58.13,169.55Z" transform="translate(0 0.01)"/><circle class="cls-1" cx="45.74" cy="89.37" r="9.05"/><circle class="cls-1" cx="45.74" cy="115.86" r="9.05"/><circle class="cls-1" cx="166.86" cy="79.31" r="11.52"/><circle class="cls-1" cx="166.86" cy="120.91" r="11.52"/></svg>