<?xml version="1.0" encoding="utf-8"?>
<!-- Generator: Adobe Illustrator 23.0.2, SVG Export Plug-In . SVG Version: 6.00 Build 0)  -->
<svg version="1.1" id="Layer_1" xmlns="http://www.w3.org/2000/svg" xmlns:xlink="http://www.w3.org/1999/xlink" x="0px" y="0px"
	 viewBox="0 0 256 256" style="enable-background:new 0 0 256 256;" xml:space="preserve">
<style type="text/css">
	.st0{fill:#193C61;}
	.st1{fill:#183B61;}
</style>
<path class="st0" d="M30.6,144.9c0,33.2,0,66.4,0,99.6c0,1.5-0.2,2.1-1.9,2c-4.2-0.1-8.3,0-12.5,0.1c-1.1,0-1.3-0.4-1.3-1.3
	c0-5.7,0-11.3,0-17c0-45.2,0-90.5,0-135.7c0-15.4,0-30.7-0.1-46.1c0-0.3,0-0.6,0-0.8c0.1-1.5-0.4-2.5-2-3.2
	C3.7,38-0.8,27.8,1.7,17.8c2.5-9.7,11.5-16.4,21.6-16c9.1,0.4,16.6,5.9,19.6,14.6c0.3,1,0.8,1.3,1.8,1.5c15.1,2.3,29.9,6.2,44,12.1
	c16,6.7,30.8,15.5,43.4,27.4c15.7,14.8,26,32.7,30.1,53.9c4.1,21.2,1.2,41.6-8,61.2c-1.3,2.8-2.9,5.6-4.3,8.4
	c-0.5,0.9-0.8,1-1.7,0.3c-1.8-1.5-3.5-3-5-4.8c-3-3.6-3.1-7.7-2-11.9c1.4-5.1,3.6-9.9,4.7-15c6-26.6,0.3-50.4-17-71.4
	c-15.9-19.2-36.4-31.5-59.8-39.4C60.9,36,52.4,34,43.8,32.5c-1.2-0.2-1.8,0-2.4,1.2c-2.1,4-5.3,7-9.3,8.9c-1.1,0.5-1.5,1.1-1.5,2.3
	C30.6,78.3,30.6,111.6,30.6,144.9z M35.6,23.3c0-7.2-5.9-13.1-13.1-13.1c-7.2,0-13.3,6.1-13.2,13.2c0.1,7.1,6.1,13,13.2,13
	C29.8,36.4,35.6,30.5,35.6,23.3z"/>
<path class="st0" d="M224.7,115.1c0-22.5,0-45,0-67.5c0-9.6,0.1-19.2,0.1-28.8c0-1.1,0.3-1.5,1.4-1.5c4.3,0.1,8.5,0.1,12.8,0.1
	c0.9,0,1.3,0.2,1.2,1.2c-0.1,1.1,0,2.2,0,3.3c0,62.4,0.1,124.7,0.1,187.1c0,0.2,0,0.4,0,0.7c-0.3,1.7,0.4,2.6,2,3.3
	c9.2,4,14.2,14.4,11.9,24.3c-2.3,10-11.3,17-21.4,16.7c-7-0.2-12.6-3.1-16.8-8.7c-0.7-0.9-1.4-1.2-2.4-1.4
	c-28.1-3.9-54.3-12.7-77.6-29.2c-19.9-14.1-34.4-32.4-40.9-56.1c-7.4-26.6-4.2-52.2,9.3-76.3c0.7-1.2,1.1-1.2,2.2-0.4
	c4.6,3.5,7.7,7.8,7.6,13.8c0,1.5-0.3,2.9-0.9,4.2c-10.4,26-8.2,51,6.4,74.8c10.1,16.4,24.3,28.6,41.1,37.8
	c15.5,8.5,32.2,13.7,49.6,16.5c1.1,0.2,1.7,0.1,2-1.3c1.5-6.5,5.3-11.3,11.3-14.4c0.7-0.4,1.2-0.6,1.2-1.7
	c-0.1-23.5-0.1-47-0.1-70.5c0-8.6,0-17.3,0-25.9C224.8,115.1,224.7,115.1,224.7,115.1z M220.2,232.4c0,7.3,5.9,13.3,13.1,13.2
	c7.2,0,13.1-6,13.1-13.1c0-7.2-5.9-13.1-13.1-13.1C226.1,219.4,220.2,225.2,220.2,232.4z"/>
<path class="st1" d="M116.1,217.9c-6.5,4.5-13.1,8.6-19.9,12.2c-12.5,6.6-25.5,11.6-39.4,14.4c-3.3,0.7-3.3,0.7-3.3-2.6
	c0-32.8,0-65.5,0-98.3c0-28.3,0-56.6-0.1-85c0-1.4,0.2-1.8,1.7-1.3c7.1,2.2,12.3,6.4,14.2,13.9c0.5,2.1,0.3,4.3,0.3,6.4
	c0,40-0.1,80,0.1,120.1c0,8.1-0.5,16.2,0.1,24.2c0.2,3.6,0.2,3.6,3.5,2.2c10.8-4.8,21.4-10.1,31-17.2c0.5-0.4,0.9-0.8,1.5-0.1
	C109.2,210.5,112.6,214.2,116.1,217.9z"/>
<path class="st0" d="M201.5,111.3c0,20,0,39.9,0,59.9c0,10.8-0.2,21.6-0.3,32.4c0,1.2-0.3,1.5-1.5,1.2c-3-0.9-5.8-2.2-8.3-4.1
	c-3.6-2.9-5.5-6.6-5.5-11.4c0-16-0.1-31.9-0.1-47.9c-0.1-33.9-0.1-67.7-0.2-101.6c0-2.2,0-2.2-2.2-1.4c-11.3,4.1-22.2,9-32.1,16
	c-0.7,0.5-1.1,0.5-1.6-0.2c-3.1-3.4-6.3-6.7-9.7-9.7c-0.9-0.8-0.6-1.1,0.2-1.6c12-8.3,25-14.6,38.8-19.3c6.9-2.3,13.9-4.1,20.9-5.7
	c1.5-0.3,2-0.1,1.9,1.5c-0.1,4.7-0.1,9.3-0.1,14c0,26,0,52,0,78C201.6,111.3,201.5,111.3,201.5,111.3z"/>
</svg>
