<svg id="Слой_1" data-name="Слой 1" xmlns="http://www.w3.org/2000/svg" viewBox="0 0 193.79 51.23"><defs><style>.cls-1{fill:#008de4;}</style></defs><title>dash</title><path class="cls-1" d="M16.74,0V11H41S50.75,12.15,48.54,26s-9.72,13.8-9.72,13.8H10.12V51.23H39.7S59.14,50.58,62.23,26c0,0,2.65-21.53-12.37-25.95Z"/><path class="cls-1" d="M0,30.47V27.06a6.3,6.3,0,0,1,6.31-6.3H32.24v.75a9,9,0,0,1-9,9Z"/><path class="cls-1" d="M93.35,14.54S71.86,13,66.64,30.47c-5.7,19.1,10.6,20.76,10.6,20.76h25.55L109.48,15ZM93.58,42H83s-8.26-.4-4.42-11.49c3.37-9.71,18.56-7.06,18.56-7.06Z"/><path class="cls-1" d="M149.6,14.68l-1.75,8H128.5l-1.12,1a3,3,0,0,0-.34,4.12h14.07s8.49,2.93,6.15,12.31-9.82,11.08-9.82,11.08H112.09L113.55,42h19.64l.89-.34a3,3,0,0,0,.87-5H121.17s-7.09.26-6.74-11c.4-13,16.42-11.12,18.18-10.94C133.54,14.78,149.6,14.68,149.6,14.68Z"/><path class="cls-1" d="M160.45,0c0,1.46-8.79,51.23-8.79,51.23H164l4.83-27.66s4.48-.5,7.84-.62A4.26,4.26,0,0,1,181,27.9l-3.83,23.33h12l4.55-30a5.86,5.86,0,0,0-5.79-6.73l-17.38,0L173.2,0Z"/></svg>