<svg id="Слой_1" data-name="Слой 1" xmlns="http://www.w3.org/2000/svg" viewBox="0 0 200.47 167.15"><defs><style>.cls-1{fill:#2970ff;}.cls-2{fill:#2dd8a3;}</style></defs><title>dcr</title><path class="cls-1" d="M0,0H45l65,66H62.53s-31.46,9.51-29,33.48S45.05,126,45.05,126s5.49,10.48,37.45,8L116,166.89H58s-29.41-3.49-46.88-29S1.68,84,1.68,84,10,52.67,40.06,42.05Z" transform="translate(0.18 0.26)"/><path class="cls-2" d="M200.29,166.34l-45,.22L90,100.88l47.47-.23S168.85,91,166.24,67s-11.61-26.41-11.61-26.41-5.55-10.46-37.49-7.81L83.52,0l58-.28s29.42,3.35,47,28.73,9.69,53.88,9.69,53.88S190,113.72,160,124.49Z" transform="translate(0.18 0.26)"/></svg>