<svg id="Слой_1" data-name="Слой 1" xmlns="http://www.w3.org/2000/svg" viewBox="0 0 198.3 198.3"><defs><style>.cls-1{fill:#f7931b;}.cls-2{fill:#fff;}</style></defs><title>ddx</title><circle class="cls-1" cx="99.15" cy="99.15" r="99.15"/><path class="cls-2" d="M145.33,103.08s13.74-2.75,14.14-16.5-13-20.81-13-20.81l-9.42-4.32,4.71-18.06-11-2.75-4.32,16.89L117.84,56l4.72-16.89-12.18-2.75L106.06,54l-21.59-5.5L81.33,60.27,90.75,63,84.08,77.94s-15.32-7.46-28.28,2a39.69,39.69,0,0,0-15.31,23.17s-2.75,16.49,10.21,21.2a30.5,30.5,0,0,0,15.7,0l-3.14,7.46,22,5.1-3.92,18.07,10.6,2,4.71-17.28,7.85,2L101,160l11.39,2,4.71-16.89s33.38,7.85,38.09-14.92S145.33,103.08,145.33,103.08Zm-76.57,8.63S53.84,119,55.41,103,72.69,88.55,72.69,88.55h5.89ZM119,131l-19.16-4.71L106,103l17.14,4.83s10.37,3.92,10.76,13.35S121,130.56,119,131ZM137.09,85.8c-1.18,9.81-14.93,7.85-14.93,7.85l-13-2.35L115,69.7l9.9,2.75S138.26,76,137.09,85.8Z" transform="translate(-0.71)"/></svg>