<?xml version="1.0" encoding="utf-8"?>
<!-- Generator: Adobe Illustrator 23.0.2, SVG Export Plug-In . SVG Version: 6.00 Build 0)  -->
<svg version="1.1" id="Layer_1" xmlns="http://www.w3.org/2000/svg" xmlns:xlink="http://www.w3.org/1999/xlink" x="0px" y="0px"
	 viewBox="0 0 64 64" style="enable-background:new 0 0 64 64;" xml:space="preserve">
<style type="text/css">
	.st0{fill:#2A282C;}
	.st1{fill:#84B2E2;}
	.st2{fill:#DFA435;}
	.st3{fill:#72C1B1;}
	.st4{fill:#191919;}
</style>
<g>
	<path class="st0" d="M31.9,53.2c-2.7,4-6.2,6.6-10.8,7.6C16,61.9,11.3,60.9,7,57.9c-1.1-0.7-1-0.9,0.2-1.6c2.9-1.5,4-5.1,2.4-7.9
		c-1.7-2.9-5.3-3.8-8.1-1.9c-1.1,0.7-1.3,0.6-1.5-0.8C-0.8,36.2,5.8,28,15.2,26.8c0.4,0,0.7-0.1,1.2-0.1c-0.9-2.1-1.6-4.2-1.8-6.4
		c-0.8-6.8,3.3-14.1,9.5-16.9c0.6-0.3,1.1-1.1,1.8-0.8c0.7,0.4,0.1,1.3,0.2,1.9C26.3,7.7,29,10.1,32,10c3.2-0.1,5.7-2.9,5.5-6.1
		c-0.1-1.5,0-1.5,1.2-1c9,4.2,12.7,13.9,8.7,23c-0.5,1.1,0.1,0.9,0.8,1c9.6,0.8,16.8,9.7,15.6,19.2c-0.2,1.2-0.4,1.2-1.4,0.6
		c-2.8-1.9-6.4-1.1-8.1,1.7c-1.7,2.8-0.6,6.4,2.4,8c1.2,0.7,1.2,0.8,0.1,1.7c-8,5.7-19,3.7-24.5-4.4C32.2,53.6,32.1,53.5,31.9,53.2z
		 M62.8,45.6c0-0.1,0.1-0.2,0.1-0.4c0.6-10-7.5-17.8-17.3-17.3c-2.7,0.2-5.2,1.1-7.5,2.5c-2,1.3-3.7,2.7-5,4.7
		c-0.3,0.4-0.5,0.8-0.2,1.4c2.3,5,2.3,10,0,15c-0.2,0.5-0.3,0.9,0.1,1.4c0.8,1,1.5,2,2.4,2.9c4.1,3.9,8.9,5.3,14.5,4.4
		c2.3-0.4,4.5-1.2,6.3-2.8c-3.9-2.4-4.1-6.2-2.9-9C54.7,45,58.1,44.1,62.8,45.6z M38.6,4c-0.4,3.4-1.9,5.8-5.3,6.7
		c-2.4,0.7-6.2-0.4-7.3-3.1c-0.4-0.8-0.7-1.6-0.9-2.5c-0.1-0.5-0.9-1.2-1.1-1c-1,1.2-2.4,1.8-3.6,2.9c-4.7,4.6-6.3,11.5-3.8,17.7
		c2.6,6.4,7.6,9.8,14.4,10.4c0.6,0.1,1-0.1,1.3-0.7c1.3-2.1,3.1-3.6,5.3-4.9c2.3-1.4,4.7-2.3,7.4-2.5c0.7-0.1,1.1-0.4,1.4-1
		c2.5-5,2.2-10-0.3-14.9C44.5,7.9,41.9,5.6,38.6,4z M7.9,57.2c3.7,2.6,7.7,3.5,11.9,2.8c5.6-0.9,9.7-4.1,12.2-9.3
		c2.2-4.6,2-9.3-0.1-13.9c-0.2-0.5-0.6-0.8-1.2-0.9c-5.7-0.4-10.1-3-13.3-7.6c-0.3-0.4-0.6-0.7-1.1-0.6c-2.7,0.3-5.2,0.9-7.5,2.3
		c-2,1.2-3.3,3-4.8,4.8c-2.5,3.2-3.1,6.8-2.9,10.7c4.4-1.7,7.6-0.8,9.5,2.5C12,50.5,12.1,54.1,7.9,57.2z M48.4,17.5
		c0,0.7,0,1.1,0,1.5C48.5,18.6,48.6,18.1,48.4,17.5z M48.4,20.1C48.3,20.1,48.3,20.1,48.4,20.1c0,0.1,0.1,0.1,0.1,0.1
		C48.5,20.1,48.5,20.1,48.4,20.1C48.4,20.1,48.4,20.1,48.4,20.1z"/>
	<path class="st1" d="M62.8,45.6c-4.8-1.5-8.1-0.6-9.6,2.8c-1.3,2.8-1,6.6,2.9,9c-1.9,1.6-4.1,2.4-6.3,2.8
		c-5.5,0.9-10.4-0.5-14.5-4.4c-0.9-0.9-1.6-1.9-2.4-2.9c-0.4-0.4-0.3-0.9-0.1-1.4c2.3-5,2.4-10,0-15c-0.3-0.6-0.1-0.9,0.2-1.4
		c1.3-2,3.1-3.4,5-4.7c2.3-1.5,4.8-2.4,7.5-2.5c9.8-0.6,17.9,7.3,17.3,17.3C62.9,45.3,62.9,45.4,62.8,45.6z"/>
	<path class="st2" d="M38.6,4c3.3,1.6,5.8,3.8,7.4,7c2.5,4.9,2.8,9.9,0.3,14.9c-0.3,0.6-0.7,1-1.4,1c-2.7,0.2-5,1.1-7.4,2.5
		c-2.2,1.3-3.9,2.8-5.3,4.9c-0.3,0.5-0.7,0.7-1.3,0.7c-6.8-0.7-11.8-4-14.4-10.4c-2.5-6.1-0.8-13.1,3.8-17.7C21.6,5.9,23,5.3,24,4.1
		c0.2-0.2,1,0.5,1.1,1C25.3,6,25.7,6.8,26,7.7c1.1,2.7,4.9,3.7,7.3,3.1C36.8,9.8,38.2,7.5,38.6,4z"/>
	<path class="st3" d="M7.9,57.2c4.2-3.1,4.1-6.8,2.7-9.3c-1.9-3.3-5.1-4.2-9.5-2.5C0.9,41.5,1.5,37.9,4,34.8C5.4,33,6.8,31.3,8.8,30
		c2.3-1.4,4.9-2.1,7.5-2.3c0.5-0.1,0.9,0.3,1.1,0.6c3.2,4.7,7.7,7.2,13.3,7.6c0.7,0,1,0.3,1.2,0.9c2.1,4.6,2.3,9.3,0.1,13.9
		c-2.4,5.2-6.6,8.4-12.2,9.3C15.6,60.8,11.6,59.9,7.9,57.2z"/>
	<path class="st4" d="M48.4,17.5c0.2,0.6,0.2,1.1,0,1.5C48.4,18.6,48.4,18.2,48.4,17.5z"/>
	<path class="st4" d="M48.4,20.1C48.4,20.1,48.4,20.1,48.4,20.1c0.1,0,0.1,0.1,0.1,0.1C48.4,20.2,48.4,20.2,48.4,20.1
		C48.3,20.1,48.3,20.1,48.4,20.1z"/>
</g>
</svg>
