<svg id="Слой_1" data-name="Слой 1" xmlns="http://www.w3.org/2000/svg" viewBox="0 0 200.33 200.33"><defs><style>.cls-1{fill:#c40978;}.cls-2{fill:none;stroke:#c40978;stroke-miterlimit:10;stroke-width:3px;}.cls-3{fill:#fff;}.cls-4{fill:#c50979;}</style></defs><title>dim</title><circle class="cls-1" cx="100.17" cy="100.17" r="90.43"/><circle class="cls-2" cx="100.17" cy="100.17" r="98.67"/><polygon class="cls-3" points="41.37 151.23 51.83 151.23 51.48 139.72 41.37 139.72 41.37 151.23"/><path class="cls-3" d="M158.42,77.74c-.44-1.31-.82-2.64-1.18-4-1.85-6.81-10.41-27.34-46.62-28.64-28.24-1-47.29,0-47.29,0V56.28h9.76V66.74H52.51V77.91H62.8v9.76H41.7V98.49h21L63,109H51.82l-.35,10.82H62.69l-.09,10.46H52.16l-.34,10.12,11.3.07L63,151.86h47.79s35.23-4.19,44.65-33.14C162.88,95.79,160,82.35,158.42,77.74ZM100.55,130h-6V87.61H84.19V77.86H94.57V66.42s1.15,0,15.67,0a19.71,19.71,0,0,1,14.3,6.2A26.52,26.52,0,0,1,132,90c.15,2.88.27,6.92.27,12.45a24.81,24.81,0,0,1-7.22,17.22A33.57,33.57,0,0,1,100.55,130Z" transform="translate(-0.33 -0.63)"/><rect class="cls-4" x="62.41" y="87.05" width="10.81" height="10.81"/><polygon class="cls-4" points="73.22 119.35 62.35 119.35 62.35 108.33 73.29 108.33 73.22 119.35"/><rect class="cls-4" x="73.04" y="119.35" width="10.81" height="10.81"/></svg>