<?xml version="1.0" encoding="utf-8"?>
<!-- Generator: Adobe Illustrator 23.0.1, SVG Export Plug-In . SVG Version: 6.00 Build 0)  -->
<svg version="1.1" id="Слой_1" xmlns="http://www.w3.org/2000/svg" xmlns:xlink="http://www.w3.org/1999/xlink" x="0px" y="0px"
	 viewBox="0 0 32.71 32.49" style="enable-background:new 0 0 32.71 32.49;" xml:space="preserve">
<style type="text/css">
	.st0{fill:#044DA2;}
</style>
<g>
	<path class="st0" d="M16.32,32.64C7.32,32.64,0,25.31,0,16.31S7.32-0.01,16.32-0.01c9,0,16.32,7.32,16.32,16.32
		S25.32,32.64,16.32,32.64z M16.32,0.99C7.87,0.99,1,7.87,1,16.31s6.87,15.32,15.32,15.32c8.45,0,15.32-6.87,15.32-15.32
		S24.77,0.99,16.32,0.99z"/>
</g>
<g>
	<path class="st0" d="M11.47,5.56l0.28,5.79c0,0-2.1,1.14-2.16,2.95H4.71C4.71,14.3,4.77,7.94,11.47,5.56z"/>
</g>
<g>
	<path class="st0" d="M22,5.56l-0.28,5.79c0,0,2.1,1.14,2.16,2.95h4.88C28.76,14.3,28.7,7.94,22,5.56z"/>
</g>
<g>
	<path class="st0" d="M22,27.31l-0.28-5.79c0,0,2.1-1.14,2.16-2.95h4.88C28.76,18.56,28.7,24.93,22,27.31z"/>
</g>
<g>
	<path class="st0" d="M11.47,27.31l0.28-5.79c0,0-2.1-1.14-2.16-2.95H4.71C4.71,18.56,4.77,24.93,11.47,27.31z"/>
</g>
<g>
	<polygon class="st0" points="14.65,4.59 18.56,4.59 18.56,12.43 18.8,28.45 14.65,28.45 	"/>
</g>
<g>
	<circle class="st0" cx="16.32" cy="16.49" r="4.49"/>
</g>
</svg>
