<?xml version="1.0" encoding="utf-8"?>
<!-- Generator: Adobe Illustrator 23.0.2, SVG Export Plug-In . SVG Version: 6.00 Build 0)  -->
<svg version="1.1" id="Layer_1" xmlns="http://www.w3.org/2000/svg" xmlns:xlink="http://www.w3.org/1999/xlink" x="0px" y="0px"
	 viewBox="0 0 64 64" style="enable-background:new 0 0 64 64;" xml:space="preserve">
<style type="text/css">
	.st0{fill:#C00202;}
</style>
<path class="st0" d="M23,60.6c0,0-0.1-0.1,0-0.1c0-0.3,0-0.7,0-1c0-8.6,0-17.1,0-25.7c0-0.6,0-1.1,0-1.7c-0.1-0.8-0.5-1-1.2-0.7
	c-0.2,0.1-0.4,0.1-0.5,0.1c-3.8-0.2-6.9-1.9-9.6-4.5c-2.6-2.5-4.2-5.5-5.1-8.9c0.2-0.4-0.3-1,0.4-1.2c2.7,2.2,5.9,3,9.3,3
	c5.7,0.1,11.3,0,17,0c0.9,0,1,0.3,1,1.1c0,10,0,19.9-0.1,29.9c0,0.9,0.2,1.1,1.1,1c4-0.1,7.7-1.3,10.8-3.8c3.2-2.6,5.2-6.1,6-10.2
	c1.3-6.8-0.3-12.9-5.3-17.8c-2.4-2.3-5.4-3.7-8.7-4.2c-1.4-0.2-2.8-0.4-4.3-0.4c-5.5,0-11,0-16.4,0c-6.1,0-10.8-2.5-14.3-7.4
	C1.3,5.7,0.1,2.7,0,0.4c1.7,1.1,3.6,1.7,5.5,2.3c3,1,6,1.5,9.2,1.5c6.7,0,13.4,0,20.2,0c6.1,0,11.8,1.5,16.8,5
	c6.9,4.7,10.6,11.5,12,19.6c1.1,6.6,0.2,12.9-2.7,18.9c-2.6,5.5-6.6,9.8-12,12.6c-4.7,2.4-9.8,3.4-15.1,3.4c-2.3,0-4.5,0-6.8,0
	c-0.9,0-1.7-0.2-2.4-0.7C24,62.2,23.7,61.2,23,60.6z"/>
</svg>
