<svg xmlns="http://www.w3.org/2000/svg" xmlns:xlink="http://www.w3.org/1999/xlink" viewBox="0 0 485.73 416.91"><style><![CDATA[.L{fill:none}.M{fill:#b2b2cc}.N{stroke-miterlimit:10}.O{stroke-width:2}.P{stroke:#000}.Q{fill:#dedeff}.R{clip-path:url(#B)}]]></style><defs><clipPath id="A" transform="translate(-172.91 -257.56)"><path d="M164.42 218.55h1343.73v467.78H164.42z" class="L"/></clipPath><clipPath id="B" transform="translate(-172.91 -257.56)"><path d="M38.72 161.63h733.92V987.3H38.72z" class="L"/></clipPath><clipPath id="C" transform="translate(-172.91 -257.56)"><path d="M397.4 257.8h260.03v416.08H397.4z" class="L"/></clipPath><path id="D" d="M246.48 20.13a2.91 2.91 0 1 0 5.82 0 2.91 2.91 0 0 0-4.968-2.058 2.91 2.91 0 0 0-.852 2.058"/><path id="E" d="M344.4 120.86a2.91 2.91 0 0 0 4.968 2.058 2.91 2.91 0 0 0-2.058-4.968 2.91 2.91 0 0 0-2.91 2.91"/></defs><g clip-path="url(#A)"><g clip-path="url(#C)" opacity=".7" class="R"><path d="M225.26 158.25H483.6v257.3H225.26z" fill="#fff"/><path d="M225.26 158.25H483.6v257.3H225.26z" class="L N O P"/><path d="M325.88 1h157.88v157.24H325.88z" fill="#fff"/><path d="M325.88 1h157.88v157.24H325.88z" class="L N O P"/><path d="M225.26 1H325.9v99H225.26z" fill="#fff"/><path d="M225.26 1H325.9v99H225.26z" class="L N O P"/><path d="M225.26 100h58.47v58.24h-58.47z" fill="#fff"/><path d="M225.26 100h58.47v58.24h-58.47z" class="L N O P"/></g><g stroke="#363660" class="L N O"><path d="M326.07 1.43L482.27 100H326.1"/><path d="M225.25 18.74l16.7-17.3 120.55 119.8-120.57 148.23-16.67-20.6"/><path d="M225.25 396.24l16.7 19.15 241.1-275.98h-157.7L241.94 241l-16.7-19.42"/><path d="M241.94 1.43V415.4"/></g><g class="M"><path d="M359.7 118.6h4.55v4.55h-4.55zM239.4.67h4.55v4.55h-4.55zm.26 52.06h4.55v4.55h-4.55zm84-52.06h4.55v4.55h-4.55z"/><path d="M324.05.67h4.55v4.55h-4.55zm155.7 137.23h4.55v4.55h-4.55zm-120.3 137.73H364v4.55h-4.55zm120.3-178.3h4.55v4.55h-4.55zM239.4 238.37h4.55v4.55h-4.55zm84.5-101.35h4.55v4.55h-4.55zM239.8 266.4h4.55v4.55h-4.55zm0 145.58h4.55v4.55h-4.55z"/><g class="R"><use xlink:href="#D"/><use xlink:href="#E"/><path d="M238.78 225.6a2.91 2.91 0 1 0 2.91-2.91 2.91 2.91 0 0 0-2.91 2.91m-5.95 24.84a2.91 2.91 0 1 0 2.91-2.91 2.91 2.91 0 0 0-2.91 2.91M456.72 93.8a2.91 2.91 0 1 0 2.91-2.91 2.91 2.91 0 0 0-2.91 2.91M245.47 250.44a2.91 2.91 0 1 0 .852-2.058 2.91 2.91 0 0 0-.852 2.058"/><path d="M239.15 399.53a2.91 2.91 0 1 0 .852-2.058 2.91 2.91 0 0 0-.852 2.058m84.05-379.4a2.91 2.91 0 1 0 2.91-2.91 2.91 2.91 0 0 0-2.91 2.91m133.52 128.94a2.91 2.91 0 1 0 2.91-2.91 2.91 2.91 0 0 0-2.91 2.91M231.67 20.13a2.91 2.91 0 1 0 .852-2.058 2.91 2.91 0 0 0-.852 2.058"/></g></g><path d="M226.03 249.33V397.4L.58 140.04h135.1l90.36 109.3z" fill="#363660"/><g class="M"><path d="M135.2 141.03l89.9 108.65v145.1L2.75 141.03zm.46-1H.58l225.45 257.4v-148.1zm-134-40.17L155.57.92h69.6v17.95l-81.94 81H1.67z"/><path d="M143.43 100.35H0L155.43.44h70.24V19.1zm-140.1-1h139.7l81.65-80.7V1.44h-69z"/></g><path d="M135.64 140l-14.6-17.75 22.25-22h81.96v121.73L153.84 140h-18.2z" class="Q"/><path d="M225.74 223.3L153.6 140.5h-18.2l-15-18.27 22.7-22.48h82.66zm-89.88-83.77h18.23l70.7 81.15V100.74h-81.3l-21.8 21.56z" class="M"/><path d="M153.84 140l71.42 81.97v27L135.64 140h18.2z" class="Q"/><path d="M225.74 250.35L134.6 139.52h19.5l71.68 82.27zM136.67 140.5l88.1 107.1v-25.45L153.6 140.5z" class="M"/><path d="M225.25 18.36v81.9H143.3l81.96-81.9z" class="Q"/><g class="M"><path d="M225.74 100.74H142.1l83.65-83.56zm-81.27-1h80.3v-80.2zM120.1 118.6h4.55v4.55h-4.55zM156.13.67h4.55v4.55h-4.55z"/><path d="M155.74.67h4.55v4.55h-4.55zM.05 137.9H4.6v4.55H.05zm120.3 137.73h4.55v4.55h-4.55zM.05 97.33H4.6v4.55H.05zm139.88 23.53a2.91 2.91 0 1 1-2.91-2.91 2.91 2.91 0 0 1 2.91 2.91M27.62 93.8a2.91 2.91 0 1 1-.852-2.058 2.91 2.91 0 0 1 .852 2.058M161.1 20.13a2.91 2.91 0 1 1-.852-2.058 2.91 2.91 0 0 1 .852 2.058M27.62 149.07a2.91 2.91 0 1 1-2.91-2.91 2.91 2.91 0 0 1 2.91 2.91"/></g></g></svg>