<?xml version="1.0" encoding="utf-8"?>
<!-- Generator: Adobe Illustrator 23.0.2, SVG Export Plug-In . SVG Version: 6.00 Build 0)  -->
<svg version="1.1" id="Layer_1" xmlns="http://www.w3.org/2000/svg" xmlns:xlink="http://www.w3.org/1999/xlink" x="0px" y="0px"
	 viewBox="0 0 64 64" style="enable-background:new 0 0 64 64;" xml:space="preserve">
<style type="text/css">
	.st0{fill:#3054DD;}
	.st1{fill:#0E3895;}
	.st2{fill:#FEB508;}
</style>
<g>
	<path class="st1" d="M30.3,0.6C30.9,1.1,31,1.8,31,2.7c0,19.6-0.1,39.3,0,58.9c0,1.8-0.8,1.8-2.2,1.8C17.1,63,5.3,54,1.6,42
		c-6-19.2,5.9-37.2,23.9-40.6c0.6-0.1,1.4,0.1,1.6-0.8C28.2,0.6,29.2,0.6,30.3,0.6z"/>
	<path class="st2" d="M60,32.1C60,17.7,49.1,6,34.8,5c-2.2-0.1-1.6-1.4-1.7-2.6C33,1,33.8,0.9,34.9,1c6.9,0.7,12.9,3,18.2,7.6
		c4,3.5,7,7.5,8.8,12.4c7.3,19.5-5.3,39.5-25.4,42.3c-3.2,0.4-3.5,0.1-3.4-2.5c0.1-1.1,0.5-1.3,1.5-1.4C49.5,58.1,60,46.8,60,32.1z"
		/>
	<path class="st2" d="M39,47.7c-0.9,0-1.9,0-2.8,0c-0.4,0-0.7-0.1-0.7-0.6c0-0.4,0.2-0.7,0.7-0.7c1.8,0,3.6,0,5.3,0
		c0.4,0,0.7,0.2,0.7,0.6c0.1,0.5-0.2,0.8-0.6,1.1c-1,0.6-1.9,1.3-3.5,2.3c1.6,0.1,2.5,0.1,3.4,0.2c0.4,0,0.7,0.2,0.7,0.7
		c0,0.5-0.3,0.7-0.7,0.7c-1.8,0-3.6,0-5.3,0c-0.4,0-0.7-0.2-0.8-0.6c0-0.5,0.2-0.8,0.6-1.1c1-0.7,2-1.3,3-2
		C39.1,48,39.1,47.9,39,47.7z"/>
	<path class="st2" d="M38.9,42.6c-1.9,0-3.6-1.6-3.7-3.5c-0.1-1.9,1.5-3.5,3.5-3.6c2.1-0.1,3.7,1.5,3.7,3.6
		C42.5,40.9,40.8,42.6,38.9,42.6z M41.1,39c-0.1-1.4-0.9-2.2-2.3-2.1c-1.5,0-2.2,0.9-2.2,2.3c0,1.3,1,2.1,2.2,2.1
		C40.2,41.2,41.1,40.5,41.1,39z"/>
	<path class="st2" d="M35.5,16.7c-0.4-2,1.3-1.9,2.3-1.5c1.5,0.5,4.2-1.9,4.5,1.6c0.2,2.4-1.2,3.8-3.4,3.8
		C36.7,20.6,35.5,19.3,35.5,16.7z M39,16.3c-0.8,0.3-2.2-0.6-2.1,1.2c0.1,1.3,0.9,1.6,2,1.6c1.2,0,2.1-0.6,2.1-1.8
		C41,15.7,39.6,16.7,39,16.3z"/>
	<path class="st2" d="M42.5,31.7c-0.1,0.4,0,0.9-0.2,1.2c-0.3,0.6-0.4,1.7-1.4,1.4c-1-0.4-0.1-1.1,0.1-1.6c0.3-1.1,0.3-2.1-0.7-2.8
		c-0.9-0.6-1.8-0.7-2.7,0c-1,0.8-1.3,1.8-0.7,3c0.2,0.5,0.9,1.1,0.1,1.5c-0.9,0.4-1.1-0.6-1.3-1.1c-0.7-1.5-0.4-3,0.7-4.1
		c1.1-1.1,2.5-1.4,3.9-0.8C41.7,28.9,42.4,30.1,42.5,31.7z"/>
	<path class="st2" d="M42.3,25.5c0,1.6,0.2,3-1.7,1c-0.5-0.6-2.1-0.1-3.2-0.2c-0.6-0.1-1.7,0.5-1.8-0.6c-0.1-1.2,1.1-0.6,1.7-0.8
		c1.4-0.3,2.7,0.4,4.2-0.9C42.5,23,42,25.1,42.3,25.5z"/>
	<path class="st2" d="M38.8,23c-1-0.4-3,0.6-3-0.7c0-1.4,1.9-0.7,3-0.6c1.2,0,3.3-0.8,3.4,0.7C42.1,23.6,39.9,22.6,38.8,23z"/>
	<path class="st2" d="M39,45c-0.8,0-1.6,0-2.5,0c-0.5,0-1,0-0.9-0.7c0-0.6,0.5-0.6,1-0.6c1.6,0,3.3,0,4.9,0c0.4,0,0.8,0.1,0.8,0.6
		c0.1,0.6-0.4,0.7-0.9,0.7C40.6,45,39.8,45,39,45z"/>
</g>
</svg>
