<svg id="Слой_1" data-name="Слой 1" xmlns="http://www.w3.org/2000/svg" viewBox="0 0 168.36 200"><defs><style>.cls-1{fill:#5dbdaa;}</style></defs><title>dtrc</title><circle class="cls-1" cx="74.92" cy="10.49" r="10.49"/><circle class="cls-1" cx="12.68" cy="103.26" r="12.68"/><circle class="cls-1" cx="75.98" cy="132.78" r="13.54"/><circle class="cls-1" cx="51.96" cy="58.74" r="7.82"/><circle class="cls-1" cx="85.09" cy="39.39" r="6.01"/><circle class="cls-1" cx="100.48" cy="57.98" r="7.05"/><circle class="cls-1" cx="154.06" cy="63.51" r="7.63"/><circle class="cls-1" cx="111.07" cy="87.72" r="5.53"/><circle class="cls-1" cx="82.75" cy="66.56" r="4.58"/><circle class="cls-1" cx="17.16" cy="68.47" r="6.48"/><circle class="cls-1" cx="63.68" cy="103.55" r="6.48"/><circle class="cls-1" cx="85.9" cy="102.21" r="5.15"/><circle class="cls-1" cx="163.88" cy="97.73" r="4.48"/><circle class="cls-1" cx="119.04" cy="105.97" r="7.97"/><circle class="cls-1" cx="115.93" cy="132.15" r="8.39"/><circle class="cls-1" cx="45.57" cy="134.63" r="7.44"/><circle class="cls-1" cx="27.46" cy="163.42" r="8.39"/><circle class="cls-1" cx="36.04" cy="191.45" r="5.53"/><circle class="cls-1" cx="84.66" cy="163.89" r="3.91"/><circle class="cls-1" cx="123.65" cy="153.69" r="4.39"/><circle class="cls-1" cx="150.01" cy="155.41" r="4.58"/><circle class="cls-1" cx="134.84" cy="192.2" r="7.8"/></svg>