<?xml version="1.0" encoding="utf-8"?>
<!-- Generator: Adobe Illustrator 23.0.2, SVG Export Plug-In . SVG Version: 6.00 Build 0)  -->
<svg version="1.1" id="Layer_1" xmlns="http://www.w3.org/2000/svg" xmlns:xlink="http://www.w3.org/1999/xlink" x="0px" y="0px"
	 viewBox="0 0 64 64" style="enable-background:new 0 0 64 64;" xml:space="preserve">
<style type="text/css">
	.st0{fill:#3054DC;}
	.st1{fill:#323C71;}
	.st2{fill:#68A698;}
	.st3{fill:#ECECEC;}
</style>
<path class="st2" d="M1.7,35.1C1.7,18.4,13,5.5,28.1,3.5c2.4-0.3,4.8-0.4,7.2,0c0.8,0.1,1.1-0.1,1.2-0.9c0.1-0.7,0.3-1.3,0.5-2
	c0.1-0.4,0.2-0.5,0.6-0.4c1.8,0.5,3.6,0.9,5.5,1.4c0.4,0.1,0.5,0.3,0.4,0.7c-0.2,0.8-0.4,1.6-0.6,2.3c-0.1,0.5,0,0.7,0.4,0.9
	c6.5,2.6,11.4,7,15,13c6.5,11.1,5,25.7-3.6,35.2c-5.1,5.7-11.5,9.2-19.1,10c-10.1,1.1-18.7-2.1-25.7-9.5C4.4,48.4,1.8,41.4,1.7,35.1
	z M36.5,50.5c0-1.9,0-3.7,0-5.6c0-0.5-0.1-0.7-0.7-0.7c-3.2,0-6.4,0-9.6,0c-0.6,0-0.6-0.1-0.5-0.7c1.7-6.5,3.4-13,5.2-19.5
	c1.2-4.4,2.3-8.8,3.5-13.1c0.2-0.6,0.1-0.9-0.6-0.9c-1.1,0-2.2-0.1-3.3,0C17.6,10.8,7.7,22,8.4,35c0.8,14,13.6,24.2,27.4,21.9
	c0.6-0.1,0.7-0.3,0.7-0.8C36.5,54.2,36.5,52.3,36.5,50.5z M42,22c-2.7,0-4.8,2.1-4.8,4.8c0,2.6,2.2,4.7,4.8,4.8
	c2.6,0,4.8-2.2,4.8-4.8C46.8,24.1,44.6,22,42,22z"/>
<path class="st3" d="M36.5,50.5c0,1.9,0,3.7,0,5.6c0,0.5-0.1,0.8-0.7,0.8C22.1,59.1,9.3,48.9,8.4,35c-0.8-13,9.2-24.2,22.1-25
	c1.1-0.1,2.2,0,3.3,0c0.7,0,0.8,0.3,0.6,0.9c-1.2,4.4-2.3,8.8-3.5,13.1c-1.7,6.5-3.4,13-5.2,19.5c-0.1,0.5-0.1,0.7,0.5,0.7
	c3.2,0,6.4,0,9.6,0c0.6,0,0.7,0.2,0.7,0.7C36.5,46.8,36.5,48.6,36.5,50.5z"/>
<path class="st3" d="M42,22c2.6,0,4.7,2.1,4.8,4.7c0,2.6-2.2,4.8-4.8,4.8c-2.6,0-4.7-2.1-4.8-4.8C37.2,24.1,39.3,22,42,22z"/>
</svg>
