<?xml version="1.0" encoding="utf-8"?>
<!-- Generator: Adobe Illustrator 23.0.2, SVG Export Plug-In . SVG Version: 6.00 Build 0)  -->
<svg version="1.1" id="Layer_1" xmlns="http://www.w3.org/2000/svg" xmlns:xlink="http://www.w3.org/1999/xlink" x="0px" y="0px"
	 viewBox="0 0 64 64" style="enable-background:new 0 0 64 64;" xml:space="preserve">
<style type="text/css">
	.st0{fill:#8D45FF;}
	.st1{fill:#3054DD;}
</style>
<g>
	<path class="st0" d="M2.2,43.6c-0.8-2.2-1.4-4.4-1.8-6.7C0.1,35.6,0.1,34.3,0,33c0-0.7,0-1.4,0-2.1c0.1-4,1-7.8,2.5-11.4
		c2.3-5.2,5.9-9.6,10.5-12.9c2.3-1.7,4.9-3,7.6-4c4.2-1.6,8.6-2.3,13-2c10.2,0.6,18.4,5.1,24.6,13.3c0,0,0.1,0.1,0.1,0.1
		c1.7,2.6,3.2,5.3,4.1,8.2c1.8,5.6,2.1,11.2,0.7,16.9c-0.9,3.9-2.6,7.5-4.9,10.8c-1.2,1.7-2.6,3.2-4,4.6c-2.3,2.3-5,4-7.8,5.4
		c-1.9,1-4,1.7-6.1,2.3c-4.1,1.1-8.2,1.3-12.4,0.8c-1.1-0.1-2.3-0.2-3.4-0.5c-2.3-0.7-4.6-1.5-6.8-2.6c-2.6-1.3-5-2.9-7.2-4.9
		C6.9,52,4.1,48.1,2.2,43.6z M55.8,15.4c-1-1.5-2.3-2.7-3.5-3.9c-1.7-1.8-3.7-3.2-5.9-4.4c-2.8-1.7-5.8-2.7-9-3.3
		c-1.5-0.3-3.1-0.5-4.7-0.5c-5.5,0-10.7,1.1-15.5,4C8,12.6,3.2,20.7,2.7,31.3c-0.1,2.5,0.1,5,0.9,7.4c0.4,1.2,0.6,2.4,1.1,3.6
		c0.1,0.2,0.1,0.3,0.2,0.5c2.1,4.9,5.2,8.9,9.5,12c4.1,3.1,8.8,5,13.9,5.6c4.5,0.5,8.9,0.1,13.2-1.4c2.1-0.8,4.1-1.6,6-2.8
		c2.6-1.5,4.8-3.5,6.8-5.8c3.6-4.2,5.9-9.1,6.6-14.7c0.4-2.9,0.3-5.7-0.1-8.6c-0.2-1.5-0.7-2.9-1.1-4.3
		C58.8,20.1,57.5,17.6,55.8,15.4z"/>
	<path class="st0" d="M24.8,37.3c-1.4-0.4-2.8-0.4-4.2-0.7c-1.8-0.4-3.6-0.9-5.4-1.4c-1.1-0.4-2.1-0.8-3-1.6c-1.2-1-1.2-2.2,0-3.1
		C14,29.1,16,28.5,18,28c5.8-1.4,11.7-1.6,17.7-1.3c1.7,0.1,3.5,0.3,5.2,0.4c0.1,0,0.2,0,0.2,0c0.4,0.2,0.7,0.2,1.1,0.2
		c2,0.5,4.1,0.8,6,1.5c1,0.4,2,0.8,2.8,1.5c1.1,0.8,1.3,2.1,0.3,3c-0.6,0.6-1.4,1.1-2.2,1.4c-4.3,1.7-8.8,2.2-13.3,2.5
		c-0.2,0-0.3,0.1-0.5,0.1c-2.4,0-4.7,0-7.1,0C27.2,37.2,26,37.1,24.8,37.3z"/>
	<path class="st0" d="M19.4,41.4c4.6-1.1,9.3-1.5,14-1.3c3.9,0.1,7.7,0.4,11.4,1.6c1.1,0.3,2.3,0.7,3.2,1.5c1.3,1,1.3,2,0,3
		c-0.8,0.6-1.7,0.9-2.6,1.3c-1.4,0.5-2.9,0.8-4.3,1.1c-4.2,0.8-8.5,0.7-12.8,0.7c-1.7,0-3.4-0.4-5.1-0.4c-1.4,0-2.7-0.6-4-1
		c-1.7-0.5-3.3-1-4.6-2.3c-0.1-0.1-0.1-0.1-0.2-0.2c0,0,0,0,0,0c-0.5-1.2,0.4-1.8,1.2-2.5c1.1-0.5,2.1-0.9,3.2-1.4
		C19.1,41.4,19.2,41.4,19.4,41.4z"/>
	<path class="st0" d="M45.5,22.2c-5.5,1.6-11.2,1.8-16.9,1.7c-2.6-0.1-5.1-0.5-7.6-0.9c-2-0.3-4.1-0.9-5.7-2.3
		c-0.9-0.7-1-1.6-0.2-2.5c0.7-0.8,1.7-1.2,2.6-1.5c2.9-1.1,6-1.5,9-1.7c1-0.1,2.1-0.1,3.1-0.2c1.3,0,2.7,0,4,0
		c3.8,0.2,7.6,0.5,11.2,1.6c1.5,0.5,3.1,0.9,4,2.4c0.3,0.9-0.1,1.4-0.8,1.9c-0.5,0.4-1.2,0.7-1.7,1.1C46.2,22,45.8,22.1,45.5,22.2
		L45.5,22.2z"/>
</g>
<path class="st1" d="M462.9-31.1c1.1,0.2,1.8,0.9,1.8,1.9c0,1.1-0.5,1.9-1.7,1.9c-1.2,0-1.7-0.8-1.7-1.9
	C461.2-30.2,461.6-31.1,462.9-31.1z"/>
</svg>
