<?xml version="1.0" encoding="utf-8"?>
<!-- Generator: Adobe Illustrator 23.0.2, SVG Export Plug-In . SVG Version: 6.00 Build 0)  -->
<svg version="1.1" id="Layer_1" xmlns="http://www.w3.org/2000/svg" xmlns:xlink="http://www.w3.org/1999/xlink" x="0px" y="0px"
	 viewBox="0 0 64 64" style="enable-background:new 0 0 64 64;" xml:space="preserve">
<style type="text/css">
	.st0{fill:#0033F9;}
</style>
<image style="overflow:visible;" width="640" height="640" xlink:href="../../Downloads/EDCBLOCKCHAIN logo PNG.png"  transform="matrix(1 0 0 1 -1090.1276 -288)">
</image>
<g>
	<path class="st0" d="M1.1,49.3h3.2h3.2h37.1c2.3,0,4.1-1.8,4.1-4.1c0-2.3-1.8-4.1-4.1-4.1H8.3v-5.3h19.2c0.5,0,0.9-0.4,0.9-0.9
		v-6.3c0-0.5-0.4-0.9-0.9-0.9H8.3v-5.3h36.2c2.3,0,4.1-1.8,4.1-4.1v0c0-2.3-1.8-4.1-4.1-4.1H7.4H4.2H1.1c-0.5,0-0.9,0.4-0.9,0.9v3.2
		v0v10.3v6.3v13.5C0.1,48.9,0.5,49.3,1.1,49.3z"/>
	<path class="st0" d="M47,8.8c5,0.5,8.9,4.7,8.9,9.8c0,3.8-2.2,7.2-5.4,8.8c-0.7,0.1-1.4,0.2-2,0.2H34.9c-0.5,0-0.9,0.4-0.9,0.9v6.3
		c0,0.5,0.4,0.9,0.9,0.9h14.4c0.4,0,0.8,0.1,1.3,0.2c3.2,1.6,5.4,5,5.4,8.8c0,5.1-3.9,9.3-8.9,9.8c-0.1,0-0.2,0-0.3,0H1.1
		c-0.5,0-0.9,0.4-0.9,0.9V62c0,0.5,0.4,0.9,0.9,0.9h45.7c0.1,0,0.2,0,0.2,0c9.5-0.5,17-8.4,17-18c0-5.2-2.2-9.8-5.7-13.1
		c3.5-3.3,5.7-7.9,5.7-13.1c0-9.6-7.5-17.4-17-18c-0.1,0-0.2,0-0.2,0H1.1C0.5,0.6,0.1,1,0.1,1.5v6.3c0,0.5,0.4,0.9,0.9,0.9"/>
</g>
</svg>
