<?xml version="1.0" encoding="utf-8"?>
<!-- Generator: Adobe Illustrator 23.0.2, SVG Export Plug-In . SVG Version: 6.00 Build 0)  -->
<svg xmlns="http://www.w3.org/2000/svg" width="162" height="62"><g fill="none"><path d="M131.4 21.1c-7.3 0-13.6 3.9-17.1 9.7V9.7c0-3.2-2.6-5.7-5.7-5.7s-5.7 2.6-5.7 5.7V23c-2.6-1.2-5.5-1.9-8.6-1.9-8.4 0-15.6 5.2-18.6 12.6-1-2.5-2.5-4.8-4.4-6.7-3.8-3.8-8.8-5.9-14.1-5.9-5.3 0-10.4 2.1-14.1 5.9-2 2-3.4 4.2-4.4 6.7-3-7.4-10.2-12.6-18.6-12.6-11 0-20 9-20 20s9 20 20 20c3.2 0 5.7-2.6 5.7-5.7 0-3.2-2.6-5.7-5.7-5.7-4.7 0-8.6-3.8-8.6-8.6s3.8-8.6 8.6-8.6c2.5 0 4.8 1.1 6.4 2.9H22c-3.2 0-5.7 2.6-5.7 5.7 0 3.2 2.6 5.7 5.7 5.7h12.3c1.1 0 2-.3 2.9-.8v8.8c-.1 1.1.1 2.3.7 3.3 1 1.9 3 3 5 3 .5 0 1-.1 1.4-.2 1.9-.5 4.1-2.2 4.3-5.4V41.2c0-2.3.9-4.5 2.5-6.1 1.6-1.6 3.8-2.5 6.1-2.5s4.4.9 6.1 2.5c1.6 1.6 2.5 3.8 2.5 6.1s-.9 4.4-2.5 6.1c-2.2 2.2-2.2 5.8 0 8.1 2.2 2.2 5.8 2.2 8.1 0 1.9-1.9 3.4-4.2 4.4-6.7 3 7.4 10.2 12.6 18.6 12.6 8.4 0 15.6-5.2 18.6-12.6 3 7.4 10.2 12.6 18.6 12.6 11 0 20-9 20-20-.2-11.2-9.1-20.2-20.2-20.2zM94.3 49.7c-4.7 0-8.6-3.8-8.6-8.6s3.8-8.6 8.6-8.6c4.7 0 8.6 3.8 8.6 8.6s-3.9 8.6-8.6 8.6zm37.1 0c-4.7 0-8.6-3.8-8.6-8.6s3.8-8.6 8.6-8.6c4.7 0 8.6 3.8 8.6 8.6s-3.9 8.6-8.6 8.6z" fill="#FFF"/><path d="M148.2 25.2c-4.7-4.7-10.7-7.2-16.3-7-1.6.1-2.9-1.2-3-2.7-.1-1.6 1.2-2.9 2.7-3 6.07-.253 12.473 1.893 17.83 6.016.998.768 2.202 1.674 2.77 2.547 1.1 1.1 1.1 2.937 0 4.037-.5.6-1.3.9-2 .9s-1.4-.3-2-.8z" fill="#1375F8"/><path d="M154.3 22c-.7 0-1.5-.3-2-.9-1.1-1.2-2.4-2.3-3.7-3.2-4.8-3.5-10.8-5.4-16.8-5.4-1.6 0-2.9-1.3-2.9-2.9 0-1.6 1.3-2.9 2.9-2.9 7.2 0 14.3 2.3 20.1 6.5 1.6 1.2 3.1 2.5 4.5 3.9 1.1 1.1 1.1 2.9-.1 4-.6.6-1.3.9-2 .9z" fill="#53A4F5"/><path d="M158.3 17.9c-.7 0-1.5-.3-2-.9-1.4-1.4-2.9-2.7-4.5-3.9-5.8-4.2-12.9-6.4-20-6.4-1.6 0-2.9-1.3-2.9-2.9 0-1.6 1.3-2.9 2.9-2.9 8.3 0 16.6 2.7 23.4 7.5 1.9 1.3 3.6 2.9 5.2 4.5 1.1 1.1 1.1 2.9 0 4-.7.7-1.4 1-2.1 1z" fill="#E6E6E6"/></g></svg>