<?xml version="1.0" encoding="utf-8"?>
<!-- Generator: Adobe Illustrator 23.0.2, SVG Export Plug-In . SVG Version: 6.00 Build 0)  -->
<svg version="1.1" id="Layer_1" xmlns="http://www.w3.org/2000/svg" xmlns:xlink="http://www.w3.org/1999/xlink" x="0px" y="0px"
	 viewBox="0 0 64 64" style="enable-background:new 0 0 64 64;" xml:space="preserve">
<style type="text/css">
	.st0{fill:#D5B241;}
</style>
<g>
	<path class="st0" d="M10.7,52.1c0-2.3,0-4.5,0-6.8c0-0.8,0-1.7,1-1.7c1.1-0.1,1.1,0.9,1.1,1.6c0,3.1,0,6.3,0,9.4
		c0,0.9-0.2,1.4-1.3,1.4c-3.1,0-6.3,0-9.4,0c-0.8,0-1.7-0.1-1.7-1.1c0-1,0.9-1.1,1.7-1.1c1.9,0,3.9,0,5.8,0c0.1-1-0.7-1.5-1.1-2
		c-9.4-12.5-8.8-29.7,1.6-41.1C18.9-1,35.8-3.5,49.1,5.1c11.1,7.2,16,17.8,14.5,30.9c-1.5,12.4-8.4,21-20,25.9
		c-3.4,1.5-7,2.2-10.8,2.1c-0.8,0-1.9,0.2-1.8-1c0.1-1.1,1.1-1,1.9-1.1c12.7-0.6,22.8-7.9,27.2-19.9c6.4-17.5-5.7-37.3-24.1-39.5
		C17.3,0.3,1.9,14.3,2.3,33c0.2,7.3,2.8,13.8,7.8,19.2C10.3,52.2,10.5,52.1,10.7,52.1z"/>
	<path class="st0" d="M27.7,29.9c0-2.2,0-4.3,0-6.5c0-1,0.3-1.4,1.3-1.4c1,0,1.5,0.2,1.5,1.4c0,3.3,0,6.7,0,10
		c0,1.4,0.4,1.9,1.8,1.8c1.6-0.1,3.2,0,4.8,0c1,0,1.4,0.3,1.4,1.3c0,1-0.5,1.1-1.3,1.1c-2.7,0-5.4,0-8.1,0c-1,0-1.3-0.3-1.3-1.3
		C27.8,34.2,27.7,32.1,27.7,29.9z"/>
</g>
</svg>
