<svg width="85" height="64" xmlns="http://www.w3.org/2000/svg">
 <!-- Created with Method Draw - http://github.com/duopixel/Method-Draw/ -->

 <g>
  <title>background</title>
  <rect fill="#fff" id="canvas_background" height="66" width="87" y="-1" x="-1"/>
  <g display="none" overflow="visible" y="0" x="0" height="100%" width="100%" id="canvasGrid">
   <rect fill="url(#gridpattern)" stroke-width="0" y="0" x="0" height="100%" width="100%"/>
  </g>
 </g>
 <g>
  <title>Layer 1</title>
  <g transform="matrix(4.777688617587273,0,0,4.777688617587273,0,0) " id="svg_4" fill-rule="evenodd" fill="none">
   <path id="svg_6" d="m4.55171,0.04402l-4.493,6.828l4.493,6.829l5.392,0l0.898,-1.708l-4.942,0l-2.92,-4.267l7.413,0l-0.899,-1.707l-6.515,0l2.921,-4.268l4.942,0l-0.898,-1.707l-5.392,0z" fill="#397dda"/>
   <path id="svg_7" d="m11.21071,6.01902l2.33,4.265l-1.864,3.417l2.328,0l1.862,-3.412l-2.327,-4.27l-2.329,0zm0.423,-5.975l4.957,9.389l1.18,-2.236l-3.775,-7.153l-2.362,0z" fill="#397dda"/>
  </g>
 </g>
</svg>