<svg id="Слой_1" data-name="Слой 1" xmlns="http://www.w3.org/2000/svg" viewBox="0 0 174.84 173.61"><defs><style>.cls-1{fill:#7655ea;}</style></defs><title>eql</title><path class="cls-1" d="M168.08,68.17l-21-38.8A56.34,56.34,0,0,0,70.86,6.76L29.37,29.25A56.35,56.35,0,0,0,6.76,105.43l21,38.81A56.35,56.35,0,0,0,104,166.85l41.49-22.5A56.35,56.35,0,0,0,168.08,68.17ZM35,75.75l-.31-.55A9.26,9.26,0,0,1,38,62.59L91,32a9.26,9.26,0,0,1,12.61,3.37l.32.56a9.26,9.26,0,0,1-3.38,12.61l-53,30.6A9.26,9.26,0,0,1,35,75.75Zm16.66,32-.32-.55a9.25,9.25,0,0,1,3.38-12.61l53-30.6a9.26,9.26,0,0,1,12.61,3.37l.32.56a9.27,9.27,0,0,1-3.38,12.61l-53,30.6A9.25,9.25,0,0,1,51.63,107.78Zm83.89,4.42-53,30.6a9.25,9.25,0,0,1-12.61-3.38l-.32-.55A9.26,9.26,0,0,1,73,126.26l53-30.6A9.26,9.26,0,0,1,138.58,99l.31.55A9.26,9.26,0,0,1,135.52,112.2Z"/></svg>