<?xml version="1.0" encoding="utf-8"?>
<!-- Generator: Adobe Illustrator 23.0.6, SVG Export Plug-In . SVG Version: 6.00 Build 0)  -->
<svg version="1.1" id="Camada_1" xmlns="http://www.w3.org/2000/svg" xmlns:xlink="http://www.w3.org/1999/xlink" x="0px" y="0px"
	 viewBox="0 0 33.27 33.15" style="enable-background:new 0 0 33.27 33.15;" xml:space="preserve">
<style type="text/css">
	.st0{fill:#FFFFFF;}
	.st1{fill:#EF413D;}
	.st2{fill:#1F2226;}
	.st3{fill:#76E576;}
	.st4{fill:#0E3768;}
	.st5{fill:url(#SVGID_1_);}
	.st6{fill:url(#SVGID_2_);}
	.st7{fill:url(#SVGID_3_);}
</style>
<g>
	<linearGradient id="SVGID_1_" gradientUnits="userSpaceOnUse" x1="26.2747" y1="19.7652" x2="-43.8993" y2="3.3708">
		<stop  offset="0" style="stop-color:#FEB933"/>
		<stop  offset="3.116965e-03" style="stop-color:#FEB933"/>
		<stop  offset="0.2475" style="stop-color:#FB9D3B"/>
		<stop  offset="0.4947" style="stop-color:#F98A41"/>
		<stop  offset="0.7443" style="stop-color:#F87E45"/>
		<stop  offset="1" style="stop-color:#F87A46"/>
	</linearGradient>
	<path class="st5" d="M25.91,21.34l-0.75,0.99c-0.3,0.39-0.56,0.7-0.83,0.97c-0.27,0.27-0.58,0.53-0.97,0.83
		c-1.62,1.23-3.56,1.88-5.6,1.88c-1.61,0-3.18-0.41-4.56-1.19L29.5,8.52l-0.61-0.75c-0.34-0.42-0.67-0.79-1.02-1.14
		c-0.35-0.35-0.73-0.69-1.14-1.02c-2.52-2.04-5.7-3.16-8.96-3.16c-2.91,0-5.8,0.91-8.18,2.57L6.55,1.98L3.02,5.5l3.04,3.04
		c-1.37,1.96-2.23,4.25-2.49,6.65c-0.11,1.02-0.11,2.05,0,3.07c0.26,2.39,1.12,4.69,2.49,6.65L3.5,27.46l3.53,3.53l2.56-2.56
		c2.38,1.66,5.27,2.57,8.18,2.57c3.25,0,6.43-1.12,8.96-3.16c0.42-0.34,0.79-0.67,1.14-1.02c0.35-0.35,0.68-0.72,1.02-1.14
		l0.61-0.75L25.91,21.34z M11.2,10.15c0.27-0.27,0.58-0.53,0.97-0.83c1.62-1.23,3.56-1.88,5.6-1.88c1.61,0,3.18,0.41,4.56,1.19
		L9.68,21.28c-0.57-1.01-0.95-2.14-1.11-3.28c-0.12-0.84-0.12-1.7,0-2.54c0.22-1.57,0.84-3.07,1.79-4.33
		C10.67,10.72,10.93,10.42,11.2,10.15z"/>
</g>
</svg>
