<?xml version="1.0" encoding="utf-8"?>
<!-- Generator: Adobe Illustrator 23.0.2, SVG Export Plug-In . SVG Version: 6.00 Build 0)  -->
<svg version="1.1" id="Layer_1" xmlns="http://www.w3.org/2000/svg" xmlns:xlink="http://www.w3.org/1999/xlink" x="0px" y="0px"
	 viewBox="0 0 64 64" style="enable-background:new 0 0 64 64;" xml:space="preserve">
<style type="text/css">
	.st0{fill:#3054DC;}
	.st1{fill:#323C71;}
	.st2{fill:#1C9AFF;}
	.st3{fill:#FDFDFD;}
</style>
<g>
	<path class="st1" d="M55.9,27.2c1.4,2.2,2.7,4.4,4.1,6.6c1.3,2.1,2.6,4.2,3.9,6.4c0.2,0.3,0.2,0.5-0.1,0.7
		c-9.8,7.5-19.7,15-29.5,22.6c-0.3,0.2-0.5,0.2-0.8,0C23.1,56.7,12.6,50,2.2,43.3c-0.6-0.4-1.3-0.8-1.9-1.2
		c-0.2-0.1-0.3-0.3-0.2-0.6c2.8-4.8,5.5-9.6,8.3-14.4c0,0,0.1-0.1,0.1-0.1c0.6,0.4,0.9,0.8,0.9,1.6c-0.1,1-0.1,2,0.1,2.9
		c0.1,0.9,0.2,1.8,0.4,2.6c0.1,0.8,0.2,1.6,0.3,2.4c0.3,1.6,0.4,3.2,0.8,4.8c0.1,0.6,0.5,0.9,0.9,1c1.8,0.7,3.6,1.3,5.4,2
		c1.6,0.6,3.1,1.1,4.7,1.7c1.9,0.7,3.7,1.4,5.6,2.1c1.4,0.5,2.9,1,4.3,1.6c0.3,0.1,0.6,0.2,0.9,0c0.5-0.2,0.9-0.4,1.4-0.6
		c1.6-0.6,3.1-1.2,4.7-1.8c1.6-0.6,3.1-1.3,4.7-1.8c1.8-0.6,3.5-1.3,5.2-2c1-0.4,2.1-0.8,3.1-1.2c0.4-0.2,0.6-0.6,0.6-0.9
		c0.2-1.7,0.5-3.4,0.7-5c0.1-0.7,0.2-1.3,0.3-2c0.1-1,0.3-1.9,0.4-2.9c0.1-0.9,0.3-1.7,0.4-2.6c0.1-0.8,0.2-1.5,0.3-2.3
		c0-0.1,0-0.4,0.2-0.4c0.2,0,0.2,0.2,0.3,0.3c0.2,0.3,0.4,0.5,0.7,0.8C55.7,27.5,55.8,27.3,55.9,27.2z"/>
	<path class="st2" d="M55.9,27.2c-0.1,0.1-0.1,0.3-0.3,0.1c-0.2-0.3-0.5-0.5-0.7-0.8c-0.1-0.1-0.1-0.3-0.3-0.3
		c-0.2,0-0.2,0.3-0.2,0.4c-0.1,0.8-0.2,1.5-0.3,2.3c-0.1,0.9-0.2,1.7-0.4,2.6c-0.1,1-0.2,1.9-0.4,2.9c-0.1,0.7-0.2,1.3-0.3,2
		c-0.2,1.7-0.5,3.3-0.7,5c0,0.4-0.2,0.8-0.6,0.9c-1,0.4-2,0.8-3.1,1.2c-1.8,0.6-3.5,1.3-5.2,2c-1.6,0.6-3.1,1.3-4.7,1.8
		c-1.6,0.6-3.1,1.2-4.7,1.8c-0.5,0.2-0.9,0.3-1.4,0.6c-0.3,0.1-0.6,0.1-0.9,0c-1.4-0.5-2.9-1-4.3-1.6c-1.9-0.7-3.8-1.3-5.6-2.1
		c-1.5-0.6-3.1-1.1-4.7-1.7c-1.8-0.6-3.6-1.3-5.4-2c-0.4-0.2-0.8-0.5-0.9-1c-0.4-1.6-0.5-3.2-0.8-4.8C10,35.8,10,35,9.8,34.2
		c-0.1-0.9-0.3-1.8-0.4-2.6c-0.1-1-0.1-2-0.1-2.9c0-0.8-0.3-1.2-0.9-1.6c0.5-0.7,0.1-1.5,0-2.2c-0.3-2.4-0.7-4.8-1-7.2
		c-0.1-0.4,0.1-0.6,0.4-0.8C15.2,11.8,22.6,6.6,30,1.5c0.4-0.3,0.9-0.6,1.2-0.9c0.4-0.3,0.6-0.3,1,0c3.3,2.3,6.7,4.6,10.1,6.9
		c4.3,2.9,8.6,5.9,12.9,8.8c0.5,0.3,0.7,0.6,0.6,1.2c-0.4,2.4-0.7,4.8-1,7.3c-0.1,0.4,0,0.8,0.2,1.1C55.3,26.3,55.6,26.8,55.9,27.2z
		 M8.6,18c0,0.2,0,0.4,0.1,0.6c0.6,4,1.2,8,1.7,12c0.5,3.4,1,6.8,1.5,10.3c0,0.3,0.2,0.5,0.5,0.6c1.6,0.5,3.1,1.1,4.6,1.7
		c4.9,1.8,9.8,3.6,14.8,5.4c0.3,0.1,0.6,0.2,1,0.1c6.1-2.3,12.1-4.7,18.2-7c0.4-0.1,0.5-0.4,0.5-0.7c0.2-1.7,0.5-3.3,0.7-5
		c0.8-6.1,1.7-12.2,2.6-18.3c0-0.3-0.1-0.5-0.3-0.6C47,11.9,39.5,6.9,32.1,1.8c-0.3-0.2-0.5-0.2-0.8,0c-1.6,1.2-3.3,2.3-4.9,3.4
		c-5.8,4-11.6,8.1-17.5,12.1C8.7,17.6,8.4,17.7,8.6,18z"/>
	<path class="st3" d="M8.6,18c-0.2-0.3,0.1-0.5,0.4-0.6c5.8-4,11.6-8.1,17.5-12.1c1.6-1.1,3.3-2.3,4.9-3.4c0.3-0.2,0.5-0.2,0.8,0
		C39.5,6.9,47,11.9,54.4,17c0.2,0.2,0.3,0.3,0.3,0.6c-0.9,6.1-1.7,12.2-2.6,18.3c-0.2,1.7-0.5,3.3-0.7,5c0,0.3-0.2,0.5-0.5,0.7
		c-6.1,2.3-12.1,4.6-18.2,7c-0.4,0.1-0.7,0-1-0.1c-4.9-1.8-9.8-3.6-14.8-5.4c-1.5-0.6-3.1-1.1-4.6-1.7c-0.3-0.1-0.5-0.3-0.5-0.6
		c-0.5-3.4-1-6.8-1.5-10.3c-0.6-4-1.2-8-1.7-12C8.6,18.4,8.6,18.3,8.6,18z M31.4,23.6c0.7,0.4,1.6,0.5,2.2,1.1
		c0.7,0.6,0.7,1.2-0.2,1.6c-0.7,0.4-1.6,0.5-2.4,0.7c-1.5,0.3-3,0.3-4.5,0.7c-0.3,0.1-0.7,0.1-0.7,0.4c0,0.4,0.4,0.4,0.7,0.5
		c1.8,0.6,3.6,0.9,5.4,1.4c2.3,0.6,4.6,1.1,6.6,2.4c1.4,0.9,2.7,1.2,4.3,1.1c0.8-0.1,1.5,0,2.3,0c0.1,0,0.3,0.1,0.5-0.1
		c-0.1-0.1-0.1-0.2-0.2-0.3c-0.8-1.2-1.5-2.5-1.8-3.9c-0.1-0.6-0.4-1.1-0.6-1.6c-0.1-0.3-0.3-0.6-0.6-0.8c-1.3-0.7-2.4-1.6-3.4-2.6
		c-0.2-0.2-0.4-0.3-0.6-0.3C36.1,23.6,33.8,23.6,31.4,23.6z M34.7,33.1c-0.4-0.3-0.6-0.4-0.8-0.6c-1.2-0.8-2.5-1.3-3.9-1.8
		c-1.5-0.5-3-0.9-4.4-1.7c-0.5-0.3-0.9-0.6-0.9-1.2c0.1-0.6,0.7-0.6,1.1-0.8c1.5-0.5,3-0.5,4.5-0.7c0.9-0.1,1.8-0.2,2.6-0.5
		c0.6-0.2,0.6-0.5,0.1-0.8c-1.2-0.8-2.4-1.4-3.8-1.5c-1.6-0.1-3.2,0-4.8,0c-0.3,0-0.6,0.1-0.8,0.3c-0.8,0.8-1.7,1.6-2.7,2.2
		c-0.9,0.5-1.3,1.2-1.6,2.1c-0.5,1.7-1,3.4-2.1,4.8c0,0,0,0,0,0.1C23.1,33.1,28.8,33.1,34.7,33.1z M38.9,40.3
		C38.6,40,38.2,40,37.8,40c-0.5,0-0.9,0-1.4,0c-0.8,0-0.8,0-0.8-0.9c0-0.3,0.1-0.4,0.4-0.4c0.6,0,1.2,0,1.8,0c0.4,0,0.8-0.2,0.8-0.7
		c0-0.5-0.3-0.7-0.8-0.7c-0.6,0-1.1,0-1.7,0c-0.4,0-0.5-0.2-0.5-0.5c0-0.3-0.1-0.6,0.4-0.6c0.6,0,1.3,0,1.9,0c0.5,0,0.8-0.2,0.9-0.7
		c0-0.4-0.4-0.7-0.8-0.7c-0.9,0-1.8,0-2.7,0c-0.8,0-1.2,0.5-1.2,1.3c0,1.3,0,2.5,0,3.8c0,0.9,0.4,1.3,1.3,1.3c0.8,0,1.7,0,2.5,0
		c0.2,0,0.5,0,0.7-0.2c0.2-0.3,0.3-0.2,0.5,0.1c0.2,0.3,0.5,0.3,0.8,0.2c0.3-0.1,0.4-0.3,0.5-0.6c0-0.2,0-0.4,0-0.5
		c0-1.4,0-1.4,1.5-1.3c0.3,0,0.4,0.1,0.4,0.4c0,0.4,0,0.7,0.1,1.1c0.2,0.9,0.3,1,1.2,0.9c0.1,0,0.1,0,0.2,0c0.9,0.1,1,0.1,1.3-0.8
		c0.1-0.2,0.2-0.4,0.2-0.6c0.1-0.3,0.2-0.4,0.5-0.4c1.3-0.1,1.3-0.1,1.8,1.2c0,0.1,0,0.1,0.1,0.2c0.2,0.5,0.5,0.7,1,0.5
		c0.4-0.2,0.5-0.6,0.3-1c-0.6-1.6-1.2-3.1-1.7-4.7c-0.2-0.5-0.4-0.8-1-0.8c-0.5,0-0.7,0.4-0.9,0.8c-0.5,1.3-0.9,2.5-1.4,3.8
		c0,0.1-0.1,0.3-0.2,0.3c-0.1-0.4,0.1-0.9-0.2-1.3c-0.1-0.3-0.1-0.5,0.1-0.7c0.6-1.2,0-2.5-1.3-2.8c-0.6-0.1-1.3-0.1-1.9-0.1
		c-1,0-1.3,0.4-1.3,1.4C38.9,37.7,38.9,39,38.9,40.3z M23.7,35.5c-0.2-0.5-0.5-0.6-1-0.6c-1,0-2.1,0-3.1,0c-0.3,0-0.5,0.2-0.8,0.1
		c-1.1-0.2-2.1-0.1-3.2-0.1c-0.7,0-1.1,0.5-1.1,1.1c0,1.4,0,2.7,0,4.1c0,0.6,0.4,1,1,1.1c1,0,2,0,2.9,0c0.4,0,0.7-0.3,0.7-0.7
		c0-0.4-0.3-0.6-0.8-0.6c-0.6,0-1.1,0-1.7,0c-0.9,0-0.8,0-0.8-0.8c0-0.4,0.1-0.4,0.4-0.4c0.6,0,1.2,0,1.8,0c0.4,0,0.7-0.3,0.7-0.7
		c0-0.4-0.3-0.7-0.7-0.7c-0.6,0-1.2,0-1.8,0c-0.5,0-0.4-0.3-0.4-0.6c0-0.3,0-0.6,0.4-0.5c1.2,0.1,2.4-0.1,3.5,0
		c0.5,0,0.6,0.2,0.6,0.6c0,1.2,0,2.5,0,3.7c0,0.5,0.2,0.8,0.7,0.8c0.5,0,0.6-0.3,0.7-0.7c0-0.1,0-0.3,0-0.4c0-1.2,0-2.3,0-3.5
		c0-0.4,0.1-0.5,0.5-0.5c0.5,0.1,0.9,0,1.3-0.4c0,0.3,0,0.5,0,0.8c0,1.3,0,2.6,0,3.8c0,0.6,0.2,1,0.7,1c0.5,0,0.7-0.3,0.7-0.9
		c0,0,0,0,0-0.1c0.1-0.6-0.3-1.4,0.2-1.7c0.4-0.3,1.2-0.1,1.8-0.1c0.3,0,0.3,0.1,0.3,0.3c0,0.5,0,1.1,0,1.6c0,0.4,0.2,0.8,0.7,0.9
		c0.5,0,0.8-0.3,0.8-0.8c0-1.6,0-3.3,0-4.9c0-0.5-0.2-0.8-0.7-0.8c-0.5,0-0.7,0.4-0.7,0.8c0,0.4,0,0.8,0,1.2c0,0.3-0.1,0.4-0.4,0.4
		c-0.5,0-1,0-1.5,0c-0.3,0-0.4-0.1-0.4-0.4c0-0.4,0-0.9,0-1.3c0-0.3-0.1-0.6-0.5-0.7c-0.3-0.1-0.6,0-0.8,0.3
		C23.8,35.3,23.7,35.4,23.7,35.5z M29.3,38.2c0,0.6,0,1.2,0,1.8c0,0.8,0.4,1.3,1.2,1.3c0.9,0,1.9,0,2.8,0c0.4,0,0.7-0.2,0.7-0.7
		c0-0.5-0.3-0.6-0.7-0.6c-0.7,0-1.4,0-2.1,0c-0.6,0-0.4-0.3-0.5-0.6c0-0.3-0.1-0.7,0.5-0.6c0.6,0,1.1,0,1.7,0c0.5,0,0.8-0.3,0.7-0.7
		c0-0.4-0.3-0.6-0.8-0.6c-0.6,0-1.1,0-1.7,0c-0.5,0-0.5-0.2-0.4-0.5c0-0.3-0.1-0.6,0.4-0.6c0.6,0,1.3,0,1.9,0c0.5,0,0.8-0.2,0.9-0.7
		c0.1-0.4-0.3-0.7-0.9-0.7c-0.8,0-1.6,0-2.4,0c-0.9,0-1.4,0.4-1.4,1.4C29.3,36.9,29.3,37.6,29.3,38.2z M31.9,21.2c0,0.4,0,0.8,0,1.2
		c0,0.6,0.2,0.8,0.8,0.8c0.9,0,0.9,0,0.9-0.9c0-0.1,0-0.2,0-0.2c-0.1-1.9,0.1-1.6,1.8-1.6c0.5,0,0.7,0.2,0.7,0.7c0,0.4,0,0.7,0,1.1
		c0,1,0,1,1,0.9c0.4,0,0.7-0.2,0.6-0.6c0-0.4-0.1-0.8,0-1.2c0.2-1.2-0.2-2.1-1.4-2.6c-0.6-0.3-1-1-1.6-1c-0.5,0-1,0.7-1.5,1
		C32.2,19.2,31.6,20,31.9,21.2z M25.7,21c0,0.6,0,1,0,1.4c0,0.5,0.2,0.7,0.7,0.7c0.9,0,0.9,0,0.9-0.9c0-0.1,0-0.2,0-0.2
		c0-1.7,0-1.7,1.7-1.6c0.5,0,0.8,0.3,0.8,0.8c0,0.5,0,1,0,1.5c0,0.3,0.1,0.5,0.4,0.4c0.2,0,0.4,0,0.5,0c0.5,0,0.6-0.2,0.6-0.6
		c0-0.4-0.1-0.8,0-1.2c0.2-1.3-0.3-2.1-1.4-2.6c-0.5-0.3-1-0.9-1.5-1c-0.6,0-1,0.7-1.5,1C26,19.2,25.4,20,25.7,21z M33.3,15.2
		c-0.5-0.4-0.8-0.6-1.2-0.9c-0.3-0.3-0.5-0.3-0.8,0c-1.7,1.3-3.3,2.5-5,3.7c-0.4,0.3-0.8,0.6-1.2,0.9c-0.2,0.2-0.2,0.4-0.1,0.6
		c0.2,0.2,0.3,0.1,0.5,0c0.1-0.1,0.3-0.2,0.4-0.3c1.8-1.4,3.7-2.7,5.5-4.1c0.3-0.2,0.4-0.2,0.7,0c0.5,0.4,1,0.7,1.5,1.1
		c1.5,1.1,2.9,2.1,4.4,3.2c0.2,0.1,0.3,0.3,0.5,0.1c0.1-0.1,0.1-0.3,0.1-0.4c-0.1-0.1-0.2-0.3-0.4-0.4c-1.1-0.8-2.1-1.6-3.3-2.3
		c-0.5-0.3-0.7-0.7-0.6-1.2c0-0.3,0.1-0.6-0.4-0.6C33.4,14.5,33.2,14.6,33.3,15.2z M31.7,19.4c0.1,0,0.1-0.1,0.2-0.1
		c0.8-0.6,1.6-1.2,2.4-1.8c0.2-0.2,0.1-0.3-0.1-0.4c-0.7-0.5-1.4-1.1-2.2-1.6c-0.2-0.2-0.4-0.2-0.6,0c-0.7,0.5-1.4,1.1-2.2,1.6
		c-0.3,0.2-0.2,0.3,0,0.5c0.8,0.5,1.5,1.1,2.2,1.6C31.6,19.3,31.6,19.3,31.7,19.4z M29.4,22.2c0-1.3,0-1.3-1.2-1.3
		c-0.3,0-0.4,0.1-0.4,0.4c0,0.5,0,1.1,0,1.6c0,0.3,0.1,0.3,0.3,0.3C29.4,23.3,29.4,23.3,29.4,22.2z M35.5,22.1c0-1.3,0-1.3-1.2-1.2
		c-0.3,0-0.4,0.1-0.4,0.4c0,0.5,0,1.1,0,1.6c0,0.2,0.1,0.3,0.3,0.4C35.5,23.3,35.5,23.4,35.5,22.1C35.5,22.1,35.5,22.1,35.5,22.1z
		 M33.8,14.4c0.2-0.1,0.4,0.1,0.5-0.2c0-0.4-0.3-0.2-0.5-0.3c-0.2,0-0.4-0.1-0.5,0.2C33.3,14.5,33.6,14.4,33.8,14.4z"/>
	<path class="st2" d="M31.4,23.6c2.3,0,4.7,0,7,0c0.3,0,0.4,0.1,0.6,0.3c1,1,2.1,1.9,3.4,2.6c0.3,0.2,0.5,0.4,0.6,0.8
		c0.2,0.5,0.4,1.1,0.6,1.6c0.3,1.4,0.9,2.7,1.8,3.9c0.1,0.1,0.1,0.2,0.2,0.3c-0.2,0.2-0.3,0.1-0.5,0.1c-0.8,0-1.5,0-2.3,0
		c-1.6,0.1-2.9-0.2-4.3-1.1c-2-1.3-4.3-1.8-6.6-2.4c-1.8-0.5-3.6-0.8-5.4-1.4c-0.3-0.1-0.7-0.1-0.7-0.5c0-0.3,0.5-0.3,0.7-0.4
		c1.5-0.3,3-0.4,4.5-0.7c0.8-0.1,1.6-0.3,2.4-0.7c0.8-0.4,0.9-1,0.2-1.6C33,24.1,32.2,24,31.4,23.6z"/>
	<path class="st2" d="M34.7,33.1c-5.9,0-11.7,0-17.4,0c0-0.1,0-0.1,0-0.1c1.1-1.4,1.6-3.1,2.1-4.8c0.3-0.9,0.7-1.6,1.6-2.1
		c1-0.6,1.9-1.4,2.7-2.2c0.2-0.3,0.5-0.3,0.8-0.3c1.6,0,3.2-0.1,4.8,0c1.4,0.1,2.7,0.7,3.8,1.5c0.5,0.3,0.4,0.6-0.1,0.8
		c-0.8,0.3-1.7,0.4-2.6,0.5c-1.5,0.2-3.1,0.2-4.5,0.7c-0.4,0.1-1,0.2-1.1,0.8c-0.1,0.6,0.4,0.9,0.9,1.2c1.4,0.8,2.9,1.2,4.4,1.7
		c1.3,0.5,2.7,1,3.9,1.8C34.2,32.7,34.4,32.9,34.7,33.1z"/>
	<path class="st2" d="M38.9,40.3c0-1.3,0-2.6,0-3.9c0-1,0.4-1.4,1.3-1.4c0.6,0,1.3-0.1,1.9,0.1c1.3,0.3,2,1.6,1.3,2.8
		c-0.1,0.2-0.2,0.4-0.1,0.7c0.2,0.4,0.1,0.9,0.2,1.3c0.2-0.1,0.2-0.2,0.2-0.3c0.5-1.3,0.9-2.5,1.4-3.8c0.2-0.4,0.4-0.8,0.9-0.8
		c0.5,0,0.8,0.3,1,0.8c0.6,1.6,1.2,3.1,1.7,4.7c0.2,0.4,0.1,0.8-0.3,1c-0.5,0.2-0.8,0-1-0.5c0-0.1,0-0.1-0.1-0.2
		c-0.5-1.2-0.5-1.2-1.8-1.2c-0.3,0-0.4,0.1-0.5,0.4c-0.1,0.2-0.1,0.4-0.2,0.6c-0.3,0.9-0.4,0.9-1.3,0.8c-0.1,0-0.1,0-0.2,0
		c-0.9,0.1-1.1,0-1.2-0.9c-0.1-0.4-0.1-0.7-0.1-1.1c0-0.3-0.1-0.4-0.4-0.4c-1.5-0.1-1.5-0.1-1.5,1.3c0,0.2,0,0.4,0,0.5
		c0,0.3-0.2,0.5-0.5,0.6c-0.3,0.1-0.6,0.1-0.8-0.2c-0.1-0.2-0.2-0.3-0.5-0.1c-0.2,0.2-0.4,0.2-0.7,0.2c-0.8,0-1.7,0-2.5,0
		c-0.9,0-1.3-0.4-1.3-1.3c0-1.3,0-2.5,0-3.8c0-0.8,0.4-1.2,1.2-1.3c0.9,0,1.8,0,2.7,0c0.4,0,0.8,0.3,0.8,0.7c0,0.5-0.4,0.7-0.9,0.7
		c-0.6,0-1.3,0-1.9,0c-0.5,0-0.4,0.3-0.4,0.6c0,0.3,0,0.6,0.5,0.5c0.6,0,1.1,0,1.7,0c0.5,0,0.8,0.2,0.8,0.7c0,0.5-0.3,0.7-0.8,0.7
		c-0.6,0-1.2,0-1.8,0c-0.3,0-0.4,0-0.4,0.4c0,0.9,0,0.9,0.8,0.9c0.5,0,0.9,0,1.4,0C38.2,40,38.6,40,38.9,40.3z M41.2,37.5
		C41.2,37.5,41.2,37.5,41.2,37.5c0.2,0,0.5,0,0.7,0c0.2,0,0.4-0.2,0.5-0.5c0-0.3,0-0.5-0.3-0.6c-0.5-0.2-1.1-0.1-1.6-0.1
		c0,0-0.1,0.1-0.1,0.1c0,0.3-0.1,0.7,0,1c0.1,0.2,0.4,0.1,0.6,0.1C41.1,37.5,41.1,37.5,41.2,37.5z M46.3,37.3
		c-0.3,0.3-0.4,0.6-0.3,0.9c0,0.1,0.4,0.1,0.5,0C46.7,37.9,46.3,37.7,46.3,37.3z"/>
	<path class="st2" d="M23.7,35.5c0.1-0.1,0.1-0.2,0.2-0.3c0.2-0.3,0.5-0.4,0.8-0.3c0.4,0.1,0.5,0.3,0.5,0.7c0,0.4,0,0.9,0,1.3
		c0,0.3,0.1,0.4,0.4,0.4c0.5,0,1,0,1.5,0c0.3,0,0.4-0.1,0.4-0.4c0-0.4,0-0.8,0-1.2c0-0.5,0.2-0.8,0.7-0.8c0.5,0,0.7,0.3,0.7,0.8
		c0,1.6,0,3.3,0,4.9c0,0.6-0.3,0.9-0.8,0.8c-0.5,0-0.7-0.4-0.7-0.9c0-0.5,0-1.1,0-1.6c0-0.2-0.1-0.3-0.3-0.3c-0.6,0-1.4-0.2-1.8,0.1
		c-0.4,0.3-0.1,1.1-0.2,1.7c0,0,0,0,0,0.1c0,0.6-0.2,0.9-0.7,0.9c-0.5,0-0.7-0.3-0.7-1c0-1.3,0-2.6,0-3.8c0-0.2,0-0.4,0-0.8
		c-0.4,0.5-0.9,0.5-1.3,0.4c-0.4-0.1-0.5,0.1-0.5,0.5c0,1.2,0,2.3,0,3.5c0,0.1,0,0.3,0,0.4c-0.1,0.4-0.2,0.7-0.7,0.7
		c-0.5,0-0.7-0.3-0.7-0.8c0-1.2,0-2.5,0-3.7c0-0.5-0.1-0.6-0.6-0.6c-1.2,0-2.4,0.1-3.5,0c-0.5,0-0.5,0.2-0.4,0.5
		c0,0.3-0.1,0.6,0.4,0.6c0.6,0,1.2,0,1.8,0c0.5,0,0.7,0.2,0.7,0.7c0,0.4-0.3,0.7-0.7,0.7c-0.6,0-1.2,0-1.8,0c-0.3,0-0.4,0.1-0.4,0.4
		c0,0.8,0,0.8,0.8,0.8c0.6,0,1.1,0,1.7,0c0.4,0,0.7,0.2,0.8,0.6c0,0.4-0.3,0.7-0.7,0.7c-1,0-2,0-2.9,0c-0.6,0-1-0.5-1-1.1
		c0-1.4,0-2.7,0-4.1c0-0.6,0.4-1.1,1.1-1.1c1.1,0,2.1-0.1,3.2,0.1c0.2,0.1,0.5-0.1,0.8-0.1c1,0,2.1,0,3.1,0
		C23.2,35,23.5,35.1,23.7,35.5z"/>
	<path class="st2" d="M29.3,38.2c0-0.6,0-1.2,0-1.8c0-0.9,0.5-1.4,1.4-1.4c0.8,0,1.6,0,2.4,0c0.6,0,0.9,0.3,0.9,0.7
		c-0.1,0.5-0.4,0.7-0.9,0.7c-0.6,0-1.3,0-1.9,0c-0.5,0-0.4,0.3-0.4,0.6c0,0.3,0,0.6,0.4,0.5c0.6,0,1.1,0,1.7,0
		c0.5,0,0.7,0.2,0.8,0.6c0,0.5-0.3,0.7-0.7,0.7c-0.6,0-1.1,0-1.7,0c-0.5,0-0.5,0.3-0.5,0.6c0,0.3-0.1,0.7,0.5,0.6c0.7,0,1.4,0,2.1,0
		c0.4,0,0.7,0.1,0.7,0.6c0,0.5-0.3,0.7-0.7,0.7c-0.9,0-1.9,0-2.8,0c-0.8,0-1.2-0.5-1.2-1.3C29.3,39.4,29.3,38.8,29.3,38.2z"/>
	<path class="st2" d="M31.9,21.2c-0.3-1.2,0.3-2,1.3-2.6c0.5-0.3,1-0.9,1.5-1c0.6,0,1,0.7,1.6,1c1.1,0.6,1.6,1.4,1.4,2.6
		c-0.1,0.4,0,0.8,0,1.2c0,0.5-0.2,0.6-0.6,0.6c-1,0-1,0-1-0.9c0-0.4,0-0.7,0-1.1c0-0.4-0.3-0.7-0.7-0.7c-1.7,0-1.8-0.2-1.8,1.6
		c0,0.1,0,0.2,0,0.2c0,0.9,0,0.9-0.9,0.9c-0.6,0-0.8-0.2-0.8-0.8C31.9,22,31.9,21.6,31.9,21.2z"/>
	<path class="st2" d="M25.7,21c-0.3-1,0.3-1.8,1.3-2.3c0.5-0.3,1-1,1.5-1c0.5,0,1,0.7,1.5,1c1.1,0.6,1.6,1.4,1.4,2.6
		c-0.1,0.4,0,0.8,0,1.2c0,0.4-0.2,0.7-0.6,0.6c-0.2,0-0.4,0-0.5,0c-0.3,0-0.5-0.1-0.4-0.4c0-0.5,0-1,0-1.5c0-0.5-0.3-0.8-0.8-0.8
		c-1.7-0.1-1.7-0.1-1.7,1.6c0,0.1,0,0.2,0,0.2c0,0.9,0,0.9-0.9,0.9c-0.5,0-0.7-0.2-0.7-0.7C25.8,22,25.7,21.6,25.7,21z"/>
	<path class="st1" d="M33.3,15.2c-0.1-0.6,0.1-0.7,0.5-0.7c0.5,0,0.4,0.3,0.4,0.6c-0.1,0.6,0.1,0.9,0.6,1.2c1.1,0.7,2.2,1.6,3.3,2.3
		c0.1,0.1,0.3,0.2,0.4,0.4c0.1,0.1,0.1,0.3-0.1,0.4c-0.2,0.2-0.4,0-0.5-0.1c-1.5-1.1-2.9-2.1-4.4-3.2c-0.5-0.4-1-0.7-1.5-1.1
		c-0.3-0.2-0.4-0.2-0.7,0c-1.8,1.4-3.6,2.7-5.5,4.1c-0.1,0.1-0.2,0.2-0.4,0.3c-0.1,0.1-0.3,0.2-0.5,0c-0.2-0.2-0.1-0.4,0.1-0.6
		c0.4-0.3,0.8-0.6,1.2-0.9c1.7-1.2,3.4-2.5,5-3.7c0.3-0.3,0.6-0.2,0.8,0C32.5,14.6,32.8,14.8,33.3,15.2z"/>
	<path class="st1" d="M31.7,19.4c-0.1,0-0.2-0.1-0.2-0.2c-0.7-0.5-1.5-1.1-2.2-1.6c-0.3-0.2-0.3-0.3,0-0.5c0.7-0.5,1.5-1.1,2.2-1.6
		c0.2-0.2,0.4-0.2,0.6,0c0.7,0.6,1.4,1.1,2.2,1.6c0.1,0.1,0.3,0.2,0.1,0.4c-0.8,0.6-1.6,1.2-2.4,1.8C31.8,19.3,31.8,19.3,31.7,19.4z
		"/>
	<path class="st1" d="M29.4,22.2c0,1.2,0,1.2-1.3,1.1c-0.3,0-0.3-0.1-0.3-0.3c0-0.5,0-1.1,0-1.6c0-0.3,0.1-0.4,0.4-0.4
		C29.4,20.8,29.4,20.8,29.4,22.2z"/>
	<path class="st1" d="M35.5,22.1C35.5,22.1,35.5,22.1,35.5,22.1c0,1.3,0,1.3-1.2,1.2c-0.3,0-0.3-0.1-0.3-0.4c0-0.5,0-1.1,0-1.6
		c0-0.3,0.1-0.4,0.4-0.4C35.5,20.8,35.5,20.8,35.5,22.1z"/>
	<path class="st1" d="M33.8,14.4c-0.2,0-0.5,0.1-0.5-0.3c0-0.3,0.3-0.2,0.5-0.2c0.2,0,0.5-0.1,0.5,0.3
		C34.2,14.5,33.9,14.4,33.8,14.4z"/>
	<path class="st3" d="M41.2,37.5c-0.1,0-0.2,0-0.2,0c-0.2,0-0.5,0.1-0.6-0.1c-0.1-0.3,0-0.7,0-1c0,0,0.1-0.1,0.1-0.1
		c0.5,0,1.1-0.1,1.6,0.1c0.3,0.1,0.3,0.4,0.3,0.6c0,0.3-0.2,0.4-0.5,0.5C41.7,37.5,41.4,37.5,41.2,37.5
		C41.2,37.5,41.2,37.5,41.2,37.5z"/>
	<path class="st3" d="M46.3,37.3c0,0.4,0.3,0.6,0.1,0.9c-0.1,0.1-0.4,0.1-0.5,0C45.9,37.9,46.1,37.6,46.3,37.3z"/>
</g>
</svg>
