<svg id="Слой_1" data-name="Слой 1" xmlns="http://www.w3.org/2000/svg" viewBox="0 0 122.22 200.45"><defs><style>.cls-1{fill:#009f42;}.cls-2{fill:#01c853;}.cls-3{fill:#007831;}</style></defs><title>etc</title><polygon class="cls-1" points="61.42 68.88 118.57 100.58 61.42 132.27 61.42 68.88 61.42 68.88"/><polygon class="cls-2" points="61.42 68.88 4.27 100.58 61.42 132.27 61.42 68.88 61.42 68.88"/><polygon class="cls-1" points="61.51 58.55 122.22 91.08 61.51 0 61.51 58.55"/><polygon class="cls-2" points="61.51 58.55 0.71 91.08 61.51 0 61.51 54.84 61.51 58.55"/><polygon class="cls-2" points="60.55 141.9 0 109.07 60.27 200.45 60.55 141.9"/><polygon class="cls-1" points="60.55 141.9 121.51 109.66 60.27 200.45 60.53 145.61 60.55 141.9"/><polygon class="cls-1" points="4.05 101.58 61.64 105.83 61.64 132.6 4.05 101.58"/><polygon class="cls-3" points="118.79 101.58 61.2 105.83 61.2 132.6 118.79 101.58"/></svg>