<svg id="Слой_1" data-name="Слой 1" xmlns="http://www.w3.org/2000/svg" viewBox="0 0 58.19 96.74"><defs><style>.cls-1{fill:#131313;}.cls-2{fill:#343535;}.cls-3{fill:#828384;}.cls-4{fill:#2f3030;}</style></defs><title>eth</title><polygon class="cls-1" points="29.09 31.32 58.19 48.8 29.09 66.29 29.09 31.32 29.09 31.32"/><polygon class="cls-2" points="29.09 31.32 0 48.8 29.09 66.29 29.09 31.32 29.09 31.32"/><polygon class="cls-3" points="29.09 31.32 0 48.8 29.09 0 29.09 31.32 29.09 31.32"/><polygon class="cls-4" points="29.09 31.32 58.19 48.8 29.09 0 29.09 31.32 29.09 31.32"/><polygon class="cls-4" points="29.09 72.28 29.09 96.74 58.19 54.79 29.09 72.28 29.09 72.28"/><polygon class="cls-3" points="29.09 72.28 0 54.79 29.09 96.74 29.09 72.28 29.09 72.28"/></svg>