<svg width="6" height="9" viewBox="0 0 6 9" fill="none" xmlns="http://www.w3.org/2000/svg">
<path d="M4.7168 5.61914H2.75391C2.77344 6.19336 2.92578 6.625 3.21094 6.91406C3.5 7.20312 3.94727 7.34766 4.55273 7.34766C4.96289 7.34766 5.33398 7.28711 5.66602 7.16602L5.87695 8.58398C5.39258 8.69727 4.89258 8.75391 4.37695 8.75391C3.34961 8.75391 2.53516 8.47852 1.93359 7.92773C1.33594 7.37305 1.02148 6.60352 0.990234 5.61914H0V4.72852H0.990234V4.00195H0V3.11133H1.00195C1.06836 2.12695 1.41016 1.36328 2.02734 0.820312C2.64844 0.273438 3.4707 0 4.49414 0C4.9043 0 5.36523 0.0605469 5.87695 0.181641L5.66602 1.60547C5.29883 1.48047 4.9375 1.41797 4.58203 1.41797C3.47656 1.41797 2.87109 1.98242 2.76562 3.11133H4.7168V4.00195H2.75391V4.72852H4.7168V5.61914Z" fill="#fff"/>
</svg>
