<?xml version="1.0" encoding="utf-8"?>
<!-- Generator: Adobe Illustrator 23.0.1, SVG Export Plug-In . SVG Version: 6.00 Build 0)  -->
<svg version="1.1" id="Слой_1" xmlns="http://www.w3.org/2000/svg" xmlns:xlink="http://www.w3.org/1999/xlink" x="0px" y="0px"
	 viewBox="0 0 487 626" style="enable-background:new 0 0 487 626;" xml:space="preserve">
	 <style type="text/css">
	.st0{fill:#fff;}
</style>
<path class="st0" d="M487,589l-25-104c0,0-67,47-177,14c0,0-65-21-80-99h233l2-69H193v-42h245v-65H207c0,0,16-97,112-109s135,19,135,19l27-106
	c0,0-58-28-146-28S181,46,181,46S83,108,62,224l-62-1v67l50-1v46l-50-2v66l60,1c0,0,12,86,70,141s99,64,99,64s94,41,189,11
	C418,616,474,601,487,589z"/>
</svg>
