<svg width="19" height="12.000000000000002" xmlns="http://www.w3.org/2000/svg">

 <g>
  <title>background</title>
  <rect fill="none" id="canvas_background" height="14" width="21" y="-1" x="-1"/>
 </g>
 <g>
  <title>Layer 1</title>
  <path stroke="null" id="svg_1" d="m9.176993,11.258231l-0.471098,-1.987871c0,0 -1.262543,0.898365 -3.335375,0.267598c0,0 -1.224855,-0.401397 -1.507514,-1.8923l4.390635,0l0.037688,-1.318876l-4.65445,0l0,-0.802794l4.616763,0l0,-1.242419l-4.352948,0c0,0 0.301503,-1.854072 2.11052,-2.083442s2.54393,0.363169 2.54393,0.363169l0.508786,-2.026099c0,0 -1.092948,-0.535196 -2.751214,-0.535196s-2.901965,0.879251 -2.901965,0.879251s-1.846705,1.185077 -2.242428,3.402318l-1.168324,-0.019114l0,1.280648l0.942196,-0.019114l0,0.879251l-0.942196,-0.038228l0,1.261534l1.130636,0.019114c0,0 0.226127,1.643816 1.319075,2.695094s1.865549,1.223305 1.865549,1.223305s1.771329,0.78368 3.561503,0.210256c0,0 1.05526,-0.286712 1.300231,-0.516082z"/>
 </g>
</svg>