<svg width="9" height="12" xmlns="http://www.w3.org/2000/svg">
 <g>
  <path d="m9.17699,11.25823l-0.4711,-1.98787c0,0 -1.26254,0.89837 -3.33537,0.2676c0,0 -1.22485,-0.4014 -1.50751,-1.8923l4.39063,0l0.03769,-1.31888l-4.65445,0l0,-0.80279l4.61676,0l0,-1.24242l-4.35295,0c0,0 0.30151,-1.85407 2.11052,-2.08344s2.54393,0.36317 2.54393,0.36317l0.50879,-2.0261c0,0 -1.09295,-0.5352 -2.75121,-0.5352s-2.90197,0.87925 -2.90197,0.87925s-1.8467,1.18508 -2.24243,3.40232l-1.16832,-0.01911l0,1.28064l0.9422,-0.01911l0,0.87925l-0.9422,-0.03823l0,1.26154l1.13064,0.01911c0,0 0.22612,1.64382 1.31907,2.69509s1.86555,1.22331 1.86555,1.22331s1.77133,0.78368 3.5615,0.21026c0,0 1.05526,-0.28672 1.30023,-0.51609z" id="svg_1" stroke="null"/>
 </g>
</svg>