<svg id="Слой_1" data-name="Слой 1" xmlns="http://www.w3.org/2000/svg" viewBox="0 0 186.02 183.68"><defs><style>.cls-1{fill:#f9a941;}.cls-2{fill:#333;}</style></defs><title>fgc</title><path class="cls-1" d="M141.21,37.63c1,2,26.61,0,26.61,0S147.87,7.39,111.58,1.34,46.87,11.62,46.87,11.62,6.09,33,.65,78.93s25.06,74.2,25.06,74.2l5.44-24.79s-10-10.62-11.34-31.43c-1.16-18.19,5.22-36,16.81-50,7.38-9,17.8-18.64,30.81-23.15,29.64-10.28,47.78-2.42,47.78-2.42S138.72,32.42,141.21,37.63Z"/><path class="cls-1" d="M117.63,91.89l-2.42,18.31h48.38s-1.42,20-21.92,38c-8.94,7.8-21.22,13.72-30.36,15.78A73.18,73.18,0,0,1,68.5,160.4l-7.72-3-3.63,19.35a130.29,130.29,0,0,0,50.2,6.65c2.13-.16,4.22-.41,6.27-.73,26.16-4.11,48.36-21.17,60.29-44.82a172.42,172.42,0,0,0,8.43-19.76S186.57,102,186,91.89Z"/><polygon class="cls-2" points="49.9 173.09 33.93 162.28 53.52 46.09 172.06 46.09 181.13 65.45 69.25 66.05 64.41 91.89 101.3 91.89 98.88 109.59 60.78 109.59 49.9 173.09"/></svg>