<svg id="Слой_1" data-name="Слой 1" xmlns="http://www.w3.org/2000/svg" viewBox="0 0 200 200"><defs><style>.cls-1{fill:#e18d45;}.cls-2{fill:#feffff;}</style></defs><title>flot</title><rect class="cls-1" width="200" height="200"/><path class="cls-2" d="M128.14,70.42A19.44,19.44,0,0,0,94.62,57a19.77,19.77,0,0,0-3.77,5.74h0c-.15.34-12.68,24.71-12.68,24.71l11.1-8-16,29,28.38-18.58-4.32,11.49,14.19-9.56s8-4.53,11.25-7.91A19.36,19.36,0,0,0,128.14,70.42Zm-12.35-4.55h-8.68l-.52,4.55h7v1.93h-7.26l-.65,6.87h-2.33l1.82-15.94h10.62Z"/><line class="cls-2" x1="19.9" y1="121.98" x2="32.47" y2="121.98"/><rect class="cls-2" x="18.9" y="120.48" width="12.57" height="3"/><polygon class="cls-2" points="22.44 139.86 19.44 139.86 19.44 128.9 31.44 128.9 31.44 131.9 22.44 131.9 22.44 139.86"/><rect class="cls-2" x="37.58" y="120.48" width="3" height="19.38"/><path class="cls-2" d="M49,139.86H46V120.48l10.2,0a5.59,5.59,0,0,1,4.59,5.8c-.17,4.75-3.63,5.53-3.78,5.56l-.31,0H49Zm0-11h7.48c.3-.13,1.24-.69,1.32-2.7a2.58,2.58,0,0,0-2-2.72H49Z"/><path class="cls-2" d="M60.78,140.1l-3,0a76.37,76.37,0,0,0-5-9.07h3.09C61,138.75,60.87,139.53,60.78,140.1Z"/><polygon class="cls-2" points="77.69 140.46 65.57 140.46 65.57 120.48 77.69 120.48 77.69 123.48 68.57 123.48 68.57 137.46 77.69 137.46 77.69 140.46"/><rect class="cls-2" x="67.07" y="128.9" width="9.85" height="3"/><polygon class="cls-2" points="95.97 139.94 83.45 139.94 83.45 120.94 86.45 120.94 86.45 136.94 95.97 136.94 95.97 139.94"/><rect class="cls-2" x="121.75" y="120.48" width="15.03" height="3"/><path class="cls-2" d="M130.69,139.44l-2.85-.05-.06.27c.08-.86,0-11.29,0-17.67l3,0C130.9,139.71,130.79,139.15,130.69,139.44Z"/><rect class="cls-2" x="141.56" y="120.48" width="15.03" height="3"/><path class="cls-2" d="M150.71,139.71l-3.11-.05c.07-.87,0-11.3,0-17.67l3,0C150.71,139.71,150.81,139.42,150.71,139.71Z"/><path class="cls-2" d="M108,140.36a9.86,9.86,0,1,1,9.86-9.86A9.87,9.87,0,0,1,108,140.36Zm0-16.71a6.86,6.86,0,1,0,6.86,6.85A6.86,6.86,0,0,0,108,123.65Z"/><path class="cls-2" d="M168.28,140.33a9.86,9.86,0,1,1,9.86-9.86A9.87,9.87,0,0,1,168.28,140.33Zm0-16.72a6.86,6.86,0,1,0,6.86,6.86A6.87,6.87,0,0,0,168.28,123.61Z"/></svg>