<svg id="Слой_1" data-name="Слой 1" xmlns="http://www.w3.org/2000/svg" viewBox="0 0 760.99 651.05"><defs><style>.cls-1{fill:#fdac1b;}.cls-2{fill:none;}.cls-3{fill:#eab936;}</style></defs><title>fpwr</title><path class="cls-1" d="M750.6,257.77c0,206.37-161.63,378.16-368,381C171.81,641.73,0,471.72,0,261.59,0,82.9,92,14.67,92,14.67S56.68,75,51.11,86.25c-42.54,85.8-44.75,208.36-11.74,297C99.5,544.73,275.47,599.76,314.55,601.39c40.27,1.67,129.38,22,244.8-49.78,32.13-20,116.44-54.26,169.66-241.7,21.91-77.18-16.52-254.25-89.65-310.1-6.84-5.22-6.08-12-6.08-12S750.6,82.26,750.6,257.77Z" transform="translate(0 12.22)"/><circle class="cls-2" cx="757.17" cy="269.99" r="3.82"/><path class="cls-3" d="M282.21,148.69s25.75,34.05-11.63,92.2-44,94.69-44,94.69-21.6,73.1,19.1,136.23,113.8,68.12,113.8,68.12,91.37,11.62,143.7-57.32,19.11-128.75,19.11-128.75S463.29,253.35,460,211s-4.15-82.24,6.64-97.19c0,0-59.64,44.87-37.37,140.15.79,3.4,3.11,23.37,27.41,82q1.59,3.85,3.32,7.93s15.78,57.32,5.81,74.76c0,0,10.8-33.32-19.1-91.42,0,0-27.41-18.69-26.58-73.28s-.83-46.29-.83-46.29-34.06,77.25-11.63,132.91c0,0,29.07,47.35,6.64,55.65s-30.73-14.12-30.73-14.12-15.78-17.44-18.28-34.89c0,0-33.22,51.5,16.62,111.31,0,0-58.15-34.89-32.4-111.31s49.84-106.32,49.84-106.32,39-70.61,17.45-142.87S316.27,0,316.27,0s59,55.65,41.53,155.33c0,0-10.8,54.61-40.7,109.12s-41.54,104.36-40.71,129.28,15,49.84,15,49.84-39-37.91-1.66-130.26S319.59,173.61,282.21,148.69Z" transform="translate(0 12.22)"/></svg>