<?xml version="1.0" encoding="utf-8"?>
<!-- Generator: Adobe Illustrator 23.0.2, SVG Export Plug-In . SVG Version: 6.00 Build 0)  -->
<svg version="1.1" id="Layer_1" xmlns="http://www.w3.org/2000/svg" xmlns:xlink="http://www.w3.org/1999/xlink" x="0px" y="0px"
	 viewBox="0 0 400 400" style="enable-background:new 0 0 400 400;" xml:space="preserve">
<style type="text/css">
	.st0{fill:#F39225;}
	.st1{fill:#FEFEFE;}
</style>
<path class="st0" d="M114.8,160.9c0.4,2,1,3.9,1.6,5.8c1.6,5.8,3.3,11.5,5,17.3c0.7,2.3-0.2,3.9-2.5,4.6c-2,0.6-3.9,1.1-5.9,1.7
	c-0.5,0.1-0.6,0.3-0.5,0.8c0.4,3.2,0.8,6.4,1.1,9.6c0.1,1.1,0.1,1.1,1.1,0.8c5.4-1.5,10.9-3.1,16.3-4.6c0.2-0.1,0.4-0.1,0.7-0.2
	c0.1,0,0.3-0.1,0.4,0.1c0.1,0.2,0,0.3-0.2,0.3c-0.2,0.1-0.4,0.3-0.7,0.4c-13.5,7.8-27,15.6-40.5,23.4c-1.4,0.8-2.8,1.6-4.1,2.4
	c-0.5,0.3-0.9,0.3-1.3-0.1c-7.5-6.2-13.7-13.4-18.6-21.7c-5.8-9.8-9.5-20.3-11-31.6c-0.3-2-0.4-4-0.6-5.9c0-0.5,0-1-0.1-1.5
	c0-2.8,0-5.6,0-8.4c0.3-0.2,0.1-0.6,0.1-0.9c0.7-10.6,3.3-20.7,7.9-30.2c8.2-17,20.6-29.9,37.5-38.6c9.1-4.7,18.8-7.5,28.9-8.6
	c5.2-0.6,10.5-0.7,15.8-0.2c9.6,0.9,18.8,3.2,27.6,7.2c6.4,2.9,12.3,6.5,17.8,10.9c2.5,2,5,4.2,7.3,6.5c5.1,5.2,9.5,10.9,13.1,17.3
	c4.1,7.2,7,14.8,8.8,22.8c0.4,1.6,0.6,3.3,1,5c0.1,0.6-0.1,0.8-0.5,1c-2.9,1.7-5.8,3.3-8.7,5c-5.6,3.2-11.2,6.4-16.7,9.7
	c-4.4,2.6-8.9,5.1-13.3,7.7c-0.6,0.3-1.2,0.7-1.8,1c0-0.7,0.1-1.3,0.1-2c0-3.5-0.7-6.9-1.9-10.1c-1-2.6-2.5-4.9-4.7-6.6
	c-2-1.6-4.4-2.5-6.9-2.9c-1.7-0.3-3.4-0.3-5.3-0.3c0.6-1,1.4-1.5,2-2.3c1.4-1.9,2.4-4,2.7-6.4c0.5-4.8-0.9-9.1-3.7-13
	c-2.5-3.4-6-5-10.1-5.6c-4.4-0.7-8.7-0.2-13,0.6c-0.7,0.1-1,0-1.2-0.7c-1.2-4.4-2.5-8.8-3.7-13.2c-0.2-0.6-0.4-0.8-1.1-0.6
	c-2.5,0.8-5,1.5-7.5,2.1c-0.6,0.2-0.7,0.3-0.6,1c1.3,4.3,2.5,8.6,3.7,12.9c0.2,0.6,0.1,0.9-0.6,1.1c-1.9,0.5-3.8,1.1-5.7,1.7
	c-0.6,0.2-0.8,0.1-1-0.5c-1.2-4.4-2.5-8.7-3.7-13.1c-0.2-0.6-0.3-0.7-1-0.5c-2.4,0.7-4.9,1.4-7.4,2.1c-0.7,0.2-0.8,0.5-0.6,1.2
	c1.3,4.4,2.5,8.8,3.8,13.2c0.2,0.6,0.1,0.9-0.5,1.1c-5.5,1.6-11,3.1-16.5,4.7c-1,0.3-1.1,0.3-0.7,1.4c0.7,2.6,1.5,5.2,2.2,7.8
	c0.2,0.7,0.4,0.7,1,0.6c2.3-0.7,4.6-1.5,7.1-1.9c2.4-0.4,4.6,1,5.3,3.4c1.5,5.2,3,10.4,4.5,15.6c0,0.2,0.1,0.3,0.2,0.5
	C114.7,160.7,114.7,160.8,114.8,160.9z"/>
<path class="st0" d="M125.3,481.9c0.1,0.1,0.2,0.1,0.2,0.2c-2,0-4,0-6,0c0.1-0.1,0.2-0.1,0.2-0.2
	C121.6,482.1,123.4,482.1,125.3,481.9z"/>
<path class="st1" d="M54.8,162.5c0.2,0.5,0.1,1,0.1,1.5c0,0-0.1,0-0.1,0C54.8,163.5,54.8,163,54.8,162.5z"/>
<path class="st1" d="M54.9,153.2c0,0.3,0.1,0.6-0.1,0.9c0-0.3,0-0.6,0-0.9C54.8,153.3,54.9,153.3,54.9,153.2z"/>
<path d="M147.3,400.2c-1.3,0.1-2.6,0.1-3.9,0c-7.3-0.8-12.9-4.3-16.6-10.6c-12.4-21.4-24.8-42.9-37.1-64.3
	c-9.8-17-19.7-34.1-29.5-51.1c-6-10.4-2.6-23.4,7.8-29.4c25.2-14.5,50.4-29.1,75.6-43.6c6.1-3.5,12.2-7,18.2-10.6
	c5.4-3.2,10.9-6.3,16.3-9.5c3.9-2.3,7.9-4.5,11.8-6.7c4.7-2.7,9.3-5.4,13.9-8.1c5-2.9,10-5.8,15-8.7c3.6-2.1,7.3-4.2,11-6.2
	c4.5-2.6,9.1-5.3,13.6-7.9c1.8-1,3.6-2.1,5.4-3.1c2.7-1.4,5.6-2.1,8.7-2.2c3.9-0.2,7.6,0.6,11.1,2.4c3.8,1.9,6.6,4.8,8.7,8.5
	c3.1,5.3,6.1,10.7,9.2,16c1.7,3,3.4,6,5.2,8.9c0.2,0.4,0.1,0.4-0.2,0.6c-2.1,1.2-4.2,2.5-6.4,3.7c-4.5,2.6-9.1,5.3-13.6,7.9
	c-4.7,2.7-9.4,5.3-14,8.1c-4,2.4-8.2,4.5-12.1,7.1c-4.1,2.7-6.4,6.7-7.1,11.5c-0.7,4.4,0.4,8.4,2.7,12.1c2.6,4.3,5,8.6,7.5,12.9
	c2.8,4.9,5.6,9.7,8.4,14.6c1.3,2.3,2.6,4.5,3.9,6.7c2.5,4,6,6.5,10.6,7.5c4.8,1.1,9.2,0.1,13.4-2.4c3.1-1.9,6.3-3.7,9.5-5.5
	c3.9-2.3,7.8-4.5,11.7-6.8c3-1.7,6-3.4,8.9-5.2c3.7-2.1,7.5-4.3,11.2-6.4c0.8-0.5,1.7-1,2.5-1.5c0.4-0.3,0.7-0.2,0.9,0.3
	c1.5,2.7,3.1,5.4,4.6,8.1c2.7,4.7,5.4,9.3,8.1,14c1.5,2.6,3.1,5.2,3.9,8.1c2.4,9.1-1.2,19-9.8,24c-35.4,20.5-70.8,40.9-106.2,61.3
	c-24.5,14.2-49.1,28.3-73.6,42.5C153.5,398.9,150.6,399.9,147.3,400.2z"/>
<path class="st0" d="M214.2,81.2c-7.4-0.1-16.2-3.3-23.7-9.7c-8-6.8-12.7-15.6-13.9-26c-1.5-13.3,2.7-24.8,12.3-34.2
	c7.8-7.6,17.3-11.3,28.2-11.2c22.5,0.2,41,18.3,40.4,41.8C256.9,63.4,239.3,81.2,214.2,81.2z M228,35.1c0.1-0.1,0.1-0.2,0.1-0.2
	c4.2-3.7,1.7-11.9-4.2-12.9c-2.2-0.4-4.4-0.2-6.6,0.2c-0.6,0.1-0.7,0-0.9-0.5c-0.5-2-1.1-3.9-1.7-5.9c-0.1-0.5-0.3-0.7-0.9-0.5
	c-1,0.3-1.9,0.6-2.9,0.8c-0.7,0.1-0.7,0.5-0.5,1c0.6,1.8,1,3.7,1.6,5.5c0.2,0.6,0.2,0.9-0.5,1c-0.7,0.1-1.4,0.4-2.1,0.6
	c-0.6,0.2-0.8,0.1-0.9-0.5c-0.5-1.9-1.1-3.8-1.6-5.7c-0.2-0.6-0.4-0.7-1-0.5c-0.9,0.3-1.8,0.6-2.7,0.8c-0.7,0.1-0.9,0.4-0.7,1.1
	c0.6,1.9,1.1,3.8,1.7,5.6c0.2,0.6,0,0.8-0.5,1c-2.5,0.7-5,1.4-7.5,2.1c-0.4,0.1-0.6,0.2-0.4,0.7c0.4,1.1,0.7,2.3,1,3.4
	c0.1,0.6,0.5,0.6,0.9,0.5c0.9-0.3,1.7-0.5,2.6-0.8c1.6-0.4,2.7,0.2,3.1,1.8c0.9,2.9,1.7,5.9,2.5,8.8c1,3.4,1.9,6.7,2.9,10.1
	c0.4,1.3,0,2-1.3,2.4c-0.8,0.2-1.5,0.5-2.3,0.6c-0.6,0.1-0.8,0.4-0.7,1c0.2,1.3,0.4,2.5,0.4,3.8c0,0.7,0.2,0.9,0.9,0.7
	c2.4-0.7,4.9-1.4,7.4-2.1c0.5-0.2,0.8-0.1,0.9,0.5c0.5,2,1.1,4,1.7,6c0.1,0.5,0.4,0.6,0.8,0.5c1-0.3,2-0.6,2.9-0.8
	c0.6-0.1,0.8-0.3,0.6-1c-0.6-1.9-1.1-3.9-1.7-5.8c-0.2-0.5,0-0.8,0.5-0.9c0.7-0.2,1.5-0.4,2.2-0.6c0.5-0.2,0.7,0,0.9,0.5
	c0.5,1.9,1.1,3.8,1.6,5.7c0.2,0.7,0.5,0.9,1.2,0.6c0.9-0.3,1.8-0.6,2.7-0.8c0.6-0.1,0.7-0.4,0.6-1c-0.6-1.8-1.1-3.7-1.6-5.6
	c-0.2-0.7-0.2-1.1,0.7-1.3c1.3-0.4,2.5-1,3.8-1.6c1.8-1,3.5-2.1,4.7-3.9c2.2-3.3,1.7-6.7,0.4-10c-1-2.4-2.8-3.9-5.4-4.3
	C229.7,35.2,228.9,35.2,228,35.1z"/>
<path d="M247.4,215.4c0-3.1,1.4-5.3,3.9-6.8c5.3-3.1,10.7-6.2,16.1-9.3c6.3-3.7,12.7-7.4,19-11c3.6-2.1,7.3-4.2,11-6.3
	c4-2.3,8.8-1.2,11.2,3.1c4.3,7.7,8.7,15.3,13.1,22.9c2.2,3.8,4.4,7.6,6.6,11.4c2.2,3.9,0.7,8.6-3,10.7c-6.1,3.4-12,7-18.1,10.4
	c-5.1,2.9-10.2,5.9-15.3,8.8c-4.4,2.5-8.8,5.1-13.2,7.6c-2.7,1.5-5.4,1.4-8-0.3c-1.3-0.8-2.1-2.1-2.9-3.5c-1.5-2.5-2.9-5-4.4-7.5
	c-1.6-2.7-3.1-5.4-4.6-8.1c-1.6-2.8-3.3-5.6-5-8.5c-1.6-2.7-3.1-5.5-4.6-8.2c-0.7-1.2-1.5-2.4-1.8-3.8
	C247.4,216.4,247.5,215.9,247.4,215.4z"/>
<path class="st0" d="M137.5,65c-14.9-0.1-26.6-12-26.5-27c0.1-14.3,12.2-26.2,26.6-26.1C152.4,12,164.4,24,164.1,39
	C163.8,53.2,152.2,65,137.5,65z M144.7,34.9c1.2-1.5,1.4-2,1.5-3c0.2-3.7-2.6-6.1-6.4-5.7c-0.8,0.1-1.8,0.6-2.4,0.1
	c-0.5-0.4-0.6-1.5-0.8-2.3c-0.2-0.7-0.2-1.9-0.7-2.1c-0.6-0.2-1.5,0.3-2.3,0.5c-0.4,0.1-0.5,0.3-0.3,0.6c0.3,0.8,0.5,1.6,0.7,2.5
	c0.5,1.7,0.5,1.7-1.2,2.2c-0.6,0.2-0.8,0-0.9-0.5c-0.3-1-0.6-2.1-0.9-3.1c-0.2-0.6-0.4-0.9-1-0.6c-0.5,0.2-1,0.3-1.5,0.4
	c-0.5,0.1-0.6,0.3-0.4,0.8c0.4,1.1,0.6,2.3,1,3.4c0.2,0.5,0.1,0.8-0.5,0.9c-1,0.2-2,0.6-3,0.9c-2.1,0.6-2.1,0.6-1.5,2.7
	c0.2,0.7,0.4,1,1.1,0.7c0.4-0.2,0.9-0.3,1.4-0.4c1.1-0.2,1.7,0.2,2,1.2c0.6,2.2,1.2,4.3,1.9,6.5c0.5,1.9,1.1,3.8,1.6,5.6
	c0.3,1.1,0.1,1.5-1,1.9c-0.4,0.1-0.8,0.3-1.2,0.3c-0.4,0.1-0.6,0.3-0.5,0.7c0.1,0.8,0.2,1.6,0.3,2.4c0,0.5,0.3,0.6,0.7,0.5
	c0.8-0.3,1.7-0.5,2.5-0.7c0.8-0.2,1.9-0.9,2.5-0.6c0.7,0.3,0.6,1.6,0.9,2.5c0.7,2.3,0.7,2.3,2.9,1.5c0.4-0.1,0.5-0.3,0.4-0.7
	c-0.3-0.8-0.5-1.6-0.7-2.5c-0.5-1.9-0.5-1.9,1.4-2.3c0.4-0.1,0.5,0,0.6,0.4c0.2,0.7,0.4,1.4,0.6,2c0.7,2.3,0.7,2.3,3,1.5
	c0.4-0.1,0.5-0.2,0.4-0.7c-0.4-1.1-0.6-2.3-1-3.4c-0.2-0.6-0.2-0.9,0.5-1.2c1.2-0.4,2.3-0.9,3.3-1.6c3.8-2.4,3.6-6.5,1.8-9.3
	C148.4,35.2,146.7,34.8,144.7,34.9z"/>
<path class="st0" d="M161,168.1c-0.1,3.2-1.6,5.4-3.9,7.2c-3.9,3.1-8.5,4.7-13.2,6.2c-1.6,0.5-3.3,0.9-5,1.4c-0.8,0.2-1,0.1-1.3-0.7
	c-1.4-5.2-2.9-10.3-4.4-15.5c-0.3-1-0.5-1.9-0.9-2.9c-0.2-0.6,0-0.8,0.5-1c3.6-1.2,7.2-2.3,10.9-3c3.3-0.6,6.6-0.9,9.9-0.3
	c3.7,0.7,6.4,3.4,7,7.3C160.9,167.4,161,167.9,161,168.1z"/>
<path class="st0" d="M138.7,132.8c2.7,0.1,5.1,0.4,7.1,2.1c2.9,2.5,4.1,7.7,1,11.3c-2,2.3-4.6,3.7-7.3,4.8c-3,1.3-6.1,2.1-9.2,3
	c-0.5,0.1-0.7,0.1-0.9-0.5c-1.6-5.6-3.2-11.2-4.8-16.8c-0.1-0.4-0.3-0.7,0.3-0.9c3.6-1.1,7.2-2.3,11-2.8
	C136.9,132.9,137.9,132.8,138.7,132.8z"/>
<path class="st1" d="M114.8,160.9c-0.1-0.1-0.1-0.2-0.2-0.3c0.3,0,0.5,0,0.8,0l0,0C115.2,160.8,115,160.9,114.8,160.9z"/>
<path class="st1" d="M115.4,160.6C115.4,160.6,115.4,160.5,115.4,160.6C115.4,160.5,115.4,160.6,115.4,160.6
	C115.4,160.6,115.4,160.6,115.4,160.6z"/>
<path class="st1" d="M228,35.1c0.9,0.1,1.7,0.1,2.5,0.2c2.6,0.4,4.4,1.9,5.4,4.3c1.3,3.4,1.8,6.8-0.4,10c-1.2,1.8-2.9,2.9-4.7,3.9
	c-1.2,0.6-2.4,1.2-3.8,1.6c-0.8,0.2-0.9,0.6-0.7,1.3c0.6,1.8,1.1,3.7,1.6,5.6c0.2,0.6,0.1,0.9-0.6,1c-0.9,0.2-1.8,0.4-2.7,0.8
	c-0.7,0.3-1,0.1-1.2-0.6c-0.5-1.9-1.1-3.8-1.6-5.7c-0.1-0.5-0.4-0.7-0.9-0.5c-0.7,0.2-1.5,0.4-2.2,0.6c-0.5,0.1-0.7,0.3-0.5,0.9
	c0.6,1.9,1.1,3.9,1.7,5.8c0.2,0.6,0,0.8-0.6,1c-1,0.2-2,0.5-2.9,0.8c-0.5,0.2-0.7,0-0.8-0.5c-0.5-2-1.2-4-1.7-6
	c-0.2-0.6-0.4-0.7-0.9-0.5c-2.5,0.7-4.9,1.4-7.4,2.1c-0.7,0.2-0.9,0-0.9-0.7c-0.1-1.3-0.3-2.5-0.4-3.8c-0.1-0.6,0.1-0.9,0.7-1
	c0.8-0.2,1.5-0.4,2.3-0.6c1.3-0.4,1.7-1.1,1.3-2.4c-1-3.4-1.9-6.7-2.9-10.1c-0.8-2.9-1.7-5.9-2.5-8.8c-0.5-1.6-1.5-2.2-3.1-1.8
	c-0.9,0.2-1.7,0.5-2.6,0.8c-0.5,0.1-0.8,0.1-0.9-0.5c-0.3-1.2-0.6-2.3-1-3.4c-0.2-0.5,0-0.6,0.4-0.7c2.5-0.7,5-1.5,7.5-2.1
	c0.6-0.2,0.7-0.4,0.5-1c-0.6-1.9-1.1-3.8-1.7-5.6c-0.2-0.7,0-1,0.7-1.1c0.9-0.2,1.8-0.5,2.7-0.8c0.6-0.2,0.8-0.1,1,0.5
	c0.5,1.9,1.1,3.8,1.6,5.7c0.2,0.6,0.4,0.7,0.9,0.5c0.7-0.3,1.4-0.5,2.1-0.6c0.7-0.1,0.7-0.4,0.5-1c-0.6-1.8-1.1-3.7-1.6-5.5
	c-0.2-0.6-0.1-0.9,0.5-1c1-0.2,2-0.5,2.9-0.8c0.6-0.2,0.7,0,0.9,0.5c0.5,2,1.1,3.9,1.7,5.9c0.1,0.5,0.3,0.6,0.9,0.5
	c2.2-0.4,4.4-0.5,6.6-0.2c5.8,1,8.3,9.1,4.2,12.9C228.1,34.9,228.1,34.9,228,35.1z M222.6,40.9c-2.8,0-5.5,0.9-8.1,1.7
	c-0.4,0.1-0.4,0.3-0.3,0.6c0.8,2.9,1.7,5.8,2.5,8.8c0.1,0.4,0.2,0.5,0.7,0.4c2.2-0.6,4.3-1.2,6.4-2.2c1.3-0.6,2.5-1.3,3.4-2.4
	c1.9-2.3,0.9-5.6-1.9-6.6C224.3,40.9,223.5,40.8,222.6,40.9z M222.1,32.1c0-2.5-1.7-4.1-4.4-4.2c-2.4-0.1-4.6,0.7-6.9,1.4
	c-0.5,0.2-0.4,0.5-0.3,0.8c0.6,2,1.2,4.1,1.8,6.1c0.2,0.7,0.2,1.7,0.7,1.9c0.5,0.2,1.3-0.2,2-0.4c2.2-0.7,4.4-1.4,6-3.1
	C221.6,34,222,33.1,222.1,32.1z"/>
<path class="st1" d="M144.7,34.9c2,0,3.7,0.3,4.8,2.1c1.7,2.9,2,6.9-1.8,9.3c-1,0.7-2.1,1.2-3.3,1.6c-0.7,0.2-0.7,0.5-0.5,1.2
	c0.4,1.1,0.7,2.3,1,3.4c0.1,0.4,0,0.5-0.4,0.7c-2.3,0.8-2.3,0.8-3-1.5c-0.2-0.7-0.4-1.4-0.6-2c-0.1-0.3-0.2-0.4-0.6-0.4
	c-2,0.4-2,0.4-1.4,2.3c0.2,0.8,0.5,1.6,0.7,2.5c0.1,0.4,0,0.6-0.4,0.7c-2.2,0.7-2.2,0.8-2.9-1.5c-0.3-0.9-0.2-2.1-0.9-2.5
	c-0.6-0.3-1.6,0.3-2.5,0.6c-0.8,0.2-1.7,0.5-2.5,0.7c-0.5,0.2-0.7,0-0.7-0.5c-0.1-0.8-0.1-1.6-0.3-2.4c-0.1-0.4,0.1-0.6,0.5-0.7
	c0.4-0.1,0.8-0.2,1.2-0.3c1-0.3,1.3-0.8,1-1.9c-0.5-1.9-1.1-3.8-1.6-5.6c-0.6-2.2-1.2-4.3-1.9-6.5c-0.3-1.1-0.9-1.4-2-1.2
	c-0.5,0.1-1,0.2-1.4,0.4c-0.8,0.3-1,0-1.1-0.7c-0.6-2.1-0.6-2.1,1.5-2.7c1-0.3,2-0.6,3-0.9c0.6-0.1,0.6-0.4,0.5-0.9
	c-0.4-1.1-0.6-2.3-1-3.4c-0.1-0.5-0.1-0.7,0.4-0.8c0.5-0.1,1-0.2,1.5-0.4c0.7-0.3,0.9,0,1,0.6c0.3,1,0.6,2.1,0.9,3.1
	c0.1,0.5,0.3,0.7,0.9,0.5c1.7-0.5,1.7-0.5,1.2-2.2c-0.2-0.8-0.4-1.6-0.7-2.5c-0.1-0.4-0.1-0.6,0.3-0.6c0.8-0.2,1.7-0.7,2.3-0.5
	c0.6,0.2,0.5,1.4,0.7,2.1c0.2,0.8,0.3,1.8,0.8,2.3c0.6,0.5,1.6,0,2.4-0.1c3.8-0.4,6.5,2,6.4,5.7C146.1,32.9,145.9,33.4,144.7,34.9z
	 M144.8,41.5c0-1.6-1.1-2.7-2.8-2.8c-2.1-0.2-4,0.5-5.9,1.1c-0.4,0.1-0.4,0.3-0.3,0.7c0.5,1.8,1,3.6,1.6,5.4
	c0.1,0.2,0.1,0.5,0.5,0.4c1.9-0.6,3.9-1,5.6-2.3C144.2,43.3,144.8,42.6,144.8,41.5z M137.6,30.1c-1.3,0.1-2.7,0.5-4.1,0.9
	c-0.3,0.1-0.4,0.2-0.3,0.6c0.5,1.6,1,3.3,1.4,4.9c0.1,0.3,0.1,0.5,0.5,0.4c1.6-0.4,3.1-0.8,4.5-1.8c0.7-0.5,1.2-1.2,1.2-2.1
	C140.9,31.2,139.7,30.2,137.6,30.1z"/>
<path class="st0" d="M222.6,40.9c0.9,0,1.7,0.1,2.5,0.3c2.8,0.9,3.8,4.3,1.9,6.6c-0.9,1.1-2.1,1.8-3.4,2.4c-2,1-4.2,1.6-6.4,2.2
	c-0.4,0.1-0.6,0-0.7-0.4c-0.8-2.9-1.7-5.8-2.5-8.8c-0.1-0.3-0.1-0.5,0.3-0.6C217.1,41.8,219.8,40.9,222.6,40.9z"/>
<path class="st0" d="M222.1,32.1c0,1-0.4,1.9-1.1,2.6c-1.7,1.7-3.8,2.4-6,3.1c-0.7,0.2-1.5,0.7-2,0.4c-0.5-0.2-0.5-1.2-0.7-1.9
	c-0.6-2-1.2-4.1-1.8-6.1c-0.1-0.3-0.2-0.6,0.3-0.8c2.3-0.7,4.5-1.4,6.9-1.4C220.3,28,222.1,29.7,222.1,32.1z"/>
<path class="st0" d="M144.8,41.5c0,1.1-0.6,1.8-1.4,2.4c-1.7,1.2-3.6,1.7-5.6,2.3c-0.4,0.1-0.4-0.1-0.5-0.4c-0.5-1.8-1-3.6-1.6-5.4
	c-0.1-0.3-0.1-0.5,0.3-0.7c1.9-0.6,3.8-1.2,5.9-1.1C143.7,38.8,144.8,39.9,144.8,41.5z"/>
<path class="st0" d="M137.6,30.1c2.1,0,3.3,1.1,3.3,2.8c0,0.9-0.5,1.6-1.2,2.1c-1.3,1-2.9,1.4-4.5,1.8c-0.4,0.1-0.4-0.1-0.5-0.4
	c-0.5-1.6-0.9-3.3-1.4-4.9c-0.1-0.3,0-0.5,0.3-0.6C134.9,30.6,136.3,30.2,137.6,30.1z"/>
</svg>
