<svg id="Слой_1" data-name="Слой 1" xmlns="http://www.w3.org/2000/svg" viewBox="0 0 197.28 199.35"><defs><style>.cls-1{fill:#f9e29b;stroke:#ad681b;stroke-miterlimit:10;stroke-width:4px;}.cls-2{fill:#ba7120;}.cls-3{fill:#ad681b;}.cls-4{fill:#d59a38;}</style></defs><title>fto</title><ellipse class="cls-1" cx="98.64" cy="99.67" rx="96.64" ry="97.67"/><path class="cls-2" d="M99.92,175.64a75.17,75.17,0,1,1,75.17-75.17A75.25,75.25,0,0,1,99.92,175.64Zm0-146.34a71.17,71.17,0,1,0,71.17,71.17A71.24,71.24,0,0,0,99.92,29.3Z" transform="translate(-0.77 -0.65)"/><polygon class="cls-3" points="53.22 51.62 53.22 146 74.28 146 74.28 70.72 105.74 71 86.92 51.62 53.22 51.62"/><polygon class="cls-4" points="122.88 51.62 122.88 88.7 97.32 88.7 97.32 102.74 108.55 102.74 124.28 117.35 97.32 117.35 97.32 131.96 110.8 146 144.79 146 144.79 51.62 122.88 51.62"/></svg>