<?xml version="1.0" standalone="no"?>
<!DOCTYPE svg PUBLIC "-//W3C//DTD SVG 20010904//EN"
 "http://www.w3.org/TR/2001/REC-SVG-20010904/DTD/svg10.dtd">
<svg version="1.0" xmlns="http://www.w3.org/2000/svg"
 width="240.000000pt" height="240.000000pt" viewBox="0 0 240.000000 240.000000"
 preserveAspectRatio="xMidYMid meet">

<g transform="translate(0.000000,240.000000) scale(0.100000,-0.100000)"
fill="#000000" stroke="none">
<path d="M0 1200 l0 -1200 533 1 c496 1 527 2 452 16 -117 21 -247 67 -351
124 -104 57 -230 151 -226 168 1 6 -1 10 -5 10 -19 -3 -33 2 -33 12 0 5 6 7
13 3 8 -6 8 -3 -1 9 -18 21 -6 43 14 26 12 -9 13 -9 9 3 -4 9 1 18 9 21 9 4
16 3 16 -1 0 -4 12 -15 26 -26 l26 -18 -6 36 c-5 32 -3 37 26 52 24 12 28 18
17 25 -8 5 -24 9 -36 9 -20 0 -23 5 -22 38 1 29 2 32 7 14 4 -13 10 -23 15
-23 4 1 14 1 23 1 10 0 -4 22 -39 62 -93 104 -173 261 -213 418 -27 105 -27
334 0 440 75 293 258 522 521 650 157 77 239 95 430 95 191 0 274 -19 427 -93
78 -38 94 -43 86 -27 -11 19 -10 20 10 2 11 -10 23 -14 26 -9 3 6 -1 13 -10
16 -13 5 -14 9 -4 21 6 7 17 12 24 9 6 -2 22 14 35 36 12 22 27 40 33 40 6 0
8 9 5 21 -5 20 -5 20 13 4 14 -12 20 -13 26 -4 5 8 3 10 -6 4 -9 -5 -11 -4 -6
4 8 13 39 -7 134 -88 61 -52 162 -171 216 -254 90 -139 171 -361 162 -447 -4
-34 -3 -38 3 -15 l8 30 5 -30 c3 -16 6 205 7 492 l1 523 -1200 0 -1200 0 0
-1200z m1007 1184 c-3 -3 -12 -4 -19 -1 -8 3 -5 6 6 6 11 1 17 -2 13 -5z m410
0 c-3 -3 -12 -4 -19 -1 -8 3 -5 6 6 6 11 1 17 -2 13 -5z m-204 -64 c3 -13 14
-20 29 -20 21 -1 21 -2 5 -11 -14 -8 -17 -18 -13 -35 6 -23 5 -24 -15 -14 -15
9 -24 9 -32 1 -18 -18 -28 -12 -21 14 4 18 1 27 -10 31 -23 9 -20 23 5 17 15
-4 22 0 26 16 7 26 19 27 26 1z m457 -10 c8 -5 11 -10 5 -10 -5 0 -17 5 -25
10 -8 5 -10 10 -5 10 6 0 17 -5 25 -10z m45 -20 c3 -6 -1 -7 -9 -4 -18 7 -21
14 -7 14 6 0 13 -4 16 -10z m-931 -45 c4 -11 13 -14 32 -9 24 6 25 5 14 -15
-9 -17 -9 -26 1 -37 9 -11 7 -14 -11 -14 -13 0 -29 -8 -36 -17 -12 -17 -13
-16 -14 5 0 15 -7 26 -20 29 l-21 6 20 18 c11 11 18 26 15 34 -4 8 -2 15 4 15
5 0 12 -7 16 -15z m853 -6 c-4 -15 1 -23 20 -32 l26 -12 -24 -5 c-14 -4 -26
-15 -29 -30 -5 -21 -7 -22 -13 -7 -4 10 -17 17 -33 17 -22 0 -24 2 -15 14 10
11 10 20 1 37 -11 20 -10 21 13 15 16 -4 29 -1 37 9 17 21 23 19 17 -6z m208
-24 l20 -16 -20 10 c-11 5 -29 17 -40 26 l-20 16 20 -10 c11 -5 29 -17 40 -26z
m-20 -35 c3 -6 -1 -7 -9 -4 -18 7 -21 14 -7 14 6 0 13 -4 16 -10z m-1325 -4
c0 -2 -8 -10 -17 -17 -16 -13 -17 -12 -4 4 13 16 21 21 21 13z m-40 -29 c0 -2
-10 -12 -22 -23 l-23 -19 19 23 c18 21 26 27 26 19z m-70 -60 c0 -2 -19 -21
-42 -42 l-43 -40 40 43 c36 39 45 47 45 39z m80 -87 c0 -10 8 -24 18 -29 16
-10 15 -11 -5 -17 -11 -3 -24 -16 -27 -27 -6 -20 -7 -21 -17 -4 -5 9 -19 17
-29 17 -21 0 -27 15 -10 25 6 4 8 15 5 26 -6 17 -3 19 19 13 16 -4 26 -2 26 5
0 6 5 11 10 11 6 0 10 -9 10 -20z m-180 -24 c0 -2 -8 -10 -17 -17 -16 -13 -17
-12 -4 4 13 16 21 21 21 13z m-70 -316 c0 -15 7 -20 28 -20 l27 0 -23 -18
c-15 -12 -21 -24 -16 -35 7 -19 -6 -23 -23 -6 -8 8 -17 8 -32 0 -23 -13 -26
-9 -11 20 6 11 7 19 1 19 -5 0 -12 7 -15 16 -5 13 -2 15 14 11 13 -3 21 1 25
14 8 25 25 24 25 -1z m-203 -272 c-3 -8 -6 -5 -6 6 -1 11 2 17 5 13 3 -3 4
-12 1 -19z m133 -145 c22 6 26 -3 8 -21 -9 -9 -9 -15 0 -24 19 -19 14 -29 -13
-22 -15 4 -25 2 -25 -5 0 -19 -17 -12 -23 9 -3 11 -12 20 -21 20 -23 0 -20 17
4 23 13 3 20 14 20 29 1 22 1 22 15 4 9 -12 22 -17 35 -13z m-133 -245 c-3 -8
-6 -5 -6 6 -1 11 2 17 5 13 3 -3 4 -12 1 -19z m169 -169 c4 -8 9 -8 17 0 17
17 29 13 25 -6 -2 -10 5 -23 17 -30 19 -11 19 -12 -8 -18 -15 -4 -27 -13 -27
-21 0 -8 -4 -14 -10 -14 -5 0 -10 7 -10 15 0 10 -10 15 -27 15 -26 1 -27 2
-10 15 13 9 17 20 12 34 -7 22 9 29 21 10z m65 -356 c13 -16 12 -17 -3 -4 -10
7 -18 15 -18 17 0 8 8 3 21 -13z m199 2 c0 -9 9 -15 23 -15 22 -1 22 -1 2 -18
-12 -10 -19 -25 -17 -37 4 -17 2 -17 -11 -6 -10 7 -25 10 -38 6 -18 -6 -20 -4
-14 14 4 13 1 28 -5 36 -10 13 -8 15 14 15 14 0 26 5 26 10 0 6 5 10 10 10 6
0 10 -7 10 -15z m-120 -98 c-3 -2 -20 15 -39 37 l-35 41 39 -37 c22 -21 37
-39 35 -41z m50 53 c0 -5 -2 -10 -4 -10 -3 0 -8 5 -11 10 -3 6 -1 10 4 10 6 0
11 -4 11 -10z"/>
<path d="M1095 2150 c-322 -36 -602 -236 -754 -537 -102 -203 -121 -494 -46
-713 50 -146 180 -344 255 -388 23 -13 23 -13 6 1 -10 9 -16 22 -13 29 4 10 6
10 6 1 1 -7 6 -13 11 -13 6 0 10 6 9 12 -3 27 2 39 26 60 14 12 25 28 25 35 0
7 9 22 20 33 20 20 20 21 3 45 -10 13 -21 25 -25 25 -5 0 -8 4 -8 9 0 6 33
-23 73 -62 90 -88 173 -138 294 -177 162 -52 312 -59 528 -24 25 4 22 1 -13
-14 -23 -10 -40 -21 -36 -24 3 -4 -9 -11 -27 -17 -30 -8 -31 -9 -9 -11 l25 -1
-22 -11 c-13 -6 -23 -15 -23 -20 0 -4 -10 -18 -21 -29 -16 -16 -18 -23 -9 -29
18 -11 -5 -23 -33 -15 -20 5 -20 5 3 -9 l25 -15 -30 -1 c-24 0 -27 -2 -15 -11
11 -8 8 -9 -15 -5 -21 5 -26 4 -15 -3 10 -7 4 -11 -25 -14 -22 -2 -8 -2 30 0
39 2 106 13 150 24 132 33 327 138 317 171 -2 6 4 8 13 4 9 -3 13 -2 10 4 -7
12 44 82 55 75 4 -3 10 5 14 18 3 12 27 46 53 74 26 28 53 57 58 65 6 8 21 31
35 51 14 20 30 35 37 33 6 -3 14 2 17 10 4 10 2 13 -7 8 -6 -4 -2 3 10 14 68
66 117 374 83 527 l-9 40 2 -37 c1 -20 -2 -40 -5 -43 -4 -4 -4 -14 -1 -23 4
-15 3 -15 -6 -2 -9 13 -12 12 -17 -7 -4 -13 -9 -21 -13 -18 -4 2 -6 -10 -4
-28 2 -25 1 -28 -5 -12 -9 19 -9 19 -21 -3 -12 -23 -29 -44 -74 -89 -12 -13
-17 -23 -12 -23 6 0 2 -5 -7 -11 -31 -18 -22 -47 16 -55 31 -5 34 -8 23 -24
-8 -14 -15 -16 -29 -9 -10 5 -18 6 -18 2 0 -4 -5 -2 -12 5 -9 9 -16 8 -29 -4
-15 -13 -17 -13 -22 6 -3 11 -1 20 4 20 5 0 9 -5 9 -12 0 -6 2 -9 5 -6 3 3 3
12 0 21 -5 12 -13 13 -37 7 -24 -7 -29 -6 -24 5 9 24 -12 27 -28 3 -18 -26
-20 -20 -6 16 12 33 1 39 -29 15 -14 -11 -21 -25 -17 -34 4 -13 2 -14 -14 -5
-11 6 -20 19 -20 29 0 10 -7 24 -15 31 -14 11 -14 10 -5 -16 l11 -28 -23 19
-23 20 23 -26 c12 -14 22 -28 22 -32 0 -4 -82 -7 -182 -7 -176 0 -181 1 -164
19 9 10 15 24 13 32 -2 8 -2 11 0 7 3 -5 10 -8 16 -8 5 0 7 3 4 7 -4 3 4 21
18 39 14 18 25 35 25 38 0 3 -37 6 -82 6 -47 0 -101 7 -123 15 -39 14 -36 14
85 15 123 0 124 0 147 28 20 25 21 25 16 5 -4 -16 -1 -23 9 -23 13 0 36 -19
66 -55 12 -14 16 -13 43 10 31 26 49 32 49 17 0 -13 32 -45 59 -60 16 -10 26
-11 34 -3 23 23 -18 70 -217 252 -33 30 -85 79 -118 110 -32 31 -58 53 -58 50
0 -3 -5 2 -10 11 -6 10 -7 26 -1 40 9 25 11 32 11 48 0 6 6 10 13 10 26 0 135
-61 180 -100 56 -50 124 -150 133 -196 5 -29 10 -34 35 -34 l29 0 0 83 c0 85
12 129 23 86 4 -13 9 -21 12 -18 7 8 75 -56 76 -73 1 -7 4 3 8 22 5 29 3 36
-14 41 -15 4 -19 13 -18 33 3 35 5 38 37 40 17 0 26 7 26 17 0 9 8 19 19 22
16 4 18 0 13 -38 -3 -31 0 -50 13 -67 17 -23 17 -22 12 34 -4 39 -2 60 6 65
20 13 38 51 27 58 -6 3 -10 15 -10 26 0 11 4 18 9 14 13 -7 22 8 13 22 -9 14
-108 22 -105 8 2 -13 -96 -14 -114 -2 -7 5 -17 5 -23 2 -6 -4 -10 12 -10 39 0
27 -5 46 -11 46 -6 0 5 20 25 44 20 24 36 50 36 56 0 7 -18 -10 -40 -38 -29
-36 -46 -49 -57 -45 -11 4 -14 2 -9 -5 7 -12 -16 -65 -42 -94 -19 -22 -58 -23
-66 -3 -3 9 -11 15 -18 14 -33 -4 -49 2 -46 17 2 10 -5 18 -16 20 -10 1 -24 8
-30 15 -8 9 -7 10 8 5 14 -5 28 2 50 26 43 46 71 98 44 81 -18 -11 -39 -13
-33 -3 3 5 -3 13 -12 19 -24 14 -7 14 19 0 23 -12 45 2 33 21 -5 8 -10 9 -14
1 -4 -7 -17 -4 -36 9 l-29 19 47 20 c59 26 65 59 8 52 -7 -2 -10 2 -6 8 9 15
27 14 49 -2 25 -18 8 -51 -35 -66 -17 -6 -28 -15 -24 -21 3 -6 11 -8 16 -4 14
8 41 -17 35 -33 -3 -8 5 -25 19 -39 20 -20 29 -23 44 -14 26 13 61 64 61 87 0
11 -9 3 -26 -24 -27 -45 -66 -59 -78 -27 -9 24 -8 31 18 61 13 15 24 32 24 38
0 5 5 10 12 11 7 2 7 1 0 -3 -6 -3 1 -11 15 -19 37 -19 41 -18 20 6 -20 22 -8
28 15 8 12 -11 12 -10 1 5 -13 17 -4 24 15 10 5 -5 -2 2 -16 15 -33 30 -160
95 -235 120 -116 39 -277 56 -400 42z m45 -60 c48 -26 26 -110 -29 -110 -32 0
-46 13 -56 52 -5 19 -1 32 14 47 23 23 43 26 71 11z m167 -41 c19 -48 33 -50
33 -5 0 19 5 38 11 41 7 5 8 -5 4 -32 -16 -100 -21 -104 -49 -37 -22 55 -32
52 -35 -11 0 -14 -6 -25 -11 -25 -6 0 -8 10 -6 23 3 12 8 39 11 60 7 44 20 40
42 -14z m-312 11 c4 -6 -5 -7 -24 -4 -40 8 -55 -18 -36 -64 15 -35 35 -41 60
-16 9 9 18 14 21 11 10 -9 -28 -37 -50 -37 -28 0 -44 17 -52 57 -4 21 -1 35
11 46 18 19 60 23 70 7z m225 -41 c0 -21 -4 -39 -10 -39 -5 0 -10 21 -10 46 0
27 4 43 10 39 6 -3 10 -24 10 -46z m-402 -50 c2 -18 -4 -29 -22 -38 -23 -13
-24 -15 -9 -37 8 -13 11 -24 5 -24 -6 0 -22 21 -37 47 l-28 46 23 19 c32 26
64 20 68 -13z m67 0 c9 -17 14 -36 12 -42 -3 -9 -37 54 -37 69 0 12 12 0 25
-27z m764 -16 c-27 -49 -35 -57 -43 -44 -4 6 -3 11 2 11 6 0 19 16 31 35 27
47 36 45 10 -2z m-895 -105 c-3 -5 -13 -4 -23 2 -14 7 -23 4 -38 -13 -11 -12
-18 -29 -15 -37 3 -10 1 -12 -6 -5 -13 13 -42 111 -35 119 8 8 122 -57 117
-66z m-184 -28 c0 -5 -6 -10 -14 -10 -26 0 -40 -28 -28 -55 15 -33 61 -44 79
-20 20 29 17 48 -9 42 -20 -6 -20 -5 -5 10 13 13 19 14 31 3 22 -18 20 -27
-13 -60 -32 -33 -62 -31 -86 3 -20 29 -19 53 5 77 22 22 40 26 40 10z m355
-74 c12 -12 12 -15 -3 -20 -21 -7 -50 -26 -74 -48 -10 -10 -26 -17 -35 -17
-17 1 -17 2 0 6 9 2 15 9 12 14 -4 5 -1 9 4 9 6 0 11 7 11 16 0 8 5 12 10 9 6
-3 10 -1 10 4 0 6 -4 11 -10 11 -17 0 -11 18 8 23 33 9 54 7 67 -7z m-98 -31
c-4 -8 -11 -15 -17 -15 -7 0 -7 6 0 21 13 23 26 19 17 -6z m138 6 c6 -10 -84
-55 -93 -46 -3 3 0 5 6 5 6 0 17 6 24 13 11 10 48 34 55 36 1 1 4 -3 8 -8z
m531 -1 c15 -6 24 -13 22 -16 -3 -3 -21 2 -39 10 -39 16 -24 21 17 6z m-101
-28 c24 -14 30 -13 -120 -15 -114 -2 -124 -4 -187 -35 -43 -21 -83 -51 -114
-85 -26 -29 -42 -42 -35 -29 6 12 8 22 2 22 -5 0 -11 -4 -13 -10 -2 -5 -16
-11 -31 -12 -16 -1 -33 -8 -39 -15 -6 -7 -21 -13 -34 -13 -12 0 -26 -4 -29
-10 -3 -5 -11 -10 -16 -10 -6 0 -7 5 -3 11 4 8 0 8 -15 0 -11 -7 -21 -19 -21
-29 0 -14 -2 -14 -9 -3 -7 11 -15 10 -42 -10 l-34 -24 33 43 c84 106 229 197
362 227 77 17 314 15 345 -3z m96 -1 c88 -31 112 -41 107 -47 -6 -5 -178 55
-178 62 0 8 17 4 71 -15z m-1071 -56 c0 -8 9 -15 20 -15 11 0 20 -7 20 -15 0
-8 8 -19 18 -24 33 -17 93 -81 87 -91 -4 -6 -3 -9 2 -8 12 3 53 -25 53 -37 0
-5 -17 -45 -37 -87 -36 -74 -40 -77 -72 -78 l-34 0 8 43 c13 79 2 157 -26 183
-26 23 -67 26 -78 6 -9 -16 -11 -15 -25 3 -22 29 -19 44 10 57 24 11 25 13 8
25 -10 7 -14 14 -8 14 5 1 16 2 24 3 8 0 14 9 12 19 -2 9 2 17 8 17 5 0 10 -7
10 -15z m937 -1 c-3 -3 -12 -4 -19 -1 -8 3 -5 6 6 6 11 1 17 -2 13 -5z m-316
-82 c-6 -2 -9 -8 -6 -13 3 -4 -6 -11 -20 -15 -14 -3 -25 -11 -25 -17 0 -6 -3
-7 -7 -4 -4 4 9 23 28 43 21 21 35 30 38 22 2 -6 -1 -14 -8 -16z m-451 8 c0
-5 -4 -10 -10 -10 -5 0 -10 5 -10 10 0 6 5 10 10 10 6 0 10 -4 10 -10z m754
-36 c5 -14 4 -15 -9 -4 -17 14 -19 20 -6 20 5 0 12 -7 15 -16z m-264 -34 c0
-5 -9 -10 -21 -10 -11 0 -17 5 -14 10 3 6 13 10 21 10 8 0 14 -4 14 -10z m146
-32 c5 -13 8 -27 9 -33 0 -5 10 -10 22 -10 27 0 114 -65 108 -82 -4 -12 19
-12 31 0 13 13 30 7 30 -10 1 -10 5 -27 9 -37 7 -16 5 -18 -9 -13 -10 4 -81 7
-159 8 -105 0 -136 3 -117 10 22 9 23 12 9 20 -9 5 -20 25 -23 44 -5 23 -11
33 -18 29 -8 -5 -9 -1 -5 10 4 10 7 23 7 29 1 7 9 -3 19 -22 l18 -34 17 24 c9
14 12 25 6 27 -16 6 -11 40 8 51 25 15 30 14 38 -11z m-651 -168 c-4 -12 -9
-19 -12 -17 -3 3 -2 15 2 27 4 12 9 19 12 17 3 -3 2 -15 -2 -27z m513 -7 c-10
-2 -28 -2 -40 0 -13 2 -5 4 17 4 22 1 32 -1 23 -4z m-535 -104 c-4 -15 -9 -17
-17 -9 -8 8 -7 13 4 20 8 5 16 10 17 10 0 0 -1 -9 -4 -21z m502 2 c-6 -5 -46
-6 -95 -1 l-85 7 94 2 c57 0 91 -3 86 -8z m-491 -231 c5 -29 3 -26 -14 15 -20
51 -26 105 -12 119 4 4 10 -16 13 -46 3 -29 9 -69 13 -88z m531 130 c3 -6 17
-7 31 -4 37 9 74 -3 74 -26 0 -10 5 -22 10 -25 6 -4 10 -23 10 -43 -2 -49 13
-97 30 -97 7 0 15 -7 17 -15 4 -13 3 -13 -6 0 -9 13 -11 13 -11 -2 0 -26 37
-22 65 7 14 13 25 32 25 42 0 20 36 47 50 38 6 -4 7 -17 4 -31 -4 -14 -2 -24
5 -24 6 0 11 5 11 11 0 5 5 7 10 4 6 -4 10 -70 10 -165 l0 -159 -77 -17 c-63
-14 -89 -15 -144 -7 -169 27 -257 110 -304 288 -15 54 -32 246 -19 203 3 -10
11 -18 17 -19 7 0 19 -2 28 -4 8 -1 21 6 27 16 10 15 9 19 0 20 -7 0 -4 4 7 9
28 12 123 12 130 0z m255 -34 c0 -3 -4 -8 -10 -11 -5 -3 -10 -1 -10 4 0 6 5
11 10 11 6 0 10 -2 10 -4z m483 -108 c-29 -14 -29 -24 -2 -31 12 -3 18 -10 14
-16 -3 -6 -1 -11 5 -11 12 0 40 -24 40 -34 0 -3 -8 -6 -19 -6 -10 0 -31 -6
-46 -14 -15 -8 -34 -12 -41 -9 -10 4 -14 -17 -17 -99 -2 -86 -3 -78 -5 48 l-2
152 38 15 c42 18 69 21 35 5z m-373 -183 c0 -103 -4 -165 -10 -165 -6 0 -10
59 -10 158 0 139 3 172 17 172 2 0 3 -74 3 -165z m480 50 c10 -12 10 -15 -4
-15 -9 0 -16 7 -16 15 0 8 2 15 4 15 2 0 9 -7 16 -15z m10 -55 c0 -5 -4 -10
-10 -10 -5 0 -10 5 -10 10 0 6 5 10 10 10 6 0 10 -4 10 -10z m-854 -164 c29
-15 41 -25 30 -26 -31 0 -103 41 -143 83 l-38 40 51 -36 c28 -19 73 -47 100
-61z m629 14 c-3 -5 -12 -10 -18 -10 -7 0 -6 4 3 10 19 12 23 12 15 0z m-1178
-32 c-3 -8 -6 -5 -6 6 -1 11 2 17 5 13 3 -3 4 -12 1 -19z m1088 -3 c-16 -8
-37 -14 -45 -14 -8 0 1 7 20 14 46 18 64 17 25 0z m-68 -21 c-3 -3 -12 -4 -19
-1 -8 3 -5 6 6 6 11 1 17 -2 13 -5z m-90 -20 c-3 -3 -12 -4 -19 -1 -8 3 -5 6
6 6 11 1 17 -2 13 -5z m113 -24 c-8 -5 -24 -9 -35 -9 -16 1 -16 2 5 9 35 11
48 11 30 0z"/>
<path d="M1086 2077 c-39 -29 1 -106 42 -81 24 16 28 65 6 81 -10 7 -21 13
-24 13 -3 0 -14 -6 -24 -13z"/>
<path d="M767 1977 c-12 -8 -16 -19 -11 -30 8 -21 14 -21 40 -3 17 13 17 16 4
30 -13 14 -19 14 -33 3z"/>
<path d="M650 1896 c0 -3 4 -16 10 -30 6 -17 14 -24 25 -20 21 9 19 19 -10 38
-14 9 -25 14 -25 12z"/>
<path d="M1917 2017 c4 -29 1 -34 -29 -49 -29 -15 -30 -17 -10 -17 38 -1 62
-20 62 -46 0 -33 16 -32 24 1 6 24 10 26 48 21 l40 -5 -27 28 c-26 27 -26 30
-11 51 24 35 20 41 -15 23 -29 -15 -32 -14 -53 5 -30 29 -36 26 -29 -12z m74
-12 c19 6 19 5 7 -15 -10 -18 -10 -24 0 -27 19 -7 14 -23 -8 -23 -11 0 -23 -7
-27 -17 -5 -14 -8 -13 -14 5 -5 12 -15 22 -24 22 -19 0 -20 16 -1 23 9 4 12
14 9 28 -5 19 -4 20 16 10 12 -7 31 -9 42 -6z"/>
<path d="M1668 1923 c-26 -31 -39 -61 -28 -68 5 -3 10 0 10 7 0 16 39 68 40
53 0 -6 -7 -22 -16 -35 -12 -19 -10 -18 9 4 14 16 23 35 20 43 -7 18 -17 16
-35 -4z"/>
<path d="M1753 1863 c-26 -5 -30 -18 -8 -27 9 -3 19 3 25 14 6 11 9 19 8 19
-2 -1 -13 -4 -25 -6z"/>
<path d="M1823 1803 c4 -6 -3 -14 -16 -17 -21 -7 -21 -7 -2 -15 11 -5 27 -6
34 -3 11 4 11 7 3 10 -7 2 -10 8 -7 12 3 5 0 12 -6 16 -7 4 -9 3 -6 -3z"/>
<path d="M1770 1759 c0 -19 63 -79 83 -79 18 0 47 26 47 42 0 6 -9 3 -19 -6
-26 -23 -53 -17 -62 14 -4 14 -7 21 -8 16 -1 -5 -10 -1 -21 9 -15 14 -20 15
-20 4z"/>
<path d="M1837 1753 c-12 -12 -7 -21 11 -19 10 0 16 -5 14 -14 -3 -12 -1 -12
9 -3 10 10 9 15 -1 28 -14 16 -23 19 -33 8z"/>
<path d="M2177 1689 c-4 -15 -2 -19 8 -15 8 3 17 -3 20 -13 4 -13 12 -17 25
-14 16 4 19 2 14 -11 -3 -9 -10 -16 -15 -16 -5 0 -5 -10 0 -22 5 -13 9 -27 9
-33 1 -10 22 -21 22 -11 0 3 -5 17 -12 31 -10 22 -8 29 12 50 l23 25 -36 0
c-31 0 -38 4 -43 25 -8 30 -20 32 -27 4z"/>
<path d="M2143 1653 c-18 -2 -33 -8 -33 -14 0 -5 4 -9 8 -9 5 0 16 -6 25 -12
14 -11 15 -19 8 -45 -11 -38 -2 -42 24 -13 12 14 25 18 39 14 17 -5 19 -4 9 7
-10 9 -18 10 -37 1 -21 -9 -23 -8 -19 9 4 12 -2 25 -13 34 -18 14 -18 14 4 15
12 0 22 5 22 10 0 6 -1 9 -2 8 -2 0 -18 -3 -35 -5z"/>
<path d="M1410 1600 c0 -5 5 -10 11 -10 5 0 7 5 4 10 -3 6 -8 10 -11 10 -2 0
-4 -4 -4 -10z"/>
<path d="M2351 1344 c0 -11 3 -14 6 -6 3 7 2 16 -1 19 -3 4 -6 -2 -5 -13z"/>
<path d="M2370 1323 c0 -21 3 -24 9 -14 5 8 7 20 4 28 -8 21 -13 15 -13 -14z"/>
<path d="M2091 1294 c0 -11 3 -14 6 -6 3 7 2 16 -1 19 -3 4 -6 -2 -5 -13z"/>
<path d="M2288 1280 c-15 -27 -19 -28 -49 -20 -18 5 -34 8 -36 6 -2 -2 4 -17
14 -34 17 -29 17 -31 0 -50 -9 -10 -17 -22 -17 -26 0 -4 -7 -14 -15 -22 -8 -9
-15 -28 -15 -43 0 -50 -47 -216 -83 -294 -74 -160 -218 -327 -355 -411 -34
-21 -59 -43 -55 -49 3 -5 1 -7 -5 -4 -15 10 -43 -3 -35 -16 3 -5 1 -7 -5 -4
-15 10 -43 -3 -35 -16 3 -5 2 -7 -4 -4 -6 4 -34 -2 -63 -12 -30 -11 -47 -21
-41 -26 7 -4 18 -1 26 5 8 7 20 10 27 7 8 -3 5 -6 -6 -6 -15 -1 -16 -4 -7 -15
9 -11 9 -16 0 -22 -7 -4 -9 -3 -5 4 3 6 2 13 -4 17 -5 3 -10 0 -10 -8 0 -7
-12 -19 -26 -25 -15 -7 -22 -17 -18 -24 4 -7 3 -8 -5 -4 -6 4 -18 0 -27 -8 -8
-9 -11 -16 -5 -16 6 0 11 -9 11 -21 0 -12 -4 -17 -11 -14 -12 8 -61 -34 -53
-46 3 -5 -5 -9 -18 -10 -18 -1 -16 -3 10 -10 17 -5 32 -12 32 -15 0 -3 -8 -3
-19 1 -10 3 -29 1 -42 -4 l-24 -10 25 -1 c14 -1 34 -6 45 -11 14 -6 6 -8 -30
-4 -35 3 -44 2 -30 -4 11 -6 254 -10 548 -10 l527 -1 -2 647 c-1 357 -5 630
-8 608 l-7 -40 -2 40 c-1 30 -4 36 -11 25 -9 -13 -14 -7 -11 13 0 4 -3 7 -9 7
-14 0 -12 -16 4 -33 13 -12 12 -16 -10 -25 -13 -7 -24 -8 -24 -3 0 5 6 12 13
14 10 4 10 6 0 6 -7 1 -13 12 -13 26 0 33 -11 31 -32 -5z m37 -60 c23 0 18
-17 -6 -23 -15 -4 -20 -11 -16 -21 7 -18 -8 -22 -19 -5 -3 6 -15 8 -26 6 -16
-5 -19 -2 -15 15 4 12 2 29 -3 38 -8 14 -5 16 14 13 13 -3 27 1 31 8 6 9 11 6
16 -9 5 -12 15 -22 24 -22z m-68 -67 c-11 -3 -16 -11 -13 -19 4 -10 0 -14 -11
-12 -11 2 -19 -7 -25 -29 -5 -18 -13 -33 -18 -33 -6 0 -10 15 -9 33 1 30 1 31
9 7 l8 -25 1 27 c1 28 34 59 61 57 10 -1 10 -3 -3 -6z m130 -155 c-3 -7 -5 -2
-5 12 0 14 2 19 5 13 2 -7 2 -19 0 -25z m-20 -100 c-3 -8 -6 -5 -6 6 -1 11 2
17 5 13 3 -3 4 -12 1 -19z m-143 -66 c15 9 17 7 12 -10 -4 -11 -2 -23 4 -27
17 -10 11 -25 -10 -25 -11 0 -20 -7 -20 -15 0 -8 -4 -15 -10 -15 -5 0 -10 6
-10 14 0 7 -10 17 -22 20 -20 5 -21 8 -8 19 9 7 14 23 12 37 -4 24 -3 24 14 8
15 -13 24 -14 38 -6z m106 -49 c-11 -17 -11 -17 -6 0 3 10 6 24 7 30 0 9 2 9
5 0 3 -7 0 -20 -6 -30z m-39 -92 c-57 -115 -154 -252 -241 -342 -38 -39 -141
-124 -175 -143 l-30 -18 28 22 c15 12 27 27 27 34 0 7 9 21 20 31 11 10 17 22
14 26 -3 5 3 6 12 2 13 -5 16 -2 12 8 -4 9 2 20 13 27 10 7 19 19 19 26 0 10
8 13 25 10 23 -4 24 -2 18 27 -4 23 -3 30 5 25 7 -4 12 -2 12 5 0 6 8 19 18
28 10 9 40 45 66 81 27 36 51 65 55 65 3 0 5 3 4 6 -1 4 25 35 57 69 33 35 60
68 60 73 0 6 3 8 6 5 3 -4 -8 -33 -25 -67z m-315 -215 c3 -8 13 -12 26 -8 18
4 19 2 9 -16 -6 -11 -8 -28 -4 -37 5 -14 2 -16 -15 -11 -11 4 -23 2 -27 -4
-10 -17 -25 -11 -25 9 0 11 -4 23 -10 26 -15 9 -12 25 5 25 8 0 15 7 15 15 0
19 19 20 26 1z m-336 -235 c0 -12 9 -23 23 -27 l22 -7 -23 -10 c-16 -7 -22
-17 -19 -29 6 -22 -6 -23 -23 -3 -9 11 -16 13 -24 5 -18 -18 -27 -11 -15 11 8
15 8 24 0 32 -17 17 -13 26 9 20 12 -3 22 1 26 11 9 22 24 20 24 -3z m-143
-207 c-3 -3 -12 -4 -19 -1 -8 3 -5 6 6 6 11 1 17 -2 13 -5z m-44 -11 c-7 -2
-19 -2 -25 0 -7 3 -2 5 12 5 14 0 19 -2 13 -5z"/>
<path d="M2215 629 c-4 -6 -5 -12 -2 -15 2 -3 7 2 10 11 7 17 1 20 -8 4z"/>
<path d="M658 662 c-3 -11 0 -19 7 -19 7 0 10 8 7 19 -2 10 -6 18 -7 18 -1 0
-5 -8 -7 -18z"/>
<path d="M525 480 c3 -5 8 -10 11 -10 2 0 4 5 4 10 0 6 -5 10 -11 10 -5 0 -7
-4 -4 -10z"/>
<path d="M760 265 c0 -20 3 -26 9 -17 7 11 9 11 14 -2 4 -9 14 -15 24 -15 17
1 17 2 1 6 -10 2 -18 8 -18 12 0 4 -7 16 -15 27 -14 18 -14 18 -15 -11z"/>
<path d="M1450 256 c0 -2 7 -7 16 -10 8 -3 12 -2 9 4 -6 10 -25 14 -25 6z"/>
<path d="M822 223 c-8 -18 -9 -30 -2 -37 16 -16 11 -28 -7 -17 -13 7 -23 5
-35 -6 -17 -15 -18 -14 -18 6 0 12 -7 24 -15 27 -14 6 -13 8 2 21 17 14 17 14
0 9 -10 -3 -25 -6 -33 -6 -24 0 -16 -19 11 -26 21 -5 25 -12 25 -41 l0 -36 21
27 c19 25 22 25 49 11 41 -21 44 -19 20 16 l-22 30 23 25 c16 17 18 24 8 24
-8 0 -20 -12 -27 -27z"/>
<path d="M1146 172 c4 -15 8 -29 11 -31 2 -3 -8 -16 -22 -31 l-25 -26 31 2
c27 2 33 -3 46 -34 l16 -37 12 35 c10 30 16 35 43 35 44 0 48 10 13 31 -34 20
-35 22 -21 58 11 31 0 34 -25 6 -10 -12 -25 -18 -32 -15 -8 2 -11 0 -8 -6 4
-5 15 -7 26 -4 15 5 19 1 19 -14 0 -12 5 -21 10 -21 6 0 10 -4 10 -10 0 -5 -9
-10 -20 -10 -14 0 -20 -7 -21 -22 l0 -23 -16 23 c-8 12 -22 22 -30 22 -11 0
-13 4 -6 13 15 18 12 75 -4 81 -10 4 -12 -1 -7 -22z"/>
<path d="M1208 3 c7 -3 16 -2 19 1 4 3 -2 6 -13 5 -11 0 -14 -3 -6 -6z"/>
</g>
</svg>
