<svg id="Слой_1" data-name="Слой 1" xmlns="http://www.w3.org/2000/svg" viewBox="0 0 430.7 430.7"><defs><style>.cls-1{fill:#6cc2cf;}.cls-2{fill:#2cb430;}</style></defs><title>gex</title><polygon class="cls-1" points="76.48 66.33 172.89 203.51 210.35 150.62 149.2 66.33 76.48 66.33"/><polygon class="cls-1" points="356.34 360.34 261.75 225.75 218.91 271.15 283.62 360.34 356.34 360.34"/><path class="cls-2" d="M281.16,65.45c1.66-1.1,72.17,0,72.17,0L271.8,170.67l-51.23,14.88H287l-194,192,92.36-139.69H162.17Z" transform="translate(-0.3 0.88)"/><path class="cls-1" d="M215.65,429.82A215.35,215.35,0,0,1,63.37,62.2,215.35,215.35,0,0,1,367.93,366.75,214,214,0,0,1,215.65,429.82Zm0-419.7C103,10.12,11.3,101.79,11.3,214.47S103,418.82,215.65,418.82,420,327.15,420,214.47,328.33,10.12,215.65,10.12Z" transform="translate(-0.3 0.88)"/></svg>