<svg id="Слой_1" data-name="Слой 1" xmlns="http://www.w3.org/2000/svg" viewBox="0 0 394.17 394.17"><defs><style>.cls-1{fill:#edd371;}.cls-2{fill:#be7a1c;}.cls-3{fill:#eee7bf;}.cls-4{fill:#874f1a;}.cls-5{fill:#f7e357;}</style></defs><title>gigc</title><circle class="cls-1" cx="197.08" cy="197.08" r="185.08"/><path class="cls-2" d="M201.08,397.08C92.4,397.08,4,308.67,4,200S92.4,2.92,201.08,2.92,398.16,91.33,398.16,200,309.75,397.08,201.08,397.08Zm0-370.16C105.64,26.92,28,104.56,28,200s77.65,173.08,173.09,173.08S374.16,295.44,374.16,200,296.52,26.92,201.08,26.92Z" transform="translate(-3.99 -2.92)"/><circle class="cls-3" cx="197.08" cy="197.08" r="151.5"/><path class="cls-4" d="M201.08,355c-85.47,0-155-69.53-155-155s69.53-155,155-155,155,69.53,155,155S286.54,355,201.08,355Zm0-303c-81.61,0-148,66.39-148,148s66.39,148,148,148,148-66.39,148-148S282.68,52,201.08,52Z" transform="translate(-3.99 -2.92)"/><path class="cls-5" d="M318.15,153.73V172.9H254.46v51.32h42.67V200H269.3V184s48.85-1.24,48.85.62V240.3H247.26A16.29,16.29,0,0,1,231,224V170.17a16.44,16.44,0,0,1,16.44-16.44Z" transform="translate(-3.99 -2.92)"/><path class="cls-2" d="M319.15,241.3H247.26A17.31,17.31,0,0,1,230,224V170.17a17.46,17.46,0,0,1,17.44-17.44h71.74V173.9H255.46v49.32h40.67V201H268.3V183.05l1,0c17.73-.45,47.73-.94,49.52.8a1.12,1.12,0,0,1,.35.82Zm-71.74-86.57A15.46,15.46,0,0,0,232,170.17V224a15.31,15.31,0,0,0,15.29,15.29h69.89V185.24c-4-.91-30-.65-46.85-.24v14h27.83v26.22H253.46V171.9h63.69V154.73Z" transform="translate(-3.99 -2.92)"/><path class="cls-5" d="M167.9,153.73V172.9H104.21v51.32h42.66V200H119.05V184s48.85-1.24,48.85.62V240.3H97A16.3,16.3,0,0,1,80.71,224V170.17a16.44,16.44,0,0,1,16.45-16.44Z" transform="translate(-3.99 -2.92)"/><path class="cls-2" d="M168.9,241.3H97A17.31,17.31,0,0,1,79.71,224V170.17a17.47,17.47,0,0,1,17.45-17.44H168.9V173.9H105.21v49.32h40.66V201H118.05V183.05l1,0c17.73-.45,47.74-.94,49.52.8a1.13,1.13,0,0,1,.36.82ZM97.16,154.73a15.46,15.46,0,0,0-15.45,15.44V224A15.31,15.31,0,0,0,97,239.3h69.9V185.24c-4-.91-30-.65-46.85-.24v14h27.82v26.22H103.21V171.9H166.9V154.73Z" transform="translate(-3.99 -2.92)"/><path class="cls-5" d="M190.39,153.73c-.61,1.86,0,86.57,0,86.57H212V153.73Z" transform="translate(-3.99 -2.92)"/><path class="cls-2" d="M213,241.3H189.4v-1c-.14-19.91-.57-85,.05-86.89l.23-.68H213Zm-21.65-2H211V154.73H191.3C191,161.47,191.16,207.63,191.39,239.3Z" transform="translate(-3.99 -2.92)"/></svg>