<svg id="Слой_1" data-name="Слой 1" xmlns="http://www.w3.org/2000/svg" viewBox="0 0 167.74 76.68"><title>gnt</title><path d="M14.2,39A14.2,14.2,0,1,1,28.39,24.84,14.21,14.21,0,0,1,14.2,39Zm0-26.39a12.2,12.2,0,1,0,12.19,12.2A12.21,12.21,0,0,0,14.2,12.64Z"/><path d="M14.2,76.68a14.2,14.2,0,1,1,14.19-14.2A14.22,14.22,0,0,1,14.2,76.68Zm0-26.39A12.2,12.2,0,1,0,26.39,62.48,12.21,12.21,0,0,0,14.2,50.29Z"/><path d="M52.76,39.74A14.2,14.2,0,1,1,67,25.55,14.21,14.21,0,0,1,52.76,39.74Zm0-26.39A12.2,12.2,0,1,0,65,25.55,12.21,12.21,0,0,0,52.76,13.35Z"/><rect x="13.2" y="38.03" width="2" height="11.25"/><rect x="22.11" y="10.71" width="11.55" height="2" transform="translate(-0.12 23.13) rotate(-44.96)"/><rect x="80.37" width="2" height="38.03"/><path d="M107.24,39.11a15,15,0,0,1-1.66-.08L105.4,39C92.94,34.84,95,23.88,95.28,22.73c.11-1.17,1.51-12.47,13.91-12.09,12.94.4,13.86,14,13.87,14.14l.06,1.1-1.1,0c-10.75-.38-22.82-.56-25.07-.16,0,3.24,1.21,8.75,9,11.37.77.07,6.37.47,10.4-2.94l1.29,1.53A16.31,16.31,0,0,1,107.24,39.11Zm-2.87-15.66c5.14,0,11.59.18,16.56.35-.47-3-2.6-10.87-11.8-11.16-11-.36-11.84,9.88-11.86,10.31l0,.19c0,.05-.06.24-.11.54C98.66,23.51,101.28,23.45,104.37,23.45Z"/><polygon points="167.74 38.11 165.74 38.11 165.74 13.35 137.23 13.35 137.23 38.03 135.23 38.03 135.23 11.35 167.74 11.35 167.74 38.11"/><rect x="150.48" y="12.35" width="2" height="25.68"/></svg>