<svg id="Слой_1" data-name="Слой 1" xmlns="http://www.w3.org/2000/svg" viewBox="0 0 100.13 114.99"><defs><style>.cls-1{fill:#f2ce60;}.cls-2{fill:#989b92;}.cls-3{fill:#212c30;}.cls-4{fill:#ddbd5a;}</style></defs><title>gol</title><path class="cls-1" d="M96.16,46.19H4.68L50.17,0Zm-86.7-2H91.35L50.18,2.84Z"/><path class="cls-1" d="M50.17,115,4.68,68.81H96.16ZM9.46,70.81l40.72,41.34L91.35,70.81Z"/><path class="cls-2" d="M50.41,107.21,0,56.79,49.72,7.08l50.41,50.41ZM2.83,56.79l47.58,47.59L97.3,57.49,49.72,9.91Z"/><rect class="cls-3" x="19.56" y="26.29" width="61.7" height="61.7" transform="translate(55.17 -18.91) rotate(45)"/><path class="cls-2" d="M50.11,95.59l-39-39,39-39,39,39Zm-36.2-39,36.2,36.2,36.2-36.2L50.11,20.35Z"/><path class="cls-4" d="M59.27,47.57v-.79A5.77,5.77,0,0,0,53.5,41H41.15a6.43,6.43,0,0,0-6.43,6.43V65.17A6.83,6.83,0,0,0,41.55,72H59.39a6.43,6.43,0,0,0,6.44-6.43h0l-24.44-.12v-18Z"/><path class="cls-4" d="M65.83,57.49v6.76h-17v-.54A6.22,6.22,0,0,1,55,57.49Z"/></svg>