<svg id="Слой_1" data-name="Слой 1" xmlns="http://www.w3.org/2000/svg" xmlns:xlink="http://www.w3.org/1999/xlink" viewBox="0 0 296.28 296.28"><defs><style>.cls-1{fill:#112442;}.cls-2{fill:url(#Безымянный_градиент_5);}.cls-3{fill:url(#Безымянный_градиент_5-2);}.cls-4{fill:url(#Безымянный_градиент_5-3);}.cls-5{fill:url(#Безымянный_градиент_5-4);}.cls-6{fill:url(#Безымянный_градиент_5-5);}.cls-7{fill:url(#Безымянный_градиент_5-6);}.cls-8{fill:url(#Безымянный_градиент_5-7);}.cls-9{fill:url(#Безымянный_градиент_5-8);}.cls-10{fill:url(#Безымянный_градиент_5-9);}.cls-11{fill:url(#Безымянный_градиент_5-10);}.cls-12{fill:#38fff6;}.cls-13{fill:#2675d2;}.cls-14{fill:#1a32b6;}</style><linearGradient id="Безымянный_градиент_5" x1="111.3" y1="44.56" x2="31.73" y2="171.9" gradientUnits="userSpaceOnUse"><stop offset="0" stop-color="#40f2fc"/><stop offset="1" stop-color="#1c2cbf"/></linearGradient><linearGradient id="Безымянный_градиент_5-2" x1="213.4" y1="60.55" x2="200.22" y2="81.65" xlink:href="#Безымянный_градиент_5"/><linearGradient id="Безымянный_градиент_5-3" x1="84.07" y1="221.69" x2="77.09" y2="232.87" xlink:href="#Безымянный_градиент_5"/><linearGradient id="Безымянный_градиент_5-4" x1="259.17" y1="149.81" x2="174.71" y2="284.98" xlink:href="#Безымянный_градиент_5"/><linearGradient id="Безымянный_градиент_5-5" x1="252.21" y1="171.58" x2="211.41" y2="236.88" xlink:href="#Безымянный_градиент_5"/><linearGradient id="Безымянный_градиент_5-6" x1="189.41" y1="140.85" x2="135.09" y2="227.78" xlink:href="#Безымянный_градиент_5"/><linearGradient id="Безымянный_градиент_5-7" x1="127.39" y1="139.56" x2="80.43" y2="214.71" xlink:href="#Безымянный_градиент_5"/><linearGradient id="Безымянный_градиент_5-8" x1="186.33" y1="61.09" x2="107.12" y2="187.85" xlink:href="#Безымянный_градиент_5"/><linearGradient id="Безымянный_градиент_5-9" x1="181.59" y1="98.31" x2="118.36" y2="199.5" xlink:href="#Безымянный_градиент_5"/><linearGradient id="Безымянный_градиент_5-10" x1="203.18" y1="124.72" x2="168.97" y2="179.47" xlink:href="#Безымянный_градиент_5"/></defs><title>gos</title><rect class="cls-1" width="296.28" height="296.28"/><path class="cls-2" d="M47.08,181.49A123.09,123.09,0,0,1,43.84,129C48,102.68,63.56,67,114.27,46.41l1.5,3.71c-39.26,16-62.12,42.64-67.95,79.31a121.3,121.3,0,0,0,3.06,50.82Z"/><path class="cls-3" d="M248.91,112.08c-32.43-67.87-91.36-68.52-92.58-68.52h0l0-4c.64,0,15.88,0,35.46,8.69,18,8,43.19,25.3,60.78,62.1Z"/><path class="cls-4" d="M101.33,247.2c-21.9-9.39-42.26-36.13-43.11-37.27l3.19-2.41c.2.27,20.58,27,41.5,36Z"/><path class="cls-5" d="M252.72,258.82l-51.21-2.26V246.24c-29.58,16.17-68,12.13-69.68,11.94l.44-4c.41,0,41.47,4.35,70.2-13.14l3-1.85v13.52l43.21,1.9V145.78h4Z"/><polygon class="cls-6" points="235.69 241.17 218.28 241.17 218.28 210.71 207.29 222.48 204.37 219.75 222.28 200.56 222.28 237.17 231.69 237.17 231.69 161.26 235.69 161.26 235.69 241.17"/><path class="cls-7" d="M150.44,223.63A74.94,74.94,0,0,1,116,215.54c-11.39-5.85-17.21-12.71-17.46-13l3.07-2.57c.22.26,22.54,26.07,64.66,18.14,36.47-6.86,48.41-43.1,51-52.78H200.15v-4h22l-.46,2.37c-.09.5-10.06,49.94-54.73,58.35A89.43,89.43,0,0,1,150.44,223.63Z"/><path class="cls-8" d="M144.39,241.17c-.56,0-13.85-.35-30.2-7a88.68,88.68,0,0,1-47.94-45.76c-.21-.47-19.77-45.27,3.18-84.91l3.46,2c-21.93,37.89-3.19,80.82-3,81.25,22.41,48.79,74.06,50.4,74.58,50.41Z"/><path class="cls-9" d="M77.79,169.52c-1-3.73-3.83-21.57.66-40.64,4.24-18,16.25-41.62,49.41-51.57,32.87-9.86,55.51,2.08,68.72,13.84A89.15,89.15,0,0,1,216.92,118h14.16c-2.87-9.69-16.16-45.52-57.17-54.87C126.32,52.26,90.34,81.5,90,81.8l-2.55-3.08c.37-.31,37.8-30.81,87.37-19.5a79,79,0,0,1,49.34,34.47,84.44,84.44,0,0,1,11.51,25.88l.51,2.42H214.31l-.52-1.22a85.11,85.11,0,0,0-20-26.73c-18.08-16-39.89-20.37-64.8-12.9-25.15,7.55-40.85,23.92-46.67,48.66-4.25,18.07-1.58,35.37-.69,38.68Z"/><path class="cls-10" d="M150.08,208.23c-.53,0-1.06,0-1.58,0A64.67,64.67,0,0,1,122.35,202l-.19-.11c-17.29-11.61-27.46-25.77-30.23-42.08-4.49-26.47,12-48.85,12.72-49.79l3.2,2.4c-.16.22-16.19,22-12,46.75,2.58,15.15,12.14,28.38,28.41,39.33a62.34,62.34,0,0,0,24.48,5.73c17.33.39,32.21-6.77,44.19-21.35H130.05v-55l70.43-1.52A64.81,64.81,0,0,0,187,107.66c-13.67-12.94-31-17-51.38-12l-.94-3.89c27.26-6.61,45.06,3.49,55.19,13.13a66.14,66.14,0,0,1,15.52,22.69l1,2.63-72.3,1.57v47.12h67l-2.37,3.19C182.78,203.5,163.77,208.23,150.08,208.23Z"/><polygon class="cls-11" points="170.74 165.32 146.34 165.32 146.34 143.78 233.69 143.78 233.69 147.78 150.34 147.78 150.34 161.32 170.74 161.32 170.74 165.32"/><circle class="cls-12" cx="112.94" cy="48.27" r="6.19"/><circle class="cls-12" cx="70.8" cy="105.65" r="6.19"/><circle class="cls-12" cx="106.75" cy="111.21" r="6.19"/><circle class="cls-12" cx="135.66" cy="94.79" r="6.19"/><circle class="cls-12" cx="155.84" cy="42.08" r="6.19"/><circle class="cls-12" cx="249.63" cy="145.78" r="6.19"/><circle class="cls-12" cx="249.63" cy="111.21" r="6.19"/><circle class="cls-12" cx="233.69" cy="145.78" r="6.19"/><circle class="cls-12" cx="233.69" cy="161.26" r="6.19"/><circle class="cls-13" cx="200.15" cy="162.33" r="6.19"/><circle class="cls-13" cx="171.26" cy="162.33" r="6.19"/><circle class="cls-13" cx="79.72" cy="169" r="6.19"/><circle class="cls-14" cx="100.56" cy="202.54" r="6.19"/><circle class="cls-14" cx="60.2" cy="208.73" r="6.19"/><circle class="cls-14" cx="100.56" cy="245.36" r="6.19"/><circle class="cls-14" cx="132.05" cy="255.75" r="6.19"/><circle class="cls-14" cx="144.43" cy="239.17" r="6.19"/><circle class="cls-14" cx="203.51" cy="221.65" r="6.19"/><circle class="cls-13" cx="47.51" cy="180.87" r="6.19"/></svg>