<svg id="Слой_1" data-name="Слой 1" xmlns="http://www.w3.org/2000/svg" viewBox="0 0 199 199"><defs><style>.cls-1{fill:#380d55;}.cls-2{fill:#773c8f;}.cls-3{fill:#fffefe;}</style></defs><title>gst</title><circle class="cls-1" cx="99.5" cy="99.5" r="99.5"/><circle class="cls-2" cx="99.5" cy="99.5" r="72.82"/><path class="cls-3" d="M129.72,77.9c.77-.26,11.08-8.76,11.08-8.76s-8.5-10.82-18-14.68V30.81L120.1,30A45,45,0,0,0,112,28.12l-2.88-.38V49.05a84.2,84.2,0,0,0-20.34.77V28l-3.36.54a37.29,37.29,0,0,0-6.48,1.64l-4.33,1.51V55.49s-13.65,5.41-22.67,25S54.24,124,54.24,124s4.9,11.85,20.35,20.61v23.65l3.74,1.53c2.1.86,4.25.92,6.46,1.45l4,.71V150s5.41,1.54,20.35.51l.48,21.66,3.23-.49a42.4,42.4,0,0,0,6.2-1.39l4.22-1.29L123,145.65s15.74-7.84,21.59-19.68c0,0,5.7-9.6,6.49-30.81l-40.7-.26s-.52,14.43.26,14.17,24.73-.26,24.73-.26.77,11.59-14.43,21.9S89,135.86,89,135.86s-18.81-6.44-24.47-23.7,4.12-33.23,4.12-33.23,10-16.23,29.88-16.23S129.72,77.9,129.72,77.9Z" transform="translate(-0.5 -0.5)"/></svg>