<svg id="Слой_1" data-name="Слой 1" xmlns="http://www.w3.org/2000/svg" viewBox="0 0 247.21 157.16"><defs><style>.cls-1{fill:#cd1b67;}</style></defs><title>gx</title><path class="cls-1" d="M247.21,51.82H209.83L176.7,90.9,143.57,51.82H51s-51,3-51,47.57c0,52.25,48.42,57.77,48.42,57.77h95.15l33.13-37,31.85,37h37l-45-52.25Zm-127,90.47V93.65H34.83C33.56,93,53.52,120.2,53.52,120.2l36.95.43-.42,8.92H48s-19.12-3.4-19.12-25.91S51.4,79.43,51.4,79.43h52.24l10.62-16.14s36.53,39.92,37.38,42.05S120.2,142.29,120.2,142.29Z"/><circle class="cls-1" cx="180.52" cy="31.86" r="7.65"/><circle class="cls-1" cx="180.63" cy="3.93" r="3.93"/><circle class="cls-1" cx="202.61" cy="18.26" r="5.95"/></svg>