<svg id="Слой_1" data-name="Слой 1" xmlns="http://www.w3.org/2000/svg" viewBox="0 0 181.42 45.21"><defs><style>.cls-1{fill:#0596e7;}</style></defs><title>hdr</title><path class="cls-1" d="M31.73,35H26.36V18.5h-21V35H0V0H5.35V14.35h21V0h5.37Z"/><path class="cls-1" d="M65.45,23.39H43.53a9.18,9.18,0,0,0,2.77,6.42A8.88,8.88,0,0,0,52.47,32a8.34,8.34,0,0,0,4.77-1.3,8.08,8.08,0,0,0,2.95-3.92l5.1.55a10.82,10.82,0,0,1-4.55,6.08,15,15,0,0,1-8.27,2.12q-6.6,0-10.3-3.49t-3.71-9.55a13.34,13.34,0,0,1,3.6-9.7q3.6-3.72,10.13-3.73a16.08,16.08,0,0,1,6.16,1.22,11.39,11.39,0,0,1,5,4.14Q65.45,17.37,65.45,23.39Zm-5.1-3.53c-.2-2.57-1.12-4.43-2.77-5.56a9.25,9.25,0,0,0-5.39-1.71,8.32,8.32,0,0,0-5.76,2,8,8,0,0,0-2.62,5.24Z"/><path class="cls-1" d="M95.09,35H90.46V31.74h-.11c-1.78,2.54-4.48,3.81-8.08,3.81a12,12,0,0,1-9-3.68,13.09,13.09,0,0,1-3.6-9.55q0-6.13,3.39-9.68a11.82,11.82,0,0,1,9-3.56c3.49,0,6.15,1.16,8,3.46h.11V0h5ZM82.79,32a7.44,7.44,0,0,0,5.52-2.31q2.26-2.31,2.26-7a12,12,0,0,0-2.07-7.37,7,7,0,0,0-5.93-2.74,6.78,6.78,0,0,0-5.83,2.68,11.66,11.66,0,0,0-2,7.05,12.09,12.09,0,0,0,1.06,5.33,7.43,7.43,0,0,0,3,3.28A7.89,7.89,0,0,0,82.79,32Z"/><path class="cls-1" d="M126.8,31.55c0,3.59-.42,6.27-1.24,8a8.61,8.61,0,0,1-4.41,4.14,17.81,17.81,0,0,1-7.59,1.48,16.37,16.37,0,0,1-8.27-1.91A6.65,6.65,0,0,1,102,37.06l4.83.64a3.93,3.93,0,0,0,1.94,3,9.28,9.28,0,0,0,4.76,1c2.57,0,4.46-.46,5.65-1.36A5.46,5.46,0,0,0,121.35,37a28,28,0,0,0,.4-5.39A10.87,10.87,0,0,1,113.62,35a12.06,12.06,0,0,1-9.17-3.65A12.83,12.83,0,0,1,101,22.1a13.27,13.27,0,0,1,3.37-9.29q3.36-3.72,9.31-3.73a10.85,10.85,0,0,1,8.44,3.61h.11v-3h4.58Zm-12.71-.1a8.23,8.23,0,0,0,5.62-2.18q2.46-2.18,2.46-7.31c0-3-.79-5.34-2.35-7A7.74,7.74,0,0,0,114,12.59a7.38,7.38,0,0,0-5.75,2.48,9.82,9.82,0,0,0-2.22,6.8q0,5,2.33,7.28A7.82,7.82,0,0,0,114.09,31.45Z"/><path class="cls-1" d="M159.66,23.39H137.74a9.18,9.18,0,0,0,2.77,6.42A8.88,8.88,0,0,0,146.68,32a8.34,8.34,0,0,0,4.77-1.3,8.08,8.08,0,0,0,3-3.92l5.1.55A10.82,10.82,0,0,1,155,33.43a15,15,0,0,1-8.27,2.12q-6.6,0-10.3-3.49t-3.71-9.55a13.34,13.34,0,0,1,3.6-9.7q3.6-3.72,10.13-3.73a16.08,16.08,0,0,1,6.16,1.22,11.39,11.39,0,0,1,5,4.14Q159.66,17.37,159.66,23.39Zm-5.1-3.53c-.2-2.57-1.12-4.43-2.77-5.56a9.25,9.25,0,0,0-5.39-1.71,8.32,8.32,0,0,0-5.76,2A8,8,0,0,0,138,19.86Z"/><path class="cls-1" d="M181.42,10.44l-1.71,4a8,8,0,0,0-3.62-.93,4.73,4.73,0,0,0-4.21,2.16,10.82,10.82,0,0,0-1.44,6V35h-5V9.66H170v3.81h.11c1.58-2.92,3.65-4.39,6.21-4.39A10.89,10.89,0,0,1,181.42,10.44Z"/></svg>