<svg id="Слой_1" data-name="Слой 1" xmlns="http://www.w3.org/2000/svg" viewBox="0 0 296.28 296.28"><defs><style>.cls-1{fill:#1d46d4;}</style></defs><title>hive</title><polygon class="cls-1" points="113.34 141.47 104.34 132.46 95.77 141.03 104.58 149.85 95.73 158.71 104.49 167.47 113.34 158.61 122.59 167.86 113.59 176.86 122.4 185.68 131.47 176.62 140.71 185.87 131.8 194.78 140.81 203.78 149.96 194.63 158.95 203.62 167.78 194.78 158.87 185.87 168.12 176.62 177.18 185.68 186 176.86 177 167.86 186.24 158.61 195.1 167.47 203.86 158.71 195 149.85 203.82 141.03 195.25 132.46 186.24 141.47 177 132.22 186.24 122.97 177.18 113.91 168.12 122.97 158.87 113.72 168.12 104.47 159.04 95.39 149.96 104.47 140.71 95.22 131.47 104.47 140.71 113.72 131.47 122.97 122.4 113.91 113.34 122.97 122.59 132.22 113.34 141.47"/><path class="cls-1" d="M0,.14V296.42H296.28V.14Zm222,159.1-8.85-8.86-8.47,8.47,8.86,8.85L204.25,177l-8.85-8.86L186.49,177l9,9-9.25,9.24-9.06-9.06-8.91,8.91,8.92,8.91-9.25,9.25-9-9-8.9,8.9,9.16,9.16L150,231.58l-9.25-9.25,9.16-9.16-9.07-9.07-9.15,9.16L122.4,204l8.91-8.91-8.91-8.91-9.06,9.06L104.09,186l9-9-8.91-8.91L95.33,177l-9.24-9.25,8.85-8.85-8.46-8.47-8.86,8.86L68.37,150l9.25-9.25,8.86,8.86,8.42-8.43-8.81-8.81,9.24-9.25,9,9,9-9-9.25-9.25,9.25-9.25,9.06,9.06,9.07-9.06-9.25-9.25,9.25-9.25,9.24,9.25,9.07-9.06-9.07-9.06L150,68l9.25,9.25-9.06,9.06L159,95.19l9.08-9.08,9.25,9.25-9.25,9.25,9.06,9.06,9.06-9.06,9.25,9.25-9.25,9.25,9,9,9-9,9.25,9.25-8.82,8.81,8.43,8.43,8.85-8.86,9.25,9.25Z" transform="translate(0 -0.14)"/></svg>