<svg id="Слой_1" data-name="Слой 1" xmlns="http://www.w3.org/2000/svg" viewBox="0 0 196.09 92.24"><defs><style>.cls-1{fill:#063b7b;}</style></defs><title>hlc</title><path class="cls-1" d="M197.72,119.16c-4.48,10.75-16,27.3-41.45,27.3a46.12,46.12,0,0,1-1.36-92.23h1.36c25.41-.22,37.34,18.06,42.21,29.36l-2.8.59c-6.4-16-19.92-20.41-36.74-20.41-17.71,0-34.79,18.87-34.79,36.58s16.92,36.49,34.62,36.74c17,.24,23.77-2.17,35.28-18Z" transform="translate(-2.39 -54.23)"/><path class="cls-1" d="M80.17,54.23v78.88a7.62,7.62,0,0,0,7.62,7.62h25.66l-.64,5.73H60.16v-42.7l-38.24-.32v23.5A19.52,19.52,0,0,1,2.4,146.46h0V73.75A19.54,19.54,0,0,1,21.92,54.23h0L21.6,95.28l38.72.16.17-21.69A19.68,19.68,0,0,1,80.17,54.23Z" transform="translate(-2.39 -54.23)"/></svg>