<svg id="Слой_1" data-name="Слой 1" xmlns="http://www.w3.org/2000/svg" viewBox="0 0 132.69 102.07"><defs><style>.cls-1{fill:#5c4c93;}</style></defs><title>hsr</title><path class="cls-1" d="M374.34,146.1c-1.88-2.8-11-18-11-18H346.68v13.44h5.52c1.14,1.89,2.7,4.47,4.25,7h0v4.8h22.93v-3.18a9.43,9.43,0,0,1-5-4.07Z" transform="translate(-246.69 -111.1)"/><path class="cls-1" d="M327.46,182.76H303.58V169.88h23.88v12.88Zm29-11.83v4.81h0c-1.55,2.54-3.11,5.13-4.25,7h-8.62l-.14-54.68V122c0-3.42,1.19-6.81,5.08-7.43V111.1H322.26v3.45c3.89.62,5.08,4,5.08,7.43v6.1H303.58V122c0-3.42,1.19-6.81,5.08-7.43V111.1H282.39v3.45c3.9.61,5.09,4,5.09,7.43v6.1h-19.9s-12.74,20.75-20.89,34c8.15,13.3,20.89,34.06,20.89,34.06h16.67V182.76h-5.53c-2.09-3.44-8.76-14.47-12.47-20.62C270,156,276.63,145,278.72,141.52h48.74v14.7H303.58V144.79h-16.1V202.3c0,3.43-1.19,6.81-5.09,7.43v3.45h26.27v-3.45c-3.89-.62-5.08-4-5.08-7.43v-6.1h59.76s9.12-15.22,11-18a9.43,9.43,0,0,1,5-4.07v-3.18Z" transform="translate(-246.69 -111.1)"/><path class="cls-1" d="M343.58,202.3v-2.84H327.46v2.84c0,3.43-1.19,6.81-5.06,7.43v3.45h26.25v-3.45c-3.9-.62-5.07-4-5.07-7.43Z" transform="translate(-246.69 -111.1)"/></svg>