<svg id="Слой_1" data-name="Слой 1" xmlns="http://www.w3.org/2000/svg" viewBox="0 0 200 200"><defs><style>.cls-1{fill:#252527;}.cls-2{fill:#fff;}.cls-3{fill:#555fff;}</style></defs><title>hst</title><rect class="cls-1" width="200" height="200"/><path class="cls-2" d="M100,92.69V70.84a4.4,4.4,0,0,0-4.33-4.46h-56a4.4,4.4,0,0,0-4.33,4.46v57.78A4.71,4.71,0,0,0,40,133.4H95.58a4.48,4.48,0,0,0,4.42-4.55V106.71H61.25L73,92.69Z"/><path class="cls-3" d="M133.7,66.19a33.71,33.71,0,0,0-32.92,26.5h32.8a7,7,0,0,1,0,14H100.69a33.71,33.71,0,1,0,33-40.52Z"/></svg>