<svg width="15" height="12" viewBox="0 0 15 12" fill="none" xmlns="http://www.w3.org/2000/svg">
<path d="M3.91992 5.87695H2.51953V9H0.761719V0.46875H3.93164C4.93945 0.46875 5.7168 0.693359 6.26367 1.14258C6.81055 1.5918 7.08398 2.22656 7.08398 3.04688C7.08398 3.62891 6.95703 4.11523 6.70312 4.50586C6.45312 4.89258 6.07227 5.20117 5.56055 5.43164L7.40625 8.91797V9H5.51953L3.91992 5.87695ZM2.51953 4.45312H3.9375C4.37891 4.45312 4.7207 4.3418 4.96289 4.11914C5.20508 3.89258 5.32617 3.58203 5.32617 3.1875C5.32617 2.78516 5.21094 2.46875 4.98047 2.23828C4.75391 2.00781 4.4043 1.89258 3.93164 1.89258H2.51953V4.45312Z" fill="#fff"/>
<path d="M14.0215 5.88867C14.0215 6.86523 13.7988 7.64844 13.3535 8.23828C12.9121 8.82422 12.3145 9.11719 11.5605 9.11719C10.9199 9.11719 10.4023 8.89453 10.0078 8.44922V11.4375H8.31445V2.66016H9.88477L9.94336 3.28125C10.3535 2.78906 10.8887 2.54297 11.5488 2.54297C12.3301 2.54297 12.9375 2.83203 13.3711 3.41016C13.8047 3.98828 14.0215 4.78516 14.0215 5.80078V5.88867ZM12.3281 5.76562C12.3281 5.17578 12.2227 4.7207 12.0117 4.40039C11.8047 4.08008 11.502 3.91992 11.1035 3.91992C10.5723 3.91992 10.207 4.12305 10.0078 4.5293V7.125C10.2148 7.54297 10.584 7.75195 11.1152 7.75195C11.9238 7.75195 12.3281 7.08984 12.3281 5.76562Z" fill="#fff"/>
</svg>
