<svg width="14.999999999999998" height="12" xmlns="http://www.w3.org/2000/svg">
 <g>
  <g stroke="null" id="svg_3">
   <path stroke="null" id="svg_1" fill="#fff" d="m3.571686,5.897052l-1.572704,0l0,3.377802l-1.974105,0l0,-9.227157l3.559971,0c1.131818,0 2.004819,0.242931 2.61898,0.728795c0.614172,0.485864 0.921247,1.172402 0.921247,2.059637c0,0.629507 -0.142571,1.155497 -0.427724,1.577991c-0.280762,0.418265 -0.708474,0.752027 -1.28316,1.001297l2.072808,3.770715l0,0.088721l-2.118876,0l-1.796438,-3.377802l0.000001,0.000001zm-1.572704,-1.539974l1.592447,0c0.495724,0 0.879571,-0.120401 1.151561,-0.361223c0.271991,-0.245041 0.407981,-0.580923 0.407981,-1.007635c0,-0.435159 -0.129409,-0.777379 -0.388237,-1.026649c-0.254438,-0.24927 -0.647066,-0.373899 -1.177886,-0.373899l-1.585866,0l0,2.769407l0,-0.000001z"/>
   <path stroke="null" id="svg_2" fill="#fff" d="m14.916237,5.909728c0,1.056219 -0.250103,1.903317 -0.750196,2.541271c-0.495713,0.633736 -1.166846,0.950604 -2.013624,0.950604c-0.719424,0 -1.300713,-0.240823 -1.743755,-0.722457l0,3.232038l-1.901712,0l0,-9.49332l1.763544,0l0.065799,0.671753c0.460607,-0.532339 1.061661,-0.798503 1.802985,-0.798503c0.877437,0 1.559576,0.312639 2.046529,0.937928c0.486953,0.625278 0.73043,1.487161 0.73043,2.585626l0,0.095059l0,0.000001zm-1.901768,-0.133087c0,-0.637954 -0.118369,-1.130156 -0.355332,-1.476594c-0.232471,-0.346438 -0.572417,-0.519663 -1.019951,-0.519663c-0.596563,0 -1.006812,0.2197 -1.230523,0.659088l0,2.807435c0.232471,0.452064 0.6471,0.678091 1.243663,0.678091c0.908096,0 1.362144,-0.716119 1.362144,-2.148358l-0.000001,0.000001z"/>
  </g>
 </g>
</svg>