<svg id="Слой_1" data-name="Слой 1" xmlns="http://www.w3.org/2000/svg" viewBox="0 0 198.74 198.74"><defs><style>.cls-1{fill:#fb1307;}.cls-2{fill:#fff;}</style></defs><title>ink</title><circle class="cls-1" cx="99.37" cy="99.37" r="99.37"/><path class="cls-2" d="M99.37,18.39a81,81,0,1,0,81,81A81.07,81.07,0,0,0,99.37,18.39Zm0,154a73.07,73.07,0,0,1-72.87-69H37.89V95.44H26.5a73,73,0,0,1,145.74,0H159.53v7.87h12.71A73.06,73.06,0,0,1,99.37,172.35Z"/><path class="cls-2" d="M128.77,54.23l-26.36,38L79.47,60.77h8.86V52.9h-31v7.87H67.71v77.41H57.32v7.88h31v-7.88H76.59l-.2-66.42,51.83,72.63a4.9,4.9,0,0,0,8.88-2.84V56.83A4.57,4.57,0,0,0,128.77,54.23ZM128,127.3,108,99.53l20-28C128.63,72,128,127.3,128,127.3Z"/></svg>