<svg id="Слой_1" data-name="Слой 1" xmlns="http://www.w3.org/2000/svg" viewBox="0 0 194.3 185.82"><defs><style>.cls-1{fill:#201600;}</style></defs><title>iota</title><circle cx="37.32" cy="88.51" r="9.6"/><circle cx="51.67" cy="52.71" r="7.6"/><circle cx="46.92" cy="31.4" r="7.6"/><path class="cls-1" d="M112.43,79.84a5.11,5.11,0,1,0-5.1-5.11,5.11,5.11,0,0,0,5.1,5.11"/><path class="cls-1" d="M104,70.14a6.3,6.3,0,1,0-6.3,6.31,6.3,6.3,0,0,0,6.3-6.31"/><path class="cls-1" d="M79.17,61.93a7.51,7.51,0,1,0,7.53,7.5,7.5,7.5,0,0,0-7.53-7.5"/><path class="cls-1" d="M49.22,73.61a8.71,8.71,0,1,0,8.71-8.71,8.71,8.71,0,0,0-8.71,8.71"/><path class="cls-1" d="M11.11,89.51a11.11,11.11,0,1,0,11.11,11.11A11.1,11.1,0,0,0,11.11,89.51"/><path class="cls-1" d="M118.82,57.8a4.37,4.37,0,1,0-4.37,4.43,4.39,4.39,0,0,0,4.37-4.43"/><path class="cls-1" d="M108.39,51.89A5.4,5.4,0,1,0,103,57.37a5.42,5.42,0,0,0,5.39-5.48"/><path class="cls-1" d="M81.57,47.33A6.43,6.43,0,1,0,88,40.81a6.47,6.47,0,0,0-6.42,6.52"/><path class="cls-1" d="M62.37,45.94a7.45,7.45,0,1,0,7.46-7.56,7.51,7.51,0,0,0-7.46,7.56"/><path class="cls-1" d="M25.6,69.62A9.65,9.65,0,1,0,16.1,60a9.59,9.59,0,0,0,9.5,9.65"/><path class="cls-1" d="M119.41,48a3.84,3.84,0,1,0-3.76-3.84A3.82,3.82,0,0,0,119.41,48"/><path class="cls-1" d="M110.75,41.66a4.73,4.73,0,1,0-4.67-4.73,4.7,4.7,0,0,0,4.67,4.73"/><path class="cls-1" d="M99.14,35.9a5.62,5.62,0,1,0-5.53-5.62,5.56,5.56,0,0,0,5.53,5.62"/><path class="cls-1" d="M84.45,32.23a6.51,6.51,0,1,0-6.39-6.51,6.47,6.47,0,0,0,6.39,6.51"/><path class="cls-1" d="M66.59,32.12a7.39,7.39,0,1,0-7.3-7.39,7.33,7.33,0,0,0,7.3,7.39"/><path class="cls-1" d="M75.41,93.59a5.1,5.1,0,1,0,5.1-5.1,5.09,5.09,0,0,0-5.1,5.1"/><path class="cls-1" d="M83.91,102.36a6.31,6.31,0,1,0,6.3,6.31,6.32,6.32,0,0,0-6.3-6.31"/><path class="cls-1" d="M100.05,125a7.51,7.51,0,1,0-7.5,7.51,7.5,7.5,0,0,0,7.5-7.51"/><path class="cls-1" d="M115.49,141.35a8.71,8.71,0,1,0-8.71,8.71,8.71,8.71,0,0,0,8.71-8.71"/><path class="cls-1" d="M117.1,156.26a9.91,9.91,0,1,0,9.91-9.91,9.9,9.9,0,0,0-9.91,9.91"/><path class="cls-1" d="M142.47,168.4a11.12,11.12,0,1,0,11.11-11.11,11.13,11.13,0,0,0-11.11,11.11"/><path class="cls-1" d="M69.19,100.3a4.37,4.37,0,1,0-4.35,4.44,4.4,4.4,0,0,0,4.35-4.44"/><path class="cls-1" d="M65.43,118.65a5.48,5.48,0,1,0-5.37-5.47,5.43,5.43,0,0,0,5.37,5.47"/><path class="cls-1" d="M75.41,128.45A6.42,6.42,0,1,0,69,135a6.46,6.46,0,0,0,6.42-6.52"/><path class="cls-1" d="M84.32,144.88a7.45,7.45,0,1,0-7.44,7.57,7.51,7.51,0,0,0,7.44-7.57"/><path class="cls-1" d="M82,161.21a8.48,8.48,0,1,0,8.48-8.6,8.56,8.56,0,0,0-8.48,8.6"/><path class="cls-1" d="M101.64,176.17a9.5,9.5,0,1,0,9.5-9.65,9.58,9.58,0,0,0-9.5,9.65"/><path class="cls-1" d="M50.56,99a3.84,3.84,0,1,0,3.76,3.83A3.81,3.81,0,0,0,50.56,99"/><path class="cls-1" d="M44,114a4.65,4.65,0,1,0,4.65-4.72A4.7,4.7,0,0,0,44,114"/><path class="cls-1" d="M54.19,127.33a5.53,5.53,0,1,0-5.54,5.61,5.58,5.58,0,0,0,5.54-5.61"/><path class="cls-1" d="M52.05,135.82a6.5,6.5,0,1,0,6.4,6.5,6.46,6.46,0,0,0-6.4-6.5"/><path class="cls-1" d="M60.13,150.91a7.39,7.39,0,1,0,7.27,7.39,7.34,7.34,0,0,0-7.27-7.39"/><path class="cls-1" d="M66.09,174.66a8.16,8.16,0,1,0,8.16-8.28,8.23,8.23,0,0,0-8.16,8.28"/><path class="cls-1" d="M107.69,111.81a5.12,5.12,0,1,0,5.12-5.11,5.11,5.11,0,0,0-5.12,5.11"/><path class="cls-1" d="M124.15,95a6.31,6.31,0,1,0,6.3,6.31,6.31,6.31,0,0,0-6.3-6.31"/><path class="cls-1" d="M126.51,85.66a7.51,7.51,0,1,0,7.5-7.51,7.5,7.5,0,0,0-7.5,7.51"/><path class="cls-1" d="M141,73.88a8.71,8.71,0,1,0-8.71-8.71A8.73,8.73,0,0,0,141,73.88"/><path class="cls-1" d="M153.74,40.21a9.91,9.91,0,1,0-9.91,9.91,9.92,9.92,0,0,0,9.91-9.91"/><path class="cls-1" d="M129.93,11.11A11.11,11.11,0,1,0,141,0a11.12,11.12,0,0,0-11.11,11.11"/><path class="cls-1" d="M130.82,122a4.37,4.37,0,1,0-4.36,4.43,4.4,4.4,0,0,0,4.36-4.43"/><path class="cls-1" d="M142.7,115.07a5.4,5.4,0,1,0-5.4,5.47,5.45,5.45,0,0,0,5.4-5.47"/><path class="cls-1" d="M142.33,104.35a6.42,6.42,0,1,0,6.42-6.52,6.47,6.47,0,0,0-6.42,6.52"/><path class="cls-1" d="M159,96.87a7.56,7.56,0,1,0-7.46-7.56A7.5,7.5,0,0,0,159,96.87"/><path class="cls-1" d="M157.91,69.38a8.48,8.48,0,1,0,8.48-8.61,8.53,8.53,0,0,0-8.48,8.61"/><path class="cls-1" d="M159.5,44A9.5,9.5,0,1,0,169,34.34,9.58,9.58,0,0,0,159.5,44"/><path class="cls-1" d="M139.54,133.14a3.78,3.78,0,1,0-3.78,3.83,3.81,3.81,0,0,0,3.78-3.83"/><path class="cls-1" d="M141.72,129.25a4.66,4.66,0,1,0,4.67-4.72,4.69,4.69,0,0,0-4.67,4.72"/><path class="cls-1" d="M152.42,122.52a5.52,5.52,0,1,0,5.51-5.62,5.56,5.56,0,0,0-5.51,5.62"/><path class="cls-1" d="M175.64,112.09a6.41,6.41,0,1,0-6.42,6.5,6.46,6.46,0,0,0,6.42-6.5"/><path class="cls-1" d="M186.32,97.1a7.28,7.28,0,1,0-7.28,7.39,7.34,7.34,0,0,0,7.28-7.39"/><path class="cls-1" d="M194.3,76.69A8.17,8.17,0,1,0,186.13,85a8.22,8.22,0,0,0,8.17-8.28"/></svg>