<svg id="Слой_1" data-name="Слой 1" xmlns="http://www.w3.org/2000/svg" xmlns:xlink="http://www.w3.org/1999/xlink" viewBox="0 0 180.68 201.66"><defs><style>.cls-1{fill:url(#Безымянный_градиент_16);}.cls-2{fill:url(#Безымянный_градиент_9);}.cls-3{fill:url(#Безымянный_градиент_31);}</style><linearGradient id="Безымянный_градиент_16" x1="0.52" y1="98.45" x2="115.05" y2="98.45" gradientUnits="userSpaceOnUse"><stop offset="0" stop-color="#00d0d6"/><stop offset="1" stop-color="#0064b1"/></linearGradient><linearGradient id="Безымянный_градиент_9" y1="165.61" x2="180.16" y2="165.61" gradientTransform="matrix(1, 0, 0, -1, 0, 244.85)" gradientUnits="userSpaceOnUse"><stop offset="0.23" stop-color="#00f0e1"/><stop offset="1" stop-color="#009fff"/></linearGradient><linearGradient id="Безымянный_градиент_31" x1="2.01" y1="122.43" x2="180.68" y2="122.43" gradientUnits="userSpaceOnUse"><stop offset="0.03" stop-color="#6cf4e4"/><stop offset="0.47" stop-color="#64e5df"/><stop offset="1" stop-color="#2b7fbd"/></linearGradient></defs><title>iqn</title><path class="cls-1" d="M2.17,55.56l-1.65,9,1.69,74.39s4.63,12.25,7.6,11.26,85-34.54,86.48-36S118.13,72,114.66,71.47s-71-25.31-73.95-24.81Z"/><path class="cls-2" d="M0,63.19s3-15.88,33.25,2.48,124.57,72.46,124.57,72.46,10.91,4,9.92,20.35c0,0,12.91-6.95,12.41-28.79s0-72.87,0-72.87,0-8-27.31-23.9L104.22,4.63A27.19,27.19,0,0,0,74,4.63C52.58,18.3,14.39,40.36,14.39,40.36S3.47,45.33,0,63.19Z"/><path class="cls-3" d="M2,138s1.49,16.35,31.76-2S158.34,63.53,158.34,63.53s10.91-4,9.92-20.34c0,0,12.9,6.94,12.41,28.78s0,72.88,0,72.88,0,8-27.31,23.89S104.74,197,104.74,197a27.2,27.2,0,0,1-30.28,0C53.1,183.37,14.91,161.3,14.91,161.3S5.49,155.86,2,138Z"/></svg>