<svg id="Слой_1" data-name="Слой 1" xmlns="http://www.w3.org/2000/svg" xmlns:xlink="http://www.w3.org/1999/xlink" viewBox="0 0 198.06 198.06"><defs><style>.cls-1{fill:#e7c855;}.cls-2{fill:none;stroke-miterlimit:10;stroke-width:3px;stroke:url(#Безымянный_градиент);}.cls-3{fill:url(#Безымянный_градиент_2);}.cls-4{fill:url(#Безымянный_градиент_3);}.cls-5{fill:url(#Безымянный_градиент_4);}.cls-6{fill:url(#Безымянный_градиент_5);}.cls-7{fill:url(#Безымянный_градиент_6);}.cls-8{fill:url(#Безымянный_градиент_7);}</style><linearGradient id="Безымянный_градиент" x1="4.24" y1="101.43" x2="195.76" y2="101.43" gradientTransform="matrix(1, 0, 0, -1, -0.97, 201.03)" gradientUnits="userSpaceOnUse"><stop offset="0" stop-color="#fff"/><stop offset="0" stop-color="#bc8c30"/><stop offset="0.15" stop-color="#fffaa5"/><stop offset="0.29" stop-color="#fed06a"/><stop offset="0.53" stop-color="#86512d"/><stop offset="0.79" stop-color="#e7c855"/><stop offset="0.97" stop-color="#86512d"/></linearGradient><linearGradient id="Безымянный_градиент_2" x1="52.62" y1="105.23" x2="139.88" y2="105.23" gradientTransform="matrix(1, 0, 0, -1, 0.57, 203.14)" xlink:href="#Безымянный_градиент"/><linearGradient id="Безымянный_градиент_3" x1="63.97" y1="112" x2="66.74" y2="114.32" gradientTransform="matrix(0.8, 0.6, 0.6, -0.8, -54.07, 141.72)" xlink:href="#Безымянный_градиент"/><linearGradient id="Безымянный_градиент_4" x1="76.49" y1="95.35" x2="79.03" y2="97.34" gradientTransform="matrix(0.8, 0.6, 0.6, -0.8, -41.69, 137.21)" xlink:href="#Безымянный_градиент"/><linearGradient id="Безымянный_градиент_5" x1="92.93" y1="100.42" x2="95.93" y2="100.42" xlink:href="#Безымянный_градиент"/><linearGradient id="Безымянный_градиент_6" x1="133.61" y1="101.16" x2="151.72" y2="101.16" gradientTransform="matrix(1, 0, 0, -1, 0.57, 203.14)" xlink:href="#Безымянный_градиент"/><linearGradient id="Безымянный_градиент_7" x1="153.58" y1="88.91" x2="165.81" y2="88.91" xlink:href="#Безымянный_градиент"/></defs><title>ixe</title><circle class="cls-1" cx="99.03" cy="99.03" r="99.03"/><circle class="cls-2" cx="99.03" cy="99.6" r="94.26"/><path class="cls-3" d="M118.57,111.55c-7.69,0-9.37-5.17-9.44-5.4l-.06-.21V87.26H81.17L63.91,111.53H53.19V85.76h3v22.77h6.18L79.63,84.26h32.48v21.17c.32.7,1.89,3.36,7.23,3.1s6.63-2.8,6.85-3.39V84.26h14.26v3H129.19v18.4c0,.22-1.23,5.45-9.66,5.87Z" transform="translate(-0.97 -0.97)"/><rect class="cls-4" x="64.43" y="84.71" width="3" height="10.54" transform="translate(-41.66 56.21) rotate(-36.67)"/><rect class="cls-5" x="76.83" y="100.95" width="3" height="11.69" transform="translate(-49.38 67.39) rotate(-36.87)"/><rect class="cls-6" x="91.96" y="91.44" width="3" height="18.34"/><path class="cls-7" d="M143.78,111.55h0c-6.95,0-9.32-2.19-9.56-2.44l2.12-2.12h0s1.85,1.54,7.45,1.56h0c5.06,0,5.41-3.2,5.43-3.33v-.15s.47-2.7-.9-4.31c-.78-.93-2.08-1.37-3.9-1.36-3.15,0-5.56-.76-7.21-2.39a6.81,6.81,0,0,1-2-4.6h3c0,.42.3,4.1,6.21,4,2.74,0,4.86.79,6.25,2.44,2.13,2.54,1.64,6.13,1.55,6.72C152,107.67,149.93,111.55,143.78,111.55Z" transform="translate(-0.97 -0.97)"/><rect class="cls-8" x="152.61" y="107.08" width="12.23" height="10.07"/></svg>