<svg id="Слой_1" data-name="Слой 1" xmlns="http://www.w3.org/2000/svg" viewBox="0 0 200.5 200.5"><defs><style>.cls-1{fill:#90612d;}.cls-2{fill:none;}</style></defs><title>jet</title><path class="cls-1" d="M100.25,200.5A100.25,100.25,0,1,1,200.5,100.25,100.36,100.36,0,0,1,100.25,200.5Zm0-187.5a87.25,87.25,0,1,0,87.25,87.25A87.35,87.35,0,0,0,100.25,13Z"/><path class="cls-1" d="M100.66,19a81.06,81.06,0,1,0,81.05,81.05A81.06,81.06,0,0,0,100.66,19ZM72.75,58.33h39.52V66H79.36a6.61,6.61,0,0,1-6.61-6.62ZM84,76.88a6.62,6.62,0,0,1-6.61-6.62V69.21h34.85v7.67Zm28.24,3.28v7.66H91.44a6.62,6.62,0,0,1-6.62-6.61v-1Zm23.48,19.89c-4,27-9.68,35.51-9.68,35.51s-6.86,16.53-36.29,18.14-29-21.76-29-21.76V110.15l23.39.41s-5.24,21,8.47,21.37,16.53-13.31,16.53-13.31l9.68-60.49h22.58S139.78,73.05,135.75,100.05Z"/><polygon class="cls-2" points="78.08 76.88 111.14 76.88 111.14 70.02 78.08 76.88"/></svg>