<svg width="18" height="18" viewBox="0 0 18 18" fill="none" xmlns="http://www.w3.org/2000/svg">
<path d="M9 0C4.02187 0 0 4.02187 0 9C0 13.9781 4.02187 18 9 18C13.9781 18 18 13.9781 18 9C18 4.02187 13.9781 0 9 0ZM13.2188 8.97188C13.2188 11.3063 11.4188 12.0938 9.9 12.0938V12.7125H11.0813V13.5281H9.9V14.4844H8.07188V13.5281H6.94688V12.7125H8.07188V12.0938C7.59375 12.0938 4.80938 11.9812 4.80938 8.80312V5.00625H6.60938V8.97188C6.60938 10.6313 8.07188 10.6031 8.07188 10.6031V5.00625H9.9V10.6031C9.9 10.6031 11.3906 10.6875 11.3906 8.94375V5.00625H13.2188V8.97188Z" fill="#FFD512"/>
</svg>
