<svg id="Слой_1" data-name="Слой 1" xmlns="http://www.w3.org/2000/svg" viewBox="0 0 15.14 15.14"><defs><style>.cls-1{fill:#942700;stroke:#f2c32f;stroke-miterlimit:10;stroke-width:0.5px;}.cls-2{fill:#b88d28;}</style></defs><title>kgs</title><circle class="cls-1" cx="7.57" cy="7.57" r="7.32"/><path class="cls-2" d="M12.27,7.68l-.88-.95.75.41S11.35,4.9,9.75,4.37L9.62,2.32H9V3L8.62,3V2.17l-.4-.27V1.58H7.47l0,.34-.37.28V3l-.39,0V2.42H6l-.09,1.7c-.1,0-1.74.53-1.61.82s.6.15.6.15S3,6.1,3.23,6.92L4,6.61a5.06,5.06,0,0,0-.74,2.74c.12.69.27.46.38.16a2.35,2.35,0,0,0,.55,1.94l.4-.88s-.21,1.2.26,1.74.26-.89.26-.89.56,2.11,1.44,2l.26-.57s.58,1,.92.82.81-.91.81-.91l.16.63A2.07,2.07,0,0,0,10,11.52l.19,1.13s.72-.38.66-2l.22.79a1.59,1.59,0,0,0,.57-2l.38.29A2.88,2.88,0,0,0,12.27,7.68ZM9.91,7.33v.35l-.16.37v.61l-.16.28-.22.12L9,9a.27.27,0,0,0,.19.28v.95l-.28.34v.26l-.26.34-.15.29-.25-.13-.32-.09-.35.06H7.32s-.31.19-.41.16a1.86,1.86,0,0,1-.25-.16l-.2-.28-.18-.45-.06-.34-.06-.38.09-.35.21-.34h-.4L5.75,9l-.38-.28V7l.22-.56A5.25,5.25,0,0,1,6,5.85a2.13,2.13,0,0,1,.44,0l1.1.57h.22l.26,0,.19,0,.18-.15L8.68,6,9,5.84h.38l.12.36.16.37.29.32Z" transform="translate(-0.11 -0.11)"/><polygon class="cls-2" points="6.88 6.98 6.25 6.79 6.25 7.17 6.57 7.33 6.88 6.98"/><polygon class="cls-2" points="8.29 6.98 8.93 6.79 8.93 7.17 8.61 7.33 8.29 6.98"/><polyline class="cls-2" points="7.09 8.83 8.11 8.83 8.11 9.24 7.76 9.24 7.79 9.81 8.3 10.22 7.59 9.9 7.01 10.22 7.45 9.81 7.45 9.24 7.09 9.24"/></svg>