<svg id="Слой_1" data-name="Слой 1" xmlns="http://www.w3.org/2000/svg" xmlns:xlink="http://www.w3.org/1999/xlink" viewBox="0 0 192.41 192.41"><defs><style>.cls-1{fill:url(#Безымянный_градиент_5);}.cls-2{fill:#f2f2f2;}.cls-3{fill:#fff;}</style><linearGradient id="Безымянный_градиент_5" x1="96.2" y1="14.09" x2="96.2" y2="179.19" gradientUnits="userSpaceOnUse"><stop offset="0" stop-color="#7fbf44"/><stop offset="1" stop-color="#135c89"/></linearGradient></defs><title>kwatt</title><circle class="cls-1" cx="96.2" cy="96.64" r="82.55"/><path class="cls-2" d="M96.2,192.41A96.21,96.21,0,1,1,192.41,96.2,96.32,96.32,0,0,1,96.2,192.41ZM96.2,6a90.21,90.21,0,1,0,90.21,90.2A90.31,90.31,0,0,0,96.2,6Z"/><path class="cls-3" d="M81,162.9l52.32-77.39H98.55l3.14-10.65,20.36-10L122.37,42H100.75l-.32,4.7,6.74,6,3.6-.32-.31,3.76-10-.62s-5-5-17.54-1.57l-6-9.4s-3.76-5-2.82,15.67l3.44,6-18.48,42.3H93.85Z"/><polygon class="cls-3" points="76.62 38.52 83.52 36.64 88.53 50.74 82.89 53.87 76.62 38.52"/><path class="cls-3" d="M86.34,34.13s.84,13.34,3.75,16l6.52,1.25L94.17,32.25Z"/><path class="cls-3" d="M96.61,32.25l1.63,9.56a9.55,9.55,0,0,1,7.52-2V32.25S104.27,31,96.61,32.25Z"/><polygon class="cls-3" points="108.58 31.69 108.58 40.4 117.98 40.4 117.98 32.25 108.58 31.69"/></svg>