<?xml version="1.0" encoding="utf-8"?>
<!-- Generator: Adobe Illustrator 23.0.1, SVG Export Plug-In . SVG Version: 6.00 Build 0)  -->
<svg version="1.1" id="Слой_1" xmlns="http://www.w3.org/2000/svg" xmlns:xlink="http://www.w3.org/1999/xlink" x="0px" y="0px"
	 viewBox="0 0 200 208.58" style="enable-background:new 0 0 200 208.58;" xml:space="preserve">
<style type="text/css">
	.st0{fill:#F6B330;}
	.st1{fill:#1D5AA3;}
	.st2{fill:#FFFFFF;}
	.st3{fill:#1B5B9E;}
</style>
<path class="st0" d="M99.67,196.33c-53.94,0-97.66-43.73-97.66-97.67C2.01,44.72,45.74,1,99.67,1c53.94,0,97.66,43.72,97.66,97.66
	C197.34,152.6,153.61,196.33,99.67,196.33L99.67,196.33z"/>
<path class="st1" d="M110.84,51.81c0,0,65.51-53.01,65.08-53.01s-49.67,60.72-49.67,60.72l-20.55,22.69h38.11h0
	c5.17,0,7.55,6.42,3.64,9.8l-16.92,14.61l-74.33,2.07c-5.67,0.16-8.28-7-3.83-10.52L110.84,51.81z"/>
<path class="st2" d="M106.67,130.95c-7.66,0.05-16.02,0.1-16.02,0.1l-0.3-26.95c0,0,3.68-0.02,16.15-0.1
	c9.34-0.06,15.26,5.3,15.38,13.38C122.01,125.46,116.3,130.89,106.67,130.95 M90.27,68.72c0.1,0,1.3-0.01,13.33-0.08
	c7.05-0.04,11.13,4.28,11.22,9.77c0.09,5.49-3.83,9.86-11.1,9.91c-5.78,0.04-13.33,0.08-13.33,0.08L90.27,68.72L90.27,68.72z
	 M129.5,95.18c5.24-2.9,10.07-8.59,10.01-18.24c-0.08-12.79-12.96-23-27.05-22.91c-1.04,0.01-0.29,0-1.38,0.01l-0.12-18.85
	l-11.71,0.07l0.11,18.85l-9.17,0.06l-0.54-18.85l-11.63,0.07l0.12,18.85L54.4,54.39l0.09,14.55l10.96-0.07
	c2.57-0.02,4.66,2.21,4.68,4.98l0.32,52.32c0.02,2.77-2.05,5.02-4.62,5.04l-8.11,0.05l-2.77,14.18l23.76-0.14l0.12,18.85l12.05-0.07
	l-0.12-18.85l9.17-0.06l0.12,18.85l11.71-0.07l-0.12-18.85c17.39-0.11,36.09-7.73,35.96-28.64
	C147.52,103.63,138.12,97.04,129.5,95.18"/>
<path class="st3" d="M96.17,110l-5.67,7.53L17.84,204.9l104.05-92.06l-0.6,0.53c-4.2-10.25-11.67-9.6-23.73-9.31l-7.19,0.04
	L96.17,110z"/>
</svg>
