<svg id="Слой_1" data-name="Слой 1" xmlns="http://www.w3.org/2000/svg" viewBox="0 0 200 200"><defs><style>.cls-1{fill:#2ab643;}.cls-2{fill:#068210;}.cls-3{fill:#fff;}</style></defs><title>lcc</title><polygon class="cls-1" points="0 134.65 36.64 93.88 18.32 44.56 57.03 0 111.08 12.32 130.52 63.06 181.25 73.49 200 126.59 162.76 168.31 108.24 159.31 74.57 200 19.1 187.75 0 134.65"/><polygon class="cls-2" points="60.82 10.9 107.29 19.91 122.94 64.48 94.01 97.19 44.7 91.98 78.84 56.42 60.82 10.9"/><polygon class="cls-2" points="39.96 100 86.43 109.01 102.07 153.58 73.15 186.29 23.84 181.08 57.98 145.52 39.96 100"/><polygon class="cls-2" points="129.1 72.5 175.56 81.51 191.21 126.08 162.29 158.79 112.98 153.58 147.12 118.02 129.1 72.5"/><polygon class="cls-3" points="102.22 118.36 92.86 90.49 104.18 75.85 98.36 58.51 87.07 73.23 70.8 24.74 40.66 44.1 61.23 106.95 51.77 119.3 56.79 137.15 66.85 124.14 79.09 161.52 110.03 141.65 159.34 109.98 151.68 86.58 102.22 118.36 102.22 118.36"/></svg>