<svg id="Слой_1" data-name="Слой 1" xmlns="http://www.w3.org/2000/svg" viewBox="0 0 195.51 195.51"><defs><style>.cls-1{fill:#22282e;}.cls-2{fill:#f7f8f9;}.cls-3{fill:none;stroke:#f7f8f9;stroke-miterlimit:10;stroke-width:6px;}</style></defs><title>ledu</title><circle class="cls-1" cx="97.76" cy="97.76" r="97.76"/><path class="cls-2" d="M101,191.61A91.08,91.08,0,1,1,190.9,99.35,91.18,91.18,0,0,1,101,191.61ZM98.66,11.46A89.08,89.08,0,1,0,188.9,99.37,89.2,89.2,0,0,0,98.66,11.46Z" transform="translate(-2.07 -2.78)"/><polygon class="cls-2" points="53.2 116.19 30.18 116.19 30.18 77.53 36.18 77.53 36.18 110.19 53.2 110.19 53.2 116.19"/><polygon class="cls-2" points="84.47 116.19 60.2 116.19 60.2 78.28 84.47 78.28 84.47 84.28 66.2 84.28 66.2 110.19 84.47 110.19 84.47 116.19"/><line class="cls-3" x1="78.22" y1="97.46" x2="63.2" y2="97.22"/><path class="cls-2" d="M107.58,120.43a47.39,47.39,0,0,1-11.85-1.58l-2.18-.62V81.82l2.15-.63c.61-.18,15.08-4.35,24.68,2.45,4.89,3.46,7.56,9,8,16.45.36,7.17-1.69,12.59-6.11,16.11C118.07,119.5,112.53,120.43,107.58,120.43Zm-8-6.83c5,1,14,1.81,19-2.1,2.84-2.28,4.1-5.91,3.83-11.1-.28-5.53-2.11-9.52-5.42-11.87-5-3.56-12.93-3-17.36-2.1Z" transform="translate(-2.07 -2.78)"/><path class="cls-2" d="M151.61,120.45h-.74c-11-.4-14.86-9.85-15.39-14.79V84.06h6v21.09c.19,1.39,1.6,9,9.62,9.29,6.9.26,9.28-5.09,10.54-9.77.09-.32.16-.59.23-.79.28-1.67.16-11.28-.12-19.72l6-.2c.43,12.81.37,20.11-.15,21.7-.05.13-.1.33-.17.58C164.88,115.67,159.56,120.45,151.61,120.45Zm10.28-16.69s0,0,0,0Z" transform="translate(-2.07 -2.78)"/></svg>