<svg width="597" height="743" viewBox="0 0 597 743" fill="none" xmlns="http://www.w3.org/2000/svg">
<path d="M112.646 192.55H101.382C101.382 76.3894 190.107 0 301.316 0C412.525 0 501.25 76.3894 501.25 192.55H478.722L434.84 192.549V367.275H563.201C578.753 367.275 591.36 379.875 591.36 395.418C591.36 410.962 578.753 423.562 563.201 423.562H493.002L520.908 498.865C523.5 505 525.909 512.516 526.5 514C527.091 515.484 529 520.5 529.3 521.51L595.239 699.445C600.641 714.021 593.197 730.213 578.613 735.612C564.029 741.01 547.828 733.57 542.426 718.995L522.537 665.324H76.1503L54.6316 724.466C49.3167 739.074 33.1598 746.61 18.544 741.298C3.92815 735.986 -3.61178 719.838 1.70306 705.231L104.186 423.562H33.7993C18.2471 423.562 5.6396 410.962 5.6396 395.418C5.6396 379.875 18.2471 367.275 33.7993 367.275H170.139V192.549L112.646 192.55ZM168.05 136.262H434.582C413.748 85.9741 363.388 56.2873 301.316 56.2873C239.244 56.2873 188.884 85.9742 168.05 136.262ZM378.52 367.275V192.549H226.458V367.275H378.52ZM96.6301 609.036H501.678L478.747 547.159H119.144L96.6301 609.036ZM139.623 490.872H457.888L432.944 423.562H164.114L139.623 490.872Z" fill="url(#paint0_linear)"/>
<path d="M112.646 192.55H101.382C101.382 76.3894 190.107 0 301.316 0C412.525 0 501.25 76.3894 501.25 192.55H478.722L434.84 192.549V367.275H563.201C578.753 367.275 591.36 379.875 591.36 395.418C591.36 410.962 578.753 423.562 563.201 423.562H493.002L520.908 498.865C523.5 505 525.909 512.516 526.5 514C527.091 515.484 529 520.5 529.3 521.51L595.239 699.445C600.641 714.021 593.197 730.213 578.613 735.612C564.029 741.01 547.828 733.57 542.426 718.995L522.537 665.324H76.1503L54.6316 724.466C49.3167 739.074 33.1598 746.61 18.544 741.298C3.92815 735.986 -3.61178 719.838 1.70306 705.231L104.186 423.562H33.7993C18.2471 423.562 5.6396 410.962 5.6396 395.418C5.6396 379.875 18.2471 367.275 33.7993 367.275H170.139V192.549L112.646 192.55ZM168.05 136.262H434.582C413.748 85.9741 363.388 56.2873 301.316 56.2873C239.244 56.2873 188.884 85.9742 168.05 136.262ZM378.52 367.275V192.549H226.458V367.275H378.52ZM96.6301 609.036H501.678L478.747 547.159H119.144L96.6301 609.036ZM139.623 490.872H457.888L432.944 423.562H164.114L139.623 490.872Z" fill="url(#paint1_linear)"/>
<defs>
<linearGradient id="paint0_linear" x1="-298.5" y1="371.5" x2="427.066" y2="954.492" gradientUnits="userSpaceOnUse">
<stop stop-color="#9053F6"/>
<stop offset="1" stop-color="#1004FF"/>
</linearGradient>
<linearGradient id="paint1_linear" x1="-298.5" y1="371.5" x2="427.066" y2="954.492" gradientUnits="userSpaceOnUse">
<stop stop-color="#C06BFF"/>
<stop offset="1" stop-color="#0B5EE8"/>
</linearGradient>
</defs>
</svg>