<?xml version="1.0" standalone="no"?>
<!DOCTYPE svg PUBLIC "-//W3C//DTD SVG 20010904//EN"
 "http://www.w3.org/TR/2001/REC-SVG-20010904/DTD/svg10.dtd">
<svg version="1.0" xmlns="http://www.w3.org/2000/svg"
 width="946.000000pt" height="1413.000000pt" viewBox="0 0 946.000000 1413.000000"
 preserveAspectRatio="xMidYMid meet">

<g transform="translate(0.000000,1413.000000) scale(0.100000,-0.100000)"
fill="#000000" stroke="none">
<path d="M2951 13606 c-11 -13 85 -297 565 -1678 319 -914 585 -1667 592
-1675 7 -7 11 -17 8 -22 -7 -11 67 -225 93 -267 39 -64 60 -68 621 -123 283
-28 540 -53 570 -56 30 -2 93 -9 139 -14 82 -10 111 -8 77 5 -15 6 -15 7 1 20
25 19 32 17 26 -5 -3 -10 0 -22 7 -26 9 -6 643 -72 860 -90 41 -3 82 -8 90
-10 8 -2 69 -9 135 -15 66 -6 136 -13 155 -15 19 -3 195 -20 390 -40 195 -19
375 -36 401 -39 25 -3 51 -1 58 3 39 24 6 56 -569 539 -688 579 -883 743
-1310 1100 -179 150 -336 283 -350 296 -14 13 -133 114 -265 224 -132 110
-416 348 -630 529 -1369 1151 -1628 1368 -1639 1371 -7 2 -19 -4 -25 -12z
m1209 -1040 c0 -3 -4 -8 -10 -11 -5 -3 -10 -1 -10 4 0 6 5 11 10 11 6 0 10 -2
10 -4z m550 -933 c0 -5 -5 -15 -10 -23 -7 -12 -9 -10 -7 8 1 19 17 33 17 15z
m130 -393 c0 -5 -5 -10 -11 -10 -5 0 -7 5 -4 10 3 6 8 10 11 10 2 0 4 -4 4
-10z m-300 -41 c0 -5 -7 -9 -15 -9 -15 0 -20 12 -9 23 8 8 24 -1 24 -14z m720
-59 c0 -5 -4 -10 -10 -10 -5 0 -10 5 -10 10 0 6 5 10 10 10 6 0 10 -4 10 -10z
m171 -33 c-13 -13 -26 -3 -16 12 3 6 11 8 17 5 6 -4 6 -10 -1 -17z m-1036 -7
c3 -5 1 -10 -4 -10 -6 0 -11 5 -11 10 0 6 2 10 4 10 3 0 8 -4 11 -10z m215
-90 c0 -5 -2 -10 -4 -10 -3 0 -8 5 -11 10 -3 6 -1 10 4 10 6 0 11 -4 11 -10z
m765 -50 c3 -5 1 -10 -4 -10 -6 0 -11 5 -11 10 0 6 2 10 4 10 3 0 8 -4 11 -10z
m-705 -35 c0 -9 -7 -18 -16 -22 -18 -7 -39 11 -30 26 11 17 46 13 46 -4z m475
-5 c3 -5 1 -10 -4 -10 -6 0 -11 5 -11 10 0 6 2 10 4 10 3 0 8 -4 11 -10z
m-258 -476 c-3 -3 -12 -4 -19 -1 -8 3 -5 6 6 6 11 1 17 -2 13 -5z m23 -34 c0
-5 -5 -10 -11 -10 -5 0 -7 5 -4 10 3 6 8 10 11 10 2 0 4 -4 4 -10z m550 0 c0
-5 -4 -10 -10 -10 -5 0 -10 5 -10 10 0 6 5 10 10 10 6 0 10 -4 10 -10z m-1050
-174 c0 -3 -4 -8 -10 -11 -5 -3 -10 -1 -10 4 0 6 5 11 10 11 6 0 10 -2 10 -4z
m1140 -26 c0 -5 -4 -10 -10 -10 -5 0 -10 5 -10 10 0 6 5 10 10 10 6 0 10 -4
10 -10z m180 -40 c0 -5 -4 -10 -10 -10 -5 0 -10 5 -10 10 0 6 5 10 10 10 6 0
10 -4 10 -10z m-1170 -26 c0 -8 -5 -12 -10 -9 -6 4 -8 11 -5 16 9 14 15 11 15
-7z m428 -15 c-2 -6 -8 -10 -13 -10 -5 0 -11 4 -13 10 -2 6 4 11 13 11 9 0 15
-5 13 -11z m762 -69 c0 -5 -4 -10 -10 -10 -5 0 -10 5 -10 10 0 6 5 10 10 10 6
0 10 -4 10 -10z m-10 -140 c0 -5 -4 -10 -10 -10 -5 0 -10 5 -10 10 0 6 5 10
10 10 6 0 10 -4 10 -10z m-560 -80 c0 -5 -2 -10 -4 -10 -3 0 -8 5 -11 10 -3 6
-1 10 4 10 6 0 11 -4 11 -10z m660 -30 c0 -5 -4 -10 -9 -10 -6 0 -13 5 -16 10
-3 6 1 10 9 10 9 0 16 -4 16 -10z"/>
<path d="M2694 13566 c-12 -8 -28 -34 -37 -58 -68 -181 -1647 -4722 -1643
-4725 2 -2 53 -9 113 -14 59 -5 115 -11 123 -14 20 -6 -188 4 -221 11 -25 5
-28 1 -66 -111 -22 -64 -37 -117 -34 -119 3 -2 94 -32 201 -66 107 -34 221
-71 252 -81 68 -23 69 -23 62 -5 -4 10 2 12 21 8 20 -3 27 0 32 16 3 11 11 18
18 16 6 -3 20 8 30 23 30 45 115 214 115 229 0 27 -31 44 -83 45 -29 0 -74 5
-102 9 -35 6 -18 7 56 3 100 -5 109 -4 138 18 27 20 33 21 56 9 13 -7 27 -21
30 -31 5 -14 23 -18 102 -24 54 -4 120 -11 148 -15 83 -12 -2 -12 -133 1 -111
11 -114 11 -128 -10 -10 -13 -26 -21 -44 -21 -28 0 -34 -7 -80 -100 -54 -107
-64 -156 -31 -147 13 3 22 -3 30 -21 l12 -25 162 6 c158 5 136 -1 -65 -18 -91
-8 -112 -28 -45 -45 23 -6 56 -15 72 -20 29 -9 28 -9 -8 -5 -20 3 -53 8 -72
11 -30 6 -34 4 -29 -10 4 -12 2 -15 -9 -10 -8 3 -18 1 -21 -4 -6 -10 127 -132
145 -132 5 0 80 53 166 118 l157 117 -60 6 c-56 5 -56 6 -14 8 25 1 61 5 81
10 46 11 343 232 326 243 -8 5 -4 8 11 8 14 0 293 202 740 536 394 295 719
539 722 543 3 3 24 19 48 35 65 44 92 81 92 125 0 24 -135 425 -365 1087 -201
577 -368 1056 -372 1064 -3 8 -7 20 -8 25 -2 6 -116 335 -254 732 -138 397
-251 727 -251 732 0 10 -48 51 -59 51 -4 0 -16 -7 -27 -14z m656 -1960 c0 -3
-4 -8 -10 -11 -5 -3 -10 -1 -10 4 0 6 5 11 10 11 6 0 10 -2 10 -4z m560 -1830
c0 -3 -4 -8 -10 -11 -5 -3 -10 -1 -10 4 0 6 5 11 10 11 6 0 10 -2 10 -4z
m-2532 -1033 c-15 -2 -42 -2 -60 0 -18 2 -6 4 27 4 33 0 48 -2 33 -4z m957
-83 c47 -7 37 -8 -45 -4 -58 3 -130 10 -160 14 -43 7 -32 8 45 4 55 -3 127
-10 160 -14z m-440 -401 c36 -14 -25 -9 -70 6 l-40 14 45 -6 c25 -3 54 -9 65
-14z"/>
<path d="M4292 9697 c-54 -30 -53 -27 -83 -546 -16 -267 -26 -487 -24 -489 2
-3 18 1 35 8 17 7 33 10 36 7 3 -3 -12 -11 -35 -18 -40 -12 -41 -13 -41 -57 0
-41 2 -44 23 -39 12 3 83 8 157 11 107 4 120 3 60 -4 -41 -5 -114 -12 -162
-15 l-88 -7 0 -68 0 -67 38 -17 c34 -15 17 -16 -20 -1 -22 9 -25 -6 -33 -172
-6 -132 -6 -142 12 -146 14 -4 15 -5 2 -6 -23 -1 -27 -31 -35 -266 -5 -156 -4
-209 5 -214 6 -4 33 -4 59 0 26 4 50 4 54 0 4 -3 -27 -50 -68 -104 -77 -99
-100 -148 -28 -60 21 27 41 50 44 53 3 3 26 30 52 61 45 54 82 77 93 59 5 -9
24 -8 40 2 6 3 52 9 103 12 73 6 92 5 92 -6 0 -7 -12 -53 -26 -103 -14 -49
-32 -112 -39 -140 -28 -113 -108 -365 -116 -365 -5 0 -6 -7 -2 -16 6 -15 4
-15 -20 0 -16 11 -27 13 -32 7 -3 -7 3 -11 14 -11 12 0 21 -7 21 -15 0 -10 -7
-15 -17 -13 -22 4 -42 21 -36 31 2 4 -3 7 -11 7 -8 0 -17 -4 -21 -10 -6 -10
45 -40 70 -40 9 0 15 -9 15 -21 0 -16 -4 -19 -17 -13 -10 4 -43 10 -73 14 -33
4 -43 8 -25 9 28 2 29 3 12 16 -11 7 -26 11 -35 8 -8 -4 -13 -2 -9 3 5 9 -14
10 -68 5 -18 -1 -19 -2 -2 -12 23 -13 22 -25 -3 -32 -11 -3 -20 0 -20 6 0 8
-3 8 -11 0 -6 -6 -17 -9 -24 -7 -17 7 -22 -28 -35 -226 -30 -465 -44 -726 -46
-853 0 -48 -4 -90 -7 -94 -4 -3 -7 -19 -7 -34 0 -22 7 -30 38 -43 l37 -16 -37
6 c-35 6 -38 4 -39 -17 0 -13 -6 -116 -12 -227 -7 -116 -9 -206 -4 -209 5 -3
5 -8 0 -12 -5 -3 -15 -96 -22 -206 -26 -431 -25 -394 -6 -402 14 -5 30 7 66
48 27 30 49 58 49 62 0 4 -10 12 -22 16 -23 9 -23 9 4 16 15 4 31 4 35 2 8 -5
384 442 382 453 -1 3 16 23 37 46 50 53 55 58 224 264 79 96 173 211 210 255
84 100 89 109 61 100 -15 -4 -21 -2 -21 9 0 22 19 30 36 15 18 -15 7 -25 139
135 202 245 315 390 315 403 0 8 4 12 9 9 9 -6 47 38 260 299 62 77 119 147
127 155 31 37 14 54 -51 50 -16 -1 -43 -3 -60 -4 -25 -1 -34 -8 -52 -46 -24
-49 -27 -46 -14 13 l9 37 -42 0 c-24 0 -46 3 -50 7 -4 5 -47 9 -94 9 -48 1
-116 3 -152 5 -72 4 -69 7 -51 -66 5 -22 8 -41 7 -43 -2 -1 -15 22 -29 52
l-26 54 -78 2 c-43 1 -98 1 -122 1 -40 0 -43 1 -25 12 10 7 60 26 109 41 50
16 122 39 160 53 39 13 149 49 245 79 96 30 243 77 325 103 83 27 204 66 270
86 117 37 144 49 134 60 -3 3 -143 -40 -310 -94 -325 -107 -689 -223 -909
-292 -74 -23 -159 -44 -188 -47 -33 -3 -56 -10 -59 -18 -3 -8 -10 -14 -15 -14
-6 0 -8 7 -5 14 4 10 1 13 -9 9 -7 -3 -14 -9 -14 -14 0 -5 -7 -9 -15 -9 -18 0
-20 16 -2 24 6 4 -10 4 -38 1 l-50 -5 25 19 c13 11 28 17 32 15 3 -2 9 0 13 6
6 10 123 88 186 125 19 11 105 62 190 113 84 52 163 99 174 105 11 7 42 26 70
43 27 17 119 73 204 123 141 84 157 91 195 87 22 -3 69 -8 104 -12 l63 -7 16
42 c19 49 36 55 22 9 -17 -60 -13 -66 34 -66 23 0 53 -2 67 -6 14 -3 48 -8 75
-11 65 -6 87 -10 164 -26 l64 -14 29 35 c70 82 570 683 632 760 60 74 142 172
478 577 37 45 68 87 68 92 0 6 4 11 9 11 4 0 70 75 146 166 144 175 158 202
117 234 -32 26 -157 34 -191 12 -14 -9 -108 -74 -207 -143 -208 -145 -209
-146 -201 -132 3 5 34 29 69 53 35 24 90 62 123 85 33 23 95 65 138 95 42 29
77 57 77 62 0 15 -85 8 -129 -12 -24 -11 -46 -18 -49 -16 -2 3 13 12 34 22 22
9 35 18 29 20 -5 2 -64 8 -130 13 -66 5 -205 18 -310 30 -104 11 -217 23 -250
26 -68 6 -53 5 -460 45 -453 45 -454 45 -460 27 -4 -10 -17 -14 -38 -11 -18 1
-35 3 -39 3 -5 1 -8 7 -8 15 0 8 -14 16 -32 20 -48 9 -1433 146 -1471 146 -17
-1 -42 -6 -55 -13z m2998 -291 c0 -7 -111 -28 -117 -23 -3 3 15 10 39 15 49
11 78 14 78 8z m-180 -42 c-30 -8 -62 -12 -70 -11 -19 4 66 25 100 25 14 0 0
-6 -30 -14z m-100 -18 c0 -7 -111 -28 -117 -23 -3 3 15 10 39 15 49 11 78 14
78 8z m455 -5 c-6 -5 -21 -12 -35 -15 l-25 -7 25 15 c28 17 50 21 35 7z m-592
-28 c-7 -2 -21 -2 -30 0 -10 3 -4 5 12 5 17 0 24 -2 18 -5z m458 -29 c-41 -19
-76 -32 -79 -29 -3 2 6 9 19 14 13 5 44 18 69 29 25 11 50 21 55 21 6 0 -23
-16 -64 -35z m-527 16 c-12 -5 -43 -11 -70 -14 l-49 -5 50 13 c28 8 59 14 70
14 19 1 19 0 -1 -8z m-140 -30 c-12 -5 -43 -11 -70 -14 l-49 -6 45 14 c25 8
56 14 70 14 24 1 24 0 4 -8z m-140 -30 c-12 -5 -43 -11 -70 -14 l-49 -5 50 13
c28 8 59 14 70 14 19 1 19 0 -1 -8z m693 -6 c-16 -9 -31 -13 -34 -10 -3 3 5
10 18 15 37 15 47 12 16 -5z m-824 -21 c-7 -2 -19 -2 -25 0 -7 3 -2 5 12 5 14
0 19 -2 13 -5z m-53 -7 c0 -7 -111 -28 -117 -23 -3 3 15 10 39 15 49 11 78 14
78 8z m797 -2 c-11 -12 -180 -84 -185 -79 -2 2 13 11 34 20 22 8 62 26 89 39
49 24 74 32 62 20z m-977 -40 c-30 -8 -62 -12 -70 -11 -19 4 66 25 100 25 14
0 0 -6 -30 -14z m-140 -30 c-30 -7 -75 -16 -100 -18 -32 -4 -23 0 30 13 41 11
86 19 100 19 14 0 0 -6 -30 -14z m-166 -34 c-30 -12 -120 -24 -112 -15 9 9 71
22 108 23 24 1 24 0 4 -8z m1056 5 c0 -3 -10 -9 -22 -14 -13 -5 -40 -16 -60
-25 -58 -25 -45 -9 15 18 55 26 67 29 67 21z m-1196 -35 c-12 -5 -43 -11 -70
-14 l-49 -5 50 13 c28 8 59 14 70 14 19 1 19 0 -1 -8z m1522 2 c-3 -5 -54 -42
-113 -82 -59 -40 -124 -85 -143 -100 -19 -15 -46 -32 -60 -39 -24 -11 -24 -11
-5 4 26 21 319 225 323 225 2 0 1 -4 -2 -8z m-1662 -32 c-12 -5 -43 -11 -70
-14 l-49 -5 50 13 c28 8 59 14 70 14 19 1 19 0 -1 -8z m1183 -6 c-16 -9 -31
-13 -34 -10 -3 3 5 10 18 15 37 15 47 12 16 -5z m-1314 -21 c-7 -2 -19 -2 -25
0 -7 3 -2 5 12 5 14 0 19 -2 13 -5z m-93 -19 c-30 -8 -62 -12 -70 -11 -19 4
66 25 100 25 14 0 0 -6 -30 -14z m1310 1 c-14 -8 -29 -14 -35 -14 -5 0 1 6 15
14 14 8 30 14 35 14 6 0 -1 -6 -15 -14z m-1443 -30 c-27 -7 -72 -16 -100 -19
-47 -5 -44 -3 23 13 86 22 152 27 77 6z m1393 10 c0 -5 -68 -35 -79 -35 -8 1
61 39 72 40 4 0 7 -2 7 -5z m-1706 -41 c9 -8 16 -21 16 -29 0 -7 6 -16 13 -18
7 -3 5 -6 -5 -6 -10 -1 -18 -6 -18 -11 0 -6 -11 -15 -24 -22 -15 -6 -27 -21
-29 -37 -4 -24 -4 -24 -6 4 -2 54 -28 59 -128 24 -48 -17 -102 -37 -120 -45
-17 -8 -35 -14 -40 -14 -4 0 -69 -23 -143 -50 -74 -28 -138 -49 -144 -47 -12
4 -4 7 476 179 45 16 58 25 63 46 4 15 12 30 18 34 20 13 55 9 71 -8z m140 -4
c-12 -5 -43 -11 -70 -14 l-49 -6 45 14 c25 8 56 14 70 14 24 1 24 0 4 -8z
m1453 -6 c-16 -9 -31 -13 -34 -10 -3 3 5 10 18 15 37 15 47 12 16 -5z m1018
-4 c-27 -12 -43 -12 -25 0 8 5 22 9 30 9 10 0 8 -3 -5 -9z m-1085 -25 c-14 -8
-29 -14 -35 -14 -5 0 1 6 15 14 14 8 30 14 35 14 6 0 -1 -6 -15 -14z m991 -1
c-25 -8 -47 -12 -49 -9 -5 5 56 23 78 23 8 0 -5 -6 -29 -14z m-2357 -34 c20
-8 20 -9 1 -9 -11 0 -42 6 -70 14 l-50 15 49 -6 c27 -3 58 -9 70 -14z m1313
13 c-12 -11 -140 -63 -145 -58 -3 3 8 10 24 15 16 6 47 19 69 30 41 19 63 25
52 13z m963 -2 c-8 -5 -31 -11 -50 -14 -35 -6 -35 -6 5 8 46 15 67 18 45 6z
m-2207 -28 c-7 -2 -21 -2 -30 0 -10 3 -4 5 12 5 17 0 24 -2 18 -5z m132 -25
c13 -5 3 -6 -29 -2 -27 3 -58 10 -70 15 -14 6 -5 7 29 2 28 -3 59 -10 70 -15z
m1625 13 c0 -5 -7 -12 -16 -15 -14 -5 -15 -4 -4 9 14 17 20 19 20 6z m310 4
c0 -6 -73 -25 -78 -20 -2 2 11 8 29 14 41 11 49 12 49 6z m-1796 -45 c20 -8
20 -9 1 -8 -11 0 -42 6 -70 14 l-50 13 49 -5 c27 -3 58 -9 70 -14z m811 11
c-6 -5 -21 -12 -35 -15 l-25 -7 25 15 c28 17 50 21 35 7z m610 -17 c-29 -24
-77 -54 -64 -40 11 12 84 65 89 65 3 0 -8 -11 -25 -25z m244 12 c-2 -2 -17 -6
-34 -10 -22 -5 -26 -4 -15 4 14 9 59 15 49 6z m-2223 -78 c-4 -35 -10 -73 -13
-85 -5 -20 -1 -23 28 -25 l34 -1 -32 -4 c-18 -2 -33 -10 -33 -16 0 -9 -2 -9
-8 -1 -5 8 -36 9 -107 3 -102 -8 -208 -10 -190 -4 6 2 73 9 149 14 77 6 141
12 143 14 1 2 8 40 15 85 13 96 24 110 14 20z m698 42 c20 -8 20 -9 1 -8 -11
0 -42 6 -70 14 l-50 13 49 -5 c27 -3 58 -9 70 -14z m521 -25 l-90 -43 265 -3
265 -4 -261 -2 -262 -3 -12 -30 c-7 -16 -17 -28 -24 -27 -7 1 -13 -19 -15 -53
l-5 -55 -5 55 c-6 52 -8 56 -41 67 -19 7 -29 12 -22 12 6 1 12 6 12 12 0 9
-26 10 -92 5 -51 -3 -136 -8 -188 -10 l-95 -5 75 9 c41 5 120 12 175 16 98 7
99 7 65 20 l-35 14 42 -6 c34 -5 48 -1 69 15 32 25 47 26 68 5 15 -14 23 -13
99 19 114 48 120 44 12 -8z m925 40 c0 -6 -73 -25 -78 -20 -2 2 11 8 29 14 41
11 49 12 49 6z m-1377 -32 c-7 -2 -19 -2 -25 0 -7 3 -2 5 12 5 14 0 19 -2 13
-5z m1274 1 c-3 -3 -12 -4 -19 -1 -8 3 -5 6 6 6 11 1 17 -2 13 -5z m-1142 -26
c13 -5 3 -6 -25 -2 -25 4 -54 10 -65 15 -12 5 -3 6 25 2 25 -3 54 -10 65 -15z
m997 7 c-17 -26 -10 -43 21 -53 27 -10 28 -11 4 -7 -16 3 -37 -1 -52 -11 -13
-9 -30 -14 -37 -11 -7 2 -22 -3 -33 -12 -18 -15 -19 -15 -7 1 21 26 -1 58 -41
59 l-32 2 30 4 c17 3 38 14 48 24 14 15 29 19 62 17 26 -2 41 -7 37 -13z m98
10 c0 -6 -73 -25 -78 -20 -2 2 11 8 29 14 41 11 49 12 49 6z m-1412 -92 c-15
-2 -42 -2 -60 0 -18 2 -6 4 27 4 33 0 48 -2 33 -4z m-198 -13 c-76 -9 -314
-21 -285 -14 32 7 225 21 290 21 l60 0 -65 -7z m587 -6 c-16 -9 -31 -13 -34
-10 -3 3 5 10 18 15 37 15 47 12 16 -5z m1110 0 c-3 -3 -12 -4 -19 -1 -8 3 -5
6 6 6 11 1 17 -2 13 -5z m-1180 -30 c-16 -9 -31 -13 -34 -10 -3 3 5 10 18 15
37 15 47 12 16 -5z m1280 0 c-3 -3 -12 -4 -19 -1 -8 3 -5 6 6 6 11 1 17 -2 13
-5z m-1350 -30 c-16 -9 -31 -13 -34 -10 -3 3 5 10 18 15 37 15 47 12 16 -5z
m923 2 c0 -2 -8 -10 -17 -17 -16 -13 -17 -12 -4 4 13 16 21 21 21 13z m-1783
-53 c-3 -10 -5 -2 -5 17 0 19 2 27 5 18 2 -10 2 -26 0 -35z m760 11 c-16 -9
-31 -13 -34 -10 -3 3 5 10 18 15 37 15 47 12 16 -5z m976 -19 c-3 -9 -8 -14
-10 -11 -3 3 -2 9 2 15 9 16 15 13 8 -4z m-1079 -25 c-63 -29 -113 -47 -104
-37 8 9 144 66 155 66 6 0 -17 -13 -51 -29z m463 -147 c-2 -32 -3 -8 -3 52 0
61 1 87 3 58 2 -29 2 -78 0 -110z m-1136 52 c-17 -117 -15 -142 11 -148 12 -4
39 3 62 15 23 11 57 21 76 23 33 3 33 2 10 -8 -113 -48 -139 -61 -134 -68 3
-5 28 -9 56 -9 57 0 61 -8 7 -14 -19 -2 -38 -4 -42 -5 -5 0 -6 -5 -3 -10 3 -5
-5 -12 -19 -15 -17 -4 -25 -13 -25 -27 0 -18 -3 -19 -15 -9 -16 13 -35 6 -35
-14 0 -7 -7 -21 -15 -32 -14 -18 -14 -17 -9 14 7 33 -9 46 -20 17 -9 -25 -24
-17 -18 11 4 24 3 26 -19 19 -13 -4 -45 -18 -71 -31 -76 -38 -70 -27 10 16 39
23 72 43 72 47 0 3 -26 3 -57 0 -58 -5 -58 -5 -17 6 23 7 49 18 58 26 16 14
15 16 -16 33 -32 19 -29 19 20 4 13 -5 22 -3 22 3 0 6 7 11 15 11 8 0 15 8 15
17 0 13 3 14 12 5 7 -7 17 -12 24 -12 14 0 18 17 35 138 6 46 13 81 16 78 2
-2 0 -39 -6 -81z m536 39 c-16 -9 -31 -13 -34 -10 -3 3 5 10 18 15 37 15 47
12 16 -5z m-103 -44 c-63 -29 -113 -47 -104 -37 8 9 144 66 155 66 6 0 -17
-13 -51 -29z m-908 -25 c38 -14 75 -28 83 -31 8 -2 12 -7 9 -9 -5 -5 -153 47
-164 58 -12 11 0 8 72 -18z m771 -31 c-16 -9 -31 -13 -34 -10 -3 3 5 10 18 15
37 15 47 12 16 -5z m-607 -36 c10 -6 7 -7 -10 -2 -14 3 -32 11 -40 16 -10 6
-7 7 10 2 14 -3 32 -11 40 -16z m560 18 c0 -2 -13 -9 -30 -15 -35 -12 -41 -5
-7 9 25 10 37 12 37 6z m-480 -48 c10 -6 7 -7 -10 -2 -14 3 -32 11 -40 16 -10
6 -7 7 10 2 14 -3 32 -11 40 -16z m-27 -115 c-7 -2 -19 -2 -25 0 -7 3 -2 5 12
5 14 0 19 -2 13 -5z m-98 -18 c-54 -14 -92 -18 -83 -10 7 7 87 23 113 23 11 0
-2 -6 -30 -13z m502 -11 c-5 -5 -57 13 -57 20 0 3 14 0 31 -6 16 -6 28 -12 26
-14z m-627 -13 c-37 -11 -115 -23 -109 -16 7 7 86 23 114 23 15 0 14 -1 -5 -7z
m670 -1 c8 -5 11 -10 5 -10 -5 0 -17 5 -25 10 -8 5 -10 10 -5 10 6 0 17 -5 25
-10z m-337 -54 c-10 -13 -20 -22 -22 -20 -4 4 29 44 36 44 2 0 -4 -11 -14 -24z
m-203 -10 c0 -2 -7 -7 -16 -10 -8 -3 -12 -2 -9 4 6 10 25 14 25 6z m-45 -26
c-3 -5 -12 -10 -18 -10 -7 0 -6 4 3 10 19 12 23 12 15 0z m-76 -34 c-2 -2 -15
-9 -29 -15 -24 -11 -24 -11 -6 3 16 13 49 24 35 12z m251 -20 c0 -2 -8 -10
-17 -17 -16 -13 -17 -12 -4 4 13 16 21 21 21 13z m-311 -10 c-2 -2 -15 -9 -29
-15 -24 -11 -24 -11 -6 3 16 13 49 24 35 12z m-60 -30 c-2 -2 -15 -9 -29 -15
-24 -11 -24 -11 -6 3 16 13 49 24 35 12z m1840 -129 c-2 -1 -13 -9 -24 -17
-19 -14 -19 -14 -6 3 7 9 18 17 24 17 6 0 8 -1 6 -3z m41 -26 c0 -5 10 -11 23
-13 12 -3 -4 -8 -36 -12 -67 -10 -80 -4 -40 18 32 17 53 20 53 7z m-107 -26
c8 -8 33 -17 56 -21 23 -4 41 -10 41 -14 0 -4 -18 -4 -39 0 -22 4 -46 3 -53
-1 -34 -22 -68 1 -54 36 7 19 30 19 49 0z m-948 -75 l18 -40 96 -1 c53 -1 106
0 118 0 11 1 24 -3 28 -9 6 -9 10 -9 17 1 7 10 11 11 14 3 3 -7 14 -10 24 -7
11 3 34 0 51 -6 24 -8 36 -8 45 0 10 9 14 9 14 0 0 -7 25 -11 68 -12 37 0 87
-4 112 -7 l44 -7 -64 -41 c-36 -23 -87 -55 -113 -70 -27 -16 -59 -36 -72 -44
-13 -8 -74 -46 -137 -84 -62 -37 -187 -113 -278 -168 -91 -55 -190 -114 -220
-131 -30 -17 -73 -42 -95 -56 -68 -43 -85 -50 -135 -57 -33 -4 -47 -10 -43
-18 3 -6 0 -5 -8 2 -7 6 -35 12 -61 12 -36 0 -48 4 -48 15 0 8 3 15 8 16 4 0
39 3 77 5 85 5 118 12 110 23 -3 5 1 12 7 14 7 3 -4 6 -24 6 -27 1 -38 -3 -38
-13 0 -9 -9 -14 -21 -13 -19 1 -19 2 -3 14 16 12 14 13 -15 13 -18 0 -30 -3
-28 -7 3 -5 -9 -9 -25 -10 -30 -2 -30 -2 -24 35 3 21 22 92 41 158 20 65 45
151 56 189 12 39 35 112 52 163 l30 92 86 1 c47 0 139 0 204 0 64 0 117 3 117
7 0 4 -4 22 -9 40 -13 45 2 40 24 -8z m955 -6 c0 -8 -5 -12 -10 -9 -6 4 -8 11
-5 16 9 14 15 11 15 -7z m-1020 -734 c0 -5 -12 -10 -27 -9 l-28 1 25 8 c14 4
26 8 28 9 1 1 2 -3 2 -9z m-230 -17 c0 -16 -9 -16 -40 2 l-25 15 33 -2 c18 -1
32 -8 32 -15z m-270 -2 l-35 -7 35 -19 c27 -14 31 -20 17 -23 -19 -4 -87 34
-87 49 0 5 24 8 53 8 47 -1 48 -2 17 -8z m190 -1 c0 -5 -9 -10 -21 -10 -11 0
-17 5 -14 10 3 6 13 10 21 10 8 0 14 -4 14 -10z m-53 -26 c-3 -3 -12 -4 -19
-1 -8 3 -5 6 6 6 11 1 17 -2 13 -5z m-244 -94 c9 0 17 -6 17 -14 0 -9 23 -16
73 -23 l72 -10 -73 -2 c-50 -1 -74 -5 -78 -14 -7 -18 -61 -10 -69 10 -3 9 1
25 8 37 11 18 10 26 -4 56 -28 55 -21 60 9 8 16 -29 34 -48 45 -48z m817 -455
c11 -13 8 -15 -15 -15 -23 0 -26 2 -15 15 7 8 14 15 15 15 1 0 8 -7 15 -15z
m-743 -121 c-3 -3 -12 -4 -19 -1 -8 3 -5 6 6 6 11 1 17 -2 13 -5z m573 -75 c0
-6 -16 -9 -35 -7 -35 2 -46 13 -23 20 18 6 58 -3 58 -13z m-495 -19 c3 -5 -1
-10 -10 -10 -9 0 -13 5 -10 10 3 6 8 10 10 10 2 0 7 -4 10 -10z m408 -27 c-7
-2 -19 -2 -25 0 -7 3 -2 5 12 5 14 0 19 -2 13 -5z m-753 -39 c0 -2 -7 -4 -15
-4 -8 0 -15 4 -15 10 0 5 7 7 15 4 8 -4 15 -8 15 -10z m50 -119 c0 -8 -9 -15
-19 -15 -29 0 -35 18 -9 23 13 2 24 5 26 6 1 0 2 -6 2 -14z m513 8 c2 -5 -4
-16 -15 -25 -17 -17 -18 -17 -18 0 0 27 22 44 33 25z m-533 -97 c0 -3 -4 -8
-10 -11 -5 -3 -10 -1 -10 4 0 6 5 11 10 11 6 0 10 -2 10 -4z m340 -118 c0 -4
-4 -8 -9 -8 -6 0 -12 4 -15 8 -3 5 1 9 9 9 8 0 15 -4 15 -9z m170 -30 c0 -4
-9 -8 -20 -8 -11 0 -20 4 -20 8 0 4 9 8 20 8 11 0 20 -4 20 -8z m-259 -31
c-10 -9 -11 -8 -5 6 3 10 9 15 12 12 3 -3 0 -11 -7 -18z m-166 -7 c-11 -5 -27
-9 -35 -9 -9 0 -8 4 5 9 11 5 27 9 35 9 9 0 8 -4 -5 -9z m-135 -85 c0 -8 -4
-15 -10 -15 -5 0 -7 7 -4 15 4 8 8 15 10 15 2 0 4 -7 4 -15z m154 -45 c7 0 21
-6 32 -14 19 -14 19 -14 -1 -13 -11 1 -22 4 -25 7 -3 3 -16 11 -30 18 -14 7
-17 10 -7 7 10 -3 24 -5 31 -5z m-234 -25 c19 -14 43 -25 54 -25 27 0 17 -6
-22 -13 -24 -5 -31 -3 -26 5 4 6 -5 21 -22 35 -39 31 -27 30 16 -2z m110 -15
c8 -5 11 -10 5 -10 -5 0 -17 5 -25 10 -8 5 -10 10 -5 10 6 0 17 -5 25 -10z
m265 -30 c3 -5 2 -10 -4 -10 -5 0 -13 5 -16 10 -3 6 -2 10 4 10 5 0 13 -4 16
-10z m15 -30 c0 -13 -11 -13 -30 0 -12 8 -11 10 8 10 12 0 22 -4 22 -10z m22
-38 c3 -11 0 -19 -7 -19 -10 0 -12 13 -6 35 3 7 9 0 13 -16z m63 -70 c-3 -3
-10 -1 -16 5 -6 6 -18 9 -25 6 -10 -4 -12 0 -8 11 5 14 8 14 30 -1 14 -9 22
-18 19 -21z m-191 -46 c-9 -29 -9 -29 -36 -14 -12 7 -25 14 -27 15 -12 7 27
29 46 25 19 -4 22 -9 17 -26z"/>
<path d="M3968 9566 c-94 -63 -293 -219 -291 -227 2 -5 -4 -9 -12 -9 -18 0
-285 -198 -285 -211 0 -5 -4 -8 -8 -7 -5 2 -148 -100 -317 -227 -169 -126
-315 -235 -324 -241 -12 -9 0 -14 60 -22 l74 -11 -83 4 -83 3 -127 -95 -127
-95 140 7 c77 4 138 5 135 2 -3 -2 -72 -10 -153 -16 l-149 -12 -136 -102 -135
-102 104 -25 c57 -13 96 -26 87 -28 -10 -2 -42 3 -70 11 -131 37 -126 38 -248
-53 -61 -45 -110 -84 -110 -87 0 -7 13 -18 140 -125 210 -176 334 -281 411
-347 118 -103 132 -112 140 -99 8 12 16 0 23 -34 7 -31 26 -68 35 -66 12 4
121 -82 121 -95 0 -13 -273 8 -380 30 -25 5 -25 5 8 21 29 14 34 14 42 2 6 -8
10 -10 10 -4 0 13 74 34 118 34 37 0 40 4 33 44 -5 26 -21 46 -71 87 -36 30
-67 56 -70 59 -3 3 -32 28 -65 55 -33 28 -62 52 -65 55 -3 3 -45 39 -95 80
-49 41 -137 115 -195 165 -58 50 -117 99 -133 109 l-27 18 -98 -73 c-53 -40
-101 -77 -107 -81 -5 -5 -113 -86 -240 -180 -126 -94 -234 -177 -238 -185 -4
-7 -12 -13 -18 -13 -7 0 -435 -317 -506 -375 -9 -8 -5 -24 17 -69 36 -74 36
-73 62 -50 12 10 18 13 14 7 -4 -7 -2 -13 4 -13 6 0 13 6 16 14 3 7 23 17 46
20 38 6 180 75 204 100 7 6 40 89 75 183 34 95 64 171 67 169 2 -3 -22 -77
-54 -165 -31 -89 -55 -163 -52 -166 3 -3 45 15 93 40 48 25 90 44 92 42 1 -2
-44 -32 -102 -66 -98 -58 -130 -91 -86 -91 10 0 35 7 56 16 20 8 34 11 31 6
-6 -10 62 1 94 15 8 4 24 7 35 8 11 1 38 6 60 12 105 29 123 31 119 14 -3 -9
1 -6 7 7 7 12 21 22 33 21 21 0 21 -1 1 -9 -20 -9 -20 -9 0 -9 11 -1 31 6 44
15 13 10 37 19 54 20 17 2 51 17 76 34 57 36 111 90 90 90 -8 0 -1 12 19 31
46 43 45 52 -4 197 -20 57 -34 105 -31 108 2 3 18 -37 36 -88 45 -132 58 -158
79 -158 10 0 27 -6 37 -14 11 -8 25 -12 32 -9 8 3 13 -3 13 -15 0 -18 8 -21
78 -27 126 -10 174 -17 167 -24 -4 -3 -34 -6 -68 -7 -149 -2 -187 -5 -187 -14
0 -29 89 -42 131 -19 17 9 23 8 30 -2 6 -10 9 -11 9 -1 0 6 6 12 14 12 8 0 17
-6 19 -12 3 -8 6 -6 6 5 1 10 10 17 24 18 12 1 33 3 47 4 14 2 95 -5 180 -16
85 -10 201 -23 257 -30 135 -15 137 -23 40 -138 -137 -163 -116 -148 -220
-154 -88 -6 -161 -13 -199 -21 -10 -2 -18 -1 -18 4 0 12 -63 1 -71 -12 -6 -9
-11 -9 -23 1 -10 9 -26 10 -48 5 -18 -4 -55 -7 -81 -7 -27 1 -46 -1 -43 -4 10
-10 -39 -30 -92 -37 l-52 -7 -1 118 -2 118 -9 -95 c-15 -158 -12 -154 -94
-162 -38 -4 -91 -10 -119 -13 -27 -3 -85 -9 -127 -13 -66 -7 -82 -12 -108 -37
-30 -29 -54 -29 -30 0 10 12 10 15 -4 15 -10 0 -14 5 -10 11 4 7 1 10 -7 7 -8
-3 -13 -11 -11 -18 2 -10 -7 -11 -40 -5 -24 5 -57 9 -75 9 -17 1 -34 4 -38 7
-5 6 178 148 300 232 65 44 79 56 73 62 -2 3 -34 -17 -69 -43 -136 -103 -294
-215 -328 -232 -38 -19 -201 -37 -201 -22 0 5 11 42 25 82 34 99 31 113 -4 20
-42 -113 -48 -121 -76 -114 -15 4 -25 2 -25 -5 0 -17 -63 -1 -81 21 -15 19
-16 19 -16 -11 0 -16 6 -32 14 -35 7 -3 13 -10 13 -15 0 -5 -34 0 -75 10 -50
13 -85 17 -105 12 -30 -8 -28 -9 100 -106 131 -99 819 -606 1575 -1161 226
-166 451 -331 500 -369 63 -47 97 -66 113 -64 17 3 20 1 12 -8 -15 -18 115
-110 150 -107 20 1 22 0 6 -6 -15 -7 34 -46 255 -208 151 -111 284 -206 296
-212 59 -32 127 9 137 80 3 24 12 169 21 323 8 154 24 447 35 650 24 439 26
466 44 795 32 550 32 530 7 530 -34 0 -111 21 -111 31 0 4 16 25 35 46 19 21
35 41 35 45 0 3 18 29 41 58 22 28 38 54 36 57 -3 2 -24 -19 -47 -48 -68 -87
-127 -149 -141 -149 -13 0 -75 20 -494 155 -363 117 -355 114 -355 133 0 16
78 57 310 166 25 11 63 32 85 45 44 28 48 29 120 37 28 4 58 11 68 16 9 5 22
6 27 3 5 -3 17 -1 27 4 10 5 63 14 118 20 102 12 146 17 155 21 3 1 19 1 36 0
27 -1 37 6 76 59 l45 61 7 122 c4 68 10 152 13 187 l6 64 -39 -7 c-91 -16
-100 -16 -79 -7 11 4 41 11 67 15 l46 7 7 82 c3 45 7 140 8 210 l2 129 -48 18
c-48 18 -49 18 -69 -2 -13 -13 -29 -18 -44 -15 -17 3 -28 -2 -38 -18 -8 -12
-21 -28 -28 -36 -7 -8 -45 -55 -84 -105 -87 -110 -89 -113 -156 -192 -130
-156 -133 -161 -87 -173 23 -7 23 -7 2 -8 -13 -1 -23 -7 -23 -13 0 -26 -18
-40 -55 -43 -20 -2 -44 -12 -52 -22 -14 -16 -14 -16 -1 7 15 28 13 70 -4 70
-6 0 2 12 17 26 19 17 35 24 49 20 25 -6 94 69 277 304 62 80 116 147 119 150
14 11 31 51 25 60 -3 6 -39 11 -78 12 -69 1 -70 1 -22 7 l50 7 -65 7 c-36 4
-81 9 -100 11 -19 2 19 2 85 -1 113 -4 122 -3 139 16 23 25 39 26 75 5 25 -15
30 -15 59 0 45 23 64 19 22 -5 -28 -16 -30 -19 -10 -15 14 3 33 6 42 6 12 0
18 8 17 23 0 12 11 211 25 442 32 522 32 551 7 565 -25 13 -23 14 -63 -14z
m-208 -456 c0 -5 -4 -10 -10 -10 -5 0 -10 5 -10 10 0 6 5 10 10 10 6 0 10 -4
10 -10z m-660 -515 l115 -14 -110 5 c-60 3 -137 9 -170 13 l-60 8 55 1 c30 0
107 -6 170 -13z m375 -35 c48 -7 38 -8 -45 -4 -58 3 -130 9 -160 14 -43 7 -34
8 45 4 55 -3 127 -10 160 -14z m90 -60 c-87 -9 -307 -20 -280 -14 36 8 208 21
280 21 l70 0 -70 -7z m-375 -31 c-36 -4 -121 -10 -190 -12 l-125 -6 120 13
c66 7 152 13 190 13 l70 0 -65 -8z m-353 -26 c-20 -2 -52 -2 -70 0 -17 2 0 4
38 4 39 0 53 -2 32 -4z m-444 -300 c-7 -2 -19 -2 -25 0 -7 3 -2 5 12 5 14 0
19 -2 13 -5z m102 -18 l40 -14 -45 6 c-25 3 -54 9 -65 14 -36 14 25 9 70 -6z
m150 -36 c36 -14 -25 -9 -70 6 l-40 14 45 -6 c25 -3 54 -9 65 -14z m58 -16
c-7 -2 -19 -2 -25 0 -7 3 -2 5 12 5 14 0 19 -2 13 -5z m80 -10 c-7 -2 -19 -2
-25 0 -7 3 -2 5 12 5 14 0 19 -2 13 -5z m50 -10 c-7 -2 -19 -2 -25 0 -7 3 -2
5 12 5 14 0 19 -2 13 -5z m122 -24 c13 -6 4 -7 -25 -3 -25 4 -54 10 -65 15
-13 6 -4 7 25 3 25 -4 54 -10 65 -15z m130 -30 c13 -6 4 -7 -25 -3 -25 4 -54
10 -65 15 -13 6 -4 7 25 3 25 -4 54 -10 65 -15z m710 12 c-11 -5 -42 -11 -70
-14 l-50 -6 50 14 c28 7 59 13 70 13 l20 1 -20 -8z m-652 -28 c-7 -2 -19 -2
-25 0 -7 3 -2 5 12 5 14 0 19 -2 13 -5z m510 0 c-7 -2 -19 -2 -25 0 -7 3 -2 5
12 5 14 0 19 -2 13 -5z m-1127 -12 c7 -1 14 -10 17 -20 4 -15 16 -21 48 -24
l44 -4 -47 -1 c-32 -1 -51 -8 -60 -20 -10 -13 -20 -16 -43 -11 -16 4 -26 7
-21 8 5 0 3 7 -3 15 -16 19 13 66 37 61 9 -2 22 -4 28 -4z m739 -12 c13 -6 4
-7 -25 -3 -25 4 -54 10 -65 15 -13 6 -4 7 25 3 25 -4 54 -10 65 -15z m290 6
c-54 -14 -92 -18 -83 -10 7 7 87 23 113 23 11 0 -2 -6 -30 -13z m-1828 -229
c-4 -11 -37 79 -36 98 0 6 9 -11 20 -38 11 -27 18 -54 16 -60z m1551 75 c-7
-12 -16 -21 -21 -21 -4 0 0 11 10 24 22 29 30 27 11 -3z m-63 -78 c-44 -60
-105 -130 -105 -121 0 3 21 30 46 60 25 29 53 65 62 81 9 15 20 27 24 27 4 0
-8 -21 -27 -47z m685 33 c0 -2 -7 -7 -16 -10 -8 -3 -12 -2 -9 4 6 10 25 14 25
6z m-2141 -106 c0 -9 -6 -4 -14 10 -8 14 -14 32 -14 40 0 9 6 4 14 -10 8 -14
14 -32 14 -40z m1351 -63 c0 -2 -12 -14 -27 -28 l-28 -24 24 28 c23 25 31 32
31 24z m125 -78 c45 -21 64 -34 57 -41 -7 -7 -32 2 -76 27 -36 20 -66 39 -66
41 0 9 22 2 85 -27z m-172 -156 c-106 -53 -195 -94 -199 -91 -3 3 3 17 14 30
85 101 101 116 105 105 4 -9 8 -8 16 3 5 8 13 12 16 8 3 -3 23 -1 43 4 20 5
49 9 64 9 15 -1 30 3 33 9 4 6 11 8 16 5 5 -4 9 -3 9 2 0 4 17 9 38 10 30 2 1
-16 -155 -94z m-133 40 c0 -3 -18 -30 -39 -58 -54 -72 -87 -78 -148 -28 -37
31 -42 38 -28 46 9 5 25 7 36 4 10 -3 19 -2 19 2 0 4 8 7 18 7 36 -1 122 17
122 25 0 5 5 9 10 9 6 0 10 -3 10 -7z m-567 -110 c-7 -2 -21 -2 -30 0 -10 3
-4 5 12 5 17 0 24 -2 18 -5z m902 -216 c182 -60 333 -115 337 -121 4 -6 8 -8
8 -5 0 4 21 2 47 -5 57 -14 69 -36 21 -36 -47 0 -79 -10 -72 -24 3 -6 -6 1
-20 17 -14 15 -31 27 -38 27 -9 0 -9 -3 2 -11 11 -8 7 -9 -17 -5 -33 6 -47 -3
-78 -46 -18 -27 -31 -18 -15 11 12 24 13 24 -66 21 -29 -1 -55 3 -59 9 -3 7 2
11 14 11 12 0 21 5 21 11 0 6 -7 9 -15 5 -21 -8 -19 11 3 24 14 9 12 10 -13 5
-16 -3 -49 -6 -72 -7 -24 -1 -43 -5 -43 -10 0 -5 -6 -6 -12 -1 -7 4 -78 8
-158 9 l-145 1 -29 107 c-29 104 -29 107 -10 121 26 20 29 19 409 -108z m-436
66 c6 -21 17 -63 26 -95 23 -86 21 -98 -17 -99 -18 -1 -44 0 -57 1 -18 1 -22
-2 -18 -14 4 -9 9 -39 12 -68 l6 -53 -17 30 c-10 17 -19 36 -20 44 -10 60 -11
61 -75 61 l-61 0 17 28 c10 15 25 34 34 43 9 9 42 48 75 88 32 39 65 71 72 71
7 0 18 -17 23 -37z m44 -234 c-10 -4 -31 -7 -48 -7 -29 0 -29 0 -5 8 14 4 21
9 15 10 -5 1 -1 5 10 9 12 5 26 4 33 -2 11 -9 11 -12 -5 -18z m87 5 c0 -2 -11
-4 -25 -4 -14 0 -25 4 -25 9 0 4 11 6 25 3 14 -2 25 -6 25 -8z m238 -1 c-10
-2 -26 -2 -35 0 -10 3 -2 5 17 5 19 0 27 -2 18 -5z m-95 -20 c-7 -2 -21 -2
-30 0 -10 3 -4 5 12 5 17 0 24 -2 18 -5z m-136 -9 c-3 -3 -12 -4 -19 -1 -8 3
-5 6 6 6 11 1 17 -2 13 -5z m-972 -24 c3 -5 2 -10 -4 -10 -5 0 -13 5 -16 10
-3 6 -2 10 4 10 5 0 13 -4 16 -10z m-1115 -120 c12 -8 9 -10 -12 -10 -15 0
-30 5 -33 10 -8 13 25 13 45 0z m2196 -503 c4 -13 11 -16 22 -11 24 9 66 6 70
-6 2 -6 9 -16 16 -23 7 -6 11 -29 10 -49 -2 -21 2 -38 7 -38 6 0 8 -4 4 -10
-3 -5 -12 -7 -19 -4 -20 8 -30 -14 -16 -31 8 -10 9 -15 2 -15 -6 0 -14 5 -17
10 -12 20 -34 10 -37 -17 l-3 -28 -22 25 c-13 13 -23 20 -23 14 0 -5 -5 -2
-10 6 -7 12 -13 11 -34 -10 -30 -28 -35 -19 -6 10 27 27 25 40 -7 41 -28 0
-28 1 -5 11 27 13 28 24 5 31 -10 3 -36 13 -58 22 -32 12 -34 15 -10 10 17 -3
41 -9 54 -12 22 -5 23 -3 19 21 -5 25 -3 27 18 22 13 -3 26 -1 30 6 5 7 3 8
-6 3 -10 -6 -12 -4 -7 7 5 14 1 15 -27 7 -42 -12 -86 -8 -86 7 0 16 10 19 75
19 45 0 56 -3 61 -18z m649 3 c-3 -5 -14 -10 -23 -10 -15 0 -15 2 -2 10 20 13
33 13 25 0z m-264 -63 c-7 -7 -14 -7 -24 1 -8 7 -18 8 -22 4 -5 -4 -5 -2 -2 5
4 6 17 9 30 7 12 -2 16 -1 8 2 -11 5 -11 8 0 15 17 11 26 -18 10 -34z m277 5
c2 -7 -2 -10 -12 -6 -9 3 -16 11 -16 16 0 13 23 5 28 -10z m-413 -22 c-10 -11
-29 -19 -44 -19 -23 2 -23 2 -4 6 12 2 27 11 33 19 7 8 17 14 23 14 5 0 2 -9
-8 -20z m305 -106 c0 -2 -9 -4 -20 -4 -11 0 -20 4 -20 9 0 5 9 7 20 4 11 -3
20 -7 20 -9z m10 -30 c0 -8 -4 -12 -10 -9 -5 3 -10 10 -10 16 0 5 5 9 10 9 6
0 10 -7 10 -16z m90 3 c0 -7 -12 -13 -27 -15 l-28 -1 25 14 c31 18 30 18 30 2z
m-770 -7 c0 -5 -4 -10 -10 -10 -5 0 -10 5 -10 10 0 6 5 10 10 10 6 0 10 -4 10
-10z m311 -26 c7 -8 6 -14 -1 -19 -6 -3 -8 -11 -5 -16 13 -19 -39 -8 -66 15
-24 21 -26 25 -11 29 30 8 73 3 83 -9z m369 -24 c0 -5 -4 -10 -10 -10 -5 0
-10 5 -10 10 0 6 5 10 10 10 6 0 10 -4 10 -10z m165 -10 c-3 -5 -11 -10 -16
-10 -6 0 -7 5 -4 10 3 6 11 10 16 10 6 0 7 -4 4 -10z m-990 -50 c3 -5 -1 -10
-10 -10 -9 0 -13 5 -10 10 3 6 8 10 10 10 2 0 7 -4 10 -10z m195 -10 c0 -5 -4
-10 -10 -10 -5 0 -10 5 -10 10 0 6 5 10 10 10 6 0 10 -4 10 -10z m180 -10 c0
-5 -2 -10 -4 -10 -3 0 -8 5 -11 10 -3 6 -1 10 4 10 6 0 11 -4 11 -10z m-560
-14 c0 -3 -4 -8 -10 -11 -5 -3 -10 -1 -10 4 0 6 5 11 10 11 6 0 10 -2 10 -4z
m1075 -16 c3 -5 1 -10 -4 -10 -6 0 -11 5 -11 10 0 6 2 10 4 10 3 0 8 -4 11
-10z m-645 -20 c0 -5 -4 -10 -10 -10 -5 0 -10 5 -10 10 0 6 5 10 10 10 6 0 10
-4 10 -10z m457 -6 c-3 -3 -12 -4 -19 -1 -8 3 -5 6 6 6 11 1 17 -2 13 -5z
m-774 -11 c-7 -2 -19 -2 -25 0 -7 3 -2 5 12 5 14 0 19 -2 13 -5z m87 3 c0 -2
-7 -6 -15 -10 -8 -3 -15 -1 -15 4 0 6 7 10 15 10 8 0 15 -2 15 -4z m190 -66
c0 -5 -4 -10 -10 -10 -5 0 -10 5 -10 10 0 6 5 10 10 10 6 0 10 -4 10 -10z
m620 -30 c0 -5 -7 -10 -15 -10 -8 0 -15 5 -15 10 0 6 7 10 15 10 8 0 15 -4 15
-10z m-137 -43 c23 -9 21 -20 -6 -33 -22 -10 -23 -8 -25 25 -1 20 1 31 5 25 5
-6 16 -13 26 -17z m-193 -7 c0 -5 -4 -10 -10 -10 -5 0 -10 5 -10 10 0 6 5 10
10 10 6 0 10 -4 10 -10z m125 -30 c3 -5 1 -10 -4 -10 -6 0 -11 5 -11 10 0 6 2
10 4 10 3 0 8 -4 11 -10z m155 -31 c0 -14 -17 -10 -23 5 -4 10 -1 13 9 9 7 -3
14 -9 14 -14z m220 -10 c0 -11 -28 -24 -36 -17 -2 3 -2 12 2 21 6 16 34 12 34
-4z m-895 -19 c3 -6 -1 -13 -10 -16 -19 -8 -30 0 -20 15 8 14 22 14 30 1z
m-65 -24 c0 -11 -19 -15 -25 -6 -3 5 1 10 9 10 9 0 16 -2 16 -4z m647 -69 c0
-8 -6 -14 -14 -14 -17 0 -17 14 0 20 6 3 12 6 13 6 0 1 1 -5 1 -12z m-82 -31
c-31 -21 -68 -30 -63 -15 2 6 15 14 28 16 13 2 26 6 29 8 2 3 9 5 15 5 6 0 2
-6 -9 -14z m354 10 c-2 -2 -19 -11 -36 -20 -28 -14 -33 -14 -33 -2 0 8 8 17
18 19 22 6 57 8 51 3z m-649 -21 c0 -8 -9 -15 -20 -15 -13 0 -18 5 -14 15 4 8
12 15 20 15 8 0 14 -7 14 -15z m-321 -19 c-2 -2 -15 -6 -29 -10 -25 -6 -25 -6
-2 5 12 7 22 17 23 23 0 6 3 5 6 -2 3 -7 3 -15 2 -16z m749 8 c13 -3 20 -8 17
-13 -6 -10 23 -23 35 -16 5 3 11 1 14 -3 3 -5 -2 -9 -12 -8 -30 3 -122 30
-122 36 0 7 38 10 68 4z m128 -5 c3 -6 1 -16 -6 -22 -10 -9 -12 -8 -7 5 3 9 1
19 -6 22 -9 3 -9 5 0 5 6 1 15 -4 19 -10z m-1142 -20 c-27 -11 -34 -10 -34 0
0 11 31 20 44 13 5 -3 1 -9 -10 -13z m792 8 c4 -4 -2 -7 -14 -7 -12 0 -22 4
-22 9 0 10 26 9 36 -2z m-686 -7 c0 -4 -8 -14 -17 -21 -10 -7 -15 -9 -11 -5 4
5 1 14 -7 20 -13 9 -11 11 10 12 14 1 25 -2 25 -6z m273 3 c-7 -2 -19 -2 -25
0 -7 3 -2 5 12 5 14 0 19 -2 13 -5z m-207 -26 c4 -4 -2 -7 -14 -7 -11 0 -23 4
-26 8 -6 10 30 9 40 -1z m574 -34 c0 -5 -4 -14 -9 -21 -7 -11 -9 -11 -14 1 -3
8 -3 18 0 21 9 8 23 7 23 -1z m-590 -33 c12 -8 11 -10 -7 -10 -13 0 -23 5 -23
10 0 13 11 13 30 0z m567 -52 c-3 -8 -6 -5 -6 6 -1 11 2 17 5 13 3 -3 4 -12 1
-19z m-402 -28 c3 -6 -4 -10 -17 -10 -18 0 -20 2 -8 10 19 12 18 12 25 0z
m349 -21 c-11 -13 -27 -19 -41 -16 -12 2 -20 1 -18 -4 3 -4 -18 -12 -47 -18
-28 -7 -59 -17 -67 -23 -9 -7 -5 0 8 15 15 17 31 25 41 22 9 -3 28 3 41 14 24
19 49 28 83 30 19 1 19 1 0 -20z m-213 -102 c-10 -9 -11 -8 -5 6 3 10 9 15 12
12 3 -3 0 -11 -7 -18z m413 -76 c-7 -8 -35 9 -29 19 4 6 11 5 20 -3 7 -6 11
-14 9 -16z m-154 -26 c-7 -8 -17 -12 -23 -8 -6 4 -3 9 9 14 27 11 28 11 14 -6z
m473 -309 c4 -10 0 -12 -14 -9 -10 3 -16 9 -13 14 8 13 21 11 27 -5z m-48 -56
c3 -5 1 -10 -4 -10 -6 0 -11 5 -11 10 0 6 2 10 4 10 3 0 8 -4 11 -10z"/>
<path d="M3360 6960 c0 -5 7 -10 15 -10 8 0 14 -3 13 -7 -2 -5 2 -9 7 -10 13
-4 14 20 0 29 -15 11 -35 10 -35 -2z"/>
<path d="M3528 6953 c7 -3 16 -2 19 1 4 3 -2 6 -13 5 -11 0 -14 -3 -6 -6z"/>
<path d="M7983 9143 c-25 -26 -54 -61 -66 -77 l-21 -29 32 6 c46 9 40 0 -8
-13 -36 -10 -58 -32 -183 -182 -78 -95 -164 -200 -192 -235 -27 -34 -154 -188
-281 -340 -589 -710 -679 -822 -666 -835 6 -6 40 -13 76 -15 36 -3 66 -9 66
-14 0 -14 32 2 86 43 68 51 78 48 24 -7 -30 -31 -39 -46 -29 -49 25 -7 143
-28 167 -30 12 0 22 -4 22 -7 0 -7 62 -19 98 -19 12 0 45 -9 72 -19 28 -11 50
-15 50 -10 0 6 8 5 20 -1 15 -8 20 -8 20 2 0 10 2 10 9 0 4 -7 35 -17 67 -23
99 -15 105 -16 109 -21 4 -4 -116 -37 -285 -79 -41 -10 -102 -26 -135 -34 -33
-9 -94 -25 -135 -35 -41 -10 -129 -32 -195 -50 -131 -35 -134 -36 -315 -80
-69 -17 -133 -33 -144 -36 -11 -4 -16 -2 -12 4 3 5 -1 13 -10 16 -22 9 -24 8
-24 -10 0 -8 -4 -12 -10 -9 -5 3 -10 0 -10 -8 0 -8 -10 -17 -21 -20 -15 -4
-20 -11 -15 -22 4 -11 0 -19 -11 -22 -17 -5 -141 -148 -381 -442 l-104 -126
84 -6 83 -5 -87 -2 c-65 -2 -91 -6 -103 -18 -44 -44 -340 -408 -338 -415 2 -5
-1 -9 -6 -9 -6 0 -128 -142 -271 -316 -195 -236 -259 -319 -248 -325 7 -5 28
-12 46 -15 18 -3 35 -11 39 -17 10 -17 -65 0 -84 18 -20 20 -8 32 -177 -175
-70 -85 -135 -164 -145 -175 -94 -107 -299 -365 -290 -365 8 0 8 -4 -1 -15
-19 -23 -4 -64 26 -71 14 -4 467 47 1006 112 867 105 982 121 986 137 2 9 8
17 13 17 5 0 6 -7 3 -15 -7 -18 1 -18 98 -5 65 9 237 30 613 75 66 8 269 32
450 55 488 59 731 88 915 110 355 42 666 80 686 85 29 7 72 51 79 84 5 24
-114 556 -220 981 -14 58 -55 231 -90 385 -87 377 -79 351 -118 360 l-32 8 28
4 c51 8 27 20 -60 31 -342 43 -367 46 -371 34 -2 -7 -15 -12 -28 -12 -13 0
-24 -6 -24 -12 0 -8 -4 -7 -10 3 -6 11 -18 15 -35 12 -17 -4 -27 0 -31 11 -8
21 -23 20 -40 -1 -8 -11 -13 -13 -14 -5 0 6 -5 12 -11 12 -5 0 -7 -4 -4 -10 3
-6 -5 -10 -18 -10 -14 0 -27 7 -31 15 -4 10 1 15 15 15 11 0 17 5 14 10 -4 6
-18 10 -33 9 -15 -1 -90 3 -167 9 -264 21 -323 23 -330 12 -10 -15 -80 -12
-185 10 -109 23 -205 27 -194 8 5 -8 2 -9 -9 -5 -10 3 -17 2 -17 -3 0 -5 10
-12 23 -16 21 -7 21 -7 2 -15 -14 -6 -8 -7 22 -6 23 1 42 -2 43 -7 0 -12 -82
-14 -99 -2 -7 6 -18 11 -25 12 -6 1 -20 5 -31 10 -16 6 -15 3 5 -14 l25 -22
-25 5 c-75 14 -335 25 -352 14 -7 -4 -19 -4 -29 1 -9 5 -42 10 -73 11 -31 1
-59 5 -61 10 -3 4 -21 7 -41 7 -27 0 -33 -3 -23 -10 9 -6 2 -7 -21 -2 -19 4
-52 7 -72 6 -49 -3 -49 13 0 25 32 8 41 7 51 -6 11 -14 11 -14 7 2 -4 12 -2
16 5 11 6 -4 15 -1 19 5 4 7 31 18 61 26 30 7 115 29 189 49 359 93 897 227
915 227 11 0 38 -4 60 -11 22 -6 65 -13 95 -17 30 -3 62 -9 70 -13 8 -4 34
-11 58 -15 l44 -7 -29 43 c-15 24 -34 50 -40 57 -21 21 -15 24 10 6 12 -10 38
-37 57 -61 19 -24 46 -46 60 -49 14 -3 37 -10 52 -16 15 -5 32 -7 37 -3 6 3
11 -2 11 -12 0 -15 2 -16 10 -3 9 13 10 13 10 0 0 -13 2 -13 9 -1 8 13 13 11
28 -7 11 -13 34 -23 58 -26 22 -3 58 -9 80 -15 27 -7 43 -7 52 1 9 7 13 7 13
-2 0 -7 7 -10 15 -6 8 3 15 1 15 -5 0 -6 5 -7 10 -4 6 4 17 2 24 -4 7 -6 35
-12 63 -15 28 -2 55 -6 61 -9 5 -4 24 -8 43 -9 19 -1 40 -8 48 -16 7 -7 15
-11 17 -10 5 5 -63 313 -161 733 -48 204 -113 485 -146 625 -33 140 -87 372
-120 514 -33 143 -62 263 -65 267 -3 5 -14 14 -26 20 -17 9 -26 4 -65 -38z
m77 -68 c0 -6 -73 -25 -78 -20 -2 2 11 8 29 14 41 11 49 12 49 6z m40 -170 c0
-2 -10 -9 -22 -15 -22 -11 -22 -10 -4 4 21 17 26 19 26 11z m-945 -1245 c-3
-5 -11 -10 -16 -10 -6 0 -7 5 -4 10 3 6 11 10 16 10 6 0 7 -4 4 -10z m-60
-730 c-3 -5 -12 -7 -20 -3 -21 7 -19 13 6 13 11 0 18 -4 14 -10z m62 -6 c-3
-3 -12 -4 -19 -1 -8 3 -5 6 6 6 11 1 17 -2 13 -5z m-927 -14 c0 -5 -5 -10 -11
-10 -6 0 -34 -16 -61 -36 -27 -20 -51 -34 -54 -32 -2 3 16 24 41 47 41 38 85
54 85 31z m955 -37 c-11 -3 -25 -9 -32 -15 -7 -5 -13 -5 -17 1 -7 10 16 19 49
19 l20 0 -20 -5z m645 -33 c0 -5 -5 -10 -11 -10 -5 0 -7 5 -4 10 3 6 8 10 11
10 2 0 4 -4 4 -10z m-935 -10 c3 -5 2 -10 -4 -10 -5 0 -13 5 -16 10 -3 6 -2
10 4 10 5 0 13 -4 16 -10z m863 2 c8 -6 -8 -12 -43 -19 -62 -11 -75 0 -17 15
49 13 45 13 60 4z m-748 -42 c0 -5 -4 -10 -10 -10 -5 0 -10 5 -10 10 0 6 5 10
10 10 6 0 10 -4 10 -10z m-183 -176 c-3 -3 -12 -4 -19 -1 -8 3 -5 6 6 6 11 1
17 -2 13 -5z m33 -134 c0 -5 -2 -10 -4 -10 -3 0 -8 5 -11 10 -3 6 -1 10 4 10
6 0 11 -4 11 -10z m1315 -110 c-3 -5 -12 -10 -18 -10 -7 0 -6 4 3 10 19 12 23
12 15 0z m-885 -30 c0 -5 -2 -10 -4 -10 -3 0 -8 5 -11 10 -3 6 -1 10 4 10 6 0
11 -4 11 -10z m-1085 -10 c3 -5 1 -10 -4 -10 -6 0 -11 5 -11 10 0 6 2 10 4 10
3 0 8 -4 11 -10z m892 4 c-3 -3 -12 -4 -19 -1 -8 3 -5 6 6 6 11 1 17 -2 13 -5z
m-14 -91 c-7 -2 -19 -2 -25 0 -7 3 -2 5 12 5 14 0 19 -2 13 -5z m722 -23 c3
-5 -3 -10 -14 -10 -12 0 -21 5 -21 10 0 6 6 10 14 10 8 0 18 -4 21 -10z m-855
-9 c0 -4 -11 -6 -25 -3 -14 2 -25 6 -25 8 0 2 11 4 25 4 14 0 25 -4 25 -9z
m-744 -68 c-10 -11 -36 -12 -36 -2 0 5 10 9 22 9 12 0 18 -3 14 -7z m609 -53
c3 -5 -3 -10 -15 -10 -12 0 -18 5 -15 10 3 6 10 10 15 10 5 0 12 -4 15 -10z
m-258 -96 c-7 -7 -37 7 -37 17 0 6 9 5 21 -1 11 -7 19 -14 16 -16z m420 -36
c-3 -8 -6 -5 -6 6 -1 11 2 17 5 13 3 -3 4 -12 1 -19z m763 1 c0 -5 -4 -8 -9
-4 -5 3 -12 1 -16 -5 -3 -5 -1 -10 6 -10 7 0 10 -3 7 -6 -10 -9 -49 16 -43 27
8 12 55 12 55 -2z m-1020 -14 c-7 -8 -17 -12 -22 -9 -6 4 -5 10 3 15 22 14 33
10 19 -6z m-167 -50 c0 -6 -7 -11 -16 -13 -12 -3 -15 1 -11 13 7 17 25 17 27
0z m482 5 c4 -6 -5 -10 -20 -10 -15 0 -24 4 -20 10 3 6 12 10 20 10 8 0 17 -4
20 -10z m222 -6 c-3 -3 -12 -4 -19 -1 -8 3 -5 6 6 6 11 1 17 -2 13 -5z m-517
-14 c0 -5 -7 -7 -15 -4 -8 4 -15 8 -15 10 0 2 7 4 15 4 8 0 15 -4 15 -10z
m547 -16 c-3 -3 -12 -4 -19 -1 -8 3 -5 6 6 6 11 1 17 -2 13 -5z m-37 -48 c0
-11 -19 -15 -25 -6 -3 5 1 10 9 10 9 0 16 -2 16 -4z m-832 -24 c6 -18 -15 -14
-22 4 -4 10 -1 14 6 12 6 -2 14 -10 16 -16z m-261 -8 c-3 -3 -12 -4 -19 -1 -8
3 -5 6 6 6 11 1 17 -2 13 -5z m133 -33 c0 -17 -18 -21 -24 -6 -3 9 0 15 9 15
8 0 15 -4 15 -9z m-540 -81 c0 -5 -7 -10 -16 -10 -8 0 -12 5 -9 10 3 6 10 10
16 10 5 0 9 -4 9 -10z m-545 -80 c-3 -5 -15 -10 -26 -10 -10 0 -19 5 -19 10 0
6 12 10 26 10 14 0 23 -4 19 -10z m1480 0 c3 -5 1 -10 -4 -10 -6 0 -11 5 -11
10 0 6 2 10 4 10 3 0 8 -4 11 -10z m545 6 c0 -2 -7 -6 -15 -10 -8 -3 -15 -1
-15 4 0 6 7 10 15 10 8 0 15 -2 15 -4z m317 -2 c-3 -3 -12 -4 -19 -1 -8 3 -5
6 6 6 11 1 17 -2 13 -5z m238 -34 c3 -5 1 -10 -4 -10 -6 0 -11 5 -11 10 0 6 2
10 4 10 3 0 8 -4 11 -10z m-1970 -10 c3 -5 -1 -10 -10 -10 -9 0 -13 5 -10 10
3 6 8 10 10 10 2 0 7 -4 10 -10z m1875 -55 c0 -8 -8 -15 -17 -14 -11 0 -13 3
-5 6 6 2 10 9 6 14 -3 5 0 9 5 9 6 0 11 -7 11 -15z m-1655 -75 c-3 -5 -16 -10
-28 -9 -20 1 -20 2 3 9 14 4 26 8 28 9 2 1 0 -3 -3 -9z m1962 -16 c-3 -3 -12
-4 -19 -1 -8 3 -5 6 6 6 11 1 17 -2 13 -5z m-2447 -40 c0 -2 -9 -4 -21 -4 -11
0 -18 4 -14 10 5 8 35 3 35 -6z m2665 -4 c3 -6 -1 -7 -9 -4 -18 7 -21 14 -7
14 6 0 13 -4 16 -10z m-2941 -75 c-4 -8 -8 -15 -10 -15 -2 0 -4 7 -4 15 0 8 4
15 10 15 5 0 7 -7 4 -15z m59 8 c-7 -2 -19 -2 -25 0 -7 3 -2 5 12 5 14 0 19
-2 13 -5z m1682 -101 c-3 -3 -11 0 -18 7 -9 10 -8 11 6 5 10 -3 15 -9 12 -12z
m-790 -14 c35 -30 31 -40 -7 -20 -18 9 -37 17 -43 18 -5 0 -23 2 -40 4 l-30 3
35 7 c55 12 58 11 85 -12z m-705 -38 c0 -24 -6 -25 -26 -6 -11 11 -11 16 -1
19 22 10 27 7 27 -13z m-640 -10 c13 -8 13 -10 -2 -10 -9 0 -20 5 -23 10 -8
13 5 13 25 0z m104 -23 c17 -16 22 -27 16 -38 -14 -21 -42 0 -46 34 -3 33 -2
33 30 4z m1229 -14 c-7 -2 -19 -2 -25 0 -7 3 -2 5 12 5 14 0 19 -2 13 -5z
m2384 -6 c2 -3 -5 -8 -17 -12 -15 -5 -28 -1 -39 10 -15 15 -14 16 17 12 19 -3
36 -8 39 -10z m-1937 -20 c0 -5 6 -5 13 -1 6 4 3 -2 -8 -13 -18 -18 -22 -18
-42 -5 -13 8 -21 17 -19 21 6 9 56 7 56 -2z m1305 3 c-3 -5 -12 -10 -18 -10
-7 0 -6 4 3 10 19 12 23 12 15 0z m-2790 -30 c3 -5 1 -10 -4 -10 -6 0 -11 5
-11 10 0 6 2 10 4 10 3 0 8 -4 11 -10z m-400 -40 c3 -5 1 -10 -4 -10 -6 0 -11
5 -11 10 0 6 2 10 4 10 3 0 8 -4 11 -10z m2200 -80 c3 -5 2 -10 -4 -10 -5 0
-13 5 -16 10 -3 6 -2 10 4 10 5 0 13 -4 16 -10z m-955 -15 c10 -12 10 -15 -4
-15 -9 0 -16 7 -16 15 0 8 2 15 4 15 2 0 9 -7 16 -15z m-400 -5 c0 -5 -2 -10
-4 -10 -3 0 -8 5 -11 10 -3 6 -1 10 4 10 6 0 11 -4 11 -10z m-214 -27 c-10
-10 -19 5 -10 18 6 11 8 11 12 0 2 -7 1 -15 -2 -18z m-693 -13 c5 -18 4 -18
-19 -3 -13 8 -31 13 -39 9 -9 -3 -13 -2 -10 4 12 19 62 11 68 -10z m2604 14
c-3 -3 -12 -4 -19 -1 -8 3 -5 6 6 6 11 1 17 -2 13 -5z m-1649 -29 c14 -29 7
-31 -44 -8 -38 16 -38 16 -14 24 41 12 46 10 58 -16z m-117 -3 c-13 -2 -27 0
-32 5 -6 6 3 7 23 4 28 -4 29 -6 9 -9z m1099 -7 c0 -8 -4 -15 -10 -15 -5 0 -7
7 -4 15 4 8 8 15 10 15 2 0 4 -7 4 -15z m-2000 -30 c0 -8 -7 -15 -15 -15 -26
0 -18 20 13 29 1 1 2 -6 2 -14z m-165 -25 c-3 -5 -13 -10 -21 -10 -8 0 -12 5
-9 10 3 6 13 10 21 10 8 0 12 -4 9 -10z m179 -25 c3 -8 1 -15 -4 -15 -6 0 -10
7 -10 15 0 8 2 15 4 15 2 0 6 -7 10 -15z m-56 -33 c2 -7 -5 -12 -15 -11 -12 0
-14 2 -4 6 11 5 11 7 0 15 -12 8 -12 9 0 6 8 -3 17 -10 19 -16z m1872 -2 c0
-5 -9 -10 -21 -10 -11 0 -17 5 -14 10 3 6 13 10 21 10 8 0 14 -4 14 -10z"/>
<path d="M3920 8530 c-30 -6 -32 -8 -15 -15 94 -38 95 -38 95 2 0 25 -12 27
-80 13z"/>
<path d="M821 8247 c-52 -149 -96 -278 -99 -285 -3 -8 50 14 117 48 68 34 124
60 126 58 2 -2 -52 -32 -120 -67 -69 -35 -128 -68 -133 -75 -20 -26 -181 -516
-175 -532 4 -11 3 -15 -5 -10 -7 4 -19 -19 -33 -63 -19 -58 -20 -72 -10 -85
18 -22 54 -20 76 4 17 19 17 21 -4 71 -12 28 -20 53 -18 55 2 3 14 -18 26 -47
14 -32 27 -49 35 -46 25 10 686 508 699 528 8 10 16 16 20 13 3 -3 69 43 148
103 78 59 161 122 184 138 23 17 54 39 69 50 l27 20 -60 50 c-33 28 -64 50
-68 50 -5 1 -19 7 -31 14 -13 7 -27 10 -30 6 -4 -3 8 -48 25 -98 17 -51 30
-94 27 -96 -2 -2 -7 7 -13 20 -53 135 -68 162 -93 165 -20 2 -29 -4 -37 -24
-5 -15 -34 -90 -64 -167 -30 -77 -60 -158 -67 -180 -7 -22 -15 -35 -17 -29 -2
5 15 59 38 120 108 285 118 318 91 329 -11 5 -90 -30 -237 -104 -121 -62 -224
-112 -230 -111 -5 0 3 7 19 15 120 63 350 183 389 204 28 15 45 31 42 38 -2 7
0 13 6 13 36 0 -23 25 -164 71 -89 28 -201 64 -250 80 -48 16 -93 29 -100 29
-7 0 -51 -114 -106 -273z"/>
<path d="M3917 7590 c-18 -29 -18 -30 2 -30 17 0 21 6 21 30 0 17 -1 30 -3 30
-1 0 -11 -13 -20 -30z"/>
<path d="M1742 7226 c-46 -33 -51 -40 -22 -31 25 7 83 55 65 55 -6 -1 -25 -11
-43 -24z"/>
<path d="M1863 7145 c0 -22 2 -30 4 -17 2 12 2 30 0 40 -3 9 -5 -1 -4 -23z"/>
<path d="M1579 7123 c-13 -15 -12 -15 9 -4 23 12 28 21 13 21 -5 0 -15 -7 -22
-17z"/>
<path d="M585 7031 c-68 -54 -80 -67 -89 -98 -6 -20 -4 -23 17 -23 13 0 27 3
31 8 4 4 12 8 17 8 22 3 23 5 9 14 -11 8 -8 9 13 4 15 -3 27 -2 27 4 0 5 11 7
23 5 14 -3 31 2 40 12 10 9 17 12 17 6 0 -6 4 -11 9 -11 11 0 3 34 -16 70 -7
14 -13 31 -13 38 0 22 -24 12 -85 -37z"/>
<path d="M1010 7060 c-9 -6 -10 -10 -3 -10 6 0 15 5 18 10 8 12 4 12 -15 0z"/>
<path d="M5845 6968 c-17 -5 -43 -7 -59 -6 -18 2 -31 -2 -34 -11 -3 -8 0 -11
6 -7 6 3 39 7 75 7 35 1 71 5 78 10 8 5 12 9 9 10 -26 5 -50 4 -75 -3z"/>
<path d="M5938 6973 c7 -3 16 -2 19 1 4 3 -2 6 -13 5 -11 0 -14 -3 -6 -6z"/>
<path d="M6428 6933 c7 -3 16 -2 19 1 4 3 -2 6 -13 5 -11 0 -14 -3 -6 -6z"/>
<path d="M7320 6936 c0 -2 11 -6 25 -8 13 -3 22 -1 19 3 -5 9 -44 13 -44 5z"/>
<path d="M6863 6893 c9 -2 23 -2 30 0 6 3 -1 5 -18 5 -16 0 -22 -2 -12 -5z"/>
<path d="M757 6872 c3 -12 9 -25 14 -28 14 -8 11 10 -6 32 -13 18 -14 18 -8
-4z"/>
<path d="M7852 1283 c-211 -494 -402 -927 -423 -963 -62 -102 -84 -117 -226
-156 -7 -2 -13 -17 -13 -34 l0 -30 325 0 325 0 0 30 c0 23 -5 31 -22 34 -13 2
-50 9 -82 15 -71 13 -103 32 -120 73 -20 46 -5 100 90 324 l87 204 387 0 388
0 77 -187 c113 -272 123 -320 80 -371 -24 -28 -63 -43 -147 -57 -34 -5 -38 -9
-38 -35 l0 -30 405 0 405 0 0 29 c0 30 -14 41 -53 41 -39 0 -121 46 -159 88
-21 23 -52 70 -70 104 -17 35 -197 457 -398 938 l-367 875 -34 3 -34 2 -383
-897z m504 9 l163 -387 -331 -3 c-182 -1 -333 0 -335 2 -3 2 71 180 163 395
93 214 171 388 173 385 3 -3 78 -179 167 -392z"/>
<path d="M100 2105 l0 -35 63 0 c128 0 198 -43 217 -133 7 -36 10 -304 8 -852
l-3 -800 -22 -35 c-34 -54 -90 -81 -184 -87 l-79 -6 0 -28 0 -29 793 0 792 0
87 277 c48 153 86 278 85 279 -1 1 -15 4 -30 8 -26 6 -29 3 -53 -51 -99 -223
-224 -337 -400 -363 -43 -7 -180 -10 -335 -8 -236 3 -267 5 -291 21 -53 37
-53 29 -53 872 0 870 -4 825 69 880 43 32 127 55 209 55 l57 0 0 35 0 35 -465
0 -465 0 0 -35z"/>
<path d="M2660 2106 l0 -33 78 -5 c88 -5 150 -32 186 -81 21 -28 21 -32 21
-860 0 -812 0 -833 -20 -872 -27 -54 -89 -85 -189 -92 -76 -6 -76 -6 -76 -34
l0 -29 440 0 440 0 0 29 c0 28 -1 28 -70 34 -78 6 -144 32 -177 69 -13 13 -27
48 -33 77 -14 75 -14 1528 1 1606 6 32 18 69 27 83 27 41 106 72 185 72 l67 0
0 35 0 35 -440 0 -440 0 0 -34z"/>
<path d="M4240 2106 l0 -33 64 -5 c98 -8 190 -55 271 -139 l66 -68 -3 -778
c-3 -858 0 -820 -66 -875 -34 -28 -107 -48 -177 -48 -43 0 -45 -1 -45 -30 l0
-30 360 0 360 0 0 29 c0 28 -1 28 -74 34 -84 6 -157 34 -180 69 -32 49 -36
153 -34 806 l3 643 664 -811 c595 -727 666 -810 692 -810 l28 0 3 933 3 932
25 49 c33 66 78 90 183 94 l77 4 0 34 0 34 -360 0 -360 0 0 -34 0 -33 83 -5
c128 -7 178 -44 197 -148 6 -35 9 -287 8 -671 l-3 -615 -614 753 -614 753
-278 0 -279 0 0 -34z"/>
</g>
</svg>
