<svg id="Слой_1" data-name="Слой 1" xmlns="http://www.w3.org/2000/svg" viewBox="0 0 194.71 192.64"><defs><style>.cls-1{fill:#00b2cd;}.cls-2{fill:#2e3d42;}</style></defs><title>lpc</title><path class="cls-1" d="M3.45,2.91V144.77a50.79,50.79,0,0,0,50.78,50.78h56.92V150.76a8.93,8.93,0,0,1,8.8-8.94l23.56-.37s26.79-1,46.51-35.4S187.4,33.5,187.4,33.5s-14.06-30.59-52-30.59H59.57l.75,23.64,77.78.35s26.74-3.82,37.15,34c0,0,5.09,30.75-12.15,45.13-12.76,10.64-17.71,10.42-17.71,10.42l-27.67.18a26.5,26.5,0,0,0-26.33,26.67l.18,30.09-36.86-.19a30.94,30.94,0,0,1-30.78-31L24.21,2.91Z" transform="translate(-3.45 -2.91)"/><path class="cls-2" d="M30.71,2.91V140.65a24.39,24.39,0,0,0,24.4,24.4H84.29V139.44a29.56,29.56,0,0,1,29.56-29.56h25.34l7.28-3.15c32.45-14,30.07-60.84-3.63-71.53l-2.05-.65L59.62,34l.53,23.6,78.25.27h0C153,61.68,153.75,82.11,139.48,87l-.29.1-22.48-.24a51.75,51.75,0,0,0-52.3,51.5l0,4.18-5.31-.21a8.74,8.74,0,0,1-8.4-8.82L51.93,2.91Z" transform="translate(-3.45 -2.91)"/></svg>