<svg id="Слой_1" data-name="Слой 1" xmlns="http://www.w3.org/2000/svg" viewBox="0 0 120.34 120.34"><defs><style>.cls-1{fill:#2f271d;}.cls-2{fill:#fff;}.cls-3{fill:#a3a2a2;}</style></defs><title>ltc</title><path class="cls-1" d="M60.17,120.34a60.17,60.17,0,1,1,60.17-60.17,60.17,60.17,0,0,1-60.17,60.17Z"/><path class="cls-2" d="M60.17,113.39a53.22,53.22,0,1,1,53.22-53.22,53.21,53.21,0,0,1-53.22,53.22Z"/><path class="cls-3" d="M34.71,95.45,102.57,70a43.37,43.37,0,0,0,1.13-9.8c0-.32,0-.63,0-1L26.8,88.09a43.82,43.82,0,0,0,7.91,7.36Z"/><path class="cls-3" d="M16.65,60.17c0,.24,0,.47,0,.71L93.39,32.07a43.5,43.5,0,0,0-8-7.35L17.84,50.1a43.44,43.44,0,0,0-1.19,10.07Z"/><path class="cls-3" d="M60.17,16.65A43.48,43.48,0,0,0,22.78,37.91l50.9-19.12a43.68,43.68,0,0,0-13.51-2.14Z"/><path class="cls-3" d="M21.34,79.8l81-30.42a42.87,42.87,0,0,0-3.43-9.05L18,70.74a42.85,42.85,0,0,0,3.39,9.06Z"/><polygon class="cls-2" points="33.06 88.37 37.82 70.55 30.58 73.27 33.85 60.63 41.19 57.9 49.97 25.01 72.04 25.01 65.91 48.7 74.65 45.45 71.39 58.04 62.62 61.4 59.65 72.86 90.41 72.86 86.27 88.37 33.06 88.37 33.06 88.37"/><path class="cls-1" d="M48.59,23.21l-.71,2.67L39.69,56.54,34.1,58.62l-1.76.65-.47,1.82-2.16,8.37L28,76.17l6.49-2.43.72-.27L31.93,85.64l-1.21,4.53H87.65l.72-2.67,3.17-11.91,1.21-4.53H62l2.15-8.31,7-2.7,1.73-.67.46-1.79,2.16-8.34,1.73-6.69L70.78,45l-2.26.84,4.68-18.1,1.17-4.5H48.59Zm2.76,3.6H69.72L63.3,51.6,72,48.35l-2.16,8.34-8.77,3.36L57.33,74.66H88.07L84.89,86.57H35.41l5.05-18.93-7.27,2.73L35.36,62l7.33-2.73,8.66-32.45"/></svg>