<svg id="Слой_1" data-name="Слой 1" xmlns="http://www.w3.org/2000/svg" viewBox="0 0 930.51 257.77"><defs><style>.cls-1{fill:none;}.cls-2{fill:#644ea6;}.cls-3{fill:#54d467;}</style></defs><title>lunes</title><polygon class="cls-1" points="0 0 0 253.18 122.5 253.18 122.5 220.51 37.77 218.47 37.77 0 0 0"/><path class="cls-2" d="M0,13.83v140.4a58.39,58.39,0,0,0,58.39,58.39H96a57.13,57.13,0,0,0,57.13-57.13V14.23A15.68,15.68,0,0,0,137.45-1.45h-7.72A13.23,13.23,0,0,0,116.49,12l1.68,143.9a21,21,0,0,1-21.3,21.28l-40.08-.51a19.26,19.26,0,0,1-19-19.26V13A14.47,14.47,0,0,0,23.3-1.45h-8A15.28,15.28,0,0,0,0,13.83Z" transform="translate(149.05 44.13)"/><path class="cls-2" d="M214.12,195.12V50.34A51.07,51.07,0,0,1,265.91-.72L317.68,0a47.79,47.79,0,0,1,47.13,47.79V196.58a16,16,0,0,1-16,16h-3.84A16.89,16.89,0,0,1,328,195.74v-140a24,24,0,0,0-23.75-24l-29.35-.34a25.05,25.05,0,0,0-25.35,25.12l.35,140.06a16,16,0,0,1-16,16.08h-2.27A17.5,17.5,0,0,1,214.12,195.12Z" transform="translate(149.05 44.13)"/><path class="cls-3" d="M578.58,114.58V47.43A48.87,48.87,0,0,0,529.7-1.45H478.76A55.4,55.4,0,0,0,423.36,54v99.76a58.9,58.9,0,0,0,58.91,58.9h41a55.27,55.27,0,0,0,55.27-55.27v-4.07a17,17,0,0,0-17.36-17l-9.29.22a13.13,13.13,0,0,0-12.84,13.13v8a19.13,19.13,0,0,1-19.57,19.13l-44.09-1a15.21,15.21,0,0,1-14.86-15.2V125.93Zm-118-62.25a19.9,19.9,0,0,1,19.9-19.9h38A20.58,20.58,0,0,1,539.09,53V69.91a15.87,15.87,0,0,1-14.68,15.82l-63.84,4.8Z" transform="translate(149.05 44.13)"/><path class="cls-2" d="M743.08,64.53c0-3.77,0-8.05,0-12.28a21.76,21.76,0,0,0-21.76-21.64h-26a23.22,23.22,0,0,0-23.22,23.23V65.75A15.24,15.24,0,0,0,687.32,81h.19s57.64,16.34,59,16.8c0,0,31.32,5,35,37.21v35.41s-3.63,30.86-35.86,36.76c0,0-25,9.54-57.64,5.45s-50.83-24.51-50.83-24.51-10.44-19.52-7.72-47.2h0a7.75,7.75,0,0,1,7.73-8.17h16A15.29,15.29,0,0,1,668.45,148v10.8a17.93,17.93,0,0,0,17.93,17.93h37.85A18.81,18.81,0,0,0,743,157.66l-.16-10.4s6.36-15-30.41-23.15-55.37-18.52-55.37-18.52-20.88-3.26-22.24-47.74S667.54,3.38,667.54,3.38,692.05-10.23,742,1.11c0,0,30.41,3.63,39.49,40.85V64a12.75,12.75,0,0,1-12.9,12.75L755,76.6A12.07,12.07,0,0,1,743.08,64.53Z" transform="translate(149.05 44.13)"/></svg>