<?xml version="1.0" encoding="utf-8"?>
<!-- Generator: Adobe Illustrator 23.0.2, SVG Export Plug-In . SVG Version: 6.00 Build 0)  -->
<svg version="1.1" id="Layer_1" xmlns="http://www.w3.org/2000/svg" xmlns:xlink="http://www.w3.org/1999/xlink" x="0px" y="0px"
	 viewBox="0 0 64 64" style="enable-background:new 0 0 64 64;" xml:space="preserve">
<style type="text/css">
	.st0{fill:#393532;}
	.st1{fill:#D3CDC4;}
	.st2{fill:#BAB1AB;}
	.st3{fill:#F07D33;}
	.st4{fill:#D1A47D;}
</style>
<g>
	<path class="st0" d="M32.1,64.1C14.3,64.1,0,49.8,0,32C0,14.5,14.4,0.2,32,0.2c17.7,0,32,14.4,32,32C64,49.8,49.7,64.1,32.1,64.1z
		 M61.1,32.6c0.3-0.8,0.2-1.5,0.2-2.2c-1-18.1-18.3-31.1-36-26.9C12.3,6.6,3.4,17.8,2.7,30.3c0,0.4-0.3,1.1,0.3,1.3
		c0.7,0.2,1.1-0.1,1.5-0.8c1.3-2.3,2.6-4.6,3.9-6.9c0.3-0.6,0.7-0.9,1.4-0.8c1.6,0.1,3.3,0.1,4.9,0c0.8,0,1.1,0.3,1.3,1
		c0.6,2,1.2,3.9,1.8,5.9c0.7,2.3,0.1,2.2,2.8,1.5c1.9-0.5,3.8-1.2,5.5,0.4c0.5,0.4,0.8,0.1,1.1-0.3c0.8-1.1,1.7-2.1,2.5-3.2
		c0.4-0.5,0.7-0.6,1.2-0.2c1,0.7,2.1,1.2,3.3,1.6c1,0.4,1.8,0.3,2.5-0.5c-7-4-9.3-9.3-6.7-15.1c2.3-5.1,8.1-7.7,13.4-5.9
		c2.7,0.9,4.7,2.5,6.1,5c1.9,3.4,1.8,6.9,0.3,10.6c1.1-0.4,1.5,0.2,1.9,0.8c0.7,1.1,1.6,2.1,2.3,3.2c0.7,1.1,1.5,1.5,2.7,1.1
		c0.8-0.3,1.3,0,1.8,0.6C59.3,30.6,60.2,31.5,61.1,32.6z M14,32.2c0.8,2.5,1.7,4.6,2.3,6.8c0.3,1.2,0.9,1.6,2.1,1.7
		c2.9,0.2,5.8,0.6,8.5,1.6c1.5,0.6,3,1.3,3.3,3.1c0.3,1.9-1.1,3-2.4,4c-1.1,0.8-2.2,1.6-3.2,2.4c-0.2,0.2-0.6,0.4-0.6,0.8
		c0.1,0.4,0.5,0.4,0.8,0.4c2.4,0.5,4.9,1,7.3,1.5c4.2,0.9,8.5,1.5,12.6,3c0.8,0.3,1.3,0.3,2-0.2c7-4.2,11.6-10.3,13.8-18.2
		c0.5-1.9,0.5-3.4-1.1-4.7c-0.5-0.4-1-0.9-1.3-1.5c-0.8-1.3-1.9-1.6-3.3-1.1c-0.8,0.3-1.1,0-1.5-0.6c-0.9-1.4-2-2.7-2.9-4.1
		c-0.6-1-1.1-0.9-1.8-0.2c-0.1,0.2-0.3,0.2-0.5,0.4c-0.5,0.5-0.8,0.4-1.2-0.1c-0.4-0.7-1-1.3-1.4-1.9c-0.3-0.4-0.5-0.6-1-0.1
		c-0.9,1-1.9,2-2.8,3.1c1.2-0.1,1.3-0.2,2.7-1.7c0.7,1.3,1.9,1.8,3.2,2.3c1.8,0.7,3.4,1.9,3.9,3.8c0.4,1.5,1.2,2.2,2.5,2.7
		c1.8,0.7,3.1,2,3.7,3.8c0.6,1.8,0.1,3-1.7,3.8c-0.7,0.4-1.5,0.5-2.3,0.7c-1.3,0.3-1.9,1.1-2,2.4c0,0.9,0,1.8,0,2.6
		c0,0.8-0.4,1.4-1.2,1.5c-0.9,0.1-1.3-0.5-1.4-1.3c-0.1-0.8,0-1.7,0-2.5c0-1.7-0.6-2.4-2.3-2.8c-0.9-0.2-1.3-0.1-1.2,0.9
		c0.1,0.9,0,1.8,0,2.8c0,2.2-0.7,3.1-2.8,3.7c-2.3,0.7-4.7,0.7-7.1,0.4c-1.3-0.1-2.5-0.3-3.6-1c-1.2-0.7-1.6-1.6-1.3-3
		c0.5-2.5,2.2-3.9,4.5-4.7c1-0.4,2-0.7,2.6-1.7c0.2-0.4,0.4-0.5,0.7-0.1c1,1.5,2.8,1.7,4.4,2.5c0-1.3,0-2.3,0-3.4
		c0-1.8-0.6-2.5-2.4-2.9c-3.2-0.7-3.9-1.6-3.5-5c-1.2,1.2-2.3,0.4-3.3,0C33,32.2,32.4,32,32,31.7c-0.9-0.6-1.3-0.1-1.8,0.5
		c-1.9,2.4-3.8,4.7-5.6,7.1c-0.8,1.1-1.3,0.2-1.9-0.1c-0.8-0.5-0.8-0.9-0.2-1.6c0.7-0.8,1.3-1.6,1.9-2.4c0.7-0.9,0.6-1.4-0.6-1.7
		c-0.4-0.1-0.8,0-1.2,0.1c-1.6,0.4-3.3,0.8-4.9,1.3c-0.8,0.2-1,0-1.2-0.7c-0.7-2.5-1.5-4.9-2.2-7.4c-0.2-0.6-0.2-1.4-1.1-1.3
		c-1,0.2-2.3-0.6-3,0.8c-1.1,2-2.3,3.8-3.3,5.8c-0.7,1.4-1.5,2.2-3.2,2c-0.7-0.1-1,0.3-0.8,1c0.2,1.3,0.5,2.6,0.7,4
		c0.1,0.5,0.3,0.8,0.9,0.8c0.7,0,0.9-0.3,1-0.8c0.6-1.9,1.2-3.7,1.9-5.6c0.4-1.2,0.8-2.4,1.4-3.9c1.1,3.1,2,5.8,2.9,8.5
		c0.1,0,0.2,0,0.3,0C12.5,36.3,13.2,34.4,14,32.2z M42.3,59.6c-4.7-1.2-9.1-2-13.5-2.9c-2-0.4-4-0.6-5.9-1.4
		c-1.7-0.7-2.2-2.1-1.5-3.6c0.3-0.6,0.8-1.1,1.4-1.6c1.1-1.1,2.5-1.9,3.7-2.8c1.4-1.1,1.4-1.6-0.3-2.3c-2.5-1-5.2-1.3-7.9-1.6
		c-0.5-0.1-0.7,0.1-0.9,0.5c-0.8,1.6-2.3,1.8-3.9,1.7c-1.4-0.1-2.8-0.6-3.1-2.2c-0.1-0.4-0.2-0.6-0.6-0.5c-1.3,0.3-2.5-0.1-3.8-0.1
		c-1.5,0-1.5,0-0.9,1.3c5,11.4,16.9,18.4,29.3,17.4C37,61.2,39.5,60.7,42.3,59.6z M47,23.2c0.2-0.2,0.3-0.3,0.4-0.4
		c1.7-2.9,1.3-6.8-1.1-9.4c-2.5-2.8-6.3-3.6-9.5-2.2c-3.3,1.5-5.4,4.9-5,8.4c0.3,3.5,3.1,6.6,6.4,7.3c0.7,0.1,1.2,0,1.7-0.5
		c1.5-1.7,3.1-3.3,4.6-5c0.6-0.6,0.9-0.6,1.3,0.1C46.1,22.1,46.6,22.6,47,23.2z M44.2,35c1.1,0,2.3-0.1,3.5-0.4
		c1.4-0.3,1.6-0.9,0.6-1.9c-1.6-1.7-3.6-2.1-5.8-1.5c-1.3,0.3-2.3,0.9-3,2.1c-0.3,0.6-0.2,1,0.5,1.2C41.4,34.9,42.7,35,44.2,35z
		 M38,49c1.2-0.1,2.6-0.1,4-0.5c0.9-0.3,0.9-0.7,0.5-1.4c-1.1-1.7-2.8-2.2-4.7-2.2c-1.8,0-3.4,0.6-4.4,2.3c-0.4,0.7-0.2,1,0.6,1.3
		C35.3,48.9,36.6,48.9,38,49z M50.4,41.4c1.3,0,2.7-0.1,4-0.5c0.8-0.2,0.9-0.6,0.5-1.3c-0.6-1-1.4-1.5-2.4-1.9
		c-2.3-0.8-5.2-0.1-6.4,1.5c-0.7,1-0.6,1.4,0.5,1.7C47.8,41.3,49.1,41.4,50.4,41.4z M14,40.4c-0.3,0.8-0.5,1.3-0.6,1.8
		c-0.1,0.3-0.2,0.6,0.1,0.8c0.3,0.2,0.7,0.1,1,0c0.4-0.2,0.2-0.5,0.1-0.8C14.4,41.7,14.3,41.2,14,40.4z M8.7,38.2
		c-0.3,0.6-0.9,1.2-0.5,1.9c0.1,0.2,0.7,0.3,0.9,0C9.6,39.4,8.9,38.8,8.7,38.2z"/>
	<path class="st1" d="M61.1,32.6c-1-1.1-1.9-2-2.6-3C58,29,57.4,28.8,56.6,29c-1.2,0.4-2,0.1-2.7-1.1c-0.6-1.1-1.5-2.1-2.3-3.2
		c-0.4-0.6-0.8-1.2-1.9-0.8c1.6-3.7,1.7-7.2-0.3-10.6c-1.4-2.4-3.5-4.1-6.1-5c-5.3-1.7-11.1,0.8-13.4,5.9
		c-2.6,5.8-0.3,11.1,6.7,15.1c-0.7,0.7-1.5,0.9-2.5,0.5c-1.1-0.5-2.2-1-3.3-1.6c-0.5-0.3-0.9-0.3-1.2,0.2c-0.8,1.1-1.7,2.1-2.5,3.2
		c-0.3,0.4-0.6,0.7-1.1,0.3c-1.8-1.6-3.6-0.8-5.5-0.4c-2.6,0.7-2,0.8-2.8-1.5c-0.6-2-1.2-3.9-1.8-5.9c-0.2-0.7-0.5-1-1.3-1
		c-1.6,0.1-3.3,0.1-4.9,0c-0.7,0-1,0.3-1.4,0.8c-1.3,2.3-2.6,4.6-3.9,6.9c-0.4,0.7-0.8,1-1.5,0.8c-0.7-0.2-0.4-0.9-0.3-1.3
		C3.4,17.8,12.3,6.6,25.3,3.5c17.7-4.2,35,8.8,36,26.9C61.3,31.1,61.4,31.8,61.1,32.6z M27.5,15.6c0-4.2-3.3-7.5-7.4-7.5
		c-4.1,0-7.5,3.4-7.5,7.5c0,4.1,3.3,7.4,7.4,7.4C24.2,23,27.5,19.8,27.5,15.6z"/>
	<path class="st2" d="M14,32.2c-0.8,2.2-1.4,4.1-2.1,6c-0.1,0-0.2,0-0.3,0c-0.9-2.7-1.9-5.5-2.9-8.5c-0.5,1.5-1,2.7-1.4,3.9
		c-0.6,1.9-1.3,3.7-1.9,5.6c-0.2,0.5-0.4,0.9-1,0.8c-0.6,0-0.8-0.4-0.9-0.8c-0.2-1.3-0.5-2.6-0.7-4c-0.1-0.7,0.1-1.1,0.8-1
		c1.7,0.3,2.5-0.6,3.2-2c1-2,2.2-3.9,3.3-5.8c0.8-1.4,2-0.6,3-0.8c0.9-0.1,0.9,0.7,1.1,1.3c0.8,2.4,1.5,4.9,2.2,7.4
		c0.2,0.7,0.4,1,1.2,0.7c1.6-0.5,3.2-0.9,4.9-1.3c0.4-0.1,0.8-0.2,1.2-0.1c1.2,0.3,1.3,0.7,0.6,1.7c-0.6,0.8-1.2,1.6-1.9,2.4
		c-0.6,0.6-0.6,1.1,0.2,1.6c0.6,0.3,1,1.3,1.9,0.1c1.8-2.4,3.7-4.8,5.6-7.1c0.5-0.7,1-1.1,1.8-0.5c0.5,0.3,1.1,0.4,1.6,0.6
		c1.1,0.4,2.1,1.1,3.3,0c-0.4,3.4,0.3,4.3,3.5,5c1.8,0.4,2.4,1.1,2.4,2.9c0,1.1,0,2.2,0,3.4c-1.6-0.8-3.4-1-4.4-2.5
		c-0.3-0.5-0.5-0.3-0.7,0.1c-0.6,0.9-1.6,1.3-2.6,1.7c-2.3,0.8-4,2.2-4.5,4.7c-0.3,1.3,0.1,2.3,1.3,3c1.1,0.7,2.4,0.9,3.6,1
		c2.4,0.2,4.8,0.2,7.1-0.4c2.1-0.6,2.8-1.5,2.8-3.7c0-0.9,0.1-1.9,0-2.8c-0.1-1,0.3-1.1,1.2-0.9c1.7,0.4,2.3,1.1,2.3,2.8
		c0,0.8,0,1.7,0,2.5c0.1,0.8,0.5,1.4,1.4,1.3c0.9-0.1,1.2-0.6,1.2-1.5c0-0.9,0-1.8,0-2.6c0-1.3,0.7-2.1,2-2.4
		c0.8-0.2,1.6-0.3,2.3-0.7c1.7-0.8,2.2-2,1.7-3.8c-0.6-1.9-2-3.1-3.7-3.8c-1.3-0.5-2.1-1.2-2.5-2.7c-0.5-2-2-3.1-3.9-3.8
		c-1.3-0.5-2.5-1-3.2-2.3c-1.3,1.5-1.4,1.6-2.7,1.7c1-1.1,1.9-2.1,2.8-3.1c0.4-0.5,0.7-0.3,1,0.1c0.5,0.7,1,1.3,1.4,1.9
		c0.4,0.6,0.7,0.6,1.2,0.1c0.1-0.2,0.3-0.2,0.5-0.4c0.7-0.7,1.2-0.8,1.8,0.2c0.9,1.4,2,2.7,2.9,4.1c0.4,0.6,0.8,0.9,1.5,0.6
		c1.4-0.5,2.5-0.2,3.3,1.1c0.3,0.6,0.8,1.1,1.3,1.5c1.7,1.3,1.7,2.8,1.1,4.7c-2.2,7.9-6.8,14-13.8,18.2c-0.7,0.4-1.2,0.4-2,0.2
		c-4.1-1.5-8.4-2.1-12.6-3c-2.4-0.5-4.8-1-7.3-1.5c-0.3-0.1-0.7-0.1-0.8-0.4c-0.1-0.4,0.3-0.6,0.6-0.8c1.1-0.8,2.2-1.6,3.2-2.4
		c1.3-1,2.6-2.1,2.4-4c-0.3-1.8-1.8-2.5-3.3-3.1c-2.7-1-5.6-1.4-8.5-1.6c-1.2-0.1-1.7-0.5-2.1-1.7C15.6,36.9,14.8,34.7,14,32.2z"/>
	<path class="st1" d="M42.3,59.6c-2.7,1.1-5.2,1.6-7.8,1.8c-12.4,1.1-24.3-6-29.3-17.4c-0.6-1.4-0.6-1.3,0.9-1.3
		c1.3,0,2.5,0.4,3.8,0.1c0.4-0.1,0.5,0.1,0.6,0.5c0.4,1.7,1.7,2.1,3.1,2.2c1.6,0.1,3.1-0.1,3.9-1.7c0.2-0.4,0.4-0.6,0.9-0.5
		c2.7,0.3,5.4,0.6,7.9,1.6c1.7,0.7,1.7,1.1,0.3,2.3c-1.2,1-2.6,1.8-3.7,2.8c-0.5,0.5-1,1-1.4,1.6c-0.8,1.5-0.2,2.8,1.5,3.6
		c1.9,0.8,3.9,1,5.9,1.4C33.1,57.6,37.5,58.4,42.3,59.6z"/>
	<path class="st3" d="M47,23.2c-0.4-0.6-0.9-1.1-1.2-1.7c-0.4-0.7-0.8-0.7-1.3-0.1c-1.5,1.7-3.1,3.3-4.6,5c-0.5,0.5-1,0.7-1.7,0.5
		c-3.3-0.7-6-3.9-6.4-7.3c-0.3-3.5,1.7-6.9,5-8.4c3.2-1.5,7.1-0.6,9.5,2.2c2.3,2.6,2.7,6.5,1.1,9.4C47.3,22.8,47.2,23,47,23.2z"/>
	<path class="st4" d="M44.2,35c-1.5,0-2.8-0.1-4.1-0.5c-0.7-0.2-0.8-0.6-0.5-1.2c0.6-1.2,1.7-1.8,3-2.1c2.2-0.5,4.2-0.2,5.8,1.5
		c1,1.1,0.7,1.6-0.6,1.9C46.5,34.9,45.3,35,44.2,35z"/>
	<path class="st4" d="M38,49c-1.4-0.1-2.7-0.1-4-0.5c-0.7-0.2-1-0.6-0.6-1.3c1-1.6,2.6-2.2,4.4-2.3c1.9,0,3.6,0.5,4.7,2.2
		c0.4,0.7,0.4,1.1-0.5,1.4C40.6,49,39.3,48.9,38,49z"/>
	<path class="st4" d="M50.4,41.4c-1.3,0-2.6-0.1-3.9-0.4c-1.1-0.3-1.2-0.7-0.5-1.7c1.2-1.7,4.1-2.4,6.4-1.5c1,0.4,1.9,0.9,2.4,1.9
		c0.4,0.6,0.3,1-0.5,1.3C53,41.3,51.7,41.3,50.4,41.4z"/>
	<path class="st3" d="M14,40.4c0.3,0.8,0.4,1.3,0.6,1.8c0.1,0.3,0.3,0.6-0.1,0.8c-0.3,0.1-0.7,0.2-1,0c-0.4-0.2-0.2-0.5-0.1-0.8
		C13.5,41.6,13.7,41.2,14,40.4z"/>
	<path class="st3" d="M8.7,38.2c0.2,0.7,0.9,1.2,0.4,1.9c-0.2,0.2-0.8,0.2-0.9,0C7.8,39.4,8.4,38.8,8.7,38.2z"/>
	<path class="st0" d="M27.5,15.6c0,4.2-3.3,7.4-7.5,7.4c-4.1,0-7.4-3.3-7.4-7.4c0-4.1,3.4-7.5,7.5-7.5C24.2,8.1,27.5,11.5,27.5,15.6
		z M20.1,20.4c2.6,0,4.8-2.2,4.8-4.8c0-2.6-2.2-4.8-4.8-4.8c-2.7,0-4.8,2.2-4.8,4.8C15.3,18.3,17.4,20.4,20.1,20.4z"/>
	<path class="st3" d="M20.1,20.4c-2.7,0-4.8-2.1-4.8-4.8c0-2.7,2.1-4.8,4.8-4.8c2.6,0,4.8,2.2,4.8,4.8
		C24.9,18.2,22.7,20.4,20.1,20.4z"/>
</g>
</svg>
