<svg id="Слой_1" data-name="Слой 1" xmlns="http://www.w3.org/2000/svg" xmlns:xlink="http://www.w3.org/1999/xlink" viewBox="0 0 89 89"><defs><style>.cls-1{fill:none;}.cls-2{clip-path:url(#clip-path);}.cls-3{fill:#fff;}.cls-4{fill:#fefefe;}.cls-5{fill:#fdfdfe;}.cls-6{fill:#fcfcfd;}.cls-7{fill:#fcfbfd;}.cls-8{fill:#fbfafc;}.cls-9{fill:#faf9fc;}.cls-10{fill:#f9f8fb;}.cls-11{fill:#f8f7fb;}.cls-12{fill:#f7f6fa;}.cls-13{fill:#f7f5f9;}.cls-14{fill:#f6f4f9;}.cls-15{fill:#f5f3f8;}.cls-16{fill:#f4f2f8;}.cls-17{fill:#f3f1f7;}.cls-18{fill:#f2f0f7;}.cls-19{fill:#f2eff6;}.cls-20{fill:#f1eef6;}.cls-21{fill:#f0edf5;}.cls-22{fill:#efecf4;}.cls-23{fill:#eeebf4;}.cls-24{fill:#edeaf3;}.cls-25{fill:#ede9f3;}.cls-26{fill:#ece8f2;}.cls-27{fill:#ebe7f2;}.cls-28{fill:#eae6f1;}.cls-29{fill:#e9e5f1;}.cls-30{fill:#e8e4f0;}.cls-31{fill:#e8e3ef;}.cls-32{fill:#e7e2ef;}.cls-33{fill:#e6e1ee;}.cls-34{fill:#e5e0ee;}.cls-35{fill:#e4dfed;}.cls-36{fill:#e3deed;}.cls-37{fill:#e3ddec;}.cls-38{fill:#e2dceb;}.cls-39{fill:#e1dbeb;}.cls-40{fill:#e0daea;}.cls-41{fill:#dfd9ea;}.cls-42{fill:#ded8e9;}.cls-43{fill:#ded7e9;}.cls-44{fill:#ddd6e8;}.cls-45{fill:#dcd5e8;}.cls-46{fill:#dbd4e7;}.cls-47{fill:#dad3e6;}.cls-48{fill:#d9d2e6;}.cls-49{fill:#d9d1e5;}.cls-50{fill:#d8d0e5;}.cls-51{fill:#d7cfe4;}.cls-52{fill:#d6cee4;}.cls-53{fill:#d5cde3;}.cls-54{fill:#d4cce3;}.cls-55{fill:#d4cbe2;}.cls-56{fill:#d3cae1;}.cls-57{fill:#d2c9e1;}.cls-58{fill:#d1c8e0;}.cls-59{fill:#d0c7e0;}.cls-60{fill:#cfc6df;}.cls-61{fill:#cfc5df;}.cls-62{fill:#cec4de;}.cls-63{fill:#cdc3de;}.cls-64{fill:#ccc2dd;}.cls-65{fill:#cbc1dc;}.cls-66{fill:#cac0dc;}.cls-67{fill:#c9bfdb;}.cls-68{fill:#c9bedb;}.cls-69{fill:#c8bdda;}.cls-70{fill:#c7bcda;}.cls-71{fill:#c6bbd9;}.cls-72{fill:#c5bad9;}.cls-73{fill:#c4b9d8;}.cls-74{fill:#c4b8d7;}.cls-75{fill:#c3b7d7;}.cls-76{fill:#c2b6d6;}.cls-77{fill:#c1b5d6;}.cls-78{fill:#c0b4d5;}.cls-79{fill:#bfb3d5;}.cls-80{fill:#bfb2d4;}.cls-81{fill:#beb1d4;}.cls-82{fill:#bdb0d3;}.cls-83{fill:#bcafd2;}.cls-84{fill:#bbaed2;}.cls-85{fill:#baadd1;}.cls-86{fill:#baacd1;}.cls-87{fill:#b9abd0;}.cls-88{fill:#b8aad0;}.cls-89{fill:#b7a9cf;}.cls-90{fill:#b6a8cf;}.cls-91{fill:#b5a7ce;}.cls-92{fill:#b5a6cd;}.cls-93{fill:#b4a5cd;}.cls-94{fill:#b3a4cc;}.cls-95{fill:#b2a2cc;}.cls-96{fill:#b1a1cb;}.cls-97{fill:#b0a0cb;}.cls-98{fill:#b09fca;}.cls-99{fill:#af9ec9;}.cls-100{fill:#ae9dc9;}.cls-101{fill:#ad9cc8;}.cls-102{fill:#ac9bc8;}.cls-103{fill:#ab9ac7;}.cls-104{fill:#ab99c7;}.cls-105{fill:#aa98c6;}.cls-106{fill:#a997c6;}.cls-107{fill:#a896c5;}.cls-108{fill:#a795c4;}.cls-109{fill:#a694c4;}.cls-110{fill:#a693c3;}.cls-111{fill:#a592c3;}.cls-112{fill:#a491c2;}.cls-113{fill:#a390c2;}.cls-114{fill:#a28fc1;}.cls-115{fill:#a18ec1;}.cls-116{fill:#a18dc0;}.cls-117{fill:#a08cbf;}.cls-118{fill:#9f8bbf;}.cls-119{fill:#9e8abe;}.cls-120{fill:#9d89be;}.cls-121{fill:#9c88bd;}.cls-122{fill:#9c87bd;}.cls-123{fill:#9b86bc;}.cls-124{fill:#9a85bc;}.cls-125{fill:#9984bb;}.cls-126{fill:#9883ba;}.cls-127{fill:#9782ba;}.cls-128{fill:#9681b9;}.cls-129{fill:#9680b9;}.cls-130{fill:#957fb8;}.cls-131{fill:#947eb8;}.cls-132{fill:#937db7;}.cls-133{fill:#927cb7;}.cls-134{fill:#917bb6;}.cls-135{fill:#917ab5;}.cls-136{fill:#9079b5;}.cls-137{fill:#8f78b4;}.cls-138{fill:#8e77b4;}.cls-139{fill:#8d76b3;}.cls-140{fill:#8c75b3;}.cls-141{fill:#8c74b2;}.cls-142{fill:#8b73b2;}.cls-143{fill:#8a72b1;}.cls-144{fill:#8971b0;}.cls-145{fill:#8870b0;}.cls-146{fill:#876faf;}.cls-147{fill:#876eaf;}.cls-148{fill:#866dae;}.cls-149{fill:#856cae;}.cls-150{fill:#846bad;}.cls-151{fill:#836aad;}.cls-152{fill:#8269ac;}.cls-153{fill:#8268ab;}.cls-154{fill:#8167ab;}.cls-155{fill:#8066aa;}.cls-156{fill:#7f65aa;}.cls-157{fill:#7e64a9;}.cls-158{fill:#7d63a9;}.cls-159{fill:#7d62a8;}.cls-160{fill:#7c61a7;}.cls-161{fill:#7b60a7;}.cls-162{fill:#7a5fa6;}.cls-163{fill:#795ea6;}.cls-164{fill:#785da5;}.cls-165{fill:#785ca5;}.cls-166{fill:#775ba4;}.cls-167{fill:#765aa4;}.cls-168{fill:#7559a3;}.cls-169{fill:#7458a2;}.cls-170{fill:#7357a2;}.cls-171{fill:#7356a1;}.cls-172{fill:#7255a1;}.cls-173{fill:#7154a0;}.cls-174{fill:#7053a0;}.cls-175{fill:#6f529f;}.cls-176{fill:#6e519f;}.cls-177{fill:#6e509e;}.cls-178{fill:#6d4f9d;}.cls-179{fill:#6c4e9d;}.cls-180{fill:#6b4d9c;}.cls-181{fill:#6a4c9c;}.cls-182{fill:#694b9b;}.cls-183{fill:#694a9b;}.cls-184{fill:#68499a;}.cls-185{fill:#67489a;}.cls-186{fill:#664799;}.cls-187{fill:#654698;}.cls-188{fill:#644697;}.cls-189{fill:#634596;}.cls-190{fill:#624596;}.cls-191{fill:#614495;}.cls-192{fill:#604494;}.cls-193{fill:#5f4393;}.cls-194{fill:#5e4392;}.cls-195{fill:#5d4291;}.cls-196{fill:#5c4290;}.cls-197{fill:#5b418f;}.cls-198{fill:#5a418f;}.cls-199{fill:#59408e;}.cls-200{fill:#58408d;}.cls-201{fill:#573f8c;}.cls-202{fill:#563f8b;}.cls-203{fill:#553e8a;}.cls-204{fill:#543e89;}.cls-205{fill:#533d88;}.cls-206{fill:#523d88;}.cls-207{fill:#513c87;}.cls-208{fill:#503c86;}.cls-209{fill:#4f3b85;}.cls-210{fill:#4e3b84;}.cls-211{fill:#4d3a83;}.cls-212{fill:#4c3a82;}.cls-213{fill:#4b3981;}.cls-214{fill:#493981;}.cls-215{fill:#483880;}.cls-216{fill:#47387f;}.cls-217{fill:#46377e;}.cls-218{fill:#45377d;}.cls-219{fill:#44367c;}.cls-220{fill:#43367b;}.cls-221{fill:#42357a;}.cls-222{fill:#41357a;}.cls-223{fill:#403479;}.cls-224{fill:#3f3478;}.cls-225{fill:#3e3377;}.cls-226{fill:#3d3376;}.cls-227{fill:#3c3275;}.cls-228{fill:#3b3274;}.cls-229{fill:#3a3173;}.cls-230{fill:#393173;}.cls-231{fill:#383072;}.cls-232{fill:#373071;}.cls-233{fill:#362f70;}.cls-234{fill:#352f6f;}.cls-235{fill:#342e6e;}.cls-236{fill:#332e6d;}.cls-237{fill:#322d6c;}.cls-238{fill:#312d6c;}.cls-239{fill:#302c6b;}.cls-240{fill:#2f2c6a;}.cls-241{fill:#2e2b69;}.cls-242{fill:#fbf9fa;}.cls-243{fill:#fffffd;}</style><clipPath id="clip-path"><rect class="cls-1" width="89" height="89"/></clipPath></defs><title>masp</title><g class="cls-2"><path class="cls-3" d="M0,0V0Z"/><rect class="cls-3" height="89"/><rect class="cls-4" height="89"/><rect class="cls-5" height="89"/><rect class="cls-6" height="89"/><rect class="cls-7" height="89"/><rect class="cls-8" height="89"/><rect class="cls-9" height="89"/><rect class="cls-10" height="89"/><rect class="cls-11" height="89"/><rect class="cls-12" height="89"/><rect class="cls-13" height="89"/><rect class="cls-14" x="0.01" height="89"/><rect class="cls-15" x="0.01" height="89"/><rect class="cls-16" x="0.01" height="89"/><rect class="cls-17" x="0.01" height="89"/><rect class="cls-18" x="0.01" height="89"/><rect class="cls-19" x="0.01" height="89"/><rect class="cls-20" x="0.01" height="89"/><rect class="cls-21" x="0.01" height="89"/><rect class="cls-22" x="0.01" height="89"/><rect class="cls-23" x="0.01" height="89"/><rect class="cls-24" x="0.01" height="89"/><rect class="cls-25" x="0.01" height="89"/><rect class="cls-26" x="0.01" height="89"/><rect class="cls-27" x="0.01" height="89"/><rect class="cls-28" x="0.01" height="89"/><rect class="cls-29" x="0.01" height="89"/><rect class="cls-30" x="0.01" height="89"/><rect class="cls-31" x="0.01" height="89"/><rect class="cls-32" x="0.01" height="89"/><rect class="cls-33" x="0.01" height="89"/><rect class="cls-34" x="0.01" height="89"/><rect class="cls-35" x="0.02" height="89"/><rect class="cls-36" x="0.02" height="89"/><rect class="cls-37" x="0.02" height="89"/><rect class="cls-38" x="0.02" height="89"/><rect class="cls-39" x="0.02" height="89"/><rect class="cls-40" x="0.02" height="89"/><rect class="cls-41" x="0.02" height="89"/><rect class="cls-42" x="0.02" height="89"/><rect class="cls-43" x="0.02" height="89"/><rect class="cls-44" x="0.02" height="89"/><rect class="cls-45" x="0.02" height="89"/><rect class="cls-46" x="0.02" height="89"/><rect class="cls-47" x="0.02" height="89"/><rect class="cls-48" x="0.02" height="89"/><rect class="cls-49" x="0.02" height="89"/><rect class="cls-50" x="0.02" height="89"/><rect class="cls-51" x="0.02" height="89"/><rect class="cls-52" x="0.02" height="89"/><rect class="cls-53" x="0.02" height="89"/><rect class="cls-54" x="0.02" height="89"/><rect class="cls-55" x="0.02" height="89"/><rect class="cls-56" x="0.03" height="89"/><rect class="cls-57" x="0.03" height="89"/><rect class="cls-58" x="0.03" height="89"/><rect class="cls-59" x="0.03" height="89"/><rect class="cls-60" x="0.03" height="89"/><rect class="cls-61" x="0.03" height="89"/><rect class="cls-62" x="0.03" height="89"/><rect class="cls-63" x="0.03" height="89"/><rect class="cls-64" x="0.03" height="89"/><rect class="cls-65" x="0.03" height="89"/><rect class="cls-66" x="0.03" height="89"/><rect class="cls-67" x="0.03" height="89"/><rect class="cls-68" x="0.03" height="89"/><rect class="cls-69" x="0.03" height="89"/><rect class="cls-70" x="0.03" height="89"/><rect class="cls-71" x="0.03" height="89"/><rect class="cls-72" x="0.03" height="89"/><rect class="cls-73" x="0.03" height="89"/><rect class="cls-74" x="0.03" height="89"/><rect class="cls-75" x="0.03" height="89"/><rect class="cls-76" x="0.04" height="89"/><rect class="cls-77" x="0.04" height="89"/><rect class="cls-78" x="0.04" height="89"/><rect class="cls-79" x="0.04" height="89"/><rect class="cls-80" x="0.04" height="89"/><rect class="cls-81" x="0.04" height="89"/><rect class="cls-82" x="0.04" height="89"/><rect class="cls-83" x="0.04" height="89"/><rect class="cls-84" x="0.04" height="89"/><rect class="cls-85" x="0.04" height="89"/><rect class="cls-86" x="0.04" height="89"/><rect class="cls-87" x="0.04" height="89"/><rect class="cls-88" x="0.04" height="89"/><rect class="cls-89" x="0.04" height="89"/><rect class="cls-90" x="0.04" height="89"/><rect class="cls-91" x="0.04" height="89"/><rect class="cls-92" x="0.04" height="89"/><rect class="cls-93" x="0.04" height="89"/><rect class="cls-94" x="0.04" height="89"/><rect class="cls-95" x="0.04" height="89"/><rect class="cls-96" x="0.04" height="89"/><rect class="cls-97" x="0.05" height="89"/><rect class="cls-98" x="0.05" height="89"/><rect class="cls-99" x="0.05" height="89"/><rect class="cls-100" x="0.05" height="89"/><rect class="cls-101" x="0.05" height="89"/><rect class="cls-102" x="0.05" height="89"/><rect class="cls-103" x="0.05" height="89"/><rect class="cls-104" x="0.05" height="89"/><rect class="cls-105" x="0.05" height="89"/><rect class="cls-106" x="0.05" height="89"/><rect class="cls-107" x="0.05" height="89"/><rect class="cls-108" x="0.05" height="89"/><rect class="cls-109" x="0.05" height="89"/><rect class="cls-110" x="0.05" height="89"/><rect class="cls-111" x="0.05" height="89"/><rect class="cls-112" x="0.05" height="89"/><rect class="cls-113" x="0.05" height="89"/><rect class="cls-114" x="0.05" height="89"/><rect class="cls-115" x="0.05" height="89"/><rect class="cls-116" x="0.05" height="89"/><rect class="cls-117" x="0.05" height="89"/><rect class="cls-118" x="0.06" height="89"/><rect class="cls-119" x="0.06" height="89"/><rect class="cls-120" x="0.06" height="89"/><rect class="cls-121" x="0.06" height="89"/><rect class="cls-122" x="0.06" height="89"/><rect class="cls-123" x="0.06" height="89"/><rect class="cls-124" x="0.06" height="89"/><rect class="cls-125" x="0.06" height="89"/><rect class="cls-126" x="0.06" height="89"/><rect class="cls-127" x="0.06" height="89"/><rect class="cls-128" x="0.06" height="89"/><rect class="cls-129" x="0.06" height="89"/><rect class="cls-130" x="0.06" height="89"/><rect class="cls-131" x="0.06" height="89"/><rect class="cls-132" x="0.06" height="89"/><rect class="cls-133" x="0.06" height="89"/><rect class="cls-134" x="0.06" height="89"/><rect class="cls-135" x="0.06" height="89"/><rect class="cls-136" x="0.06" height="89"/><rect class="cls-137" x="0.06" height="89"/><rect class="cls-138" x="0.06" height="89"/><rect class="cls-139" x="0.07" height="89"/><rect class="cls-140" x="0.07" height="89"/><rect class="cls-141" x="0.07" height="89"/><rect class="cls-142" x="0.07" height="89"/><rect class="cls-143" x="0.07" height="89"/><rect class="cls-144" x="0.07" height="89"/><rect class="cls-145" x="0.07" height="89"/><rect class="cls-146" x="0.07" height="89"/><rect class="cls-147" x="0.07" height="89"/><rect class="cls-148" x="0.07" height="89"/><rect class="cls-149" x="0.07" height="89"/><rect class="cls-150" x="0.07" height="89"/><rect class="cls-151" x="0.07" height="89"/><rect class="cls-152" x="0.07" height="89"/><rect class="cls-153" x="0.07" height="89"/><rect class="cls-154" x="0.07" height="89"/><rect class="cls-155" x="0.07" height="89"/><rect class="cls-156" x="0.07" height="89"/><rect class="cls-157" x="0.07" height="89"/><rect class="cls-158" x="0.07" height="89"/><rect class="cls-159" x="0.07" height="89"/><rect class="cls-160" x="0.08" height="89"/><rect class="cls-161" x="0.08" height="89"/><rect class="cls-162" x="0.08" height="89"/><rect class="cls-163" x="0.08" height="89"/><rect class="cls-164" x="0.08" height="89"/><rect class="cls-165" x="0.08" height="89"/><rect class="cls-166" x="0.08" height="89"/><rect class="cls-167" x="0.08" height="89"/><rect class="cls-168" x="0.08" height="89"/><rect class="cls-169" x="0.08" height="89"/><rect class="cls-170" x="0.08" height="89"/><rect class="cls-171" x="0.08" height="89"/><rect class="cls-172" x="0.08" height="89"/><rect class="cls-173" x="0.08" height="89"/><rect class="cls-174" x="0.08" height="89"/><rect class="cls-175" x="0.08" height="89"/><rect class="cls-176" x="0.08" height="89"/><rect class="cls-177" x="0.08" height="89"/><rect class="cls-178" x="0.08" height="89"/><rect class="cls-179" x="0.08" height="89"/><rect class="cls-180" x="0.08" height="89"/><rect class="cls-181" x="0.09" height="89"/><rect class="cls-182" x="0.09" height="89"/><rect class="cls-183" x="0.09" height="89"/><rect class="cls-184" x="0.09" height="89"/><rect class="cls-185" x="0.09" height="89"/><rect class="cls-186" x="0.09" height="89"/><rect class="cls-186" x="0.09" width="1.59" height="89"/><rect class="cls-187" x="1.68" width="1.59" height="89"/><rect class="cls-188" x="3.26" width="1.59" height="89"/><rect class="cls-189" x="4.85" width="1.59" height="89"/><rect class="cls-190" x="6.44" width="1.59" height="89"/><rect class="cls-191" x="8.03" width="1.59" height="89"/><rect class="cls-192" x="9.61" width="1.59" height="89"/><rect class="cls-193" x="11.2" width="1.59" height="89"/><rect class="cls-194" x="12.79" width="1.59" height="89"/><rect class="cls-195" x="14.38" width="1.59" height="89"/><rect class="cls-196" x="15.97" width="1.59" height="89"/><rect class="cls-197" x="17.55" width="1.59" height="89"/><rect class="cls-198" x="19.14" width="1.59" height="89"/><rect class="cls-199" x="20.73" width="1.59" height="89"/><rect class="cls-200" x="22.32" width="1.59" height="89"/><rect class="cls-201" x="23.9" width="1.59" height="89"/><rect class="cls-202" x="25.49" width="1.59" height="89"/><rect class="cls-203" x="27.08" width="1.59" height="89"/><rect class="cls-204" x="28.67" width="1.59" height="89"/><rect class="cls-205" x="30.25" width="1.59" height="89"/><rect class="cls-206" x="31.84" width="1.59" height="89"/><rect class="cls-207" x="33.43" width="1.59" height="89"/><rect class="cls-208" x="35.02" width="1.59" height="89"/><rect class="cls-209" x="36.61" width="1.59" height="89"/><rect class="cls-210" x="38.19" width="1.59" height="89"/><rect class="cls-211" x="39.78" width="1.59" height="89"/><rect class="cls-212" x="41.37" width="1.59" height="89"/><rect class="cls-213" x="42.96" width="1.59" height="89"/><rect class="cls-214" x="44.54" width="1.59" height="89"/><rect class="cls-215" x="46.13" width="1.59" height="89"/><rect class="cls-216" x="47.72" width="1.59" height="89"/><rect class="cls-217" x="49.31" width="1.59" height="89"/><rect class="cls-218" x="50.89" width="1.59" height="89"/><rect class="cls-219" x="52.48" width="1.59" height="89"/><rect class="cls-220" x="54.07" width="1.59" height="89"/><rect class="cls-221" x="55.66" width="1.59" height="89"/><rect class="cls-222" x="57.25" width="1.59" height="89"/><rect class="cls-223" x="58.83" width="1.59" height="89"/><rect class="cls-224" x="60.42" width="1.59" height="89"/><rect class="cls-225" x="62.01" width="1.59" height="89"/><rect class="cls-226" x="63.6" width="1.59" height="89"/><rect class="cls-227" x="65.18" width="1.59" height="89"/><rect class="cls-228" x="66.77" width="1.59" height="89"/><rect class="cls-229" x="68.36" width="1.59" height="89"/><rect class="cls-230" x="69.95" width="1.59" height="89"/><rect class="cls-231" x="71.54" width="1.59" height="89"/><rect class="cls-232" x="73.12" width="1.59" height="89"/><rect class="cls-233" x="74.71" width="1.59" height="89"/><rect class="cls-234" x="76.3" width="1.59" height="89"/><rect class="cls-235" x="77.89" width="1.59" height="89"/><rect class="cls-236" x="79.47" width="1.59" height="89"/><rect class="cls-237" x="81.06" width="1.59" height="89"/><rect class="cls-238" x="82.65" width="1.59" height="89"/><rect class="cls-239" x="84.24" width="1.59" height="89"/><rect class="cls-240" x="85.82" width="1.59" height="89"/><rect class="cls-241" x="87.41" width="1.59" height="89"/><path class="cls-241" d="M89,89v0Z"/></g><polygon class="cls-3" points="13.71 21.36 12.65 20.89 11.67 21.49 11.79 20.35 10.92 19.6 12.04 19.36 12.48 18.3 13.06 19.29 14.21 19.38 13.44 20.24 13.71 21.36"/><polygon class="cls-3" points="27.68 24.24 26.37 23.57 25.07 24.28 25.3 22.82 24.23 21.81 25.69 21.58 26.32 20.25 26.99 21.56 28.45 21.75 27.41 22.79 27.68 24.24"/><polygon class="cls-3" points="76.76 22.22 75.44 21.56 74.15 22.26 74.38 20.81 73.31 19.8 74.76 19.56 75.39 18.23 76.07 19.54 77.53 19.73 76.49 20.77 76.76 22.22"/><polygon class="cls-3" points="71.63 41.12 70.32 40.45 69.03 41.16 69.25 39.7 68.18 38.69 69.64 38.46 70.27 37.13 70.94 38.44 72.4 38.63 71.36 39.67 71.63 41.12"/><polygon class="cls-3" points="75.58 45.17 74.72 44.72 73.87 45.2 74.02 44.22 73.32 43.54 74.27 43.38 74.69 42.49 75.13 43.37 76.08 43.5 75.4 44.2 75.58 45.17"/><polygon class="cls-3" points="66.74 10.95 65.88 10.51 65.03 10.98 65.18 10 64.48 9.32 65.43 9.17 65.84 8.28 66.28 9.15 67.24 9.28 66.56 9.98 66.74 10.95"/><polygon class="cls-3" points="61.58 17 60.72 16.56 59.87 17.03 60.02 16.05 59.32 15.37 60.27 15.22 60.69 14.32 61.13 15.2 62.08 15.33 61.4 16.03 61.58 17"/><polygon class="cls-3" points="34.96 15.65 34.1 15.2 33.25 15.68 33.4 14.7 32.7 14.02 33.65 13.86 34.06 12.97 34.51 13.85 35.46 13.98 34.78 14.68 34.96 15.65"/><polygon class="cls-3" points="60.6 65.86 59.31 66.52 57.99 65.9 58.26 67.24 57.22 68.22 58.68 68.39 59.35 69.61 59.99 68.37 61.45 68.15 60.38 67.21 60.6 65.86"/><polygon class="cls-3" points="51.32 74.32 50.03 74.98 48.71 74.36 48.98 75.71 47.94 76.68 49.4 76.85 50.07 78.07 50.71 76.83 52.17 76.61 51.09 75.67 51.32 74.32"/><polygon class="cls-3" points="71.57 72.45 70.27 73.1 68.95 72.49 69.22 73.83 68.18 74.8 69.64 74.98 70.31 76.2 70.95 74.96 72.41 74.74 71.34 73.8 71.57 72.45"/><path class="cls-242" d="M7.05,35.84H9.42c0,.06,0,.17,0,.31s0,.31,0,.49l0,.53c0,.17,0,.32,0,.44h0a3.38,3.38,0,0,1,1.14-1.49,2.85,2.85,0,0,1,1.64-.46,2.78,2.78,0,0,1,1.75.5,2.47,2.47,0,0,1,.9,1.45h.05a4.48,4.48,0,0,1,.55-.93,3.09,3.09,0,0,1,.66-.6,2.43,2.43,0,0,1,.78-.32,3.76,3.76,0,0,1,.92-.1,2.93,2.93,0,0,1,1.32.27,2.37,2.37,0,0,1,.88.75,3.18,3.18,0,0,1,.49,1.12,6.11,6.11,0,0,1,.15,1.39V45H18.35V39.83a6.07,6.07,0,0,0-.07-1,2.34,2.34,0,0,0-.25-.76,1.29,1.29,0,0,0-.45-.5,1.23,1.23,0,0,0-.68-.18,1.33,1.33,0,0,0-.68.18,1.75,1.75,0,0,0-.53.52,2.72,2.72,0,0,0-.35.81,4.67,4.67,0,0,0-.14,1V45H12.75V39.83a6,6,0,0,0-.08-1,2.61,2.61,0,0,0-.24-.76,1.37,1.37,0,0,0-.45-.5,1.25,1.25,0,0,0-.68-.18,1.28,1.28,0,0,0-.69.19,1.77,1.77,0,0,0-.54.55,2.68,2.68,0,0,0-.34.84,4.1,4.1,0,0,0-.13,1.08v5H7.12V37.87c0-.19,0-.4,0-.61s0-.41,0-.6,0-.35,0-.5A2.33,2.33,0,0,0,7.05,35.84Z"/><path class="cls-242" d="M22.48,42.42a2.86,2.86,0,0,1,.3-1.37,2.51,2.51,0,0,1,.81-.9,3.42,3.42,0,0,1,1.2-.5,7.59,7.59,0,0,1,1.47-.17l2.07,0V39a2.6,2.6,0,0,0-.1-.8,1.46,1.46,0,0,0-.26-.53,1,1,0,0,0-.44-.29,1.8,1.8,0,0,0-.6-.09,2.32,2.32,0,0,0-.55.06,1.17,1.17,0,0,0-.42.2,1.15,1.15,0,0,0-.28.39,1.87,1.87,0,0,0-.16.6l-2.6-.11a3.33,3.33,0,0,1,.39-1.11,2.83,2.83,0,0,1,.78-.88,3.64,3.64,0,0,1,1.24-.57,6.18,6.18,0,0,1,1.71-.2,5.57,5.57,0,0,1,1.59.21,3.06,3.06,0,0,1,1.18.64,2.77,2.77,0,0,1,.75,1A3.73,3.73,0,0,1,30.81,39V42.3a5,5,0,0,0,0,.58,1.28,1.28,0,0,0,.12.43.55.55,0,0,0,.24.26.76.76,0,0,0,.4.09,3.31,3.31,0,0,0,.55,0V44.9l-.4.09-.35.07-.38,0-.46,0a1.93,1.93,0,0,1-1.39-.44,2.07,2.07,0,0,1-.53-1.3h-.06a3.67,3.67,0,0,1-1.26,1.33,3.5,3.5,0,0,1-1.88.48A3.71,3.71,0,0,1,24.2,45a2.66,2.66,0,0,1-.93-.53,2.29,2.29,0,0,1-.58-.87A3.14,3.14,0,0,1,22.48,42.42Zm2.61-.17a1.43,1.43,0,0,0,.31,1,1.14,1.14,0,0,0,.84.32,1.91,1.91,0,0,0,.86-.2,2,2,0,0,0,.66-.52,2.34,2.34,0,0,0,.42-.74,2.55,2.55,0,0,0,.15-.86v-.47H27.06c-.27,0-.52,0-.76.07a1.73,1.73,0,0,0-.62.19,1.21,1.21,0,0,0-.43.44A1.55,1.55,0,0,0,25.09,42.25Z"/><path class="cls-242" d="M33.22,35.84h2.37c0,.06,0,.18,0,.34s0,.35,0,.54l0,.59c0,.19,0,.34,0,.46h0a8.34,8.34,0,0,1,.37-.88,2.68,2.68,0,0,1,.44-.67,1.71,1.71,0,0,1,.6-.42,2.5,2.5,0,0,1,.88-.14,2.09,2.09,0,0,1,.43,0,1.55,1.55,0,0,1,.34.08v2l-.49-.09a4.73,4.73,0,0,0-.58,0,1.67,1.67,0,0,0-1.44.72,3.65,3.65,0,0,0-.52,2.15V45H33.29V38c0-.19,0-.4,0-.62s0-.44,0-.64,0-.38,0-.54A2.44,2.44,0,0,0,33.22,35.84Z"/><path class="cls-242" d="M40.33,45V32.42h2.49v7.22l3.41-3.8H48.9l-3.36,3.58L49.16,45H46.44l-2.55-4.16-1.07.71V45Z"/><path class="cls-242" d="M49.85,40.34a5.83,5.83,0,0,1,.36-2.19,4,4,0,0,1,1-1.45,3.9,3.9,0,0,1,1.44-.79,6,6,0,0,1,1.72-.24,4.55,4.55,0,0,1,1.93.37A3.59,3.59,0,0,1,57.6,37.1a4.46,4.46,0,0,1,.75,1.63,8.45,8.45,0,0,1,.24,2.09v.06H52.46a5,5,0,0,0,.1,1.06,2.42,2.42,0,0,0,.35.85,1.64,1.64,0,0,0,.61.56,2.19,2.19,0,0,0,2-.06,1.41,1.41,0,0,0,.6-.81l2.34.19a5.85,5.85,0,0,1-.45.84,3.24,3.24,0,0,1-.76.82,4.28,4.28,0,0,1-1.19.61,5.18,5.18,0,0,1-1.73.25,5.42,5.42,0,0,1-1.86-.3,3.71,3.71,0,0,1-1.41-.9,3.91,3.91,0,0,1-.89-1.51A6.57,6.57,0,0,1,49.85,40.34Zm2.62-1.08h3.72a2.26,2.26,0,0,0-.56-1.47,1.76,1.76,0,0,0-1.31-.5,2.35,2.35,0,0,0-.71.11,1.64,1.64,0,0,0-.58.35,1.69,1.69,0,0,0-.39.61A2.62,2.62,0,0,0,52.47,39.26Z"/><path class="cls-242" d="M59.42,37.46V35.84h1.35l.77-2.14h1.55v2.14h1.82v1.62H63.09v4.77a1.5,1.5,0,0,0,.27,1,1,1,0,0,0,.82.32,2.58,2.58,0,0,0,.42,0l.42-.09v1.46a5.85,5.85,0,0,1-1,.22,7.82,7.82,0,0,1-1.12.07,2.35,2.35,0,0,1-1.69-.57,2.32,2.32,0,0,1-.59-1.73V37.46Z"/><path class="cls-243" d="M33.31,55.12l2.08-.34a2,2,0,0,0,.27.66,1.33,1.33,0,0,0,.44.38,1.89,1.89,0,0,0,.61.18,6.22,6.22,0,0,0,.8,0,5.78,5.78,0,0,0,.75,0,2.09,2.09,0,0,0,.61-.17,1,1,0,0,0,.4-.34,1,1,0,0,0,.14-.54.8.8,0,0,0-.21-.59,1.47,1.47,0,0,0-.56-.36,7.88,7.88,0,0,0-.84-.25l-1-.23a10.51,10.51,0,0,1-1.13-.33,3.5,3.5,0,0,1-1-.51,2.46,2.46,0,0,1-.7-.83,2.61,2.61,0,0,1-.27-1.26,3,3,0,0,1,.25-1.26,2.63,2.63,0,0,1,.74-.95,3.52,3.52,0,0,1,1.21-.6,5.92,5.92,0,0,1,1.65-.2,6.11,6.11,0,0,1,1.39.15,3.63,3.63,0,0,1,1.14.48,2.8,2.8,0,0,1,.85.83,3.42,3.42,0,0,1,.47,1.22l-2.09.24a1.46,1.46,0,0,0-.21-.58,1.3,1.3,0,0,0-.38-.36,1.6,1.6,0,0,0-.52-.19,4.19,4.19,0,0,0-.65,0,2.74,2.74,0,0,0-1.26.23.79.79,0,0,0-.42.76.77.77,0,0,0,.17.52,1.27,1.27,0,0,0,.49.32,6,6,0,0,0,.75.25l.94.25,1.24.34a3.26,3.26,0,0,1,1.1.5,2.47,2.47,0,0,1,.76.87,2.69,2.69,0,0,1,.29,1.34A3,3,0,0,1,41.31,56a2.66,2.66,0,0,1-.8,1,3.73,3.73,0,0,1-1.28.62,6.43,6.43,0,0,1-1.72.21,8.37,8.37,0,0,1-1.57-.13,4,4,0,0,1-1.22-.46,2.79,2.79,0,0,1-.88-.83A3.47,3.47,0,0,1,33.31,55.12Z"/><path class="cls-243" d="M43.43,47.77h2.3a1.85,1.85,0,0,1,0,.24,4.07,4.07,0,0,1,0,.41c0,.16,0,.32,0,.48s0,.32,0,.44h0A2.83,2.83,0,0,1,47,48a3.6,3.6,0,0,1,1.73-.41,2.82,2.82,0,0,1,1.51.38,3.1,3.1,0,0,1,1,1.05,5.13,5.13,0,0,1,.6,1.6,9.29,9.29,0,0,1,.2,2,10.24,10.24,0,0,1-.2,2.07,5.24,5.24,0,0,1-.64,1.63,3.24,3.24,0,0,1-1.1,1.08,3,3,0,0,1-1.57.38,3.57,3.57,0,0,1-.8-.09,2.91,2.91,0,0,1-.76-.29,2.65,2.65,0,0,1-.67-.54,2.9,2.9,0,0,1-.53-.82h0a1.81,1.81,0,0,1,0,.22c0,.13,0,.27,0,.43s0,.33,0,.51v4.27H43.49V50c0-.5,0-1,0-1.34S43.44,48,43.43,47.77Zm2.4,4.93A6.19,6.19,0,0,0,46,54.32a2.85,2.85,0,0,0,.44,1,1.6,1.6,0,0,0,.62.55,1.73,1.73,0,0,0,.69.16,1.62,1.62,0,0,0,.81-.2,1.53,1.53,0,0,0,.6-.61,3.35,3.35,0,0,0,.36-1.07,7.63,7.63,0,0,0,.13-1.54,5.24,5.24,0,0,0-.47-2.51,1.55,1.55,0,0,0-1.41-.82,1.78,1.78,0,0,0-.7.16,1.6,1.6,0,0,0-.62.55,3,3,0,0,0-.45,1A6.43,6.43,0,0,0,45.83,52.7Z"/><path class="cls-243" d="M53.33,54.83a3.41,3.41,0,0,1,.28-1.47,2.66,2.66,0,0,1,.77-1,3.29,3.29,0,0,1,1.15-.53,6.31,6.31,0,0,1,1.4-.18l2,0v-.48a3.49,3.49,0,0,0-.09-.86,1.53,1.53,0,0,0-.26-.56,1,1,0,0,0-.42-.32,1.6,1.6,0,0,0-.56-.09,2.15,2.15,0,0,0-.53.06,1,1,0,0,0-.4.22,1.13,1.13,0,0,0-.27.41,2.5,2.5,0,0,0-.15.65l-2.47-.12a3.83,3.83,0,0,1,.37-1.2,2.77,2.77,0,0,1,.74-.93A3.39,3.39,0,0,1,56,47.8a5.59,5.59,0,0,1,1.63-.22,4.65,4.65,0,0,1,1.51.23,2.94,2.94,0,0,1,1.13.69A3,3,0,0,1,61,49.61a4.47,4.47,0,0,1,.24,1.53V54.7a5.72,5.72,0,0,0,0,.62,1.83,1.83,0,0,0,.11.46.58.58,0,0,0,.23.28.71.71,0,0,0,.38.1,2.24,2.24,0,0,0,.52-.06v1.39l-.38.09a2,2,0,0,1-.33.08l-.36,0a3,3,0,0,1-.44,0,1.7,1.7,0,0,1-1.32-.47,2.42,2.42,0,0,1-.51-1.39h0a3.8,3.8,0,0,1-1.21,1.43,3.11,3.11,0,0,1-1.78.5A3.36,3.36,0,0,1,55,57.6a2.43,2.43,0,0,1-.89-.57,2.67,2.67,0,0,1-.56-.94A3.79,3.79,0,0,1,53.33,54.83Zm2.48-.18a1.57,1.57,0,0,0,.3,1.05,1,1,0,0,0,.8.35,1.55,1.55,0,0,0,.82-.22,2,2,0,0,0,.62-.55,2.61,2.61,0,0,0,.4-.8,2.91,2.91,0,0,0,.15-.92v-.51l-1.21,0c-.26,0-.5,0-.72.07a1.58,1.58,0,0,0-.6.21,1.26,1.26,0,0,0-.41.47A1.89,1.89,0,0,0,55.81,54.65Z"/><path class="cls-243" d="M63.09,52.74a7.69,7.69,0,0,1,.29-2.19,4.57,4.57,0,0,1,.85-1.61,3.63,3.63,0,0,1,1.37-1,4.69,4.69,0,0,1,1.85-.35,4.49,4.49,0,0,1,1.57.26,3.82,3.82,0,0,1,1.18.69,3.71,3.71,0,0,1,.8,1,4.65,4.65,0,0,1,.42,1.29L69.05,51a2.24,2.24,0,0,0-.51-1.21,1.6,1.6,0,0,0-2.53.4,5.49,5.49,0,0,0-.44,2.46c0,2.27.62,3.41,1.86,3.41a1.55,1.55,0,0,0,1.13-.46,2.31,2.31,0,0,0,.56-1.37l2.37.11a4.21,4.21,0,0,1-.38,1.31,3.65,3.65,0,0,1-.81,1.1,3.84,3.84,0,0,1-1.23.77,4.46,4.46,0,0,1-1.65.28,4.63,4.63,0,0,1-1.9-.36,3.56,3.56,0,0,1-1.35-1,4.47,4.47,0,0,1-.81-1.6A7.39,7.39,0,0,1,63.09,52.74Z"/><path class="cls-243" d="M72.68,52.6A6.75,6.75,0,0,1,73,50.24,4.19,4.19,0,0,1,74,48.7a3.4,3.4,0,0,1,1.37-.85A4.93,4.93,0,0,1,77,47.58a3.88,3.88,0,0,1,1.84.41,3.4,3.4,0,0,1,1.25,1.13,5,5,0,0,1,.72,1.75A10.28,10.28,0,0,1,81,53.11v.07H75.16a6.72,6.72,0,0,0,.1,1.14,3,3,0,0,0,.33.91,1.78,1.78,0,0,0,.59.6,1.71,1.71,0,0,0,.88.22,1.73,1.73,0,0,0,1-.29,1.53,1.53,0,0,0,.56-.87l2.23.2a5.57,5.57,0,0,1-.42.91,3.71,3.71,0,0,1-.73.87,3.49,3.49,0,0,1-1.14.66,4.44,4.44,0,0,1-1.64.26,4.69,4.69,0,0,1-1.77-.31,3.44,3.44,0,0,1-1.35-1A4.45,4.45,0,0,1,73,54.89,8.23,8.23,0,0,1,72.68,52.6Zm2.5-1.17h3.54a2.66,2.66,0,0,0-.53-1.57,1.59,1.59,0,0,0-1.25-.53,1.91,1.91,0,0,0-.68.12,1.45,1.45,0,0,0-.55.37,1.85,1.85,0,0,0-.37.65A3,3,0,0,0,75.18,51.43Z"/></svg>