<svg id="Слой_1" data-name="Слой 1" xmlns="http://www.w3.org/2000/svg" viewBox="0 0 121.8 199.38"><defs><style>.cls-1{fill:#000672;}.cls-2{fill:#4099a9;opacity:0.7;}</style></defs><title>mbc</title><path class="cls-1" d="M38.87,36.87V164.66a14.19,14.19,0,0,0,14.2,14.19h5.1v11.4a5.46,5.46,0,0,0,1,3.22h0a14.7,14.7,0,0,0,23.59.21h0A6.14,6.14,0,0,0,84.06,190v-9.71l15.94-.47V190a6.16,6.16,0,0,0,1.2,3.65h0a14.72,14.72,0,0,0,23.53.29h0a3.6,3.6,0,0,0,.75-2.21V179.32s16-.94,27.77-17.41,5.65-35.77,5.65-35.77-4.24-15.09-22.59-26.14c0,0,13.29-2.06,21.65-21.4,3.78-8.75,3.1-17.84,1.06-25.42-3.57-13.28-12.73-24.52-25.43-29.8a38.86,38.86,0,0,0-7.17-2.21V8.27a3.45,3.45,0,0,0-.76-2.16h0a15.61,15.61,0,0,0-25.12,1.17h0a2.82,2.82,0,0,0-.48,1.57V21.64H84.53l.39-10.83a7,7,0,0,0-1.27-4.27h0a14.63,14.63,0,0,0-23.86-.15h0A6.49,6.49,0,0,0,58.58,10l-.41,11.68-3.6-.09A15.32,15.32,0,0,0,38.87,36.87Z" transform="translate(-38.87 -0.3)"/><rect class="cls-2" x="66.46" y="47.61" width="24.95" height="69.89" rx="12" transform="translate(-67.62 44.17) rotate(-26.8)"/><rect class="cls-2" x="87.06" y="23.42" width="24.95" height="77.95" rx="12" transform="translate(-1.74 161.62) rotate(-90)"/><rect class="cls-2" x="66.46" y="86.93" width="24.95" height="69.89" rx="12" transform="translate(52.81 266.2) rotate(-152.11)"/><rect class="cls-2" x="88.16" y="104.17" width="24.95" height="75.75" rx="12" transform="translate(-80.29 242.37) rotate(-90)"/></svg>