<?xml version="1.0" encoding="utf-8"?>
<!-- Generator: Adobe Illustrator 23.0.2, SVG Export Plug-In . SVG Version: 6.00 Build 0)  -->
<svg version="1.1" id="Layer_1" xmlns="http://www.w3.org/2000/svg" xmlns:xlink="http://www.w3.org/1999/xlink" x="0px" y="0px"
	 viewBox="0 0 64 64" style="enable-background:new 0 0 64 64;" xml:space="preserve">
<style type="text/css">
	.st0{fill:#0059F3;}
</style>
<g>
	<path class="st0" d="M11,11.8c2.7-1.5,5.4-3,8-4.5c4.1-2.3,8.2-4.7,12.3-7c0.5-0.3,0.8-0.2,1.3,0c8.8,5,17.6,10,26.5,15
		c0.8,0.5,1.2,1,1.2,2c-0.1,3.4,0,6.9,0,10.3c0,2.4,0,4.7-0.1,7.1c0,4.1,0,8.2,0,12.4c0,0.7-0.2,1.1-0.8,1.5
		c-9,5.1-17.9,10.2-26.9,15.3c-0.5,0.3-0.8,0.2-1.2-0.1c-8.2-4.7-16.4-9.4-24.7-14.1c-0.7-0.4-1.4-0.9-2.1-1.2
		C4,48.3,3.9,48,3.7,47.6c0-0.1,0-0.1,0-0.2c0.1-0.3,0.1-0.5,0-0.8c0.1-1.6,0.1-3.2,0-4.9c0.1-0.5,0.1-1.1,0-1.6
		c0.1-1.5,0.1-3,0-4.5c0.1-0.7,0.1-1.5,0-2.2c0-3.6,0-7.1,0.1-10.7c0-2,0-3.9,0-5.9c0-0.7,0.2-1.1,0.8-1.4C6,14.7,7.4,13.8,8.8,13
		C9.6,12.7,10.3,12.3,11,11.8z M54.6,15.6c-0.1,0-0.1-0.1-0.2-0.1c0-0.1-0.1-0.1-0.2-0.1c-0.5-0.4-1.1-0.7-1.7-1
		c-0.1-0.1-0.1-0.1-0.2-0.2c-6.6-3.8-13.2-7.5-19.8-11.3c-0.5-0.3-0.8-0.2-1.2,0c-4,2.3-8,4.5-11.9,6.8c-4.2,2.4-8.5,4.7-12.6,7.3
		l0,0c-0.7,0.1-0.6,0.6-0.6,1.1c0,9.2,0,18.4,0,27.7c0,0.8,0.2,1.2,1,1.3c0.1,0.1,0.1,0.2,0.2,0.2c8,4.6,16,9.1,24,13.7
		c0.6,0.3,0.9,0.2,1.4-0.1C40.8,56.2,48.9,51.6,57,47c0.6-0.3,0.6-0.7,0.6-1.3c0-9.2,0-18.4,0-27.5c0-0.3,0.2-0.7-0.2-0.9
		c-0.6-0.3-1.2-0.7-1.8-1C55.4,15.9,55,15.7,54.6,15.6C54.6,15.6,54.6,15.6,54.6,15.6z"/>
	<path class="st0" d="M18.3,24.7c0.6-2.6,1.2-5.2,1.7-7.9c0.2-0.9,0.5-1.8,0.7-2.7c0.2-0.6,0.6-0.3,0.9-0.3c4.9,0,9.9,0,14.8,0
		c2,0,3.9,0,5.9,0c0.6,0,0.8,0.2,0.9,0.7c0.8,3.2,1.5,6.5,2.3,9.7c0.2,0.8-0.2,0.7-0.7,0.7c-3.9,0-7.8,0-11.6,0c-4.9,0-9.9,0-14.8,0
		C18.3,24.9,18.3,24.8,18.3,24.7z"/>
	<path class="st0" d="M21.1,51.7c-0.5-0.2-0.6-0.7-0.9-1.1c-3-5.1-5.9-10.1-8.8-15.2c-0.2-0.4-0.5-0.8-0.8-1.2
		c2.2-1.6,4.4-3.2,6.5-4.8c0.7-0.5,1.2-0.7,1.9-0.1c0.3,0.2,0.6,0.4,0.9,0.6c0,0,0,0,0,0c0.2,0.1,0.3,0.2,0.5,0.3
		c0.3,0.2,0.5,0.3,0.8,0.5c0.9,0.6,1.8,1.2,2.7,1.7c0.5,0.3,0.6,0.7,0.7,1.2c0,2.2-0.1,4.4,0.1,6.5c0.1,0.1,0.1,0.2,0.2,0.3
		c1.4,1.3,2.7,2.7,4.1,4c1,0.9,0.9,2.5-0.1,3.4c-1.3,1.3-2.8,2.4-4,3.8C23.7,51.7,22.4,51.7,21.1,51.7z"/>
	<path class="st0" d="M39.1,33.3c0.1-0.4,0.4-0.5,0.6-0.7c1.8-1.1,3.6-2.3,5.4-3.5c0.4-0.3,0.7-0.3,1.1,0c2.1,1.6,4.1,3.1,6.2,4.6
		c0.6,0.4,0.5,0.8,0.2,1.2c-1.7,3-3.5,6-5.3,9.1c-1.3,2.3-2.7,4.5-3.9,6.8c-0.3,0.5-0.7,0.7-1.3,0.7c-3.3,0-3.3,0-5.6-2.2
		c-0.4-0.4-0.8-0.8-1.2-1.1c-0.9-0.6-1.3-1.4-1.2-2.6c0.1-0.5,0.2-0.8,0.5-1.1c1.4-1.5,3-2.7,4.3-4.2c0,0,0,0,0,0
		c0.3-2.2,0.1-4.5,0.1-6.7C39.1,33.5,39.1,33.4,39.1,33.3z"/>
	<path class="st0" d="M36.7,39.8c-3.1,0-6.2,0-9.3,0c-0.8,0-1.1,0-0.9-1c0.3-1.9,0.4-3.8,0.6-5.7c0-0.1,0-0.3-0.1-0.4
		c-0.5-1.2-0.9-2.5-1.5-3.6c-0.3-0.8-0.6-1.6-0.9-2.4c0.1,0,0.1-0.1,0.1-0.1c4.6,0,9.2,0,13.7,0c0.6,0.1,0.4,0.4,0.3,0.8
		c-0.5,1.2-0.8,2.6-1.5,3.7c-0.9,1.7-0.5,3.4-0.3,5.1c0.1,1.1,0.2,2.3,0.3,3.4c0,0.2-0.2,0.2-0.3,0.3C37,39.8,36.9,39.8,36.7,39.8z"
		/>
</g>
</svg>
