<svg id="svg" version="1.1" xmlns="http://www.w3.org/2000/svg" xmlns:xlink="http://www.w3.org/1999/xlink" width="400" height="400" viewBox="0, 0, 400,400"><g id="svgg"><path id="path0" d="M198.081 7.881 C 196.813 8.450,8.642 196.621,8.073 197.889 C 7.550 199.055,7.550 200.945,8.073 202.111 C 8.709 203.528,196.629 391.355,198.081 392.024 C 199.247 392.562,200.514 392.653,201.801 392.293 C 202.791 392.016,391.459 203.583,392.133 202.198 C 392.707 201.019,392.801 199.852,392.428 198.542 L 392.105 197.409 297.636 102.908 C 220.251 25.496,202.993 8.323,202.207 7.948 C 200.972 7.358,199.308 7.331,198.081 7.881 M371.897 191.314 C 371.842 191.370,234.298 161.052,234.238 160.972 C 234.226 160.954,227.420 130.149,219.114 92.514 C 210.808 54.880,203.963 23.872,203.904 23.608 C 203.834 23.298,233.415 52.740,287.878 107.190 C 334.124 153.423,371.932 191.279,371.897 191.314 M216.513 92.194 C 224.761 129.547,231.458 160.160,231.395 160.223 C 231.282 160.336,154.429 143.442,154.003 143.210 C 153.843 143.123,198.489 29.684,201.074 23.608 C 201.272 23.142,200.885 21.423,216.513 92.194 M164.878 88.020 C 152.940 118.193,143.143 142.910,143.106 142.946 C 143.033 143.019,33.540 186.372,33.429 186.372 C 33.391 186.372,67.802 151.866,109.898 109.693 C 151.994 67.519,186.469 33.046,186.510 33.087 C 186.550 33.127,176.816 57.847,164.878 88.020 M193.954 162.290 C 215.806 167.109,233.749 171.111,233.826 171.185 C 234.015 171.364,251.667 251.276,251.544 251.399 C 251.455 251.488,171.441 233.885,171.301 233.745 C 171.233 233.678,153.551 153.709,153.551 153.472 C 153.551 153.396,153.702 153.377,153.887 153.430 C 154.071 153.484,172.102 157.471,193.954 162.290 M152.027 192.670 C 156.689 213.815,160.449 231.170,160.384 231.234 C 160.285 231.333,25.154 201.597,23.836 201.186 C 23.493 201.079,30.683 198.161,55.026 188.527 C 72.425 181.641,99.400 170.965,114.971 164.802 C 138.963 155.307,143.303 153.646,143.417 153.910 C 143.492 154.082,147.366 171.524,152.027 192.670 M306.550 187.152 C 344.805 195.603,376.351 202.569,376.653 202.631 C 377.033 202.709,377.122 202.788,376.941 202.888 C 376.419 203.176,254.284 251.469,254.234 251.407 C 254.205 251.372,250.276 233.637,245.502 211.996 C 240.728 190.355,236.777 172.454,236.721 172.217 C 236.664 171.979,236.704 171.785,236.808 171.785 C 236.912 171.785,268.296 178.700,306.550 187.152 M92.514 218.924 C 130.149 227.230,160.999 234.078,161.071 234.143 C 161.143 234.208,162.897 241.948,164.969 251.344 C 167.041 260.739,173.873 291.694,180.151 320.132 C 186.429 348.570,191.537 371.867,191.501 371.903 C 191.465 371.939,153.612 334.084,107.383 287.781 C 61.154 241.478,23.501 203.645,23.709 203.708 C 23.918 203.771,54.880 210.618,92.514 218.924 M290.507 290.203 C 244.696 336.015,207.188 373.470,207.155 373.438 C 207.067 373.350,254.135 254.444,254.345 254.224 C 254.521 254.040,373.218 206.970,373.608 206.930 C 373.714 206.919,336.318 244.392,290.507 290.203 M212.188 245.371 C 242.840 252.144,251.523 254.125,251.479 254.336 C 251.215 255.598,202.966 376.951,202.847 376.654 C 202.699 376.289,172.216 238.240,172.027 237.082 C 171.930 236.491,171.954 236.455,172.382 236.562 C 172.634 236.626,190.547 240.590,212.188 245.371 " stroke="none" fill="#44c4bc" fill-rule="evenodd"></path><path id="path1" d="M199.856 7.426 C 200.041 7.474,200.343 7.474,200.528 7.426 C 200.713 7.378,200.561 7.338,200.192 7.338 C 199.822 7.338,199.671 7.378,199.856 7.426 M103.300 101.967 C 51.644 153.616,9.133 196.176,8.830 196.545 C 8.528 196.915,29.525 175.965,55.491 149.991 C 81.456 124.017,124.012 81.457,150.058 55.414 C 176.105 29.370,197.371 8.061,197.317 8.061 C 197.263 8.061,154.956 50.319,103.300 101.967 M297.505 102.775 C 349.496 154.815,392.068 197.440,392.109 197.497 C 392.149 197.554,392.090 197.428,391.976 197.217 C 391.863 197.006,349.291 154.381,297.372 102.495 L 202.975 8.157 297.505 102.775 M203.839 23.524 C 203.839 23.688,203.909 23.780,203.994 23.727 C 204.206 23.596,371.644 191.056,371.473 191.227 C 371.398 191.302,371.503 191.363,371.705 191.363 C 371.940 191.363,341.728 161.018,288.004 107.294 C 241.766 61.056,203.913 23.225,203.887 23.225 C 203.860 23.225,203.839 23.359,203.839 23.524 M153.159 66.371 L 119.866 99.712 152.999 66.627 C 171.222 48.430,186.172 33.617,186.221 33.709 C 186.270 33.802,186.285 33.775,186.256 33.650 C 186.226 33.524,186.305 33.385,186.431 33.340 C 186.557 33.295,186.613 33.206,186.556 33.144 C 186.499 33.081,171.470 48.033,153.159 66.371 M76.583 143.090 C 52.778 166.895,33.410 186.372,33.541 186.372 C 33.673 186.372,33.781 186.281,33.781 186.169 C 33.781 186.057,33.889 186.028,34.021 186.104 C 34.153 186.180,34.193 186.167,34.109 186.075 C 34.026 185.984,53.330 166.536,77.007 142.858 C 100.685 119.181,120.014 99.808,119.961 99.808 C 119.909 99.808,100.389 119.285,76.583 143.090 M392.440 198.560 C 392.597 199.266,392.707 199.419,392.703 198.928 C 392.702 198.726,392.613 198.431,392.506 198.273 C 392.363 198.062,392.346 198.140,392.440 198.560 M7.541 199.904 C 7.542 200.432,7.579 200.625,7.623 200.333 C 7.667 200.041,7.666 199.610,7.621 199.374 C 7.575 199.137,7.539 199.376,7.541 199.904 M376.392 202.975 C 376.128 203.126,375.998 203.249,376.104 203.249 C 376.209 203.249,376.512 203.126,376.775 202.975 C 377.039 202.824,377.169 202.701,377.063 202.701 C 376.958 202.701,376.655 202.824,376.392 202.975 M297.121 297.589 C 245.130 349.574,202.721 392.031,202.879 391.938 C 203.218 391.740,391.887 203.071,391.747 203.071 C 391.694 203.071,349.112 245.604,297.121 297.589 M102.591 297.273 C 188.056 382.788,197.681 392.342,198.353 392.314 C 198.467 392.309,198.215 392.128,197.793 391.912 C 197.298 391.658,163.540 358.057,102.879 297.439 L 8.733 203.359 102.591 297.273 M75.912 256.238 C 104.837 285.163,128.546 308.829,128.598 308.829 C 128.766 308.829,23.713 203.712,23.513 203.679 C 23.407 203.661,46.987 227.313,75.912 256.238 M373.175 207.037 C 373.043 207.091,372.973 207.197,373.020 207.273 C 373.067 207.350,335.833 244.677,290.278 290.223 C 239.069 341.420,207.496 372.849,207.573 372.553 C 207.676 372.149,207.662 372.127,207.484 372.410 C 207.368 372.596,207.321 372.826,207.380 372.922 C 207.440 373.018,207.379 373.135,207.247 373.182 C 207.114 373.229,207.053 373.319,207.110 373.382 C 207.167 373.445,244.696 336.015,290.507 290.203 C 336.318 244.392,373.714 206.917,373.608 206.925 C 373.503 206.933,373.308 206.984,373.175 207.037 M159.981 340.451 C 177.293 357.790,191.480 371.977,191.506 371.977 C 191.533 371.977,191.555 371.833,191.555 371.657 C 191.555 371.481,191.494 371.398,191.419 371.473 C 191.344 371.548,177.157 357.505,159.893 340.267 L 128.503 308.925 159.981 340.451 M199.760 392.650 C 199.998 392.696,200.386 392.696,200.624 392.650 C 200.861 392.604,200.667 392.567,200.192 392.567 C 199.717 392.567,199.523 392.604,199.760 392.650 " stroke="none" fill="#44bcbc" fill-rule="evenodd"></path><path id="path2" d="" stroke="none" fill="#48c4bc" fill-rule="evenodd"></path><path id="path3" d="" stroke="none" fill="#48c4bc" fill-rule="evenodd"></path><path id="path4" d="" stroke="none" fill="#48c4bc" fill-rule="evenodd"></path></g></svg>