<svg xmlns="http://www.w3.org/2000/svg" viewBox="0 0 193.54 102.36"><defs><style>.cls-1{fill:#401c1c;}.cls-2{fill:#7d603d;}.cls-3{fill:#372324;}</style></defs><title>mftu [Восстановлен]</title><g id="Слой_1" data-name="Слой 1"><path class="cls-1" d="M0,58.33v-2c2.32.09,4.53.13,6.65.13s4.19,0,6.16-.13q2.91,6.36,5.33,11.15L30.68,92.22,42,69.51q4.64-9.29,6.19-13.22,3.51.14,5.92.13,2.22,0,7.18-.13v2a24.46,24.46,0,0,0-4.78.33,2.17,2.17,0,0,0-1.17.75,6.89,6.89,0,0,0-.5,3.08q0,.63-.17,9V86.22q0,4.32.14,8.42a9.51,9.51,0,0,0,.48,3.59,2.2,2.2,0,0,0,1.22.84,25,25,0,0,0,4.78.34v2c-4.45-.19-7.6-.29-9.43-.29-1.48,0-4.74.1-9.8.29v-2a25.26,25.26,0,0,0,4.8-.34A2,2,0,0,0,48,98.33a7.14,7.14,0,0,0,.5-3.09c0-.44.08-3.45.16-9V62.9L37.27,85.84q-2.69,5.37-4.21,8.64Q32,96.86,29.75,102H28.46a18.11,18.11,0,0,0-.79-1.94l-2.25-4.6L9.6,64V86.22q0,4.32.13,8.42a10,10,0,0,0,.48,3.59,2.2,2.2,0,0,0,1.22.84,25.11,25.11,0,0,0,4.79.34v2l-8-.26L0,101.44v-2a25.2,25.2,0,0,0,4.77-.34A2.24,2.24,0,0,0,6,98.33a7.9,7.9,0,0,0,.49-3.09c0-.44.07-3.45.14-9V71.51c0-2.88,0-5.7-.1-8.45A9.78,9.78,0,0,0,6,59.49a2.25,2.25,0,0,0-1.23-.83A24.46,24.46,0,0,0,0,58.33Z"/><path class="cls-1" d="M64.3,58.33v-2c3.36.13,6.2.19,8.54.19q2.49,0,8.91-.12t8.67-.13c1.61,0,3.08,0,4.42.05s2.54.09,3.62.17a42.43,42.43,0,0,0-1.06,9.63H95.32a37.24,37.24,0,0,0-.83-5.91,20.84,20.84,0,0,0-4.25-.84,56.23,56.23,0,0,0-5.88-.27,63.85,63.85,0,0,0-6.92.38c-.13,1.14-.22,2.21-.26,3.21q0,.85-.17,7.27v7q3.7.11,6.56.1a43.89,43.89,0,0,0,6.71-.41,2,2,0,0,0,1.25-.53,8.93,8.93,0,0,0,.61-2.68l.26-2h2.09l-.23,7.24.23,7.79H92.4l-.23-2a22,22,0,0,0-.53-3.71,1.88,1.88,0,0,0-1.26-.67,52,52,0,0,0-8.53-.41c-1.57,0-3.18,0-4.84.12v6.42q0,4.32.14,8.42a9.65,9.65,0,0,0,.44,3.59,2.26,2.26,0,0,0,1.24.84,25.2,25.2,0,0,0,4.77.34v2q-4.2-.25-8.37-.26-3.75,0-10.93.26v-2a25,25,0,0,0,4.77-.34,2.24,2.24,0,0,0,1.19-.74,7.84,7.84,0,0,0,.5-3.09q0-.66.13-9V71.51q0-4.32-.1-8.45a9.55,9.55,0,0,0-.48-3.57,2.19,2.19,0,0,0-1.22-.83A24.6,24.6,0,0,0,64.3,58.33Z"/><path class="cls-1" d="M104.35,66.81h-2q0-7.59-.33-10.52c2.4.09,6.17.19,11.32.32,4.17.08,6.95.13,8.34.13s5-.07,10.42-.19c3.95-.09,6.83-.17,8.64-.26-.27,2.37-.44,5.88-.53,10.52H138l-.26-3.05c-.18-1.84-.3-2.89-.37-3.15a1.06,1.06,0,0,0-.28-.54,1.34,1.34,0,0,0-.55-.25c-.3-.06-1.41-.15-3.3-.26s-3.4-.15-4.51-.15h-4a80.21,80.21,0,0,0-.33,8.22V86.22q0,4.32.09,8.42a9.64,9.64,0,0,0,.49,3.59,2.2,2.2,0,0,0,1.22.84,25,25,0,0,0,4.78.34v2c-4-.17-6.91-.26-8.9-.26q-1.29,0-10.33.26v-2a25.26,25.26,0,0,0,4.8-.34,2,2,0,0,0,1.16-.74,7.31,7.31,0,0,0,.53-3.09q0-.66.13-9V67.7c0-.89,0-1.87-.06-2.93l-.2-5.36h-4.93a57.62,57.62,0,0,0-6.79.31,1.47,1.47,0,0,0-1,.42,10.58,10.58,0,0,0-.67,3.46Z"/><path class="cls-1" d="M143.07,58.33v-2q5.4.26,10,.26t9.33-.26v2a24.44,24.44,0,0,0-4.76.33,2,2,0,0,0-1.16.75,7.21,7.21,0,0,0-.53,3.08c0,.42-.07,3.43-.13,9V83.27q0,6.83.91,9a8.31,8.31,0,0,0,2.89,3.61,12.3,12.3,0,0,0,4.11,1.73,23.76,23.76,0,0,0,5.76.65,22.75,22.75,0,0,0,6.58-.87,11.73,11.73,0,0,0,4.32-2.13,8.26,8.26,0,0,0,2.15-2.81,14.4,14.4,0,0,0,1-4.28,61.67,61.67,0,0,0,.31-6.87V71.51q0-4.32-.13-8.45-.06-3-.45-3.57a2.17,2.17,0,0,0-1.24-.83,24.44,24.44,0,0,0-4.76-.33v-2c3.64.17,6.29.26,8,.26q2.28,0,8.24-.26v2a24.46,24.46,0,0,0-4.78.33,2.17,2.17,0,0,0-1.17.75,7.73,7.73,0,0,0-.5,3.08c0,.42-.07,3.43-.13,9V82.15q0,7.86-1.14,11a12.49,12.49,0,0,1-4.19,5.5,16.57,16.57,0,0,1-5.88,2.77A33.52,33.52,0,0,1,159,101.2a14,14,0,0,1-5.69-3,10.6,10.6,0,0,1-2.69-3.86q-.92-2.61-.92-8.74v-14c0-2.88,0-5.7-.1-8.45a9.78,9.78,0,0,0-.48-3.57,2.18,2.18,0,0,0-1.23-.83A24.37,24.37,0,0,0,143.07,58.33Z"/><path class="cls-2" d="M113,48s-.74,6.62-9,6.61c-14.7,0-20.58-.91-20.58-.91s-8.27-2-9.56-8.27S83.18,6.3,83.18,6.3,87.91-1.42,98.87.23,114,8.87,114,8.87a17.3,17.3,0,0,1,5,9.56,3.12,3.12,0,0,1,0,.92Z"/><path class="cls-3" d="M76.71,31.74a2.2,2.2,0,0,1,.38-1,1.25,1.25,0,0,1,1.32-.51,2.07,2.07,0,0,1,1,.48,2.25,2.25,0,0,1-.38,1,1.32,1.32,0,0,1-.59.45,1.31,1.31,0,0,1-.74.05A2.11,2.11,0,0,1,76.71,31.74Z"/><path class="cls-3" d="M75.38,35.78a2.25,2.25,0,0,1,.38-1,1.32,1.32,0,0,1,.59-.45,1.3,1.3,0,0,1,.74-.06,2.26,2.26,0,0,1,.94.48,2,2,0,0,1-.38,1,1.29,1.29,0,0,1-1.32.51A2.29,2.29,0,0,1,75.38,35.78Z"/><path class="cls-3" d="M76.71,40.88a15.83,15.83,0,0,1,.78,3.32c.08.54.13,1.13.17,1.63s.12,1,.22,1.5a13.52,13.52,0,0,0,.8,2.87,6,6,0,0,0,1.84,2.47A4,4,0,0,1,77.34,51a7.54,7.54,0,0,1-1.43-3.35,9.61,9.61,0,0,1-.15-1.79c0-.61.09-1.12.16-1.69A15.26,15.26,0,0,1,76.71,40.88Z"/><path class="cls-3" d="M79.36,40.09a21.14,21.14,0,0,1,.7,3.34c.06.56.15,1.12.18,1.67s.08,1.12.1,1.67l0-.26c.21.61.49,1.3.78,1.94a18.54,18.54,0,0,0,1,1.88,14.69,14.69,0,0,0,1.19,1.76,13.09,13.09,0,0,0,1.57,1.6,5.38,5.38,0,0,1-2.27-.77,8.9,8.9,0,0,1-1.87-1.59,11.86,11.86,0,0,1-1.35-2,10.33,10.33,0,0,1-.9-2.27l0-.15v-.12c0-.55.06-1.11.1-1.67s.11-1.11.17-1.67A20.11,20.11,0,0,1,79.36,40.09Z"/><path class="cls-3" d="M84.06,40.09a23.63,23.63,0,0,1,.78,4.18c0,.33.07.74.09,1a5,5,0,0,0,.22.82,9.54,9.54,0,0,0,.77,1.66,16.63,16.63,0,0,0,2.34,3c.92,1,1.94,1.86,3,2.89a10.89,10.89,0,0,1-4-1.7,10,10,0,0,1-3.07-3.25,7.66,7.66,0,0,1-.85-2.16,6,6,0,0,1-.14-1.24c0-.43,0-.71.09-1.08A23.52,23.52,0,0,1,84.06,40.09Z"/><path class="cls-3" d="M88.47,40.88a19.25,19.25,0,0,1,.58,2.75c.15.92.24,1.83.3,2.75l-.24-.61c.72.66,1.43,1.33,2.11,2s1.35,1.4,2,2.15,1.26,1.48,1.86,2.26a29.19,29.19,0,0,1,1.71,2.43,16.2,16.2,0,0,1-2.56-1.56c-.8-.58-1.57-1.2-2.3-1.85s-1.44-1.33-2.13-2-1.32-1.44-2-2.2l-.26-.32,0-.29c.06-.92.15-1.83.3-2.75A19.25,19.25,0,0,1,88.47,40.88Z"/><path class="cls-3" d="M114.2,19.61a4.09,4.09,0,0,1,1.55.69,5.39,5.39,0,0,1,1.89,2.36,4.28,4.28,0,0,1,.33,1.67,4.29,4.29,0,0,1-1.56-.68,5.5,5.5,0,0,1-1.87-2.36A4.29,4.29,0,0,1,114.2,19.61Z"/><path class="cls-3" d="M113.12,23a4.08,4.08,0,0,1,1.55.68,5,5,0,0,1,1.11,1.05,5.22,5.22,0,0,1,.78,1.31,4.33,4.33,0,0,1,.33,1.68,4.48,4.48,0,0,1-1.56-.69,5.23,5.23,0,0,1-1.1-1.05,5.32,5.32,0,0,1-.77-1.31A4.28,4.28,0,0,1,113.12,23Z"/><path class="cls-3" d="M112.32,27.1a4.32,4.32,0,0,1,1.55.68,5.83,5.83,0,0,1,1.11,1,5.41,5.41,0,0,1,.78,1.32,4.08,4.08,0,0,1,.32,1.67,4.25,4.25,0,0,1-1.55-.69,5.5,5.5,0,0,1-1.11-1,5.57,5.57,0,0,1-.77-1.32A4.24,4.24,0,0,1,112.32,27.1Z"/><path class="cls-3" d="M111.24,31.44a4.32,4.32,0,0,1,1.55.68,6.16,6.16,0,0,1,1.11,1.05,5.6,5.6,0,0,1,.78,1.32,4.11,4.11,0,0,1,.32,1.67,4.09,4.09,0,0,1-1.55-.69,5.32,5.32,0,0,1-1.88-2.35A4.33,4.33,0,0,1,111.24,31.44Z"/><path class="cls-3" d="M110.24,35.14a4.15,4.15,0,0,1,1.6.56,5.33,5.33,0,0,1,2.08,2.2,4,4,0,0,1,.47,1.63,4.2,4.2,0,0,1-1.61-.55,5.52,5.52,0,0,1-2.06-2.19A4.44,4.44,0,0,1,110.24,35.14Z"/><path class="cls-3" d="M110.43,39.61a4.09,4.09,0,0,1,1.55.69,5.39,5.39,0,0,1,1.89,2.36,4.28,4.28,0,0,1,.33,1.67,4,4,0,0,1-1.55-.69,5.25,5.25,0,0,1-1.11-1,5.51,5.51,0,0,1-.77-1.31A4.52,4.52,0,0,1,110.43,39.61Z"/><path class="cls-3" d="M108.55,43.24a4.24,4.24,0,0,1,1.55.68,5.55,5.55,0,0,1,1.11,1,5.11,5.11,0,0,1,.78,1.32,4.24,4.24,0,0,1,.33,1.67,4.3,4.3,0,0,1-1.56-.69,5.19,5.19,0,0,1-1.1-1,5,5,0,0,1-.77-1.32A4.24,4.24,0,0,1,108.55,43.24Z"/></g><g id="Слой_2" data-name="Слой 2"><path class="cls-3" d="M91.23,5.17a12.25,12.25,0,0,1,4.88-1.58,14,14,0,0,1,5.22.34,13.71,13.71,0,0,1,2.49.9A13.25,13.25,0,0,1,106,6.28a11.18,11.18,0,0,1,3.2,4,31.32,31.32,0,0,0-4.07-2.75,20.57,20.57,0,0,0-2.12-1c-.74-.24-1.46-.53-2.22-.7a23.93,23.93,0,0,0-4.67-.72A45.19,45.19,0,0,0,91.23,5.17Z"/><path class="cls-3" d="M91.23,9.24a12.42,12.42,0,0,1,4.88-1.59,14.39,14.39,0,0,1,5.22.34,14.54,14.54,0,0,1,2.49.91A12.65,12.65,0,0,1,106,10.35a11.06,11.06,0,0,1,3.2,4,32.26,32.26,0,0,0-4.07-2.74,20.57,20.57,0,0,0-2.12-1,22,22,0,0,0-2.22-.7,23.93,23.93,0,0,0-4.67-.72A45.19,45.19,0,0,0,91.23,9.24Z"/><path class="cls-3" d="M89.45,13.23a12.35,12.35,0,0,1,4.89-1.58,14,14,0,0,1,7.71,1.24,13.25,13.25,0,0,1,2.22,1.45,11.18,11.18,0,0,1,3.2,4,32.74,32.74,0,0,0-4.07-2.75,21.61,21.61,0,0,0-2.12-1c-.74-.24-1.46-.53-2.22-.7a24,24,0,0,0-4.67-.72A45.38,45.38,0,0,0,89.45,13.23Z"/><path class="cls-3" d="M105.78,22.6a22.23,22.23,0,0,0-4-2.84,15,15,0,0,0-4.39-1.66,19.71,19.71,0,0,0-4.67-.49,24.43,24.43,0,0,0-4.7.53l-.13,0c-.48,0-1,.08-1.45.1s-1,.07-1.46.08c-1,0-2,.06-2.93,0,.92-.35,1.85-.64,2.79-.91.47-.15.94-.26,1.41-.39s.94-.25,1.41-.35l-.13,0A13.48,13.48,0,0,1,90.05,16a16.36,16.36,0,0,1,7.81.24,17.86,17.86,0,0,1,2.46.95,14.94,14.94,0,0,1,2.2,1.45A12.61,12.61,0,0,1,105.78,22.6Z"/><path class="cls-3" d="M103.73,36.26a26.22,26.22,0,0,0-4.54-3.09,25,25,0,0,0-5-1.88,45.28,45.28,0,0,0-10.8-1.24h0c-.47.09-.94.18-1.42.25q.6-.39,1.23-.75h0A19.4,19.4,0,0,1,89,28.64a20.76,20.76,0,0,1,5.75.73A16.26,16.26,0,0,1,100,31.9,12.74,12.74,0,0,1,103.73,36.26Z"/><path class="cls-3" d="M105.78,31.74a21.19,21.19,0,0,0-4.67-3.15,23.1,23.1,0,0,0-5.22-1.7c-.91-.16-1.81-.32-2.73-.39-.46-.06-.92-.1-1.39-.12s-.92-.06-1.39-.06c-.92,0-1.86,0-2.79,0s-1.88.09-2.78.19l-.09,0c-1.79,0-3.57-.07-5.36-.24,1.74-.46,3.5-.78,5.25-1.07h-.09a24.92,24.92,0,0,1,5.87-.85c.49,0,1,0,1.48,0a14.91,14.91,0,0,1,1.49.1,24.86,24.86,0,0,1,3,.49,17.8,17.8,0,0,1,5.49,2.39A13.3,13.3,0,0,1,105.78,31.74Z"/><path class="cls-3" d="M105.78,27.32a23.11,23.11,0,0,0-4-2.85,15.45,15.45,0,0,0-4.4-1.66,19.7,19.7,0,0,0-4.67-.47,24.25,24.25,0,0,0-4.69.55l-.18.05h0c-1.07,0-2.14,0-3.21-.08s-2.15-.12-3.23-.26c1.05-.29,2.11-.49,3.16-.69s2.12-.37,3.17-.5l-.2,0a12.78,12.78,0,0,1,2.54-.73,15,15,0,0,1,2.59-.33,15.92,15.92,0,0,1,5.22.59,17.86,17.86,0,0,1,2.46.95,14.84,14.84,0,0,1,2.19,1.45A12.72,12.72,0,0,1,105.78,27.32Z"/><path class="cls-3" d="M103.1,40.88a31.49,31.49,0,0,0-4.1-3c-.68-.46-1.46-.76-2.16-1.15s-1.5-.63-2.28-.86a27,27,0,0,0-4.74-1.11,32.56,32.56,0,0,0-4.93-.31h0c-1,.17-1.92.33-2.9.42.85-.5,1.73-.92,2.61-1.35h0A16.59,16.59,0,0,1,90,33a17.16,17.16,0,0,1,5.23,1.07,14.69,14.69,0,0,1,4.62,2.7A13.36,13.36,0,0,1,103.1,40.88Z"/></g></svg>