<?xml version="1.0" encoding="UTF-8"?>
<svg width="102px" height="55px" viewBox="0 0 102 55" version="1.1" xmlns="http://www.w3.org/2000/svg" xmlns:xlink="http://www.w3.org/1999/xlink">
    <!-- Generator: Sketch 51 (57462) - http://www.bohemiancoding.com/sketch -->
    <title>symbol_color_svg</title>
    <desc>Created with Sketch.</desc>
    <defs>
        <linearGradient x1="1.75434467%" y1="1.73714523%" x2="99.8361952%" y2="98.8574099%" id="linearGradient-1">
            <stop stop-color="#0775EB" offset="0%"></stop>
            <stop stop-color="#FE11B9" offset="100%"></stop>
        </linearGradient>
    </defs>
    <g id="Page-3" stroke="none" stroke-width="1" fill="none" fill-rule="evenodd">
        <g id="A4" transform="translate(-248.000000, -199.000000)">
            <g id="symbol_color" transform="translate(232.000000, 169.000000)" fill="url(#linearGradient-1)">
                <g id="Group">
                    <g id="Group-2" transform="translate(65.679862, 58.904038) rotate(13.000000) translate(-65.679862, -58.904038) translate(10.179862, 11.404038)">
                        <path d="M30.9942121,21.673569 L59.7999988,23.1229167 L83.9504438,21.7904784 C95.9581824,21.1279824 106.229437,30.3251188 106.891933,42.3328574 C106.913973,42.7323293 106.924999,43.1323328 106.924999,43.5324123 L106.924999,47.0104167 C106.924999,58.9983492 97.2068594,68.7164886 85.218927,68.7164886 C83.8928191,68.7164886 82.5695013,68.5949635 81.2655736,68.3534379 C69.3684389,66.1497654 61.4549155,65.0479167 57.5249988,65.0479167 C53.5950821,65.0479167 45.6815587,66.1497654 33.7844286,68.3534627 L33.784424,68.3534379 C21.9969988,70.5368146 10.6714262,62.7511951 8.48804948,50.96377 C8.24652385,49.6598424 8.1249988,48.3365245 8.1249988,47.0104167 L8.1249988,43.421059 C8.1249988,31.3950585 17.8739984,21.646059 29.8999988,21.646059 C30.2649095,21.646059 30.6297625,21.6552319 30.9942121,21.673569 Z" id="Rectangle-2" opacity="0.305706522" transform="translate(57.524999, 45.183196) rotate(-11.000000) translate(-57.524999, -45.183196) "></path>
                        <path d="M29.697516,23.5735908 L58.5033027,25.0229386 L82.6537477,23.6905002 C94.6614863,23.0280043 104.932741,32.2251406 105.595237,44.2328792 C105.617276,44.6323512 105.628303,45.0323547 105.628303,45.4324342 L105.628303,48.9104386 C105.628303,60.898371 95.9101633,70.6165104 83.9222308,70.6165104 C82.596123,70.6165104 81.2728052,70.4949854 79.9688775,70.2534597 C68.0717428,68.0497872 60.1582194,66.9479386 56.2283027,66.9479386 C52.298386,66.9479386 44.3848626,68.0497872 32.4877324,70.2534846 L32.4877278,70.2534597 C20.7003027,72.4368365 9.3747301,64.651217 7.19135336,52.8637919 C6.94982773,51.5598642 6.82830269,50.2365464 6.82830269,48.9104386 L6.82830269,45.3210808 C6.82830269,33.2950804 16.5773023,23.5460808 28.6033027,23.5460808 C28.9682134,23.5460808 29.3330664,23.5552537 29.697516,23.5735908 Z" id="Rectangle-2" opacity="0.323143116" transform="translate(56.228303, 47.083218) rotate(-19.000000) translate(-56.228303, -47.083218) "></path>
                        <path d="M38.6723739,25.7103372 C45.0672421,29.7534982 51.2512348,32.0078008 57.2243521,32.4732448 C62.8959614,32.9151944 68.6204348,31.8181826 74.3977724,29.1822095 L74.3977719,29.1822083 C85.3387588,24.1902639 98.2549516,29.0129157 103.246896,39.9539026 C104.444734,42.5792385 105.108799,45.4164794 105.200493,48.3007119 L105.333222,52.4757242 C105.597719,60.7955351 99.0675972,67.754492 90.7477863,68.0189894 C86.7974396,68.144576 82.9558302,66.7134345 80.0505102,64.0338587 C72.6250872,57.1854816 65.1570539,53.2445058 57.6463663,52.2109791 C49.7350806,51.1223271 41.413672,54.2609161 32.6821405,61.6267461 L32.6821472,61.626754 C25.5821777,67.6162151 14.9710975,66.7159703 8.98163638,59.6160007 C6.23276869,56.3574644 4.82387858,52.1766425 5.03987197,47.9189812 L5.28880518,43.0120332 C5.89810693,31.0014786 16.1285219,21.7589369 28.1390765,22.3682387 C31.8791489,22.5579745 35.5070784,23.7090763 38.6723739,25.7103372 Z" id="Rectangle-2" transform="translate(55.179617, 45.183186) rotate(-19.000000) translate(-55.179617, -45.183186) "></path>
                        <path d="M39.492844,25.802614 C45.9883689,29.9589838 52.2667504,32.2733241 58.3279885,32.7456348 C63.5958661,33.1561243 68.9093495,32.2389551 74.2684387,29.9941272 L74.2684389,29.9941275 C85.3606169,25.3478097 98.1191885,30.5732119 102.765506,41.6653899 C103.906498,44.3892861 104.481486,47.3168112 104.455498,50.2699109 L104.380911,58.7454167 C104.315775,66.1470258 98.2627819,72.0944122 90.8611728,72.029276 C86.8364391,71.9938572 83.0407068,70.1515205 80.5229099,67.0113875 C73.5941011,58.3700039 66.336474,53.5273241 58.7500027,52.483369 C50.9503498,51.4100785 42.7333498,53.672134 34.0990029,59.2695355 L34.0989938,59.2695214 C25.6603336,64.7400647 14.3846964,62.3339306 8.91415308,53.8952705 C6.80305052,50.6387608 5.78760272,46.7929418 6.01591494,42.9187345 L6.01919442,42.8630502 C6.72667534,30.857877 17.0323177,21.6992878 29.037491,22.4067687 C32.7556827,22.6258867 36.3555161,23.7950942 39.492844,25.802614 Z" id="Rectangle-2" transform="translate(55.220354, 47.199098) rotate(-32.000000) translate(-55.220354, -47.199098) "></path>
                    </g>
                </g>
            </g>
        </g>
    </g>
</svg>