<?xml version="1.0" encoding="utf-8"?>
<!-- Generator: Adobe Illustrator 23.0.2, SVG Export Plug-In . SVG Version: 6.00 Build 0)  -->
<svg version="1.1" id="Layer_1" xmlns="http://www.w3.org/2000/svg" xmlns:xlink="http://www.w3.org/1999/xlink" x="0px" y="0px"
	 viewBox="0 0 64 64" style="enable-background:new 0 0 64 64;" xml:space="preserve">
<style type="text/css">
	.st0{fill:#76B8B3;}
	.st1{fill:#4E7F7A;}
	.st2{fill:#E1F3F3;}
</style>
<path class="st0" d="M23.3,57.8C16.6,53.6,10,49.4,3.4,45.3c-2-1.3-2.9-2.5-2.5-5.2C2.9,29,4.6,17.8,6.3,6.7c0.6,0,1.2-0.1,1.8-0.1
	c6.9,4.5,14,8.9,20.8,13.6c2.5,1.7,4.6,1.6,7.3,0.2c8.6-4.7,17.3-9.1,26-13.6c0.3,0.1,0.7,0.3,1,0.4c-2.7,9.7-2.1,20.1-5.6,29.7
	c-0.9,2.4,0.8,5.3-1.4,7.5c-0.5,0.1-1,0.2-1.5,0.3c-1.9,0.4-3.5,3.3-5.1,1.8c-1.3-1.2-0.1-3.7,0.2-5.7c1.1-6.6,2.1-13.3,3.2-20.2
	c-3.6,0.6-6.4,2.1-8.6,3.8C34.8,32,26.2,30.6,17.2,23c-4.5-3.9-5-3.3-6.1,2.7c-2.4,13.1-2.5,13.2,8.9,20.1c4.4,2.7,8.5,5.3,6.4,11.5
	c-0.6,1-1.6,1.1-2.6,1C23.8,57.9,23.6,57.7,23.3,57.8z"/>
<path class="st1" d="M47.1,41.2c-1.4,10.3-10.9,11-17.7,15c2-6-0.6-9.5-5.9-12c-2.7-1.3-5-3.3-7.6-4.8c-2.5-1.5-3.3-3.4-2.8-6.2
	c0.5-2.5,0.3-5.2,1.9-7.8c3.5,2.2,7,4.1,10.1,6.6c3.7,2.9,7,2.8,10.9,0.5c4-2.4,8.2-4.2,13-6.5C48.3,31.5,47.7,36.4,47.1,41.2z"/>
<path class="st2" d="M23.3,57.8c0.4,0,0.6,0.1,0.6,0.5C23.6,58.2,23.4,58,23.3,57.8z"/>
</svg>
