<svg id="Слой_1" data-name="Слой 1" xmlns="http://www.w3.org/2000/svg" viewBox="0 0 228.36 228.36"><defs><style>.cls-1{fill:#165689;}</style></defs><title>mtc</title><path class="cls-1" d="M114.69,229A114.18,114.18,0,1,1,228.87,114.84,114.31,114.31,0,0,1,114.69,229Zm0-218.36A104.18,104.18,0,1,0,218.87,114.84,104.3,104.3,0,0,0,114.69,10.66Z" transform="translate(-0.51 -0.66)"/><path class="cls-1" d="M55.76,147.06a104.81,104.81,0,0,1-16.09-1.17l-4.18-.7V123h10v13.52c9.35.91,32.13,1.81,44.74-9,6-5.18,8.93-12.34,8.82-21.89s-3.19-16.94-9.43-22.16C76.9,72.87,54.69,73.74,45.49,74.64v12h-10V66l4.16-.71C41.14,65,76.21,59.28,96,75.8c8.51,7.11,12.9,17.11,13,29.74S105,128,96.72,135.15C85.25,145,68.24,147.06,55.76,147.06Z" transform="translate(-0.51 -0.66)"/><path class="cls-1" d="M161.85,161.85H126.1a23.13,23.13,0,0,1-19.5-10.24c-4.75-7.25-3.26-14.82,4-20.26a26.8,26.8,0,0,1,16-5.18h24.9c-.77-5.94-2.72-10.38-5.76-12.94a12.3,12.3,0,0,0-8.63-2.7l-.38.06H104.05v-10h32a22.4,22.4,0,0,1,16.12,5c5.29,4.45,8.43,11.37,9.37,20.58h9.64v10h-9.35ZM126.6,136.17a16.75,16.75,0,0,0-10,3.18c-3.44,2.58-3.25,4.31-1.63,6.77a13.15,13.15,0,0,0,11.14,5.73h25.75V136.17Z" transform="translate(-0.51 -0.66)"/><circle class="cls-1" cx="40.29" cy="87.32" r="6.92"/><circle class="cls-1" cx="40.29" cy="122.48" r="6.92"/><path class="cls-1" d="M181.84,145.7a15.64,15.64,0,1,1,15.63-15.63A15.65,15.65,0,0,1,181.84,145.7Zm0-21.27a5.64,5.64,0,1,0,5.63,5.64A5.65,5.65,0,0,0,181.84,124.43Z" transform="translate(-0.51 -0.66)"/></svg>