<svg id="Слой_1" data-name="Слой 1" xmlns="http://www.w3.org/2000/svg" viewBox="0 0 220.53 256"><defs><style>.cls-1{fill:#1857a2;}.cls-2{fill:#0dafe4;}.cls-3{fill:#181f39;}</style></defs><title>nbc</title><polygon class="cls-1" points="21.62 203.98 0 192.49 0 66.69 21.62 78.16 21.62 203.98"/><polygon class="cls-2" points="160.4 102.52 178.5 90.55 68.36 23.67 0 66.69 21.62 78.16 68.36 49.13 160.4 102.52"/><polygon class="cls-3" points="134.02 124.91 134.02 146.69 178.5 122.15 178.5 90.55 160.4 102.52 160.4 110.19 134.02 124.91"/><polygon class="cls-2" points="63.15 100.67 68.36 97.91 94.75 113.56 112.85 102.52 67.44 73.68 42.29 90.55 63.15 100.67"/><polygon class="cls-1" points="110.5 233.82 110.5 256 42.29 217.25 42.29 90.55 63.15 100.67 62.84 189.03 63.15 207.44 110.5 233.82"/><path class="cls-1" d="M84.62,139.94c.92.31,20.56,13.2,20.56,13.2v31l5.33,2.76v21.48L84.62,193.63Z"/><polygon class="cls-3" points="110.5 233.82 220.53 173.28 220.53 194.86 110.5 256 110.5 233.82"/><polygon class="cls-3" points="110.5 186.88 202.12 135.34 202.12 77.97 220.53 66.69 220.53 146.69 127.88 198.85 110.5 208.36 110.5 186.88"/><polygon class="cls-2" points="42.29 90.55 63.15 100.67 68.36 97.91 94.75 113.56 112.85 102.52 67.44 73.68 42.29 90.55"/><polygon class="cls-2" points="202.12 77.97 89.25 11.09 107.33 0 220.53 66.69 202.12 77.97"/></svg>