<svg id="Слой_1" data-name="Слой 1" xmlns="http://www.w3.org/2000/svg" viewBox="0 0 194 211.5"><defs><style>.cls-1{fill:#7171af;}.cls-2{fill:#fffeff;}</style></defs><title>nbtk</title><rect class="cls-1" width="194" height="211.5" rx="40.97"/><path class="cls-2" d="M47.94,126.06c0-8.83.08-25.51.25-40.93A34.74,34.74,0,0,1,82.93,50.82h0a38.6,38.6,0,0,1,38.6,38.6v35.3a7.66,7.66,0,0,1-7.66,7.66h-.25a6.92,6.92,0,0,1-6.93-6.88l-.33-45.09L105.24,78c-8.21-17.43-33-17.52-41.32-.14l-1.57,3.27L61.7,125a7.44,7.44,0,0,1-7.44,7.34h0A6.32,6.32,0,0,1,47.94,126.06Z" transform="translate(-0.79)"/><path class="cls-2" d="M77.53,87.11c0,8.83.08,25.51.25,40.92a34.74,34.74,0,0,0,34.74,34.32h0a38.61,38.61,0,0,0,38.6-38.61V88.45a7.66,7.66,0,0,0-7.66-7.66h-.25a6.94,6.94,0,0,0-6.94,6.88L136,132.76l-1.12,2.36c-8.21,17.44-33,17.53-41.32.15L91.94,132l-.65-43.88a7.44,7.44,0,0,0-7.44-7.33h0A6.31,6.31,0,0,0,77.53,87.11Z" transform="translate(-0.79)"/></svg>