<svg id="Слой_1" data-name="Слой 1" xmlns="http://www.w3.org/2000/svg" viewBox="0 0 188.99 190.44"><defs><style>.cls-1{fill:#388abb;}</style></defs><title>ner</title><path class="cls-1" d="M5,78.76l53.83,4.35a20,20,0,0,0,21.6-18.78C82,37.24,76.52,3.54,76.84,4.5c.48,1.43,26.66,56.65,26.66,56.65L100,64.48s10.64,2.38,15.88-15.23S128.73,6.88,128.73,6.88L115.4,82.1s2.38-5.72,5.24-6.19c0,0,0,12.38,18.09,6.66s49.51-22.85,49.51-22.85-35.7,26.66-60,34.75c0,0,33.32,2.38,65.69,15.24,0,0-63.31-15.71-76.17,10,0,0,6.67-6.18,12.38-5.71,0,0-1.9,26.34,29,56.18l-33.54-32.86a10.67,10.67,0,0,0-17.79,4.91L94,194.92l-1.06-40.25A54.46,54.46,0,0,1,99,128.2l.46-.88S89.22,124.94,63,187.78c0,0,16.18-51.89,13.8-69.5,0,0-1.43,5.71-3.33,8.57A51.46,51.46,0,0,0,41.14,92.09Z" transform="translate(-4.96 -4.48)"/></svg>