<svg width="19" height="11.999999999999998" xmlns="http://www.w3.org/2000/svg">
 <g>
  <title>background</title>
  <rect x="-1" y="-1" width="21" height="14" id="canvas_background" fill="none"/>
 </g>

 <g>
  <title>Layer 1</title>
  <path stroke="null" d="m8.601516,3.866041l1.261493,0l0,1.312892l-1.261493,0l0,1.329305l1.261493,0l0,1.312892l-1.261493,0l0,4.143809l-1.852243,0l-1.895323,-4.143809l-1.692253,0l0,4.143809l-1.852243,0l0,-4.143809l-1.243034,0l0,-1.312892l1.243034,0l0,-1.329305l-1.243034,0l0,-1.312892l1.243034,0l0,-3.848419l1.852243,0l1.753785,3.848419l1.839945,0l0,-3.848419l1.846088,0l0,3.848419zm-2.479918,2.642198l0.633829,0l0,-1.329305l-1.236887,0l0.603058,1.329305zm-2.9599,0l1.095349,0l-0.609212,-1.329305l-0.486136,0l0,1.329305zm3.593729,1.386737l0,-0.073844l-0.036926,0l0.036926,0.073844z" fill="#fff" id="svg_1"/>
 </g>
</svg>