<svg width="19" height="11.999999999999998" xmlns="http://www.w3.org/2000/svg">
 <g>
  <title>background</title>
  <rect x="-1" y="-1" width="21" height="14" id="canvas_background" fill="none"/>
 </g>

 <g>
  <title>Layer 1</title>
  <path stroke="null" d="m8.639591,3.857905l1.267121,0l0,1.310117l-1.267121,0l0,1.326495l1.267121,0l0,1.310117l-1.267121,0l0,4.135049l-1.860505,0l-1.903778,-4.135049l-1.699802,0l0,4.135049l-1.860505,0l0,-4.135049l-1.248579,0l0,-1.310117l1.248579,0l0,-1.326495l-1.248579,0l0,-1.310117l1.248579,0l0,-3.840283l1.860505,0l1.761609,3.840283l1.848153,0l0,-3.840283l1.854324,0l0,3.840283zm-2.490981,2.636612l0.636656,0l0,-1.326495l-1.242405,0l0.605748,1.326495zm-2.973104,0l1.100235,0l-0.61193,-1.326495l-0.488305,0l0,1.326495zm3.60976,1.383805l0,-0.073688l-0.037091,0l0.037091,0.073688z" fill="#000" id="svg_1"/>
 </g>
</svg>