<svg width="25" height="25" viewBox="0 0 25 25" fill="none" xmlns="http://www.w3.org/2000/svg">
<rect width="25" height="25" fill="#191A39"/>
<path d="M11.3857 14.9443C11.3857 14.3063 11.4632 13.7982 11.6182 13.4199C11.7731 13.0417 12.0557 12.6702 12.4658 12.3057C12.8805 11.9365 13.1562 11.638 13.293 11.4102C13.4297 11.1777 13.498 10.9339 13.498 10.6787C13.498 9.90853 13.1426 9.52344 12.4316 9.52344C12.0944 9.52344 11.8232 9.62826 11.6182 9.83789C11.4176 10.043 11.3128 10.3278 11.3037 10.6924H9.32129C9.3304 9.82194 9.61068 9.14062 10.1621 8.64844C10.7181 8.15625 11.4746 7.91016 12.4316 7.91016C13.3978 7.91016 14.1475 8.14486 14.6807 8.61426C15.2139 9.0791 15.4805 9.73763 15.4805 10.5898C15.4805 10.9772 15.3939 11.3441 15.2207 11.6904C15.0475 12.0322 14.7445 12.4128 14.3115 12.832L13.7578 13.3584C13.4115 13.6911 13.2132 14.0807 13.1631 14.5273L13.1357 14.9443H11.3857ZM11.1875 17.043C11.1875 16.7376 11.29 16.487 11.4951 16.291C11.7048 16.0905 11.9714 15.9902 12.2949 15.9902C12.6185 15.9902 12.8828 16.0905 13.0879 16.291C13.2975 16.487 13.4023 16.7376 13.4023 17.043C13.4023 17.3438 13.2998 17.5921 13.0947 17.7881C12.8942 17.984 12.6276 18.082 12.2949 18.082C11.9622 18.082 11.6934 17.984 11.4883 17.7881C11.2878 17.5921 11.1875 17.3438 11.1875 17.043Z" fill="white"/>
</svg>
