<?xml version="1.0" encoding="utf-8"?>
<!-- Generator: Adobe Illustrator 23.0.2, SVG Export Plug-In . SVG Version: 6.00 Build 0)  -->
<svg version="1.1" id="Layer_1" xmlns="http://www.w3.org/2000/svg" xmlns:xlink="http://www.w3.org/1999/xlink" x="0px" y="0px"
	 viewBox="0 0 64 64" style="enable-background:new 0 0 64 64;" xml:space="preserve">
<style type="text/css">
	.st0{fill:#252525;}
	.st1{fill:#F5D20C;}
</style>
<g>
	<path class="st0" d="M32,64C14.4,64,0,49.7,0,32C0,14.4,14.4,0,32,0c17.7,0,32,14.4,32,32C64,49.7,49.7,64,32,64z M35.9,30.4
		c3.6-3.6,7.2-7.2,10.9-10.9c0.6-0.6,1.6-1.1,1.5-1.8c-0.1-0.6-1-1.2-1.6-1.8c-0.5-0.6-0.8-0.5-1.3,0c-3.8,3.8-7.6,7.7-11.5,11.5
		c-0.1,0.1-0.1,0.2-0.2,0.2c-0.4,0.3-0.3,0.5,0,0.8C34.5,29.1,35.2,29.8,35.9,30.4z M17.2,49.1c0.4-0.4,0.6-0.6,0.8-0.8
		c3.4-3.4,6.9-6.9,10.3-10.3c0.6-0.6,1.5-1.2,1.5-1.8c0-0.6-1-1.1-1.5-1.8c-0.5-0.7-0.8-0.5-1.3,0c-3.5,3.5-7,7.1-10.6,10.6
		c-1.5,1.5-1.5,1.5,0,3C16.7,48.3,16.9,48.7,17.2,49.1z M27.6,30.4c0.1-0.1,0.3-0.2,0.4-0.3c0.5-0.5,1-1,1.5-1.5
		c0.5-0.4,0.3-0.6,0-1c-3.9-3.9-7.8-7.8-11.7-11.7c-0.4-0.4-0.6-0.6-1,0c-0.3,0.5-0.8,0.9-1.3,1.3c-0.4,0.4-0.5,0.6,0,1.1
		c3.9,3.9,7.8,7.8,11.7,11.7C27.3,30.1,27.4,30.2,27.6,30.4z M35.8,33.7c-0.7,0.7-1.2,1.3-1.8,1.9c-0.6,0.5-0.5,0.8,0,1.3
		c3.5,3.4,6.9,6.9,10.3,10.3c0.6,0.6,1.2,1.6,1.8,1.5c0.7-0.1,1.2-1.1,1.9-1.6c0.5-0.4,0.5-0.7,0-1.1C43.9,41.9,39.9,37.8,35.8,33.7
		z M34.2,32c-0.3-0.2-0.6-0.4-0.8-0.6c-0.6-0.5-1-1.5-1.7-1.5c-0.6,0-1,1-1.6,1.4c-0.7,0.6-0.7,1,0,1.5c0.6,0.5,1.1,1.5,1.7,1.4
		c0.6-0.1,1.1-1,1.7-1.5C33.6,32.6,33.8,32.4,34.2,32z"/>
	<path class="st1" d="M35.9,30.4c-0.7-0.6-1.4-1.3-2.1-1.9c-0.3-0.3-0.4-0.5,0-0.8c0.1-0.1,0.1-0.1,0.2-0.2
		c3.8-3.8,7.7-7.6,11.5-11.5c0.5-0.5,0.8-0.6,1.3,0c0.5,0.6,1.5,1.1,1.6,1.8c0.1,0.7-1,1.2-1.5,1.8C43.1,23.2,39.5,26.9,35.9,30.4z"
		/>
	<path class="st1" d="M17.2,49.1c-0.3-0.4-0.5-0.7-0.8-1c-1.5-1.5-1.5-1.5,0-3c3.5-3.5,7.1-7,10.6-10.6c0.5-0.5,0.8-0.7,1.3,0
		c0.5,0.6,1.5,1.2,1.5,1.8c0,0.6-1,1.2-1.5,1.8c-3.4,3.4-6.9,6.9-10.3,10.3C17.8,48.5,17.6,48.7,17.2,49.1z"/>
	<path class="st1" d="M27.6,30.4c-0.2-0.2-0.3-0.3-0.5-0.4c-3.9-3.9-7.8-7.8-11.7-11.7c-0.5-0.5-0.4-0.7,0-1.1
		c0.5-0.4,1-0.8,1.3-1.3c0.4-0.6,0.7-0.4,1,0c3.9,3.9,7.8,7.8,11.7,11.7c0.4,0.4,0.5,0.6,0,1c-0.5,0.5-1,1-1.5,1.5
		C27.9,30.1,27.7,30.3,27.6,30.4z"/>
	<path class="st1" d="M35.8,33.7c4.1,4.2,8.1,8.2,12.2,12.3c0.4,0.5,0.4,0.7,0,1.1c-0.6,0.5-1.2,1.5-1.9,1.6c-0.5,0-1.2-1-1.8-1.5
		c-3.4-3.4-6.9-6.9-10.3-10.3c-0.5-0.5-0.7-0.8,0-1.3C34.6,35,35.1,34.4,35.8,33.7z"/>
	<path class="st1" d="M34.2,32c-0.4,0.4-0.6,0.6-0.8,0.8c-0.6,0.5-1.1,1.4-1.7,1.5c-0.6,0.1-1.1-1-1.7-1.4c-0.7-0.5-0.7-1,0-1.5
		c0.6-0.5,1.1-1.4,1.6-1.4c0.7,0,1.1,1,1.7,1.5C33.6,31.6,33.9,31.8,34.2,32z"/>
</g>
</svg>
