<svg id="Слой_1" data-name="Слой 1" xmlns="http://www.w3.org/2000/svg" viewBox="0 0 200 200"><defs><style>.cls-1{fill:#ef5031;}</style></defs><title>nsr</title><path class="cls-1" d="M182,42.71,145.57,162.54l-10.63-32.35L167.86,26.57c-1.58-1.46-3.2-2.88-4.88-4.24l-30.22,99.53L122.12,89.51l24.74-77.86a100,100,0,0,0-128.55,146L54.81,42.81l9.47,30.64L33.54,174.71c1.31,1.16,2.66,2.28,4,3.38L67.63,83.48l9.47,30.65L54.37,189A100,100,0,0,0,182,42.71Zm-77.3,121a11.7,11.7,0,0,1-11.18-8.22L57,38.91H68.31A11.19,11.19,0,0,1,79,46.77l36.55,117Zm26.19,0a11.7,11.7,0,0,1-11.18-8.22L83.23,38.91H94.5a11.19,11.19,0,0,1,10.69,7.86l36.55,117Z"/></svg>