<svg id="Слой_1" data-name="Слой 1" xmlns="http://www.w3.org/2000/svg" viewBox="0 0 197.6 197.6"><defs><style>.cls-1{fill:#0a2e68;}.cls-2{fill:#fdb316;}.cls-3{fill:#fcb414;}</style></defs><title>nty</title><circle class="cls-1" cx="98.8" cy="98.8" r="98.8"/><path class="cls-2" d="M104.14,196.05l-.43-8c2.85-.16,5.73-.45,8.54-.88l1.2,7.91C110.38,195.56,107.25,195.88,104.14,196.05Zm-19.7-.91c-3.08-.46-6.17-1.07-9.18-1.82l1.92-7.76c2.77.69,5.6,1.25,8.43,1.66Zm48.12-5-2.77-7.51c2.67-1,5.33-2.12,7.9-3.36l3.49,7.2C138.38,187.87,135.48,189.1,132.56,190.18Zm-75.88-3.54c-2.79-1.35-5.56-2.85-8.23-4.46l4.14-6.84c2.45,1.48,5,2.85,7.56,4.09ZM158,176.16l-4.86-6.35c2.27-1.74,4.47-3.6,6.56-5.55l5.45,5.86C162.85,172.24,160.44,174.27,158,176.16ZM32.69,170.31c-2.28-2.11-4.49-4.35-6.56-6.67l6-5.33c1.9,2.13,3.92,4.19,6,6.13Zm145.45-15-6.51-4.64c1.66-2.33,3.22-4.76,4.64-7.23l6.93,4C181.65,150.11,180,152.76,178.14,155.29Zm-163.6-7.62c-1.56-2.69-3-5.49-4.31-8.31L17.5,136c1.19,2.6,2.52,5.16,4,7.63Zm176.74-18.26-7.6-2.51c.9-2.71,1.67-5.49,2.3-8.27l7.81,1.76C193.1,123.42,192.26,126.46,191.28,129.41ZM3.88,120.67c-.7-3-1.25-6.12-1.65-9.21l7.93-1c.37,2.83.88,5.68,1.51,8.45Zm192.29-19.86-8-.16c0-.62,0-1.23,0-1.85,0-2.25-.08-4.52-.25-6.75l8-.59c.18,2.42.27,4.89.27,7.34C196.19,99.47,196.18,100.14,196.17,100.81ZM9.64,92.32l-8-.57c.22-3.11.6-6.23,1.12-9.29l7.88,1.33C10.19,86.6,9.85,89.47,9.64,92.32ZM184.77,74.23c-.78-2.74-1.71-5.48-2.75-8.14l7.44-2.93c1.14,2.9,2.15,5.89,3,8.87ZM15.49,66.34,8,63.43c1.13-2.9,2.42-5.77,3.82-8.55L19,58.5C17.7,61,16.52,63.68,15.49,66.34ZM173.71,50c-1.56-2.39-3.26-4.73-5-7l6.25-5c1.94,2.43,3.79,5,5.49,7.59ZM28.77,43.25l-6.27-5c1.93-2.43,4-4.8,6.17-7l5.76,5.55C32.44,38.84,30.54,41,28.77,43.25ZM156,30.1c-2.19-1.83-4.5-3.57-6.85-5.18l4.51-6.61c2.56,1.75,5.07,3.65,7.46,5.64Zm-107.74-5-4.53-6.6c2.56-1.76,5.24-3.41,8-4.92l3.87,7C53.06,21.93,50.6,23.45,48.25,25.07Zm85-8.79c-2.64-1.1-5.35-2.09-8.08-2.93l2.36-7.64c3,.91,5.93,2,8.8,3.18Zm-61-2.85L69.83,5.79c3-.92,6-1.71,9.06-2.34l1.63,7.83C77.72,11.86,74.93,12.58,72.2,13.43Zm35.18-3.61c-2.83-.27-5.72-.41-8.58-.41h-.26l0-8h.32c3.1,0,6.24.15,9.32.44Z"/><polygon class="cls-3" points="35.21 66.61 38.67 132.8 147.35 62.66 55.47 89.83 35.21 66.61"/><polygon class="cls-3" points="164.64 128.04 161.18 61.84 52.5 131.99 144.39 104.82 164.64 128.04"/></svg>