<svg id="Слой_1" data-name="Слой 1" xmlns="http://www.w3.org/2000/svg" viewBox="0 0 199.77 199.77"><defs><style>.cls-1{fill:#6d6e71;}.cls-2{fill:#0f75bc;}.cls-3{fill:none;}</style></defs><title>nyc</title><path class="cls-1" d="M100,199.89A99.89,99.89,0,1,1,199.89,100,100,100,0,0,1,100,199.89Zm0-183.78A83.89,83.89,0,1,0,183.89,100,84,84,0,0,0,100,16.11Z" transform="translate(-0.11 -0.11)"/><path class="cls-2" d="M35.35,73.44s-.46,50.91,0,50.91h9.36V90.92s25.6,33.43,26.06,33.43h6.44V73.44h-9L68,104.88,43,73.44Z" transform="translate(-0.11 -0.11)"/><polygon class="cls-2" points="80.17 73.33 80.17 91.42 87.83 102.62 88.45 124.24 97.49 124.24 97.49 103.08 118.19 73.33 106.85 73.33 93.35 93.57 80.17 73.33"/><path class="cls-2" d="M148.36,81l-5.83,6.28A16.88,16.88,0,0,0,126.13,83c-.36.1-.71.2-1,.32a16.87,16.87,0,0,0-11.38,16.12v3.49a14.92,14.92,0,0,0,6.14,12.27c.22.16.45.31.69.46a14,14,0,0,0,7.41,2h1.44A19.45,19.45,0,0,0,142,113.18c.25-.2.49-.42.73-.64l6.9,6.44a16.64,16.64,0,0,1-13.34,6.75H125.51s-9,.8-16.27-8.28a27,27,0,0,1-5.11-10.56,22.44,22.44,0,0,1-.7-6.89c.06-.71,18.25-25.64,18.25-25.64s9.35-2.45,15.64,0A42.24,42.24,0,0,1,148.36,81Z" transform="translate(-0.11 -0.11)"/><path class="cls-1" d="M135.44,110.1a8.44,8.44,0,1,1,8.44-8.44A8.45,8.45,0,0,1,135.44,110.1Zm0-12.88a4.44,4.44,0,1,0,4.44,4.44A4.44,4.44,0,0,0,135.44,97.22Z" transform="translate(-0.11 -0.11)"/><rect class="cls-1" x="144.56" y="95.1" width="4" height="13.49"/><path class="cls-3" d="M146.67,90.62" transform="translate(-0.11 -0.11)"/><rect class="cls-1" x="151.15" y="95.1" width="4" height="13.49"/><path class="cls-1" d="M165.54,108.71h-4v-7A5.44,5.44,0,0,0,160,97.88a2,2,0,0,0-1-.68h0c-.71,0-2.75,1.74-4.13,3.53l-3.17-2.44c1-1.29,4.46-5.48,7.81-5.06a5.84,5.84,0,0,1,3.37,1.82,9.49,9.49,0,0,1,2.68,6.68Z" transform="translate(-0.11 -0.11)"/></svg>