<svg id="Слой_1" data-name="Слой 1" xmlns="http://www.w3.org/2000/svg" viewBox="0 0 198.32 198.32"><defs><style>.cls-1{fill:#2f3342;}.cls-2{fill:#fed32f;}</style></defs><title>orme</title><circle class="cls-1" cx="99.16" cy="99.16" r="97.66"/><path class="cls-2" d="M99.17,198.33a99.17,99.17,0,1,1,99.16-99.16A99.28,99.28,0,0,1,99.17,198.33ZM99.17,3a96.17,96.17,0,1,0,96.16,96.17A96.28,96.28,0,0,0,99.17,3Z" transform="translate(0 0)"/><circle class="cls-1" cx="99.16" cy="99.16" r="90.74"/><path class="cls-2" d="M99.17,191.41a92.25,92.25,0,1,1,92.24-92.24A92.35,92.35,0,0,1,99.17,191.41Zm0-181.49a89.25,89.25,0,1,0,89.24,89.25A89.35,89.35,0,0,0,99.17,9.92Z" transform="translate(0 0)"/><circle class="cls-1" cx="99.16" cy="99.16" r="84.31"/><path class="cls-2" d="M99.17,185A85.81,85.81,0,1,1,185,99.17,85.91,85.91,0,0,1,99.17,185Zm0-168.62A82.81,82.81,0,1,0,182,99.17,82.91,82.91,0,0,0,99.17,16.35Z" transform="translate(0 0)"/><circle class="cls-1" cx="99.16" cy="99.16" r="78.53"/><path class="cls-2" d="M99.17,179.2a80,80,0,1,1,80-80A80.13,80.13,0,0,1,99.17,179.2Zm0-157.07a77,77,0,1,0,77,77A77.13,77.13,0,0,0,99.17,22.13Z" transform="translate(0 0)"/><circle class="cls-1" cx="99.16" cy="99.16" r="72.08"/><path class="cls-2" d="M99.17,172.75a73.59,73.59,0,1,1,73.58-73.58A73.67,73.67,0,0,1,99.17,172.75Zm0-144.17a70.59,70.59,0,1,0,70.58,70.59A70.67,70.67,0,0,0,99.17,28.58Z" transform="translate(0 0)"/><circle class="cls-1" cx="99.16" cy="99.16" r="65.19"/><path class="cls-2" d="M99.17,165.86a66.69,66.69,0,1,1,66.69-66.69A66.76,66.76,0,0,1,99.17,165.86Zm0-130.38a63.69,63.69,0,1,0,63.69,63.69A63.76,63.76,0,0,0,99.17,35.48Z" transform="translate(0 0)"/><circle class="cls-1" cx="99.16" cy="99.16" r="58.07"/><path class="cls-2" d="M99.17,158.74a59.57,59.57,0,1,1,59.57-59.57A59.64,59.64,0,0,1,99.17,158.74Zm0-116.14a56.57,56.57,0,1,0,56.57,56.57A56.62,56.62,0,0,0,99.17,42.6Z" transform="translate(0 0)"/><circle class="cls-1" cx="99.16" cy="99.16" r="32.26"/><path class="cls-2" d="M99.17,133.92a34.76,34.76,0,1,1,34.75-34.76A34.8,34.8,0,0,1,99.17,133.92Zm0-64.52a29.76,29.76,0,1,0,29.75,29.76A29.8,29.8,0,0,0,99.17,69.4Z" transform="translate(0 0)"/><rect class="cls-2" x="90.43" y="60.38" width="5" height="77.57"/><rect class="cls-2" x="102.48" y="60.38" width="5" height="77.57"/></svg>