<svg id="Слой_1" data-name="Слой 1" xmlns="http://www.w3.org/2000/svg" xmlns:xlink="http://www.w3.org/1999/xlink" viewBox="0 0 197.47 197.47"><defs><style>.cls-1{fill:url(#Безымянный_градиент_7);}.cls-2{fill:#fff;}</style><linearGradient id="Безымянный_градиент_7" x1="98.73" x2="98.73" y2="197.47" gradientUnits="userSpaceOnUse"><stop offset="0" stop-color="#ec5a56"/><stop offset="0.55" stop-color="#a74197"/><stop offset="1" stop-color="#67a2cc"/></linearGradient></defs><title>pat</title><circle class="cls-1" cx="98.73" cy="98.73" r="98.73"/><path class="cls-2" d="M100,76.65S88,61,71.5,74.58s-19,15.29-19,15.29-8.67,5.78-12-2.89,8.27-10.33,8.27-10.33-2.07-4.54-11.16-.83-5.12,21.9-5.12,21.9S41.34,115.07,58.69,113a117.34,117.34,0,0,0,32.22-9.08s7.85-5,9.09-7a39.18,39.18,0,0,0,13.63,9.5c5.37,2.15,14.92,4.38,21,5.68a34.13,34.13,0,0,0,16.68-.44c4.25-1.22,11.47-5.47,13.59-9.37a20.66,20.66,0,0,0,1.65-16.93s-3.3-16.94-16.11-8.68c0,0,7-.83,9.09,7.85s-9.5,6.61-9.5,6.61-9.09-5.78-17.35-12.39a71.69,71.69,0,0,0-9.84-6.61,17.85,17.85,0,0,0-22.56,4.25Z" transform="translate(-1.27 -1.27)"/></svg>