<svg id="Слой_1" data-name="Слой 1" xmlns="http://www.w3.org/2000/svg" viewBox="0 0 195.89 191.92"><defs><style>.cls-1{fill:#a9bbd5;}.cls-2{fill:#5c043b;}.cls-3{fill:#12097c;}</style></defs><title>phi</title><path class="cls-1" d="M99.9,192.9l-3.08-2.18a296.21,296.21,0,0,1-49.4-46.56C15.1,106-1.39,65.78-.26,28l.09-3,2.61-1.54c.88-.52,21.93-12.77,55.93-19,31.3-5.72,79.93-7.1,133.89,18.75l3.32,1.59-.21,3.68c-.06,1.08-1.62,26.8-13.71,59.75-11.19,30.49-33.91,73-78.62,102.64ZM10.68,31.44c-.15,75,73.51,135.77,89.48,148.05,40-27.77,60.69-66.67,71.05-94.76a231.12,231.12,0,0,0,12.85-53.26C134.34,8.65,89.73,9.93,60.8,15.14,35.28,19.74,17.19,28.1,10.68,31.44Z" transform="translate(0.32 -0.98)"/><path class="cls-2" d="M97.53,115.24c-31.65,0-56.44-14.53-56.44-33.09S65.88,49.06,97.53,49.06,154,63.6,154,82.15,129.18,115.24,97.53,115.24Zm0-55.18c-21.49,0-45.44,9.08-45.44,22.09s24,22.09,45.44,22.09S143,95.17,143,82.15,119,60.06,97.53,60.06Z" transform="translate(0.32 -0.98)"/><path class="cls-3" d="M66.25,38.2s25.47-.53,26.53,46.16c0,0-2,35.62-24.41,42.45,0,0,27.73,8,60.49,0,0,0-23.87-5.48-24.94-42.53,0,0-1.06-44,24.94-46.08C128.86,38.2,103.92,28.65,66.25,38.2Z" transform="translate(0.32 -0.98)"/></svg>