<?xml version="1.0" encoding="utf-8"?>
<!-- Generator: Adobe Illustrator 23.0.2, SVG Export Plug-In . SVG Version: 6.00 Build 0)  -->
<svg version="1.1" id="Layer_1" xmlns="http://www.w3.org/2000/svg" xmlns:xlink="http://www.w3.org/1999/xlink" x="0px" y="0px"
	 viewBox="0 0 64 64" style="enable-background:new 0 0 64 64;" xml:space="preserve">
<style type="text/css">
	.st0{fill:#5B2FA4;}
	.st1{fill:#5D30A5;}
</style>
<g>
	<path class="st0" d="M0,23.8c0.4-0.4,1-0.3,1.5-0.3c3.4,0,6.8,0,10.2,0c4.6,0.1,8.2,3.5,8.1,7.9c-0.1,4.6-3.5,8-8.2,7.9
		c-1.7,0-2.3,0.6-2,2.1c0.2,1.2-0.3,1.6-1.5,1.6c-2.7-0.2-5.4,0.3-8.1-0.2C0,36.4,0,30.1,0,23.8z"/>
	<path class="st0" d="M42.3,33.2c0,5.8-4.7,10.4-10.5,10.3c-5.8,0-10.4-4.7-10.4-10.5c0-5.8,4.7-10.5,10.5-10.4
		C38.5,22.6,42.7,28.3,42.3,33.2z"/>
	<path class="st1" d="M52.4,42.9c-3.5,0-6.9,0-10.4,0c-1.6,0-1.8-0.2-1-1.6c3.5-5.8,7-11.6,10.5-17.4c0.6-1.1,1.1-1,1.6,0
		c3.5,5.9,7.1,11.8,10.6,17.6c0.6,1,0.3,1.3-0.8,1.3C59.4,42.9,55.9,42.9,52.4,42.9z"/>
</g>
</svg>
