<svg id="Слой_1" data-name="Слой 1" xmlns="http://www.w3.org/2000/svg" viewBox="0 0 149.64 149.64"><defs><style>.cls-1{fill:#1b1464;}.cls-2{fill:#fff;}</style></defs><title>profit</title><circle class="cls-1" cx="74.82" cy="74.82" r="74.81"/><path class="cls-2" d="M71.62,53.9s-16.36-8.64-15.38-9S71.6,34.79,71.6,34.79Z" transform="translate(-0.64 -0.18)"/><path class="cls-2" d="M71,75S54.6,66.36,55.59,66,71,55.88,71,55.88Z" transform="translate(-0.64 -0.18)"/><path class="cls-2" d="M71,96.09s-16.36-8.63-15.37-9S71,77,71,77Z" transform="translate(-0.64 -0.18)"/><path class="cls-2" d="M71,117.5s-16.36-8.63-15.37-9S71,98.39,71,98.39Z" transform="translate(-0.64 -0.18)"/><path class="cls-2" d="M88.66,64.47s-16.36-8.63-15.37-9S88.64,45.36,88.64,45.36Z" transform="translate(-0.64 -0.18)"/><path class="cls-2" d="M88.66,86.12s-16.36-8.63-15.37-9S88.64,67,88.64,67Z" transform="translate(-0.64 -0.18)"/><path class="cls-2" d="M106.37,75S90.2,66.6,91.18,66.2s15.18-9.85,15.18-9.85Z" transform="translate(-0.64 -0.18)"/><path class="cls-2" d="M54.56,64.47s16.36-8.63,15.38-9S54.58,45.36,54.58,45.36Z" transform="translate(-0.64 -0.18)"/><path class="cls-2" d="M72.89,53.9s16.36-8.64,15.37-9S72.91,34.79,72.91,34.79Z" transform="translate(-0.64 -0.18)"/><path class="cls-2" d="M90.22,64.47s16.36-8.63,15.37-9S90.24,45.36,90.24,45.36Z" transform="translate(-0.64 -0.18)"/><path class="cls-2" d="M90.22,86.12s16.36-8.63,15.37-9S90.24,67,90.24,67Z" transform="translate(-0.64 -0.18)"/><path class="cls-2" d="M54.56,85.55s16.36-8.63,15.38-9S54.58,66.44,54.58,66.44Z" transform="translate(-0.64 -0.18)"/><path class="cls-2" d="M72.89,97.07s16.36-8.63,15.37-9S72.91,78,72.91,78Z" transform="translate(-0.64 -0.18)"/><path class="cls-2" d="M54.19,106.63s16.36-8.64,15.38-9S54.21,87.52,54.21,87.52Z" transform="translate(-0.64 -0.18)"/></svg>