<svg id="Слой_1" data-name="Слой 1" xmlns="http://www.w3.org/2000/svg" viewBox="0 0 224.89 224.89"><defs><style>.cls-1{fill:#f8e1a0;}.cls-2{fill:#d4aa5e;}</style></defs><title>ptc</title><circle class="cls-1" cx="112.44" cy="112.44" r="112.44"/><path class="cls-2" d="M141.32,57.71S97.12,41.62,74,77.69a60.46,60.46,0,0,0-4,57.84c8.79,19.05,28.81,38.31,74.4,26.63,0,0-33,24.14-67.29,2.51A66.35,66.35,0,0,1,46,112c-.79-16.29,4.37-36.25,27.21-52.59C73.18,59.44,105.69,35.58,141.32,57.71Z"/><path class="cls-2" d="M84.7,82.08s12.12-10.24,17-9.7V85.31H97.36S92.78,88,93.18,88s6.07,3,6.07,3l.27,38.52H97.09l-3.91,3.23,4.45,2.43h21l5.93-3.24L117,129.76l-.27-44.45L113.52,85V69.41H123V84.77l-3.77.27v4.58l3.5,2.15v17.78l-3.77,2.4.27,4.61,5.39.27s14.82-1.08,15.09-14.55-8.89-15.09-8.89-15.09L131,71.84s24,6.73,26.4,33.94-17.24,38-17.24,38-17.52,13.47-40.95,3.5c0,0-10.24-4.85-14.55-11,0,0,3.15,15.5,29.09,22.36s46.61-14.28,46.61-14.28S179,130,172.93,97.82v-.06a38.16,38.16,0,0,0-8.3-17.87c-6.69-8-18.75-17.73-38.16-18.56C126.46,61.33,99,59.45,84.7,82.08Z"/></svg>