<svg id="Слой_1" data-name="Слой 1" xmlns="http://www.w3.org/2000/svg" viewBox="0 0 194.1 194.1"><defs><style>.cls-1{fill:#dfbc5e;}.cls-2{fill:#414141;}.cls-3{fill:#c63058;}.cls-4{fill:#283ac4;}.cls-5{fill:#6b5d7c;}.cls-6{fill:#e8eaea;}</style></defs><title>qrk</title><path class="cls-1" d="M70.88,52.39s13.45,16.32,26.18,17.5,25.43-16,25.43-16L144,86.08s5.91,10.54,5,11-20.74,6.62-24.91,13.33-5.51,16-1.83,29.85H71.62s6.69-15.73,1.6-26.38S55.4,101.39,55.4,101.39l-11.67-6Z"/><path class="cls-2" d="M97.05,194.1a97.05,97.05,0,1,1,97.05-97A97.16,97.16,0,0,1,97.05,194.1Zm0-182.1A85.05,85.05,0,1,0,182.1,97.05,85.14,85.14,0,0,0,97.05,12Z"/><circle class="cls-3" cx="57.98" cy="74.3" r="25.43"/><circle class="cls-4" cx="136.66" cy="75.3" r="25.43"/><circle class="cls-5" cx="97.05" cy="142.35" r="25.43"/><circle class="cls-6" cx="97.05" cy="97.05" r="18.65"/></svg>