<svg id="Слой_1" data-name="Слой 1" xmlns="http://www.w3.org/2000/svg" viewBox="0 0 199.38 176.73"><defs><style>.cls-1{fill:#3fa8da;}.cls-2{fill:none;stroke:#3fa8da;stroke-miterlimit:10;stroke-width:4px;}</style></defs><title>qtum</title><path class="cls-1" d="M122.35,90.37H64.25L93.77,38.16Zm-51.25-4h44.5l-21.89-40Z" transform="translate(0.18)"/><path class="cls-1" d="M93.77,138.58,64.25,86.37h58.1ZM71.1,90.37l22.61,40,21.89-40Z" transform="translate(0.18)"/><path class="cls-1" d="M119.62,171.7H67L22.55,139.51,4.75,88.41,20.89,35.3l5.27,6.15,3.56,38.06c6.46-12.64,14.09-27.65,14.56-28.83L48.06,52c-.42,1.25-12.67,25.21-17.91,35.45L27,93.57,22.4,44.12,9,88.33l17,48.68L68.32,167.7h50L161.15,137l16.54-48.65L161.14,38.54,118.33,7.45H70.16v-4h49.47l44.9,32.61,17.38,52.32-17.39,51.13Z" transform="translate(0.18)"/><rect class="cls-1" x="89.02" y="22.27" width="37.16" height="4" transform="matrix(0.61, -0.79, 0.79, 0.61, 22.7, 94.48)"/><rect class="cls-1" x="115.32" y="24.6" width="4" height="39.07" transform="translate(62.39 156.71) rotate(-84.53)"/><path class="cls-1" d="M139.23,133.3,119.46,92.38V84.06l.16-.38C124,73.43,134.27,49.45,135.1,48.19l3.33,2.22-1.66-1.11,1.7,1.05c-.8,1.4-9.35,21.27-15,34.53v6.58l15.81,32.72L156.9,88.32,138.49,46.88,119.7,12.19l3.52-1.91,18.89,34.9,19.21,43.23Z" transform="translate(0.18)"/><rect class="cls-1" x="143.03" y="40.48" width="16.85" height="4" transform="translate(-3.72 67.11) rotate(-24.68)"/><polygon class="cls-1" points="179.98 90.37 161.1 90.37 158.95 42.36 162.94 42.18 164.93 86.37 179.98 86.37 179.98 90.37"/><rect class="cls-1" x="158.95" y="90.68" width="4" height="47.17"/><path class="cls-1" d="M122.75,167.56H116.3l-22-30.6-.07-.49c-.33-2.3.55-5,3.24-5.55,2.11-.42,35.31-3.79,39.09-4.17l.32,3.22,7-1.66,17.88,6.52L189,159.11l-2.66,3-26.61-23.76-16-5.85-5.5,1.29Zm-4.4-4h1.82l14.92-32.64c-14.7,1.49-35.4,3.64-36.82,3.92a2.35,2.35,0,0,0-.08.66Z" transform="translate(0.18)"/><path class="cls-1" d="M68.16,169.8l-5-2.84L47.64,129.47,26.71,140.54l-4.51-8.46,2.63-43.4h5.6l16.42,32.83,1.76-.35L65.4,92.26,63,87.43c-14.6-33.1-16.1-38.54-16-40l-2.67.71L20.2,38.23,60.68,8,62.12,9.9l3.34-8.49,27.8,36.46V44l-1.76.21c-13.8,1.68-33.85,4.16-40.08,5,1.78,5.33,8.72,21.77,15.19,36.44L70,92.4,51.16,124.73l-1.07.22,16.27,39.22.82.47,22.52-28,3.12,2.5Zm-41.9-38.61,2.11,3.95,17.76-9.4-1.49.3L28.53,93.81ZM66.58,9.48l-14,35.62c7.78-1.07,24.78-3.16,36.7-4.6V39.22ZM28.26,37.2l16.38,6.69,4.58-1.23L61,12.74Z" transform="translate(0.18)"/><path class="cls-2" d="M31.26,88.37" transform="translate(0.18)"/><rect class="cls-1" x="69.19" y="112.97" width="4" height="37.27" transform="translate(-69.61 181.73) rotate(-81.16)"/><rect class="cls-1" x="31.44" y="86.37" width="31.44" height="4"/><rect class="cls-1" x="125.18" y="85.97" width="30.21" height="4" transform="translate(-2.09 3.73) rotate(-1.51)"/><circle class="cls-1" cx="27.72" cy="87.97" r="7.03"/><circle class="cls-1" cx="24.41" cy="37.1" r="7.03"/><circle class="cls-1" cx="48.17" cy="47.99" r="7.03"/><circle class="cls-1" cx="93.51" cy="42.48" r="7.03"/><circle class="cls-1" cx="138.05" cy="47.99" r="7.03"/><circle class="cls-1" cx="162.6" cy="38.96" r="7.03"/><circle class="cls-1" cx="121.64" cy="7.24" r="7.03"/><circle class="cls-1" cx="67.85" cy="7.03" r="7.03"/><circle class="cls-1" cx="67.85" cy="88.37" r="7.03"/><circle class="cls-1" cx="119.16" cy="87.97" r="7.03"/><circle class="cls-1" cx="160.95" cy="88.37" r="7.03"/><circle class="cls-1" cx="179.98" cy="88.27" r="7.03"/><circle class="cls-1" cx="138.05" cy="128.74" r="7.03"/><circle class="cls-1" cx="93.51" cy="133.6" r="7.03"/><circle class="cls-1" cx="49.17" cy="127.57" r="7.03"/><circle class="cls-1" cx="24.41" cy="137.84" r="7.03"/><circle class="cls-1" cx="66.3" cy="169.7" r="7.03"/><circle class="cls-1" cx="119.16" cy="169.7" r="7.03"/><circle class="cls-1" cx="189.7" cy="162.67" r="9.68"/><circle class="cls-1" cx="7.03" cy="87.57" r="7.03"/><rect class="cls-1" x="14.79" y="80.33" width="4" height="14.89" transform="translate(-71.22 102.21) rotate(-88.47)"/></svg>