<svg version="1.0" xmlns="http://www.w3.org/2000/svg"
 width="144.000000pt" height="144.000000pt" viewBox="0 0 144.000000 144.000000"
 preserveAspectRatio="xMidYMid meet">

<g transform="translate(0.000000,144.000000) scale(0.100000,-0.100000)"
fill="#1484cc" stroke="none">
<path d="M0 720 l0 -720 720 0 720 0 0 720 0 720 -720 0 -720 0 0 -720z m1136
457 c2 -7 -4 -49 -14 -92 l-18 -80 -216 -3 -216 -2 -16 -71 c-9 -39 -16 -82
-16 -95 l0 -24 178 -2 177 -3 -2 -45 c-2 -68 -13 -114 -31 -127 -11 -9 -67
-13 -194 -13 -98 0 -178 -2 -178 -5 0 -3 -12 -63 -26 -133 -15 -70 -29 -145
-33 -167 -4 -23 -11 -46 -15 -53 -9 -15 -202 -17 -211 -2 -6 10 20 152 66 360
5 25 14 65 18 90 5 25 17 83 26 130 16 81 24 119 44 213 5 23 13 60 17 82 4
22 12 43 18 47 6 4 152 8 324 8 246 0 314 -3 318 -13z"/>
</g>
</svg>
