<svg id="Слой_1" data-name="Слой 1" xmlns="http://www.w3.org/2000/svg" viewBox="0 0 148.67 148.17"><defs><style>.cls-1{fill:#183f27;}.cls-2{fill:#b79a42;}</style></defs><title>quint</title><path class="cls-1" d="M125.09,128.72c14.83-15.56,18-26,18-26,13.62-32.58-1.94-62-1.94-62S126.55,9.84,93.73,2.3,39.28,8.14,39.28,8.14C23.23,14.94,7.19,39.5,7.19,39.5s-9.14,17-6.81,45,23.1,44.25,23.1,44.25l22.36-17.5c6.08-2.19,12.4,3.4,12.4,3.4l41.57,33.55h48.86ZM99.47,107,81.24,93.41S74.92,86.85,65,95.12,49.88,107,49.88,107,29.46,95.84,32.13,67.4,62,32.15,62,32.15,95.83,21,111.87,53.54,99.47,107,99.47,107Z"/><path class="cls-2" d="M0,147.53,23.48,128.7s24.22,20.2,46.64,19.45Z"/></svg>