<svg id="Слой_1" data-name="Слой 1" xmlns="http://www.w3.org/2000/svg" viewBox="0 0 253.81 253.81"><defs><style>.cls-1{fill:#ffe153;}.cls-2{fill:#ffcd10;}.cls-3{fill:#fcfcfa;}.cls-4{fill:#fff;}</style></defs><title>rac</title><circle class="cls-1" cx="126.91" cy="126.91" r="126.91"/><circle class="cls-2" cx="126.91" cy="126.91" r="94.05"/><path class="cls-3" d="M127.41,226.61a99.05,99.05,0,1,1,99-99.05A99.16,99.16,0,0,1,127.41,226.61Zm0-188.1a89.05,89.05,0,1,0,89,89.05A89.15,89.15,0,0,0,127.41,38.51Z" transform="translate(-0.5 -0.65)"/><path class="cls-4" d="M161.18,113.47c-.31-20.94-19.67-29.19-19.67-29.19L125,82.7l-.31-10.79H111.05V83.33H85.35v99H98.2l1.43-39.66,11.42-.32-1,40h15.23V144.57l20.31,37.76h15.54l-20.3-41.88S161.5,134.42,161.18,113.47ZM100,127.12V98.56h34.26s12.38,1,12.06,14.28-13.64,14.28-13.64,14.28Z" transform="translate(-0.5 -0.65)"/></svg>