<?xml version="1.0" encoding="utf-8"?>
<!-- Generator: Adobe Illustrator 23.0.2, SVG Export Plug-In . SVG Version: 6.00 Build 0)  -->
<svg version="1.1" id="Layer_1" xmlns="http://www.w3.org/2000/svg" xmlns:xlink="http://www.w3.org/1999/xlink" x="0px" y="0px"
	 viewBox="0 0 64 64" style="enable-background:new 0 0 64 64;" xml:space="preserve">
<style type="text/css">
	.st0{fill:#D34A4A;}
	.st1{fill:#FFADAD;}
	.st2{fill:#FDFDFD;}
</style>
<g>
	<path class="st0" d="M22.6,26.6c-5.6-1.1-11.3-0.2-17-0.5c-0.9,0-1.9,0.1-2.8-0.1c-1.2-0.2-2-1.1-2.8-2.6c5,0,9.8-0.2,14.6,0.1
		c2.5,0.1,3.7-0.7,4.9-2.8c5-8.9,15-13.7,24.6-11.9c10.1,1.8,18,9.7,19.6,19.6c1.6,10.2-3.1,19.9-12.1,24.8c-4.3,2.3-4.6,2.3-8.3-1
		c-0.7-0.6-1.4-1.3-2.3-1.5c-0.1-1-0.7-1.7-1.4-2.4c-2.6-2.5-5.1-5-7.7-7.6c-0.5-0.5-1.5-0.8-1.2-1.7c0.3-1.1,1.4-0.7,2.2-0.7
		c2.5,0,5.1,0.1,7.6,0c2.9-0.1,5.5-2.5,5.8-5.3c0.3-2.5-1.9-6.2-4.5-6.5C35.4,25.9,29,25.6,22.6,26.6z M45.3,49.9
		c0.7,2.3,2,2.4,4.1,1.4C58,46.9,62.7,37.9,61,28.4c-1.6-9.1-9.2-16.1-18.7-17.2c-8.8-1-18.6,4.6-20.8,12c1,0.5,1.8,0.1,2.7-0.2
		c5.3,0.6,10.6-0.2,16,0.4c5.2,0.6,8.8,4,8.7,9.2c0,4.3-4.4,8.9-8.9,8.2c-1.1-0.2-2.4-0.5-3.7,0.6C39.7,44,41.8,47.8,45.3,49.9z"/>
	<path class="st1" d="M22.6,26.6c6.4-1.1,12.8-0.7,19.1-0.1c2.6,0.2,4.8,4,4.5,6.5c-0.3,2.7-2.9,5.2-5.8,5.3c-2.5,0.1-5.1,0-7.6,0
		c-0.8,0-1.9-0.4-2.2,0.7c-0.3,0.9,0.7,1.2,1.2,1.7c2.6,2.5,5.1,5.1,7.7,7.6c0.7,0.7,1.3,1.4,1.4,2.4c-9.2,1.3-18.2-6.5-19.3-16.8
		c1.5-0.5,2.9-0.5,4.4-0.2c0.6,0.2,1.4,0,1.5-0.7c0.1-0.3-0.5-0.8-0.8-1.2c-1.4-1.5-3.3-0.9-5-1.1C21.7,29.2,21.7,27.8,22.6,26.6z"
		/>
	<path class="st0" d="M21.7,30.6c1.7,0.2,3.6-0.3,5,1.1c0.3,0.3,0.9,0.8,0.8,1.2c-0.1,0.7-0.8,0.9-1.5,0.7c-1.5-0.4-3-0.3-4.4,0.2
		c-2-0.6-2.7,0-2.3,2.2c2,8.9,7.4,14.5,16.1,16.8c1.8,0.5,3.3,1.1,4.3,3.1C34.2,56,29.4,54,25.3,51c-4.9-3.6-7.6-8.8-8.5-14.8
		c-0.4-2.2-1.2-2.8-3.2-2.6c-2.2,0.2-4.7,0.5-6.1-3C12.4,30.6,17.1,30.6,21.7,30.6z"/>
	<path class="st1" d="M45.3,49.9c-3.6-2.1-5.6-5.9-9-8.4c1.2-1,2.6-0.7,3.7-0.6c4.5,0.7,8.9-4,8.9-8.2c0.1-5.2-3.5-8.7-8.7-9.2
		c-5.3-0.6-10.7,0.2-16-0.4c3.7-7,11.1-10.5,19.5-9.1c7.2,1.2,13.7,7.6,14.8,14.7C60.1,38.7,54.1,48.3,45.3,49.9z"/>
	<path class="st2" d="M45.3,49.9c8.7-1.6,14.8-11.2,13.2-21.2C57.5,21.6,51,15.2,43.7,14c-8.4-1.4-15.8,2.1-19.5,9.1
		c-0.9,0.3-1.8,0.7-2.7,0.2c2.2-7.4,12-13,20.8-12c9.4,1,17.1,8,18.7,17.2c1.7,9.5-3,18.5-11.6,22.9C47.3,52.3,46.1,52.2,45.3,49.9z
		"/>
</g>
</svg>
