<svg id="Слой_1" data-name="Слой 1" xmlns="http://www.w3.org/2000/svg" viewBox="0 0 163.67 195.32"><defs><style>.cls-1{fill:#561a47;}</style></defs><title>rep</title><path class="cls-1" d="M103.55,187.79v-26.4c0-4.86,4.52-7.81,10.94-11.44,1.14-.65,2.23-1.26,3.25-1.89,5-3.08,12.75-9.5,16.07-15.92a35.69,35.69,0,0,1-4.91-6.09,3.71,3.71,0,0,0-.79,1.35c-1.22,4-7.53,10.57-14.1,14.61-.92.57-1.94,1.15-3,1.76-6.14,3.48-14.52,8.25-14.52,17.62v26.4L27.24,145.6c10.26-5,20.45-9.43,24.82-11.24,4.67-2,8.95-2.3,14.67,2.36.85.7,1.74,1.46,2.68,2.25,5.81,4.92,13.65,11.54,23,12.59a23.46,23.46,0,0,1,4.47-6,3.55,3.55,0,0,0-2.27-.91c-7.7-.18-14.82-6.21-20.56-11.06-1-.82-1.9-1.61-2.8-2.34-9.12-7.43-16.85-5.51-21.89-3.41-4,1.69-12,5.13-20.59,9.22,11.42-19.9,51.72-90.09,67.74-118V63c0,8.85-2.16,11-5,12.95A32.35,32.35,0,0,1,88,77.87c-4.57,2.27-11.44,5.7-17.42,13.23C63,100.59,63,112.64,63,120.61v.1a16,16,0,0,1,6.83,2.3,3.24,3.24,0,0,0,.26-1.32V120.6c0-7.4,0-17.54,6-25.09,5-6.29,10.81-9.18,15-11.29a37.81,37.81,0,0,0,4.41-2.43c4.83-3.31,8-7.78,8-18.8V19L122.18,51.5,171.29,137c-8.62-4.08-16.54-7.53-20.61-9.22-5.69-2.38-9.69-7.73-11.89-15.92C133.48,92,123.22,80.7,107.44,77.54a23.64,23.64,0,0,1-4.3,5.87,3.6,3.6,0,0,0,1.81.89c13.67,2.31,22.25,11.65,27,29.41,3.47,13,10.63,18.4,16,20.65,4.36,1.81,14.56,6.26,24.79,11.24l-69.2,42.19Zm76.93-49c-.76-1.34-76.4-133.08-76.4-133.08-1.49-2.44-2-3.38-4.08-3.38s-2.6.94-4.09,3.38C78.52,34.33,20.56,137,19.51,138.8a10.19,10.19,0,0,0-1.33,5.56,4,4,0,0,0,.09.76v0l0,.14A7.7,7.7,0,0,0,22,150.73l76.14,46.41a3.52,3.52,0,0,0,3.58.06l.11-.07L178,150.73c4.5-2.75,4.65-8.2,2.49-11.93Z" transform="translate(-18.16 -2.34)"/></svg>