<svg id="Слой_1" data-name="Слой 1" xmlns="http://www.w3.org/2000/svg" viewBox="0 0 170.23 197.42"><title>ret</title><path d="M99.3,113.51,50.23,84.77l0-56.28L99.29,1l49.08,28.73,0,56.28Zm-45.08-31L99.35,108.9,144.4,83.65l0-51.64L99.25,5.59l-45,25.25Z" transform="translate(-14.8 -0.98)"/><path d="M99.3,198.39,50.23,169.66l0-56.28L99.29,85.86l49.08,28.74,0,56.28Zm-45.08-31,45.13,26.43,45.05-25.26,0-51.64L99.25,90.47l-45,25.25Z" transform="translate(-14.8 -0.98)"/><path d="M148.94,141.81l-36.06-21.12,0-41.37,36.09-20.23L185,80.21l0,41.37ZM116.88,118.4,149,137.2l32.05-18,0-36.74L148.9,63.7l-32,18Z" transform="translate(-14.8 -0.98)"/><path d="M50.89,141.36,14.82,120.24l0-41.37L50.89,58.64,87,79.76l0,41.37ZM18.82,118l32.11,18.8,32.05-18,0-36.74L50.85,63.25l-32,18Z" transform="translate(-14.8 -0.98)"/></svg>