<svg id="Слой_1" data-name="Слой 1" xmlns="http://www.w3.org/2000/svg" viewBox="0 0 200 200"><defs><style>.cls-1{fill:#0b2e41;}.cls-2{fill:none;stroke:#f1e38c;stroke-miterlimit:10;stroke-width:9px;}.cls-3{fill:#f1e38c;}</style></defs><title>rntb</title><rect class="cls-1" width="200" height="200"/><path class="cls-2" d="M96,178.54l-57.84-32.8A12.39,12.39,0,0,1,31.88,135l-.24-66.49A12.39,12.39,0,0,1,37.76,57.8L95.44,24.07A12.4,12.4,0,0,1,107.8,24l57.83,32.81A12.38,12.38,0,0,1,171.9,67.5l.24,66.5A12.34,12.34,0,0,1,166,144.72l-57.68,33.74A12.36,12.36,0,0,1,96,178.54Z"/><path class="cls-3" d="M45.92,112.29h-3V89.44H62.17l.41.35a9.4,9.4,0,0,1,3.19,6.27,8.75,8.75,0,0,1-3.11,6.64l-.45.43-16.29-.36Zm0-12.52L61,100.1a5.53,5.53,0,0,0,1.76-3.91A6.08,6.08,0,0,0,61,92.44H45.92Z"/><rect class="cls-3" x="57.81" y="99.52" width="3" height="14.69" transform="translate(-56.62 68.16) rotate(-42.51)"/><path class="cls-3" d="M97.12,113a2.08,2.08,0,0,1-1.42-.57l-19-18v17.86h-3v-21a1.66,1.66,0,0,1,2.81-1.2L96.19,108.8V89.62h3V111a2.07,2.07,0,0,1-1.25,1.9A2.11,2.11,0,0,1,97.12,113ZM74.43,92.29h0Z"/><rect class="cls-3" x="104.14" y="89.44" width="25.31" height="3"/><rect class="cls-3" x="115.3" y="90.94" width="3" height="21.34"/><path class="cls-3" d="M155.34,112.67h-.42c-.15,0-14.94-.22-18.33-.18l0-.46V89.44h19.53l.39.29a7.75,7.75,0,0,1,3,5.2,7.65,7.65,0,0,1-2.57,5.92c1.23,1.29,2.94,3.57,2.76,6.21-.14,2.13-1.46,4-3.91,5.4Zm-15.78-3.19c4.86,0,13,.15,15,.18a3.9,3.9,0,0,0,2.1-2.81c.13-1.94-2-4.11-2.79-4.72l-1.23-1,1.94-2.22c1.33-1.31,2-2.58,1.89-3.77a4.42,4.42,0,0,0-1.4-2.72H139.56Z"/><path class="cls-3" d="M154.73,102.45c-6.82-.18-14.44-.26-15.41-.07a1.65,1.65,0,0,0,.53-.27l-1.92-2.31c.52-.43.93-.77,16.88-.35Z"/></svg>