<svg width="9" height="9" viewBox="0 0 9 9" fill="none" xmlns="http://www.w3.org/2000/svg">
<path d="M5.10938 7.86328H3.24609V9H1.48828V7.86328H0.298828V6.43945H1.48828V5.99414H0.298828V4.57031H1.48828V0.46875H4.80469C5.44531 0.46875 6.00781 0.583984 6.49219 0.814453C6.97656 1.04492 7.35156 1.375 7.61719 1.80469C7.88672 2.23047 8.02148 2.7168 8.02148 3.26367C8.02148 4.10742 7.73438 4.77344 7.16016 5.26172C6.58984 5.75 5.79492 5.99414 4.77539 5.99414H3.24609V6.43945H5.10938V7.86328ZM3.24609 4.57031H4.76367C5.74805 4.57031 6.24023 4.13867 6.24023 3.27539C6.24023 2.86523 6.11523 2.53516 5.86523 2.28516C5.61523 2.03125 5.26953 1.90234 4.82812 1.89844H3.24609V4.57031Z" fill="#fff"/>
</svg>
