<svg width="10" height="12" xmlns="http://www.w3.org/2000/svg">
 <g>
  <path stroke="null" d="m6.206325,10.448464l-2.386234,0l0,1.607298l-2.25115,0l0,-1.607298l-1.523276,0l0,-2.013265l1.523276,0l0,-0.629659l-1.523276,0l0,-2.013265l1.523276,0l0,-5.799519l4.247181,0c0.820414,0 1.540782,0.162933 2.161107,0.488812c0.620312,0.325879 1.100558,0.792606 1.440738,1.400178c0.345175,0.602044 0.517756,1.289704 0.517756,2.062966c0,1.193044 -0.367676,2.134783 -1.103055,2.8252c-0.730384,0.690417 -1.748403,1.035626 -3.05407,1.035626l-1.958507,0l0,0.629659l2.386234,0l0,2.013265l0,0.000001zm-2.386234,-4.656189l1.943498,0c1.260652,0 1.890965,-0.61033 1.890965,-1.830989c0,-0.579957 -0.160082,-1.04667 -0.480246,-1.400165c-0.320164,-0.359023 -0.762887,-0.541299 -1.328181,-0.546814l-2.026037,0l0,3.777968z" fill="#000" id="svg_1"/>
 </g>
</svg>