<svg width="19" height="12" xmlns="http://www.w3.org/2000/svg">

 <g>
  <title>background</title>
  <rect fill="none" id="canvas_background" height="14" width="21" y="-1" x="-1"/>
 </g>
 <g>
  <title>Layer 1</title>
  <path stroke="null" id="svg_1" fill="#000" d="m5.960114,10.336155l-2.290868,0l0,1.575238l-2.161183,0l0,-1.575238l-1.462398,0l0,-1.973107l1.462398,0l0,-0.617099l-1.462398,0l0,-1.973107l1.462398,0l0,-5.683838l4.077442,0c0.787626,0 1.479205,0.159683 2.074738,0.479062c0.595521,0.319379 1.056574,0.776796 1.383159,1.372249c0.33138,0.590035 0.497064,1.263979 0.497064,2.021817c0,1.169247 -0.352982,2.092201 -1.058971,2.768847c-0.701194,0.676646 -1.678528,1.014969 -2.932014,1.014969l-1.880235,0l0,0.617099l2.290868,0l0,1.973107zm-2.290868,-4.563314l1.865826,0c1.21027,0 1.815393,-0.598156 1.815393,-1.794467c0,-0.568389 -0.153684,-1.025792 -0.461053,-1.372236c-0.307369,-0.351862 -0.732398,-0.530502 -1.2751,-0.535907l-1.945066,0l0,3.70261z"/>
 </g>
</svg>