<?xml version="1.0" encoding="utf-8"?>
<!-- Generator: Adobe Illustrator 16.0.0, SVG Export Plug-In . SVG Version: 6.00 Build 0)  -->
<!DOCTYPE svg PUBLIC "-//W3C//DTD SVG 1.1//EN" "http://www.w3.org/Graphics/SVG/1.1/DTD/svg11.dtd">
<svg version="1.1" id="Capa_1" xmlns="http://www.w3.org/2000/svg" xmlns:xlink="http://www.w3.org/1999/xlink" x="0px" y="0px"
	 width="841.89px" height="595.28px" viewBox="0 0 841.89 595.28" enable-background="new 0 0 841.89 595.28" xml:space="preserve">
<text transform="matrix(1 0 0 1 162.5518 345.0547)"><tspan x="0" y="0" font-family="'Lato-Light'" font-size="134.924" letter-spacing="-5">Rewards</tspan><tspan x="466.628" y="0" fill="#ED6A1C" font-family="'Lato-Bold'" font-size="134.924" letter-spacing="-5">4U</tspan></text>
<path fill="#ED6A1C" d="M170.142,297.639c0,39.171-31.751,70.921-70.924,70.921c-39.168,0-70.92-31.75-70.92-70.921
	c0-39.17,31.752-70.92,70.92-70.92C138.391,226.719,170.142,258.469,170.142,297.639z"/>
<path fill="#FFFFFF" d="M139.112,262.83c0,4.829-3.915,8.741-8.738,8.741c-4.829,0-8.743-3.913-8.743-8.741
	c0-4.828,3.915-8.738,8.743-8.738C135.198,254.092,139.112,258.002,139.112,262.83z"/>
<text transform="matrix(1 0 0 1 793.4893 263.7969)" font-family="'Lato-Regular'" font-size="22.6819">TM</text>
</svg>
