<svg id="Слой_1" data-name="Слой 1" xmlns="http://www.w3.org/2000/svg" viewBox="0 0 190.05 190.05"><defs><style>.cls-1{fill:#333;}.cls-2{fill:#3d3d3d;}</style></defs><title>sabr [Восстановлен]</title><path d="M96.29,188.55a95,95,0,1,1,95-95A95.13,95.13,0,0,1,96.29,188.55Zm0-187a92,92,0,1,0,92,92A92.13,92.13,0,0,0,96.29,1.5Z" transform="translate(-1.27 1.5)"/><path class="cls-1" d="M60.35,84.81l9.52-6.92s-5.19-.65-9.52-11l-13.2,9S36.33,83.77,42.61,94s16.88,0,16.88,0l6.27,6.36.43,9.73H59.05L34.17,96.49s-9.74-3.68-16.88,2.38a43.21,43.21,0,0,0-10.6,14.07l5.41-2.6s-2.16-6.92,6.28-7.57S50,116.18,50,116.18h10.6s12.11-8.22,12.11-8.87,6.71-6.49,0-15.79c0,0-2.59-5.41-6.27-5.41L60.57,90s-4.33,3-8,.43-1.73-13.19-1.73-13.19l1.52-1.73Z" transform="translate(-1.27 1.5)"/><path class="cls-2" d="M105.46,99.31V82.43L95.19,70.75,80.47,83.29a7.16,7.16,0,0,0-1.73,4V100s1.57,10.82,8.36,10.17l3.33,0a24.93,24.93,0,0,0,5.86-5s0,5.9,6,5,10.38-6.3,10.38-6.3C112.28,103.2,107.07,103.2,105.46,99.31Zm-9.17,3.24c-.46-.22-9.11-.25-9.11-9,0-.93-.65-13.91,1.73-15.21L96.29,85Z" transform="translate(-1.27 1.5)"/><path class="cls-2" d="M133.26,19.47c.74-.27-9.3,6.7-9.3,16.87V139.77s.87,21.63,13.2,16.44l-10.6,8.22S114,164,115.09,143.66L115,39.59S115.09,26.17,133.26,19.47Z" transform="translate(-1.27 1.5)"/><path class="cls-2" d="M126.09,111.64s3.71-.87,3.28-13-1.62-16.23-1.62-16.23S127.21,79,124,80.05l7.79-8.44s5.19-1.3,5.41,5.19,0,22.51,0,22.51Z" transform="translate(-1.27 1.5)"/><path class="cls-2" d="M140.62,76.37s3.25-4.76,3.25,2.81v25.75s.86,5.84,3.46,6.71,3.89-3.9,3.89-3.9l9.09-6.92s-8.22,5.19-7.57-4.11.65-18.39.65-18.39L158.8,82s.86,2.59,4.76-.44,9.95-10,9.95-10-3,4.87-8.66,0-6.92-3.14-6.92-3.14L154,73.56l-.87-5.49-2.6-2.73Z" transform="translate(-1.27 1.5)"/><circle class="cls-2" cx="107.82" cy="71.98" r="3.63"/><circle class="cls-2" cx="139.35" cy="145.38" r="3.63"/></svg>