<svg id="Слой_1" data-name="Слой 1" xmlns="http://www.w3.org/2000/svg" viewBox="0 0 31.29 31.44"><defs><style>.cls-1{fill:#626363;}.cls-2{fill:#989898;}.cls-3{fill:#1785b6;}.cls-4{fill:#4c6971;}</style></defs><title>sat</title><path class="cls-1" d="M6.83,20.18s5.27-4.28,8.84-5.37a5,5,0,0,0,3-2.41,4.36,4.36,0,0,0-.26-4.55C15.9,3.74,4.73,12.12,4.73,12.12S.85,14.68,1.16,19.25,5.51,22.2,5.51,22.2Z" transform="translate(-0.77 -0.38)"/><path class="cls-2" d="M1.16,19.25c0-.31,7,3.74,16.91-.62S30.25,7.85,30.25,7.85,32.5,9.08,32,13.44a9.76,9.76,0,0,1-3.27,6.15,31.62,31.62,0,0,1-7.66,5.14,32.71,32.71,0,0,1-14.69,2.2C4.74,26.63.93,24.52,1.16,19.25Z" transform="translate(-0.77 -0.38)"/><path class="cls-3" d="M5,4.59s-.93,4,5.43,1.17a24.64,24.64,0,0,0,6.22-3.69A6.45,6.45,0,0,1,21.91.46c2.11.35,3.72,1.6.43,5.45-.48.56-3.49,4.73-12.72,6.83S.78,10.18.78,10.18A8,8,0,0,1,5,4.59Z" transform="translate(-0.77 -0.38)"/><path class="cls-4" d="M10.15,30l2.94-.11a24.09,24.09,0,0,0,15.67-6.63l1.87-1.79s-1.42,6.66-7.57,8.8C19.16,31.58,14,33.13,10.15,30Z" transform="translate(-0.77 -0.38)"/></svg>