<svg id="Слой_1" data-name="Слой 1" xmlns="http://www.w3.org/2000/svg" viewBox="0 0 198.5 198.5"><defs><style>.cls-1{fill:#4e4294;}.cls-2{fill:#f08520;}.cls-3{fill:#fff;}</style></defs><title>sbtc</title><path class="cls-1" d="M187,53.47H112.3V40.85h66.57A99.26,99.26,0,0,0,11.55,146.38H80.4V161.1H20.94A99.26,99.26,0,0,0,187,53.47Z" transform="translate(-0.41 -1.41)"/><circle class="cls-2" cx="99.66" cy="100.66" r="55.91" transform="translate(-20.87 24.18) rotate(-13.28)"/><path class="cls-3" d="M99.65,164.06a63.41,63.41,0,1,1,63.41-63.4A63.47,63.47,0,0,1,99.65,164.06Zm0-111.81a48.41,48.41,0,1,0,48.41,48.41A48.45,48.45,0,0,0,99.65,52.25Z" transform="translate(-0.41 -1.41)"/><path class="cls-3" d="M78.35,121.84V80h22.52a43,43,0,0,1,7.77.63,19.13,19.13,0,0,1,5.74,2,9.31,9.31,0,0,1,3.54,3.28,8.74,8.74,0,0,1,1.2,4.64,8.45,8.45,0,0,1-2.3,6c-1.54,1.63-3.89,2.73-7,3.31q5.94.59,9,3.2A8.52,8.52,0,0,1,122,109.9a9.68,9.68,0,0,1-1.5,5.45,11.55,11.55,0,0,1-4.11,3.71,20.25,20.25,0,0,1-6,2.11,38.3,38.3,0,0,1-7.34.67Zm10.31-25h11.83c2.92,0,5-.43,6.35-1.29a4.28,4.28,0,0,0,2-3.86,4.21,4.21,0,0,0-2.12-4,13.15,13.15,0,0,0-6.28-1.19H88.66Zm0,18.51h13.45a23.41,23.41,0,0,0,3.77-.28,9.31,9.31,0,0,0,3-1,5.23,5.23,0,0,0,2-1.89,5.63,5.63,0,0,0,.73-3,4.85,4.85,0,0,0-.77-2.79,5.51,5.51,0,0,0-2.11-1.81,10.79,10.79,0,0,0-3.15-1,23.72,23.72,0,0,0-3.89-.3H88.66Z" transform="translate(-0.41 -1.41)"/></svg>