<svg id="Слой_1" data-name="Слой 1" xmlns="http://www.w3.org/2000/svg" viewBox="0 0 193.33 193.45"><defs><style>.cls-1{fill:#f1c64c;}</style></defs><title>sim</title><circle class="cls-1" cx="52.11" cy="21.31" r="8.53"/><circle class="cls-1" cx="19.83" cy="52.66" r="8.53"/><circle class="cls-1" cx="8.53" cy="96.98" r="8.53"/><circle class="cls-1" cx="19.83" cy="141.29" r="8.53"/><circle class="cls-1" cx="52.11" cy="174.05" r="8.53"/><circle class="cls-1" cx="96.23" cy="184.92" r="8.53"/><circle class="cls-1" cx="140.67" cy="174.05" r="8.53"/><circle class="cls-1" cx="172.65" cy="141.29" r="8.53"/><circle class="cls-1" cx="184.8" cy="96.98" r="8.53"/><circle class="cls-1" cx="172.65" cy="52.66" r="8.53"/><circle class="cls-1" cx="140.67" cy="21.31" r="8.53"/><circle class="cls-1" cx="96.23" cy="8.53" r="8.53"/><circle class="cls-1" cx="52.11" cy="21.31" r="8.53"/><circle class="cls-1" cx="45.92" cy="47.69" r="8"/><circle class="cls-1" cx="28.36" cy="78.55" r="8"/><circle class="cls-1" cx="28.36" cy="115.37" r="8"/><circle class="cls-1" cx="45.92" cy="147.23" r="8"/><circle class="cls-1" cx="77.71" cy="165.52" r="8"/><circle class="cls-1" cx="114.13" cy="165.52" r="8"/><circle class="cls-1" cx="146.34" cy="147.23" r="8"/><circle class="cls-1" cx="164.12" cy="115.37" r="8"/><circle class="cls-1" cx="164.12" cy="78.55" r="8"/><circle class="cls-1" cx="146.34" cy="47.69" r="8"/><circle class="cls-1" cx="114.13" cy="29.31" r="8"/><circle class="cls-1" cx="77.71" cy="29.31" r="8"/><circle class="cls-1" cx="70.72" cy="52.66" r="5.66"/><circle class="cls-1" cx="52.11" cy="71.2" r="5.66"/><circle class="cls-1" cx="43.57" cy="96.98" r="5.66"/><circle class="cls-1" cx="50.7" cy="123.37" r="5.66"/><circle class="cls-1" cx="69.72" cy="142.29" r="5.66"/><circle class="cls-1" cx="96.23" cy="149.82" r="5.66"/><circle class="cls-1" cx="122.12" cy="142.29" r="5.66"/><circle class="cls-1" cx="140.67" cy="123.37" r="5.66"/><circle class="cls-1" cx="148.67" cy="96.98" r="5.66"/><circle class="cls-1" cx="141.01" cy="71.2" r="5.66"/><circle class="cls-1" cx="122.64" cy="51.66" r="5.66"/><circle class="cls-1" cx="96.23" cy="45.36" r="5.66"/></svg>