<svg id="Слой_1" data-name="Слой 1" xmlns="http://www.w3.org/2000/svg" viewBox="0 0 60.01 60.11"><defs><style>.cls-1{fill:#28b6da;}</style></defs><title>skill</title><path class="cls-1" d="M30,24.48s-7.33-12-1.88-18.79c0,0,5.64-4.38,5.94,8.08L36,12S36.23.83,31.05,0,25.1,5,25.1,5s-2.63,8.57,1,21.12S30,24.48,30,24.48Z" transform="translate(0.01 0.08)"/><path class="cls-1" d="M25.58,26.41s-13.49-3.91-14-12.62c0,0,1.23-7,9.83,2l.26-2.61S14.25,4.74,9.87,7.61s-1,7.71-1,7.71,3.83,8.1,15,15S25.58,26.41,25.58,26.41Z" transform="translate(0.01 0.08)"/><path class="cls-1" d="M24.54,30.48S12.39,37.53,5.71,31.91c0,0-4.24-5.75,8.22-5.74l-1.7-2S1,23.69.09,28.84,5,34.91,5,34.91s8.5,2.84,21.14-.46S24.54,30.48,24.54,30.48Z" transform="translate(0.01 0.08)"/><path class="cls-1" d="M26.64,33.53S22.91,47.21,14.13,48c0,0-7.13-1.09,1.83-10l-2.63-.21s-8.39,7.61-5.42,12,7.8.87,7.8.87,8.12-4,14.86-15.38S26.64,33.53,26.64,33.53Z" transform="translate(0.01 0.08)"/><path class="cls-1" d="M30.76,35.21s6.79,12.46,1,19.07c0,0-5.9,4.15-5.58-8.45l-2,1.67s-.78,11.3,4.38,12.39,6.24-4.77,6.24-4.77,3.07-8.52.06-21.39S30.76,35.21,30.76,35.21Z" transform="translate(0.01 0.08)"/><path class="cls-1" d="M34,33.44s13.71,3.64,14.51,12.41c0,0-1,7.14-10-1.76l-.19,2.63s7.67,8.33,12,5.34.82-7.81.82-7.81S47.13,36.16,35.73,29.5,34,33.44,34,33.44Z" transform="translate(0.01 0.08)"/><path class="cls-1" d="M35.16,29.76s12.27-7.12,19-1.49c0,0,4.31,5.78-8.3,5.81l1.73,2S59,36.54,59.9,31.35,55,25.25,55,25.25s-8.61-2.83-21.38.52S35.16,29.76,35.16,29.76Z" transform="translate(0.01 0.08)"/><path class="cls-1" d="M34.21,26.45S37,12.54,45.68,11.18c0,0,7.18.59-1.13,10.06l2.64,0S55,13.09,51.75,8.94s-7.84-.32-7.84-.32S36.09,13.2,30.16,25,34.21,26.45,34.21,26.45Z" transform="translate(0.01 0.08)"/><circle class="cls-1" cx="30.1" cy="30.86" r="6.67"/></svg>