<svg id="Слой_1" data-name="Слой 1" xmlns="http://www.w3.org/2000/svg" viewBox="0 0 197.27 197.27"><defs><style>.cls-1{fill:#3ab46c;}.cls-2{fill:#fff;}</style></defs><title>slt</title><circle class="cls-1" cx="98.63" cy="98.63" r="98.63"/><path class="cls-2" d="M100.77,146.22a16.51,16.51,0,0,1-8.25-2.2L62.31,126.58a16.51,16.51,0,0,1-8.26-14.3V77.39A16.51,16.51,0,0,1,62.31,63.1L92.52,45.66a16.55,16.55,0,0,1,16.51,0L139.24,63.1a16.5,16.5,0,0,1,8.25,14.29v34.89a16.56,16.56,0,0,1-8.25,14.3L109,144A16.51,16.51,0,0,1,100.77,146.22Zm0-93.77a7.5,7.5,0,0,0-3.75,1L66.81,70.89a7.5,7.5,0,0,0-3.76,6.5v34.89a7.52,7.52,0,0,0,3.76,6.5L97,136.22a7.52,7.52,0,0,0,7.51,0l30.21-17.44a7.51,7.51,0,0,0,3.75-6.5V77.39a7.51,7.51,0,0,0-3.75-6.5L104.53,53.45A7.51,7.51,0,0,0,100.77,52.45Z" transform="translate(-1.37 -1.37)"/><path class="cls-2" d="M103,111.12a15,15,0,1,1,12.89-12.89A15,15,0,0,1,103,111.12Zm-.59-20.65a6,6,0,1,0,4.45,4.45A6,6,0,0,0,102.36,90.47Z" transform="translate(-1.37 -1.37)"/><rect class="cls-2" x="71.9" y="62.01" width="9" height="37.36" transform="matrix(0.55, -0.83, 0.83, 0.55, -34.42, 98.47)"/><rect class="cls-2" x="106.88" y="76.19" width="36.98" height="9" transform="translate(-25.06 82.27) rotate(-33.9)"/><path class="cls-2" d="M96.36,73.35l-.74-1a4.31,4.31,0,0,1,1-6l19.09-13.76L121,59.87l-19.8,14.26A3.43,3.43,0,0,1,96.36,73.35Z" transform="translate(-1.37 -1.37)"/><path class="cls-2" d="M79.56,116.44,56.21,102.2l4.69-7.68L84,108.59A4.66,4.66,0,0,1,85.52,115h0A4.33,4.33,0,0,1,79.56,116.44Z" transform="translate(-1.37 -1.37)"/></svg>