<svg id="Слой_1" data-name="Слой 1" xmlns="http://www.w3.org/2000/svg" viewBox="0 0 199.6 189.02"><title>spc</title><rect x="55.15" y="38.07" width="152.8" height="23.27" rx="10.72" transform="translate(-7.23 67.07) rotate(-30)"/><rect x="-8.35" y="138.41" width="152.8" height="23.27" rx="10.72" transform="translate(-65.9 48.77) rotate(-30)"/><path d="M32.11,99.22A68.17,68.17,0,0,1,150.05,52.59l22.08-12.75a93.18,93.18,0,0,0-156,99.33l21.75-12.56A67.86,67.86,0,0,1,32.11,99.22Z" transform="translate(0 -5.36)"/><path d="M162.88,72.05a68.19,68.19,0,0,1-62.55,95.39c-19.51,0-35.85-6.17-48.29-19.33l-22.22,12c17.11,20.55,41.74,32.32,70.51,32.32a93.19,93.19,0,0,0,84.3-133Z" transform="translate(0 -5.36)"/><path d="M139.85,14.81s12.1,8.26,30.67-1-21.28,22.36-21.28,22.36Z" transform="translate(0 -5.36)"/><path d="M29.82,185.54s12-9.74,31.16-1.67-23.19-20.22-23.19-20.22Z" transform="translate(0 -5.36)"/></svg>