<svg id="Слой_1" data-name="Слой 1" xmlns="http://www.w3.org/2000/svg" xmlns:xlink="http://www.w3.org/1999/xlink" viewBox="0 0 198 198.12"><defs><style>.cls-1{fill:url(#Безымянный_градиент_18);}.cls-2{fill:url(#Безымянный_градиент_25);}</style><linearGradient id="Безымянный_градиент_18" x1="107.85" y1="97.92" x2="136.78" y2="8.89" gradientUnits="userSpaceOnUse"><stop offset="0" stop-color="#7e93eb"/><stop offset="0" stop-color="#c3898a"/><stop offset="0.49" stop-color="#7e93eb"/><stop offset="1" stop-color="#6cb5f9"/></linearGradient><linearGradient id="Безымянный_градиент_25" x1="140.88" y1="23.06" x2="169.81" y2="-65.96" gradientTransform="translate(233.03 125.27) rotate(180)" gradientUnits="userSpaceOnUse"><stop offset="0" stop-color="#7e93eb"/><stop offset="0" stop-color="#d16655"/><stop offset="0.49" stop-color="#7b2e8e"/><stop offset="1" stop-color="#2400aa"/></linearGradient></defs><title>spd</title><path class="cls-1" d="M52.07,11.56c-10.87,6.22-20.81,15.25-20,27.33a21.29,21.29,0,0,0,9.05,15.72c6.14,4.38,18,10.76,39.42,15.92C117,79.31,135.41,85,135.41,85s51.35,14.92,59.69,41.26c0,0,14.92-38.62-13.61-80.32-.5-.74-1-1.47-1.53-2.19C160.61,16.69,129.05,1,95.78,1H93A82.4,82.4,0,0,0,52.07,11.56Z" transform="translate(-1 -1)"/><path class="cls-2" d="M147.93,188.55c10.87-6.21,20.81-15.25,20-27.33a21.28,21.28,0,0,0-9-15.71c-6.14-4.38-18-10.76-39.42-15.92C83,120.81,64.59,115.11,64.59,115.11S13.24,100.18,4.9,73.85c0,0-14.92,38.62,13.61,80.32.5.74,1,1.47,1.53,2.19,19.35,27.07,50.91,42.76,84.18,42.76H107A82.41,82.41,0,0,0,147.93,188.55Z" transform="translate(-1 -1)"/></svg>