<svg id="Слой_1" data-name="Слой 1" xmlns="http://www.w3.org/2000/svg" viewBox="0 0 189.4 218.7"><defs><style>.cls-1{fill:#c2185b;}</style></defs><title>stream</title><path class="cls-1" d="M94.7,218.7,0,164V54.67L94.7,0l94.7,54.67V164ZM8,159.41l86.7,50.05,86.7-50.05V59.29l-86.7-50L8,59.29Z"/><path class="cls-1" d="M93.8,166.37l-48-27.73V83.18l48-27.72,48,27.72v55.46ZM53.77,134l40,23.11,40-23.11V87.8l-40-23.11-40,23.11Z"/><polygon class="cls-1" points="6.01 165.18 1.99 158.25 89.82 107.31 90.7 4.58 98.7 4.65 97.78 111.94 6.01 165.18"/><rect class="cls-1" x="135.6" y="82.98" width="8" height="105.38" transform="translate(-47.34 189.96) rotate(-60.37)"/><path class="cls-1" d="M89.83,213.64,1.94,61.42A5.63,5.63,0,0,1,6.82,53H182.58a5.62,5.62,0,0,1,4.87,8.44L99.57,213.64A5.62,5.62,0,0,1,89.83,213.64ZM15.8,69.42l74,128.22a5.62,5.62,0,0,0,9.74,0l74-128.22A5.63,5.63,0,0,0,168.73,61H20.67A5.63,5.63,0,0,0,15.8,69.42Z"/><rect class="cls-1" x="90.25" y="161.74" width="8" height="52.34" transform="translate(-3.22 1.65) rotate(-0.99)"/><rect class="cls-1" x="22.89" y="44.28" width="8" height="53.93" transform="translate(-47.8 56.4) rotate(-58.08)"/><rect class="cls-1" x="133.88" y="67.24" width="55.46" height="8" transform="translate(-13.64 93.19) rotate(-30.93)"/></svg>