<svg id="Слой_1" data-name="Слой 1" xmlns="http://www.w3.org/2000/svg" viewBox="0 0 197.62 200.59"><defs><style>.cls-1{fill:#fff;}.cls-2{fill:#2c9cdb;}</style></defs><title>sumo</title><path class="cls-1" d="M152.29,79.94c.18.12.32.18.37.15S152.59,80,152.29,79.94Z" transform="translate(-1.34 0.59)"/><path class="cls-2" d="M100.15-.59C45.58-.59,1.34,44.32,1.34,99.71S45.58,200,100.15,200,199,155.1,199,99.71,154.72-.59,100.15-.59Zm-.27,23.17L113.66,41.5h-27Zm0,154.15L86.64,157.82h27Zm17-23.62H84s-17-24.8-40.18-33.76c0,0,28.77-2.29,56.17,13.32l13.66-15.61L30.51,99.38S80.79,53,84,45.65c.36-.84,31.91,0,31.91,0s32.54,31.92,36.37,34.29c-3.44-.56-30-1.23-52.29-14.31L86.64,80.1l82.78,18.13S117.76,149.2,116.84,153.11Z" transform="translate(-1.34 0.59)"/></svg>