<svg id="Слой_1" data-name="Слой 1" xmlns="http://www.w3.org/2000/svg" viewBox="0 0 196.13 147.33"><defs><style>.cls-1{fill:#f7941d;}</style></defs><title>swm</title><path class="cls-1" d="M75.1,119,33.38,80.43,108.63,11h83.12a4.46,4.46,0,0,1,2.87,7.87ZM42.23,80.44,75.3,111,187.51,17H111Z" transform="translate(-0.09 0.26)"/><path class="cls-1" d="M104.57,147.07a4.68,4.68,0,0,1-3.22-1.29l-67.52-64,0-1.25c0-.19-.46-19.42-.79-38.45-.2-11.18-.33-20.11-.37-26.53,0-3.83,0-6.81,0-8.86.06-3.78.09-5.34,2.1-6.15l1.93-.77L38.2,1.39,109.25,87.1v55.29a4.68,4.68,0,0,1-2.83,4.3A4.82,4.82,0,0,1,104.57,147.07Zm-64.8-68,63.48,60.2v-50L38.63,11.31C38.65,25.46,39.25,56.57,39.77,79.11Z" transform="translate(-0.09 0.26)"/><path class="cls-1" d="M14.28,39.27c-12.5,0-12.76-.66-13.43-2.42l-.76-2L1.6,33.54l31-31,.45-.44.43-.44a2,2,0,0,0-.19.22c1.12-1,2.81-2,4.52-.32a3,3,0,0,1,.81,2.82v34.6l-3,.06C26.11,39.17,19.23,39.27,14.28,39.27Zm-3.83-6.1c5.49.07,13.93,0,22.19-.13V11Z" transform="translate(-0.09 0.26)"/></svg>