<svg id="Слой_1" data-name="Слой 1" xmlns="http://www.w3.org/2000/svg" viewBox="0 0 181.58 181.58"><defs><style>.cls-1{fill:#d3a23c;}.cls-2{fill:#fff;}</style></defs><title>szc</title><circle class="cls-1" cx="90.79" cy="90.79" r="90.79"/><path class="cls-2" d="M90.82,170.77c-1.13,0-2.29,0-3.41-.07l.2-5c1.07.05,2.14.07,3.21.07l1.62,0,.11,5Zm3.79-.1-.24-5c1.6-.08,3.22-.21,4.81-.39l.56,5C98.05,170.45,96.32,170.59,94.61,170.67Zm-9.26-.08c-1.7-.11-3.43-.29-5.12-.51l.65-5c1.59.21,3.21.37,4.8.48Zm16.44-.59-.7-4.95c1.6-.22,3.19-.5,4.75-.83l1,4.9C105.19,169.47,103.49,169.76,101.79,170Zm-23.6-.22c-1.69-.26-3.4-.59-5.06-1l1.11-4.87c1.55.35,3.15.65,4.73.91Zm30.68-1.11-1.14-4.86c1.55-.37,3.12-.79,4.66-1.26l1.45,4.78C112.2,167.83,110.53,168.29,108.87,168.67Zm-37.74-.34c-1.66-.42-3.32-.9-4.95-1.43l1.55-4.76c1.52.5,3.08,1,4.63,1.34Zm44.68-1.62L114.22,162c1.53-.51,3-1.08,4.53-1.68l1.89,4.63C119.06,165.56,117.43,166.16,115.81,166.71Zm-51.59-.48c-1.6-.57-3.22-1.2-4.8-1.88l2-4.59c1.48.63,3,1.22,4.5,1.76Zm58.31-2.11-2-4.58c1.46-.64,2.92-1.34,4.34-2.08l2.31,4.44C125.65,162.69,124.08,163.43,122.53,164.12Zm-65-.61c-1.55-.72-3.1-1.5-4.6-2.32l2.39-4.39c1.4.77,2.85,1.49,4.31,2.17ZM129,160.92l-2.42-4.37c1.4-.77,2.79-1.6,4.14-2.47l2.7,4.21C132,159.21,130.47,160.1,129,160.92Zm-77.85-.74c-1.48-.85-3-1.77-4.38-2.72l2.78-4.16c1.34.9,2.72,1.76,4.1,2.56Zm84-3L132.31,153c1.32-.9,2.64-1.85,3.9-2.84l3.07,3.95C137.93,155.18,136.53,156.2,135.12,157.16Zm-90.07-.87c-1.39-1-2.77-2-4.1-3.1l3.14-3.89c1.25,1,2.54,2,3.85,2.91Zm95.84-3.44L137.72,149c1.23-1,2.45-2.08,3.63-3.18l3.41,3.66C143.51,150.63,142.2,151.77,140.89,152.85Zm-101.53-1c-1.3-1.11-2.59-2.28-3.81-3.47L39,144.82c1.15,1.11,2.35,2.2,3.57,3.24ZM146.25,148l-3.51-3.56c1.15-1.13,2.27-2.3,3.33-3.5l3.73,3.33C148.66,145.58,147.47,146.83,146.25,148ZM34.09,147c-1.2-1.22-2.37-2.5-3.48-3.79l3.79-3.26c1.05,1.21,2.14,2.41,3.26,3.55Zm117.06-4.2-3.81-3.23c1-1.22,2-2.5,3-3.79l4,3C153.33,140.09,152.26,141.45,151.15,142.75ZM29.29,141.58c-1.08-1.32-2.13-2.7-3.12-4.09l4.07-2.91c.93,1.31,1.92,2.6,2.92,3.84ZM155.56,137l-4.09-2.87c.92-1.31,1.81-2.67,2.64-4l4.27,2.6C157.49,134.2,156.54,135.65,155.56,137ZM25,135.79c-1-1.41-1.88-2.88-2.74-4.35l4.32-2.52c.8,1.38,1.67,2.75,2.56,4.08ZM159.44,131l-4.34-2.48c.8-1.4,1.56-2.84,2.27-4.27l4.49,2.2C161.11,127.93,160.29,129.46,159.44,131Zm-138.19-1.3c-.83-1.5-1.61-3-2.33-4.59l4.53-2.12c.67,1.45,1.41,2.9,2.18,4.3Zm141.49-5.11-4.54-2.09c.67-1.46,1.29-3,1.86-4.45l4.68,1.78C164.13,121.38,163.45,123,162.74,124.54ZM18.07,123.19c-.68-1.57-1.32-3.17-1.9-4.78l4.71-1.69c.54,1.5,1.14,3,1.78,4.47Zm147.38-5.35-4.72-1.66c.53-1.5,1-3.05,1.45-4.6l4.82,1.35C166.53,114.58,166,116.23,165.45,117.84ZM15.5,116.46c-.54-1.62-1-3.28-1.46-4.94l4.84-1.25c.4,1.55.86,3.1,1.37,4.62Zm152-5.52-4.85-1.22c.39-1.55.74-3.14,1-4.72l4.92.91C168.31,107.59,167.94,109.29,167.52,110.94Zm-154-1.42c-.39-1.66-.72-3.36-1-5l4.94-.81c.25,1.58.57,3.17.93,4.73ZM169,103.87,164,103.1c.25-1.57.44-3.19.59-4.79l5,.45C169.43,100.47,169.22,102.19,169,103.87ZM12.25,102.43c-.24-1.68-.42-3.41-.54-5.12l5-.36c.11,1.61.28,3.22.5,4.8Zm157.5-5.72-5-.32c.1-1.6.15-3.22.15-4.82v-.16h5v.16C169.91,93.28,169.85,95,169.75,96.71ZM11.59,95.26c-.06-1.22-.08-2.47-.08-3.69,0-.49,0-1,0-1.46l5,.09c0,.45,0,.91,0,1.37,0,1.15,0,2.31.08,3.46Zm153.29-5.78c0-1.6-.14-3.22-.29-4.82l5-.45c.16,1.7.26,3.43.31,5.14ZM16.58,88.27l-5-.22c.08-1.71.21-3.44.39-5.13l5,.54C16.77,85,16.65,86.66,16.58,88.27Zm147.81-5.53c-.19-1.58-.43-3.18-.72-4.76l4.91-.91c.32,1.69.58,3.4.78,5.09ZM17.18,81.54l-5-.67c.23-1.69.52-3.4.86-5.07l4.9,1C17.66,78.35,17.39,80,17.18,81.54Zm146.11-5.46c-.33-1.57-.72-3.14-1.15-4.68L167,70c.46,1.65.88,3.33,1.23,5ZM18.38,74.9l-4.87-1.12c.38-1.66.83-3.34,1.32-5l4.79,1.44C19.16,71.77,18.74,73.34,18.38,74.9Zm143.21-5.35c-.47-1.53-1-3.06-1.58-4.56l4.67-1.79c.61,1.6,1.18,3.24,1.69,4.87ZM20.19,68.4l-4.75-1.56c.54-1.63,1.13-3.26,1.77-4.85l4.64,1.87C21.25,65.35,20.69,66.87,20.19,68.4ZM159.3,63.2c-.61-1.47-1.28-3-2-4.39l4.48-2.21c.76,1.54,1.48,3.11,2.13,4.69ZM22.6,62.07l-4.59-2c.68-1.57,1.42-3.13,2.21-4.66l4.44,2.29C23.93,59.14,23.24,60.6,22.6,62.07Zm133.84-5c-.75-1.42-1.55-2.83-2.38-4.19l4.26-2.61c.89,1.45,1.75,3,2.54,4.47ZM25.57,56l-4.39-2.4c.82-1.5,1.71-3,2.62-4.44L28,51.84C27.16,53.19,26.34,54.59,25.57,56ZM153,51.27c-.87-1.33-1.79-2.67-2.75-4l4-3c1,1.38,2,2.8,2.94,4.23ZM29.08,50.22l-4.15-2.79c1-1.42,2-2.82,3-4.18l4,3.06C30.93,47.58,30,48.89,29.08,50.22Zm120-4.44c-1-1.26-2-2.5-3.1-3.69l3.72-3.34c1.14,1.27,2.25,2.6,3.31,4Zm-116-1-3.88-3.15c1.08-1.33,2.22-2.64,3.38-3.89l3.67,3.4C35.18,42.32,34.11,43.55,33.1,44.79Zm111.6-4.12c-1.1-1.17-2.25-2.32-3.42-3.41l3.41-3.65c1.24,1.16,2.47,2.38,3.65,3.63ZM37.6,39.75,34,36.26c1.19-1.23,2.44-2.43,3.71-3.57l3.35,3.72C39.89,37.47,38.72,38.6,37.6,39.75ZM139.85,36c-1.2-1.06-2.45-2.1-3.72-3.08l3.06-3.95c1.36,1,2.69,2.15,4,3.28Zm-97.32-.84-3.25-3.8c1.3-1.11,2.65-2.19,4-3.21l3,4C45,33.08,43.75,34.09,42.53,35.13Zm92.06-3.41c-1.3-.95-2.64-1.87-4-2.73l2.69-4.21c1.44.92,2.87,1.9,4.25,2.91ZM47.85,31,45,26.91c1.4-1,2.84-1.95,4.29-2.84l2.62,4.26C50.51,29.16,49.16,30.06,47.85,31ZM129,28c-1.38-.82-2.8-1.62-4.22-2.35l2.3-4.44c1.52.78,3,1.63,4.5,2.51Zm-75.44-.63L51,23c1.47-.85,3-1.67,4.53-2.43l2.22,4.47C56.34,25.77,54.91,26.54,53.53,27.34ZM123,24.75c-1.44-.7-2.92-1.36-4.41-2l1.88-4.63c1.59.64,3.17,1.35,4.71,2.09Zm-63.51-.53L57.4,19.69c1.55-.72,3.14-1.4,4.74-2l1.8,4.66C62.45,22.92,61,23.55,59.51,24.22Zm57.3-2.14c-1.5-.56-3-1.08-4.58-1.55l1.45-4.78c1.64.49,3.28,1.05,4.89,1.65Zm-51.06-.41L64.07,17c1.61-.58,3.26-1.11,4.9-1.57l1.37,4.8C68.8,20.63,67.25,21.13,65.75,21.67ZM110.38,20c-1.55-.42-3.12-.8-4.69-1.12l1-4.9c1.68.34,3.36.74,5,1.2ZM72.2,19.69,71,14.85c1.66-.43,3.35-.8,5-1.12l.92,4.91C75.34,18.94,73.75,19.29,72.2,19.69Zm31.59-1.18c-1.58-.28-3.18-.51-4.77-.69l.55-5c1.7.19,3.41.44,5.1.74Zm-25-.2L78,13.38c1.68-.28,3.4-.49,5.11-.66l.47,5C82,17.85,80.39,18.06,78.81,18.31Zm18.29-.67c-1.6-.14-3.22-.23-4.82-.26l.1-5c1.71,0,3.44.13,5.14.27Zm-11.58-.1-.34-5c1.7-.11,3.43-.18,5.14-.18l0,5C88.74,17.37,87.12,17.43,85.52,17.54Z"/><path class="cls-2" d="M87.81,140.54a48,48,0,0,1-31.64-11.67l-1.7-1.51,13-17.91,2,1.24a40.16,40.16,0,0,0,19.55,6.1,6.06,6.06,0,0,0,4-1.07,5.69,5.69,0,0,0,2.65-4.65,6.22,6.22,0,0,0-3-4.95c-3.47-2.42-7.6-4.11-12-5.9a93.2,93.2,0,0,1-9.24-4.16C59.89,89.78,54.22,77,57.72,64.9S73.67,43.25,88,41.76c12.27-1.27,22.73,5,32.85,11.11l0,0a2.93,2.93,0,0,1,1,4h0l-2.86.72c-10.14-6.09-19.65-12-30.52-10.87-12.31,1.28-23,9.32-25.95,19.55-2.83,9.79,1.84,20.22,11.36,25.37a87.32,87.32,0,0,0,8.75,3.93c4.44,1.81,9,3.69,13,6.42a11.15,11.15,0,0,1,5.1,9A10.69,10.69,0,0,1,96,119.78a11,11,0,0,1-7.12,2,45.2,45.2,0,0,1-20-5.68l-7.62,10.47c12.43,9.78,29.18,12.44,43.44,5.48,2.32-1.13,13.94-8.87,10.71-25.11-1.18-6-7.06-13.55-12.75-16.6-2-1.07-4.13-2.07-6.19-3-6.2-2.9-12.6-5.9-17.14-11.59a8.49,8.49,0,0,1-.84-7.21c.64-1.8,2.27-4.14,6.39-5,8.77-1.9,16.39,2,23.32,6.44.31.21.62.44.92.68l.26.21c.11-.14.25-.34.45-.64l3-4.58c-4.37-2.74-16.68-8.89-23.12-8.3-5.36.5-9.53,1.83-12.73,4.06-3.7,2.58-6,6.52-5.93,10.3.05,5.54,4.86,10.2,9.35,12.71a67.71,67.71,0,0,0,9.19,4c4.24,1.6,8.63,3.26,12.59,6a21.88,21.88,0,0,1,9.42,17c.22,4.12-.36,7.29-1.77,9.7-3.51,6-9.15,9.48-17.23,10.74-6.83,1.06-17.93-1.2-23.88-6.24a.45.45,0,0,1,0-.64l1.92-2.14a1.77,1.77,0,0,1,2.31-.3c4.63,3.24,13.14,5.28,18.92,4.37,6.6-1,11-3.67,13.68-8.33.89-1.51,1.26-3.83,1.1-6.89a16.94,16.94,0,0,0-7.27-13.13c-3.46-2.39-7.37-3.87-11.52-5.43a71.57,71.57,0,0,1-9.86-4.31c-7.4-4.13-11.85-10.5-11.91-17-.06-5.41,3-11,8.07-14.45,3.93-2.74,8.88-4.35,15.13-4.93,9-.84,27.34,8.58,29,11.35a2.57,2.57,0,0,1,0,2.76L114,72.89c-.59.92-1.83,2.83-4.14,3.08A5.26,5.26,0,0,1,106,74.52a4.7,4.7,0,0,0-.52-.39c-6-3.89-12.57-7.27-19.55-5.76A3.59,3.59,0,0,0,83.24,70a3.86,3.86,0,0,0,.06,2.72c3.8,4.7,9.37,7.3,15.26,10.06,2.12,1,4.32,2,6.43,3.16,6.92,3.71,13.89,12.65,15.29,20,3.56,18.6-6.44,26.42-12.11,30C102.21,139.71,94.82,140.54,87.81,140.54ZM83.22,72.62v0Z"/></svg>