<svg id="Слой_1" data-name="Слой 1" xmlns="http://www.w3.org/2000/svg" viewBox="0 0 206.02 219.16"><defs><style>.cls-1{fill:#024792;}.cls-2{fill:#0059a7;}</style></defs><title>tavitt</title><path class="cls-1" d="M146.59,24.84s-27.1-7.21-40.08-3.75L90.37,43.87,79.12,45.6,85.76,28l-.58-1.44S33.57,45,30.11,102.68c0,0,16.15-43,55.07-52.18S146.59,58,146.59,58,161,67.22,170.23,79.62c0,0-99.88,16.17-105.23,25.08-.87,1.44-23.64,48.44-23.64,48.44s62.27-27.1,68.61-28c0,0-19.12,13.31-17.58,29.41L92,219.16s-40.4-.93-66.4-34.83S.08,122.58.08,122.58-2.16,86.67,16.8,60.82C37.63,32.43,53.48,26.47,53.48,26.47s8.37-7,31.58-11.61L74.84,0H87.37l19.5,12.54S129.19,13.93,146.59,24.84Z"/><path class="cls-2" d="M182.09,104.47l-59,17.18v95.18s32.51-3.71,59-32.5c0,0,30.18-31.57,22.75-83.11,0,0,3.5,51.54-40.27,79.86C164.57,181.08,196,151.37,182.09,104.47Z"/></svg>