<svg id="Слой_1" data-name="Слой 1" xmlns="http://www.w3.org/2000/svg" viewBox="0 0 161.78 184.74"><defs><style>.cls-1{fill:#1d344f;}</style></defs><title>tern</title><path class="cls-1" d="M161.78,81.14V44.89L84,0H78.67L39.5,22.93,71.72,42,64,46,30,27.32,0,46v93l41.7,23.8.36-37.34,8.06,4.39v37L80.5,184.74l81.28-46.12V91.39c0-1.47-32.22,17.57-32.22,17.57v-8.79Zm-119.35-11L46.09,68,80.87,85.9,114.18,68l5.13,2.19v5.13L86,93.75v40.47l-5.1,2.57-4.78-2.57V96.51L42.43,76.38Zm17.94,45.4L24.86,95.78v38.44L15.7,128V55.51l13.55-8.42L39.5,52.22,24.86,59.54V86.26l35.51,19Zm84.2,3.66v9.89l-63.7,37.34L67,158.75V148.5l13.91,7.69,22.7-12.08V102.37l7.32-4v41ZM114.18,47.09,80.87,68,72.08,62.1l33.68-21.23L73.55,22.19l7.34-5.12,63.68,38.81V70.52l-7.69,4V60.27Z"/></svg>