<svg id="Слой_1" data-name="Слой 1" xmlns="http://www.w3.org/2000/svg" viewBox="0 0 200.59 35.75"><defs><style>.cls-1{fill:#505050;}.cls-2{fill:#f2587c;}.cls-3{fill:none;stroke:#505050;stroke-miterlimit:10;}.cls-4{fill:#f9bb31;}.cls-5{fill:#25b5af;}</style></defs><title>tgame</title><path class="cls-1" d="M55.87,6.05h-6.3V.54H66.93V6.05h-6.3V29.58H55.87Z" transform="translate(-0.69 0.68)"/><path class="cls-1" d="M70.16.54h7.48c4.45,0,8.11,2.13,8.11,9,0,6.68-3.66,9.55-8.11,9.55H74.93V29.58H70.16Zm7.09,13.37c2.5,0,3.84-1.48,3.84-4.33s-1.34-3.83-3.84-3.83H74.93v8.16Zm2.81-.72,6.7,16.39H81.44L76.76,17.4Z" transform="translate(-0.69 0.68)"/><path class="cls-1" d="M89.34,18.4V.54H94.1V19.07c0,3.47.93,5.37,2.91,5.37s3-1.9,3-5.37V.54h4.59V18.4c0,7.54-2.45,11.72-7.56,11.72S89.34,25.94,89.34,18.4Z" transform="translate(-0.69 0.68)"/><path class="cls-1" d="M109.61.54h13.93V6.05h-9.17v5.82h7.79v5.51h-7.79v6.69h9.5v5.51H109.61Z" transform="translate(-0.69 0.68)"/><path class="cls-2" d="M127.39,15.22c0-9.71,4.28-15.22,9.74-15.22,2.83,0,4.81,1.8,6.14,3.69l-2.62,4.07a4.12,4.12,0,0,0-3.52-2.08c-2.76,0-4.83,3.5-4.83,9.32s1.7,9.44,5,9.44a2.65,2.65,0,0,0,2-.86v-5H136.3V13.2h7.32V26.6A8.79,8.79,0,0,1,137,30.12C131.67,30.12,127.39,25,127.39,15.22Z" transform="translate(-0.69 0.68)"/><path class="cls-2" d="M152.16.54h5.71l6.54,29h-5l-2.72-14.7c-.53-2.9-1.17-6.31-1.67-9.37h-.13c-.52,3.06-1.1,6.47-1.63,9.37l-2.74,14.7h-4.86Zm-2.21,17H160v5.12H150Z" transform="translate(-0.69 0.68)"/><path class="cls-2" d="M166.55.54h5l2.06,10.29.7,4h.13l.7-4L177.2.54h5v29h-4v-9c0-3.27.42-10.35.64-13.49h-.09l-1.62,7.79-1.63,7h-2.31l-1.67-7L170,7.1h-.11c.24,3.14.64,10.22.64,13.49v9h-4Z" transform="translate(-0.69 0.68)"/><path class="cls-2" d="M187,.54H201V6.05h-9.18v5.82h7.8v5.51h-7.8v6.69h9.5v5.51H187Z" transform="translate(-0.69 0.68)"/><polyline class="cls-3" points="25.62 8.52 11.84 14.6 30.04 26.37"/><circle class="cls-2" cx="8.61" cy="17.01" r="8.61"/><circle class="cls-4" cx="30.04" cy="6.63" r="6.63"/><circle class="cls-5" cx="36.54" cy="28.05" r="7.71"/></svg>