<svg id="Слой_1" data-name="Слой 1" xmlns="http://www.w3.org/2000/svg" viewBox="0 0 139.79 198.42"><defs><style>.cls-1{fill:#303847;}.cls-2{fill:#f36f21;}</style></defs><title>tic</title><polygon class="cls-1" points="117.05 91.53 59.33 60.83 4.46 91.5 1.54 86.27 59.26 53.99 119.87 86.24 117.05 91.53"/><path class="cls-2" d="M25.12,126.6l.4-1.9c.13-.63,14-63.7,64.46-81l.65,1.89C46.18,60.82,30.72,112.42,28,123.15c10.69-4.9,64.29-30.64,75.64-58l1.85.77C100,79,85.14,93,61.21,107.7a314,314,0,0,1-34.32,18.12Z" transform="translate(0 -0.12)"/><path class="cls-2" d="M75,138.5c-14.11,0-30.78-3.16-48.93-12.71L27,124c30.62,16.1,56.9,13.7,73.56,8.85,18-5.26,29-14.4,29.06-14.49l1.29,1.53c-.45.38-11.35,9.51-29.79,14.88A93.58,93.58,0,0,1,75,138.5Z" transform="translate(0 -0.12)"/><path class="cls-2" d="M90.2,163.14c-.45,0-45.26-5.41-65.67-37.25l1.68-1.08C46.12,155.86,90,161.1,90.42,161.15Z" transform="translate(0 -0.12)"/><path class="cls-2" d="M41.32,164.65c-.44-.43-11-10.63-17.78-38l1.94-.48c6.6,26.78,17.11,36.9,17.21,37Z" transform="translate(0 -0.12)"/><path class="cls-2" d="M16.4,142.55l-2-.27c.07-.49,1.77-12.1,9.59-16.71l1,1.72C18,131.41,16.42,142.44,16.4,142.55Z" transform="translate(0 -0.12)"/><path class="cls-2" d="M25.73,128.16l-2.21-2.61C17,117.89,12.83,104.83,11.09,86.74a187.41,187.41,0,0,1-.67-24.83l2,.11c0,.42-2.08,40.35,10.51,59.42a162.32,162.32,0,0,1,2.7-43.5C30.42,54.47,43.23,22.8,77,5.22L77.93,7C44.85,24.22,32.29,55.3,27.58,78.34a155.55,155.55,0,0,0-2.31,46.43Z" transform="translate(0 -0.12)"/><circle class="cls-2" cx="78.57" cy="6.21" r="6.21"/><circle class="cls-2" cx="90.31" cy="42.34" r="6.21"/><circle class="cls-2" cx="104.51" cy="65.39" r="6.21"/><circle class="cls-2" cx="133.58" cy="119.03" r="6.21"/><circle class="cls-2" cx="92.1" cy="160.21" r="6.21"/><circle class="cls-2" cx="44.37" cy="163.8" r="6.21"/><circle class="cls-2" cx="15.24" cy="142.3" r="6.21"/><circle class="cls-2" cx="11.27" cy="61.89" r="6.21"/><path class="cls-1" d="M62.3,198.53,0,163.84V87.45s2.38-2.33,4.24-1.2l58.06,35.2ZM6,160.44l50.3,30.1V124.82L6,94.33Z" transform="translate(0 -0.12)"/><path class="cls-1" d="M60.46,120.66l57.17-35.5,3.73,1.76.1,75.41a2.64,2.64,0,0,1-1.31,2.28L62.3,198.53c-1.41.75-2.88-64.72-3.11-75.57A2.6,2.6,0,0,1,60.46,120.66Zm4.7,4.16v65.72l50.3-30.1V94.33Z" transform="translate(0 -0.12)"/><path class="cls-2" d="M95.29,136.27l-.57-1.91c.3-.09,29.83-8.87,34.68-15.79l1.64,1.15C125.79,127.21,96.53,135.91,95.29,136.27Z" transform="translate(0 -0.12)"/></svg>