<svg id="Слой_1" data-name="Слой 1" xmlns="http://www.w3.org/2000/svg" viewBox="0 0 102.89 107.6"><defs><style>.cls-1{fill:#ed0c10;}</style></defs><title>tnr</title><path class="cls-1" d="M90.34,31.49s1.85-20.31-22.43-19-30.6,5.42-50.66-.06c0,0-2,9.82,38.32,16.15C55.57,28.59,11,36.83,0,0,0,0,6.09,7,65.34,3.36c3.72-.23,6.56-.3,8.82-.25,14,.28,23.29,15.16,16.69,27.5C90.69,30.91,90.52,31.21,90.34,31.49Z"/><path d="M9.33,24.26S24.73,37,57.79,33.8c0,0-6.49,40,8.61,53.36s36.49,16,36.49,16-41.49,8-53.35-25.52c0,0-5.29-9.8-3-35.83C46.51,41.79,18.87,42.05,9.33,24.26Z"/><path class="cls-1" d="M36.91,43.08h6.7S41,73.73,50.83,87.41C61,101.47,66.4,101.59,66.4,101.59A75.83,75.83,0,0,0,93,106.49s-24.92,6.44-41.68-11.6a54.49,54.49,0,0,1-14.43-39.7Z"/></svg>