<svg id="Слой_1" data-name="Слой 1" xmlns="http://www.w3.org/2000/svg" viewBox="0 0 199.46 178.7"><defs><style>.cls-1{fill:#2c2a2b;}.cls-2{fill:#95b4f7;}.cls-3{fill:#1e49a1;}.cls-4{fill:#0e3c9a;}</style></defs><title>toa</title><path class="cls-1" d="M74.18,62C58.65,62,46.06,74.1,46.06,89.07s12.59,27.11,28.12,27.11S102.3,104,102.3,89.07,89.71,62,74.18,62Zm0,41.67A14.56,14.56,0,1,1,88.75,89.07,14.56,14.56,0,0,1,74.18,103.63Z"/><polygon class="cls-2" points="85.36 50.18 63.2 51.54 83.62 54.55 88.34 65.88 90.96 63.37 85.36 50.18 85.36 50.18"/><polygon class="cls-3" points="69.31 84.14 110.26 44.85 115.1 52.93 109.85 52.11 110.67 60.96 69.31 84.14 69.31 84.14"/><polygon class="cls-3" points="107.31 62.85 91.8 42.24 58.52 44.28 84.48 48.11 93.9 70.31 107.31 62.85 107.31 62.85"/><polygon class="cls-1" points="0 64.5 0 75.87 15.9 75.87 15.9 113.64 28.87 113.64 28.87 75.87 45.22 75.59 45.22 64.5 0 64.5"/><path class="cls-1" d="M133.74,64.49H122.46l-18.89,49.15h14.1l2.54-6.48,15.78-.28,3.67,6.76h13.25ZM123.31,96.17l4.79-13.54,4.79,13.54Z"/><path class="cls-4" d="M15.9,119.6c15.76,33.26,40,39.5,82.64,39.5s78.92-34.21,78.92-73.91-34.69-72-77.32-72S33.19,36.64,18.56,56.27C18.62,52.33,45.24,0,100,0s99.46,33.63,99.46,85.19S154.9,178.7,100.14,178.7,20.91,138.26,15.9,119.6"/></svg>