<svg width="19" height="12" xmlns="http://www.w3.org/2000/svg">
 <g>
  <title>background</title>
  <rect x="-1" y="-1" width="21" height="14" id="canvas_background" fill="none"/>
 </g>

 <g>
  <title>Layer 1</title>
  <path stroke="null" d="m8.17448,5.630642l0,0.57225c0,1.13915 -0.189465,2.143962 -0.568396,3.014436c-0.378943,0.870473 -0.920265,1.542136 -1.624004,2.014988c-0.698801,0.472852 -1.498501,0.709285 -2.399074,0.709285c-0.708653,0 -1.43207,-0.053744 -2.170252,-0.161203l0,-5.037485l-1.380395,0.491655l0,-1.716765l1.380395,-0.49167l0,-0.96719l-1.380395,0.491655l0,-1.716779l1.380395,-0.491655l0,-2.29709l2.207153,0l0,1.507211l1.446835,-0.523899l0,1.716779l-1.446835,0.523899l0,0.96719l1.446835,-0.523886l0,1.708704l-1.446835,0.523899l0,4.013869c0.752948,-0.010743 1.32627,-0.327771 1.719966,-0.951068c0.398609,-0.623312 0.600383,-1.547516 0.605308,-2.772638l0,-0.604494l2.2293,0l-0.000001,0.000002z" fill="#fff" id="svg_1"/>
 </g>
</svg>