<svg width="7" height="10" viewBox="0 0 7 10" fill="none" xmlns="http://www.w3.org/2000/svg">
<path d="M6.67969 4.5293V4.94531C6.67969 5.77344 6.5293 6.50391 6.22852 7.13672C5.92773 7.76953 5.49805 8.25781 4.93945 8.60156C4.38477 8.94531 3.75 9.11719 3.03516 9.11719C2.47266 9.11719 1.89844 9.07812 1.3125 9V5.33789L0.216797 5.69531V4.44727L1.3125 4.08984V3.38672L0.216797 3.74414V2.49609L1.3125 2.13867V0.46875H3.06445V1.56445L4.21289 1.18359V2.43164L3.06445 2.8125V3.51562L4.21289 3.13477V4.37695L3.06445 4.75781V7.67578C3.66211 7.66797 4.11719 7.4375 4.42969 6.98438C4.74609 6.53125 4.90625 5.85938 4.91016 4.96875V4.5293H6.67969Z" fill="#fff"/>
</svg>
