<svg width="19" height="12" xmlns="http://www.w3.org/2000/svg">
 <g>
  <title>background</title>
  <rect x="-1" y="-1" width="21" height="14" id="canvas_background" fill="none"/>
 </g>

 <g>
  <title>Layer 1</title>
  <path stroke="null" d="m8.098421,5.659948l0,0.571062c0,1.136786 -0.186744,2.139512 -0.560231,3.00818c-0.3735,0.868667 -0.907046,1.538936 -1.600676,2.010806c-0.688763,0.47187 -1.476975,0.707813 -2.364613,0.707813c-0.698473,0 -1.411499,-0.053632 -2.139077,-0.160868l0,-5.02703l-1.360567,0.490635l0,-1.713202l1.360567,-0.490649l0,-0.965183l-1.360567,0.490635l0,-1.713216l1.360567,-0.490635l0,-2.292323l2.175449,0l0,1.504083l1.426052,-0.522812l0,1.713216l-1.426052,0.522812l0,0.965183l1.426052,-0.522798l0,1.705158l-1.426052,0.522812l0,4.005538c0.742132,-0.01072 1.307218,-0.32709 1.695259,-0.949094c0.392883,-0.622018 0.591758,-1.544304 0.596613,-2.766884l0,-0.603239l2.197277,0l-0.000001,0.000002z" fill="#000" id="svg_1"/>
 </g>
</svg>