<svg width="8" height="12" xmlns="http://www.w3.org/2000/svg">
 <g>
  <path id="svg_1" fill="#000" d="m8.003154,5.65995l0,0.57106c0,1.13679 -0.18674,2.13951 -0.56023,3.00818c-0.3735,0.86867 -0.90705,1.53894 -1.60068,2.01081c-0.68876,0.47187 -1.47697,0.70781 -2.36461,0.70781c-0.69847,0 -1.4115,-0.05363 -2.13908,-0.16087l0,-5.02703l-1.36056,0.49064l0,-1.71321l1.36056,-0.49065l0,-0.96518l-1.36056,0.49064l0,-1.71322l1.36056,-0.49063l0,-2.29233l2.17545,0l0,1.50409l1.42606,-0.52282l0,1.71322l-1.42606,0.52281l0,0.96518l1.42606,-0.52279l0,1.70515l-1.42606,0.52282l0,4.00553c0.74213,-0.01072 1.30722,-0.32709 1.69526,-0.94909c0.39289,-0.62202 0.59176,-1.5443 0.59661,-2.76688l0,-0.60324l2.19728,0l0,0z" stroke="null"/>
 </g>
</svg>