<?xml version="1.0" encoding="utf-8"?>
<!-- Generator: Adobe Illustrator 23.0.2, SVG Export Plug-In . SVG Version: 6.00 Build 0)  -->
<svg version="1.1" id="Layer_1" xmlns="http://www.w3.org/2000/svg" xmlns:xlink="http://www.w3.org/1999/xlink" x="0px" y="0px"
	 viewBox="0 0 400 400" style="enable-background:new 0 0 400 400;" xml:space="preserve">
<style type="text/css">
	.st0{fill:#EDC92F;}
</style>
<polygon class="st0" points="76.5,292.7 76.5,292.7 200,90.4 323.5,292.7 323.5,292.7 339.9,292.7 339.9,292.7 200,63.6 60.1,292.7 
	60.1,292.7 "/>
<polygon class="st0" points="115.9,292.7 200,155 284.1,292.7 300.5,292.7 200,128.1 99.5,292.7 "/>
<polygon class="st0" points="153.9,292.7 202.7,212.7 251.6,292.7 268,292.7 202.7,185.8 137.5,292.7 "/>
<g>
	<path class="st0" d="M200,16c49.1,0,95.4,19.1,130.1,53.9S384,150.9,384,200s-19.1,95.4-53.9,130.1S249.1,384,200,384
		s-95.4-19.1-130.1-53.9S16,249.1,16,200s19.1-95.4,53.9-130.1S150.9,16,200,16 M200,0C89.5,0,0,89.5,0,200s89.5,200,200,200
		s200-89.5,200-200S310.5,0,200,0L200,0z"/>
</g>
</svg>
