<svg id="Слой_1" data-name="Слой 1" xmlns="http://www.w3.org/2000/svg" viewBox="0 0 918 795"><defs><style>.cls-1{fill:#b52361;}.cls-2{fill:#fff;}</style></defs><title>ttc</title><rect y="3" width="918" height="792"/><polygon class="cls-1" points="643.25 3 918 423.76 918 0 643.25 3"/><polygon class="cls-2" points="540.35 221.39 540.35 292.31 472.23 292.31 472.23 363.24 580.48 363.24 580.48 296.98 652.34 297.91 652.34 506.95 580.48 506.95 581.41 437.9 472.23 436.03 472.23 600.28 397.57 600.28 397.57 436.03 271.58 435.1 271.58 362.31 395.7 362.31 396.63 291.38 329.44 290.45 328.51 221.39 540.35 221.39"/><path class="cls-2" d="M660.42,560.9c-74,75.05-134.56,93.71-212.53,96.21q-5.1.17-10.17.16c-74.48,0-142.35-26.45-192.06-75C196.35,534,169.2,467.34,169.2,394.5c0-38.1,6.84-74.07,20.32-106.93a245.8,245.8,0,0,1,57-84.21c49.19-47.45,118-73.58,193.81-73.58,38.15,0,74.23,6.38,107.25,19a250.87,250.87,0,0,1,85.78,54.11c24.41,23.61,6.67,6,27.09,31.11l-39.55,31.3c-16.49-22.07-58.83-56.39-88.24-69C505.2,184.57,473,175.51,440.3,175.51c-132.94,0-225.79,90.05-225.79,219,0,30.87,5.64,60.12,16.76,86.93a203.71,203.71,0,0,0,45.91,67.95c41.18,40.25,97.93,62.16,160.58,62.16q4.32,0,8.69-.14c66.31-2.13,120.16-25.65,173.4-82.44Z" transform="translate(0 3)"/></svg>