<?xml version="1.0" encoding="utf-8"?>
<!-- Generator: Adobe Illustrator 23.0.2, SVG Export Plug-In . SVG Version: 6.00 Build 0)  -->
<svg version="1.1" id="Layer_1" xmlns="http://www.w3.org/2000/svg" xmlns:xlink="http://www.w3.org/1999/xlink" x="0px" y="0px"
	 viewBox="0 0 64 64" style="enable-background:new 0 0 64 64;" xml:space="preserve">
<style type="text/css">
	.st0{fill:#29A17B;}
	.st1{fill:#E8EBEB;}
</style>
<g>
	<path class="st0" d="M64,32.1C64,49.7,49.7,64,31.9,64C14.4,64-0.4,49.5,0,31.3C0.4,14.1,14.7-0.3,32.6,0
		C49.9,0.3,64.1,14.5,64,32.1z M32,16.2C32,16.2,32,16.2,32,16.2c-4.7,0-9.4,0-14.1,0c-0.6,0-0.8,0.1-0.8,0.8c0.1,1.9,0.1,3.8,0,5.8
		c0,0.7,0.2,0.9,0.9,0.9c3,0,6.1,0,9.1,0c0.7,0,1,0.2,0.9,0.9c-0.1,0.8-0.1,1.7,0,2.5c0.1,1-0.3,1.2-1.2,1.2c-3,0.1-5.9,0.5-8.8,1.1
		c-1.7,0.4-3.3,0.8-4.7,1.8c-1,0.8-1.1,1.7-0.1,2.5c0.6,0.5,1.3,0.8,2,1c3.9,1.4,7.9,1.8,11.9,2c0.7,0,0.9,0.2,0.9,0.9
		c0,4.5,0,8.9,0,13.4c0,0.7,0.2,1,1,1c1.9-0.1,3.8,0,5.8,0c1.6,0,1.4,0.2,1.4-1.5c0-4.3,0-8.6,0-12.9c0-0.6,0-0.9,0.8-0.9
		c3.2-0.1,6.4-0.5,9.5-1.2c1.5-0.3,2.9-0.7,4.2-1.6c1.4-0.9,1.4-2,0-2.9c-1.3-0.9-2.8-1.3-4.3-1.6c-3-0.7-6.1-1-9.2-1.2
		c-0.7,0-1-0.2-1-1c0.1-0.9,0.1-1.8,0-2.7c-0.1-0.8,0.2-0.9,0.9-0.9c3,0,6.1,0,9.1,0c0.7,0,0.9-0.2,0.9-0.9c0-1.9-0.1-3.7,0-5.6
		c0-0.8-0.2-1-1-1C41.4,16.2,36.7,16.2,32,16.2z"/>
	<path class="st1" d="M32,16.2c4.7,0,9.4,0,14,0c0.8,0,1,0.2,1,1c-0.1,1.9,0,3.7,0,5.6c0,0.7-0.2,0.9-0.9,0.9c-3,0-6.1,0-9.1,0
		c-0.7,0-1,0.1-0.9,0.9c0.1,0.9,0.1,1.8,0,2.7c-0.1,0.8,0.3,1,1,1c3.1,0.2,6.2,0.5,9.2,1.2c1.5,0.4,3,0.7,4.3,1.6
		c1.4,0.9,1.4,2,0,2.9c-1.3,0.9-2.8,1.3-4.2,1.6c-3.1,0.7-6.3,1.1-9.5,1.2c-0.7,0-0.8,0.4-0.8,0.9c0,4.3,0,8.6,0,12.9
		c0,1.7,0.2,1.4-1.4,1.5c-1.9,0-3.8,0-5.8,0c-0.8,0-1-0.3-1-1c0-4.5,0-8.9,0-13.4c0-0.8-0.2-0.9-0.9-0.9c-4-0.3-8.1-0.6-11.9-2
		c-0.7-0.3-1.4-0.6-2-1c-1-0.8-0.9-1.8,0.1-2.5c1.4-1.1,3.1-1.4,4.7-1.8c2.9-0.7,5.8-1,8.8-1.1c0.9,0,1.3-0.2,1.2-1.2
		c-0.1-0.8-0.1-1.7,0-2.5c0.1-0.7-0.2-1-0.9-0.9c-3,0-6.1,0-9.1,0c-0.7,0-0.9-0.2-0.9-0.9c0.1-1.9,0.1-3.8,0-5.8
		c0-0.7,0.2-0.8,0.8-0.8C22.6,16.2,27.3,16.2,32,16.2C32,16.2,32,16.2,32,16.2z M30.4,35.5c2,0.1,4.1,0,6.1-0.1c3-0.1,6-0.5,9-1.1
		c1.1-0.2,2.2-0.6,3.1-1.1c1.1-0.6,1.1-1.3,0-2c-0.4-0.3-0.9-0.5-1.3-0.6c-3.5-1.1-7.1-1.4-10.7-1.7c-0.5,0-0.5,0.3-0.5,0.6
		c0,1.3,0,2.7,0,4c0,0.5-0.2,0.7-0.7,0.7c-2.2,0.1-4.4,0.1-6.6,0c-0.7,0-0.9-0.3-0.9-1c0-1.3,0-2.5,0-3.8c0-0.4,0-0.6-0.6-0.6
		c-2.3,0.2-4.6,0.3-6.9,0.7c-1.8,0.3-3.6,0.6-5.2,1.6c-1,0.6-1,1.2,0,1.9c0.6,0.4,1.3,0.7,2,0.9C21.6,35.1,26,35.3,30.4,35.5z"/>
	<path class="st0" d="M30.4,35.5c-4.4-0.2-8.8-0.4-13-1.6c-0.7-0.2-1.4-0.4-2-0.9c-1-0.6-1-1.3,0-1.9c1.6-0.9,3.4-1.2,5.2-1.6
		c2.3-0.4,4.6-0.6,6.9-0.7c0.5,0,0.6,0.2,0.6,0.6c0,1.3,0,2.5,0,3.8c0,0.6,0.1,0.9,0.9,1c2.2,0.1,4.4,0.1,6.6,0
		c0.5,0,0.7-0.2,0.7-0.7c0-1.3,0-2.7,0-4c0-0.4,0-0.7,0.5-0.6c3.6,0.3,7.2,0.5,10.7,1.7c0.5,0.2,0.9,0.4,1.3,0.6
		c1.1,0.7,1.1,1.3,0,2c-1,0.6-2,0.9-3.1,1.1c-3,0.7-6,1-9,1.1C34.4,35.5,32.4,35.5,30.4,35.5z"/>
</g>
</svg>
