<svg id="Слой_1" data-name="Слой 1" xmlns="http://www.w3.org/2000/svg" viewBox="0 0 234.62 246.96"><defs><style>.cls-1{fill:#6cb0fd;}.cls-2{fill:#2b2e7c;}</style></defs><title>tusd</title><path class="cls-1" d="M57.89,189.6s-36.06-42-30.14-81.6S61.43,49.84,61.43,49.84,93.9,16.2,141.59,22,215.7,51.62,215.7,51.62,180.88-1.41,125.11,0a200.78,200.78,0,0,0-20.24,1.53A125.57,125.57,0,0,0,18.7,53.36h0C-1.8,82.1-6,119.74,8.81,151.79a93,93,0,0,0,8,14.1S37.37,190.77,57.89,189.6Z"/><path class="cls-2" d="M176.73,57.36s36.07,42,30.14,81.6-33.68,58.16-33.68,58.16S140.73,230.77,93,225s-74.1-29.64-74.1-29.64,34.81,53,90.59,51.6a200.69,200.69,0,0,0,20.23-1.54,125.52,125.52,0,0,0,86.17-51.8h0c20.5-28.74,24.68-66.37,9.89-98.43a93.48,93.48,0,0,0-8-14.1S197.25,56.19,176.73,57.36Z"/><path class="cls-1" d="M94.48,182.2l5.41-83.28H58.79S56.63,73,91.24,73.5s73.55,0,73.55,0S167,97.3,141.53,97.84l-17.3.54-.54,60S118.28,182.2,94.48,182.2Z"/></svg>