<svg width="7" height="10" viewBox="0 0 7 10" fill="none" xmlns="http://www.w3.org/2000/svg">
<path d="M0.621094 6.68555C0.621094 6.45898 0.650391 6.24219 0.708984 6.03516H0.117188V5.15039H1.16602C1.43945 4.82617 1.83398 4.53711 2.34961 4.2832H0.117188V3.39844H4.13086C4.33789 3.19922 4.44141 2.94727 4.44141 2.64258C4.44141 2.38086 4.34766 2.17969 4.16016 2.03906C3.97266 1.89453 3.70117 1.82227 3.3457 1.82227C3.05273 1.82227 2.75195 1.85938 2.44336 1.93359C2.13867 2.00781 1.75586 2.13867 1.29492 2.32617L0.755859 0.914062C1.64258 0.511719 2.55469 0.310547 3.49219 0.310547C4.34375 0.310547 5.00977 0.517578 5.49023 0.931641C5.97461 1.3418 6.2168 1.92383 6.2168 2.67773C6.2168 2.93555 6.18359 3.17578 6.11719 3.39844H6.73242V4.2832H5.61328C5.43359 4.48242 5.22461 4.64844 4.98633 4.78125C4.75195 4.91406 4.50586 5.03711 4.24805 5.15039H6.73242V6.03516H2.63086C2.47852 6.21094 2.40234 6.42773 2.40234 6.68555C2.40234 6.97852 2.50586 7.20703 2.71289 7.37109C2.91992 7.53516 3.23242 7.61719 3.65039 7.61719C4.43555 7.61719 5.27539 7.43359 6.16992 7.06641V8.57812C5.43555 8.9375 4.55859 9.11719 3.53906 9.11719C2.60156 9.11719 1.88086 8.91211 1.37695 8.50195C0.873047 8.08789 0.621094 7.48242 0.621094 6.68555Z" fill="#fff"/>
</svg>
