<svg width="19" height="12" xmlns="http://www.w3.org/2000/svg">
 <g>
  <title>background</title>
  <rect x="-1" y="-1" width="21" height="14" id="canvas_background" fill="none"/>
 </g>

 <g>
  <title>Layer 1</title>
  <path stroke="null" d="m0.701248,8.689342c0,-0.307612 0.036637,-0.601947 0.109908,-0.88303l-0.740051,0l0,-1.201246l1.311582,0c0.341929,-0.44019 0.835295,-0.832645 1.480099,-1.177377l-2.79168,0l0,-1.201231l5.019163,0c0.258895,-0.270479 0.388348,-0.61255 0.388348,-1.026225c0,-0.355335 -0.117236,-0.628462 -0.351708,-0.819395c-0.234471,-0.196227 -0.573975,-0.294334 -1.018496,-0.294334c-0.366364,0 -0.742495,0.050383 -1.128391,0.151138c-0.38102,0.100768 -0.85973,0.278435 -1.436143,0.533003l-0.674105,-1.917208c1.10886,-0.546258 2.249468,-0.819388 3.421827,-0.819388c1.06489,0 1.897759,0.281084 2.498582,0.843255c0.605726,0.556869 0.908588,1.347087 0.908588,2.370651c0,0.350041 -0.04153,0.676199 -0.124564,0.978502l0.769355,0l0,1.201231l-1.399503,0c-0.224706,0.270479 -0.486038,0.495883 -0.784011,0.676199c-0.293097,0.180315 -0.600835,0.347379 -0.923231,0.501179l3.106746,0l0,1.201246l-5.129069,0c-0.190504,0.238656 -0.285768,0.532989 -0.285768,0.88303c0,0.397763 0.129453,0.70801 0.388348,0.930752c0.258895,0.222757 0.649681,0.334128 1.172359,0.334128c0.981855,0 2.032089,-0.249273 3.150714,-0.747789l0,2.052437c-0.918342,0.487927 -2.014994,0.731892 -3.289935,0.731892c-1.172359,0 -2.073607,-0.278435 -2.703754,-0.835307c-0.63014,-0.562166 -0.945211,-1.384208 -0.945211,-2.466112l0.000001,-0.000001z" fill="#fff" id="svg_1"/>
 </g>
</svg>