<svg width="9" height="12" xmlns="http://www.w3.org/2000/svg">
 <g>
  <path stroke="null" id="svg_1" fill="#000" d="m0.743231,8.708212c0,-0.306062 0.039078,-0.598912 0.11723,-0.878578l-0.789355,0l0,-1.19519l1.398964,0c0.36471,-0.437971 0.890945,-0.828448 1.57871,-1.171442l-2.977674,0l0,-1.195176l5.353561,0c0.276144,-0.269116 0.414221,-0.609463 0.414221,-1.021052c0,-0.353544 -0.125047,-0.625294 -0.37514,-0.815264c-0.250093,-0.195238 -0.612215,-0.292851 -1.086352,-0.292851c-0.390772,0 -0.791963,0.050129 -1.20357,0.150376c-0.406405,0.10026 -0.917008,0.277032 -1.531825,0.530317l-0.719017,-1.907544c1.182736,-0.543505 2.399337,-0.815257 3.649804,-0.815257c1.135838,0 2.024195,0.279667 2.665048,0.839004c0.646081,0.554062 0.969122,1.340297 0.969122,2.358701c0,0.348276 -0.044296,0.67279 -0.132862,0.97357l0.820612,0l0,1.195176l-1.492744,0c-0.239676,0.269116 -0.51842,0.493384 -0.836246,0.67279c-0.312623,0.179406 -0.640866,0.345628 -0.984741,0.498652l3.31373,0l0,1.19519l-5.470788,0c-0.203196,0.237453 -0.304807,0.530302 -0.304807,0.878578c0,0.395758 0.138078,0.704441 0.414221,0.92606c0.276144,0.221634 0.692965,0.332444 1.250466,0.332444c1.047271,0 2.167475,-0.248016 3.360628,-0.74402l0,2.042091c-0.979526,0.485468 -2.149242,0.728202 -3.509124,0.728202c-1.250466,0 -2.211759,-0.277032 -2.883889,-0.831096c-0.672122,-0.559332 -1.008185,-1.377231 -1.008185,-2.45368l0.000001,-0.000001l0.000001,0z"/>
 </g>
</svg>