<svg width="19" height="12" xmlns="http://www.w3.org/2000/svg">
 <g>
  <title>background</title>
  <rect x="-1" y="-1" width="21" height="14" id="canvas_background" fill="none"/>
 </g>

 <g>
  <title>Layer 1</title>
  <path stroke="null" d="m0.717626,8.645712c0,-0.306062 0.037589,-0.598912 0.112764,-0.878578l-0.759285,0l0,-1.19519l1.345671,0c0.350816,-0.437971 0.857005,-0.828448 1.518569,-1.171442l-2.86424,0l0,-1.195176l5.149618,0c0.265624,-0.269116 0.398441,-0.609463 0.398441,-1.021052c0,-0.353544 -0.120283,-0.625294 -0.360849,-0.815264c-0.240566,-0.195238 -0.588893,-0.292851 -1.044968,-0.292851c-0.375886,0 -0.761793,0.050129 -1.15772,0.150376c-0.390923,0.10026 -0.882075,0.277032 -1.47347,0.530317l-0.691626,-1.907544c1.13768,-0.543505 2.307935,-0.815257 3.510765,-0.815257c1.092568,0 1.947084,0.279667 2.563523,0.839004c0.621469,0.554062 0.932203,1.340297 0.932203,2.358701c0,0.348276 -0.042609,0.67279 -0.127801,0.97357l0.789351,0l0,1.195176l-1.435878,0c-0.230546,0.269116 -0.498671,0.493384 -0.804389,0.67279c-0.300714,0.179406 -0.616452,0.345628 -0.947227,0.498652l3.187494,0l0,1.19519l-5.262379,0c-0.195455,0.237453 -0.293195,0.530302 -0.293195,0.878578c0,0.395758 0.132818,0.704441 0.398441,0.92606c0.265624,0.221634 0.666567,0.332444 1.20283,0.332444c1.007375,0 2.084905,-0.248016 3.232605,-0.74402l0,2.042091c-0.942211,0.485468 -2.067367,0.728202 -3.375444,0.728202c-1.20283,0 -2.127502,-0.277032 -2.774028,-0.831096c-0.646518,-0.559332 -0.969778,-1.377231 -0.969778,-2.45368l0.000001,-0.000001z" fill="#000" id="svg_1"/>
 </g>
</svg>