<svg id="Слой_1" data-name="Слой 1" xmlns="http://www.w3.org/2000/svg" viewBox="0 0 120.34 120.34"><defs><style>.cls-1{fill:#201600;}.cls-2{fill:#cd9148;}.cls-3{fill:#fff;}</style></defs><title>ucash.sg</title><path class="cls-1" d="M60.17,120.34a60.17,60.17,0,1,1,60.17-60.17,60.17,60.17,0,0,1-60.17,60.17Z"/><path class="cls-1" d="M62.81,59.34a6.66,6.66,0,0,1,2.3,4.77c0,3-2.53,6-4.94,8.42-2.4-2.46-4.92-5.45-4.93-8.42a6.66,6.66,0,0,1,2.3-4.77l2.64-2.63,2.63,2.63Zm42.94-6.88L78.21,80a6.71,6.71,0,0,1-4.75,2.31,6.19,6.19,0,0,1-2.06-.38C82.65,69.27,84,58.52,75.49,50L71.2,45.68,85.09,31.8l-11-11L60.17,34.66,46.29,20.77l-11,11L49.15,45.68,44.86,50c-8.55,8.55-7.16,19.3,4.09,32a6.19,6.19,0,0,1-2.06.38A6.71,6.71,0,0,1,42.14,80L14.6,52.46l-11,11,29.2,29.2c3.68,3.68,7.83,5.54,12.33,5.54,4.67,0,9.65-2,15.08-5.91,5.42,4,10.41,5.91,15.07,5.91,4.5,0,8.65-1.86,12.33-5.54l29.2-29.2-11-11Z"/><path class="cls-2" d="M50,83.1c-2.78,1.16-5.81,1-8.89-2.07L14.6,54.52l-9,9L33.8,91.66C41.32,99.18,50,97.82,59,91.4a71,71,0,0,1-6.78-6c-.76-.77-1.48-1.52-2.18-2.27Z"/><path class="cls-2" d="M70,81.32C79.79,70.49,83.41,60,74.46,51L46.29,22.83l-9,9L63.83,58.31C69.5,64,65.23,69.46,61.2,73.56c.16.15,6.41,6.47,8.81,7.76Z"/><path class="cls-3" d="M105.56,54.33,79.05,80.84c-6.88,6.88-13.47-.87-17.66-5.06S49.45,65,56.32,58.12L59,55.49l-9-9L45.7,50.81C35.92,60.59,41.15,72.28,53,84.15s23.56,17.1,33.34,7.32S114.53,63.3,114.53,63.3l-9-9Z"/><path class="cls-3" d="M83,31.8l-9-9L61.2,35.69l9,9L83,31.8Z"/></svg>