<svg id="Слой_1" data-name="Слой 1" xmlns="http://www.w3.org/2000/svg" viewBox="0 0 101.35 102.99"><defs><style>.cls-1{fill:#ad1164;}.cls-2{fill:#d9de20;}</style></defs><title>umt</title><path class="cls-1" d="M99.63,45.24c-.81,3.42-21.36,54.59-53.12,57.61C13.92,106,0,58,0,45.94,0,15.24,26.31,0,59,0S106.7,15.37,99.63,45.24Z"/><path class="cls-2" d="M68.32,54.08c-5.87-4,0-9.83,0-9.83V42.17c-5.68-3.4-4-9.64-4-9.64-9.64,1.32-10.2-9.27-10.2-9.27H24.77a4.11,4.11,0,0,0-4.1,4.1V75.88a4.1,4.1,0,0,0,4.1,4.1H56A15.05,15.05,0,0,0,71.15,68.64S74.18,58.05,68.32,54.08Zm-22.79-18c4.13,0,7.47,2.33,7.47,5.2s-3.34,5.2-7.47,5.2-7.46-2.33-7.46-5.2S41.41,36.12,45.53,36.12Zm.77,30.09c-4.12,0-7.47-2.32-7.47-5.2s3.35-5.2,7.47-5.2,7.47,2.33,7.47,5.2S50.43,66.21,46.3,66.21Z"/><circle class="cls-2" cx="64.19" cy="23.54" r="6.9"/><circle class="cls-2" cx="71.55" cy="36.13" r="4.28"/><circle class="cls-2" cx="76.45" cy="18.17" r="3.02"/><circle class="cls-2" cx="84.13" cy="20.51" r="3.02"/></svg>