<svg id="Слой_1" data-name="Слой 1" xmlns="http://www.w3.org/2000/svg" viewBox="0 0 186.78 170.36"><defs><style>.cls-1{fill:#87827f;}.cls-2{fill:#fff;}</style></defs><title>unc</title><path class="cls-1" d="M13.9,58.82s13.26.9,18.08-6.93,3-14.47,3-14.47S27.16,22.34,40.73,12.1,64.84,2.15,64.84,2.15s6-3,15.38,7.23a19,19,0,0,0,21.1,5.13S111.26-.87,122.12,0,142,7,142,7s11.46,7.84,13,17.49c0,0,1.81,1.2-3.92,14.46s11.76,19.93,11.76,19.93,16-1.84,20.8,11.12,2.71,21.4,2.71,21.4a24.4,24.4,0,0,1-10.85,18.39s-15.67.3-19.59,5.73-7.54,10.85-3,22.61-6.33,22.61-6.33,22.61-10.25,9.34-22.61,9.64-16.58-8.14-16.58-8.14S95,147.14,82.63,157.69s-8.44,10.85-17.49,10.85-21.7,1.21-32.25-17.78c0,0-4.22-6.93,1.2-17.18s-7.83-20.8-7.83-20.8-2.72-2.72-15.07-4.22S0,77.81,0,77.81,3.14,60.29,13.9,58.82Z"/><path class="cls-2" d="M93.39,31.09,45.85,57.91v54.87l47.78,28.33,2.89-1.5,44.89-26.83V57.91Zm29,69.63a17.09,17.09,0,0,1-14.17,14.77c-13.26,2.71-27.73.6-27.73.6s-14.17-3-15.38-16.58-1.5-39.79-1.5-39.79H79.31l1.21,38.89s.42,8.74,12.87,8.14,14-6.33,14-6.33V59.72h15.08Z"/></svg>