<svg id="Слой_1" data-name="Слой 1" xmlns="http://www.w3.org/2000/svg" viewBox="0 0 200 200"><defs><style>.cls-1{fill:#cf3339;}.cls-2{fill:#e85c50;}</style></defs><title>uqc</title><path class="cls-1" d="M0,0V157.54A42.46,42.46,0,0,0,42.46,200h114.6A42.93,42.93,0,0,0,200,157.06V0H133V129H67L66.07,9,66,0Z"/><polygon class="cls-2" points="67.98 130.97 85 165 118 165 132.58 130.01 67.98 130.97"/><polygon class="cls-2" points="133 0 66 0 34 68 34 188 34 199.15 66 200 66.97 130.99 66 131 66 1 133 1 133 129 136 200 166 199.06 166 70 133 0"/></svg>