<svg width="7" height="12" viewBox="0 0 7 12" fill="none" xmlns="http://www.w3.org/2000/svg">
<path d="M4.62891 7.75586C4.62891 7.43555 4.53906 7.18164 4.35938 6.99414C4.18359 6.80273 3.88281 6.62695 3.45703 6.4668C3.03125 6.30664 2.66406 6.14844 2.35547 5.99219C2.04688 5.83203 1.78125 5.65039 1.55859 5.44727C1.33984 5.24023 1.16797 4.99805 1.04297 4.7207C0.921875 4.44336 0.861328 4.11328 0.861328 3.73047C0.861328 3.07031 1.07227 2.5293 1.49414 2.10742C1.91602 1.68555 2.47656 1.43945 3.17578 1.36914V0.115234H4.11328V1.38672C4.80469 1.48438 5.3457 1.77344 5.73633 2.25391C6.12695 2.73047 6.32227 3.34961 6.32227 4.11133H4.62891C4.62891 3.64258 4.53125 3.29297 4.33594 3.0625C4.14453 2.82812 3.88672 2.71094 3.5625 2.71094C3.24219 2.71094 2.99414 2.80273 2.81836 2.98633C2.64258 3.16602 2.55469 3.41602 2.55469 3.73633C2.55469 4.0332 2.64062 4.27148 2.8125 4.45117C2.98438 4.63086 3.30273 4.81445 3.76758 5.00195C4.23633 5.18945 4.62109 5.36719 4.92188 5.53516C5.22266 5.69922 5.47656 5.88672 5.68359 6.09766C5.89062 6.30469 6.04883 6.54297 6.1582 6.8125C6.26758 7.07812 6.32227 7.38867 6.32227 7.74414C6.32227 8.4082 6.11523 8.94727 5.70117 9.36133C5.28711 9.77539 4.7168 10.0195 3.99023 10.0938V11.2598H3.05859V10.0996C2.25781 10.0137 1.63672 9.73047 1.19531 9.25C0.757812 8.76562 0.539062 8.12305 0.539062 7.32227H2.23242C2.23242 7.78711 2.3418 8.14453 2.56055 8.39453C2.7832 8.64062 3.10156 8.76367 3.51562 8.76367C3.85938 8.76367 4.13086 8.67383 4.33008 8.49414C4.5293 8.31055 4.62891 8.06445 4.62891 7.75586Z" fill="#fff"/>
</svg>
