<svg width="19" height="12" xmlns="http://www.w3.org/2000/svg">
 <g>
  <title>background</title>
  <rect x="-1" y="-1" width="21" height="14" id="canvas_background" fill="none"/>
 </g>

 <g>
  <title>Layer 1</title>
  <path d="m4.518661,8.213496c0,-0.343001 -0.098027,-0.614897 -0.294059,-0.81568c-0.191788,-0.204969 -0.519941,-0.393201 -0.984471,-0.564696c-0.464529,-0.171506 -0.865136,-0.340912 -1.20181,-0.508231c-0.336674,-0.171506 -0.626478,-0.366013 -0.869402,-0.583522c-0.238658,-0.221707 -0.426169,-0.481042 -0.562545,-0.77804c-0.132116,-0.296987 -0.198173,-0.650449 -0.198173,-1.060377c0,-0.706925 0.230139,-1.28626 0.690403,-1.738026c0.460274,-0.451755 1.071828,-0.715289 1.834682,-0.790579l0,-1.342732l1.02282,0l0,1.361557c0.754334,0.104578 1.34458,0.414115 1.77076,0.928621c0.426169,0.510319 0.639265,1.173319 0.639265,1.988998l-1.847469,0c0,-0.501956 -0.106548,-0.876332 -0.319632,-1.123128c-0.20883,-0.250983 -0.490102,-0.376464 -0.843829,-0.376464c-0.349461,0 -0.620085,0.098292 -0.811862,0.294898c-0.191777,0.192419 -0.287666,0.460129 -0.287666,0.803129c0,0.3179 0.09375,0.57306 0.281273,0.765479c0.187522,0.192419 0.534845,0.389015 1.042,0.589797c0.51141,0.200782 0.931186,0.391113 1.25935,0.570982c0.328153,0.175682 0.60516,0.376464 0.831031,0.602347c0.225871,0.221696 0.39848,0.476855 0.517803,0.765479c0.119334,0.284436 0.179002,0.616985 0.179002,0.997637c0,0.711102 -0.225882,1.288359 -0.677625,1.731751c-0.451743,0.443392 -1.073955,0.704794 -1.866649,0.784358l0,1.248599l-1.016426,0l0,-1.242388c-0.873657,-0.091985 -1.551271,-0.395279 -2.032853,-0.909785c-0.477314,-0.518693 -0.715972,-1.206782 -0.715972,-2.064289l1.847466,0c0,0.497769 0.119334,0.880508 0.357992,1.148218c0.242913,0.263523 0.590246,0.39529 1.041989,0.39529c0.375045,0 0.671232,-0.096204 0.888582,-0.288623c0.217351,-0.196595 0.326026,-0.460129 0.326026,-0.790579l-0.000001,-0.000001z" fill="#000000" id="svg_1" stroke="null"/>
 </g>
</svg>