<svg width="12" height="12" viewBox="0 0 12 12" fill="none" xmlns="http://www.w3.org/2000/svg">
<rect width="12" height="12" fill="#191A39"/>
<path d="M7.61044 5.4511C7.15604 5.19087 6.67294 4.99259 6.19463 4.78689C5.9172 4.66792 5.65174 4.52913 5.41736 4.33582C4.95579 3.95415 5.04428 3.33455 5.58477 3.08918C5.73784 3.01979 5.89807 2.99748 6.0607 2.98757C6.68729 2.95287 7.2828 3.07184 7.8496 3.35437C8.13181 3.49564 8.22508 3.45103 8.32074 3.14619C8.42119 2.824 8.5049 2.49685 8.59817 2.17218C8.66035 1.95408 8.58382 1.81033 8.38532 1.71863C8.0218 1.55258 7.64871 1.43362 7.25649 1.36918C6.74469 1.28739 6.74469 1.28491 6.7423 0.752056C6.73991 0.00110152 6.73991 0.00110151 6.01287 0.00110151C5.90764 0.00110151 5.80241 -0.00137689 5.69718 0.00110151C5.35757 0.0110151 5.30018 0.072975 5.29061 0.427386C5.28583 0.586003 5.29061 0.744621 5.28822 0.905717C5.28583 1.37661 5.28343 1.36918 4.84817 1.53275C3.79587 1.92929 3.14536 2.67281 3.076 3.86244C3.01382 4.91576 3.54475 5.62706 4.37942 6.14505C4.89361 6.46476 5.4628 6.65312 6.00808 6.90344C6.22093 7.0001 6.42422 7.11162 6.6012 7.26529C7.12495 7.71387 7.02929 8.45987 6.40748 8.74241C6.07505 8.89359 5.72349 8.93077 5.36236 8.88368C4.80512 8.8118 4.2718 8.66062 3.76956 8.39048C3.4754 8.23186 3.3893 8.27399 3.28886 8.60362C3.20276 8.88864 3.12623 9.17613 3.0497 9.46362C2.94686 9.85025 2.98512 9.94195 3.34147 10.1229C3.79587 10.3509 4.28136 10.4674 4.77642 10.5492C5.16386 10.6136 5.17581 10.6309 5.1806 11.0473C5.18299 11.2357 5.18299 11.4265 5.18538 11.6149C5.18777 11.8528 5.29778 11.9916 5.53455 11.9965C5.80241 12.0015 6.07266 12.0015 6.34051 11.9941C6.56054 11.9891 6.67294 11.8652 6.67294 11.6347C6.67294 11.3769 6.6849 11.1167 6.67533 10.859C6.66338 10.5963 6.77339 10.4624 7.01733 10.393C7.57935 10.2344 8.05767 9.92213 8.42597 9.45619C9.44957 8.16742 9.05974 6.28136 7.61044 5.4511Z" fill="white"/>
</svg>
