<svg xmlns="http://www.w3.org/2000/svg" width="200" height="200" viewBox="0 0 200 200">
  <g id="组_10902" data-name="组 10902" transform="translate(990.441 -2725)">
    <circle id="椭圆_627" data-name="椭圆 627" cx="100" cy="100" r="100" transform="translate(-990.441 2725)" fill="#decca8"/>
    <g id="组_10900" data-name="组 10900">
      <path id="路径_6672" data-name="路径 6672" d="M-978.111,2822.938l.9,4.692,4.373,1.921-4.185,2.3-.475,4.753-3.483-3.268-4.667,1.017,2.032-4.323-2.409-4.125,4.739.6Z" fill="#fff"/>
      <path id="路径_6673" data-name="路径 6673" d="M-804.542,2822.075l.068,4.776-3.9,2.764,4.563,1.411,1.425,4.559,2.752-3.9,4.776.054-2.862-3.824,1.527-4.526-4.521,1.541Z" fill="#fff"/>
    </g>
    <path id="路径_6674" data-name="路径 6674" d="M-866.658,2787.412s-4.559-7.928-10.306-7.928H-906.3s-4.955,0-8.72,5.351-43.6,64.016-43.6,64.016h136.354ZM-917,2828.635l23.584-36.863,26.359,36.863Z" fill="#fff"/>
    <g id="组_10901" data-name="组 10901">
      <path id="路径_6675" data-name="路径 6675" d="M-914.342,2913.155a3.78,3.78,0,0,1-1.113,2.089,2.257,2.257,0,0,1-1.957.25,2.216,2.216,0,0,1-1.614-1.129,3.654,3.654,0,0,1-.014-2.37l1.9-7.679-1.914-.472-1.887,7.646a5.616,5.616,0,0,0,.213,4,4.062,4.062,0,0,0,2.821,2.025,5.382,5.382,0,0,0,1.283.166,3.76,3.76,0,0,0,2.176-.657,5.671,5.671,0,0,0,2.031-3.426l1.888-7.646-1.913-.472Z" fill="#fff"/>
      <path id="路径_6676" data-name="路径 6676" d="M-895.827,2909.011a4.135,4.135,0,0,0-2.923.468,3.319,3.319,0,0,0-1.626,2.483,3.072,3.072,0,0,0,.787,2.8,14.579,14.579,0,0,0,2.169,1.437,15.3,15.3,0,0,1,1.8,1.117,1.624,1.624,0,0,1,.637,1.568,1.32,1.32,0,0,1-.766,1,3,3,0,0,1-1.732.145,2.635,2.635,0,0,1-1.65-.783,3.05,3.05,0,0,1-.453-2.03l.005-.133-1.919-.319-.019.156a4.775,4.775,0,0,0,.847,3.766,4.581,4.581,0,0,0,2.845,1.411,6.655,6.655,0,0,0,1.078.093,4.017,4.017,0,0,0,2.17-.567,3.551,3.551,0,0,0,1.557-2.54,3.294,3.294,0,0,0-.913-3,14.729,14.729,0,0,0-2.461-1.662,11.2,11.2,0,0,1-1.569-1.026,1.3,1.3,0,0,1-.449-1.236,1.245,1.245,0,0,1,.745-1.058,2.523,2.523,0,0,1,1.419-.074,2.236,2.236,0,0,1,1.486.72,2.768,2.768,0,0,1,.471,1.673l0,.125,1.916.317.014-.161a4.482,4.482,0,0,0-.748-3.284A4.2,4.2,0,0,0-895.827,2909.011Z" fill="#fff"/>
      <path id="路径_6677" data-name="路径 6677" d="M-872.489,2909.22a4.6,4.6,0,0,0-4.12-1.013l-3.814.692,2.279,12.546,3.814-.693a4.6,4.6,0,0,0,3.5-2.4,7.522,7.522,0,0,0,.409-4.791A7.46,7.46,0,0,0-872.489,2909.22Zm-4.082,9.862-1.548-8.523,1.566-.286a3.233,3.233,0,0,1,2.8.516,5.313,5.313,0,0,1,1.4,3.123,5.4,5.4,0,0,1-.219,3.4A3.268,3.268,0,0,1-875,2918.8Z" fill="#fff"/>
      <path id="路径_6678" data-name="路径 6678" d="M-857.3,2900.284l1.589,13.062.025.2,1.913-.864-.439-3.227,3.686-1.666,2.131,2.462,1.913-.864-8.888-9.976Zm5.425,5.95-2.613,1.181-.7-5.033Z" fill="#fff"/>
      <path id="路径_6679" data-name="路径 6679" d="M-962.643,2775l-6.181-3.745-.948,1.565,6.208,3.761a3.457,3.457,0,0,1,1.517,1.537,2.05,2.05,0,0,1-.315,1.769,2.019,2.019,0,0,1-1.419,1.1,3.332,3.332,0,0,1-2.068-.632l-6.208-3.762-.948,1.565,6.181,3.745a5.7,5.7,0,0,0,2.928.961,3.719,3.719,0,0,0,.634-.054,3.733,3.733,0,0,0,2.551-1.919,3.793,3.793,0,0,0,.515-3.17A5.2,5.2,0,0,0-962.643,2775Z" fill="#fff"/>
      <path id="路径_6680" data-name="路径 6680" d="M-954.6,2765.821a3,3,0,0,0-2.822-.38,13.384,13.384,0,0,0-2.295,1.4,10.266,10.266,0,0,1-1.429.9,1.165,1.165,0,0,1-1.172-.095,1.109,1.109,0,0,1-.583-1,2.257,2.257,0,0,1,.47-1.186,2,2,0,0,1,1.143-.944,2.477,2.477,0,0,1,1.542.241l.114.05,1-1.478-.14-.08a4.055,4.055,0,0,0-2.992-.622,3.8,3.8,0,0,0-2.191,1.711,3.742,3.742,0,0,0-.716,2.588,3.015,3.015,0,0,0,1.434,2.28,2.79,2.79,0,0,0,2.611.408,13.029,13.029,0,0,0,2-1.243,16.437,16.437,0,0,1,1.591-1.058,1.455,1.455,0,0,1,1.514.065,1.176,1.176,0,0,1,.53,1,2.648,2.648,0,0,1-.53,1.47,2.358,2.358,0,0,1-1.255,1.055,2.745,2.745,0,0,1-1.829-.39l-.119-.061-1,1.481.134.082a4.988,4.988,0,0,0,2.569.838,3.217,3.217,0,0,0,.856-.115,4.149,4.149,0,0,0,2.238-1.814,4.167,4.167,0,0,0,.835-2.859A3.218,3.218,0,0,0-954.6,2765.821Z" fill="#fff"/>
      <path id="路径_6681" data-name="路径 6681" d="M-881.182,2737.462l0,0a10.17,10.17,0,0,0-1.911-.883,7.719,7.719,0,0,1-1.12-.492.6.6,0,0,1-.3-.537c0-.349.125-.472.252-.549a1.464,1.464,0,0,1,.787-.158,1.287,1.287,0,0,1,.887.247,1.605,1.605,0,0,1,.409.909l.061.326,1.9.006-.031-.43a3.353,3.353,0,0,0-.967-2.337,3.159,3.159,0,0,0-2.2-.729,3.175,3.175,0,0,0-2.112.707,2.565,2.565,0,0,0-.933,2.09,2.391,2.391,0,0,0,.968,2.048,9.977,9.977,0,0,0,1.693.768,11.612,11.612,0,0,1,1.289.53.824.824,0,0,1,.462.736.6.6,0,0,1-.277.517,1.842,1.842,0,0,1-.986.238,1.52,1.52,0,0,1-1-.27,1.825,1.825,0,0,1-.437-1.136l-.041-.353-1.908,0,.018.418a3.554,3.554,0,0,0,1.094,2.666,3.437,3.437,0,0,0,2.285.709,3.421,3.421,0,0,0,2.33-.757,2.71,2.71,0,0,0,.87-2.11A2.55,2.55,0,0,0-881.182,2737.462Z" fill="#fff"/>
      <path id="路径_6682" data-name="路径 6682" d="M-946.057,2755.907a6.808,6.808,0,0,0-3.7-2.349,4.19,4.19,0,0,0-3.672,1.213l-2.612,2.382,7.726,8.467.1.11,2.611-2.383a4.193,4.193,0,0,0,1.543-3.545A6.855,6.855,0,0,0-946.057,2755.907Zm-2.081,7.206-5.286-5.793,1.058-.966a2.924,2.924,0,0,1,2.4-.953,4.808,4.808,0,0,1,2.579,1.723,4.884,4.884,0,0,1,1.468,2.712,2.952,2.952,0,0,1-1.157,2.312Z" fill="#fff"/>
      <path id="路径_6683" data-name="路径 6683" d="M-932.113,2745.371l-.82-1.59-1.877.97-.313-.606a.658.658,0,0,1-.105-.494.582.582,0,0,1,.321-.332l1.47-.758-.843-1.632-1.7.876a2.351,2.351,0,0,0-1.3,1.406,2.4,2.4,0,0,0,.247,1.864l.335.65-1.636.844.82,1.589,1.636-.844,3.112,6.03,1.888-.975-3.112-6.029Z" fill="#fff"/>
      <path id="路径_6684" data-name="路径 6684" d="M-920.153,2746.646a4.574,4.574,0,0,0-.147-3.406,4.613,4.613,0,0,0-2.32-2.548h0a4.082,4.082,0,0,0-3.386.009,4.031,4.031,0,0,0-2.412,2.375,4.5,4.5,0,0,0,.144,3.444,4.509,4.509,0,0,0,2.293,2.524,3.874,3.874,0,0,0,1.652.37,4.612,4.612,0,0,0,1.755-.369A4.1,4.1,0,0,0-920.153,2746.646Zm-1.9-.648a1.9,1.9,0,0,1-1.2,1.393,1.87,1.87,0,0,1-1.83-.147,3.262,3.262,0,0,1-1.181-1.55,3.312,3.312,0,0,1-.259-1.948,1.828,1.828,0,0,1,1.2-1.392,2.139,2.139,0,0,1,.814-.174,1.821,1.821,0,0,1,1.016.321,3.3,3.3,0,0,1,1.2,1.56A3.328,3.328,0,0,1-922.057,2746Z" fill="#fff"/>
      <path id="路径_6685" data-name="路径 6685" d="M-913.115,2745.035l-1.358-4.328a2.087,2.087,0,0,1,.108-1.7,1.625,1.625,0,0,1,.982-.849,3.718,3.718,0,0,1,1.139-.179h.2l-.636-2.024-.091-.015a2.518,2.518,0,0,0-1.124.117,2.117,2.117,0,0,0-1.194.876,2.512,2.512,0,0,0-.353.7l-.244-.775-2.012.63,2.567,8.185Z" fill="#fff"/>
      <path id="路径_6686" data-name="路径 6686" d="M-894.557,2730.339l-2.229.083-.1,0-4.044,11.885,2.322-.086.933-2.9,4.571-.17,1.146,2.824,2.321-.086-4.875-11.455Zm.713,7-3.235.12,1.457-4.562Z" fill="#fff"/>
      <rect id="矩形_5979" data-name="矩形 5979" width="8.573" height="2.124" transform="translate(-876.256 2742.818) rotate(-85.886)" fill="#fff"/>
      <path id="路径_6687" data-name="路径 6687" d="M-874.534,2733.684c.043,0,.085,0,.126,0a1.354,1.354,0,0,0,.881-.308,1.317,1.317,0,0,0,.486-.958,1.323,1.323,0,0,0-.326-1l0,0a1.41,1.41,0,0,0-.969-.448,1.4,1.4,0,0,0-1.007.3,1.275,1.275,0,0,0-.468.943,1.328,1.328,0,0,0,.327,1.015A1.368,1.368,0,0,0-874.534,2733.684Z" fill="#fff"/>
      <path id="路径_6688" data-name="路径 6688" d="M-843.54,2741.871l-2.654-1.372-5.578,10.317,1.912,1.034,2.09-3.867.709.333a4.883,4.883,0,0,0,3.28.726,3.437,3.437,0,0,0,2.281-1.911,3.4,3.4,0,0,0,.343-2.935A4.883,4.883,0,0,0-843.54,2741.871Zm-2.725,4.717-.6-.278,1.684-3.116.61.281a2.8,2.8,0,0,1,1.313,1.185,1.575,1.575,0,0,1-.167,1.43,1.659,1.659,0,0,1-1.106.959A2.985,2.985,0,0,1-846.265,2746.588Z" fill="#fff"/>
      <path id="路径_6689" data-name="路径 6689" d="M-824.923,2766.473a1.691,1.691,0,0,1-2.522.062,1.686,1.686,0,0,1-.671-1.475,3.36,3.36,0,0,1,.924-1.913,3.23,3.23,0,0,1,1.713-1.178,1.708,1.708,0,0,1,1.566.418,1.993,1.993,0,0,1,.716,1.066,1.816,1.816,0,0,1-.239,1.216l-.057.107,1.607,1.361.091-.15a3.629,3.629,0,0,0,.578-2.676v0a4.319,4.319,0,0,0-1.538-2.287,3.882,3.882,0,0,0-3.269-1,4.693,4.693,0,0,0-2.837,1.735,4.779,4.779,0,0,0-1.271,3.142,3.844,3.844,0,0,0,1.52,2.992,4.084,4.084,0,0,0,2.58,1.09H-826a4.164,4.164,0,0,0,2.657-1.114l.137-.115-1.62-1.369Z" fill="#fff"/>
      <path id="路径_6690" data-name="路径 6690" d="M-814.218,2769.029a1.443,1.443,0,0,0,.158.009,1.324,1.324,0,0,0,.867-.331,1.323,1.323,0,0,0,.486-.928v-.005a1.414,1.414,0,0,0-.357-1.006,1.4,1.4,0,0,0-.922-.509,1.29,1.29,0,0,0-1,.324,1.328,1.328,0,0,0-.5.943,1.375,1.375,0,0,0,.346,1A1.38,1.38,0,0,0-814.218,2769.029Z" fill="#fff"/>
      <rect id="矩形_5980" data-name="矩形 5980" width="8.579" height="2.125" transform="matrix(0.764, -0.645, 0.645, 0.764, -822.886, 2773.668)" fill="#fff"/>
      <path id="路径_6691" data-name="路径 6691" d="M-811.5,2778.184l1.41-1.1-1.3-1.667.538-.42a.714.714,0,0,1,.465-.2.583.583,0,0,1,.386.256l1.017,1.3,1.449-1.128-1.175-1.506a2.346,2.346,0,0,0-1.622-1.022,2.387,2.387,0,0,0-1.789.587l-.575.448-1.132-1.452-1.411,1.1,1.132,1.451-5.353,4.173,1.306,1.676,5.353-4.172Z" fill="#fff"/>
      <path id="路径_6692" data-name="路径 6692" d="M-806.348,2781.354a1.273,1.273,0,0,0,.31.039,1.354,1.354,0,0,0,.746-.233,1.326,1.326,0,0,0,.595-.863v-.005a1.416,1.416,0,0,0-.233-1.041,1.368,1.368,0,0,0-.853-.615,1.281,1.281,0,0,0-1.034.2,1.332,1.332,0,0,0-.609.877,1.391,1.391,0,0,0,.224,1.027A1.365,1.365,0,0,0-806.348,2781.354Z" fill="#fff"/>
      <rect id="矩形_5981" data-name="矩形 5981" width="8.574" height="2.125" transform="matrix(0.836, -0.548, 0.548, 0.836, -815.505, 2784.915)" fill="#fff"/>
      <path id="路径_6693" data-name="路径 6693" d="M-803.019,2789.858a3.879,3.879,0,0,0-2.792-1.969,4.691,4.691,0,0,0-3.236.76,4.788,4.788,0,0,0-2.188,2.588,3.847,3.847,0,0,0,.509,3.316,4.091,4.091,0,0,0,2.11,1.841,3.31,3.31,0,0,0,1.073.171,4.947,4.947,0,0,0,1.83-.389l.165-.067-1.11-1.806-.121.055a1.687,1.687,0,0,1-2.414-.727,1.687,1.687,0,0,1-.177-1.611,3.364,3.364,0,0,1,1.474-1.527,3.231,3.231,0,0,1,2-.585,1.709,1.709,0,0,1,1.357.886,2,2,0,0,1,.347,1.236,1.825,1.825,0,0,1-.607,1.081l-.088.083,1.1,1.794.133-.113a3.629,3.629,0,0,0,1.385-2.362v0A4.332,4.332,0,0,0-803.019,2789.858Z" fill="#fff"/>
      <path id="路径_6694" data-name="路径 6694" d="M-862.637,2737.292a3.692,3.692,0,0,0-2.38-1.278,3.582,3.582,0,0,0-3.071.832,4.9,4.9,0,0,0-1.653,2.988,5.266,5.266,0,0,0,.508,3.436,3.554,3.554,0,0,0,2.661,1.911,3.648,3.648,0,0,0,2.627-.384l-.094.543,2.295.4,1.5-8.612-2.3-.4Zm-.418,3.772a2.77,2.77,0,0,1-.918,1.757,2.013,2.013,0,0,1-1.67.4,2.018,2.018,0,0,1-1.454-.963,2.71,2.71,0,0,1-.3-1.945,2.7,2.7,0,0,1,.924-1.724,1.932,1.932,0,0,1,1.245-.444,2.444,2.444,0,0,1,.426.038,1.991,1.991,0,0,1,1.44.969A2.7,2.7,0,0,1-863.055,2741.064Z" fill="#fff"/>
      <path id="路径_6695" data-name="路径 6695" d="M-829.623,2754.058l-2.009-1.179-.291.493a3.693,3.693,0,0,0-1.781-2.031,3.6,3.6,0,0,0-3.168-.3,4.9,4.9,0,0,0-2.595,2.22,5.263,5.263,0,0,0-.729,3.4,3.555,3.555,0,0,0,1.824,2.723,3.621,3.621,0,0,0,2.594.56l-.279.476,2.009,1.179,4.349-7.409Zm-7.811.473a2.711,2.711,0,0,1,1.47-1.291,2.07,2.07,0,0,1,.64-.106,2.08,2.08,0,0,1,1.067.311,2,2,0,0,1,1.01,1.413,2.712,2.712,0,0,1-.389,1.9,2.771,2.771,0,0,1-1.476,1.323,2,2,0,0,1-1.7-.214,2.016,2.016,0,0,1-1.025-1.412A2.718,2.718,0,0,1-837.434,2754.531Z" fill="#fff"/>
    </g>
  </g>
</svg>
