<svg id="Слой_1" data-name="Слой 1" xmlns="http://www.w3.org/2000/svg" viewBox="0 0 178.07 198.55"><defs><style>.cls-1{fill:#231f20;}.cls-2{fill:#5fb14d;}.cls-3{fill:#84c04e;}</style></defs><title>vdg</title><polygon points="16.48 47.87 88.68 12.41 160.13 47.87 88.68 83.79 16.48 47.87"/><polygon points="14.16 147.69 61.38 124.64 85.17 154.71 85.17 183.89 14.16 147.69"/><polygon points="162.28 147.69 115.06 124.64 91.27 154.71 91.27 183.89 162.28 147.69"/><polygon class="cls-1" points="58.68 120.15 10.2 58.65 10.2 143.04 58.68 120.15"/><polyline class="cls-1" points="10.2 143.04 58.68 120.15 10.2 58.65"/><polyline class="cls-1" points="166.87 144.04 118.39 121.15 166.87 59.65"/><polygon class="cls-2" points="10.42 51.47 88.9 150.22 88.53 90.07 10.42 51.47"/><polygon class="cls-3" points="167.38 51.47 88.9 150.22 89.27 90.07 167.38 51.47"/><path d="M88.28,198.55,0,152V44.21L88.9,0l89.17,44.51v109ZM6,148.41l82.34,43.4,83.73-42V48.23L88.9,6.7,6,47.93Z" transform="translate(0 0)"/></svg>