<svg width="75" height="62.4" xmlns="http://www.w3.org/2000/svg">
 <style type="text/css">.st0{fill:#D1B667;}</style>

 <g>
  <title>background</title>
  <rect fill="none" id="canvas_background" height="64.4" width="77" y="-1" x="-1"/>
 </g>
 <g>
  <title>Layer 1</title>
  <g id="svg_1">
   <path id="svg_2" d="m73,0.9c0,0 0,0 0,0c-3.8,0 -7.2,0.1 -10.6,0c-1.2,0 -1.8,0.5 -2.4,1.4c-5.2,9 -10.4,18 -15.5,27c-2.3,4 -4.6,7.9 -7,12.1c-0.4,-0.6 -0.6,-0.9 -0.8,-1.3c-7.3,-12.6 -14.5,-25.2 -21.8,-37.8c-0.4,-0.6 -0.5,-1.4 -1.5,-1.4c-3.7,0 -7.4,0 -11.4,0c0,0 0,0 0,0l-0.7,0l0,1.4c1.2,0 1.9,0.8 2.1,1.2c11.4,19.8 22.7,39.3 34.1,59.1c11.4,-19.7 22.6,-39.2 34,-58.9l0,0c0,0 0.7,-1.4 2.2,-1.4l0,-1.4l-0.7,0z" class="st0"/>
   <path id="svg_3" d="m25.7,21.1c7.9,0 15.5,0 23.5,0c-3.9,-6.8 -7.7,-13.4 -11.7,-20.4c-4,7 -7.8,13.6 -11.8,20.4z" class="st0"/>
  </g>
 </g>
</svg>