<?xml version="1.0" encoding="utf-8"?>
<!-- Generator: Adobe Illustrator 23.0.2, SVG Export Plug-In . SVG Version: 6.00 Build 0)  -->
<svg version="1.1" id="Layer_1" xmlns="http://www.w3.org/2000/svg" xmlns:xlink="http://www.w3.org/1999/xlink" x="0px" y="0px"
	 viewBox="0 0 134.8 134.8" style="enable-background:new 0 0 134.8 134.8;" xml:space="preserve">
<style type="text/css">
	.st0{fill:#4C70B3;}
	.st1{fill:#E59D4D;}
</style>
<g>
	<g>
		<polygon class="st0" points="58.5,89.5 48.7,89.5 54.8,52.1 64.5,52.1 		"/>
		<path class="st0" d="M40.5,52.1l-9.3,25.7l-1.1-5.5l0,0l-3.3-16.8c0,0-0.4-3.4-4.6-3.4H6.9l-0.2,0.6c0,0,4.7,1,10.2,4.3l8.5,32.5
			h10.1L51,52.1H40.5z"/>
		<path class="st0" d="M117.1,89.5h8.9l-7.8-37.4h-7.8c-3.6,0-4.5,2.8-4.5,2.8L91.4,89.5h10.1l2-5.6H116L117.1,89.5z M106.4,76.3
			l5.1-14l2.9,14H106.4z"/>
		<path class="st0" d="M92.2,61.1l1.4-8c0,0-4.3-1.6-8.8-1.6c-4.8,0-16.3,2.1-16.3,12.4c0,9.7,13.5,9.8,13.5,14.9
			c0,5.1-12.1,4.2-16.1,1l-1.4,8.4c0,0,4.3,2.1,11,2.1c6.6,0,16.7-3.4,16.7-12.8c0-9.7-13.6-10.6-13.6-14.9
			C78.5,58.3,88,58.8,92.2,61.1z"/>
	</g>
	<path class="st1" d="M30.2,72.3l-3.3-16.8c0,0-0.4-3.4-4.6-3.4H6.9l-0.2,0.6c0,0,7.4,1.5,14.4,7.3C28,65.5,30.2,72.3,30.2,72.3z"/>
</g>
</svg>
