<svg width="8" height="12" viewBox="0 0 8 12" fill="none" xmlns="http://www.w3.org/2000/svg">
<path d="M0.386719 5.7832C0.386719 4.79492 0.607422 4.00781 1.04883 3.42188C1.49414 2.83594 2.10156 2.54297 2.87109 2.54297C3.48828 2.54297 3.99805 2.77344 4.40039 3.23438V0H6.09961V9H4.57031L4.48828 8.32617C4.06641 8.85352 3.52344 9.11719 2.85938 9.11719C2.11328 9.11719 1.51367 8.82422 1.06055 8.23828C0.611328 7.64844 0.386719 6.83008 0.386719 5.7832ZM2.08008 5.90625C2.08008 6.5 2.18359 6.95508 2.39062 7.27148C2.59766 7.58789 2.89844 7.74609 3.29297 7.74609C3.81641 7.74609 4.18555 7.52539 4.40039 7.08398V4.58203C4.18945 4.14062 3.82422 3.91992 3.30469 3.91992C2.48828 3.91992 2.08008 4.58203 2.08008 5.90625ZM7.01953 1.85742H2.92383V0.785156H7.01953V1.85742ZM6.20508 11.127H0.867188V9.80273H6.20508V11.127Z" fill="#fff"/>
</svg>
