<svg width="8" height="12" xmlns="http://www.w3.org/2000/svg">
 <g>
  <path stroke="null" d="m0.223285,6.250483c0,-1.066054 0.25068,-1.915107 0.752051,-2.547149c0.505801,-0.632052 1.195732,-0.948077 2.069795,-0.948077c0.701029,0 1.280046,0.248607 1.737039,0.745822l0,-3.488915l1.930041,0l0,9.708272l-1.737039,0l-0.093173,-0.726858c-0.479177,0.568851 -1.095903,0.853271 -1.850169,0.853271c-0.84745,0 -1.528511,-0.316025 -2.043182,-0.948077c-0.510242,-0.636259 -0.765363,-1.519021 -0.765363,-2.648288l0,-0.000001zm1.923385,0.132734c0,0.640476 0.117571,1.13137 0.352724,1.472669c0.235164,0.341311 0.576802,0.511961 1.024925,0.511961c0.594544,0 1.013828,-0.238068 1.257851,-0.714216l0,-2.698846c-0.239594,-0.476148 -0.654437,-0.714216 -1.244539,-0.714216c-0.927311,0 -1.39096,0.714216 -1.39096,2.142648l-0.000001,0zm5.610422,-4.36746l-4.652058,0l0,-1.156644l4.652058,0l0,1.156644zm-0.925084,9.999067l-6.062986,0l0,-1.428485l6.062986,0l0,1.428485z" fill="#fff" id="svg_1"/>
 </g>
</svg>