<svg width="19" height="12" xmlns="http://www.w3.org/2000/svg">

 <g>
  <title>background</title>
  <rect fill="none" id="canvas_background" height="14" width="21" y="-1" x="-1"/>
 </g>
 <g>
  <title>Layer 1</title>
  <path stroke="null" id="svg_1" fill="#000000" d="m0.07177,6.222239c0,-1.052597 0.25068,-1.890932 0.752051,-2.514995c0.505801,-0.624073 1.195732,-0.936109 2.069795,-0.936109c0.701029,0 1.280046,0.245469 1.737039,0.736407l0,-3.444873l1.930041,0l0,9.58572l-1.737039,0l-0.093173,-0.717683c-0.479177,0.56167 -1.095903,0.8425 -1.850169,0.8425c-0.84745,0 -1.528511,-0.312036 -2.043182,-0.936109c-0.510242,-0.628227 -0.765363,-1.499846 -0.765363,-2.614857zm1.923385,0.131058c0,0.632391 0.117571,1.117088 0.352724,1.454079c0.235164,0.337002 0.576802,0.505498 1.024925,0.505498c0.594544,0 1.013828,-0.235063 1.257851,-0.7052l0,-2.664777c-0.239594,-0.470137 -0.654437,-0.7052 -1.244539,-0.7052c-0.927311,0 -1.39096,0.7052 -1.39096,2.1156zm5.610422,-4.312328l-4.652058,0l0,-1.142043l4.652058,0l0,1.142043zm-0.925084,9.872844l-6.062986,0l0,-1.410453l6.062986,0l0,1.410453z"/>
 </g>
</svg>