<svg id="Слой_1" data-name="Слой 1" xmlns="http://www.w3.org/2000/svg" viewBox="0 0 168.99 168.99"><defs><style>.cls-1{fill:#796741;}.cls-2{fill:#938e85;}.cls-3{fill:#231d11;}.cls-4{fill:#a7a6a4;}.cls-5{fill:#9d9d9d;}</style></defs><title>wdsc</title><circle class="cls-1" cx="84.5" cy="84.5" r="81.5"/><path class="cls-2" d="M85.16,168.87a84.5,84.5,0,1,1,84.5-84.5A84.59,84.59,0,0,1,85.16,168.87Zm0-163a78.5,78.5,0,1,0,78.5,78.49A78.59,78.59,0,0,0,85.16,5.88Z" transform="translate(-0.66 0.12)"/><polygon class="cls-3" points="84.5 99.22 46.39 107.47 84.5 74.09 122.61 107.47 84.5 99.22"/><polygon class="cls-4" points="46.39 107.47 84.5 89.4 84.5 51.7 46.39 107.47"/><polyline class="cls-4" points="84.5 51.7 46.39 107.47 84.5 89.4"/><polyline class="cls-5" points="84.5 51.7 122.61 107.47 84.5 89.4"/></svg>