<?xml version="1.0" encoding="utf-8"?>
<!-- Generator: Adobe Illustrator 23.0.2, SVG Export Plug-In . SVG Version: 6.00 Build 0)  -->
<svg version="1.1" id="Layer_1" xmlns="http://www.w3.org/2000/svg" xmlns:xlink="http://www.w3.org/1999/xlink" x="0px" y="0px"
	 viewBox="0 0 64 64" style="enable-background:new 0 0 64 64;" xml:space="preserve">
<style type="text/css">
	.st0{fill:#262626;}
	.st1{fill:#8998A9;}
	.st2{fill:#DDDFE0;}
	.st3{fill:#FFFFFF;}
	.st4{fill:#02408D;}
	.st5{fill:#045FC3;}
</style>
<g>
	<path class="st0" d="M31.9,64c-17.5,0.3-32-14.7-31.9-32C0.1,14.6,14.5,0,32.1,0c17.3,0,32,14.5,31.9,32.2
		C63.9,49.4,49.5,64.3,31.9,64z M44.8,51.5L44.8,51.5c0-0.3-0.2-0.5-0.5-0.5c-0.4-0.2-0.6-0.6-1-0.9c-0.3-0.6-0.9-0.8-1.5-0.9
		c-0.8-0.3-1.6-0.6-2.4-0.8c-1.4-0.4-2.9-0.6-4.1-1.4c-0.1-0.4,0.1-0.5,0.5-0.5c0.9,0,1.7,0.5,2.5,0.5c1.1,0,2.1,0.4,3.1,0.8
		c0.2,0.1,0.5,0.3,0.8,0.1c-0.3-0.6-0.6-1.2-1.4-1.4c-0.5-0.6-1.2-1-1.9-1.4c-0.1-0.4-0.4-0.5-0.7-0.5l0,0c-0.5-0.6-1.2-1.1-1.9-1.4
		l0,0c-0.4-0.6-0.8-1.3-1.4-1.7l0,0c0-0.4,0-0.8-0.5-1l0,0c0.1-0.6-0.2-1-0.9-1.3c0,0.7-0.4,1.3,0.3,1.8c0,0.2,0,0.5,0.1,0.7
		c-0.3,0.7,0.5,1.2,0.4,1.9c-0.3-0.1-0.6-0.2-0.8-0.3l0,0c0-0.4-0.2-0.5-0.5-0.7c0,0,0,0,0,0c0-0.7-0.6-1-0.8-1.5
		c-0.3,0.3-0.5,0.5-0.2,0.9c0,0.1,0,0.3,0,0.4c-0.1,0.3,0,0.6,0,0.9c0,0.4,0.6,0.7,0.1,1c-0.4,0.2-0.7-0.2-1.1-0.4
		c-0.4-0.3-0.7-0.6-1-1c-0.2-0.2-0.3-0.5-0.6-0.6c0-0.3-0.1-0.5-0.4-0.4c-0.3,0-0.4,0.2-0.5,0.4C28,43.6,28,44.9,28,46.3
		c0,0.3,0.2,0.7-0.2,0.8c-0.3,0.1-0.6-0.1-0.9-0.3c-0.6-0.6-1.2-1.2-1.6-2c-0.5-1-0.5-1-1.4-0.3c-0.2,0.2-0.4,0.2-0.4,0.5
		c-0.2,0-0.3,0.1-0.5,0.3c-0.5,0.7-1.1,1.3-1.4,2.1c-0.3,0.7-0.6,0.4-1,0.3c0-0.1,0-0.1-0.1-0.2c0-0.7-0.4-1.3-0.5-2
		c0-0.2,0-0.3,0-0.5c0.2-0.3,0.1-0.5-0.2-0.5c-0.4-0.1-0.8,0-1,0.4c-1.4,0.4-2.4,1.4-3.5,2.3c-0.4,0.3-0.8,0.7-1.2,1
		c-0.1-0.9,0-1.6,0.2-2.3c0.4-1.3,1-2.5,1.8-3.5c0.5-0.6,0.4-0.6-0.2-1c-0.3-0.2-0.7-0.4-1-0.6c-0.6-0.4-0.7-0.8-0.3-1.4
		c0.3-0.6,0.7-1.2,1.2-1.6c1.1-1.1,2.3-1.9,3.6-2.6c0.6-0.3,1.1-0.6,1.7-0.1c0.3,0,0.6,0.1,1,0.1c0.1,0.2,0.2,0.3,0.5,0.3
		c0.8,0.3,1.3,1.1,2,1.6c0.7,0.5,0.7,0.5,0.3,1.2c-0.7,1.3-1.6,2.5-3,3.2c-0.3,0-0.5-0.1-0.8,0.2c0,0,0,0,0,0
		c-0.3-0.1-0.5-0.3-0.2-0.6c0.7-0.1,1.2-0.6,1.6-1.1c0.4-0.5,0.9-1.1,0.6-1.8l0,0c0.7,0.3,0.5-0.3,0.5-0.6c-0.1-0.6-0.6-0.8-1-1.1
		c-0.5-0.6-1.2-0.5-1.9-0.5c-1.9,0-3.1,1.2-4.1,2.6c-0.1,0.1-0.2,0.1-0.3,0.2c-1.3,1.3-1.3,1.3,0.3,2.2c0.5,0.4,1.1,0.5,1.8,0.6
		c0.4,0,0.8,0,1.1,0.4c-1,0.4-1.5,1.2-2.2,1.9c-0.2,0.2-0.3,0.4-0.1,0.6c0.2,0.2,0.4,0,0.5-0.1c0.6-0.3,1.1-0.6,1.7-0.8
		c0.5-0.1,1.1-0.3,1.5-0.1c0.4,0.3,0.1,0.8,0.2,1.2c0,0,0,0.1,0,0.1c0.1,0.2,0,0.5,0.3,0.6c0.3,0.1,0.5-0.1,0.6-0.4
		c0.7-1.3,1.8-2.1,2.9-2.9c0.4-0.3,0.6-0.1,0.7,0.2c0.1,0.3,0.2,0.5,0.3,0.8c0.2,0.5,0.4,1,0.9,1.3c0.3-0.5,0.2-0.9,0.2-1.3
		c0.4-0.1,0.4-0.4,0.3-0.8c0-0.2,0.1-0.5,0.1-0.7c0.3,0,0.4-0.2,0.5-0.4c0.3-0.5,0.6-1,1.4-1.2c-0.1,0.7,0.5,1.1,0.6,1.6
		c0.1,0.3,0.4,0.3,0.6,0.3c0.3,0,0.3-0.3,0.3-0.6c0-0.6,0-1.3,0-1.9c0.3-0.6,0.5-0.7,0.9-0.4c0.2,0.2,0.3,0.4,0.5,0.7
		c0.1,0,0.2,0,0.2-0.1c0-0.7,0-1.5,0-2.2c0-0.2,0-0.4-0.2-0.4c-0.6-0.2-0.8-0.9-1.3-1.2c0-0.1,0-0.2,0-0.3c0.1-0.2,0.1-0.5,0-0.7
		c0.2-0.8,0.1-1.6,0-2.4c0.2-0.5-0.1-0.8-0.4-1.2c-0.3-0.4-0.8-0.8-0.6-1.4c0.1,0,0.2,0,0.3,0.1c1.1,0.4,1.6,0.1,1.9-1
		c0.1-0.4,0.1-0.9,0.1-1.3c0.1-1.2,0-2.5,0.9-3.6c0.4,0.5,0,1.2,0.5,1.7c0.2-0.6,0.4-1,0.7-1.4c0.3-0.4,0.6-0.8,0.6-1.4
		c0-0.3,0.1-0.5,0-0.8c-0.4-0.7-1.7-1.1-2.5-0.7c-1.2,0.7-2.3,3-2,4.4c0.1,0.4,0.5,0.8,0.2,1.2c-0.2,0.3-0.8,0.3-1.1,0.7
		c0,0.1-0.2,0-0.2,0.1c-1.5,1-2.5,2.2-2.6,4.1c0,0.6,0,1.3,0,1.9c-0.2-0.4-0.6-0.6-1.1-0.6l-0.1,0c0-0.3-0.2-0.4-0.5-0.4
		c-0.4,0-0.8,0-1.2,0c-0.4,0-0.6-0.1-0.7-0.5c0.2-0.8,0.8-1.6,0.6-2.6c0.5-0.3,0.5-0.7-0.1-0.9c-0.6-0.2-0.5-0.6-0.2-0.9
		c0.3-0.4,0.7-0.8,1-1.1c0.2-0.2,0.3-0.6,0.7-0.4c0.4,0.2,0.1,0.6,0.1,0.9c0,0.4-0.7,0.5-0.4,1c0,0.2-0.1,0.4-0.1,0.6
		c0.1,0.9,0.1,0.9,1.1,0.5c0.3,0.1,0.6,0,0.8-0.3c1.5-1.5,2.7-3.2,2.6-5.4c0.6-0.5,0.6-0.7-0.1-1.5c0.1-0.4,0.2-0.8,0.6-1.1
		c0.4,0,0.5-0.2,0.4-0.5c0.1-0.3,0.1-0.6,0.3-0.9c0.4-1,1.1-1.9,1.6-2.9c0.8-0.1,1.6-0.3,2.2,0.4c0.1,1.2,0.1,1.2-1,1.2
		c-0.2,0-0.5,0-0.4,0.2c0.1,0.7-0.7,0.5-0.9,0.9c0.5,0.4,0.9,0.3,1.2,0.1c0.5-0.4,0.8-0.2,1.2,0c0.4,0.3,0.8-0.6,1.3-0.3
		c0.2,0.1,0.3,0.2,0.5,0.3c0.1,0.1,0.3,0.1,0.4,0.1c0,0.1,0.1,0.1,0.1,0.2c-0.1,0.4,0.1,0.7,0.5,0.9c0,0.1,0.1,0.2,0.1,0.4
		c-0.2,0.4,0.1,0.7,0.3,1c0.2,0.2,0.4,0.6,0,0.7c-0.3,0.1-0.3,0.9-0.9,0.3c-0.1-0.1-0.3-0.1-0.4,0c-0.2,0.2-0.1,0.3,0,0.5
		c0.1,0.2,0.3,0.3,0.5,0.3c0,0.1-0.1,0.3-0.1,0.4c-0.2,0-0.4,0.1-0.4,0.3c-0.4,0.5-0.8,0.9-1.2,1.4c-0.4,0.6-1,1.1-1.2,1.7
		c-0.1,0.4-0.2,0.6-0.5,0.9c-1.2,1.3-1.7,2.9-1.6,4.7c0,0.2,0.1,0.5,0.2,0.7c0.1,0.2,0.3,0.4,0.5,0.4c0.3,0,0.3-0.3,0.3-0.4
		c0.2-1,0.6-1.9,1-2.9c0.4-0.1,0.5-0.3,0.5-0.7c0-0.1,0-0.1,0.1-0.2c0.4-0.1,0.5,0.2,0.5,0.5c0,0.2,0,0.4-0.1,0.6
		c-0.7,1.7-0.7,3.5-0.5,5.2c0.1,0.8,0.6,1.4,1.4,1.7c0-0.3,0-0.5,0-0.7c-0.5-0.7-0.4-1.5-0.4-2.3c0-1,0.1-2.1,0.1-3.1
		c0.4-0.1,0.4-0.4,0.3-0.8c0.1-0.3,0.1-0.6,0.2-0.9c0.3-0.1,0.4-0.3,0.3-0.6c0-0.1,0.1-0.3,0.1-0.4c0.4-0.1,0.5-0.4,0.6-0.7
		c0.3-0.7,0.8-1,1.5-0.8c1.6,0.2,3.2-0.1,4.8-0.5c0.6,0,1.2,0.2,1.6-0.5l0,0c0.2,0.1,0.5,0.1,0.7,0c2.3-1.1,4.1-2.7,5.5-4.8
		c0.2-0.3,0.3-0.6,0.4-0.9c0.1-0.2,0.1-0.5-0.1-0.7c-1.2-0.7-2-1.8-3.2-2.6c-1-0.7-1.9-1.7-2.9-2.6c0-0.3-0.1-0.4-0.4-0.4
		c0,0-0.1-0.1-0.1-0.1c-0.1-0.6-0.6-0.8-1.1-0.9c0,0-0.1,0-0.1-0.1c-0.6-0.8-1.2-1.6-2.3-1.8c-0.1,0-0.1-0.1-0.1-0.1
		c-0.1-0.5-0.3-0.8-0.9-0.8c-0.1-0.2-0.4-0.3-0.6-0.4c0-0.3-0.1-0.4-0.4-0.4c0,0-0.1-0.1-0.1-0.1c0-0.3-0.1-0.4-0.4-0.4
		c0,0-0.1-0.1-0.1-0.1c-0.5-0.9-1.6-1.6-2.5-1.8c-0.1,0-0.1-0.1-0.1-0.1c0-0.2-0.1-0.4-0.4-0.4c-0.1,0-0.1-0.1-0.1-0.1
		c0-0.3-0.1-0.4-0.4-0.4c0,0-0.1-0.1-0.1-0.1c0-0.3-0.1-0.4-0.4-0.3c-0.1-0.1-0.2-0.2-0.4-0.3c-0.2-0.4-0.5-0.9-1.1-0.9
		c0,0-0.1,0-0.1-0.1c-0.6-0.8-1.3-1.5-2.1-2.1c-0.6-0.4-0.7-0.4-1.1,0.2c-0.6,0.2-0.9,0.7-1.4,1c-0.2,0-0.4,0.1-0.3,0.3
		c0,0.1-0.1,0.1-0.1,0.2c-0.2,0-0.4,0.1-0.3,0.3c-0.1,0.2-0.2,0.3-0.3,0.5c-0.3,0.7-1,1.2-0.8,2.1c0,0-0.1,0-0.1,0
		c-0.2,0-0.3,0-0.4,0.2c-0.7,1.4-1.2,2.9-1,4.5c0,0.2,0,0.3,0.1,0.5c-0.2,0.8-0.1,1.6-0.1,2.3c-0.2,0.7-0.1,1.5,0.4,2.1
		c0,0.1,0,0.3,0.1,0.4c-0.2,0.6,0,1,0.5,1.2l0.1,0c0.1,1,0.8,2.2,1.5,2.8c0,0,0,0.1,0,0.1c0,0.2,0,0.4,0.2,0.6
		c0.3,0.2,0.5,0.4,0.8,0.6c-0.5,0.5-1,1.1-1.5,1.6c0.1-0.8-0.1-1.5-0.6-2.1c-1.2-1.3-1.8-3-2.4-4.6c-0.5-1.6-0.6-3.3-0.5-5
		c0.2-2.7,0.9-5.3,2.3-7.7c0.3-0.5,0.7-0.8,0.8-1.4c0.7-0.7,1.4-1.4,2.1-2.1c0.2-0.2,0.3-0.4,0.2-0.6c-0.1-0.3-0.4-0.2-0.6-0.2
		c-1.1,0.2-2.2,0.4-3.3,0.6c-0.2,0-0.3,0.2-0.5,0.3c-0.5-0.2-1-0.1-1.4,0.1c-1.8,0.5-3.5,1.2-5.1,2c-3.8,1.9-7.1,4.5-9.7,7.8
		c-1.6,2-3.1,4-4,6.5c-0.2,0.5-0.3,0.9-0.1,1.6c1.7-1.5,3.2-3,5.8-2.9c-1.2,0.8-2.1,1.7-2.9,2.7c-1.9,2.4-3.3,5-4.2,7.9
		c-1,3-1.4,6.1-1.2,9.3c0,0.1,0,0.2,0,0.4c0.3,2.1,0.9,4.1,1.8,6c0.2,0.4,0.4,0.8,0.8,1.1c0.1-0.2,0.2-0.4,0.4-0.6
		c0.1-0.2,0.2-0.3,0.5-0.3C6,44.1,6,44.4,6,44.6c0.1,0.3,0.1,0.6,0.2,0.9c1.1,2.3,2.9,3.9,5.3,4.9c0.7,0.3,1.4,0.3,2-0.2
		c0.7-0.5,1.4-1.1,1.9-1.7c0.8-0.9,1.8-1.6,2.9-2.2c0.5-0.3,1-0.4,1.2,0.3c-0.1,0.5-0.1,1.1,0,1.6c-0.1,1,0.1,1.9,0.9,2.5l0,0.1
		c0,0.3,0.1,0.5,0.3,0.7c0.6-0.6,0.7-1.3,0.7-2.1c0-0.1,0-0.2,0-0.2c0.1-0.1,0.3-0.1,0.3-0.2c0.4-1.3,1.3-2.3,2.1-3.4
		c0.2,0,0.4,0,0.5,0.3c0.6,1.2,1.6,2,2.9,2.5c0.6,0.2,1,0.2,1.4-0.4c0.5-0.8,1-1.5,1.2-2.4c0.4-0.1,0.4-0.7,1-0.6
		c0.2,0.6,0.6,1,1,1.4c2,1.7,4.3,2.7,6.9,3.2c0.2,0.6,0.7,0.4,1.1,0.4c0.7,0,1.2,0.6,1.9,0.6c0.1,0.4,0.4,0.5,0.7,0.4
		c0.1,0,0.2,0,0.2,0.1c0,0.4,0.3,0.5,0.7,0.5l0,0c0.1,0.1,0.1,0.2,0.2,0.2c0,0.2,0.1,0.2,0.3,0.3c0.1,0.1,0.2,0.3,0.3,0.3
		c0,0.1,0.1,0.1,0.1,0.1c0.6,1,1.4,1.9,1.5,3.2c0,0.2,0.2,0.4,0.4,0.3c0.3-0.1,0.4-0.3,0.3-0.6c-0.2-0.6-0.2-1.2-0.5-1.7
		c-0.4-0.6-0.4-1.5-1.3-1.7c0-0.1,0-0.1-0.1-0.2C45.1,51.6,45,51.5,44.8,51.5z M55.7,17c-0.3,0.2-0.3,0.6-0.4,0.9
		c-0.6,1.9-1.1,3.9-2.4,5.6c-2.2,2.9-5,4.9-8.4,5.9c-1.3,0.4-2.8,0.7-4.2,0.6c-0.7-0.1-1.4,0-2,0c-0.8,0-0.9,0.1-0.9,0.9
		c-0.1,1.6-0.1,3.1,0.8,4.5c0.1,0.2,0.2,0.3,0.1,0.5c-0.7-0.2-0.9-0.1-0.8,0.5c0.1,0.7,0.5,1.3,0.7,1.9c0.1,0.2,0.3,0.4,0.2,0.5
		c-0.9,0.8,0,1.2,0.4,1.7c0.3,0.4,0.7,0.7,0.2,1.2c-0.2,0.2,0.1,0.7,0.4,0.9c0.5,0.4,0.9,0.9,1.5,1.2c2.7,1.6,4.6,4,6.2,6.7
		c0.9,1.5,1.3,3.1,1.1,4.9c0,0.4-0.1,0.9-0.1,1.3c0,0.2-0.1,0.5,0.2,0.6c0.3,0.1,0.5,0,0.6-0.2c0.1-0.1,0.2-0.2,0.3-0.2
		c1.8-1.3,3.5-2.7,5.1-4.3c2.7-2.9,5-6.1,6.5-9.8c1.1-2.7,2-5.5,2-8.4c0-0.3,0-0.6,0.1-0.8c0.4-2.3,0.1-4.5-0.3-6.8
		c-0.5-3-1.5-5.9-3-8.6c-0.2-0.4-0.3-1.1-0.9-1.3c-0.4-1-1.1-1.8-1.7-2.7c-0.1-0.2-0.4-0.3-0.6-0.3c-0.3,0.1-0.3,0.4-0.3,0.6
		C55.9,15.4,55.9,16.2,55.7,17z M56.3,13.8C56.2,13.8,56.2,13.8,56.3,13.8c-0.1-0.1-0.1,0-0.2,0C56.1,13.8,56.2,13.9,56.3,13.8
		C56.2,13.9,56.2,13.8,56.3,13.8z"/>
	<path class="st1" d="M45.5,16c1,0.9,1.8,1.8,2.9,2.6c1.1,0.8,2,1.9,3.2,2.6c0.2,0.1,0.2,0.4,0.1,0.7c-0.1,0.3-0.2,0.6-0.4,0.9
		c-1.4,2.1-3.3,3.7-5.5,4.8c-0.2,0.1-0.5,0.1-0.7,0c0-0.1,0-0.3,0.1-0.4c0.8-0.1,1.5-0.5,2.1-1.1c0.4-0.4,0.4-0.6-0.2-0.9
		c-0.6-0.3-1.1-0.8-1.6-1.2c-1.6-1.3-3.1-2.8-4.8-4.1c-1.9-1.4-3.7-3.1-5.6-4.6c-1.7-1.4-3.4-2.8-5-4.2c-1-0.9-2-1.7-3-2.5
		c-0.2-0.9,0.5-1.4,0.8-2.1c0.1-0.2,0.2-0.3,0.3-0.5c0.2,0,0.4-0.1,0.3-0.3c0.1,0,0.1-0.1,0.1-0.2c0.3,0,0.4-0.1,0.3-0.3
		c0.5-0.3,0.8-0.9,1.4-1c0.9,0.2,1.4,0.7,2,1.3c0.3,0.3,0.6,0.8,1.2,0.6c0,0,0.1,0.1,0.1,0.1c0,0.7,0.4,0.9,1.1,0.9
		C34.8,7,34.9,7.1,35,7.3c0,0.3,0.1,0.4,0.4,0.4c0,0,0.1,0.1,0.1,0.1c-0.1,0.3,0,0.5,0.4,0.4c0,0.1,0.1,0.1,0.1,0.1
		c-0.1,0.4,0,0.5,0.4,0.4c0,0.1,0.1,0.1,0.1,0.1c0.1,0.8,0.9,0.9,1.4,1.4c0.2,0.2,0.6,0.7,1.1,0.5c0,0,0.1,0.1,0.1,0.1
		c-0.1,0.3,0,0.5,0.4,0.4c0,0,0.1,0.1,0.1,0.1c-0.1,0.3,0,0.4,0.4,0.4c0.2,0.1,0.4,0.1,0.6,0.4c0,0.6,0.3,0.9,0.9,0.8
		c0,0.1,0.1,0.1,0.1,0.1c0.3,0.7,1.5,1.7,2,1.9c0.1,0,0.2,0,0.2-0.1c0,0,0.1,0.1,0.1,0.1c0.2,0.8,0.3,0.9,1.1,0.9
		c0,0,0.1,0.1,0.1,0.1C45,16,45.2,16.1,45.5,16z"/>
	<path class="st1" d="M21.1,34.9c-0.6-0.5-1.1-0.2-1.7,0.1c-1.3,0.8-2.6,1.6-3.6,2.6c-0.5,0.5-0.9,1-1.2,1.6c-0.3,0.7-0.2,1,0.3,1.4
		c0.3,0.2,0.7,0.4,1,0.6c0.7,0.3,0.7,0.4,0.2,1c-0.8,1.1-1.5,2.2-1.8,3.5c-0.2,0.7-0.3,1.5-0.2,2.3c0.5-0.3,0.8-0.7,1.2-1
		c1.1-0.9,2.1-1.9,3.5-2.3c0,0,0.1,0.1,0.1,0.1c-0.2,0.2-0.3,0.4,0.1,0.5c0.3,0,0.6,0,0.9,0c0.1,0.7,0.5,1.3,0.5,2
		c-0.3,0-0.5-0.1-0.6-0.5c0-0.2-0.1-0.5-0.4-0.5c-0.2-0.8-0.7-0.6-1.2-0.3c-1.1,0.6-2.1,1.3-2.9,2.2c-0.6,0.6-1.3,1.2-1.9,1.7
		c-0.7,0.5-1.3,0.5-2,0.2c-2.3-1-4.1-2.6-5.3-4.9c-0.1-0.3-0.2-0.6-0.2-0.9c0-0.2,0-0.4-0.3-0.5c-0.2,0-0.4,0.1-0.5,0.3
		C5.1,44.6,5,44.8,4.9,45c-0.5-0.3-0.6-0.7-0.8-1.1c-0.9-1.9-1.5-3.9-1.8-6c0-0.1,0-0.2,0-0.4c-0.1-3.2,0.2-6.3,1.2-9.3
		c0.9-2.9,2.3-5.5,4.2-7.9c0.8-1,1.7-1.9,2.9-2.7c-2.6-0.1-4.1,1.5-5.8,2.9c-0.3-0.6-0.1-1.1,0.1-1.6c0.9-2.5,2.4-4.5,4-6.5
		c2.6-3.4,5.9-5.9,9.7-7.8c1.6-0.8,3.4-1.5,5.1-2c0.5-0.1,0.9-0.2,1.4-0.1c0.6,0,1.3,0,1.9,0.1c0.6,0,0.7,0.3,0.4,0.8
		c-0.3,0.4-0.2,0.7-0.2,1.1c-0.1,0.6-0.5,1-0.8,1.4c-1.4,2.4-2.1,4.9-2.3,7.7c-0.1,1.7,0,3.4,0.5,5c0.5,1.7,1.2,3.3,2.4,4.6
		c0.5,0.6,0.8,1.3,0.6,2.1c0.1,0.2-0.7,0.6,0.2,0.8c0.4,0.1,0.5,0.6,0,0.9c-0.4-0.5-0.8-0.7-1-0.3c-0.2,0.4-0.5,0.8-0.6,1.3
		c0,0.3,0.1,0.4,0.3,0.5c-0.1,0.6-0.4,0.5-0.8,0.2c-0.2-0.1-0.3-0.2-0.5-0.3c-0.3-0.5,0.4-0.6,0.4-1c0-0.3,0.3-0.7-0.1-0.9
		c-0.3-0.2-0.5,0.2-0.7,0.4c-0.4,0.4-0.7,0.7-1,1.1c-0.3,0.3-0.4,0.7,0.2,0.9c0.6,0.2,0.5,0.6,0.1,0.9c-0.1-0.2-0.2-0.5-0.4-0.1
		C22.8,31.6,21.9,33.3,21.1,34.9z M24,26.4c0.3,0,0.5-0.2,0.5-0.5l0-0.1c0.4-0.1,0.6-0.4,1-0.7c0.6-0.4,0.7-0.8,0.3-1.4
		c-0.7-1.4-1.5-2.8-1.9-4.3c-0.4-1.3-0.8-2.6-0.8-4c-0.1-2.1,0.3-4.1,0.8-6.2c0.5-1.8,1.3-3.4,2.4-4.9c0.2-0.3,0.5-0.6,0.4-1
		c-0.5-0.1-0.9-0.1-1.2,0c-1.6,0.6-3.3,1-4.9,1.7c-3,1.3-5.6,3.1-8,5.2c-1.6,1.3-2.7,3-4,4.5c-0.6,0.7-0.9,1.7-1.6,2.4
		c-0.1,0.1-0.1,0.2,0,0.3c0.1,0.1,0.3,0.2,0.4,0.1c0.1-0.1,0.3-0.2,0.4-0.2c1-0.4,2-0.8,3.1-0.7c0.7,0.1,1.2,0.4,1.3,1
		c0.1,0.6-0.2,0.9-0.8,1.2c-1.3,0.6-2.4,1.5-3.1,2.8c-0.9,1-1.7,2.1-2.3,3.4c-0.5,1.2-1,2.4-1.4,3.6c-0.5,1.6-0.9,3.2-0.9,4.9
		c0,0.4,0,0.7,0,1.1c-0.5,2.4,0,4.7,0.6,7c0.1,0.3,0.3,0.6,0.5,0.9c0.3,0.3,0.6,0,0.9,0c0.5,0,0.9,0.1,1.1,0.7
		c0.1,0.2,0.2,0.4,0.3,0.7c0.3,1.8,1.4,3.2,2.7,4.4c0.7,0.6,1.4,1,2.3,1.2c0.8,0.2,1.1-0.1,1.1-0.9c0-2,0.6-3.9,1.6-5.6
		c0.4-0.8,0.4-0.8-0.2-1.3c-0.9-0.7-1.2-1.6-0.7-2.4c1-1.8,2.3-3.3,4.3-4.2c1.2-0.5,2.2-1.3,2.7-2.5c0.8-1.6,1.5-3.3,2.4-4.9
		c0.3,0,0.5-0.2,0.5-0.5l0,0C23.9,27,24,26.7,24,26.4L24,26.4z M26.4,23.8c0.3,0.5,0,0.8,0.4,1c0.1,0.1,0.2-0.1,0.3-0.2
		C27.3,24.3,27.1,24,26.4,23.8z"/>
	<path class="st1" d="M58.5,17c0.6,0.2,0.7,0.8,0.9,1.3c1.4,2.7,2.5,5.6,3,8.6c0.4,2.2,0.7,4.5,0.3,6.8c0,0.3-0.1,0.6-0.1,0.8
		c0,3-0.9,5.7-2,8.4c-1.5,3.7-3.7,6.9-6.5,9.8c-1.5,1.6-3.3,3-5.1,4.3c-0.1,0.1-0.2,0.2-0.3,0.2c-0.2,0.2-0.4,0.3-0.6,0.2
		c-0.3-0.1-0.2-0.4-0.2-0.6c0-0.4,0-0.9,0.1-1.3c0.2-1.8-0.3-3.4-1.1-4.9c-1.5-2.7-3.4-5.1-6.2-6.7c-0.5-0.3-1-0.8-1.5-1.2
		c-0.3-0.2-0.6-0.7-0.4-0.9c0.5-0.6,0.1-0.9-0.2-1.2c-0.4-0.5-1.3-0.9-0.4-1.7c0.1-0.1-0.1-0.4-0.2-0.5c-0.2-0.6-0.6-1.2-0.7-1.9
		c-0.1-0.6,0.1-0.7,0.8-0.5c0.2-0.2,0-0.4-0.1-0.5c-0.9-1.4-0.9-3-0.8-4.5c0-0.8,0.1-0.9,0.9-0.9c0.7,0,1.4,0,2,0
		c1.5,0.1,2.9-0.2,4.2-0.6c3.4-1,6.2-3,8.4-5.9c1.3-1.7,1.8-3.6,2.4-5.6c0.1-0.3,0.1-0.6,0.4-0.9c0.3,0,0.5,0.1,0.8,0.1
		c0.1,0.4,0.2,0.9-0.1,1.3c-0.8,1-0.9,2.2-1.4,3.3c-1,2.1-2.4,3.8-4.1,5.3c-0.5,0.5-1.1,1-1.8,1.4c-2,1.2-4.1,1.9-6.3,2.3
		c-0.6,0.1-1.2,0.1-1.7,0.4c-0.6,0-1.2,0-1.8,0c-0.6,0-0.9,0.2-0.9,0.8c0,1.1,0.1,2.1,0.7,3.1c0.5,0.7,0.5,1.4,0,2.1
		c-0.1,0.2-0.3,0.5-0.1,0.7c0.8,1-0.1,2.7,1.3,3.5c0,0,0,0.1,0,0.1c-0.2,1.4,0.7,1.9,1.7,2.4c0.1,0,0.1,0.1,0.2,0.2
		c1.7,1.1,2.9,2.8,4.1,4.4c1.4,2,2.8,4,2.7,6.6c0,0.5,0.4,0.6,0.7,0.3c0.9-0.6,1.8-1.2,2.5-2c2.3-2.5,4.6-5,6.1-8.2
		c0.8-1.7,1.8-3.3,2.1-5.2c0.1-0.8,0.5-1.7,0.4-2.6c0.4-0.1,0.5-0.5,0.6-0.8c0.1-0.8,0.3-1.6,0.3-2.4c0.1-2.9,0-5.9-0.8-8.7
		c-0.2-0.6-0.4-1.3-0.6-1.9c-0.4-1.3-0.8-2.7-1.6-3.9c-0.4-0.7-0.8-1.4-0.9-2.3C58.1,17.1,58.3,17.1,58.5,17z"/>
	<path class="st2" d="M27,8.5c1,0.8,2.1,1.6,3,2.5c1.6,1.5,3.3,2.9,5,4.2c1.9,1.5,3.7,3.1,5.6,4.6c1.7,1.3,3.1,2.8,4.8,4.1
		c0.5,0.4,1,0.9,1.6,1.2c0.5,0.3,0.6,0.5,0.2,0.9c-0.6,0.5-1.3,0.9-2.1,1.1c-0.6-0.5-1.3-1-1.9-1.5c-1-0.9-2-1.8-3-2.7
		c-0.4-0.4-0.5-0.2-0.6,0.2c-0.8-0.3-1.4-0.9-2-1.5c0-0.1-0.1-0.2-0.1-0.4c0.3-0.5,0-0.8-0.5-0.9c0-0.1-0.1-0.1-0.1-0.2
		c-0.1-0.8-0.8-1.2-1.2-1.7c-0.3-0.4-0.5-0.9-1.1-0.9c-0.6-0.7-1.4-0.6-2.2-0.4c-2-1.7-4.3-3.2-6-5.3c0,0-0.1,0-0.2-0.1
		c0-0.5,0.1-0.9,0.3-1.3c0.3-0.6,0.6-1.2,0.5-1.9C26.9,8.5,27,8.5,27,8.5z"/>
	<path class="st2" d="M21.8,41.4c1.4-0.7,2.3-1.9,3-3.2c0.4-0.7,0.4-0.7-0.3-1.2c-0.7-0.5-1.2-1.3-2-1.6c0.8-0.3,1.6-0.1,2.4,0.1
		c0,0,0,0,0,0c0.2,0.4,0.5,0.3,0.9,0.3l0,0c0.1,0.4,0.4,0.4,0.7,0.4c0.9,0.4,1.2,1.6,2.2,1.9c0.1-0.2,0.1-0.2,0.1-0.3
		c0-0.2,0-0.5,0-0.7c0-1.3,0-1.3,1.1-0.8c0.1,0,0.1,0,0.3-0.1c-0.1-0.4-0.5-0.8-0.3-1.3c0.3,0,0.6,0,0.9,0c0.1,0.2,0.1,0.4,0,0.7
		c-0.2,0.1-0.2,0.2,0,0.3c0.5,0.3,0.7,1,1.3,1.2c0.2,0.1,0.2,0.3,0.2,0.4c0,0.7,0,1.5,0,2.2c-0.1,0-0.2,0-0.2,0.1
		c-0.2-0.2-0.3-0.5-0.5-0.7c-0.4-0.4-0.5-0.3-0.9,0.3c-0.1,0-0.3,0-0.4,0c0.1-0.6,0.3-1.1,1-1.3c0.5-0.1,0.4-0.5,0.3-0.9
		c-0.1-0.4-0.4-0.3-0.7-0.2c-0.4,0.3-0.7,0-1-0.2c-0.1-0.1-0.2-0.4-0.5-0.2c-0.2,0.3-0.1,0.7-0.1,1c0,0.4-0.1,0.7-0.5,0.8
		c-0.4,0.1-0.8-0.1-0.9-0.4c-0.2-0.8-0.6-0.2-1-0.2c-0.1-0.3-0.1-0.8-0.6-0.3c-0.2,0-0.3,0.1-0.3,0.3c-0.1,0.7-0.6,1.2-0.8,1.9
		c-0.4,0.2-0.7,0.5-0.9,0.9c-0.1,0.2-0.3,0.5,0.1,0.5c0.3,0.1,0.4-0.1,0.4-0.4c0.5,0.1,0.6-0.5,1-0.5c0.7-0.2,0.5,0.8,1,0.9
		c0.3-0.3,0.1-0.6,0.2-0.9c0.2,0,0.5,0,0.7,0c0.1,0.4-0.3,0.7-0.3,1.1c0,0.2-0.1,0.5-0.1,0.7c-0.4,0.1-0.4,0.5-0.3,0.8
		c-0.1,0.4,0,0.9-0.2,1.3c-0.5-0.3-0.8-0.7-0.9-1.3c-0.1-0.3-0.2-0.5-0.3-0.8c-0.1-0.4-0.4-0.5-0.7-0.2c-1.1,0.8-2.2,1.6-2.9,2.9
		c-0.2,0.3-0.3,0.5-0.6,0.4c-0.3-0.1-0.3-0.4-0.3-0.6c0,0,0-0.1,0-0.1c-0.1-0.4,0.2-1-0.2-1.2c-0.4-0.3-1-0.1-1.5,0.1
		c-0.6,0.2-1.2,0.5-1.7,0.8c-0.2,0.1-0.3,0.3-0.5,0.1c-0.2-0.2-0.1-0.5,0.1-0.6c0.7-0.7,1.2-1.5,2.2-1.9c0.6,0,1.2,0.3,1.6-0.3
		c0,0,0,0,0,0C21.4,41.7,21.6,41.7,21.8,41.4z"/>
	<path class="st2" d="M42.9,51c-0.1,0-0.2,0-0.2-0.1c-0.1-0.4-0.4-0.5-0.7-0.4c-0.7,0-1.2-0.6-1.9-0.6c-0.3-0.3-0.7-0.5-1.1-0.4
		C36.3,49.1,34,48,32,46.3c-0.4-0.4-0.9-0.8-1-1.4c0.1-0.3,0.3-0.4,0.6-0.4c1,0,1,0,1-1c0-0.2,0-0.4,0-0.6c0-0.3,0.3-0.3,0.5-0.3
		c0,0,0,0,0,0c-0.1,0.4,0.2,0.6,0.5,0.7c0,0,0,0,0,0c0,0.2,0.1,0.3,0.2,0.4c0.3,0.3,0.7,0.6,1,0.4c0.4-0.3,0.2-0.7-0.1-1.1
		c-0.2-0.3-0.2-0.6-0.3-0.9c0-0.3-0.2-0.4-0.4-0.5c0-0.2,0-0.5-0.1-0.7c0.1-0.3,0.1-0.6,0.5-0.5c0,0,0,0,0,0c-0.1,0.4,0.1,0.8,0.5,1
		c0,0,0,0,0,0c0.1,0.9,0.7,1.3,1.4,1.7c0,0,0,0,0,0c0.4,0.8,1,1.3,1.9,1.4l0,0c0.1,0.4,0.4,0.5,0.7,0.5c0.7,0.4,1.4,0.8,1.9,1.4
		c0,0.2,0,0.3-0.1,0.4c-0.4,0.2-0.9,0.2-1.1,0c-0.7-0.5-1.4-0.3-2.1-0.4c-0.4-0.1-0.8-0.1-1.2-0.3c-0.9-0.3-1.8-0.7-2.8-1.2
		c0.2,1.3,1.2,1.6,1.9,2c1.3,0.8,2.7,1,4.1,1.4c0.8,0.2,1.6,0.5,2.4,0.8c0.3,0.6,0.9,0.8,1.5,0.9c0.3,0.3,0.5,0.7,1,0.9
		c0,0.3,0.1,0.6,0.5,0.5c0,0,0,0,0,0c0,0.1,0.1,0.2,0.2,0.3c0,0.1,0,0.1,0.1,0.2c0,0.3-0.2,0.5-0.5,0.5c-0.1,0-0.1-0.1-0.1-0.1
		c0.1-0.3-0.1-0.3-0.3-0.3c-0.1-0.1-0.2-0.1-0.3-0.3c0-0.2-0.1-0.2-0.2-0.2c0,0,0,0,0,0C43.5,51.1,43.3,51,42.9,51z"/>
	<path class="st3" d="M26.1,11.7c0.1,0,0.2,0,0.2,0.1c1.7,2.1,3.9,3.6,6,5.3c-0.5,1-1.2,1.8-1.6,2.9c-0.1,0.3-0.2,0.6-0.3,0.9
		c-0.4,0-0.5,0.2-0.4,0.5c-0.4,0.3-0.5,0.7-0.6,1.1c-0.1,0-0.3,0-0.3,0c-0.2,0.4-0.5,0.5-0.8,0c0-0.1-0.2,0-0.3-0.1c0,0,0-0.1,0-0.1
		c0-1.1-0.9-1.8-1.3-2.8c0,0-0.1,0-0.2,0c0,0-0.1,0-0.1,0c0.1-0.5,0.1-1-0.5-1.2c0-0.1,0-0.3-0.1-0.4c0.2-0.7,0.2-1.5-0.4-2.1
		c0-0.8-0.1-1.6,0.1-2.3c0.2,0,0.3,0,0.4-0.2c0.1-0.2-0.1-0.3-0.2-0.3C25.9,12.7,26.1,12.2,26.1,11.7z"/>
	<path class="st2" d="M26.9,34c0-0.6,0-1.3,0-1.9c0-1.9,1.1-3.1,2.6-4.1c0.1,0,0.2,0,0.2-0.1c0.3-0.4,0.8-0.3,1.1-0.7
		c0.3-0.4-0.1-0.8-0.2-1.2c-0.2-1.4,0.8-3.8,2-4.4c0.7-0.4,2,0,2.5,0.7c0.2,0.3,0.1,0.5,0,0.8c-0.1,0.5-0.4,0.9-0.6,1.4
		c-0.2,0.4-0.5,0.8-0.7,1.4c-0.5-0.5-0.1-1.2-0.5-1.7c-0.9,1.1-0.8,2.3-0.9,3.6c0,0.4,0,0.9-0.1,1.3c-0.4,1.1-0.8,1.3-1.9,1
		c-0.1,0-0.2-0.1-0.3-0.1c0,0,0,0,0,0c-0.4-0.3-0.7-0.3-0.9,0.2C28.5,31,28.5,32,28.5,33c0,1,0,1-1,1.1c-0.1,0-0.2,0-0.4,0
		C27,34,27,34,26.9,34z"/>
	<path class="st3" d="M39.5,23.1c0.1-0.4,0.2-0.6,0.6-0.2c1,0.9,2,1.8,3,2.7c0.6,0.6,1.3,1,1.9,1.5c0,0.1,0,0.3,0,0.4c0,0,0,0,0,0
		c-0.6,0.1-1.3-0.3-1.6,0.5c-1.6,0.3-3.2,0.6-4.8,0.5c0-0.4,0.1-0.7,0.2-1.1c0.2-0.6,0.9-1,0.6-1.8c0-0.1,0-0.1,0.1-0.2
		c0.7-0.5,0.7-1,0-1.4c-0.1,0-0.1-0.1-0.1-0.2C39.6,23.5,39.5,23.3,39.5,23.1z"/>
	<path class="st2" d="M30,45.5c-0.3,0.9-0.8,1.6-1.2,2.4c-0.4,0.6-0.8,0.6-1.4,0.4c-1.2-0.5-2.3-1.3-2.9-2.5
		c-0.1-0.3-0.3-0.3-0.5-0.3c-0.3-0.1-0.5-0.2-0.5-0.5c0-0.3,0.3-0.4,0.4-0.5c0.9-0.7,0.9-0.7,1.4,0.3c0.4,0.8,1,1.4,1.6,2
		c0.3,0.2,0.6,0.4,0.9,0.3c0.4-0.1,0.2-0.5,0.2-0.8c-0.1-1.3,0-2.6,0.5-3.9c0.1-0.2,0.2-0.4,0.5-0.4c0.3,0,0.4,0.2,0.4,0.4
		c0,0.1,0,0.2,0,0.2c0.1,0.6,0.7,0.8,0.9,1.3C30.6,44.5,29.7,44.9,30,45.5z"/>
	<path class="st2" d="M34.5,30.7c0,0.1,0,0.1-0.1,0.2C34.1,31,34,31.2,34,31.6c-0.4,1-0.7,1.9-1,2.9c0,0.2-0.1,0.4-0.3,0.4
		c-0.3,0-0.5-0.1-0.5-0.4c-0.1-0.2-0.1-0.5-0.2-0.7c-0.1-1.8,0.4-3.4,1.6-4.7c0.3-0.3,0.4-0.5,0.5-0.9c0.2-0.7,0.8-1.2,1.2-1.7
		c0.4-0.5,0.8-1,1.2-1.4c0.2,0,0.4-0.1,0.4-0.3c0-0.1,0.1-0.3,0.1-0.4c0.4,0.1,0.7-0.7,1.2-0.2c0,0.6-0.1,1.1-0.3,1.7
		c-0.8,1-1.6,2-2.3,3C35.2,29.5,34.6,29.9,34.5,30.7z"/>
	<path class="st2" d="M16.6,41c-1.7-0.9-1.7-0.9-0.3-2.2c0.1-0.1,0.2-0.1,0.3-0.2c0.4,0,0.5,0.3,0.5,0.6c0,0.2,0.1,0.3,0.3,0.2
		c0.2-0.1,0.1-0.2,0.2-0.4c0.1-0.1,0.3-0.1,0.4-0.2c0.3-0.3,0.6-0.3,1-0.3c0.4,0.1,0.2,0.5,0.3,0.7c0.2,0.3,0.5,0.5,0.7,0.1
		c0.2-0.4,0.6-0.4,0.8-0.8c0.2,0.3,0.3,0.5,0.4,0.8c0.4-0.5,0.7-1,1.3-1.3c0.2,0,0.4,0,0.6,0.1c0.3,0.8-0.1,1.4-0.6,1.8
		c-0.4,0.5-0.9,0.9-1.6,1.1c-0.5-0.1-0.9-0.1-1.4,0.2c-0.3,0.2-0.6,0.2-0.9,0.1C18,40.9,17.3,41,16.6,41z"/>
	<path class="st1" d="M34.5,30.7c0.1-0.7,0.7-1.2,1.1-1.8c0.7-1,1.6-2,2.3-3c0.2,0.1,0.4,0.3,0.7,0c0.2-0.2,0.5-0.4,0.8-0.3
		c0.3,0.8-0.4,1.2-0.6,1.8c-0.2,0.4-0.2,0.7-0.2,1.1c-0.7-0.2-1.2,0.2-1.5,0.8c-0.1,0.3-0.2,0.6-0.6,0.7c-0.4-0.3-0.4-0.3-0.5,0.5
		c-0.5,0.1-0.5,0.7-0.9,0.7C35,30.9,34.9,30.6,34.5,30.7z"/>
	<path class="st2" d="M35,31.2c0.4-0.1,0.4-0.7,0.9-0.7l0,0c0,0.2,0.1,0.4,0.1,0.5c-0.1,0.3-0.1,0.6-0.2,0.9
		c-0.5,0.1-0.4,0.5-0.3,0.8c0,1-0.1,2.1-0.1,3.1c0,0.8-0.1,1.6,0.4,2.3c0.1,0.1,0,0.4,0,0.7c-0.8-0.3-1.3-0.9-1.4-1.7
		c-0.3-1.8-0.2-3.5,0.5-5.2C35,31.6,35,31.4,35,31.2z"/>
	<path class="st2" d="M27.7,27.1c0.5-0.3,0.5-0.8,0-0.9c-0.9-0.2-0.1-0.5-0.2-0.8c0.5-0.5,1-1.1,1.5-1.6c0.1,0.1,0.3,0.2,0.4,0.2
		c0.1,2.3-1,3.9-2.6,5.4c-0.3,0-0.6,0-0.8,0.3c-1,0.4-1,0.4-1.1-0.5c0-0.2,0-0.4,0.1-0.6c0.2,0,0.3,0.1,0.5,0.3
		c0.3,0.3,0.7,0.3,0.8-0.2C27.2,28.4,27.5,27.8,27.7,27.1z"/>
	<path class="st2" d="M21.1,34.9c0.8-1.7,1.7-3.4,2.5-5c0.2-0.4,0.3-0.1,0.4,0.1c0.2,1-0.4,1.7-0.6,2.6c-0.5,0.1-0.6,0.5-0.9,1.1
		c1.2-0.2,2.2-0.3,3.2-0.2c0,0,0.1,0,0.1,0c0.1,0.1,0.2,0.3,0.3,0.4c0.5,0.5,0.2,0.6-0.3,0.7c-0.3,0-0.6-0.1-0.9-0.1
		c-0.9-0.8-2.2-0.6-2.9,0.6C21.7,35,21.4,35,21.1,34.9z"/>
	<path class="st1" d="M35.4,47c-0.8-0.4-1.7-0.7-1.9-2c1.1,0.5,1.9,1,2.8,1.2c0.4,0.1,0.8,0.2,1.2,0.3c0.7,0.1,1.5-0.1,2.1,0.4
		c0.3,0.2,0.8,0.2,1.1,0c0.2-0.1,0.1-0.3,0.1-0.4c0.8,0.1,1.1,0.7,1.4,1.4c-0.4,0.2-0.6,0-0.8-0.1c-1-0.3-2-0.8-3.1-0.8
		c-0.9,0-1.6-0.6-2.5-0.5C35.5,46.4,35.3,46.6,35.4,47z"/>
	<path class="st2" d="M27.1,4.6c0-0.4-0.1-0.7,0.2-1.1c0.3-0.4,0.2-0.7-0.4-0.8c-0.6-0.1-1.3,0-1.9-0.1c0.2-0.1,0.3-0.3,0.5-0.3
		c1.1-0.2,2.2-0.4,3.3-0.6c0.2,0,0.5-0.1,0.6,0.2c0.1,0.2,0,0.4-0.2,0.6C28.5,3.2,27.8,3.9,27.1,4.6z"/>
	<path class="st1" d="M34.5,17.5c0.6,0,0.8,0.5,1.1,0.9c0.4,0.6,1.2,0.9,1.2,1.7c-0.2,0-0.3,0-0.4-0.1c-0.2-0.1-0.3-0.2-0.5-0.3
		c-0.6-0.4-0.9,0.5-1.3,0.3c-0.5-0.3-0.8-0.4-1.2,0c-0.3,0.3-0.8,0.3-1.2-0.1c0.3-0.4,1-0.3,0.9-0.9c0-0.2,0.2-0.2,0.4-0.2
		C34.6,18.8,34.6,18.7,34.5,17.5z"/>
	<path class="st1" d="M30,45.5c-0.3-0.6,0.6-1,0.4-1.6c-0.2-0.5-0.8-0.7-0.9-1.3c0-0.1,0-0.2,0-0.2c0.3,0.1,0.4,0.4,0.6,0.6
		c0.3,0.4,0.6,0.7,1,1c0.3,0.2,0.7,0.6,1.1,0.4c0.5-0.3-0.1-0.7-0.1-1c0-0.3-0.1-0.6,0-0.9c0.1,0,0.3,0,0.3-0.2
		c0-0.2-0.2-0.2-0.3-0.2c-0.2-0.3-0.1-0.6,0.2-0.9c0.2,0.6,0.8,0.9,0.8,1.5c-0.2,0-0.5,0-0.5,0.3c0,0.2,0,0.4,0,0.6c0.1,1,0.1,1-1,1
		c-0.3,0-0.5,0-0.6,0.4C30.4,44.8,30.4,45.5,30,45.5z"/>
	<path class="st1" d="M23.5,45c0,0.3,0.2,0.4,0.5,0.5c-0.8,1.1-1.7,2.1-2.1,3.4c0,0.1-0.2,0.1-0.3,0.2c-0.1-0.3-0.3-0.5-0.5-0.8
		c-0.2-0.2-0.5-0.3-0.4-0.7c0.4,0.2,0.7,0.4,1-0.3c0.3-0.8,0.9-1.5,1.4-2.1C23.1,45.1,23.2,45,23.5,45z"/>
	<path class="st1" d="M30.5,39.6c0.1,0,0.3,0,0.4,0c0,0.6,0,1.3,0,1.9c0,0.2,0.1,0.5-0.3,0.6c-0.2,0-0.5,0-0.6-0.3
		c-0.2-0.6-0.7-0.9-0.6-1.6c-0.8,0.2-1.1,0.7-1.4,1.2c-0.1,0.2-0.2,0.4-0.5,0.4c0-0.4,0.4-0.7,0.3-1.1c0.3-0.2,0.5-0.4,0.8-0.7
		c0.6-0.4,0.7-0.4,1.1,0.2c0.2,0.3,0.2,0.7,0.6,0.8C30.5,40.4,30.4,40,30.5,39.6z"/>
	<path class="st2" d="M56.5,17.1C56.2,17,56,17,55.7,17c0.2-0.8,0.2-1.6,0.2-2.4c0-0.2,0-0.5,0.3-0.6c0.2-0.1,0.5,0.1,0.6,0.3
		c0.6,0.9,1.2,1.7,1.7,2.7c-0.2,0.1-0.4,0.1-0.5,0.2c0-0.1-0.1-0.1-0.1-0.2c0.2-0.4,0.1-0.5-0.3-0.4c0-0.1-0.1-0.1-0.1-0.2
		c0.2-0.4-0.2-0.4-0.3-0.6c-0.1-0.1-0.2-0.2-0.4-0.1c-0.2,0.1-0.1,0.3-0.1,0.5C56.6,16.5,56.5,16.8,56.5,17.1z"/>
	<path class="st1" d="M44.6,52.5c0.3,0,0.5-0.2,0.5-0.5c0.9,0.2,0.9,1.1,1.3,1.7c0.3,0.5,0.2,1.1,0.5,1.7c0.1,0.2,0,0.5-0.3,0.6
		c-0.2,0.1-0.4,0-0.4-0.3C46,54.4,45.2,53.5,44.6,52.5z"/>
	<path class="st1" d="M17.5,39c0,0.1,0,0.3-0.2,0.4c-0.2,0.1-0.3,0-0.3-0.2c0-0.3-0.1-0.6-0.5-0.6c1-1.4,2.2-2.6,4.1-2.6
		c-0.1,0.3-0.5,0.1-0.7,0.3c0.5,0.2,1.1-0.2,1.6,0.3c-1.3-0.2-2.4,0.2-3.3,1C17.8,38,17.5,38.4,17.5,39z"/>
	<path class="st2" d="M20.6,47.7c-0.1,0.3,0.2,0.5,0.4,0.7c0.2,0.2,0.5,0.4,0.5,0.8c0,0.1,0,0.2,0,0.2c-0.4,0.1-0.4,0.4-0.4,0.7
		c0,0.4-0.2,0.6-0.6,0.6c0,0,0-0.1,0-0.1c-0.2-0.7-0.4-1.4-0.6-2.1c-0.1-0.2-0.2-0.4-0.3-0.4c-0.1-0.5-0.1-1.1,0-1.6
		c0.3,0,0.4,0.2,0.4,0.5c0,0.3,0.3,0.4,0.6,0.5C20.6,47.5,20.6,47.6,20.6,47.7z"/>
	<path class="st1" d="M38.2,24.2c-0.5-0.5-0.8,0.3-1.2,0.2c-0.2-0.1-0.3-0.2-0.5-0.3c-0.1-0.2-0.2-0.4,0-0.5c0.1-0.1,0.3-0.1,0.4,0
		c0.5,0.6,0.6-0.2,0.9-0.3c0.3-0.1,0.2-0.4,0-0.7c-0.3-0.3-0.5-0.6-0.3-1c0.6,0.6,1.2,1.1,2,1.5c0,0.2,0.1,0.5,0,0.7
		C38.7,23.5,38.7,23.5,38.2,24.2z"/>
	<path class="st3" d="M31,35c-0.3,0-0.6,0-0.9,0c0-0.2,0-0.3-0.1-0.5c0.4-0.9,0.1-1.6-0.3-2.4c0,0-0.1,0-0.1,0c0-0.2,0-0.3,0-0.5
		c0.3-0.5,0.6-0.1,0.8,0.1c0.2,0.3,0.1,0.8,0.7,0.8C31.1,33.4,31.1,34.2,31,35z"/>
	<path class="st1" d="M26.1,11.7c0,0.5-0.1,1-0.3,1.4c-0.1,0-0.2,0-0.3,0c-0.3-1.6,0.3-3.1,1-4.5c0.1-0.1,0.2-0.2,0.4-0.2
		c0,0.7-0.3,1.3-0.5,1.9C26.2,10.8,26.1,11.3,26.1,11.7z"/>
	<path class="st1" d="M22.1,35c0.7-1.1,1.9-1.4,2.9-0.6c-0.4,0.1-0.9,0-1.4,0.2c0.4,0.3,0.7,0.2,1.1,0.3c0.2,0.1,0.3,0.2,0.3,0.4
		c-0.8-0.2-1.6-0.4-2.4-0.1C22.3,35.3,22.1,35.3,22.1,35z"/>
	<path class="st1" d="M16.6,41c0.7,0,1.4-0.1,2,0.3c0.3,0.2,0.6,0.1,0.9-0.1c0.4-0.3,0.9-0.3,1.4-0.2c-0.3,0.3-0.2,0.5,0.2,0.6
		c-0.4,0.6-1.1,0.3-1.6,0.3c-0.3-0.4-0.7-0.3-1.1-0.4C17.7,41.5,17.1,41.3,16.6,41z"/>
	<path class="st4" d="M33.5,5.9c-0.6,0.2-0.9-0.3-1.2-0.6c-0.6-0.6-1.2-1.2-2-1.3c0.4-0.6,0.6-0.6,1.2-0.2
		C32.2,4.4,32.9,5.1,33.5,5.9z"/>
	<path class="st1" d="M29.5,24c-0.1-0.1-0.3-0.2-0.4-0.2c-0.3-0.2-0.5-0.5-0.8-0.6C28.1,23,28,22.8,28,22.5c0.1,0,0.3,0,0.3,0.1
		c0.3,0.4,0.5,0.3,0.8,0c0-0.1,0.2,0,0.3,0C30.1,23.2,30.2,23.5,29.5,24z"/>
	<path class="st2" d="M31,32.6c-0.6,0-0.4-0.6-0.7-0.8c-0.2-0.2-0.4-0.7-0.8-0.1c-0.1-0.4,0-0.8,0-1.2c0-0.3,0.1-0.4,0.4-0.4
		c0,0,0,0,0,0c-0.2,0.6,0.3,1,0.6,1.4C30.8,31.7,31.2,32.1,31,32.6z"/>
	<path class="st1" d="M34,41.7c0.3,0.1,0.4,0.2,0.4,0.5c0,0.3,0.1,0.6,0.3,0.9c0.2,0.3,0.5,0.8,0.1,1.1c-0.3,0.2-0.7-0.1-1-0.4
		c-0.1-0.1-0.2-0.2-0.2-0.4c0.2,0.1,0.5,0.2,0.8,0.3C34.5,42.9,33.8,42.4,34,41.7z"/>
	<path class="st4" d="M39,10.5c-0.5,0.3-0.8-0.2-1.1-0.5c-0.5-0.4-1.3-0.5-1.4-1.4C37.4,8.9,38.5,9.6,39,10.5z"/>
	<path class="st1" d="M25.7,33.4c-1-0.1-2,0-3.2,0.2c0.3-0.6,0.4-1,0.9-1.1c0.1,0.4,0.3,0.5,0.7,0.5c0.4,0,0.8,0,1.2,0
		C25.5,33.1,25.7,33.1,25.7,33.4z"/>
	<path class="st2" d="M26.6,19.7c0.1,0,0.2,0,0.2,0c0.3,1,1.2,1.7,1.3,2.8C27.4,21.9,26.7,20.6,26.6,19.7z"/>
	<path class="st4" d="M43.8,14.6c-0.1,0-0.2,0.1-0.2,0.1c-0.6-0.2-1.7-1.2-2-1.9C42.6,13,43.2,13.8,43.8,14.6z"/>
	<path class="st2" d="M21.6,36.7c-0.4-0.5-1.1-0.2-1.6-0.3c0.2-0.2,0.5-0.1,0.7-0.3c0.7-0.1,1.4-0.2,1.9,0.5c0,0.3-0.2,0.5-0.5,0.5
		C21.9,36.9,21.6,36.9,21.6,36.7z"/>
	<path class="st1" d="M34.5,40.5c-0.4-0.1-0.5,0.3-0.5,0.5c-0.7-0.5-0.3-1.1-0.3-1.8C34.3,39.5,34.6,39.8,34.5,40.5z"/>
	<path class="st1" d="M20.5,50.7c0.4,0,0.5-0.3,0.6-0.6c0-0.3,0-0.6,0.4-0.7c0.1,0.8,0,1.5-0.7,2.1C20.6,51.2,20.5,51,20.5,50.7z"/>
	<path class="st1" d="M19.6,48.1c0.2,0.1,0.3,0.3,0.3,0.4c0.2,0.7,0.4,1.4,0.6,2.1C19.7,50,19.5,49.1,19.6,48.1z"/>
	<path class="st1" d="M25.9,34.6c0.5-0.1,0.8-0.2,0.3-0.7c-0.1-0.1-0.2-0.3-0.3-0.4c0.5,0,0.9,0.2,1.1,0.6c0.1,0,0.1,0,0.2,0
		c0,0.3,0.2,0.8-0.2,0.9C26.5,35.1,26.1,35.1,25.9,34.6z"/>
	<path class="st1" d="M22,37c0.3-0.1,0.5-0.2,0.5-0.5c0.5,0.2,0.9,0.5,1,1.1c-0.3,0.1-0.5,0.3-0.5,0.6c0,0,0,0,0,0
		c-0.2,0-0.4,0-0.6-0.1C22.7,37.5,22.4,37.2,22,37z"/>
	<path class="st1" d="M25.6,16c0.6,0.6,0.6,1.3,0.4,2.1C25.4,17.4,25.4,16.7,25.6,16z"/>
	<path class="st1" d="M36.4,43.1c-0.7-0.4-1.3-0.8-1.4-1.7C35.6,41.9,36,42.5,36.4,43.1z"/>
	<path class="st1" d="M38.3,44.5c-0.9-0.2-1.5-0.6-1.9-1.4C37.1,43.5,37.8,43.9,38.3,44.5z"/>
	<path class="st1" d="M43.4,28c0.3-0.8,1-0.4,1.6-0.5C44.6,28.2,44,28,43.4,28z"/>
	<path class="st4" d="M45,15.5c-0.8,0-0.9-0.1-1.1-0.9C44.4,14.8,44.9,14.9,45,15.5z"/>
	<path class="st1" d="M26,18.5c0.6,0.2,0.6,0.7,0.5,1.2C26,19.4,25.8,19,26,18.5z"/>
	<path class="st4" d="M34.7,6.9C34,7,33.6,6.7,33.6,6C34.2,6.1,34.4,6.5,34.7,6.9z"/>
	<path class="st1" d="M18.8,44.9c0.2-0.4,0.6-0.5,1-0.4c0.3,0,0.4,0.2,0.2,0.5c-0.4-0.1-0.7,0-1.1,0C18.9,45,18.9,45,18.8,44.9z"/>
	<path class="st4" d="M41.4,12.6c-0.6,0.1-0.9-0.3-0.9-0.8C41.1,11.8,41.3,12.1,41.4,12.6z"/>
	<path class="st1" d="M43.4,50.1c-0.6-0.1-1.1-0.3-1.5-0.9C42.5,49.3,43.1,49.5,43.4,50.1z"/>
	<path class="st2" d="M18.9,45c0.4,0,0.7-0.1,1.1,0c0,0.2,0,0.3,0,0.5c-0.3,0-0.6,0-0.9,0C18.7,45.5,18.8,45.3,18.9,45z"/>
	<path class="st1" d="M38.9,49.6c0.5-0.1,0.8,0.1,1.1,0.4C39.6,50,39.1,50.2,38.9,49.6z"/>
	<path class="st1" d="M35,41.4c-0.4-0.2-0.6-0.5-0.5-1C35,40.6,35,41,35,41.4z"/>
	<path class="st1" d="M36.9,20.4c0.5,0.1,0.7,0.3,0.5,0.9C37,21,36.8,20.8,36.9,20.4z"/>
	<path class="st1" d="M39.1,45c-0.4,0-0.7,0-0.7-0.5C38.7,44.5,39,44.6,39.1,45z"/>
	<path class="st1" d="M35.5,32.6c0-0.3-0.2-0.7,0.3-0.8C35.9,32.2,35.9,32.5,35.5,32.6z"/>
	<path class="st1" d="M27.1,43.1c-0.1-0.3-0.1-0.7,0.3-0.8C27.5,42.7,27.5,43,27.1,43.1z"/>
	<path class="st1" d="M34,31.6c-0.1-0.4,0-0.6,0.5-0.7C34.6,31.3,34.4,31.5,34,31.6z"/>
	<path class="st2" d="M35.9,30.4c0.1-0.7,0.1-0.7,0.5-0.5c0,0.1-0.1,0.3-0.1,0.4C36.2,30.4,36.1,30.4,35.9,30.4L35.9,30.4z"/>
	<path class="st1" d="M41.9,50.6c0.3-0.1,0.6,0,0.7,0.4C42.3,51,42,50.9,41.9,50.6z"/>
	<path class="st1" d="M42.9,51c0.4-0.1,0.6,0,0.7,0.5C43.2,51.5,43,51.4,42.9,51z"/>
	<path class="st4" d="M36.4,8.5c-0.4,0.1-0.5,0-0.4-0.4C36.3,8.2,36.4,8.3,36.4,8.5z"/>
	<path class="st4" d="M35.9,8.1c-0.3,0.1-0.5,0-0.4-0.4C35.8,7.7,35.9,7.8,35.9,8.1z"/>
	<path class="st4" d="M39.5,11c-0.3,0.1-0.5,0-0.4-0.4C39.4,10.6,39.5,10.7,39.5,11z"/>
	<path class="st4" d="M35.4,7.6c-0.3,0.1-0.4,0-0.4-0.4C35.3,7.2,35.4,7.3,35.4,7.6z"/>
	<path class="st2" d="M32,42c0.1,0,0.3,0,0.3,0.2c0,0.2-0.2,0.2-0.3,0.2C32,42.2,32,42.1,32,42z"/>
	<path class="st2" d="M23,38.1c0-0.3,0.2-0.5,0.5-0.6C23.5,37.9,23.7,38.4,23,38.1z"/>
	<path class="st1" d="M33.6,43.3c-0.3-0.1-0.6-0.3-0.5-0.7C33.4,42.8,33.6,42.9,33.6,43.3z"/>
	<path class="st4" d="M40,11.4c-0.3,0.1-0.4-0.1-0.4-0.4C39.9,11.1,40,11.2,40,11.4z"/>
	<path class="st2" d="M25.5,13.2c0.1,0,0.2,0,0.3,0c0.2,0.1,0.3,0.2,0.2,0.3c-0.1,0.2-0.2,0.2-0.4,0.2
		C25.5,13.5,25.5,13.4,25.5,13.2z"/>
	<path class="st4" d="M28.5,5.6c0,0.2-0.1,0.4-0.3,0.3C28.1,5.7,28.2,5.6,28.5,5.6z"/>
	<path class="st4" d="M28.9,5.1c0,0.3-0.1,0.4-0.3,0.3C28.5,5.2,28.7,5.1,28.9,5.1z"/>
	<path class="st1" d="M26.1,29.7c0.2-0.3,0.5-0.3,0.8-0.3C26.7,29.7,26.5,29.7,26.1,29.7z"/>
	<path class="st4" d="M45.5,16c-0.3,0.1-0.5,0-0.4-0.4C45.4,15.6,45.5,15.7,45.5,16z"/>
	<path class="st1" d="M30.1,21.4c-0.2-0.4,0-0.5,0.4-0.5C30.5,21.2,30.4,21.4,30.1,21.4z"/>
	<path class="st1" d="M44.8,51.5c-0.4,0.1-0.4-0.2-0.5-0.5C44.7,51,44.8,51.2,44.8,51.5z"/>
	<path class="st1" d="M35.9,30.4c0.1,0,0.3,0,0.4,0c0.1,0.3-0.1,0.5-0.3,0.6C36,30.8,36,30.6,35.9,30.4z"/>
	<path class="st1" d="M21.8,41.4c-0.2,0.3-0.5,0.3-0.8,0.2C21.3,41.4,21.5,41.4,21.8,41.4z"/>
	<path class="st1" d="M36.9,24.9c0,0.3-0.2,0.3-0.4,0.3C36.5,24.9,36.6,24.9,36.9,24.9z"/>
	<path class="st1" d="M44.1,52c0.2,0,0.4,0,0.3,0.3C44.3,52.3,44.2,52.1,44.1,52z"/>
	<path class="st3" d="M31,35.9c-0.2-0.1-0.2-0.2,0-0.3C31,35.7,31,35.8,31,35.9z"/>
	<path class="st1" d="M56.3,13.8C56.2,13.8,56.2,13.9,56.3,13.8c-0.1,0-0.2,0-0.2,0C56.1,13.8,56.2,13.8,56.3,13.8
		C56.2,13.8,56.2,13.8,56.3,13.8z"/>
	<path class="st1" d="M43.6,51.5c0.1,0,0.2,0,0.2,0.2C43.7,51.7,43.7,51.6,43.6,51.5z"/>
	<path class="st1" d="M45,51.7c-0.1-0.1-0.2-0.1-0.2-0.3C45,51.5,45.1,51.6,45,51.7z"/>
	<path class="st4" d="M24.5,25.7C24.5,25.7,24.5,25.8,24.5,25.7C24.2,25.9,24,26,24,26.4c0,0,0,0,0,0c-0.5,0-0.5,0.3-0.5,0.7
		c0,0,0,0,0,0c-0.3,0-0.5,0.2-0.5,0.5c-0.9,1.6-1.6,3.2-2.4,4.9c-0.6,1.2-1.5,2-2.7,2.5c-2,0.9-3.2,2.4-4.3,4.2
		c-0.5,0.8-0.2,1.7,0.7,2.4c0.7,0.6,0.7,0.6,0.2,1.3c-1,1.7-1.6,3.6-1.6,5.6c0,0.8-0.3,1-1.1,0.9c-0.9-0.2-1.6-0.6-2.3-1.2
		c-1.3-1.2-2.4-2.5-2.7-4.4c0-0.2-0.2-0.4-0.3-0.7c-0.1-0.6-0.5-0.7-1.1-0.7c-0.3,0-0.6,0.4-0.9,0c-0.2-0.3-0.4-0.6-0.5-0.9
		c-0.6-2.3-1.1-4.6-0.6-7c0.1-0.3,0-0.7,0-1.1c0-1.7,0.4-3.3,0.9-4.9c0.4-1.3,0.8-2.4,1.4-3.6c0.6-1.3,1.4-2.4,2.3-3.4
		c0.9-0.1,1.8,0.4,2.7,0.5c1.3,0.1,2.6,0.6,4,0.5c0.1,0,0.2,0.1,0.3,0.1c0.7,0.4,1.5,0.5,2.3,0.7c0.8,0.1,1.6,0.5,2.4,0.6
		c1,0.1,2,0.3,3,0.3C23.9,24.2,24.3,24.7,24.5,25.7z"/>
	<path class="st5" d="M24.5,25.7c-0.2-1.1-0.6-1.5-1.7-1.5c-1,0-2-0.2-3-0.3c-0.8-0.1-1.6-0.5-2.4-0.6c-0.8-0.1-1.6-0.3-2.3-0.7
		c-0.1-0.1-0.2-0.1-0.3-0.1c-1.4,0.1-2.7-0.4-4-0.5c-0.9-0.1-1.7-0.6-2.7-0.5c0.7-1.3,1.8-2.2,3.1-2.8c0.6-0.3,0.9-0.6,0.8-1.2
		c-0.1-0.6-0.6-0.9-1.3-1c-1.1-0.1-2.1,0.3-3.1,0.7c-0.1,0.1-0.3,0.2-0.4,0.2c-0.2,0.1-0.3,0-0.4-0.1c0-0.1,0-0.3,0-0.3
		c0.7-0.7,0.9-1.7,1.6-2.4c1.3-1.5,2.5-3.2,4-4.5c2.5-2,5.1-3.9,8-5.2c1.6-0.7,3.3-1.1,4.9-1.7c0.4-0.1,0.8-0.1,1.2,0
		c0.1,0.4-0.2,0.7-0.4,1c-1.1,1.5-1.9,3.1-2.4,4.9c-0.6,2-0.9,4.1-0.8,6.2c0,1.4,0.5,2.7,0.8,4c0.4,1.5,1.1,2.9,1.9,4.3
		c0.4,0.7,0.3,1-0.3,1.4C25.1,25.3,24.9,25.7,24.5,25.7z"/>
	<path class="st0" d="M27.7,27.1c-0.2,0.7-0.5,1.4-1.3,1.5c-0.2-0.1-0.4-0.2-0.3-0.5c0.1-0.5,0.4-0.9,0.6-1.3
		C26.9,26.4,27.3,26.5,27.7,27.1z"/>
	<path class="st2" d="M26.4,23.8c0.7,0.3,0.8,0.5,0.6,0.9c-0.1,0.1-0.2,0.2-0.3,0.2C26.4,24.6,26.7,24.2,26.4,23.8z"/>
	<path class="st5" d="M23.5,27c0-0.4,0-0.7,0.5-0.7C24,26.7,23.9,27,23.5,27z"/>
	<path class="st5" d="M23,27.6c0-0.3,0.1-0.5,0.5-0.5C23.5,27.4,23.3,27.5,23,27.6z"/>
	<path class="st5" d="M24,26.4c0-0.4,0.2-0.5,0.5-0.5C24.5,26.2,24.3,26.3,24,26.4z"/>
	<path class="st4" d="M60.9,37.3c0.1,0.9-0.3,1.7-0.4,2.6c-0.3,1.9-1.3,3.5-2.1,5.2c-1.5,3.1-3.7,5.7-6.1,8.2
		c-0.7,0.8-1.6,1.4-2.5,2c-0.4,0.3-0.7,0.1-0.7-0.3c0-2.6-1.4-4.6-2.7-6.6c-1.2-1.7-2.4-3.3-4.1-4.4c-0.1,0-0.1-0.1-0.2-0.2
		c-1-0.5-1.9-1-1.7-2.4c0,0,0-0.1,0-0.1c-1.4-0.8-0.5-2.5-1.3-3.5c-0.1-0.2,0-0.4,0.1-0.7c0.4-0.7,0.4-1.4,0-2.1
		c-0.6-0.9-0.7-2-0.7-3.1c0-0.6,0.3-0.9,0.9-0.8c0.6,0,1.2,0,1.8,0c1.8,1,3.8,1.5,5.9,1.7c2.1,0.2,4.2,0.6,6.2,1.4
		c0.7,0.3,1.4,0.4,2.1,0.3c1.3-0.1,2.5,0.2,3.7,0.6c0.5,0.2,1.2,0.1,1.6,0.5C61.1,36,60.7,36.7,60.9,37.3z"/>
	<path class="st5" d="M60.9,37.3c-0.2-0.6,0.2-1.3-0.3-1.7c-0.4-0.4-1-0.3-1.6-0.5c-1.2-0.4-2.4-0.6-3.7-0.6c-0.7,0-1.4-0.1-2.1-0.3
		c-2-0.8-4.1-1.1-6.2-1.4c-2-0.2-4-0.7-5.9-1.7c0.5-0.4,1.1-0.3,1.7-0.4c2.2-0.4,4.4-1.1,6.3-2.3c0.6-0.4,1.2-0.9,1.8-1.4
		c1.6-1.6,3.1-3.2,4.1-5.3c0.5-1.1,0.6-2.3,1.4-3.3c0.3-0.3,0.2-0.8,0.1-1.3c0-0.3,0.1-0.5,0.1-0.8c0.2,0.1,0.5,0.3,0.8,0.2
		c0,0.1,0.1,0.1,0.1,0.2c0,0.2,0,0.4,0.3,0.4c0.1,0,0.1,0.1,0.1,0.2c0,0.9,0.4,1.6,0.9,2.3c0.8,1.2,1.1,2.6,1.6,3.9
		c0.2,0.6,0.4,1.3,0.6,1.9c0.8,2.9,1,5.8,0.8,8.7c0,0.8-0.2,1.6-0.3,2.4C61.4,36.8,61.3,37.1,60.9,37.3z"/>
	<path class="st0" d="M25.9,34.6c0.2,0.5,0.7,0.6,1.1,0.4c0.4-0.2,0.2-0.6,0.2-0.9c0.1,0,0.2,0,0.4,0c1-0.1,1-0.1,1-1.1
		c0-1,0.1-2,0.6-2.8c0.3-0.4,0.6-0.5,0.9-0.2c-0.3,0-0.4,0.2-0.4,0.4c-0.1,0.4-0.2,0.8,0,1.2c0,0.2,0,0.3,0,0.5
		c0,0.8-0.2,1.7,0.4,2.4c0,0.2,0,0.3,0.1,0.5c-0.2,0.5,0.2,0.9,0.3,1.3c-0.1,0-0.2,0.1-0.3,0.1c-1.2-0.5-1.2-0.5-1.1,0.8
		c0,0.2,0,0.5,0,0.7c0,0.1-0.1,0.1-0.1,0.3c-1-0.4-1.3-1.5-2.2-1.9c-0.1-0.3-0.5-0.4-0.7-0.4c0,0,0,0,0,0c-0.2-0.4-0.5-0.3-0.9-0.3
		c0,0,0,0,0,0c0-0.2-0.1-0.3-0.3-0.4c-0.3-0.1-0.7,0-1.1-0.3c0.5-0.3,0.9-0.1,1.4-0.2C25.2,34.5,25.5,34.5,25.9,34.6z"/>
	<path class="st3" d="M30.5,39.6c-0.1,0.4,0,0.9-0.1,1.3c-0.4-0.2-0.4-0.6-0.6-0.8c-0.4-0.6-0.6-0.6-1.1-0.2
		c-0.3,0.2-0.6,0.4-0.8,0.7c-0.2,0-0.5,0-0.7,0c-0.1-0.6,0.1-1.3-0.1-1.9c0-0.1,0-0.3,0.1-0.4c0.3,0,0.7-0.6,1,0.2
		c0.1,0.3,0.5,0.5,0.9,0.4c0.4-0.1,0.5-0.4,0.5-0.8c0-0.3-0.1-0.7,0.1-1c0.3-0.1,0.4,0.1,0.5,0.2c0.3,0.3,0.6,0.5,1,0.2
		c0.2-0.2,0.6-0.2,0.7,0.2c0.1,0.3,0.2,0.7-0.3,0.9C30.8,38.5,30.5,38.9,30.5,39.6z"/>
	<path class="st0" d="M27.1,38.1c0,0.1,0,0.3-0.1,0.4c-0.1,0.1-0.2,0.1-0.3,0.2c-0.3,1.1-0.3,1.1-0.9,1.8c-0.4,0-0.5,0.6-1,0.5
		c0-0.4,0.3-0.7,0.4-1.1c0.3-0.6,0.7-1.2,0.8-1.9c0.2,0,0.4,0,0.3-0.3C27,37.3,27,37.8,27.1,38.1z"/>
	<path class="st1" d="M25.9,40.5c0.6-0.6,0.6-0.6,0.9-1.8c0-0.1,0.2-0.1,0.3-0.2c0.2,0.6,0,1.3,0.1,1.9c-0.1,0.3,0.1,0.6-0.2,0.9
		C26.4,41.3,26.6,40.3,25.9,40.5z"/>
	<path class="st1" d="M25.3,40c-0.1,0.4-0.4,0.7-0.4,1.1c0,0.3-0.1,0.4-0.4,0.4c-0.4-0.1-0.2-0.4-0.1-0.5
		C24.6,40.4,24.9,40.1,25.3,40z"/>
	<path class="st1" d="M25.9,35.7c0.3,0.1,0.6,0.1,0.7,0.4C26.3,36.2,25.9,36.2,25.9,35.7z"/>
	<path class="st1" d="M25,35.4c0.3,0,0.7,0,0.9,0.3C25.5,35.7,25.2,35.8,25,35.4z"/>
	<path class="st1" d="M26.5,37.8c0.1,0.3-0.1,0.3-0.3,0.3C26.2,37.9,26.3,37.8,26.5,37.8z"/>
	<path class="st0" d="M38.2,24.2c0.4-0.7,0.4-0.7,1.2-0.4c0,0.1,0,0.1,0.1,0.2c-0.1,0.5-0.1,1,0,1.4c-0.1,0-0.1,0.1-0.1,0.2
		c-0.3,0-0.6,0.1-0.8,0.3c-0.3,0.3-0.5,0.1-0.7,0C38.1,25.3,38.2,24.8,38.2,24.2z"/>
	<path class="st2" d="M39.5,25.4c-0.1-0.5-0.1-1,0-1.4C40.2,24.4,40.2,24.9,39.5,25.4z"/>
	<path class="st0" d="M22,37c0.4,0.3,0.7,0.6,0.5,1.1c-0.6,0.2-0.9,0.8-1.3,1.3c-0.1-0.3-0.2-0.5-0.4-0.8c-0.2,0.4-0.6,0.4-0.8,0.8
		c-0.2,0.4-0.6,0.2-0.7-0.1c-0.1-0.2,0-0.6-0.3-0.7c-0.4-0.1-0.7,0-1,0.3c-0.1,0.1-0.3,0.1-0.4,0.2c0-0.6,0.3-1,0.7-1.4
		c1-0.8,2-1.2,3.3-1C21.6,36.9,21.9,36.9,22,37z"/>
	<path class="st1" d="M57.4,16.5c-0.3,0.1-0.5-0.1-0.8-0.2c-0.1-0.2-0.1-0.4,0.1-0.5c0.1-0.1,0.3,0,0.4,0.1
		C57.2,16.1,57.6,16.2,57.4,16.5z"/>
	<path class="st1" d="M57.8,17c-0.3,0-0.3-0.1-0.3-0.4C57.9,16.6,58,16.7,57.8,17z"/>
	<path class="st2" d="M30,34.5c-0.7-0.7-0.4-1.6-0.4-2.4c0,0,0.1,0,0.1,0C30,32.9,30.3,33.6,30,34.5z"/>
</g>
</svg>
