<svg id="Слой_1" data-name="Слой 1" xmlns="http://www.w3.org/2000/svg" viewBox="0 0 250 250"><defs><style>.cls-1{fill:#21193e;}.cls-2{fill:#8bb0f7;}.cls-3{fill:#c92a66;}.cls-4{font-size:34.8px;fill:#fff;font-family:MyriadPro-Regular, Myriad Pro;}.cls-5{letter-spacing:-0.03em;}.cls-6{letter-spacing:0em;}.cls-7{letter-spacing:0em;}</style></defs><title>wtl</title><rect class="cls-1" width="250" height="250"/><path class="cls-2" d="M112.19,95.61,97.51,116.5a9.8,9.8,0,0,1-14.11,2l-5.69-4.56a12.23,12.23,0,0,1-4.6-9.54V66.45A10.56,10.56,0,0,1,83.72,55.94h81.06a11.75,11.75,0,0,1,11.79,11.69v4.7l-24.25,33.18a8.87,8.87,0,0,1-12.76,1.62l-16-13.06A7.87,7.87,0,0,0,112.19,95.61Z"/><path class="cls-3" d="M73.11,133.33v12.93a11.28,11.28,0,0,0,11.27,11.27h80.25a12,12,0,0,0,11.94-11.94v-40a4.48,4.48,0,0,0-8.09-2.66L149,129.44l-23.1-16.7a8.65,8.65,0,0,0-12.3,2.26L101.4,133.48a8.16,8.16,0,0,1-11.2,2.41l-10.07-6.42A4.57,4.57,0,0,0,73.11,133.33Z"/><text class="cls-4" transform="translate(53.92 195.55) scale(1.01 1)"><tspan class="cls-5">W</tspan><tspan x="28.29" y="0">ellt</tspan><tspan class="cls-6" x="73.66" y="0">r</tspan><tspan class="cls-7" x="84.87" y="0">ado</tspan></text></svg>