<svg id="Слой_1" data-name="Слой 1" xmlns="http://www.w3.org/2000/svg" viewBox="0 0 122.02 122.29"><defs><style>.cls-1{fill:#ee732e;}</style></defs><title>xbd</title><path class="cls-1" d="M117,122.29H4.72v-5.82H0V5.27H4.72V0H116.44l.83,5.27H122V116.81l-5,.28Zm-104.3-8H109v-4.77l5-.28v-96h-3.58L109.61,8H12.72v5.27H8v95.2h4.72Z"/><rect class="cls-1" x="52.78" y="63.49" width="7.09" height="16.34"/><path class="cls-1" d="M74.93,49.23c-.13-7.63-9.71-6.61-9.71-6.61V57.34S75.07,56.85,74.93,49.23Z"/><rect class="cls-1" x="52.78" y="42.62" width="7.09" height="14.71"/><path class="cls-1" d="M103.44,19.49l-.67-4.23H19v4.23H15.23v82.87H19V107h83.75v-4l4-.22V19.49ZM83.37,72.05A14.88,14.88,0,0,1,68.2,85.6l-2.71,0-.13,9.09H60l-.13-9.09H52.78l.14,9.09H47.43l-.12-8.46-8-.23V80.61l6.43-.24L46,42.62H38.6V36.34h9.23v-8.7h5.35v8.7H60v-8.7h5.62v8.7s14.92-.1,15.92,10.7c1,11.32-7.09,12.57-7.09,12.57s9.1,1.2,9,11.37C83.41,71.34,83.39,71.7,83.37,72.05Z"/><path class="cls-1" d="M65.22,63.49V79.83s11.5,2.54,11.1-8.17S65.22,63.49,65.22,63.49Z"/></svg>