<svg id="Слой_1" data-name="Слой 1" xmlns="http://www.w3.org/2000/svg" viewBox="0 0 67.57 67.22"><defs><style>.cls-1{fill:#e69e48;}.cls-2{fill:#77bdaa;}.cls-3{fill:#7baee1;}</style></defs><title>xem</title><path class="cls-1" d="M0,8.68C14.14.61,30.14-1.09,42.89.56,31,6.05,33.21,19.43,29.48,25.89c-5,8.6-14.11,10.09-21,6.11-2.55-1.47-5.42-4.3-6.3-7.39A70.1,70.1,0,0,1,0,8.68" transform="translate(0 0.01)"/><path class="cls-2" d="M46.5,57.36a70.28,70.28,0,0,1-12.71,9.85C19.73,59,10.26,46,5.31,34.13,16,41.66,26.49,33.07,34,33.07c9.93,0,15.8,7.18,15.8,15.14,0,2.95-1,6.85-3.25,9.15" transform="translate(0 0.01)"/><path class="cls-3" d="M53.16,49.88c1.18-13-11.51-17.81-15.24-24.28C33,17,36.24,8.33,43.14,4.35c2.55-1.47,6.43-2.54,9.55-1.76A70.23,70.23,0,0,1,67.57,8.68C67.49,25,61,39.66,53.16,49.88" transform="translate(0 0.01)"/></svg>