<svg id="Слой_1" data-name="Слой 1" xmlns="http://www.w3.org/2000/svg" viewBox="0 0 329.96 363.59"><defs><style>.cls-1{fill:#f4da50;stroke-width:4px;}.cls-1,.cls-2,.cls-5,.cls-6{stroke:#a5962d;stroke-miterlimit:10;}.cls-2{fill:#fff89b;stroke-width:2px;}.cls-3{fill:#f4eb79;}.cls-4{fill:#fefcd7;}.cls-5{fill:#f4f0b6;}.cls-6{fill:#f2edae;}.cls-7{fill:#7f5c28;}</style></defs><title>xfc</title><ellipse class="cls-1" cx="164.98" cy="181.79" rx="162.98" ry="179.79"/><ellipse class="cls-2" cx="164.98" cy="181.79" rx="120.89" ry="133.36"/><path class="cls-3" d="M88,104.83s73.1-42.58,152.63,0c0,0,43.81,135-78.11,188C162.48,292.81,45.38,241.4,88,104.83Z"/><path class="cls-4" d="M97.6,112.86S80.73,171.51,104,216.49l20.08-5.62s6.22-34.54,40.87-33.74,41.07,33.74,41.07,33.74l19.28,5.62s24.46-49,4.82-103.63C230.15,112.86,177.93,82.33,97.6,112.86Z"/><polygon class="cls-5" points="106.17 123.65 117.91 149.38 106.17 184.6 115.67 181.79 122.38 157.89 129.65 176.22 138.6 172.3 127.42 144.9 138.6 114.15 129.66 115.48 122.38 134.28 115.67 119.18 106.17 123.65"/><polygon class="cls-5" points="175.61 147.42 162.48 147.14 162.48 166.71 152.02 166.71 152.02 110.23 180.54 110.23 180.54 120.86 162.48 121.45 162.48 138.47 176.07 138.47 175.61 147.42"/><path class="cls-6" d="M219.12,143.78l-7-3.91a4.9,4.9,0,0,1-2.5-4.27v-4.15a3.7,3.7,0,0,0-1.94-3.26l-1.5-.82a1.83,1.83,0,0,0-2.71,1.61v32.3a9.92,9.92,0,0,0,4.56,8.36h0a2.12,2.12,0,0,0,3.27-1.78v-6.74l7.82,5.59v12.76a3.29,3.29,0,0,1-4.66,3l-15.37-7a9.72,9.72,0,0,1-5.69-8.85V121.37a7.46,7.46,0,0,1,10.3-6.89l9,3.73a10.35,10.35,0,0,1,6.4,9.57Z"/><ellipse class="cls-7" cx="165.33" cy="221.97" rx="34.1" ry="37.36"/></svg>