<?xml version="1.0" encoding="utf-8"?>
<!-- Generator: Adobe Illustrator 23.0.1, SVG Export Plug-In . SVG Version: 6.00 Build 0)  -->
<svg version="1.1" id="Слой_1" xmlns="http://www.w3.org/2000/svg" xmlns:xlink="http://www.w3.org/1999/xlink" x="0px" y="0px"
	 viewBox="0 0 70.01 77.6" style="enable-background:new 0 0 70.01 77.6;" xml:space="preserve">
<style type="text/css">
	.st0{fill:#565F67;}
	.st1{fill:#212527;}
	.st2{fill:#DBB250;}
	.st3{fill:#D77E47;}
	.st4{fill:#D7ECF2;}
</style>
<path class="st0" d="M26.97,29.71C16.48,27.47,6.71,33.82,0.51,42.67c7.44-1.81,14.1-0.15,18.26,1.71
	C20.55,41.16,26.97,29.71,26.97,29.71"/>
<path class="st1" d="M26.97,29.71l0.11-0.51c-1.48-0.32-2.94-0.47-4.38-0.47c-4.53,0-8.84,1.48-12.68,3.93
	c-3.84,2.44-7.23,5.84-9.93,9.71c-0.12,0.18-0.13,0.41,0,0.59c0.12,0.18,0.34,0.26,0.55,0.21c2.22-0.54,4.37-0.77,6.41-0.77
	c4.65,0,8.68,1.18,11.51,2.44c0.25,0.11,0.54,0.01,0.67-0.22c0.89-1.61,2.94-5.27,4.77-8.54c0.91-1.63,1.77-3.17,2.4-4.29
	c0.63-1.12,1.03-1.84,1.03-1.84c0.08-0.14,0.09-0.32,0.02-0.47c-0.07-0.15-0.2-0.26-0.36-0.29L26.97,29.71l-0.45-0.26
	c0,0-6.42,11.45-8.21,14.67l0.46,0.25l0.21-0.48c-2.95-1.31-7.12-2.53-11.94-2.53c-2.11,0-4.34,0.23-6.65,0.8l0.12,0.51l0.43,0.3
	c2.64-3.77,5.93-7.08,9.64-9.43c3.71-2.36,7.82-3.76,12.12-3.76c1.37,0,2.76,0.14,4.16,0.44L26.97,29.71l-0.45-0.26L26.97,29.71
	L26.97,29.71z"/>
<path class="st0" d="M52.77,47.77c5.7,9.09,3.07,20.45-3.13,29.3c-0.84-7.61-4.68-13.3-7.85-16.57
	C44.2,57.72,52.77,47.77,52.77,47.77"/>
<path class="st1" d="M52.77,47.77l-0.44,0.28c2.13,3.41,3.07,7.13,3.07,10.94c0,6.1-2.42,12.4-6.19,17.79l0.43,0.3l0.52-0.06
	c-0.86-7.76-4.77-13.54-7.99-16.88L41.8,60.5l0.39,0.34c2.41-2.78,10.98-12.73,10.98-12.73L52.77,47.77l-0.44,0.28L52.77,47.77
	l-0.4-0.34c0,0-0.54,0.62-1.38,1.6c-2.52,2.93-7.79,9.05-9.6,11.13c-0.18,0.2-0.17,0.51,0.02,0.7c3.1,3.21,6.88,8.8,7.7,16.27
	c0.02,0.22,0.18,0.39,0.39,0.45c0.21,0.05,0.43-0.03,0.56-0.21c3.86-5.52,6.37-12.01,6.37-18.38c0-3.98-0.98-7.91-3.23-11.49
	c-0.09-0.14-0.24-0.23-0.4-0.24c-0.16-0.01-0.33,0.05-0.43,0.18L52.77,47.77L52.77,47.77z"/>
<path class="st2" d="M19.86,67.32c3.39,2.37,9.4-0.35,13.42-6.1L21,52.62C16.98,58.36,16.47,64.94,19.86,67.32"/>
<path class="st3" d="M33.28,61.22c-4.02,5.74-10.03,8.47-13.42,6.1s-2.88-8.95,1.14-14.7l-2.02-1.42
	c-6.62,9.45-8.33,19.67-3.82,22.83c4.51,3.16,13.53-1.95,20.14-11.4L33.28,61.22L33.28,61.22z"/>
<path class="st4" d="M56.73,29.28c-2.66,3.79-7.88,4.71-11.68,2.06c-3.79-2.66-4.72-7.89-2.06-11.68c2.66-3.79,7.89-4.72,11.68-2.06
	C58.47,20.25,59.39,25.48,56.73,29.28 M66.07,1.32c-17.01,1.5-26.51,5.93-32.49,16.62C26.05,31.38,21.5,39.42,18.3,45.22
	c-0.89,1.62-0.42,3.65,1.1,4.71l8.48,5.94l8.48,5.94c1.51,1.06,3.58,0.81,4.8-0.58c4.37-4.99,10.37-12.02,20.42-23.69
	C69.56,28.26,70.48,17.81,66.07,1.32"/>
<path class="st1" d="M56.73,29.28l-1.08-0.76c-1.38,1.96-3.56,3.01-5.79,3.01c-1.4,0-2.81-0.41-4.04-1.28
	c-1.96-1.38-3.01-3.56-3.01-5.79c0-1.4,0.41-2.81,1.28-4.04c1.38-1.97,3.56-3.01,5.79-3.01c1.4,0,2.81,0.41,4.04,1.28
	c1.97,1.38,3.01,3.56,3.01,5.79c0,1.4-0.41,2.81-1.28,4.04L56.73,29.28l1.09,0.76c1.18-1.69,1.76-3.64,1.75-5.56
	c0-3.06-1.45-6.07-4.14-7.96c-1.69-1.19-3.64-1.76-5.56-1.76c-3.06,0-6.07,1.45-7.96,4.14c-1.18,1.69-1.76,3.64-1.76,5.56
	c0,3.05,1.44,6.07,4.14,7.96c1.69,1.18,3.64,1.76,5.56,1.76c3.05,0,6.07-1.45,7.96-4.14L56.73,29.28L56.73,29.28z M66.07,1.32
	L65.95,0c-8.59,0.76-15.38,2.26-20.86,5s-9.58,6.76-12.67,12.29c-7.53,13.43-12.08,21.47-15.29,27.29
	c-0.41,0.75-0.61,1.57-0.61,2.38c0,1.56,0.75,3.09,2.11,4.05l8.48,5.94l8.48,5.94c0.86,0.6,1.85,0.9,2.83,0.89
	c1.38,0,2.75-0.58,3.72-1.68c4.38-5,10.37-12.03,20.43-23.7c2.53-2.94,4.4-6.03,5.63-9.38c1.23-3.35,1.81-6.96,1.81-10.91
	c0-5.04-0.94-10.64-2.67-17.13C67.17,0.36,66.59-0.05,65.95,0L66.07,1.32l-1.28,0.34c1.7,6.35,2.58,11.74,2.58,16.45
	c0,3.7-0.54,6.97-1.65,10s-2.8,5.83-5.16,8.56C50.51,48.34,44.51,55.38,40.15,60.36c-0.45,0.52-1.08,0.78-1.72,0.78
	c-0.46,0-0.91-0.13-1.32-0.41l-8.48-5.94l-8.48-5.94c-0.63-0.44-0.98-1.15-0.98-1.88c0-0.37,0.09-0.75,0.29-1.1
	c3.19-5.8,7.74-13.84,15.27-27.28c2.9-5.15,6.53-8.69,11.55-11.22c5.02-2.52,11.49-3.99,19.9-4.73L66.07,1.32l-1.28,0.34L66.07,1.32
	L66.07,1.32z"/>
</svg>
