<svg id="Слой_1" data-name="Слой 1" xmlns="http://www.w3.org/2000/svg" viewBox="0 0 120.34 120.34"><defs><style>.cls-1{fill:#efefef;}.cls-2{fill:#3a3c3d;}.cls-3{fill:#da704a;}</style></defs><title>xmr</title><path class="cls-1" d="M235.57,516.21A60.17,60.17,0,1,1,295.74,456a60.17,60.17,0,0,1-60.17,60.17Z" transform="translate(-175.4 -395.87)"/><path class="cls-2" d="M260.65,458.54l-25.08,25.08-25.09-25.08v30.13H185a60.15,60.15,0,0,0,101.09,0H260.65V458.54Z" transform="translate(-175.4 -395.87)"/><path class="cls-3" d="M235.57,395.87a60.18,60.18,0,0,0-56.29,81.44h18.5V428.17L235.57,466l37.78-37.78v49.14h18.51a60.18,60.18,0,0,0-56.29-81.44" transform="translate(-175.4 -395.87)"/></svg>