<svg width="41" height="53" xmlns="http://www.w3.org/2000/svg">
 <defs>
  <linearGradient y2="0.823646" x2="0.882965" y1="-0.001767" x1="-0.289885" id="a">
   <stop stop-color="#FFF000"/>
   <stop stop-color="#FFD700" offset="0.598"/>
   <stop stop-color="#FC0" offset="1"/>
  </linearGradient>
  <linearGradient y2="0.331073" x2="1.371041" y1="0.49693" x1="0.358065" id="b">
   <stop stop-color="#F0B200"/>
   <stop stop-color="#FFD900" offset="1"/>
  </linearGradient>
 </defs>
 <g>
  <title>background</title>
  <rect fill="none" id="canvas_background" height="55" width="43" y="-1" x="-1"/>
 </g>
 <g>
  <title>Layer 1</title>
  <g id="svg_4">
   <path id="svg_1" fill="url(#a)" d="m28.996174,0.486657l-25.047,16.038a7.49,7.49 0 0 0 -3.464,6.32l-0.052,25.797c0,2.1 1.706,3.799 3.806,3.799l33.125,0a3.038,3.038 0 0 0 3.04,-3.026l0,-27.033c0,-1.132 -0.92,-2.058 -2.067,-2.058l-9.04,0l0.063,-19.642a0.234,0.234 0 0 0 -0.362,-0.195l-0.002,0z"/>
   <path id="svg_2" fill="url(#b)" d="m40.251314,40.386657l-31.595,7.966c-0.724,0.185 -1.148,-0.783 -0.527,-1.194l20.994,-13.67l0.01,-13.167l9.422,0c0.941,0 1.696,0.752 1.696,1.688l0,18.377z"/>
   <path id="svg_3" fill="#171717" d="m22.216174,24.102657c1.453,-1.674 1.743,-3.793 0.65,-4.733c-1.094,-0.94 -3.158,-0.346 -4.61,1.328c-1.452,1.674 -1.743,3.793 -0.65,4.733c1.095,0.94 3.158,0.346 4.61,-1.328z"/>
  </g>
 </g>
</svg>