<?xml version="1.0" encoding="utf-8"?>
<!-- Generator: Adobe Illustrator 23.0.2, SVG Export Plug-In . SVG Version: 6.00 Build 0)  -->
<svg version="1.1" id="Layer_1" xmlns="http://www.w3.org/2000/svg" xmlns:xlink="http://www.w3.org/1999/xlink" x="0px" y="0px"
	 viewBox="0 0 64 64" style="enable-background:new 0 0 64 64;" xml:space="preserve">
<style type="text/css">
	.st0{fill:#49C0BE;}
	.st1{fill:#FEFEFE;}
	.st2{fill:#BEE8E7;}
</style>
<g>
	<path class="st0" d="M30.2,0c1.2,0,2.4,0,3.6,0c0.1,0.1,0.2,0.1,0.3,0.1c1.5,0.1,3,0.3,4.4,0.6c7,1.5,12.9,4.9,17.6,10.3
		c4.6,5.3,7.2,11.4,7.8,18.4c0,0.3,0,0.7,0.1,1c0,1.1,0,2.2,0,3.3c-0.1,0.1-0.1,0.2-0.1,0.2c-0.1,2.2-0.5,4.4-1.1,6.6
		C59.3,53.5,48,62.8,34.6,63.9c-3.8,0.3-7.5,0-11.2-1.1C17.4,61.1,12.2,58,8,53.2c-6.8-7.9-9.3-17-7.4-27.2
		c1.6-8.5,6.1-15.3,13.3-20.3c4.6-3.2,9.8-5,15.5-5.5C29.6,0.1,29.9,0.2,30.2,0z M40.2,46.2c-5-2.4-10-4.9-15-7.3
		c0.1-0.1,0.2-0.2,0.3-0.2c3.5-1.8,6.9-3.6,10.4-5.3c1.4-0.7,2.9-1.5,4.3-2.2c0.1-0.1,0.3-0.1,0.4-0.2c1.7-0.8,3.3-1.5,5-2.3
		c0.2-0.1,0.3-0.2,0.3-0.4c0-1.7,0-3.5,0-5.2c0-0.3-0.1-0.3-0.3-0.2c-0.7,0.3-1.4,0.6-2.1,1c-1.1,0.5-2.2,1-3.3,1.5
		c0,0-0.1-0.1-0.1-0.1c-4.1-2-8.3-4-12.4-6c-3.1-1.5-6.2-3-9.3-4.5C18,14.6,18,14.6,18,14.9c0,1.7,0,3.4,0,5.2
		c0,0.2,0.1,0.3,0.3,0.4c4.8,2.3,9.5,4.6,14.3,6.9c0.3,0.1,0.5,0.2,0.8,0.4C33.2,27.9,33.1,28,33,28c-4.9,2.4-9.8,4.9-14.7,7.3
		c-0.2,0.1-0.3,0.2-0.3,0.5c0,1.7,0,3.3,0,5c0,0.3,0.1,0.4,0.3,0.5c5.9,2.9,11.9,5.7,17.8,8.6c1.4,0.7,2.7,1.3,4.1,2c0,0,0,0,0.1,0
		c1.8-0.8,3.6-1.6,5.5-2.5c0.2-0.1,0.2-0.2,0.2-0.4c0-5.7,0-11.5,0-17.2c0-0.4,0-0.4-0.3-0.2c-1.7,0.8-3.3,1.5-5,2.3
		c-0.3,0.1-0.4,0.3-0.4,0.6c0,3.8,0,7.5,0,11.3C40.2,45.9,40.3,46,40.2,46.2z"/>
	<path class="st1" d="M40.2,31.1c-1.4,0.7-2.9,1.5-4.3,2.2c-3.5,1.8-6.9,3.6-10.4,5.3c-0.1,0.1-0.2,0.1-0.3,0.2c5,2.4,10,4.9,15,7.3
		c0,1.9,0,3.8,0,5.7c-1.4-0.7-2.7-1.3-4.1-2c-5.9-2.9-11.9-5.7-17.8-8.6c-0.2-0.1-0.3-0.2-0.3-0.5c0-1.7,0-3.3,0-5
		c0-0.3,0.1-0.4,0.3-0.5c4.9-2.4,9.8-4.9,14.7-7.3c0.1,0,0.2-0.1,0.3-0.2c-0.3-0.1-0.5-0.3-0.8-0.4c-4.8-2.3-9.5-4.6-14.3-6.9
		c-0.2-0.1-0.3-0.2-0.3-0.4c0-1.7,0-3.4,0-5.2c0-0.4,0-0.4,0.3-0.2c3.1,1.5,6.2,3,9.3,4.5c4.1,2,8.3,4,12.4,6c0,0,0.1,0,0.1,0.1
		C40.2,27.2,40.2,29.2,40.2,31.1z"/>
	<path class="st2" d="M40.2,51.9c0-1.9,0-3.8,0-5.7c0.1-0.1,0.1-0.3,0.1-0.4c0-3.8,0-7.5,0-11.3c0-0.3,0.1-0.5,0.4-0.6
		c1.7-0.7,3.3-1.5,5-2.3c0.3-0.1,0.3-0.1,0.3,0.2c0,5.7,0,11.5,0,17.2c0,0.2,0,0.3-0.2,0.4C43.9,50.2,42.1,51.1,40.2,51.9
		C40.2,51.9,40.2,51.9,40.2,51.9z"/>
	<path class="st2" d="M40.2,31.1c0-1.9,0-3.8,0-5.8c1.1-0.5,2.2-1,3.3-1.5c0.7-0.3,1.4-0.6,2.1-1c0.2-0.1,0.3-0.1,0.3,0.2
		c0,1.7,0,3.5,0,5.2c0,0.2-0.1,0.3-0.3,0.4c-1.7,0.7-3.3,1.5-5,2.3C40.5,30.9,40.3,31,40.2,31.1z"/>
</g>
</svg>
