<?xml version="1.0" encoding="utf-8"?>
<!-- Generator: Adobe Illustrator 23.0.2, SVG Export Plug-In . SVG Version: 6.00 Build 0)  -->
<svg version="1.1" id="Layer_1" xmlns="http://www.w3.org/2000/svg" xmlns:xlink="http://www.w3.org/1999/xlink" x="0px" y="0px"
	 viewBox="0 0 64 64" style="enable-background:new 0 0 64 64;" xml:space="preserve">
<style type="text/css">
	.st0{fill:#4B58FF;}
</style>
<g>
	<path class="st0" d="M28.4,63.9c-1.1-0.5-2.4-0.5-3.6-0.8c-3.1-0.7-6-1.9-8.8-3.5c2.7-2,5.3-3.9,7.8-5.9c3.5-2.6,6.9-5.2,10.4-7.8
		c0.8-0.6,1.3-0.5,2,0.2c1.3,1.3,2.7,2.6,4,3.9c0.4,0.4,0.7,0.4,1.3,0.2c2.9-1.5,5.4-3.6,7.3-6.3c0.4-0.6,0.7-0.8,1.2-0.1
		c1.3,1.4,2.4,3.1,3.6,4.6c0.9,1.2,1.8,2.4,2.7,3.7c0.2,0.3,0.4,0.6,0,0.9c-1.3,1.1-2.2,2.6-3.6,3.6c-3.1,2.3-6.3,4.4-10.1,5.6
		c-2.4,0.8-4.8,1.4-7.3,1.7c-0.1,0-0.2,0.1-0.2,0.2C32.8,63.9,30.6,63.9,28.4,63.9z"/>
	<path class="st0" d="M20.5,2.1c2.4-1.1,5-1.6,7.6-2c0.3,0,0.6,0.1,0.8-0.2c2.1,0,4.1,0,6.2,0c0.6,0.4,1.3,0.2,1.9,0.3
		c2.3,0.4,4.5,1,6.7,1.8c0.7,0.3,1.3,0.7,1.9,1.1c0.8,1.3,0.8,2-0.3,2c-0.9,0.1-0.7,0.5-0.7,1c0,0.2,0,0.5,0,0.7
		c-2.1,1.5-4.2,3-6.2,4.5c-0.1,0.1-0.3,0.1-0.4,0.1c-0.1-0.4,0.6-0.9,0.1-1.1c-0.7-0.2-0.1,0.6-0.4,0.9c-0.2,0.1-0.4,0.3-0.3,0.6
		c0,0,0,0,0,0c-0.6,0-1.1,0.7-1.5,0.7c-1,0-0.9,0.4-0.8,1.1c0,0,0,0,0,0c-0.3-0.1-0.5,0-0.5,0.3c0,0,0,0,0,0
		c-0.7,0.1-1.7-0.2-1.5,1.1c-0.1,0.1-0.1,0.1-0.2,0.2c-0.8-0.1-1.4,0-2,0.7c-0.1,0.1-0.6-0.2-0.7,0.1c-0.1,0.4,0.4,0.4,0.5,0.7
		c-0.5,0.4-1.2,0.6-1.6,1.2c-0.3,0.5-0.7,0.2-1-0.1c-1.3-1.3-2.7-2.6-4-4c-0.4-0.4-0.7-0.6-1.3-0.2c-2.9,1.6-5.4,3.6-7.3,6.3
		c-0.6,0.9-0.9,0.7-1.4,0c-1.9-2.6-3.8-5.1-5.7-7.6c-0.7-0.9-0.6-1.4,0.3-2c0.3,0,0.5-0.1,0.5-0.5c0,0,0,0,0,0
		c0.8,0.3,1.4,0.5,1.4-0.7c0-0.3,0.3-0.6,0.6-0.6c1.4,0.1,1.2-1.1,1.6-1.9c0,0,0,0,0,0c0.8,0.5,1.5-0.1,2.2-0.1
		c0.3,0,0.6-0.6,0.6-1.1c0-0.3,0.3-0.3,0.5-0.4c0.5-0.2,1.2-0.4,1.6-0.9c0.5-0.7,1.2-1.1,1.8-1C20.4,3.4,20.3,2.7,20.5,2.1z"/>
	<path class="st0" d="M57.6,13.3c0.3,0,0.5,0.1,0.6,0.3c1.5,2.2,2.9,4.6,3.7,7.2c-0.6,0.3-0.5,0.7-0.4,1.3c0.2,1.1,1.2,2,0.4,3.2
		c-0.1,0.1,0.2,0.2,0.2,0.3c0.5,0.6,0.4,1.3-0.3,1.6c-0.6,0.2-0.8,0.6-0.7,1.1c0.1,0.6,0.4,0.9,1.1,0.9c0.6,0,1.4-0.3,1.1,0.9
		c-0.1,0.2,0.3,0.4,0.5,0.4c0,1.6,0,3.1,0,4.7c-0.3,1.4-0.6,2.7-0.8,4.1c-0.6,3-1.8,5.7-3.3,8.5c-1.8-2.6-3.9-4.8-5.5-7.5
		c0.3-0.2,0.3-0.5,0.2-0.9c-0.1-0.7-2.3-2.7-3.1-2.8c-1.9-2.4-3.7-4.9-5.6-7.3c-0.4-0.5-0.3-0.7,0.1-1c1.4-1.4,2.8-2.9,4.2-4.4
		c0.4-0.4,0.4-0.8,0.2-1.3C49,20,47.3,17.9,45.1,16c-0.3-0.3-0.6-0.6-0.9-0.8c0.2-0.9,0.3-1.8,1.6-1.7c0.2,0,0.3-0.1,0.4-0.3
		c0.4-0.8,1-1.5,1.8-1.8c0.8-0.4,1.3-1.5,2.4-1.2c0.5,0.1,0.9,0.1,0.7-0.7c-0.1-0.4,0.5-1,0.7-0.9c0.8,0.4,1.9,0.3,2.3,1
		c0.3,0.5,1.4,0.9,0.6,1.9c-0.2,0.3,0.3,0.4,0.6,0.3c0.8-0.2,1,0.1,1.1,0.8C56.4,13.6,56.6,13.7,57.6,13.3z M51.7,35.8
		c0,0.1,0,0.1,0,0.2C51.7,36,51.8,35.9,51.7,35.8C51.8,35.9,51.8,35.9,51.7,35.8z"/>
	<path class="st0" d="M64,30.4c-0.3,0-0.6-0.1-0.5-0.4c0.3-1.2-0.5-0.9-1.1-0.9c-0.7,0-1-0.3-1.1-0.9c-0.1-0.6,0.1-0.9,0.7-1.1
		c0.7-0.3,0.8-1,0.3-1.6c-0.1-0.1-0.3-0.2-0.2-0.3c0.8-1.2-0.3-2.1-0.4-3.2c-0.1-0.5-0.2-1,0.4-1.3c1,2.3,1.5,4.7,1.8,7.1
		c0,0.2-0.1,0.5,0.2,0.6C64,29.1,64,29.7,64,30.4z"/>
	<path class="st0" d="M1.5,41.3C0.3,37.7-0.2,34.1,0,30.4c0.4-0.1,0.7,0.3,1.2,0.1c-0.1-0.4-0.7-0.5-0.5-0.8c0.4-0.9,0-1.9,0.2-2.9
		c0.5-2.2,0.8-4.4,1.8-6.5c0.3-0.6,0.7-1.2,0.5-1.9c0-0.1,0-0.3,0-0.4c0.7-0.4,1.1,0.3,1.6,0.5c1,0.4,1.4,1.2,2.1,1.8
		c0.3,0.3,0.5,0.6,0.1,1.1c-0.2,0.1-0.1,0.4,0,0.6c0.1,0.2,0.4,0.2,0.5,0.1c0.7-0.6,0.8,0.1,1.2,0.5c0.4,0.4,0.4,1.4,1.4,1.1
		c2.8,3.7,5.6,7.4,8.5,11c0.3,0.4,0.2,0.6-0.1,0.9c-1.2,1.2-2.3,2.4-3.5,3.6c-0.2,0.2-0.4,0.2-0.6,0.3c-0.7,0.3-0.8,1.4-0.5,2
		c1.7,3.2,4.1,5.8,7.2,7.8c-1.5,1.1-2.9,2.2-4.3,3.2c-1.3,0.9-2.6,2-3.9,3c-1.3,0.9-1.2,0.9-2.4-0.1c-2.2-1.8-3.9-4-5.4-6.3
		c-0.4-0.7-0.8-1.4-1.2-2.1c0.2-0.2,0.7-0.1,0.8-0.6c-1.4-0.5-1.2-1.9-1.9-2.9C2.3,42.7,2.5,41.6,1.5,41.3z"/>
	<path class="st0" d="M57.6,13.3c-1,0.5-1.3,0.4-1.3-0.7c0-0.7-0.3-1.1-1.1-0.8c-0.3,0.1-0.8,0-0.6-0.3c0.8-1-0.3-1.4-0.6-1.9
		c-0.5-0.8-1.6-0.6-2.3-1C51.6,8.4,50.9,9,51,9.4c0.2,0.8-0.3,0.8-0.7,0.7c-1.1-0.2-1.6,0.8-2.4,1.2c-0.8,0.4-1.4,1.1-1.8,1.8
		c-0.1,0.2-0.2,0.3-0.4,0.3c-1.3-0.1-1.4,0.8-1.6,1.7c-1.3-0.6-1.3-0.6-0.2-1.4c2-1.5,3.8-3,5.9-4.4c0.8-0.5,1.5-1.2,2.2-1.7
		c0.3-0.2,0.5-0.3,0.8,0c1.8,1.6,3.5,3.3,4.8,5.3C57.7,13,57.6,13.2,57.6,13.3z"/>
	<path class="st0" d="M10,23.6c-0.9,0.3-1-0.7-1.4-1.1c-0.4-0.4-0.4-1.1-1.2-0.5c-0.1,0.1-0.4,0.1-0.5-0.1c-0.1-0.2-0.2-0.4,0-0.6
		c0.4-0.4,0.3-0.7-0.1-1.1c-0.7-0.6-1.1-1.4-2.1-1.8C4.3,18.3,4,17.6,3.2,18c0.2-0.4,0.4-0.9,0.6-1.3c0.3-0.7,0.6-0.7,0.9,0
		c-0.3,0.1-0.6,0.1-0.6,0.4c0,0,0.1,0.1,0.1,0.1c0.4,0,0.4-0.3,0.4-0.6C6.5,19,8.2,21.3,10,23.6z"/>
	<path class="st0" d="M20.5,2.1c-0.1,0.7-0.1,1.3-1.2,1.1c-0.6-0.1-1.3,0.3-1.8,1c-0.3,0.4-1,0.6-1.6,0.9c-0.2,0.1-0.5,0.1-0.5,0.4
		c-0.1,0.5-0.4,1.1-0.6,1.1c-0.7,0-1.5,0.6-2.2,0.1C14.9,4.6,17.6,3.1,20.5,2.1z"/>
	<path class="st0" d="M3.2,18.4c0.2,0.7-0.3,1.3-0.5,1.9c-0.9,2.1-1.3,4.3-1.8,6.5c-0.2,1,0.2,1.9-0.2,2.9c-0.2,0.4,0.5,0.5,0.5,0.8
		c-0.4,0.3-0.8-0.2-1.2-0.1c0.2-3.8,0.9-7.5,2.5-11C2.7,19,2.7,18.5,3.2,18.4z"/>
	<path class="st0" d="M44.4,6.8c0-0.2,0-0.5,0-0.7c0-0.5-0.1-0.9,0.7-1c1.1-0.1,1.2-0.7,0.3-2c1,0,1.7,0.7,2.7,1.1
		C46.8,5.1,45.6,6,44.4,6.8z"/>
	<path class="st0" d="M1.5,41.3c1,0.4,0.8,1.5,1.3,2.1c0.7,0.9,0.5,2.4,1.9,2.9c-0.1,0.5-0.6,0.4-0.8,0.6C2.8,45.1,2,43.2,1.5,41.3z
		"/>
	<path class="st0" d="M51.5,36.6c0.8,0.1,3,2.1,3.1,2.8c0.1,0.3,0.1,0.6-0.2,0.9C53.2,39.1,52.4,37.8,51.5,36.6z"/>
	<path class="st0" d="M12.5,6.6c-0.3,0.8-0.2,1.9-1.6,1.9c-0.3,0-0.6,0.3-0.6,0.6c0.1,1.3-0.6,1.1-1.4,0.7
		C9.9,8.6,11.2,7.5,12.5,6.6z"/>
	<path class="st0" d="M30.5,16.8c-0.1-0.3-0.7-0.3-0.5-0.7c0.1-0.4,0.6,0,0.7-0.1c0.5-0.7,1.2-0.8,2-0.7
		C32,15.8,31.3,16.3,30.5,16.8z"/>
	<path class="st0" d="M34.9,13.6c-0.2-0.6-0.3-1.1,0.8-1.1c0.5,0,0.9-0.7,1.5-0.7C36.6,12.7,35.6,12.9,34.9,13.6z"/>
	<path class="st0" d="M32.9,15.1c-0.2-1.3,0.8-1,1.5-1.1C34,14.4,33.4,14.8,32.9,15.1z"/>
	<path class="st0" d="M37.2,11.9c0-0.3,0.1-0.5,0.3-0.6c0.3-0.3-0.3-1.1,0.4-0.9c0.5,0.1-0.2,0.7-0.1,1.1
		C37.7,11.8,37.5,11.9,37.2,11.9z"/>
	<path class="st0" d="M8.9,9.8c0.1,0.4-0.1,0.5-0.5,0.5C8.5,10.1,8.7,9.9,8.9,9.8z"/>
	<path class="st0" d="M34.4,14c0-0.4,0.2-0.5,0.5-0.3C34.7,13.8,34.5,13.9,34.4,14z"/>
	<path class="st0" d="M51.7,35.8C51.8,35.9,51.8,35.9,51.7,35.8c0,0.1,0,0.1,0,0.2C51.7,35.9,51.7,35.9,51.7,35.8z"/>
	<path class="st0" d="M4.7,16.7c-0.1,0.3-0.1,0.6-0.4,0.6c0,0-0.1-0.1-0.1-0.1C4.2,16.8,4.5,16.8,4.7,16.7
		C4.7,16.7,4.7,16.7,4.7,16.7z"/>
</g>
</svg>
