<svg width="63" height="72" viewBox="0 0 63 72" fill="none" xmlns="http://www.w3.org/2000/svg">
<path d="M24.874 29.4718H0.552734V19.6201H20.9474V21.9347H2.83834V27.1572H24.874V29.4718Z" fill="#94C2FF"/>
<path d="M62.0297 29.4718H37.7085V27.1572H59.7441V21.9347H41.6351V19.6201H62.0297V29.4718Z" fill="#94C2FF"/>
<path d="M8.87472 23.4184H6.58911V25.7329H8.87472V23.4184Z" fill="#94C2FF"/>
<path d="M13.446 23.4184H11.1604V25.7329H13.446V23.4184Z" fill="#94C2FF"/>
<path d="M18.0171 23.4184H15.7314V25.7329H18.0171V23.4184Z" fill="#94C2FF"/>
<path d="M62.0297 71.727H0.552734V28.2849H2.83834V69.4124H59.7441V28.2849H62.0297V71.727Z" fill="#94C2FF"/>
<path d="M38.4118 47.6914H24.1707V33.27H28.0972V35.5846H26.4563V45.3768H36.1261V35.5846H34.4852V33.27H38.4118V47.6914Z" fill="#94C2FF"/>
<path d="M20.8302 47.6914H6.58911V33.27H20.8302V47.6914ZM8.87472 45.3768H18.5446V35.5846H8.87472V45.3768Z" fill="#94C2FF"/>
<path d="M55.9347 47.6914H41.7522V33.27H55.9933V47.6914H55.9347ZM43.9792 45.3768H53.6491V35.5846H43.9792V45.3768Z" fill="#94C2FF"/>
<path d="M20.8302 61.9347H6.58911V64.2492H20.8302V61.9347Z" fill="#94C2FF"/>
<path d="M20.8302 56.9495H6.58911V59.2641H20.8302V56.9495Z" fill="#94C2FF"/>
<path d="M20.8302 51.9644H6.58911V54.2789H20.8302V51.9644Z" fill="#94C2FF"/>
<path d="M55.9933 61.9347H41.7522V64.2492H55.9933V61.9347Z" fill="#94C2FF"/>
<path d="M55.9933 56.9495H41.7522V59.2641H55.9933V56.9495Z" fill="#94C2FF"/>
<path d="M55.9933 51.9644H41.7522V54.2789H55.9933V51.9644Z" fill="#94C2FF"/>
<path d="M38.4118 61.9347H24.1707V64.2492H38.4118V61.9347Z" fill="#94C2FF"/>
<path d="M38.4118 56.9495H24.1707V59.2641H38.4118V56.9495Z" fill="#94C2FF"/>
<path d="M38.4118 51.9644H24.1707V54.2789H38.4118V51.9644Z" fill="#94C2FF"/>
<path d="M31.2619 42.9436L19.6581 20.8071C18.4274 18.73 17.7827 16.3561 17.7827 13.9228C17.7827 6.38574 23.8191 0.27298 31.2619 0.27298C38.7048 0.27298 44.7412 6.38574 44.7412 13.9228C44.7412 16.3561 44.0965 18.73 42.8658 20.8071L31.2619 42.9436ZM31.2619 2.52817C25.1084 2.52817 20.0683 7.63203 20.0683 13.8635C20.0683 15.8813 20.5958 17.8991 21.6507 19.6202L21.7093 19.6795L31.3206 38.0178L40.9904 19.6202C41.9867 17.8991 42.5728 15.8813 42.5728 13.8635C42.4556 7.63203 37.4741 2.52817 31.2619 2.52817Z" fill="#94C2FF"/>
<path d="M36.1411 7.34105L24.7866 18.8393L26.4028 20.4759L37.7573 8.97766L36.1411 7.34105Z" fill="#94C2FF"/>
<path d="M34.8368 20.8071C33.0201 20.8071 31.5549 19.3234 31.5549 17.4837C31.5549 15.6439 33.0201 14.1602 34.8368 14.1602C36.6536 14.1602 38.1187 15.6439 38.1187 17.4837C38.1187 19.3234 36.6536 20.8071 34.8368 20.8071ZM34.8368 16.4748C34.3094 16.4748 33.8405 16.9495 33.8405 17.4837C33.8405 18.0178 34.3094 18.4926 34.8368 18.4926C35.3643 18.4926 35.8331 18.0178 35.8331 17.4837C35.8331 16.8902 35.3643 16.4748 34.8368 16.4748Z" fill="#94C2FF"/>
<path d="M27.7455 13.6261C25.9288 13.6261 24.4636 12.1424 24.4636 10.3027C24.4636 8.4629 25.9288 6.97922 27.7455 6.97922C29.5623 6.97922 31.0274 8.4629 31.0274 10.3027C31.0274 12.1424 29.5623 13.6261 27.7455 13.6261ZM27.7455 9.29376C27.2181 9.29376 26.7492 9.76854 26.7492 10.3027C26.7492 10.8368 27.2181 11.3116 27.7455 11.3116C28.273 11.3116 28.7418 10.8368 28.7418 10.3027C28.7418 9.76854 28.3316 9.29376 27.7455 9.29376Z" fill="#94C2FF"/>
</svg>
