<svg width="223" height="64" viewBox="0 0 223 64" fill="none" xmlns="http://www.w3.org/2000/svg">
<path d="M16 16.35H31.1C34.35 16.35 36.75 17.15 38.4 18.5C40.2 20 41.1 22 41.1 24.5C41.1 27.6 39.5 29.6 36.7 30.65V30.8C40.1 31.85 42.3 34.75 42.3 38.45C42.3 41.6 41.15 43.9 39.1 45.45C37.25 46.9 34.7 47.7 31.4 47.7H16V16.35ZM29.95 28.75C32.2 28.75 33.7 27.65 33.7 25.6C33.7 23.65 32.25 22.5 30 22.5H23.65V28.75H29.95ZM30.6 41.45C33.15 41.45 34.7 40 34.7 37.75C34.7 35.25 32.85 34 30.5 34H23.65V41.45H30.6ZM45.3 16.35H52.45V22.15H45.3V16.35ZM45.3 25.25H52.45V47.65H45.3V25.25ZM57.7 41.75V29.7H54.7V25.25H57.7V18.15H64.65V25.25H68.7V29.7H64.65V40.2C64.65 41.95 65.6 42.4 67.15 42.4C67.75 42.4 69.55 42.35 69.8 42.35V47.55C69.2 47.75 66.75 47.9 64.85 47.9C60.7 47.9 57.7 46.55 57.7 41.75ZM75.5 22.9H67.5V16.35H91.4V22.9H83.25V47.65H75.5V22.9ZM86.6 36.5C86.6 29.75 91.4 24.65 98.6 24.65C105.8 24.65 110.55 29.75 110.55 36.5C110.55 43.25 105.8 48.35 98.6 48.35C91.4 48.35 86.6 43.25 86.6 36.5ZM103.3 36.5C103.3 32.45 101.65 29.65 98.55 29.65C95.45 29.65 93.8 32.4 93.8 36.5C93.8 40.6 95.4 43.3 98.55 43.3C101.65 43.25 103.3 40.55 103.3 36.5ZM113.05 25.25H119.9V28.75H120.05C121.65 26.1 123.6 25 125.65 24.9C126.3 24.85 126.75 24.95 127.05 25.1V31.25H126.85C123.1 30.75 120.2 32.8 120.2 37.65V47.7H113.05V25.25ZM129.15 25.25H136V28.75H136.15C137.75 26.1 139.7 25 141.75 24.9C142.4 24.85 142.85 24.95 143.15 25.1V31.25H142.95C139.2 30.75 136.3 32.8 136.3 37.65V47.7H129.15V25.25ZM143.35 36.4C143.35 29.7 148.05 24.6 154.85 24.6C158.05 24.6 160.6 25.65 162.5 27.4C165.15 29.85 166.5 33.75 166.45 38.3C166.4 38.3 150.35 38.3 150.35 38.3C150.8 41.3 152.45 43.2 155.4 43.2C157.3 43.2 158.5 42.35 159.1 40.95H166.05C165.55 42.95 164.25 44.9 162.3 46.25C160.4 47.55 158.15 48.3 155.3 48.3C147.9 48.3 143.35 43.2 143.35 36.4ZM159.2 34.05C158.95 31.4 157.25 29.65 154.95 29.65C152.25 29.65 150.85 31.35 150.35 34.05H159.2ZM168.9 25.25H175.75V28.3H175.9C177.55 25.9 179.7 24.6 182.8 24.6C187.7 24.6 190.6 28.1 190.6 33.1V47.7H183.5V34.5C183.5 32.15 182.3 30.5 180 30.5C177.65 30.5 176.05 32.45 176.05 35.25V47.65H168.9V25.25ZM195 41.75V29.7H192V25.25H195V18.15H201.95V25.25H206V29.7H201.95V40.2C201.95 41.95 202.9 42.4 204.45 42.4C205.05 42.4 206.85 42.35 207.1 42.35V47.55C206.5 47.75 204.05 47.9 202.15 47.9C197.95 47.9 195 46.55 195 41.75ZM0 0V64H223V0H0ZM217 58H6V6H217V58Z" fill="white"/>
</svg>
