<svg width="66" height="57" viewBox="0 0 66 57" fill="none" xmlns="http://www.w3.org/2000/svg">
<path d="M65.7878 56.8338H0.73584V8.40652H65.7878V56.8338ZM3.02145 54.5193H63.5022V10.6617H3.02145V54.5193Z" fill="#94C2FF"/>
<path d="M65.7878 10.6617H0.73584V0.394653H65.7878V10.6617ZM3.02145 8.40652H63.5022V2.64985H3.02145V8.40652Z" fill="#94C2FF"/>
<path d="M23.2988 9.53412H21.0132V55.6469H23.2988V9.53412Z" fill="#94C2FF"/>
<path d="M18.3174 4.37091H15.7974V6.68545H18.3174V4.37091Z" fill="#94C2FF"/>
<path d="M13.2774 4.37091H10.7573V6.68545H13.2774V4.37091Z" fill="#94C2FF"/>
<path d="M8.23731 4.37091H5.71729V6.68545H8.23731V4.37091Z" fill="#94C2FF"/>
<path d="M40.4702 20.9288H33.1445V13.5104H40.4702V20.9288ZM35.4301 18.6142H38.2432V15.7656H35.4301V18.6142Z" fill="#94C2FF"/>
<path d="M50.6089 20.9288H43.2832V13.5104H50.6089V20.9288ZM45.5688 18.6142H48.3819V15.7656H45.5688V18.6142Z" fill="#94C2FF"/>
<path d="M60.7475 20.9288H53.4219V13.5104H60.7475V20.9288ZM55.7075 18.6142H58.5205V15.7656H55.7075V18.6142Z" fill="#94C2FF"/>
<path d="M60.7476 31.1958H33.1445V23.7774H60.7476V31.1958ZM35.4301 28.8813H58.462V26.0326H35.4301V28.8813Z" fill="#94C2FF"/>
<path d="M60.7476 41.4629H33.1445V33.9852H60.7476V41.4629ZM35.4301 39.1484H58.462V36.2997H35.4301V39.1484Z" fill="#94C2FF"/>
<path d="M45.5689 51.6706H33.1445V44.2522H45.5689V51.6706ZM35.4301 49.3561H43.2833V46.5668H35.4301V49.3561Z" fill="#94C2FF"/>
<path d="M30.7416 49.1187H26.0532V16.0623H30.7416V18.3769H28.3388V46.8042H30.7416V49.1187Z" fill="#94C2FF"/>
<path d="M30.7417 26.3294H27.2253V28.6439H30.7417V26.3294Z" fill="#94C2FF"/>
<path d="M30.7417 36.5964H27.2253V38.911H30.7417V36.5964Z" fill="#94C2FF"/>
<path d="M60.8648 46.8041H58.3447V49.1187H60.8648V46.8041Z" fill="#94C2FF"/>
<path d="M55.8247 46.8041H53.3047V49.1187H55.8247V46.8041Z" fill="#94C2FF"/>
<path d="M50.7261 46.8041H48.2061V49.1187H50.7261V46.8041Z" fill="#94C2FF"/>
<path d="M18.376 28.8813H5.71729V31.1958H18.376V28.8813Z" fill="#94C2FF"/>
<path d="M18.376 33.9851H5.71729V36.2997H18.376V33.9851Z" fill="#94C2FF"/>
<path d="M18.376 39.1483H5.71729V41.4629H18.376V39.1483Z" fill="#94C2FF"/>
<path d="M18.376 44.2522H5.71729V46.5667H18.376V44.2522Z" fill="#94C2FF"/>
<path d="M18.376 49.356H5.71729V51.6706H18.376V49.356Z" fill="#94C2FF"/>
<path d="M18.2002 26.092H5.83447V13.5104H18.2002V26.092ZM8.12008 23.7774H15.9732V15.8249H8.12008V23.7774Z" fill="#94C2FF"/>
</svg>
