<svg width="98" height="98" viewBox="0 0 98 98" fill="none" xmlns="http://www.w3.org/2000/svg">
<path d="M8.03689 43.3241C8.99563 43.4979 9.91437 42.862 10.0882 41.9018C13.3879 23.7561 28.8133 10.3144 47.2405 9.52948V13.6031C47.2405 14.5784 48.0309 15.3688 49.0062 15.3688C49.9815 15.3688 50.7719 14.5784 50.7719 13.6031V1.76574C50.7719 0.790445 49.9815 0 49.0062 0C48.0309 0 47.2405 0.790445 47.2405 1.76574V5.95799C27.0972 6.75947 10.2123 21.4386 6.61602 41.2728C6.44359 42.2315 7.07815 43.1489 8.03689 43.3241Z" fill="white"/>
<path d="M41.0286 87.7462C23.3216 84.0492 10.3627 68.8349 9.5281 50.7664H13.6031C14.5784 50.7664 15.3688 49.9746 15.3688 49.0007C15.3688 48.0254 14.5784 47.2349 13.6031 47.2349H1.76574C0.790445 47.2349 0 48.0254 0 49.0007C0 49.9746 0.790445 50.7664 1.76574 50.7664H5.95799C6.81327 70.5192 20.964 87.1738 40.321 91.206C40.4382 91.2294 40.5568 91.2419 40.6769 91.2405C41.5846 91.2405 42.3433 90.5535 42.4343 89.6513C42.5254 88.7491 41.917 87.9256 41.0286 87.7449V87.7462Z" fill="white"/>
<path d="M89.8058 55.7491C88.8512 55.5532 87.9173 56.1643 87.7159 57.1175C83.9554 74.7501 68.777 87.6303 50.7678 88.4704V84.3954C50.7678 83.4201 49.976 82.6297 49.0021 82.6297C48.0268 82.6297 47.2363 83.4201 47.2363 84.3954V96.2342C47.2363 97.2095 48.0268 97.9999 49.0021 97.9999C49.976 97.9999 50.7678 97.2095 50.7678 96.2342V92.0405C70.4531 91.1742 87.0662 77.1104 91.1674 57.8376C91.3674 56.8844 90.7577 55.9505 89.8058 55.7491Z" fill="white"/>
<path d="M96.2356 47.2349H92.042C91.188 27.4821 77.0373 10.8276 57.6817 6.79396C57.0582 6.65464 56.4071 6.86294 55.9808 7.33748C55.5532 7.8134 55.4166 8.48245 55.6235 9.08805C55.8305 9.69226 56.3464 10.1378 56.9754 10.2537C74.6825 13.9507 87.6414 29.1651 88.476 47.2349H84.3968C83.4215 47.2349 82.6311 48.0254 82.6311 49.0007C82.6311 49.9746 83.4215 50.7664 84.3968 50.7664H96.2342C97.2095 50.7664 98 49.9746 98 49.0007C98 48.0254 97.2095 47.2349 96.2342 47.2349H96.2356Z" fill="white"/>
<path d="M19.0038 49.0007C19.0038 65.5669 32.4344 78.9975 49.0021 78.9975C65.5683 78.9975 78.999 65.5669 78.999 49.0007C78.999 32.433 65.5683 19.0024 49.0021 19.0024C32.4413 19.0203 19.0217 32.4399 19.0038 49.0007ZM75.4688 49.0007C75.4688 63.6163 63.6205 75.4661 49.0034 75.4661C34.3864 75.4661 22.5366 63.6177 22.5366 49.0007C22.5366 34.3836 34.385 22.5339 49.0021 22.5339C63.6108 22.5504 75.4509 34.3905 75.4675 49.0007H75.4688Z" fill="white"/>
<path d="M32.2869 41.8329H35.181V56.1671H32.2869V41.8329Z" fill="white"/>
<path d="M58.7854 56.4112C60.6698 56.5009 62.5031 55.7877 63.8343 54.451C66.356 51.2547 66.3491 46.7438 63.8191 43.5531C62.481 42.2136 60.6394 41.5004 58.7481 41.5887C57.6915 41.5666 56.6403 41.7597 55.6595 42.1529C54.9601 42.4522 54.3296 42.8923 53.8054 43.4441C53.2481 44.0152 52.7957 44.6801 52.4701 45.4099C52.0011 46.5755 51.779 47.8253 51.8149 49.082C51.7045 51.0506 52.3832 52.9832 53.702 54.4496C55.0456 55.7891 56.89 56.5009 58.7854 56.4112ZM55.8912 45.2885C56.643 44.5077 57.6804 44.0649 58.7647 44.0621C59.8503 44.0593 60.8891 44.4966 61.6451 45.2747C62.4424 46.3258 62.8273 47.6322 62.7266 48.9482C62.8273 50.2891 62.4327 51.6203 61.6161 52.688C60.8822 53.484 59.849 53.9365 58.7661 53.9351C57.6832 53.9323 56.6513 53.4771 55.9202 52.6784C54.4317 50.4422 54.4193 47.5343 55.8912 45.2857V45.2885Z" fill="white"/>
<path d="M47.2526 49.7618H41.375V54.1651H48.2454V56.1506H38.8883V41.8398H48.1766V43.8449H41.375V47.7961H47.2526V49.7618Z" fill="white"/>
</svg>
