<svg width="98" height="98" viewBox="0 0 98 98" fill="none" xmlns="http://www.w3.org/2000/svg">
<path d="M89.956 86.2415H3.4147V10.051C3.4147 9.09059 2.66773 8.34363 1.70735 8.34363C0.746966 8.34363 0 9.09059 0 10.051V87.9488C0 88.9092 0.746966 89.6562 1.70735 89.6562H89.956C90.9164 89.6562 91.6633 88.9092 91.6633 87.9488C91.6633 86.9884 90.9164 86.2415 89.956 86.2415Z" fill="white"/>
<path d="M97.4256 40.2498C96.6787 39.6095 95.6116 39.7162 94.9713 40.4632L83.9802 52.9482L76.5106 46.3322C76.0837 46.0121 75.6569 45.7986 75.1234 45.9053C74.5898 46.0121 74.163 46.3322 73.9496 46.759L64.7726 62.1252L56.8761 59.4574C56.2358 59.244 55.3821 59.4574 54.9553 59.991L47.4856 69.8082L39.269 64.6862C38.6288 64.2594 37.7751 64.3661 37.2415 64.8996L26.4639 74.6102L15.4728 71.729C14.8326 71.6223 14.1923 71.729 13.7655 72.1559L7.78977 78.4517C7.14951 79.092 7.14951 80.2658 7.89648 80.906C8.2166 81.2261 8.64344 81.3329 9.07028 81.3329C9.49712 81.3329 9.92395 81.1194 10.3508 80.7993L15.5795 75.2504L26.4639 78.1316C26.9974 78.2383 27.6377 78.1316 28.0645 77.7047L38.5221 68.2076L46.9521 73.4364C47.6991 73.8632 48.6594 73.7565 49.193 73.0095L56.8761 62.9788L64.986 65.6466C65.7329 65.86 66.5866 65.5399 67.0135 64.8996L75.7636 50.067L83.0199 56.4696C83.34 56.7897 83.8735 56.8964 84.3004 56.8964C84.7272 56.8964 85.154 56.683 85.4742 56.3629L97.5323 42.4906C98.1726 41.9571 98.1726 40.89 97.4256 40.2498Z" fill="white"/>
<path d="M10.244 65.4331C10.5642 65.4331 10.7776 65.3264 11.0977 65.2197L26.5706 56.5762L34.3604 59.6708C35.0006 59.8842 35.7476 59.7775 36.2811 59.244L52.3942 41.2101L64.4524 46.4388C65.0926 46.759 65.8396 46.5455 66.3732 46.012L80.032 31.7129L86.4345 34.4874C87.2882 34.9142 88.2486 34.4874 88.6754 33.6337L96.5719 16.4535C96.9987 15.5998 96.5719 14.5327 95.7182 14.2126C94.8645 13.7858 93.7975 14.2126 93.4773 15.0663L86.3278 30.7526L80.3521 28.0848C79.7118 27.7647 78.9649 27.9781 78.4313 28.5117L64.6658 42.8107L52.6077 37.582C51.9674 37.2618 51.1137 37.4752 50.6869 38.0088L34.5738 56.0427L27.1041 53.1615C26.6773 52.9481 26.1437 53.0548 25.6102 53.2682L9.39036 62.3385C8.53668 62.7654 8.21656 63.8325 8.7501 64.6861C9.07023 65.113 9.60378 65.4331 10.244 65.4331Z" fill="white"/>
<path d="M25.5035 37.582C32.9732 37.582 39.1623 31.4996 39.1623 23.9232C39.1623 16.4535 33.0799 10.2644 25.5035 10.2644C17.9272 10.2644 11.8447 16.3468 11.8447 23.9232C11.8447 31.3929 18.0339 37.582 25.5035 37.582ZM25.5035 13.6791C31.1591 13.6791 35.7476 18.2676 35.7476 23.9232C35.7476 29.5788 31.1591 34.1673 25.5035 34.1673C19.8479 34.1673 15.2594 29.5788 15.2594 23.9232C15.2594 18.2676 19.8479 13.6791 25.5035 13.6791Z" fill="white"/>
<path d="M22.1956 30.3257C22.409 30.4324 22.6224 30.4324 22.8358 30.5392C23.0493 30.6459 23.2627 30.6459 23.5828 30.7526C23.7962 30.7526 24.1164 30.8593 24.3298 30.8593H24.4365V32.2465V32.6733H24.8633H26.1438H26.5707V32.2465V30.8593H26.6774C26.9975 30.7526 27.2109 30.6459 27.5311 30.5392C27.7445 30.4324 28.0646 30.219 28.278 30.0056C28.4914 29.7922 28.7049 29.5788 28.8116 29.3654C29.025 29.1519 29.1317 28.9385 29.2384 28.6184C29.3451 28.2983 29.4518 28.0848 29.5585 27.7647C29.6652 27.4446 29.6652 27.2312 29.6652 26.911C29.6652 26.6976 29.6652 26.3775 29.5585 26.1641C29.5585 25.9507 29.4518 25.7372 29.3451 25.4171C29.2384 25.2037 29.1317 24.9903 29.025 24.7769C28.9183 24.5634 28.7049 24.4567 28.4914 24.2433C28.278 24.0299 28.0646 23.9232 27.8512 23.7098C27.6378 23.6031 27.4243 23.3896 27.2109 23.2829C26.9975 23.1762 26.6774 23.0695 26.464 22.9628C26.2505 22.8561 25.9304 22.7494 25.717 22.6427C25.6103 22.6427 25.5036 22.536 25.2902 22.536C25.1835 22.4292 25.0767 22.4292 24.8633 22.3225C24.7566 22.2158 24.6499 22.2158 24.5432 22.1091C24.4365 22.0024 24.3298 21.8957 24.2231 21.8957C24.1164 21.789 24.1164 21.6823 24.0097 21.5756C24.0097 21.4689 23.9029 21.3622 23.9029 21.1487C23.9029 21.042 23.9029 20.8286 23.9029 20.7219C23.9029 20.6152 24.0097 20.4018 24.0097 20.2951C24.0097 20.1884 24.1164 20.0816 24.2231 19.9749C24.3298 19.8682 24.4365 19.7615 24.5432 19.6548C24.6499 19.5481 24.7566 19.5481 24.97 19.4414C25.0767 19.4414 25.2902 19.3347 25.5036 19.3347C25.6103 19.3347 25.717 19.3347 25.8237 19.3347C25.9304 19.3347 26.0371 19.3347 26.1438 19.3347C26.2505 19.3347 26.464 19.3347 26.5707 19.3347C26.7841 19.3347 26.8908 19.4414 27.1042 19.4414C27.2109 19.4414 27.3176 19.5481 27.4243 19.5481C27.5311 19.5481 27.6378 19.6548 27.7445 19.6548L28.278 19.8682L28.3847 19.3347L28.5981 17.8407V17.5206L28.278 17.4139C28.1713 17.4139 28.0646 17.3072 27.9579 17.3072C27.8512 17.3072 27.7445 17.2005 27.6378 17.2005C27.5311 17.2005 27.3176 17.0938 27.2109 17.0938C26.9975 17.0938 26.8908 16.9871 26.7841 16.9871H26.5707V15.7066V15.2797H26.1438H24.8633H24.4365V15.7066V17.0938H24.3298C24.0096 17.2005 23.7962 17.3072 23.5828 17.4139C23.3694 17.5206 23.156 17.734 22.9426 17.9475C22.7291 18.1609 22.5157 18.3743 22.409 18.5877C22.3023 18.8011 22.0889 19.0145 21.9822 19.3347C21.8755 19.6548 21.7688 19.8682 21.7688 20.1884C21.662 20.5085 21.662 20.8286 21.662 21.1487C21.662 21.3622 21.662 21.6823 21.7688 21.8957C21.7688 22.1091 21.8755 22.4292 21.9822 22.6427C22.0889 22.8561 22.1956 23.0695 22.409 23.2829C22.5157 23.4963 22.7291 23.6031 22.9426 23.8165C23.156 24.0299 23.3694 24.1366 23.5828 24.2433C23.7962 24.35 24.0097 24.5634 24.2231 24.6701C24.4365 24.7769 24.7566 24.8836 24.97 24.9903C25.1835 25.097 25.5036 25.2037 25.717 25.3104C25.8237 25.3104 25.9304 25.4171 26.1438 25.4171C26.2505 25.5238 26.3573 25.5238 26.464 25.6305C26.5707 25.7372 26.6774 25.7372 26.7841 25.8439C26.8908 25.9507 26.9975 26.0574 26.9975 26.1641C27.1042 26.2708 27.1042 26.3775 27.2109 26.4842C27.2109 26.5909 27.3176 26.8043 27.3176 26.911C27.3176 27.0177 27.3176 27.2312 27.3176 27.3379C27.3176 27.4446 27.2109 27.5513 27.2109 27.658C27.1042 27.7647 27.1042 27.8714 26.9975 27.9781C26.8908 28.0848 26.7841 28.1916 26.6774 28.1916C26.5707 28.2983 26.464 28.2983 26.2505 28.405C26.1438 28.405 25.9304 28.5117 25.8237 28.5117C25.717 28.5117 25.6103 28.5117 25.5036 28.5117C25.3969 28.5117 25.2902 28.5117 25.1835 28.5117C24.97 28.5117 24.8633 28.5117 24.6499 28.5117C24.4365 28.5117 24.3298 28.5117 24.1164 28.405C23.9029 28.405 23.6895 28.2983 23.4761 28.2983C23.2627 28.1916 23.0493 28.1916 22.9426 28.0848C22.8358 28.0848 22.7291 27.9781 22.7291 27.9781C22.3023 27.7647 22.3023 27.658 22.1956 27.658L21.662 27.3379L21.5553 27.9781L21.3419 29.5788V29.8989L21.662 30.0056C21.8755 30.1123 21.9822 30.219 22.1956 30.3257Z" fill="white"/>
</svg>
