<svg width="98" height="98" viewBox="0 0 98 98" fill="none" xmlns="http://www.w3.org/2000/svg">
<g clip-path="url(#clip0)">
<path d="M38.0385 42.3318H10.8143C9.95396 42.3327 9.25626 43.0304 9.25539 43.8908V50.4833C9.25452 50.8974 9.41894 51.2941 9.71124 51.5864C10.0035 51.8795 10.4011 52.0431 10.8143 52.0422H38.0385C38.8989 52.0414 39.5966 51.3437 39.5975 50.4833V43.8908C39.5931 43.0322 38.898 42.3362 38.0385 42.3318ZM36.4796 48.9243H12.3733V45.4497H36.4796V48.9243ZM97.537 49.147C97.2473 48.853 96.8532 48.6868 96.4408 48.6833C95.7892 48.6981 95.1385 48.605 94.5165 48.4076V11.3669C94.5156 10.5065 93.8188 9.80879 92.9576 9.80792H1.55895C0.698569 9.80879 0.000869949 10.5065 0 11.3669V70.1085C0.000869949 70.9688 0.698569 71.6665 1.55895 71.6674H59.9882C62.7503 79.0428 68.6025 84.5844 77.4751 88.2008C77.6612 88.2791 77.8613 88.3191 78.0632 88.3165C78.265 88.3182 78.4651 88.2782 78.6512 88.2008C91.4882 82.9715 97.9998 73.7161 97.9998 60.6921V50.2423C97.9972 49.8308 97.8301 49.4359 97.537 49.147ZM3.1179 21.9324H91.3986V32.4614H3.1179V21.9324ZM91.3986 12.9258V18.8145H3.1179V12.9258H91.3986ZM3.1179 68.5495V35.5793H91.3986V41.8421C91.2542 41.7681 91.0976 41.7203 90.9358 41.6994L78.2502 40.1404C78.1232 40.123 77.9944 40.123 77.8674 40.1404L65.1905 41.6994C64.766 41.7551 64.3823 41.9813 64.1292 42.3258C63.8752 42.6703 63.7725 43.1044 63.8456 43.5263C63.8543 43.5524 64.264 46.0109 63.0348 47.4811C62.8608 47.689 62.6572 47.8691 62.4293 48.0152V43.8908C62.4249 43.0322 61.7299 42.3362 60.8704 42.3318H45.8246C44.9633 42.3327 44.2665 43.0304 44.2656 43.8908V50.4833C44.2639 50.8974 44.4283 51.2941 44.7206 51.5864C45.0138 51.8795 45.4105 52.0431 45.8246 52.0422H58.1265V58.9992H53.3427C52.4814 58.9992 51.7837 59.6978 51.7837 60.5582C51.7837 61.4194 52.4814 62.1171 53.3427 62.1171H58.1535C58.2266 64.285 58.5189 66.4399 59.0261 68.5495H3.1179ZM59.3114 48.7373C59.1522 48.7712 59.0017 48.8347 58.866 48.9243H47.3835V45.4497H59.3114V48.7373ZM94.8819 60.6921C94.9097 62.4599 94.7879 64.2276 94.5165 65.9745C94.2016 67.9353 93.6387 69.8483 92.8419 71.6674C90.7575 76.3704 86.553 81.4569 78.0632 85.0655C69.5646 81.4569 65.3602 76.3704 63.2845 71.6674C62.8356 70.6583 62.4658 69.6161 62.1796 68.5495C61.6046 66.4521 61.2966 64.2911 61.2618 62.1171C61.2444 61.5743 61.2444 61.0932 61.2444 60.6921V51.9892C61.5428 51.9187 61.8125 51.7604 62.0196 51.5342C63.3567 51.241 64.5589 50.5146 65.4402 49.468C66.5024 48.0779 67.0635 46.3702 67.0348 44.6216L67.0975 44.6129L78.0632 43.2583L85.2611 44.1492L89.0915 44.6216C89.0611 46.371 89.623 48.0787 90.6861 49.468C90.9036 49.7247 91.142 49.963 91.3986 50.1805C92.2894 50.933 93.3664 51.4315 94.5165 51.6238C94.6366 51.6568 94.7584 51.6803 94.8819 51.6951V60.6921ZM83.8892 55.0888L74.2858 64.6922L72.2371 62.6434C70.6434 61.0488 68.0587 61.0488 66.465 62.6434C64.8704 64.2372 64.8704 66.8218 66.465 68.4155L66.5981 68.5495L69.716 71.6674L71.4002 73.3508C72.1632 74.1207 73.2019 74.553 74.2858 74.553C75.3698 74.553 76.4094 74.1207 77.1723 73.3508L81.9736 68.5495L89.6622 60.8618C91.2559 59.2672 91.2559 56.6825 89.6622 55.0888C88.0676 53.495 85.483 53.495 83.8892 55.0888ZM87.4612 58.6608L85.2168 60.9061L84.0493 62.0727L77.5734 68.5495L74.9722 71.1507C74.5877 71.516 73.9848 71.516 73.6003 71.1507L68.6651 66.2154C68.385 65.9397 68.3006 65.5221 68.4511 65.1593C68.6025 64.7974 68.9583 64.5625 69.3506 64.5669C69.6046 64.5651 69.8482 64.6643 70.0283 64.8435L73.1819 67.9971C73.4733 68.292 73.8709 68.4582 74.2858 68.4582C74.7008 68.4582 75.0992 68.292 75.3907 67.9971L86.0893 57.2985C86.466 56.9192 87.0784 56.9174 87.4569 57.2932C87.8362 57.6699 87.8379 58.2824 87.4612 58.6608Z" fill="white"/>
</g>
<defs>
<clipPath id="clip0">
<rect width="98" height="98" fill="white"/>
</clipPath>
</defs>
</svg>
