<svg width="170" height="55" xmlns="http://www.w3.org/2000/svg">
 <g>
  <title>background</title>
  <rect x="-1" y="-1" width="172" height="57" id="canvas_background" fill="#ffffff"/>
 </g>

 <g>
  <title>Layer 1</title>
  <g id="svg_11">
   <path d="m6.28085,46.8176l-5.959,0l0,-26.2656l5.959,0l0,26.2656z" fill="black" id="svg_2" stroke="null"/>
   <path d="m20.97635,46.7664c-1.6665,0 -3.2825,-0.3072 -4.8985,-0.9472c-1.5655,-0.64 -3.03,-1.5872 -4.2672,-2.8672c-1.212,-1.2288 -2.1463,-2.688 -2.8028,-4.2752c-0.6312,-1.5872 -0.9847,-3.2768 -0.9847,-5.0176c0,-1.792 0.3535,-3.4816 0.9847,-5.0688c0.6313,-1.5872 1.5655,-2.9696 2.8028,-4.224c1.2625,-1.28 2.7017,-2.2272 4.3177,-2.8672c1.616,-0.64 3.232,-0.9472 4.8985,-0.9472c1.6665,0 3.2825,0.3072 4.848,0.9472c1.5655,0.64 3.03,1.5872 4.2673,2.8672l-4.2168,4.2752c-0.6817,-0.6912 -1.4645,-1.2032 -2.3482,-1.536c-0.8838,-0.3584 -1.7675,-0.4864 -2.6513,-0.4864c-0.8837,0 -1.7675,0.1536 -2.6512,0.4864c-0.8838,0.3584 -1.616,0.8448 -2.2978,1.536c-0.6312,0.6912 -1.1867,1.4848 -1.515,2.3296c-0.3535,0.8448 -0.5302,1.792 -0.5302,2.7392c0,0.9472 0.202,1.8432 0.5302,2.688c0.3535,0.8448 0.8838,1.6384 1.515,2.2784c0.6818,0.6912 1.4645,1.2032 2.2978,1.536c0.8837,0.3584 1.717,0.4864 2.6512,0.4864c0.8838,0 1.7675,-0.1536 2.6513,-0.4864c0.8837,-0.3584 1.6665,-0.8448 2.3482,-1.536l4.2168,4.2752c-1.2625,1.28 -2.7018,2.2272 -4.2673,2.8672c-1.5655,0.64 -3.232,0.9472 -4.8985,0.9472z" fill="black" id="svg_3" stroke="null"/>
   <path d="m87.25785,22.5487c2.55,0 4.545,0.7424 6.161,2.2784c1.565,1.536 2.348,3.8144 2.348,6.9376l0,11.9041l-2.096,0l0,-12.1089c-0.101,-2.2784 -0.682,-4.0192 -1.767,-5.2736c-1.086,-1.2032 -2.803,-1.792 -5.101,-1.792c-1.313,0 -2.55,0.3072 -3.661,0.896c-1.1363,0.5888 -2.1968,1.5872 -3.232,3.0208c0.303,0.9472 0.4292,2.0736 0.4292,3.4304l0,11.8017l-2.0452,0l0,-11.9041c0,-4.7616 -2.2978,-7.1424 -6.8933,-7.1424c-2.7017,0 -4.7975,1.152 -6.4135,3.3792l0,15.6929l-2.0957,0l0,-20.3265l1.717,0l0.404,2.0736c1.919,-1.8944 4.1662,-2.7904 6.666,-2.7904c3.3835,0 5.8832,1.3824 7.4992,4.1216c1.1868,-1.3824 2.3483,-2.432 3.535,-3.1232c1.1613,-0.7424 2.7013,-1.0752 4.5453,-1.0752z" fill="black" id="svg_4" stroke="null"/>
   <path d="m99.04885,37.8321c-0.101,-1.2288 0.152,-2.3808 0.632,-3.3792c0.479,-0.9984 1.186,-1.7408 1.994,-2.3296c0.834,-0.5888 1.818,-0.9984 2.879,-1.28c1.06,-0.2816 2.197,-0.4096 3.383,-0.3584c1.717,0.0512 3.232,0.4096 4.495,1.1008c1.262,0.6912 2.348,1.4336 3.131,2.3808l0,-0.8448c0,-2.8672 -0.581,-5.0176 -1.717,-6.4c-1.136,-1.3824 -2.879,-2.0224 -5.277,-2.0224c-1.414,0 -2.803,0.3072 -4.066,0.8448c-1.313,0.5376 -2.348,1.3312 -3.181,2.3296l-1.136,-1.792c1.035,-1.1008 2.247,-1.9456 3.762,-2.5344c1.464,-0.5888 3.03,-0.896 4.595,-0.896c2.98,0 5.227,0.8448 6.793,2.4832c1.515,1.6384 2.297,4.224 2.297,7.7312l0,10.9312l-1.717,0l-0.404,-2.0736c-0.782,0.6912 -1.868,1.3312 -3.333,1.8944c-1.464,0.5376 -2.878,0.8448 -4.267,0.896c-2.651,0.0512 -4.797,-0.4352 -6.363,-1.5872c-1.464,-1.1776 -2.399,-2.8672 -2.5,-5.0944zm16.564,2.0224l0,-3.2768c-0.479,-0.9984 -1.464,-1.9456 -2.878,-2.7904c-1.414,-0.8448 -2.98,-1.3312 -4.646,-1.4336c-0.884,-0.0512 -1.717,0 -2.55,0.2048c-0.834,0.1536 -1.566,0.4352 -2.248,0.8448c-0.681,0.4096 -1.212,0.9984 -1.616,1.7408c-0.404,0.7424 -0.53,1.6384 -0.479,2.6368c0.101,1.536 0.732,2.7392 1.994,3.5328c1.263,0.7936 2.828,1.2032 4.798,1.2288c1.414,0 2.803,-0.2048 4.116,-0.6912c1.313,-0.4608 2.474,-1.152 3.509,-1.9968z" fill="black" id="svg_5" stroke="null"/>
   <path d="m131.52085,22.6768l-0.429,2.0736c-0.202,0 -0.48,-0.0512 -0.884,-0.0512c-3.131,0 -5.429,1.1008 -6.994,3.2769l0,15.6928l-2.096,0l0,-20.3265l1.667,0l0.429,2.0736c1.919,-1.8944 4.368,-2.7904 7.247,-2.7904c0.227,0 0.58,0 1.06,0.0512z" fill="black" id="svg_6" stroke="null"/>
   <path d="m136.74785,13l0,30.6688l-2.096,0l0,-30.6688l2.096,0zm13.711,10.3424l-9.848,10.1376l10.226,10.1632l-2.929,0l-10.024,-10.1632l9.696,-10.1376l2.879,0z" fill="black" id="svg_7" stroke="null"/>
   <path d="m168.48685,24.6736l-1.035,1.792c-0.632,-0.5376 -1.515,-1.0496 -2.753,-1.4848c-1.212,-0.4352 -2.449,-0.6912 -3.661,-0.6912c-1.414,0 -2.55,0.3072 -3.383,0.896c-0.834,0.5888 -1.313,1.4336 -1.364,2.4832c-0.101,1.2288 0.429,2.176 1.465,2.7904c0.934,0.5376 2.196,0.9472 3.812,1.28c2.096,0.4352 3.763,0.896 4.899,1.3824c1.262,0.5376 2.096,1.3312 2.601,2.4832c0.429,1.1008 0.53,2.3296 0.303,3.712c-0.354,1.7408 -1.414,3.0208 -3.131,3.8144c-1.263,0.5888 -2.828,0.896 -4.697,0.896c-1.565,0 -3.131,-0.3072 -4.696,-0.896c-1.566,-0.5888 -2.803,-1.28 -3.712,-2.0736l1.035,-1.792l0.202,0.2048c0.631,0.64 1.667,1.2288 3.03,1.792c1.414,0.5376 2.803,0.7936 4.166,0.7936c1.616,0.0512 2.929,-0.2048 3.914,-0.7424c1.035,-0.5376 1.667,-1.3312 1.869,-2.3808c0.353,-1.792 -0.253,-3.0208 -1.869,-3.7632c-1.086,-0.4864 -2.5,-0.896 -4.267,-1.2288c-2.146,-0.4352 -3.661,-0.9984 -4.596,-1.4848c-1.868,-1.1008 -2.701,-2.6368 -2.55,-4.608c0.152,-1.8432 0.934,-3.2768 2.449,-4.2752c1.137,-0.7936 2.652,-1.152 4.444,-1.152c2.955,-0.128 5.404,0.6656 7.525,2.2528z" fill="black" id="svg_8" stroke="null"/>
   <path d="m43.34785,20.2961c-7.1458,0 -12.9785,5.9136 -12.9785,13.1584c0,7.2448 5.8327,13.1584 12.9785,13.1584c7.1457,0 12.9785,-5.9136 12.9785,-13.1584c0,-7.2448 -5.8328,-13.1584 -12.9785,-13.1584zm6.1105,14.8992l1.1362,6.7072c0,0.0512 0,0.1536 0,0.256c0,0.2048 -0.0505,0.3584 -0.1515,0.4864c-0.101,0.1536 -0.2525,0.2048 -0.404,0.2048c-0.1515,0 -0.3535,-0.0512 -0.5302,-0.1536l-5.9338,-3.1232l-5.9337,3.1744c-0.202,0.1024 -0.404,0.1536 -0.5303,0.1536c-0.202,0 -0.3535,-0.0512 -0.4292,-0.2048c-0.101,-0.1536 -0.1515,-0.3072 -0.1515,-0.4864c0,-0.0512 0,-0.1536 0.0505,-0.256l1.1362,-6.7584l-4.7975,-4.7616c-0.2525,-0.256 -0.3535,-0.4352 -0.3535,-0.64c0,-0.3584 0.2525,-0.5376 0.7323,-0.5888l6.666,-0.9984l2.9795,-6.0928c0.1515,-0.3584 0.404,-0.5376 0.6312,-0.5376c0.2525,0 0.4798,0.2048 0.6313,0.5376l2.9795,6.0928l6.666,0.9984c0.4797,0.1024 0.7322,0.3072 0.7322,0.5888c0,0.2048 -0.101,0.4096 -0.3535,0.64l-4.7722,4.7616z" fill="black" id="svg_9" stroke="null"/>
  </g>
 </g>
</svg>