<svg width="47" height="47" viewBox="0 0 47 47" fill="none" xmlns="http://www.w3.org/2000/svg">
<path d="M46.9641 18.1392C46.964 18.0685 46.9482 17.9617 46.9208 17.9002C46.8485 17.6382 46.688 17.3989 46.4477 17.2318L39.7197 12.555V7.5414C39.7197 6.87679 39.1807 6.33775 38.516 6.33775H30.7758L24.19 1.75911C23.7784 1.47261 23.232 1.47142 22.8191 1.75672L16.1908 6.33775H8.48442C7.81963 6.33775 7.28078 6.87679 7.28078 7.5414V12.4959L0.520121 17.1685C0.187541 17.3984 0.00761914 17.7658 0.00192773 18.1416C0.00156055 18.1486 0 18.1553 0 18.1627L0.0358926 44.2546C0.0363516 44.5737 0.163582 44.8797 0.389494 45.1051C0.615131 45.3301 0.920815 45.4564 1.23953 45.4564C1.24018 45.4564 1.24063 45.4564 1.24119 45.4564L45.798 45.3952C46.4626 45.3943 47.0009 44.8546 47 44.1899L46.9641 18.1392ZM39.7196 15.4869L43.5657 18.1598L39.7196 20.8337V15.4869ZM23.5014 4.21201L26.5591 6.33766H20.426L23.5014 4.21201ZM9.68806 8.74504H37.3123V22.5073L28.0375 28.9553L24.256 26.022C24.2502 26.0174 24.2451 26.0146 24.2394 26.0105C23.8168 25.6934 23.219 25.6817 22.7804 26.022L18.9715 28.9765L9.68806 22.5606V8.74504ZM7.28078 15.4222V20.8969L3.32011 18.1596L7.28078 15.4222ZM2.4104 20.4585L16.9757 30.5245L2.43978 41.7994L2.4104 20.4585ZM4.76196 43.0444L23.5183 28.4961L42.2073 42.9929L4.76196 43.0444ZM30.0308 30.5015L44.56 20.4005L44.5894 41.7946L30.0308 30.5015Z" fill="white"/>
<path d="M31.6488 13.5596H15.3516C14.687 13.5596 14.1479 14.0986 14.1479 14.7632C14.1479 15.4279 14.687 15.9669 15.3516 15.9669H31.6488C32.3136 15.9669 32.8525 15.4279 32.8525 14.7632C32.8525 14.0986 32.3136 13.5596 31.6488 13.5596Z" fill="white"/>
<path d="M31.6488 19.8185H15.3516C14.687 19.8185 14.1479 20.3575 14.1479 21.0221C14.1479 21.6867 14.687 22.2258 15.3516 22.2258H31.6488C32.3136 22.2258 32.8525 21.6867 32.8525 21.0221C32.8525 20.3575 32.3136 19.8185 31.6488 19.8185Z" fill="white"/>
</svg>
