<svg width="69" height="67" viewBox="0 0 69 67" fill="none" xmlns="http://www.w3.org/2000/svg">
<path d="M68.0994 47.2404H0V19.4065H68.0994V47.2404ZM2.28561 44.9258H65.8138V21.7211H2.28561V44.9258Z" fill="#94C2FF"/>
<path d="M47.2946 34.4807H45.4778C44.4229 34.4807 43.4852 34.0653 42.7234 33.3531C42.0201 32.6409 41.6099 31.632 41.6099 30.5638V26.6469H43.8955V30.5638C43.8955 30.9792 44.0713 31.3947 44.3643 31.6914C44.6573 31.9881 45.0676 32.1662 45.4778 32.1662H47.2946C47.7048 32.1662 48.1151 31.9881 48.4081 31.6914C48.7011 31.3947 48.8769 30.9792 48.8769 30.5638V26.6469H51.1625V30.5638C51.1625 31.632 50.7523 32.5816 50.049 33.3531C49.2872 34.0653 48.2909 34.4807 47.2946 34.4807Z" fill="#94C2FF"/>
<path d="M47.529 32.1662H45.2434V40H47.529V32.1662Z" fill="#94C2FF"/>
<path d="M22.6217 34.4807H18.1091C17.4644 34.4807 16.9956 33.9466 16.9956 33.3531V27.8338C16.9956 27.181 17.5231 26.7062 18.1091 26.7062H22.6217C23.6766 26.7062 24.6143 27.1217 25.3762 27.8338C26.0794 28.546 26.4897 29.5549 26.4897 30.5638C26.4897 31.6321 26.0794 32.5816 25.3762 33.3531C24.6143 34.0653 23.6766 34.4807 22.6217 34.4807ZM19.2226 32.1662H22.6217C23.032 32.1662 23.4422 31.9881 23.7352 31.6914C24.0282 31.3947 24.2041 30.9792 24.2041 30.5638C24.2041 30.1484 24.0282 29.7329 23.7352 29.4362C23.4422 29.1395 23.032 28.9614 22.6217 28.9614H19.2226V32.1662Z" fill="#94C2FF"/>
<path d="M22.6217 39.9406H18.1091C17.4644 39.9406 16.9956 39.4065 16.9956 38.8131V33.2938C16.9956 32.6409 17.5231 32.1662 18.1091 32.1662H22.6217C23.6766 32.1662 24.6143 32.5816 25.3762 33.2938C26.0794 34.0059 26.4897 35.0148 26.4897 36.0831C26.4897 37.1513 26.0794 38.1009 25.3762 38.8724C24.6143 39.5846 23.6766 39.9406 22.6217 39.9406ZM19.2226 37.6855H22.6217C23.032 37.6855 23.4422 37.5074 23.7352 37.2107C24.0282 36.9139 24.2041 36.4985 24.2041 36.0831C24.2041 35.6677 24.0282 35.2522 23.7352 34.9555C23.4422 34.6587 23.032 34.4807 22.6217 34.4807H19.2226V37.6855Z" fill="#94C2FF"/>
<path d="M34.9289 39.9406H33.1121C32.0572 39.9406 31.1195 39.5252 30.3576 38.8131C29.6544 38.1009 29.2441 37.092 29.2441 36.0831V26.6469H31.5297V36.0831C31.5297 36.4985 31.7056 36.9139 31.9986 37.2107C32.2916 37.5074 32.7019 37.6855 33.1121 37.6855H34.9289C35.3391 37.6855 35.7493 37.5074 36.0424 37.2107C36.3354 36.9139 36.5112 36.4985 36.5112 36.0831V26.6469H38.7968V36.0831C38.7968 37.1513 38.3866 38.1009 37.6833 38.8131C36.9214 39.5846 35.9838 39.9406 34.9289 39.9406Z" fill="#94C2FF"/>
<path d="M56.4656 8.95432L53.1509 12.312L54.7673 13.9483L58.082 10.5907L56.4656 8.95432Z" fill="#94C2FF"/>
<path d="M45.5516 2.11191L43.7583 6.49838L45.87 7.38369L47.6633 2.99723L45.5516 2.11191Z" fill="#94C2FF"/>
<path d="M35.1633 0H32.8777V4.74777H35.1633V0Z" fill="#94C2FF"/>
<path d="M22.5223 2.10735L20.4106 2.99289L22.2044 7.37936L24.3161 6.49382L22.5223 2.10735Z" fill="#94C2FF"/>
<path d="M11.6118 8.94262L9.99585 10.5795L13.3115 13.9361L14.9274 12.2993L11.6118 8.94262Z" fill="#94C2FF"/>
<path d="M13.2605 52.6889L9.9458 56.0465L11.5622 57.6829L14.8769 54.3252L13.2605 52.6889Z" fill="#94C2FF"/>
<path d="M22.1639 59.2671L20.3711 63.6541L22.483 64.5391L24.2758 60.1522L22.1639 59.2671Z" fill="#94C2FF"/>
<path d="M35.1633 61.8398H32.8777V66.5875H35.1633V61.8398Z" fill="#94C2FF"/>
<path d="M45.9046 59.2595L43.793 60.1453L45.5872 64.5318L47.6989 63.646L45.9046 59.2595Z" fill="#94C2FF"/>
<path d="M60.84 58.7944L59.2241 60.4312L64.4877 65.76L66.1036 64.1231L60.84 58.7944Z" fill="#94C2FF"/>
<path d="M55.851 65.4599L50.2249 49.7329L65.7553 55.4303L55.851 65.4599ZM54.0342 53.5905L56.7887 61.3056L61.6529 56.3798L54.0342 53.5905Z" fill="#94C2FF"/>
</svg>
