<svg width="67" height="54" viewBox="0 0 67 54" fill="none" xmlns="http://www.w3.org/2000/svg">
<path d="M6.95166 6.99554V28.6795H28.4012V6.99554H6.95166ZM26.057 26.3939H9.17866V9.28115H26.057V26.3939Z" fill="#94C2FF"/>
<path d="M59.5206 6.99554H34.2617V9.28115H59.5206V6.99554Z" fill="#94C2FF"/>
<path d="M59.5206 14.2626H34.2617V16.5482H59.5206V14.2626Z" fill="#94C2FF"/>
<path d="M59.5206 21.5883H34.2617V23.8739H59.5206V21.5883Z" fill="#94C2FF"/>
<path d="M59.5206 28.8553H34.2617V31.141H59.5206V28.8553Z" fill="#94C2FF"/>
<path d="M59.5206 36.1224H34.2617V38.408H59.5206V36.1224Z" fill="#94C2FF"/>
<path d="M28.4012 36.1224H6.95166V38.2908H28.4012V36.1224Z" fill="#94C2FF"/>
<path d="M66.2603 45.7337H0.739502V3.94806C0.739502 3.06898 1.09113 2.1899 1.73579 1.54524C2.38045 0.900583 3.20093 0.54895 4.13861 0.54895H62.9198C63.7988 0.54895 64.6779 0.900583 65.3226 1.54524C65.9672 2.1899 66.3189 3.01037 66.3189 3.94806V45.7337H66.2603ZM3.02511 43.4481H64.0333V3.94806C64.0333 3.65503 63.9161 3.36201 63.6816 3.18619C63.5058 3.01037 63.2128 2.89316 62.9198 2.89316H4.08001C3.78698 2.89316 3.49395 3.01037 3.31814 3.18619C3.14232 3.36201 3.02511 3.65503 3.02511 3.94806V43.4481Z" fill="#94C2FF"/>
<path d="M62.9198 53.1765H4.08002C3.20094 53.1765 2.32186 52.8249 1.6772 52.1803C1.03254 51.5356 0.680908 50.7151 0.680908 49.7774V43.4481H66.2017V49.7774C66.2017 50.6565 65.8501 51.5356 65.2054 52.1803C64.6779 52.8249 63.7989 53.1765 62.9198 53.1765ZM3.02512 45.7337V49.7774C3.02512 50.0705 3.14233 50.3635 3.31815 50.5393C3.55257 50.7737 3.78699 50.8909 4.08002 50.8909H62.8612C63.1542 50.8909 63.4472 50.7737 63.6231 50.5979C63.8575 50.3635 63.9747 50.1291 63.9747 49.836V45.7923H3.02512V45.7337Z" fill="#94C2FF"/>
</svg>
