<svg width="70" height="57" viewBox="0 0 70 57" fill="none" xmlns="http://www.w3.org/2000/svg">
<path d="M17.3918 46.2804H9.99121V38.1484H17.4556V46.2804H17.3918ZM12.4793 43.7634H14.9675V40.6654H12.4793V43.7634Z" fill="#94C2FF"/>
<path d="M28.1099 46.2804H20.6455V34.276H28.1099V46.2804ZM23.1336 43.7634H25.6218V36.793H23.1336V43.7634Z" fill="#94C2FF"/>
<path d="M38.7642 46.2804H31.2998V30.4036H38.7642V46.2804ZM33.7879 43.7634H36.2761V32.9206H33.7879V43.7634Z" fill="#94C2FF"/>
<path d="M49.4184 46.2804H42.0178V26.5957H49.4184V46.2804ZM44.506 43.7634H46.9941V29.1128H44.506V43.7634Z" fill="#94C2FF"/>
<path d="M60.1365 46.2804H52.6721V22.7233H60.1365V46.2804ZM55.1603 43.7634H57.6484V25.2404H55.1603V43.7634Z" fill="#94C2FF"/>
<path d="M69.5149 56.0905H0.612793V48.7329H69.5149V56.0905ZM3.10092 53.5734H67.0267V51.25H3.10092V53.5734Z" fill="#94C2FF"/>
<path d="M41.7627 7.6209H28.3013V0.263336H41.7627V7.6209ZM30.7894 5.10384H39.3384V2.7804H30.7894V5.10384Z" fill="#94C2FF"/>
<path d="M66.1973 14.3976H63.7092V7.62091H56.9465V5.10385H66.1973V14.3976Z" fill="#94C2FF"/>
<path d="M66.1972 51.25H3.93018V5.10385H52.2892V7.62091H6.41831V48.7329H63.7091V19.109H66.1972V51.25Z" fill="#94C2FF"/>
<path d="M6.03562 34.7277L4.24927 32.9206L16.0519 21.0452L21.4748 26.5311L32.3205 15.5593L37.7433 21.0452L48.6528 10.0734L54.0757 15.5593L64.0282 5.42654L65.8146 7.23367L54.0757 19.109L48.6528 13.6231L37.7433 24.5949L32.3205 19.109L21.4748 30.0808L16.0519 24.5949L6.03562 34.7277Z" fill="#94C2FF"/>
</svg>
