<svg width="56" height="38" viewBox="0 0 56 38" fill="none" xmlns="http://www.w3.org/2000/svg">
<path d="M54.9144 8.28009L54.9145 8.28016C55.4227 8.69863 55.6188 9.35963 55.4284 9.96387L55.4284 9.9639L47.1159 36.3528L47.1159 36.3528C46.9044 37.0245 46.2546 37.5 45.5 37.5H10.5C9.74533 37.5 9.09564 37.0245 8.88404 36.3527L8.40713 36.5029L8.88403 36.3527L0.571541 9.96382C0.571538 9.96381 0.571536 9.9638 0.571533 9.96379C0.381234 9.35952 0.577391 8.69849 1.08548 8.28003C1.5965 7.85917 2.3231 7.76816 2.93249 8.05434C2.93251 8.05435 2.93253 8.05436 2.93255 8.05437L14.9029 13.6783L15.2391 13.8363L15.4874 13.56L26.7194 1.06213C27.0379 0.707704 27.5045 0.5 28 0.5C28.4956 0.5 28.9623 0.70773 29.2806 1.06209L29.2807 1.06213L40.5126 13.5601L40.7609 13.8364L41.0971 13.6784L53.0676 8.05445C53.6769 7.76818 54.4036 7.85926 54.9144 8.28009ZM43.8785 34.2778H44.2453L44.3554 33.928L50.7378 13.6668L51.0804 12.5791L50.0483 13.0641L41.0771 17.279C40.3825 17.6053 39.5504 17.4374 39.0518 16.8825L39.0517 16.8824L28.3719 4.99898L28 4.58518L27.6281 4.99898L16.9484 16.8824C16.4497 17.4374 15.6178 17.6054 14.9229 17.279C14.9229 17.279 14.9229 17.279 14.9229 17.279L5.95177 13.0641L4.91963 12.5791L5.26225 13.6668L11.6444 33.928L11.7546 34.2778H12.1213H43.8785Z" fill="white" stroke="white"/>
</svg>
