<svg width="37" height="37" viewBox="0 0 37 37" fill="none" xmlns="http://www.w3.org/2000/svg">
<circle cx="18.5" cy="18.5" r="17.5" stroke="#EB5757" stroke-width="2"/>
<path d="M11.729 10.3155C11.351 9.91289 10.7182 9.89294 10.3155 10.271C9.91289 10.649 9.89294 11.2818 10.271 11.6845L11.729 10.3155ZM25.2709 27.6608C25.649 28.0634 26.2818 28.0834 26.6845 27.7054C27.0871 27.3273 27.107 26.6945 26.729 26.2919L25.2709 27.6608ZM26.729 11.6845C27.1071 11.2818 27.0871 10.649 26.6845 10.271C26.2818 9.89294 25.649 9.91289 25.271 10.3155L26.729 11.6845ZM10.271 26.2919C9.89297 26.6945 9.91292 27.3273 10.3155 27.7054C10.7182 28.0834 11.351 28.0634 11.7291 27.6608L10.271 26.2919ZM10.271 11.6845L17.771 19.6727L19.229 18.3037L11.729 10.3155L10.271 11.6845ZM17.771 19.6727L25.2709 27.6608L26.729 26.2919L19.229 18.3037L17.771 19.6727ZM25.271 10.3155L17.771 18.3037L19.229 19.6727L26.729 11.6845L25.271 10.3155ZM17.771 18.3037L10.271 26.2919L11.7291 27.6608L19.229 19.6727L17.771 18.3037Z" fill="#EB5757"/>
</svg>
