<svg width="10" height="18" viewBox="0 0 10 18" fill="none" xmlns="http://www.w3.org/2000/svg">
<path d="M0.624973 17.8863L6.22544 12.0986C6.45516 11.8623 6.29109 11.4591 5.96656 11.4591H5.51991C5.21548 11.4591 5.04409 11.0971 5.23371 10.8515L8.20347 6.99924C8.39307 6.75355 8.22354 6.39158 7.91724 6.39158H6.42417C6.12336 6.39158 5.952 6.039 6.13248 5.79143L9.92626 0.60015C10.1067 0.352588 9.93538 0 9.63457 0H3.63486C3.49629 0 3.36867 0.0806452 3.30853 0.208177L0.375213 6.31283C0.254891 6.56227 0.431728 6.85484 0.701542 6.85484H2.05426C2.32407 6.85484 2.50091 7.14742 2.38059 7.39685L0.375213 11.5717C0.254891 11.8211 0.431728 12.1137 0.701542 12.1137H1.97587C2.24568 12.1137 2.42068 12.4025 2.30402 12.6519L0.0397689 17.4588C-0.140715 17.8395 0.335106 18.1864 0.624973 17.8863Z" fill="#237BEF"/>
</svg>
