<svg width="13" height="14" viewBox="0 0 13 14" fill="none" xmlns="http://www.w3.org/2000/svg">
<path d="M6.48476 8.78723H5.68435C5.39329 8.78723 5.15753 8.55147 5.15753 8.26041C5.15753 7.96935 5.39329 7.7336 5.68435 7.7336H7.09308C7.28518 7.7336 7.44235 7.57642 7.44235 7.38432C7.44235 7.19222 7.28518 7.03505 7.09308 7.03505H6.43237V6.54898C6.43237 6.35688 6.2752 6.19971 6.0831 6.19971C5.891 6.19971 5.73383 6.35688 5.73383 6.54898V7.03505H5.68435C5.00909 7.03505 4.45898 7.58515 4.45898 8.26041C4.45898 8.93567 5.00909 9.48578 5.68435 9.48578H6.48476C6.77582 9.48578 7.01158 9.72154 7.01158 10.0126C7.01158 10.3037 6.77582 10.5394 6.48476 10.5394H5.04984C4.85774 10.5394 4.70056 10.6966 4.70056 10.8887C4.70056 11.0808 4.85774 11.238 5.04984 11.238H5.73674V11.7357C5.73674 11.9278 5.89391 12.0849 6.08601 12.0849C6.27811 12.0849 6.43528 11.9278 6.43528 11.7357V11.238H6.4935C6.49641 11.238 6.49932 11.238 6.50223 11.238C7.17167 11.2292 7.71013 10.682 7.71013 10.0126C7.71013 9.33734 7.16002 8.78723 6.48476 8.78723Z" fill="white"/>
<path d="M11.3339 7.99543C10.9672 7.15135 10.4607 6.33347 9.82037 5.56798C9.04615 4.63659 8.27484 4.01372 7.88191 3.72557L9.36632 0.972141C9.43909 0.835343 9.4158 0.666528 9.30229 0.558836C8.91809 0.183368 8.5106 0 8.05655 0C7.64033 0 7.25904 0.157173 6.92723 0.296881C6.66528 0.404574 6.41788 0.509355 6.21705 0.509355C6.15593 0.509355 6.10353 0.500624 6.05114 0.480249C5.35842 0.227027 4.82578 0.0698545 4.3106 0.0698545C3.65863 0.0698545 3.1027 0.331809 2.55842 0.890644C2.44491 1.00707 2.42744 1.19044 2.51767 1.32723L4.1185 3.74595C3.72266 4.03992 2.9659 4.65696 2.20624 5.56798C1.56881 6.33347 1.05946 7.15135 0.692723 7.99543C0.232848 9.0578 0 10.1667 0 11.2902C0 12.7834 1.21663 14 2.70977 14H9.31684C10.81 14 12.0266 12.7834 12.0266 11.2902C12.0266 10.1667 11.7938 9.0578 11.3339 7.99543ZM3.26279 1.1817C3.60042 0.890644 3.92349 0.762578 4.3106 0.762578C4.72391 0.762578 5.18961 0.902287 5.80956 1.13222C5.93763 1.17879 6.07443 1.20208 6.21414 1.20208C6.55468 1.20208 6.88067 1.06819 7.1921 0.937214C7.49189 0.812058 7.77713 0.692723 8.05364 0.692723C8.18753 0.692723 8.37671 0.716008 8.61538 0.884823L7.2183 3.48108H4.78503L3.26279 1.1817ZM9.31684 13.3015H2.70977C1.60083 13.3015 0.698545 12.3992 0.698545 11.2902C0.698545 9.42453 1.38254 7.65489 2.72723 6.03077C3.57713 5.00333 4.44158 4.3659 4.70353 4.17963H7.31726C7.58212 4.36299 8.44366 5.00333 9.29356 6.03077C10.6412 7.65489 11.3222 9.42162 11.3222 11.2902C11.3281 12.3992 10.4258 13.3015 9.31684 13.3015Z" fill="white"/>
</svg>
