<svg width="14" height="16" viewBox="0 0 14 16" fill="none" xmlns="http://www.w3.org/2000/svg">
<path d="M12.3331 0H1.66639C0.828292 0 0.142578 0.685714 0.142578 1.52381V12.1905C0.142578 13.0286 0.828292 13.7143 1.66639 13.7143H4.71401L6.99972 16L9.28543 13.7143H12.3331C13.1711 13.7143 13.8569 13.0286 13.8569 12.1905V1.52381C13.8569 0.685714 13.1711 0 12.3331 0ZM6.99972 2.51429C8.14258 2.51429 9.05686 3.42857 9.05686 4.57143C9.05686 5.71429 8.14258 6.62857 6.99972 6.62857C5.85686 6.62857 4.94258 5.71429 4.94258 4.57143C4.94258 3.42857 5.85686 2.51429 6.99972 2.51429ZM11.5711 10.6667H2.42829V9.98095C2.42829 8.45714 5.47591 7.61905 6.99972 7.61905C8.52353 7.61905 11.5711 8.45714 11.5711 9.98095V10.6667Z" fill="#94C2FF"/>
</svg>
