<svg width="8" height="8" viewBox="0 0 8 8" fill="none" xmlns="http://www.w3.org/2000/svg">
<path d="M1 3.38889C0.723858 3.38889 0.5 3.61275 0.5 3.88889C0.5 4.16503 0.723858 4.38889 1 4.38889V3.38889ZM7.12826 4.38889C7.4044 4.38889 7.62826 4.16503 7.62826 3.88889C7.62826 3.61275 7.4044 3.38889 7.12826 3.38889V4.38889ZM4.5638 1C4.5638 0.723858 4.33994 0.5 4.0638 0.5C3.78766 0.5 3.5638 0.723858 3.5638 1H4.5638ZM3.5638 6.77778C3.5638 7.05392 3.78766 7.27778 4.0638 7.27778C4.33994 7.27778 4.5638 7.05392 4.5638 6.77778H3.5638ZM1 4.38889H7.12826V3.38889H1V4.38889ZM4.5638 6.77778V1H3.5638V6.77778H4.5638Z" fill="white"/>
</svg>
