<svg width="10" height="10" viewBox="0 0 10 10" fill="none" xmlns="http://www.w3.org/2000/svg">
<path d="M0 10.0005H4.54534V5.45508H0V10.0005ZM0.908999 6.36424H3.63624V9.08446H0.908999V6.36424Z" fill="#237BEF"/>
<path d="M2.72838 7.27344H1.81934V8.18262H2.72838V7.27344Z" fill="#237BEF"/>
<path d="M8.18173 9.0918H7.27246V10.0009H8.18173V9.0918Z" fill="#237BEF"/>
<path d="M9.99958 9.0918H9.09033V10.0009H9.99958V9.0918Z" fill="#237BEF"/>
<path d="M9.09091 6.36424H8.18191V5.45508H5.45459V10.0005H6.36374V7.27325H7.27266V8.18243H9.99998V5.45508H9.09091V6.36424Z" fill="#237BEF"/>
<path d="M0 4.5455H4.54534V0H0V4.5455ZM0.908999 0.909011H3.63624V3.63629H0.908999V0.909011Z" fill="#237BEF"/>
<path d="M2.72838 1.81836H1.81934V2.7275H2.72838V1.81836Z" fill="#237BEF"/>
<path d="M5.45459 0V4.5455H10.0001V0H5.45459ZM9.09091 3.63629H6.36374V0.909011H9.09091V3.63629Z" fill="#237BEF"/>
<path d="M8.18173 1.81836H7.27246V2.7275H8.18173V1.81836Z" fill="#237BEF"/>
</svg>
