<svg width="76" height="72" viewBox="0 0 76 72" fill="none" xmlns="http://www.w3.org/2000/svg">
<circle cx="38.5" cy="15.5" r="14.5" stroke="#94C2FF" stroke-width="2"/>
<path d="M38.5 30V40.5M38.5 40.5L28.5 49M38.5 40.5L48.5 49" stroke="#94C2FF" stroke-width="2"/>
<mask id="mask0" mask-type="alpha" maskUnits="userSpaceOnUse" x="25" y="2" width="27" height="27">
<circle cx="38.5" cy="15.5" r="13.5" fill="#C4C4C4"/>
</mask>
<g mask="url(#mask0)">
<mask id="path-4-inside-1" fill="white">
<path d="M44 11.5C44 14.5376 41.5376 17 38.5 17C35.4624 17 33 14.5376 33 11.5C33 8.46243 35.4624 6 38.5 6C41.5376 6 44 8.46243 44 11.5Z"/>
<path d="M29 28.5C29 23.2533 33.2533 19 38.5 19C43.7467 19 48 23.2533 48 28.5V35H29V28.5Z"/>
</mask>
<path d="M48 35V37H50V35H48ZM29 35H27V37H29V35ZM42 11.5C42 13.433 40.433 15 38.5 15V19C42.6421 19 46 15.6421 46 11.5H42ZM38.5 15C36.567 15 35 13.433 35 11.5H31C31 15.6421 34.3579 19 38.5 19V15ZM35 11.5C35 9.567 36.567 8 38.5 8V4C34.3579 4 31 7.35786 31 11.5H35ZM38.5 8C40.433 8 42 9.567 42 11.5H46C46 7.35786 42.6421 4 38.5 4V8ZM46 28.5V35H50V28.5H46ZM48 33H29V37H48V33ZM31 35V28.5H27V35H31ZM38.5 21C42.6421 21 46 24.3579 46 28.5H50C50 22.1487 44.8513 17 38.5 17V21ZM38.5 17C32.1487 17 27 22.1487 27 28.5H31C31 24.3579 34.3579 21 38.5 21V17Z" fill="#94C2FF" mask="url(#path-4-inside-1)"/>
</g>
<circle cx="15.5" cy="56.5" r="14.5" stroke="#94C2FF" stroke-width="2"/>
<mask id="mask1" mask-type="alpha" maskUnits="userSpaceOnUse" x="2" y="43" width="27" height="27">
<circle cx="15.5" cy="56.5" r="13.5" fill="#C4C4C4"/>
</mask>
<g mask="url(#mask1)">
<mask id="path-8-inside-2" fill="white">
<path d="M21 52.5C21 55.5376 18.5376 58 15.5 58C12.4624 58 10 55.5376 10 52.5C10 49.4624 12.4624 47 15.5 47C18.5376 47 21 49.4624 21 52.5Z"/>
<path d="M6 69.5C6 64.2533 10.2533 60 15.5 60C20.7467 60 25 64.2533 25 69.5V76H6V69.5Z"/>
</mask>
<path d="M25 76V78H27V76H25ZM6 76H4V78H6V76ZM19 52.5C19 54.433 17.433 56 15.5 56V60C19.6421 60 23 56.6421 23 52.5H19ZM15.5 56C13.567 56 12 54.433 12 52.5H8C8 56.6421 11.3579 60 15.5 60V56ZM12 52.5C12 50.567 13.567 49 15.5 49V45C11.3579 45 8 48.3579 8 52.5H12ZM15.5 49C17.433 49 19 50.567 19 52.5H23C23 48.3579 19.6421 45 15.5 45V49ZM23 69.5V76H27V69.5H23ZM25 74H6V78H25V74ZM8 76V69.5H4V76H8ZM15.5 62C19.6421 62 23 65.3579 23 69.5H27C27 63.1487 21.8513 58 15.5 58V62ZM15.5 58C9.14873 58 4 63.1487 4 69.5H8C8 65.3579 11.3579 62 15.5 62V58Z" fill="#94C2FF" mask="url(#path-8-inside-2)"/>
</g>
<circle cx="60.5" cy="56.5" r="14.5" stroke="#94C2FF" stroke-width="2"/>
<mask id="mask2" mask-type="alpha" maskUnits="userSpaceOnUse" x="47" y="43" width="27" height="27">
<circle cx="60.5" cy="56.5" r="13.5" fill="#C4C4C4"/>
</mask>
<g mask="url(#mask2)">
<mask id="path-12-inside-3" fill="white">
<path d="M66 52.5C66 55.5376 63.5376 58 60.5 58C57.4624 58 55 55.5376 55 52.5C55 49.4624 57.4624 47 60.5 47C63.5376 47 66 49.4624 66 52.5Z"/>
<path d="M51 69.5C51 64.2533 55.2533 60 60.5 60C65.7467 60 70 64.2533 70 69.5V76H51V69.5Z"/>
</mask>
<path d="M70 76V78H72V76H70ZM51 76H49V78H51V76ZM64 52.5C64 54.433 62.433 56 60.5 56V60C64.6421 60 68 56.6421 68 52.5H64ZM60.5 56C58.567 56 57 54.433 57 52.5H53C53 56.6421 56.3579 60 60.5 60V56ZM57 52.5C57 50.567 58.567 49 60.5 49V45C56.3579 45 53 48.3579 53 52.5H57ZM60.5 49C62.433 49 64 50.567 64 52.5H68C68 48.3579 64.6421 45 60.5 45V49ZM68 69.5V76H72V69.5H68ZM70 74H51V78H70V74ZM53 76V69.5H49V76H53ZM60.5 62C64.6421 62 68 65.3579 68 69.5H72C72 63.1487 66.8513 58 60.5 58V62ZM60.5 58C54.1487 58 49 63.1487 49 69.5H53C53 65.3579 56.3579 62 60.5 62V58Z" fill="#94C2FF" mask="url(#path-12-inside-3)"/>
</g>
</svg>
