<svg width="98" height="72" viewBox="0 0 98 72" fill="none" xmlns="http://www.w3.org/2000/svg">
<path d="M86.4618 31.9612C83.1272 30.316 76.8749 30.2969 76.6104 30.2969C75.8175 30.2969 75.1748 30.9312 75.1748 31.7136C75.1748 32.496 75.8175 33.1303 76.6104 33.1303C78.2237 33.1305 82.908 33.3757 85.1779 34.4957C85.384 34.5975 85.603 34.6455 85.8187 34.6455C86.3453 34.6455 86.8523 34.3583 87.1038 33.8621C87.4585 33.1622 87.171 32.3113 86.4618 31.9612Z" fill="#94C2FF"/>
<path d="M93.6191 52.1306L87.6903 50.4589C87.4344 50.3867 87.2556 50.1529 87.2556 49.8901V47.9371C87.7379 47.6073 88.1981 47.2382 88.6282 46.8262C90.7126 44.83 91.8605 42.1524 91.8605 39.2864V36.5915L92.4337 35.4602C93.0629 34.2182 93.3953 32.8277 93.3953 31.4393V24.1385C93.3953 23.3561 92.7526 22.7218 91.9598 22.7218H78.1454C73.1222 22.7218 69.0353 26.7551 69.0353 31.7125V31.7969C69.0353 32.9514 69.3118 34.1077 69.835 35.1402L70.5701 36.5913V38.9052C70.5701 42.5725 72.4013 45.8629 75.175 47.8429L75.1754 49.8897C75.1754 50.2054 75.1754 50.3361 73.99 50.6704L71.0971 51.4861L62.7286 48.483C62.7587 48.0933 62.6254 47.697 62.3374 47.3984L59.6632 44.6258V39.9714C59.9459 39.7415 60.2246 39.5054 60.4947 39.2556C63.8682 36.1351 65.803 31.7293 65.803 27.168V23.4509C66.8216 21.2633 67.3379 18.9484 67.3379 16.5643V1.41672C67.3379 0.634314 66.6951 3.57409e-07 65.9023 3.57409e-07H44.4133C36.8509 3.57409e-07 30.6985 6.07188 30.6985 13.535V16.5647C30.6985 18.9487 31.2147 21.2637 32.2334 23.4513V26.6495C32.2334 31.9454 34.6195 36.7165 38.3731 39.862V44.626L35.699 47.3986C35.4109 47.6972 35.2777 48.0935 35.3078 48.4832L26.4753 51.6527C25.8353 51.8824 25.2406 52.1935 24.7006 52.5704L23.3137 51.886C27.4423 50.1124 28.7502 47.6181 28.813 47.4942C29.0151 47.0954 29.0151 46.6258 28.813 46.227C27.778 44.1843 27.6527 40.4402 27.552 37.4319C27.5185 36.4303 27.4867 35.4841 27.426 34.6417C26.9366 27.8463 21.702 22.7218 15.2497 22.7218C8.79741 22.7218 3.56264 27.8461 3.07341 34.6417C3.01273 35.4843 2.98096 36.4305 2.94746 37.4322C2.84679 40.4404 2.72122 44.1841 1.68648 46.2269C1.48436 46.6256 1.48436 47.0952 1.68648 47.494C1.74926 47.6179 3.05446 50.1072 7.19132 51.8828L3.33889 53.7836C1.27936 54.8007 0 56.8436 0 59.1158V69.5823C0 70.3648 0.642742 70.9991 1.43555 70.9991C2.22835 70.9991 2.87109 70.3648 2.87109 69.5823V59.1158C2.87109 57.9235 3.54236 56.8515 4.62284 56.3182L9.42006 53.9512L11.0887 55.5162C12.2556 56.6105 13.7523 57.1573 15.2497 57.1573C16.7467 57.1573 18.2443 56.6101 19.4107 55.5162L21.0792 53.9514L22.6434 54.7232C21.9068 55.8862 21.4888 57.2501 21.4888 58.6787V69.5827C21.4888 70.3651 22.1315 70.9995 22.9243 70.9995C23.7171 70.9995 24.3599 70.3651 24.3599 69.5827V58.6787C24.3599 56.7338 25.6042 54.9805 27.4565 54.3158L36.7688 50.974L40.6453 56.7129C41.1409 57.4465 41.935 57.9171 42.8241 58.004C42.9232 58.0136 43.0218 58.0183 43.1202 58.0183C43.9046 58.0183 44.6558 57.7136 45.2174 57.1596L47.5824 54.8256V69.5829C47.5824 70.3653 48.2252 70.9996 49.018 70.9996C49.8108 70.9996 50.4535 70.3653 50.4535 69.5829V54.8256L52.8186 57.1596C53.38 57.7138 54.1312 58.0185 54.9158 58.0185C55.014 58.0185 55.1128 58.0138 55.2117 58.0042C56.101 57.9173 56.8951 57.4467 57.3907 56.713L61.2674 50.9744L70.5795 54.3161C72.4316 54.9809 73.6761 56.7342 73.6761 58.6791V69.5831C73.6761 70.3655 74.3188 70.9998 75.1116 70.9998C75.9044 70.9998 76.5472 70.3655 76.5472 69.5831V58.6791C76.5472 56.7093 75.7542 54.8619 74.4239 53.4956L74.7786 53.3957C75.1363 53.2948 75.6244 53.1567 76.1144 52.9196L79.7797 56.5368V69.5831C79.7797 70.3655 80.4224 70.9998 81.2152 70.9998C82.008 70.9998 82.6507 70.3655 82.6507 69.5831V56.5368L86.2905 52.9448C86.484 53.0419 86.6873 53.1238 86.9013 53.1841L92.8303 54.8558C94.1835 55.2374 95.1289 56.4741 95.1289 57.8632V69.5831C95.1289 70.3655 95.7716 70.9998 96.5645 70.9998C97.3573 70.9998 98 70.3655 98 69.5831V57.8632C98 55.2153 96.1985 52.858 93.6191 52.1306ZM9.20951 49.6283C6.52427 48.6748 5.17735 47.4035 4.60236 46.7093C4.99436 45.6979 5.24855 44.5396 5.42062 43.3169C6.21228 45.1902 7.53815 46.7894 9.20951 47.9303V49.6283ZM17.4333 53.4625C16.2089 54.6106 14.2908 54.6104 13.0667 53.4623L11.7317 52.2103C11.957 51.7938 12.0808 51.3216 12.0808 50.8269V49.3168C13.0822 49.6257 14.1468 49.7923 15.2501 49.7923C16.352 49.7923 17.4161 49.6249 18.4192 49.3178L18.419 50.8267C18.419 51.3216 18.5427 51.794 18.7681 52.2107L17.4333 53.4625ZM15.2505 46.9588C10.9638 46.9588 7.47652 43.5171 7.47652 39.2868C7.47652 38.5044 6.83378 37.8701 6.04097 37.8701C5.96058 37.8701 5.88211 37.8782 5.80535 37.8909C5.80956 37.769 5.81358 37.647 5.81779 37.5263C5.84976 36.5522 5.88057 35.632 5.93742 34.8428C6.12079 32.2973 7.15151 29.9516 8.83972 28.2375C10.543 26.508 12.8196 25.5556 15.2501 25.5556C17.6806 25.5556 19.957 26.508 21.6605 28.2375C23.3487 29.9516 24.3794 32.2973 24.5628 34.8428C24.6194 35.6319 24.6504 36.5518 24.683 37.5257C24.6859 37.6094 24.6887 37.6942 24.6916 37.7785C23.1297 35.4037 20.7176 33.6535 17.601 32.6652C14.7216 31.7523 12.2452 31.8088 12.1407 31.8114C11.7648 31.8218 11.408 31.9771 11.1471 32.2442L8.55701 34.8952C8.00671 35.4585 8.02318 36.3553 8.59395 36.8984C9.16472 37.4415 10.0735 37.425 10.6238 36.8619L12.779 34.6562C14.6351 34.7458 20.6064 35.4311 22.9287 40.4778C22.3444 44.1968 19.1054 46.9588 15.2505 46.9588ZM21.2899 49.633L21.2901 47.9434C22.9601 46.8087 24.2879 45.2125 25.0802 43.325C25.2522 44.5449 25.5062 45.7006 25.8975 46.7097C25.3257 47.3973 23.9725 48.6799 21.2899 49.633ZM35.1045 26.6493V23.1343C35.1045 22.921 35.0557 22.7104 34.9617 22.5183C34.038 20.6305 33.5696 18.6274 33.5696 16.5647V13.5352C33.5696 7.63424 38.4342 2.83363 44.4133 2.83363H64.4668V16.5649C64.4668 18.6276 63.9984 20.6307 63.0747 22.5185C62.9807 22.7106 62.9319 22.9212 62.9319 23.1345V27.1684C62.9319 31.005 61.3691 34.5637 58.5313 37.1887C58.177 37.5163 57.8093 37.8234 57.4291 38.1096C57.4207 38.1153 57.4127 38.1215 57.4045 38.1274C54.746 40.1193 51.4898 41.0874 48.0893 40.87C40.808 40.4047 35.1045 34.1583 35.1045 26.6493ZM43.1874 55.1558C43.1774 55.1656 43.1543 55.1888 43.1074 55.1839C43.0607 55.1794 43.0423 55.1524 43.0344 55.1407L38.5699 48.5316L40.0066 47.0418L46.7795 51.6106L43.1874 55.1558ZM49.0182 49.6886L41.2442 44.4444V41.7999C43.2557 42.873 45.508 43.5442 47.9034 43.6972C48.2818 43.7213 48.658 43.7332 49.0329 43.7332C51.7779 43.7332 54.4197 43.0857 56.7921 41.8566V44.4444L49.0182 49.6886ZM55.0019 55.1411C54.9941 55.1528 54.9757 55.1798 54.929 55.1843C54.8821 55.1902 54.8591 55.1658 54.849 55.1562L51.2569 51.6111L58.0298 47.0421L59.4667 48.532L55.0019 55.1411ZM81.2152 53.9457L77.9575 50.7309C78.0143 50.4761 78.0465 50.1971 78.0463 49.8894L78.0461 49.2915C78.9501 49.5843 79.9029 49.7581 80.8889 49.7872C80.9995 49.7906 81.1092 49.7921 81.2194 49.7921C82.3089 49.7921 83.3724 49.6296 84.3845 49.3196V49.8901C84.3845 50.1727 84.4205 50.4496 84.4883 50.7158L81.2152 53.9457ZM86.6287 44.7929C85.1073 46.2501 83.0973 47.0197 80.9752 46.9551C76.8209 46.8321 73.4412 43.221 73.4412 38.9056V36.2571C73.4412 36.037 73.3894 35.8202 73.2896 35.6235L72.4029 33.8732C72.078 33.2319 71.9064 32.5141 71.9064 31.7971V31.7126C71.9064 28.3174 74.7053 25.5554 78.1454 25.5554H90.5242V31.4395C90.5242 32.3904 90.2965 33.3426 89.8656 34.1932L89.141 35.6235C89.0412 35.8204 88.9894 36.037 88.9894 36.2571V39.2866C88.9894 41.3796 88.151 43.335 86.6287 44.7929Z" fill="#94C2FF"/>
<path d="M90.4243 59.0781C89.6315 59.0781 88.9887 59.7124 88.9887 60.4948V69.5836C88.9887 70.366 89.6315 71.0003 90.4243 71.0003C91.2171 71.0003 91.8598 70.366 91.8598 69.5836V60.4948C91.8598 59.7126 91.2171 59.0781 90.4243 59.0781Z" fill="#94C2FF"/>
<path d="M7.57574 60.9492C6.78294 60.9492 6.1402 61.5835 6.1402 62.3659V69.582C6.1402 70.3644 6.78294 70.9987 7.57574 70.9987C8.36855 70.9987 9.01129 70.3644 9.01129 69.582V62.3659C9.01129 61.5837 8.36855 60.9492 7.57574 60.9492Z" fill="#94C2FF"/>
<path d="M60.7771 17.0783C55.3477 11.72 43.9879 12.7444 39.3555 13.4335C37.8964 13.6506 36.8375 14.8691 36.8375 16.331V19.5947C36.8375 20.3771 37.4803 21.0115 38.2731 21.0115C39.0659 21.0115 39.7086 20.3771 39.7086 19.5947V16.3308C39.7086 16.2826 39.7408 16.2415 39.7837 16.235C41.634 15.9598 45.3057 15.5352 49.1099 15.7855C53.5865 16.0796 56.8289 17.1886 58.747 19.0817C59.3077 19.635 60.2167 19.635 60.7771 19.0817C61.3377 18.5284 61.3377 17.6314 60.7771 17.0783Z" fill="#94C2FF"/>
<path d="M32.1341 62.1094C31.3413 62.1094 30.6985 62.7437 30.6985 63.5261V69.5853C30.6985 70.3677 31.3413 71.002 32.1341 71.002C32.9269 71.002 33.5696 70.3677 33.5696 69.5853V63.5261C33.5696 62.7439 32.9269 62.1094 32.1341 62.1094Z" fill="#94C2FF"/>
<path d="M65.9021 62.1094C65.1093 62.1094 64.4666 62.7437 64.4666 63.5261V69.5853C64.4666 70.3677 65.1093 71.002 65.9021 71.002C66.6949 71.002 67.3376 70.3677 67.3376 69.5853V63.5261C67.3376 62.7439 66.6949 62.1094 65.9021 62.1094Z" fill="#94C2FF"/>
</svg>
