<svg width="16" height="16" viewBox="0 0 16 16" fill="none" xmlns="http://www.w3.org/2000/svg">
<path d="M7.22222 13.6444C8.78354 13.6444 10.2149 13.0869 11.3278 12.1605L14.1947 15.0275C14.4247 15.2575 14.7975 15.2575 15.0275 15.0275C15.2575 14.7975 15.2575 14.4247 15.0275 14.1947L12.1605 11.3278C13.0869 10.2149 13.6444 8.78354 13.6444 7.22222C13.6444 3.67557 10.7689 0.8 7.22222 0.8C3.67557 0.8 0.8 3.67557 0.8 7.22222C0.8 10.7689 3.67557 13.6444 7.22222 13.6444ZM12.4667 7.22222C12.4667 10.1188 10.1188 12.4667 7.22222 12.4667C4.32563 12.4667 1.97778 10.1188 1.97778 7.22222C1.97778 4.32563 4.32563 1.97778 7.22222 1.97778C10.1188 1.97778 12.4667 4.32563 12.4667 7.22222Z" fill="#237BEF" stroke="#237BEF" stroke-width="0.4" stroke-linecap="round" stroke-linejoin="round"/>
</svg>
