<svg width="16" height="16" viewBox="0 0 16 16" fill="none" xmlns="http://www.w3.org/2000/svg">
<g opacity="0.3" clip-path="url(#clip0)">
<path d="M8.00012 3.99219C5.79037 3.99219 3.99268 5.79024 3.99268 7.99998C3.99268 10.2097 5.79037 12.0078 8.00012 12.0078C10.2095 12.0078 12.0076 10.2101 12.0076 7.99998C12.0076 5.78988 10.2095 3.99219 8.00012 3.99219Z" fill="white"/>
<path d="M7.99995 2.81453C7.56806 2.81453 7.21802 2.46448 7.21802 2.03295V0.781931C7.21802 0.350044 7.56806 0 7.99995 0C8.43184 0 8.78188 0.350044 8.78188 0.781931V2.03295C8.78188 2.46448 8.43148 2.81453 7.99995 2.81453Z" fill="white"/>
<path d="M7.99995 13.1855C7.56806 13.1855 7.21802 13.5356 7.21802 13.9675V15.2181C7.21802 15.6504 7.56806 16.0004 7.99995 16.0004C8.43184 16.0004 8.78188 15.6504 8.78188 15.2181V13.9675C8.78188 13.5356 8.43148 13.1855 7.99995 13.1855Z" fill="white"/>
<path d="M11.6663 4.3325C11.3612 4.0271 11.3612 3.53215 11.6663 3.22674L12.551 2.34207C12.856 2.03702 13.3513 2.03702 13.6567 2.34207C13.9621 2.64747 13.9621 3.14278 13.6567 3.44783L12.772 4.3325C12.467 4.63791 11.972 4.63791 11.6663 4.3325Z" fill="white"/>
<path d="M4.33337 11.6668C4.02796 11.3611 3.53301 11.3611 3.22761 11.6668L2.34293 12.5511C2.03788 12.8562 2.03753 13.3518 2.34293 13.6569C2.64834 13.9619 3.14364 13.9619 3.44869 13.6569L4.33337 12.7719C4.63877 12.4668 4.63877 11.9715 4.33337 11.6668Z" fill="white"/>
<path d="M13.1851 8.00068C13.1851 7.56879 13.5351 7.21875 13.967 7.21875H15.218C15.6499 7.21875 15.9999 7.56879 15.9999 8.00068C15.9999 8.43257 15.6499 8.78226 15.218 8.78226H13.967C13.5351 8.78226 13.1851 8.43257 13.1851 8.00068Z" fill="white"/>
<path d="M2.81453 8.00068C2.81453 7.56879 2.46448 7.21875 2.0326 7.21875H0.781931C0.350044 7.21875 0 7.56879 0 8.00068C0 8.43257 0.350044 8.78226 0.781931 8.78226H2.03295C2.46448 8.78226 2.81453 8.43257 2.81453 8.00068Z" fill="white"/>
<path d="M11.6661 11.6663C11.9715 11.3612 12.4668 11.3612 12.7718 11.6663L13.6565 12.551C13.9619 12.8557 13.9619 13.3513 13.6565 13.6564C13.3511 13.9614 12.8561 13.9614 12.5507 13.6564L11.6661 12.7717C11.3607 12.4663 11.3607 11.9713 11.6661 11.6663Z" fill="white"/>
<path d="M4.3335 4.33437C4.6389 4.02896 4.6389 3.53401 4.3335 3.22861L3.44882 2.34429C3.14342 2.03888 2.64847 2.03888 2.34307 2.34429C2.03766 2.64934 2.03766 3.14464 2.34307 3.44969L3.22774 4.33437C3.53315 4.64012 4.0281 4.64012 4.3335 4.33437Z" fill="white"/>
</g>
<defs>
<clipPath id="clip0">
<rect width="16" height="16" fill="white"/>
</clipPath>
</defs>
</svg>
