<svg width="12" height="13" viewBox="0 0 12 13" fill="none" xmlns="http://www.w3.org/2000/svg">
<path d="M7.23181 6.84126V8.72983C7.23181 9.08029 7.41189 9.35214 7.56677 9.35214H12V6.21888H7.56677C7.41189 6.21888 7.23181 6.4908 7.23181 6.84126ZM9.05815 7.05851C9.43365 7.05851 9.73913 7.38464 9.73913 7.78551C9.73913 8.18639 9.43365 8.51251 9.05815 8.51251C8.68266 8.51251 8.37718 8.18639 8.37718 7.78551C8.37718 7.38464 8.68266 7.05851 9.05815 7.05851ZM7.56677 10.3633C6.85985 10.3633 6.2847 9.63047 6.2847 8.72983V6.84126C6.2847 5.94062 6.85979 5.20783 7.56677 5.20783H12V3.97574C12 3.35222 11.6172 2.82286 11.0894 2.63991L10.2623 0.325323C10.2155 0.194484 10.12 0.0902034 9.99851 0.0373555C9.87702 -0.0154251 9.74051 -0.0121895 9.6213 0.046523L4.49908 2.57102H1.31579C0.590302 2.57102 0 3.20122 0 3.97574V11.5952C0 12.3698 0.590302 13 1.31579 13H10.6842C11.4097 13 12 12.3698 12 11.5952V10.3633H7.56677ZM9.5581 1.19138L10.0511 2.57109H6.75876L9.5581 1.19138Z" fill="#237BEF"/>
</svg>
